<svg width="44" height="44" viewBox="0 0 44 44" fill="none" xmlns="http://www.w3.org/2000/svg">
<path d="M22.1522 42.3044C33.2819 42.3044 42.3044 33.2819 42.3044 22.1522C42.3044 11.0224 33.2819 2 22.1522 2C11.0224 2 2 11.0224 2 22.1522C2 33.2819 11.0224 42.3044 22.1522 42.3044Z" fill="#F8F3BF" stroke="#F8C40E" stroke-width="2.5"/>
<path d="M25.9012 29.1037C24.6331 29.8166 23.0962 30.2255 21.444 30.2062C19.7918 30.1869 18.2649 29.7423 17.0137 29" stroke="#F8C40E" stroke-width="2.5" stroke-linecap="round"/>
<path d="M27 24C28.1046 24 29 22.433 29 20.5C29 18.567 28.1046 17 27 17C25.8954 17 25 18.567 25 20.5C25 22.433 25.8954 24 27 24Z" fill="#F8C40E"/>
<path d="M16 24C17.1046 24 18 22.433 18 20.5C18 18.567 17.1046 17 16 17C14.8954 17 14 18.567 14 20.5C14 22.433 14.8954 24 16 24Z" fill="#F8C40E"/>
</svg>
