<svg width="45" height="45" viewBox="0 0 45 45" fill="none" xmlns="http://www.w3.org/2000/svg">
<path opacity="0.12" d="M22.5 41.25C32.8553 41.25 41.25 32.8553 41.25 22.5C41.25 12.1447 32.8553 3.75 22.5 3.75C12.1447 3.75 3.75 12.1447 3.75 22.5C3.75 32.8553 12.1447 41.25 22.5 41.25Z" fill="#C7C7C7"/>
<path d="M15 26.25C15 26.25 17.8125 30 22.5 30C27.1875 30 30 26.25 30 26.25M28.125 16.875H28.1437M16.875 16.875H16.8937M41.25 22.5C41.25 32.8553 32.8553 41.25 22.5 41.25C12.1447 41.25 3.75 32.8553 3.75 22.5C3.75 12.1447 12.1447 3.75 22.5 3.75C32.8553 3.75 41.25 12.1447 41.25 22.5ZM29.0625 16.875C29.0625 17.3928 28.6428 17.8125 28.125 17.8125C27.6072 17.8125 27.1875 17.3928 27.1875 16.875C27.1875 16.3572 27.6072 15.9375 28.125 15.9375C28.6428 15.9375 29.0625 16.3572 29.0625 16.875ZM17.8125 16.875C17.8125 17.3928 17.3928 17.8125 16.875 17.8125C16.3572 17.8125 15.9375 17.3928 15.9375 16.875C15.9375 16.3572 16.3572 15.9375 16.875 15.9375C17.3928 15.9375 17.8125 16.3572 17.8125 16.875Z" stroke="#C7C7C7" stroke-width="2.5" stroke-linecap="round" stroke-linejoin="round"/>
</svg>
