<svg width="43" height="43" viewBox="0 0 43 43" fill="none" xmlns="http://www.w3.org/2000/svg">
<path d="M21.7444 41.439C32.649 41.439 41.4888 32.5992 41.4888 21.6946C41.4888 10.7901 32.649 1.9502 21.7444 1.9502C10.8399 1.9502 2 10.7901 2 21.6946C2 32.5992 10.8399 41.439 21.7444 41.439Z" fill="#EFEFEF" stroke="#C7C7C7" stroke-width="2.1"/>
<path d="M18.0001 29.4686C18.9922 28.208 20.1988 27.4686 21.5001 27.4686C22.8014 27.4686 24.0079 28.208 25.0001 29.4686" stroke="#C7C7C7" stroke-width="2.1" stroke-linecap="round"/>
<path d="M27 23.4686C28.1046 23.4686 29 21.9016 29 19.9686C29 18.0356 28.1046 16.4686 27 16.4686C25.8954 16.4686 25 18.0356 25 19.9686C25 21.9016 25.8954 23.4686 27 23.4686Z" fill="#C7C7C7"/>
<path d="M16 23.4686C17.1046 23.4686 18 21.9016 18 19.9686C18 18.0356 17.1046 16.4686 16 16.4686C14.8954 16.4686 14 18.0356 14 19.9686C14 21.9016 14.8954 23.4686 16 23.4686Z" fill="#C7C7C7"/>
<path d="M18.0001 29.4686C18.9922 28.208 20.1988 27.4686 21.5001 27.4686C22.8014 27.4686 24.0079 28.208 25.0001 29.4686" stroke="#C7C7C7" stroke-width="2.1" stroke-linecap="round"/>
<path d="M27 23.4686C28.1046 23.4686 29 21.9016 29 19.9686C29 18.0356 28.1046 16.4686 27 16.4686C25.8954 16.4686 25 18.0356 25 19.9686C25 21.9016 25.8954 23.4686 27 23.4686Z" fill="#C7C7C7"/>
<path d="M16 23.4686C17.1046 23.4686 18 21.9016 18 19.9686C18 18.0356 17.1046 16.4686 16 16.4686C14.8954 16.4686 14 18.0356 14 19.9686C14 21.9016 14.8954 23.4686 16 23.4686Z" fill="#C7C7C7"/>
</svg>
