<svg width="44" height="44" viewBox="0 0 44 44" fill="none" xmlns="http://www.w3.org/2000/svg">
<path d="M22.1522 42.275C33.2819 42.275 42.3044 33.2525 42.3044 22.1228C42.3044 10.993 33.2819 1.97058 22.1522 1.97058C11.0224 1.97058 2 10.993 2 22.1228C2 33.2525 11.0224 42.275 22.1522 42.275Z" fill="#FFDCDC" stroke="#F37373" stroke-width="2.5"/>
<path d="M18.0001 30C18.9922 28.7394 20.1988 28 21.5001 28C22.8014 28 24.0079 28.7394 25.0001 30" stroke="#F37373" stroke-width="2.5" stroke-linecap="round"/>
<path d="M27 24C28.1046 24 29 22.433 29 20.5C29 18.567 28.1046 17 27 17C25.8954 17 25 18.567 25 20.5C25 22.433 25.8954 24 27 24Z" fill="#F37373"/>
<path d="M16 24C17.1046 24 18 22.433 18 20.5C18 18.567 17.1046 17 16 17C14.8954 17 14 18.567 14 20.5C14 22.433 14.8954 24 16 24Z" fill="#F37373"/>
</svg>
