<svg width="44" height="44" viewBox="0 0 44 44" fill="none" xmlns="http://www.w3.org/2000/svg">
<path d="M22.1522 42.3044C33.2819 42.3044 42.3044 33.2819 42.3044 22.1522C42.3044 11.0224 33.2819 2 22.1522 2C11.0224 2 2 11.0224 2 22.1522C2 33.2819 11.0224 42.3044 22.1522 42.3044Z" fill="#ECECEC" stroke="#A6A6A6" stroke-width="2.5"/>
<path d="M25.9016 29.1029C24.6418 29.0983 23.1098 29.0863 21.4577 29.0671C19.8055 29.0478 18.2737 29.024 17.0141 28.9992" stroke="#A6A6A6" stroke-width="2.5" stroke-linecap="round"/>
<path d="M27 24C28.1046 24 29 22.433 29 20.5C29 18.567 28.1046 17 27 17C25.8954 17 25 18.567 25 20.5C25 22.433 25.8954 24 27 24Z" fill="#A6A6A6"/>
<path d="M16 24C17.1046 24 18 22.433 18 20.5C18 18.567 17.1046 17 16 17C14.8954 17 14 18.567 14 20.5C14 22.433 14.8954 24 16 24Z" fill="#A6A6A6"/>
</svg>
