<svg width="44" height="44" viewBox="0 0 44 44" fill="none" xmlns="http://www.w3.org/2000/svg">
<path d="M22.0028 42.3044C33.1325 42.3044 42.155 33.2819 42.155 22.1522C42.155 11.0224 33.1325 2 22.0028 2C10.873 2 1.85059 11.0224 1.85059 22.1522C1.85059 33.2819 10.873 42.3044 22.0028 42.3044Z" fill="#C1F1C6" fill-opacity="0.6" stroke="#3DA96C" stroke-width="2.5"/>
<mask id="mask0_292_172" style="mask-type:alpha" maskUnits="userSpaceOnUse" x="11" y="25" width="20" height="11">
<rect x="12.985" y="27.1066" width="15.7096" height="7.35578" rx="3.67789" transform="rotate(-1.43546 12.985 27.1066)" fill="#309A47" stroke="#49CE7F" stroke-width="2.5"/>
</mask>
<g mask="url(#mask0_292_172)">
<mask id="path-3-inside-1_292_172" fill="white">
<path d="M26.1006 26.1219C27.4923 26.087 28.6933 27.2341 28.1492 28.5155V28.5155C27.8172 29.2976 27.3201 30.0105 26.6873 30.6121C26.0544 31.2138 25.2987 31.692 24.4648 32.0185C23.6308 32.345 22.7355 32.5132 21.8317 32.5131C20.9279 32.513 20.0339 32.3447 19.2026 32.0181C18.3713 31.6915 17.6195 31.2132 16.9916 30.6114C16.3636 30.0097 15.8723 29.2967 15.5466 28.5146V28.5146C15.011 27.2283 16.2187 26.0861 17.6117 26.1212L21.8572 26.2282L26.1006 26.1219Z"/>
</mask>
<path d="M26.1006 26.1219C27.4923 26.087 28.6933 27.2341 28.1492 28.5155V28.5155C27.8172 29.2976 27.3201 30.0105 26.6873 30.6121C26.0544 31.2138 25.2987 31.692 24.4648 32.0185C23.6308 32.345 22.7355 32.5132 21.8317 32.5131C20.9279 32.513 20.0339 32.3447 19.2026 32.0181C18.3713 31.6915 17.6195 31.2132 16.9916 30.6114C16.3636 30.0097 15.8723 29.2967 15.5466 28.5146V28.5146C15.011 27.2283 16.2187 26.0861 17.6117 26.1212L21.8572 26.2282L26.1006 26.1219Z" fill="#3DA96C" stroke="#3DA96C" stroke-width="5" mask="url(#path-3-inside-1_292_172)"/>
</g>
<path d="M26.3015 20.8846C27.168 19.7856 28.2431 19.1248 29.4239 19.091C30.6047 19.0572 31.7193 19.6554 32.6533 20.7029" fill="#F1F1F1"/>
<path d="M26.3015 20.8846C27.168 19.7856 28.2431 19.1248 29.4239 19.091C30.6047 19.0572 31.7193 19.6554 32.6533 20.7029" stroke="#3DA96C" stroke-width="2.5" stroke-linecap="round"/>
<path d="M10.949 20.8845C11.8155 19.7855 12.8906 19.1247 14.0714 19.0909C15.2522 19.0571 16.3668 19.6553 17.3007 20.7027" fill="#F1F1F1"/>
<path d="M10.949 20.8845C11.8155 19.7855 12.8906 19.1247 14.0714 19.0909C15.2522 19.0571 16.3668 19.6553 17.3007 20.7027" stroke="#3DA96C" stroke-width="2.5" stroke-linecap="round"/>
</svg>
