<svg width="44" height="44" viewBox="0 0 44 44" fill="none" xmlns="http://www.w3.org/2000/svg">
<path d="M22.1522 42.3044C33.2819 42.3044 42.3044 33.2819 42.3044 22.1522C42.3044 11.0224 33.2819 2 22.1522 2C11.0224 2 2 11.0224 2 22.1522C2 33.2819 11.0224 42.3044 22.1522 42.3044Z" fill="#E5E5E5" stroke="#A6A6A6" stroke-width="2.5"/>
<path d="M18.0001 30.0294C18.9922 28.7688 20.1988 28.0294 21.5001 28.0294C22.8014 28.0294 24.0079 28.7688 25.0001 30.0294" stroke="#A6A6A6" stroke-width="2.5" stroke-linecap="round"/>
<path d="M27 24.0294C28.1046 24.0294 29 22.4624 29 20.5294C29 18.5964 28.1046 17.0294 27 17.0294C25.8954 17.0294 25 18.5964 25 20.5294C25 22.4624 25.8954 24.0294 27 24.0294Z" fill="#A6A6A6"/>
<path d="M16 24.0294C17.1046 24.0294 18 22.4624 18 20.5294C18 18.5964 17.1046 17.0294 16 17.0294C14.8954 17.0294 14 18.5964 14 20.5294C14 22.4624 14.8954 24.0294 16 24.0294Z" fill="#A6A6A6"/>
</svg>
