<svg width="42" height="43" viewBox="0 0 42 43" fill="none" xmlns="http://www.w3.org/2000/svg">
<path d="M21.1214 41.4888C32.0259 41.4888 40.8658 32.649 40.8658 21.7444C40.8658 10.8399 32.0259 2 21.1214 2C10.2168 2 1.37695 10.8399 1.37695 21.7444C1.37695 32.649 10.2168 41.4888 21.1214 41.4888Z" fill="#EFEFEF" stroke="#C7C7C7" stroke-width="2.1"/>
<mask id="mask0_292_172" style="mask-type:alpha" maskUnits="userSpaceOnUse" x="11" y="25" width="18" height="10">
<rect x="12.1072" y="26.4283" width="15.7411" height="7.55635" rx="3.77818" transform="rotate(-1.43546 12.1072 26.4283)" fill="#309A47" stroke="#49CE7F" stroke-width="2.1"/>
</mask>
<g mask="url(#mask0_292_172)">
<mask id="path-3-inside-1_292_172" fill="white">
<path d="M25.1374 25.6338C26.5009 25.5996 27.6776 26.7235 27.1446 27.979V27.979C26.8192 28.7452 26.3322 29.4437 25.7122 30.0332C25.0922 30.6226 24.3518 31.0911 23.5347 31.411C22.7176 31.7309 21.8404 31.8957 20.9549 31.8956C20.0694 31.8956 19.1935 31.7307 18.379 31.4107C17.5645 31.0907 16.8279 30.622 16.2127 30.0325C15.5974 29.4429 15.1161 28.7444 14.797 27.9781V27.9781C14.2722 26.7178 15.4554 25.5987 16.8202 25.6331L20.9799 25.7379L25.1374 25.6338Z"/>
</mask>
<path d="M25.1374 25.6338C26.5009 25.5996 27.6776 26.7235 27.1446 27.979V27.979C26.8192 28.7452 26.3322 29.4437 25.7122 30.0332C25.0922 30.6226 24.3518 31.0911 23.5347 31.411C22.7176 31.7309 21.8404 31.8957 20.9549 31.8956C20.0694 31.8956 19.1935 31.7307 18.379 31.4107C17.5645 31.0907 16.8279 30.622 16.2127 30.0325C15.5974 29.4429 15.1161 28.7444 14.797 27.9781V27.9781C14.2722 26.7178 15.4554 25.5987 16.8202 25.6331L20.9799 25.7379L25.1374 25.6338Z" fill="#C7C7C7" stroke="#C7C7C7" stroke-width="4.2" mask="url(#path-3-inside-1_292_172)"/>
</g>
<path d="M25.3326 20.5025C26.1817 19.4257 27.235 18.7783 28.3919 18.7452C29.5488 18.7121 30.6408 19.2982 31.5559 20.3244" fill="#EFEFEF"/>
<path d="M25.3326 20.5025C26.1817 19.4257 27.235 18.7783 28.3919 18.7452C29.5488 18.7121 30.6408 19.2982 31.5559 20.3244" stroke="#C7C7C7" stroke-width="2.1" stroke-linecap="round"/>
<path d="M10.2907 20.5023C11.1397 19.4256 12.193 18.7782 13.3499 18.7451C14.5068 18.712 15.5988 19.298 16.5139 20.3243" fill="#EFEFEF"/>
<path d="M10.2907 20.5023C11.1397 19.4256 12.193 18.7782 13.3499 18.7451C14.5068 18.712 15.5988 19.298 16.5139 20.3243" stroke="#C7C7C7" stroke-width="2.1" stroke-linecap="round"/>
</svg>
