<svg width="20" height="20" viewBox="0 0 20 20" fill="none" xmlns="http://www.w3.org/2000/svg">
<path d="M19.2857 18.5714H17.1429V1.42857H17.8571C18.0466 1.42857 18.2283 1.35332 18.3622 1.21936C18.4962 1.08541 18.5714 0.903726 18.5714 0.714286C18.5714 0.524845 18.4962 0.343164 18.3622 0.209209C18.2283 0.0752549 18.0466 0 17.8571 0H2.14286C1.95342 0 1.77174 0.0752549 1.63778 0.209209C1.50383 0.343164 1.42857 0.524845 1.42857 0.714286C1.42857 0.903726 1.50383 1.08541 1.63778 1.21936C1.77174 1.35332 1.95342 1.42857 2.14286 1.42857H2.85714V18.5714H0.714286C0.524845 18.5714 0.343164 18.6467 0.209209 18.7806C0.0752549 18.9146 0 19.0963 0 19.2857C0 19.4752 0.0752549 19.6568 0.209209 19.7908C0.343164 19.9247 0.524845 20 0.714286 20H19.2857C19.4752 20 19.6568 19.9247 19.7908 19.7908C19.9247 19.6568 20 19.4752 20 19.2857C20 19.0963 19.9247 18.9146 19.7908 18.7806C19.6568 18.6467 19.4752 18.5714 19.2857 18.5714ZM4.28571 1.42857H15.7143V18.5714H12.8571V15C12.8571 14.8106 12.7819 14.6289 12.6479 14.4949C12.514 14.361 12.3323 14.2857 12.1429 14.2857H7.85714C7.6677 14.2857 7.48602 14.361 7.35207 14.4949C7.21811 14.6289 7.14286 14.8106 7.14286 15V18.5714H4.28571V1.42857ZM11.4286 18.5714H8.57143V15.7143H11.4286V18.5714ZM6.42857 4.28571C6.42857 4.09627 6.50383 3.91459 6.63778 3.78064C6.77174 3.64668 6.95342 3.57143 7.14286 3.57143H8.57143C8.76087 3.57143 8.94255 3.64668 9.0765 3.78064C9.21046 3.91459 9.28571 4.09627 9.28571 4.28571C9.28571 4.47515 9.21046 4.65684 9.0765 4.79079C8.94255 4.92475 8.76087 5 8.57143 5H7.14286C6.95342 5 6.77174 4.92475 6.63778 4.79079C6.50383 4.65684 6.42857 4.47515 6.42857 4.28571ZM10.7143 4.28571C10.7143 4.09627 10.7895 3.91459 10.9235 3.78064C11.0574 3.64668 11.2391 3.57143 11.4286 3.57143H12.8571C13.0466 3.57143 13.2283 3.64668 13.3622 3.78064C13.4962 3.91459 13.5714 4.09627 13.5714 4.28571C13.5714 4.47515 13.4962 4.65684 13.3622 4.79079C13.2283 4.92475 13.0466 5 12.8571 5H11.4286C11.2391 5 11.0574 4.92475 10.9235 4.79079C10.7895 4.65684 10.7143 4.47515 10.7143 4.28571ZM6.42857 7.85714C6.42857 7.6677 6.50383 7.48602 6.63778 7.35207C6.77174 7.21811 6.95342 7.14286 7.14286 7.14286H8.57143C8.76087 7.14286 8.94255 7.21811 9.0765 7.35207C9.21046 7.48602 9.28571 7.6677 9.28571 7.85714C9.28571 8.04658 9.21046 8.22826 9.0765 8.36222C8.94255 8.49617 8.76087 8.57143 8.57143 8.57143H7.14286C6.95342 8.57143 6.77174 8.49617 6.63778 8.36222C6.50383 8.22826 6.42857 8.04658 6.42857 7.85714ZM10.7143 7.85714C10.7143 7.6677 10.7895 7.48602 10.9235 7.35207C11.0574 7.21811 11.2391 7.14286 11.4286 7.14286H12.8571C13.0466 7.14286 13.2283 7.21811 13.3622 7.35207C13.4962 7.48602 13.5714 7.6677 13.5714 7.85714C13.5714 8.04658 13.4962 8.22826 13.3622 8.36222C13.2283 8.49617 13.0466 8.57143 12.8571 8.57143H11.4286C11.2391 8.57143 11.0574 8.49617 10.9235 8.36222C10.7895 8.22826 10.7143 8.04658 10.7143 7.85714ZM6.42857 11.4286C6.42857 11.2391 6.50383 11.0574 6.63778 10.9235C6.77174 10.7895 6.95342 10.7143 7.14286 10.7143H8.57143C8.76087 10.7143 8.94255 10.7895 9.0765 10.9235C9.21046 11.0574 9.28571 11.2391 9.28571 11.4286C9.28571 11.618 9.21046 11.7997 9.0765 11.9336C8.94255 12.0676 8.76087 12.1429 8.57143 12.1429H7.14286C6.95342 12.1429 6.77174 12.0676 6.63778 11.9336C6.50383 11.7997 6.42857 11.618 6.42857 11.4286ZM10.7143 11.4286C10.7143 11.2391 10.7895 11.0574 10.9235 10.9235C11.0574 10.7895 11.2391 10.7143 11.4286 10.7143H12.8571C13.0466 10.7143 13.2283 10.7895 13.3622 10.9235C13.4962 11.0574 13.5714 11.2391 13.5714 11.4286C13.5714 11.618 13.4962 11.7997 13.3622 11.9336C13.2283 12.0676 13.0466 12.1429 12.8571 12.1429H11.4286C11.2391 12.1429 11.0574 12.0676 10.9235 11.9336C10.7895 11.7997 10.7143 11.618 10.7143 11.4286Z" fill="#7C7C7C"/>
</svg>
