<svg width="22" height="22" viewBox="0 0 22 22" fill="none" xmlns="http://www.w3.org/2000/svg">
<path d="M17.875 2.75H15.8125V2.0625C15.8125 1.88016 15.7401 1.7053 15.6111 1.57636C15.4822 1.44743 15.3073 1.375 15.125 1.375C14.9427 1.375 14.7678 1.44743 14.6389 1.57636C14.5099 1.7053 14.4375 1.88016 14.4375 2.0625V2.75H7.5625V2.0625C7.5625 1.88016 7.49007 1.7053 7.36114 1.57636C7.2322 1.44743 7.05734 1.375 6.875 1.375C6.69266 1.375 6.5178 1.44743 6.38886 1.57636C6.25993 1.7053 6.1875 1.88016 6.1875 2.0625V2.75H4.125C3.76033 2.75 3.41059 2.89487 3.15273 3.15273C2.89487 3.41059 2.75 3.76033 2.75 4.125V17.875C2.75 18.2397 2.89487 18.5894 3.15273 18.8473C3.41059 19.1051 3.76033 19.25 4.125 19.25H17.875C18.2397 19.25 18.5894 19.1051 18.8473 18.8473C19.1051 18.5894 19.25 18.2397 19.25 17.875V4.125C19.25 3.76033 19.1051 3.41059 18.8473 3.15273C18.5894 2.89487 18.2397 2.75 17.875 2.75ZM6.1875 4.125V4.8125C6.1875 4.99484 6.25993 5.1697 6.38886 5.29864C6.5178 5.42757 6.69266 5.5 6.875 5.5C7.05734 5.5 7.2322 5.42757 7.36114 5.29864C7.49007 5.1697 7.5625 4.99484 7.5625 4.8125V4.125H14.4375V4.8125C14.4375 4.99484 14.5099 5.1697 14.6389 5.29864C14.7678 5.42757 14.9427 5.5 15.125 5.5C15.3073 5.5 15.4822 5.42757 15.6111 5.29864C15.7401 5.1697 15.8125 4.99484 15.8125 4.8125V4.125H17.875V6.875H4.125V4.125H6.1875ZM17.875 17.875H4.125V8.25H17.875V17.875ZM9.625 10.3125V15.8125C9.625 15.9948 9.55257 16.1697 9.42364 16.2986C9.2947 16.4276 9.11984 16.5 8.9375 16.5C8.75516 16.5 8.5803 16.4276 8.45136 16.2986C8.32243 16.1697 8.25 15.9948 8.25 15.8125V11.4245L7.87016 11.6153C7.70697 11.6969 7.51804 11.7103 7.34495 11.6526C7.17186 11.5949 7.02878 11.4708 6.94719 11.3077C6.86559 11.1445 6.85217 10.9555 6.90986 10.7825C6.96756 10.6094 7.09165 10.4663 7.25484 10.3847L8.62984 9.69719C8.7347 9.64472 8.85123 9.61994 8.96836 9.6252C9.08549 9.63046 9.19933 9.6656 9.29906 9.72726C9.39878 9.78892 9.48108 9.87506 9.53813 9.97749C9.59518 10.0799 9.62508 10.1953 9.625 10.3125ZM14.7091 12.9293L13.0625 15.125H14.4375C14.6198 15.125 14.7947 15.1974 14.9236 15.3264C15.0526 15.4553 15.125 15.6302 15.125 15.8125C15.125 15.9948 15.0526 16.1697 14.9236 16.2986C14.7947 16.4276 14.6198 16.5 14.4375 16.5H11.6875C11.5598 16.5 11.4347 16.4644 11.3261 16.3973C11.2175 16.3302 11.1297 16.2342 11.0726 16.12C11.0155 16.0058 10.9913 15.8779 11.0028 15.7508C11.0142 15.6236 11.0609 15.5021 11.1375 15.4L13.6108 12.1026C13.667 12.0277 13.7074 11.9421 13.7294 11.851C13.7514 11.76 13.7545 11.6654 13.7386 11.5731C13.7227 11.4808 13.6882 11.3927 13.637 11.3142C13.5859 11.2357 13.5192 11.1686 13.4412 11.1168C13.3631 11.065 13.2753 11.0297 13.1831 11.0131C13.0909 10.9965 12.9963 10.9988 12.9051 11.0201C12.8139 11.0414 12.7279 11.081 12.6526 11.1367C12.5773 11.1923 12.5141 11.2628 12.467 11.3438C12.4231 11.4244 12.3636 11.4955 12.2919 11.5528C12.2202 11.6101 12.1377 11.6525 12.0493 11.6774C11.961 11.7023 11.8685 11.7093 11.7774 11.6979C11.6863 11.6865 11.5984 11.6569 11.5189 11.611C11.4394 11.5651 11.3699 11.5037 11.3145 11.4305C11.2591 11.3573 11.219 11.2737 11.1964 11.1847C11.1738 11.0957 11.1693 11.0031 11.1831 10.9124C11.1969 10.8216 11.2287 10.7345 11.2767 10.6562C11.5038 10.2632 11.8542 9.95614 12.2736 9.78252C12.693 9.60891 13.1579 9.57849 13.5964 9.69598C14.0348 9.81347 14.4222 10.0723 14.6986 10.4324C14.975 10.7924 15.1248 11.2336 15.125 11.6875C15.1265 12.1359 14.9803 12.5723 14.7091 12.9293Z" fill="#7C7C7C"/>
</svg>
