<svg width="17" height="18" viewBox="0 0 17 18" fill="none" xmlns="http://www.w3.org/2000/svg">
<path d="M11 16.8329V10.1662C11 9.94521 10.9122 9.73324 10.7559 9.57696C10.5996 9.42068 10.3877 9.33289 10.1667 9.33289H6.83333C6.61232 9.33289 6.40036 9.42068 6.24408 9.57696C6.0878 9.73324 6 9.94521 6 10.1662V16.8329" stroke="#7C7C7C" stroke-width="2" stroke-linecap="round" stroke-linejoin="round"/>
<path d="M1 7.66623C0.999942 7.42379 1.05278 7.18425 1.15482 6.96433C1.25687 6.74441 1.40566 6.5494 1.59083 6.3929L7.42417 1.39373C7.72499 1.13949 8.10613 1 8.5 1C8.89387 1 9.27501 1.13949 9.57583 1.39373L15.4092 6.3929C15.5943 6.5494 15.7431 6.74441 15.8452 6.96433C15.9472 7.18425 16.0001 7.42379 16 7.66623V15.1662C16 15.6083 15.8244 16.0322 15.5118 16.3447C15.1993 16.6573 14.7754 16.8329 14.3333 16.8329H2.66667C2.22464 16.8329 1.80072 16.6573 1.48816 16.3447C1.17559 16.0322 1 15.6083 1 15.1662V7.66623Z" stroke="#7C7C7C" stroke-width="2" stroke-linecap="round" stroke-linejoin="round"/>
</svg>
