<svg width="17" height="17" viewBox="0 0 17 17" fill="none" xmlns="http://www.w3.org/2000/svg">
<path d="M8.5 4.75H5.125C4.62772 4.75 4.15081 4.55246 3.79917 4.20083C3.44754 3.84919 3.25 3.37228 3.25 2.875C3.25 2.37772 3.44754 1.90081 3.79917 1.54917C4.15081 1.19754 4.62772 1 5.125 1C7.75 1 8.5 4.75 8.5 4.75ZM8.5 4.75H11.875C12.3723 4.75 12.8492 4.55246 13.2008 4.20083C13.5525 3.84919 13.75 3.37228 13.75 2.875C13.75 2.37772 13.5525 1.90081 13.2008 1.54917C12.8492 1.19754 12.3723 1 11.875 1C9.25 1 8.5 4.75 8.5 4.75ZM8.5 4.75L8.5 16M1 10H16M1 7.15L1 13.6C1 14.4401 1 14.8601 1.16349 15.181C1.3073 15.4632 1.53677 15.6927 1.81901 15.8365C2.13988 16 2.55992 16 3.4 16L13.6 16C14.4401 16 14.8601 16 15.181 15.8365C15.4632 15.6927 15.6927 15.4632 15.8365 15.181C16 14.8601 16 14.4401 16 13.6V7.15C16 6.30992 16 5.88988 15.8365 5.56902C15.6927 5.28677 15.4632 5.0573 15.181 4.91349C14.8601 4.75 14.4401 4.75 13.6 4.75L3.4 4.75C2.55992 4.75 2.13988 4.75 1.81901 4.91349C1.53677 5.0573 1.3073 5.28677 1.16349 5.56901C1 5.88988 1 6.30992 1 7.15Z" stroke="#7C7C7C" stroke-width="1.5" stroke-linecap="round" stroke-linejoin="round"/>
</svg>
