<svg width="20" height="16" viewBox="0 0 20 16" fill="none" xmlns="http://www.w3.org/2000/svg">
<path d="M13.3333 1.11111C13.3333 0.496528 13.8299 0 14.4444 0H18.8889C19.5035 0 20 0.496528 20 1.11111C20 1.72569 19.5035 2.22222 18.8889 2.22222H15.5556V5.55556C15.5556 6.17014 15.059 6.66667 14.4444 6.66667H11.1111V10C11.1111 10.6146 10.6146 11.1111 10 11.1111H6.66667V14.4444C6.66667 15.059 6.17014 15.5556 5.55556 15.5556H1.11111C0.496528 15.5556 0 15.059 0 14.4444C0 13.8299 0.496528 13.3333 1.11111 13.3333H4.44444V10C4.44444 9.38542 4.94097 8.88889 5.55556 8.88889H8.88889V5.55556C8.88889 4.94097 9.38542 4.44444 10 4.44444H13.3333V1.11111Z" fill="#7C7C7C"/>
</svg>
