<svg width="20" height="20" viewBox="0 0 20 20" fill="none" xmlns="http://www.w3.org/2000/svg">
<path d="M20 7.5V19.1667C20 19.3877 19.9122 19.5996 19.7559 19.7559C19.5996 19.9122 19.3877 20 19.1667 20C18.9457 20 18.7337 19.9122 18.5774 19.7559C18.4211 19.5996 18.3333 19.3877 18.3333 19.1667V7.5C18.3317 5.95341 17.7166 4.47064 16.623 3.37704C15.5294 2.28343 14.0466 1.66832 12.5 1.66667H7.5C5.95341 1.66832 4.47064 2.28343 3.37704 3.37704C2.28343 4.47064 1.66832 5.95341 1.66667 7.5V19.1667C1.66667 19.3877 1.57887 19.5996 1.42259 19.7559C1.26631 19.9122 1.05435 20 0.833333 20C0.61232 20 0.400358 19.9122 0.244078 19.7559C0.0877975 19.5996 0 19.3877 0 19.1667V7.5C0.00220571 5.51155 0.79309 3.60518 2.19914 2.19914C3.60518 0.79309 5.51155 0.00220571 7.5 0H12.5C14.4884 0.00220571 16.3948 0.79309 17.8009 2.19914C19.2069 3.60518 19.9978 5.51155 20 7.5ZM15.8333 7.5V15C15.8333 15.5778 15.633 16.1378 15.2667 16.5846C14.9004 17.0315 14.3905 17.3376 13.824 17.451L14.0792 17.9604C14.1281 18.0584 14.1573 18.165 14.1651 18.2742C14.1729 18.3835 14.159 18.4931 14.1244 18.597C14.0898 18.7009 14.035 18.797 13.9633 18.8797C13.8915 18.9624 13.8042 19.0302 13.7063 19.0792C13.6083 19.1281 13.5017 19.1573 13.3924 19.1651C13.2832 19.1729 13.1735 19.159 13.0696 19.1244C12.9658 19.0898 12.8697 19.035 12.787 18.9633C12.7043 18.8915 12.6365 18.8042 12.5875 18.7063L11.9854 17.5H8.01458L7.4125 18.7063C7.3136 18.9041 7.14016 19.0545 6.93036 19.1244C6.72055 19.1943 6.49156 19.1781 6.29375 19.0792C6.09594 18.9803 5.94553 18.8068 5.87559 18.597C5.80566 18.3872 5.82193 18.1582 5.92083 17.9604L6.17604 17.451C5.60946 17.3376 5.09964 17.0315 4.73331 16.5846C4.36698 16.1378 4.16675 15.5778 4.16667 15V7.5C4.16667 6.83696 4.43006 6.20107 4.8989 5.73223C5.36774 5.26339 6.00363 5 6.66667 5H13.3333C13.9964 5 14.6323 5.26339 15.1011 5.73223C15.5699 6.20107 15.8333 6.83696 15.8333 7.5ZM5.83333 7.5V12.5H14.1667V7.5C14.1667 7.27899 14.0789 7.06702 13.9226 6.91074C13.7663 6.75446 13.5543 6.66667 13.3333 6.66667H6.66667C6.44565 6.66667 6.23369 6.75446 6.07741 6.91074C5.92113 7.06702 5.83333 7.27899 5.83333 7.5ZM9.16667 14.1667V15.8333H10.8333V14.1667H9.16667ZM6.66667 15.8333H7.5V14.1667H5.83333V15C5.83333 15.221 5.92113 15.433 6.07741 15.5893C6.23369 15.7455 6.44565 15.8333 6.66667 15.8333ZM14.1667 15V14.1667H12.5V15.8333H13.3333C13.5543 15.8333 13.7663 15.7455 13.9226 15.5893C14.0789 15.433 14.1667 15.221 14.1667 15Z" fill="#7C7C7C"/>
</svg>
