<svg width="17" height="16" viewBox="0 0 17 16" fill="none" xmlns="http://www.w3.org/2000/svg">
<path d="M6.31357 9.86714C6.31357 9.86714 7.37158 11.0763 9.13493 11.0763C10.8983 11.0763 11.9563 9.86714 11.9563 9.86714M11.3517 5.83662H11.3598M6.91815 5.83662H6.92621M9.13493 14.7038C12.9191 14.7038 15.9868 11.6361 15.9868 7.85188C15.9868 4.06769 12.9191 1 9.13493 1C5.35074 1 2.28305 4.06769 2.28305 7.85188C2.28305 8.61768 2.40868 9.35413 2.64045 10.0418C2.72767 10.3005 2.77128 10.4299 2.77915 10.5293C2.78692 10.6275 2.78105 10.6963 2.75676 10.7917C2.73217 10.8883 2.67788 10.9888 2.56929 11.1898L1.25078 13.6303C1.06271 13.9784 0.968673 14.1525 0.989719 14.2868C1.00805 14.4038 1.07692 14.5069 1.17802 14.5685C1.2941 14.6393 1.49089 14.619 1.88447 14.5783L6.01254 14.1516C6.13755 14.1387 6.20006 14.1322 6.25703 14.1344C6.31307 14.1365 6.35262 14.1418 6.40727 14.1544C6.46282 14.1672 6.53269 14.1941 6.67241 14.2479C7.43664 14.5424 8.26694 14.7038 9.13493 14.7038ZM11.7548 5.83662C11.7548 6.05922 11.5743 6.23968 11.3517 6.23968C11.1291 6.23968 10.9487 6.05922 10.9487 5.83662C10.9487 5.61402 11.1291 5.43357 11.3517 5.43357C11.5743 5.43357 11.7548 5.61402 11.7548 5.83662ZM7.3212 5.83662C7.3212 6.05922 7.14075 6.23968 6.91815 6.23968C6.69555 6.23968 6.5151 6.05922 6.5151 5.83662C6.5151 5.61402 6.69555 5.43357 6.91815 5.43357C7.14075 5.43357 7.3212 5.61402 7.3212 5.83662Z" stroke="#7C7C7C" stroke-width="1.5" stroke-linecap="round" stroke-linejoin="round"/>
</svg>
