<svg width="25" height="25" viewBox="0 0 30 30" fill="none" xmlns="http://www.w3.org/2000/svg">
<path d="M14.5312 3.75C14.9042 3.75 15.2619 3.89816 15.5256 4.16188C15.7893 4.4256 15.9375 4.78329 15.9375 5.15625V13.125H23.9062C24.2792 13.125 24.6369 13.2732 24.9006 13.5369C25.1643 13.8006 25.3125 14.1583 25.3125 14.5312C25.3125 14.9042 25.1643 15.2619 24.9006 15.5256C24.6369 15.7893 24.2792 15.9375 23.9062 15.9375H15.9375V23.9062C15.9375 24.2792 15.7893 24.6369 15.5256 24.9006C15.2619 25.1643 14.9042 25.3125 14.5312 25.3125C14.1583 25.3125 13.8006 25.1643 13.5369 24.9006C13.2732 24.6369 13.125 24.2792 13.125 23.9062V15.9375H5.15625C4.78329 15.9375 4.4256 15.7893 4.16188 15.5256C3.89816 15.2619 3.75 14.9042 3.75 14.5312C3.75 14.1583 3.89816 13.8006 4.16188 13.5369C4.4256 13.2732 4.78329 13.125 5.15625 13.125H13.125V5.15625C13.125 4.78329 13.2732 4.4256 13.5369 4.16188C13.8006 3.89816 14.1583 3.75 14.5312 3.75Z" fill="white"/>
</svg>
