<svg width="26" height="26" viewBox="0 0 26 26" fill="none" xmlns="http://www.w3.org/2000/svg">
<path d="M12.6094 3.625C12.9202 3.625 13.2182 3.74846 13.438 3.96823C13.6578 4.188 13.7812 4.48607 13.7812 4.79688V11.4375H20.4219C20.7327 11.4375 21.0307 11.561 21.2505 11.7807C21.4703 12.0005 21.5938 12.2986 21.5938 12.6094C21.5938 12.9202 21.4703 13.2182 21.2505 13.438C21.0307 13.6578 20.7327 13.7812 20.4219 13.7812H13.7812V20.4219C13.7812 20.7327 13.6578 21.0307 13.438 21.2505C13.2182 21.4703 12.9202 21.5938 12.6094 21.5938C12.2986 21.5938 12.0005 21.4703 11.7807 21.2505C11.561 21.0307 11.4375 20.7327 11.4375 20.4219V13.7812H4.79688C4.48607 13.7812 4.188 13.6578 3.96823 13.438C3.74846 13.2182 3.625 12.9202 3.625 12.6094C3.625 12.2986 3.74846 12.0005 3.96823 11.7807C4.188 11.561 4.48607 11.4375 4.79688 11.4375H11.4375V4.79688C11.4375 4.48607 11.561 4.188 11.7807 3.96823C12.0005 3.74846 12.2986 3.625 12.6094 3.625Z" fill="#484947"/>
</svg>
