<svg width="16" height="16" viewBox="0 0 21 21" fill="none" xmlns="http://www.w3.org/2000/svg">
<path d="M18.7384 11.5916H11.5956V18.7345C11.5956 19.1133 11.4451 19.4767 11.1771 19.7446C10.9092 20.0125 10.5459 20.163 10.167 20.163C9.78811 20.163 9.42475 20.0125 9.15684 19.7446C8.88893 19.4767 8.73842 19.1133 8.73842 18.7345V11.5916H1.59556C1.21668 11.5916 0.85332 11.4411 0.585411 11.1732C0.317502 10.9053 0.166992 10.5419 0.166992 10.163C0.166992 9.78415 0.317502 9.42078 0.585411 9.15287C0.85332 8.88496 1.21668 8.73445 1.59556 8.73445H8.73842V1.5916C8.73842 1.21272 8.88893 0.849353 9.15684 0.581443C9.42475 0.313534 9.78811 0.163025 10.167 0.163025C10.5459 0.163025 10.9092 0.313534 11.1771 0.581443C11.4451 0.849353 11.5956 1.21272 11.5956 1.5916V8.73445H18.7384C19.1173 8.73445 19.4807 8.88496 19.7486 9.15287C20.0165 9.42078 20.167 9.78415 20.167 10.163C20.167 10.5419 20.0165 10.9053 19.7486 11.1732C19.4807 11.4411 19.1173 11.5916 18.7384 11.5916Z" fill="white"/>
</svg>
