<svg width="494" height="404" viewBox="0 0 494 404" fill="none" xmlns="http://www.w3.org/2000/svg">
<g filter="url(#filter0_ddd_3442_18862)">
<rect x="20" y="8" width="361" height="360" rx="8" fill="white" shape-rendering="crispEdges"/>
<mask id="path-2-inside-1_3442_18862" fill="white">
<path d="M36 8H365V80H36V8Z"/>
</mask>
<path d="M365 80V79H36V80V81H365V80Z" fill="#F1F1F1" mask="url(#path-2-inside-1_3442_18862)"/>
<path d="M48.4678 45.8828V51.2949H38.0918V45.8828H48.4678ZM39.9346 47.3438V49.8008H46.6416V47.3438H39.9346ZM48.4844 37.1006V38.3291C48.4844 39.5078 48.4844 40.7612 48.0693 42.2969L46.2266 42.0977C46.6001 40.6948 46.6333 39.6406 46.625 38.5781H38.0752V37.1006H48.4844ZM50.1445 43.0107V44.4883H36.5146V43.0107H41.7773V40.3545H43.6367V43.0107H50.1445ZM59.6406 37.6484V39.1592H58.3125V43.0439C58.9683 42.9941 59.6074 42.9277 60.2217 42.8447L60.3379 44.2061C57.333 44.7373 53.855 44.7954 51.3564 44.7871L51.1406 43.2598L52.8506 43.2432V39.1592H51.5391V37.6484H59.6406ZM58.1133 45.8496C61.2261 45.8413 63.1685 46.8789 63.1768 48.6553C63.1685 50.4233 61.2344 51.4609 58.1133 51.4609C54.9756 51.4609 53.0498 50.4233 53.0498 48.6553C53.0498 46.8789 54.9839 45.8413 58.1133 45.8496ZM58.1133 47.3105C56.0381 47.3105 54.8926 47.7671 54.8926 48.6553C54.8926 49.5435 56.0298 50.0083 58.1133 50C60.1885 50.0083 61.3257 49.5435 61.3174 48.6553C61.3257 47.7671 60.1719 47.3105 58.1133 47.3105ZM63.0107 36.4863V40.1387H65.1191V41.6992H63.0107V45.5674H61.1514V36.4863H63.0107ZM54.6602 43.2266C55.2661 43.21 55.897 43.1851 56.5195 43.1602V39.1592H54.6602V43.2266ZM78.3506 36.4697V51.4941H76.4912V36.4697H78.3506ZM70.2656 37.5488C72.5483 37.5571 74.1919 39.624 74.2002 42.8613C74.1919 46.1069 72.5483 48.1738 70.2656 48.1738C68.0078 48.1738 66.3477 46.1069 66.3477 42.8613C66.3477 39.624 68.0078 37.5571 70.2656 37.5488ZM70.2656 39.2422C69.0039 39.2505 68.1489 40.5703 68.1406 42.8613C68.1489 45.1606 69.0039 46.4888 70.2656 46.4971C71.5356 46.4888 72.3989 45.1606 72.4072 42.8613C72.3989 40.5703 71.5356 39.2505 70.2656 39.2422ZM92.3291 36.4697V42.3301H94.5537V43.874H92.3291V51.4443H90.4531V36.4697H92.3291ZM88.3447 38.0303C88.353 42.4463 86.5352 46.2979 81.5547 48.7715L80.5088 47.3604C84.0947 45.5425 86.0869 43.019 86.4521 39.5576H81.2891V38.0303H88.3447ZM111.936 36.4863V47.5098H110.06V36.4863H111.936ZM112.284 49.668V51.1787H101.941V46.5303H103.801V49.668H112.284ZM108.217 37.7646V39.2588H106.905V43.708C107.569 43.6665 108.217 43.6167 108.848 43.542L108.98 44.9033C106 45.3765 102.655 45.4512 99.8828 45.4512L99.6836 43.9072H101.394V39.2588H100.099V37.7646H108.217ZM103.187 43.874C103.826 43.8657 104.465 43.8491 105.112 43.8076V39.2588H103.187V43.874ZM130.28 37.167V38.2959C130.272 39.4497 130.272 40.7612 129.915 42.4297L128.072 42.2471C128.396 40.7695 128.429 39.707 128.421 38.6445H119.871V37.167H130.28ZM131.94 43.3428V44.8203H118.311V43.3428H123.573V40.4707H125.433V43.3428H131.94ZM125.997 46.3311C125.997 48.0244 127.823 49.5767 130.961 49.9502L130.28 51.4111C127.84 51.0625 125.989 50.0415 125.067 48.5889C124.129 50.0415 122.27 51.0625 119.838 51.4111L119.157 49.9502C122.295 49.5767 124.121 48.0244 124.121 46.3311V45.8164H125.997V46.3311ZM140.573 45.252V46.8623H142.516V45.252H144.242V50C146.019 49.2446 146.815 47.7588 146.815 46.3145V45.1523H148.658V46.3145C148.65 47.875 149.455 49.3857 151.298 50.0332L150.352 51.4277C149.04 50.938 148.185 50.0332 147.712 48.9043C147.214 50.0083 146.359 50.9297 145.105 51.4277L144.242 50.1328V51.2949H138.83V45.252H140.573ZM140.573 49.8672H142.516V48.2402H140.573V49.8672ZM141.304 37.0674C143.263 37.0757 144.798 38.1548 145.172 39.79H147.845V36.4863H149.721V44.4053H147.845V41.3174H145.188C144.823 42.9775 143.279 44.0898 141.304 44.0898C139.029 44.0898 137.344 42.6372 137.353 40.5703C137.344 38.5117 139.029 37.0757 141.304 37.0674ZM141.304 38.6113C140.034 38.6196 139.137 39.3833 139.129 40.5703C139.137 41.7739 140.034 42.5459 141.304 42.5459C142.549 42.5459 143.462 41.7739 143.462 40.5703C143.462 39.3833 142.549 38.6196 141.304 38.6113ZM164.313 36.4697V51.4941H162.454V36.4697H164.313ZM156.229 37.5488C158.511 37.5571 160.155 39.624 160.163 42.8613C160.155 46.1069 158.511 48.1738 156.229 48.1738C153.971 48.1738 152.311 46.1069 152.311 42.8613C152.311 39.624 153.971 37.5571 156.229 37.5488ZM156.229 39.2422C154.967 39.2505 154.112 40.5703 154.104 42.8613C154.112 45.1606 154.967 46.4888 156.229 46.4971C157.499 46.4888 158.362 45.1606 158.37 42.8613C158.362 40.5703 157.499 39.2505 156.229 39.2422ZM183.92 36.4531V51.4609H182.127V43.791H180.732V50.7637H178.989V36.752H180.732V42.2969H182.127V36.4531H183.92ZM174.424 38.2295C174.424 41.749 174 45.0444 172 47.8916L170.556 47.0615C172.174 44.8286 172.722 42.5293 172.847 39.7402H171.004V38.2295H174.424ZM177.977 38.2295C177.977 41.8403 177.686 45.6753 175.553 48.8379L174.075 48.0244C175.86 45.4927 176.283 42.7202 176.366 39.7402H174.905V38.2295H177.977ZM199.077 42.8613V44.3555H185.381V42.8613H189.083C189.614 41.0435 189.755 39.6572 189.797 38.6611H186.659V37.1504H191.623V37.7314C191.623 38.7026 191.64 40.4209 190.992 42.8613H195.126C195.541 41.0518 195.641 39.6655 195.674 38.6611H192.569V37.1504H197.483V37.7979C197.492 38.8022 197.5 40.4873 196.985 42.8613H199.077ZM193.15 46.2646C193.15 48.0078 194.985 49.5601 198.131 49.9502L197.434 51.4277C195.001 51.0708 193.15 50.0498 192.221 48.5723C191.283 50.0498 189.432 51.0708 187.008 51.4277L186.311 49.9502C189.457 49.5601 191.283 48.0078 191.291 46.2646V45.7002H193.15V46.2646ZM211.91 36.4863V41.1846H214.019V42.7285H211.91V47.6924H210.051V36.4863H211.91ZM209.005 38.1465V39.624H200.106V38.1465H203.626V36.4697H205.485V38.1465H209.005ZM204.556 40.2715C206.714 40.2632 208.233 41.417 208.241 43.127C208.233 44.8203 206.714 45.9658 204.556 45.9658C202.381 45.9658 200.87 44.8203 200.87 43.127C200.87 41.417 202.381 40.2632 204.556 40.2715ZM204.556 41.6826C203.435 41.6909 202.655 42.2222 202.646 43.127C202.655 44.0068 203.435 44.5381 204.556 44.5381C205.668 44.5381 206.448 44.0068 206.448 43.127C206.448 42.2222 205.668 41.6909 204.556 41.6826ZM212.524 49.668V51.1787H202.298V46.8291H204.174V49.668H212.524ZM226.536 36.4697V42.3301H228.761V43.874H226.536V51.4443H224.66V36.4697H226.536ZM222.552 38.0303C222.56 42.4463 220.742 46.2979 215.762 48.7715L214.716 47.3604C218.302 45.5425 220.294 43.019 220.659 39.5576H215.496V38.0303H222.552ZM243.171 48.124V49.668H229.475V48.124H232.612V44.3223C231.425 43.6416 230.703 42.5708 230.703 41.251C230.703 38.8438 233.069 37.2915 236.298 37.2832C239.543 37.2915 241.893 38.8438 241.893 41.251C241.893 42.5708 241.179 43.6333 240 44.3223V48.124H243.171ZM236.298 38.7441C234.073 38.7524 232.538 39.6904 232.529 41.251C232.538 42.8032 234.073 43.7495 236.298 43.7578C238.531 43.7495 240.066 42.8032 240.066 41.251C240.066 39.6904 238.531 38.7524 236.298 38.7441ZM234.472 48.124H238.141V45.0195C237.568 45.144 236.954 45.2021 236.298 45.2021C235.65 45.2021 235.036 45.144 234.472 45.0195V48.124ZM247.238 46.0322C247.247 42.5791 250.044 43.0107 250.044 41.168C250.044 40.23 249.322 39.6323 248.284 39.624C247.147 39.6323 246.458 40.3462 246.458 41.5166H244.35C244.358 39.2256 246.018 37.748 248.367 37.748C250.534 37.748 252.235 38.9849 252.235 41.085C252.235 43.8159 249.347 43.4673 249.347 45.9658V46.2646H247.238V46.0322ZM248.301 50.166C247.512 50.166 246.948 49.6182 246.956 48.8711C246.948 48.124 247.512 47.5762 248.301 47.5762C249.073 47.5762 249.637 48.124 249.646 48.8711C249.637 49.6182 249.073 50.166 248.301 50.166Z" fill="#171719"/>
<circle cx="317" cy="44" r="10" stroke="#00C96B" stroke-width="4"/>
<path d="M361.569 33.6C362.088 33.6 362.581 33.8141 362.941 34.1888C363.301 34.5629 363.5 35.0664 363.5 35.5873C363.5 36.0433 363.348 36.486 363.068 36.8402L362.941 36.9857L355.717 44.5004L362.939 52.014L363.066 52.1595C363.346 52.5137 363.498 52.9565 363.498 53.4125L363.488 53.6068C363.445 54.0572 363.254 54.4836 362.939 54.8109C362.624 55.1389 362.207 55.3439 361.76 55.39L361.567 55.3998C361.114 55.3998 360.679 55.236 360.336 54.9437L360.195 54.8109L353 47.3256L345.803 54.808C345.488 55.1358 345.07 55.3408 344.624 55.3871L344.431 55.3978C343.912 55.3978 343.419 55.1828 343.059 54.808C342.699 54.4339 342.5 53.9304 342.5 53.4095C342.5 52.8887 342.699 52.3852 343.059 52.0111L350.282 44.4994L343.061 36.9877C342.701 36.6136 342.502 36.1101 342.502 35.5892L342.512 35.3949C342.555 34.9445 342.746 34.5182 343.061 34.1908C343.421 33.8161 343.914 33.601 344.433 33.601L344.626 33.6107C345.073 33.6569 345.489 33.8629 345.805 34.1908L353 41.6752L360.197 34.1888L360.339 34.056C360.682 33.764 361.116 33.6 361.569 33.6Z" fill="#A6A6A6" stroke="#A6A6A6" stroke-linejoin="round"/>
<mask id="path-7-inside-2_3442_18862" fill="white">
<path d="M36 80H365V152H36V80Z"/>
</mask>
<path d="M365 152V151H36V152V153H365V152Z" fill="#F1F1F1" mask="url(#path-7-inside-2_3442_18862)"/>
<path d="M40.1006 108.702V109.848H46.542V108.702H48.4014V113.699H38.2578V108.702H40.1006ZM40.1006 112.305H46.542V111.226H40.1006V112.305ZM50.1611 114.629V116.123H44.2344V117.252H48.4678V120.871H39.9512V121.934H48.8828V123.345H38.1084V119.576H46.625V118.63H38.0752V117.252H42.375V116.123H36.4814V114.629H50.1611ZM58.1797 109.947V111.242C58.1714 112.753 58.1714 114.554 57.7314 117.036L56.0215 116.887C56.1958 115.899 56.3037 115.019 56.3701 114.214L51.5723 114.646L51.3564 113.135L56.4365 112.869C56.4531 112.363 56.4531 111.89 56.4531 111.441H51.7217V109.947H58.1797ZM54.9922 115.476V118.53C56.2456 118.48 57.5073 118.397 58.5781 118.248L58.6777 119.609C56.2622 120.074 53.2241 120.124 51.2236 120.124L50.9912 118.597C51.6636 118.597 52.4688 118.597 53.3154 118.58V115.476H54.9922ZM64.2227 108.47V123.461H62.4297V116.106H61.0352V122.747H59.292V108.752H61.0352V114.579H62.4297V108.47H64.2227ZM77.7031 108.486V113.185H79.8115V114.729H77.7031V119.692H75.8438V108.486H77.7031ZM74.7979 110.146V111.624H65.8994V110.146H69.4189V108.47H71.2783V110.146H74.7979ZM70.3486 112.271C72.5068 112.263 74.0259 113.417 74.0342 115.127C74.0259 116.82 72.5068 117.966 70.3486 117.966C68.1738 117.966 66.6631 116.82 66.6631 115.127C66.6631 113.417 68.1738 112.263 70.3486 112.271ZM70.3486 113.683C69.228 113.691 68.4478 114.222 68.4395 115.127C68.4478 116.007 69.228 116.538 70.3486 116.538C71.4609 116.538 72.2412 116.007 72.2412 115.127C72.2412 114.222 71.4609 113.691 70.3486 113.683ZM78.3174 121.668V123.179H68.0908V118.829H69.9668V121.668H78.3174ZM97.5752 108.486V116.937H95.7988V113.566H94.2051V116.854H92.4619V108.752H94.2051V112.056H95.7988V108.486H97.5752ZM97.5752 117.584V123.295H87.415V117.584H97.5752ZM89.2412 119.078V121.801H95.749V119.078H89.2412ZM87.249 109.416V114.513C88.6685 114.496 89.9883 114.405 91.499 114.114L91.6982 115.608C89.8638 115.965 88.3198 116.032 86.3857 116.04H85.373V109.416H87.249ZM104.166 112.338C104.166 114.878 105.046 117.352 107.121 118.48L106.025 119.958C104.664 119.194 103.776 117.866 103.27 116.256C102.722 118.032 101.759 119.526 100.348 120.373L99.1855 118.979C101.385 117.7 102.365 115.011 102.356 112.471V109.814H104.166V112.338ZM112.367 108.47V123.461H110.591V115.891H109.063V122.764H107.304V108.735H109.063V114.363H110.591V108.47H112.367ZM121.714 117.252V118.862H123.656V117.252H125.383V122C127.159 121.245 127.956 119.759 127.956 118.314V117.152H129.799V118.314C129.791 119.875 130.596 121.386 132.438 122.033L131.492 123.428C130.181 122.938 129.326 122.033 128.853 120.904C128.354 122.008 127.5 122.93 126.246 123.428L125.383 122.133V123.295H119.971V117.252H121.714ZM121.714 121.867H123.656V120.24H121.714V121.867ZM122.444 109.067C124.403 109.076 125.939 110.155 126.312 111.79H128.985V108.486H130.861V116.405H128.985V113.317H126.329C125.964 114.978 124.42 116.09 122.444 116.09C120.17 116.09 118.485 114.637 118.493 112.57C118.485 110.512 120.17 109.076 122.444 109.067ZM122.444 110.611C121.174 110.62 120.278 111.383 120.27 112.57C120.278 113.774 121.174 114.546 122.444 114.546C123.689 114.546 124.603 113.774 124.603 112.57C124.603 111.383 123.689 110.62 122.444 110.611ZM145.454 108.47V123.494H143.595V108.47H145.454ZM137.369 109.549C139.652 109.557 141.295 111.624 141.304 114.861C141.295 118.107 139.652 120.174 137.369 120.174C135.111 120.174 133.451 118.107 133.451 114.861C133.451 111.624 135.111 109.557 137.369 109.549ZM137.369 111.242C136.107 111.25 135.252 112.57 135.244 114.861C135.252 117.161 136.107 118.489 137.369 118.497C138.639 118.489 139.502 117.161 139.511 114.861C139.502 112.57 138.639 111.25 137.369 111.242ZM158.835 109.947V111.242C158.827 112.753 158.827 114.554 158.387 117.036L156.677 116.887C156.851 115.899 156.959 115.019 157.025 114.214L152.228 114.646L152.012 113.135L157.092 112.869C157.108 112.363 157.108 111.89 157.108 111.441H152.377V109.947H158.835ZM155.647 115.476V118.53C156.901 118.48 158.163 118.397 159.233 118.248L159.333 119.609C156.917 120.074 153.879 120.124 151.879 120.124L151.646 118.597C152.319 118.597 153.124 118.597 153.971 118.58V115.476H155.647ZM164.878 108.47V123.461H163.085V116.106H161.69V122.747H159.947V108.752H161.69V114.579H163.085V108.47H164.878ZM172.05 111.026C172.05 112.836 173.253 114.695 175.569 115.476L174.656 116.937C172.971 116.372 171.792 115.227 171.153 113.799C170.489 115.368 169.244 116.638 167.435 117.252L166.505 115.774C168.896 114.969 170.166 112.994 170.174 111.026V110.877H167.036V109.383H175.138V110.877H172.05V111.026ZM179.105 118.148V123.461H177.229V119.643H168.879V118.148H179.105ZM179.105 108.486V117.401H177.229V113.699H174.706V112.172H177.229V108.486H179.105ZM193.051 108.486V113.185H195.159V114.729H193.051V119.692H191.191V108.486H193.051ZM190.146 110.146V111.624H181.247V110.146H184.767V108.47H186.626V110.146H190.146ZM185.696 112.271C187.854 112.263 189.374 113.417 189.382 115.127C189.374 116.82 187.854 117.966 185.696 117.966C183.521 117.966 182.011 116.82 182.011 115.127C182.011 113.417 183.521 112.263 185.696 112.271ZM185.696 113.683C184.576 113.691 183.795 114.222 183.787 115.127C183.795 116.007 184.576 116.538 185.696 116.538C186.809 116.538 187.589 116.007 187.589 115.127C187.589 114.222 186.809 113.691 185.696 113.683ZM193.665 121.668V123.179H183.438V118.829H185.314V121.668H193.665ZM207.677 108.47V114.33H209.901V115.874H207.677V123.444H205.801V108.47H207.677ZM203.692 110.03C203.701 114.446 201.883 118.298 196.902 120.771L195.856 119.36C199.442 117.542 201.435 115.019 201.8 111.558H196.637V110.03H203.692ZM224.312 120.124V121.668H210.615V120.124H213.753V116.322C212.566 115.642 211.844 114.571 211.844 113.251C211.844 110.844 214.209 109.292 217.438 109.283C220.684 109.292 223.033 110.844 223.033 113.251C223.033 114.571 222.319 115.633 221.141 116.322V120.124H224.312ZM217.438 110.744C215.214 110.752 213.678 111.69 213.67 113.251C213.678 114.803 215.214 115.75 217.438 115.758C219.671 115.75 221.207 114.803 221.207 113.251C221.207 111.69 219.671 110.752 217.438 110.744ZM215.612 120.124H219.281V117.02C218.708 117.144 218.094 117.202 217.438 117.202C216.791 117.202 216.177 117.144 215.612 117.02V120.124ZM228.379 118.032C228.387 114.579 231.185 115.011 231.185 113.168C231.185 112.23 230.462 111.632 229.425 111.624C228.288 111.632 227.599 112.346 227.599 113.517H225.49C225.499 111.226 227.159 109.748 229.508 109.748C231.674 109.748 233.376 110.985 233.376 113.085C233.376 115.816 230.487 115.467 230.487 117.966V118.265H228.379V118.032ZM229.441 122.166C228.653 122.166 228.088 121.618 228.097 120.871C228.088 120.124 228.653 119.576 229.441 119.576C230.213 119.576 230.778 120.124 230.786 120.871C230.778 121.618 230.213 122.166 229.441 122.166Z" fill="#171719"/>
<circle cx="317" cy="116" r="10" stroke="#A6A6A6" stroke-width="4"/>
<path d="M361.569 105.5C362.089 105.5 362.583 105.717 362.943 106.095C363.303 106.472 363.5 106.979 363.5 107.502C363.5 107.96 363.349 108.405 363.07 108.762L362.943 108.909L355.713 116.501L362.94 124.091L363.067 124.238C363.346 124.595 363.498 125.04 363.498 125.498C363.498 126.021 363.3 126.528 362.94 126.905C362.581 127.283 362.087 127.5 361.567 127.5C361.112 127.5 360.678 127.334 360.335 127.039L360.193 126.905L352.999 119.35L345.804 126.902C345.444 127.28 344.951 127.497 344.431 127.497C343.911 127.497 343.417 127.28 343.057 126.902C342.698 126.525 342.5 126.018 342.5 125.495C342.5 124.972 342.698 124.466 343.057 124.089L350.286 116.5L343.06 108.91C342.7 108.533 342.502 108.026 342.502 107.503C342.502 106.98 342.701 106.474 343.06 106.097L343.2 105.962C343.543 105.667 343.978 105.501 344.433 105.501C344.953 105.501 345.447 105.719 345.807 106.097L352.999 113.65L360.196 106.095L360.337 105.961C360.68 105.666 361.114 105.5 361.569 105.5Z" fill="#FC7254" stroke="#FC7254" stroke-linejoin="round"/>
<mask id="path-12-inside-3_3442_18862" fill="white">
<path d="M36 152H365V224H36V152Z"/>
</mask>
<path d="M365 224V223H36V224V225H365V224Z" fill="#F1F1F1" mask="url(#path-12-inside-3_3442_18862)"/>
<path d="M49.0654 180.486V188.173H47.1895V185.102H44.2012V187.691H37.1621V181.117H39.0215V182.993H42.3584V181.117H44.2012V183.624H47.1895V180.486H49.0654ZM49.0654 188.804V192.672H41.0303V193.817H49.5469V195.295H39.1875V191.311H47.2061V190.265H39.1543V188.804H49.0654ZM39.0215 186.23H42.3584V184.421H39.0215V186.23ZM56.9678 182.014V187.559H53.4316V190.364C54.9756 190.339 56.4199 190.265 58.1133 189.982L58.2627 191.493C56.2539 191.833 54.5771 191.892 52.6846 191.892H51.6221V186.081H55.1748V183.508H51.6055V182.014H56.9678ZM64.123 180.47V195.461H62.3301V180.47H64.123ZM61.002 180.785V194.714H59.2588V187.21H57.6152V185.666H59.2588V180.785H61.002ZM77.6367 180.47V186.33H79.8613V187.874H77.6367V195.444H75.7607V180.47H77.6367ZM73.6523 182.03C73.6606 186.446 71.8428 190.298 66.8623 192.771L65.8164 191.36C69.4023 189.542 71.3945 187.019 71.7598 183.558H66.5967V182.03H73.6523ZM98.7207 186.247V187.791H96.4961V195.444H94.6201V180.47H96.4961V186.247H98.7207ZM87.0996 181.914V190.182C89.1333 190.157 91.2417 189.991 93.4912 189.551L93.6904 191.078C91.1504 191.609 88.7266 191.742 86.502 191.742H85.2568V181.914H87.0996ZM113.098 188.272V189.767H99.418V188.272H105.312V186.944C102.589 186.737 100.837 185.641 100.846 183.923C100.837 182.039 102.996 180.876 106.258 180.868C109.52 180.876 111.678 182.039 111.67 183.923C111.678 185.649 109.918 186.745 107.171 186.944V188.272H113.098ZM111.57 193.668V195.179H101.111V190.829H102.987V193.668H111.57ZM106.258 182.379C104.1 182.371 102.771 182.935 102.771 183.923C102.771 184.944 104.1 185.492 106.258 185.5C108.424 185.492 109.744 184.944 109.744 183.923C109.744 182.935 108.424 182.371 106.258 182.379ZM131.957 189.103V190.563H118.277V189.103H131.957ZM130.43 193.718V195.179H119.971V191.443H121.847V193.718H130.43ZM131.227 181.765V183.192H118.958V181.765H124.188V180.37H126.047V181.765H131.227ZM125.117 183.707C128.288 183.715 130.114 184.521 130.114 186.015C130.114 187.517 128.288 188.322 125.117 188.322C121.946 188.322 120.128 187.517 120.137 186.015C120.128 184.521 121.955 183.715 125.117 183.707ZM125.117 185.052C123.067 185.052 122.021 185.367 122.029 186.015C122.021 186.687 123.059 187.002 125.117 186.994C127.184 187.002 128.222 186.687 128.222 186.015C128.222 185.367 127.184 185.052 125.117 185.052ZM138.498 183.026C138.498 184.836 139.702 186.695 142.018 187.476L141.104 188.937C139.419 188.372 138.241 187.227 137.602 185.799C136.938 187.368 135.692 188.638 133.883 189.252L132.953 187.774C135.344 186.969 136.614 184.994 136.622 183.026V182.877H133.484V181.383H141.586V182.877H138.498V183.026ZM145.554 190.148V195.461H143.678V191.643H135.327V190.148H145.554ZM145.554 180.486V189.401H143.678V185.699H141.154V184.172H143.678V180.486H145.554ZM161.342 188.206V189.7H147.662V188.206H161.342ZM159.814 193.668V195.179H149.355V190.812H151.231V193.668H159.814ZM154.502 180.935C157.764 180.943 159.922 182.105 159.914 183.989C159.922 185.898 157.764 187.052 154.502 187.044C151.24 187.052 149.082 185.898 149.09 183.989C149.082 182.105 151.24 180.943 154.502 180.935ZM154.502 182.429C152.344 182.437 151.016 182.985 151.016 183.989C151.016 185.01 152.344 185.558 154.502 185.566C156.668 185.558 157.988 185.01 157.988 183.989C157.988 182.985 156.668 182.437 154.502 182.429ZM169.958 189.252V190.862H171.9V189.252H173.627V194C175.403 193.245 176.2 191.759 176.2 190.314V189.152H178.043V190.314C178.035 191.875 178.84 193.386 180.683 194.033L179.736 195.428C178.425 194.938 177.57 194.033 177.097 192.904C176.599 194.008 175.744 194.93 174.49 195.428L173.627 194.133V195.295H168.215V189.252H169.958ZM169.958 193.867H171.9V192.24H169.958V193.867ZM170.688 181.067C172.647 181.076 174.183 182.155 174.557 183.79H177.229V180.486H179.105V188.405H177.229V185.317H174.573C174.208 186.978 172.664 188.09 170.688 188.09C168.414 188.09 166.729 186.637 166.737 184.57C166.729 182.512 168.414 181.076 170.688 181.067ZM170.688 182.611C169.418 182.62 168.522 183.383 168.514 184.57C168.522 185.774 169.418 186.546 170.688 186.546C171.934 186.546 172.847 185.774 172.847 184.57C172.847 183.383 171.934 182.62 170.688 182.611ZM195.209 186.247V187.791H192.984V195.444H191.108V180.47H192.984V186.247H195.209ZM183.588 181.914V190.182C185.622 190.157 187.73 189.991 189.979 189.551L190.179 191.078C187.639 191.609 185.215 191.742 182.99 191.742H181.745V181.914H183.588ZM209.619 192.124V193.668H195.923V192.124H199.061V188.322C197.874 187.642 197.151 186.571 197.151 185.251C197.151 182.844 199.517 181.292 202.746 181.283C205.992 181.292 208.341 182.844 208.341 185.251C208.341 186.571 207.627 187.633 206.448 188.322V192.124H209.619ZM202.746 182.744C200.521 182.752 198.986 183.69 198.978 185.251C198.986 186.803 200.521 187.75 202.746 187.758C204.979 187.75 206.515 186.803 206.515 185.251C206.515 183.69 204.979 182.752 202.746 182.744ZM200.92 192.124H204.589V189.02C204.016 189.144 203.402 189.202 202.746 189.202C202.099 189.202 201.484 189.144 200.92 189.02V192.124ZM213.687 190.032C213.695 186.579 216.492 187.011 216.492 185.168C216.492 184.23 215.77 183.632 214.732 183.624C213.595 183.632 212.906 184.346 212.906 185.517H210.798C210.806 183.226 212.466 181.748 214.815 181.748C216.982 181.748 218.684 182.985 218.684 185.085C218.684 187.816 215.795 187.467 215.795 189.966V190.265H213.687V190.032ZM214.749 194.166C213.96 194.166 213.396 193.618 213.404 192.871C213.396 192.124 213.96 191.576 214.749 191.576C215.521 191.576 216.085 192.124 216.094 192.871C216.085 193.618 215.521 194.166 214.749 194.166Z" fill="#171719"/>
<circle cx="317" cy="188" r="10" stroke="#A6A6A6" stroke-width="4"/>
<path d="M361.569 177.5C362.089 177.5 362.583 177.717 362.943 178.095C363.303 178.472 363.5 178.979 363.5 179.502C363.5 179.96 363.349 180.405 363.07 180.762L362.943 180.909L355.713 188.501L362.94 196.091L363.067 196.238C363.346 196.595 363.498 197.04 363.498 197.498C363.498 198.021 363.3 198.528 362.94 198.905C362.581 199.283 362.087 199.5 361.567 199.5C361.112 199.5 360.678 199.334 360.335 199.039L360.193 198.905L352.999 191.35L345.804 198.902C345.444 199.28 344.951 199.497 344.431 199.497C343.911 199.497 343.417 199.28 343.057 198.902C342.698 198.525 342.5 198.018 342.5 197.495C342.5 196.972 342.698 196.466 343.057 196.089L350.286 188.5L343.06 180.91C342.7 180.533 342.502 180.026 342.502 179.503C342.502 178.98 342.701 178.474 343.06 178.097L343.2 177.962C343.543 177.667 343.978 177.501 344.433 177.501C344.953 177.501 345.447 177.719 345.807 178.097L352.999 185.65L360.196 178.095L360.337 177.961C360.68 177.666 361.114 177.5 361.569 177.5Z" fill="#FC7254" stroke="#FC7254" stroke-linejoin="round"/>
<mask id="path-17-inside-4_3442_18862" fill="white">
<path d="M36 224H365V296H36V224Z"/>
</mask>
<path d="M365 296V295H36V296V297H365V296Z" fill="#F1F1F1" mask="url(#path-17-inside-4_3442_18862)"/>
<path d="M43.4375 261.717C46.5503 261.717 48.4927 262.796 48.4844 264.589C48.4927 266.407 46.5586 267.478 43.4375 267.478C40.3164 267.478 38.3657 266.407 38.374 264.589C38.3657 262.796 40.3164 261.717 43.4375 261.717ZM43.4375 263.194C41.3872 263.203 40.2168 263.667 40.2168 264.589C40.2168 265.527 41.3789 266.008 43.4375 266.017C45.4961 266.008 46.6499 265.527 46.6582 264.589C46.6499 263.667 45.4795 263.203 43.4375 263.194ZM48.3184 252.486V256.056H50.4268V257.6H48.3184V261.368H46.459V252.486H48.3184ZM38.8389 253.416V255.425H42.3252V253.416H44.168V260.422H36.9961V253.416H38.8389ZM38.8389 258.944H42.3252V256.869H38.8389V258.944ZM67.8584 252.486V263.327H65.9824V252.486H67.8584ZM68.2734 265.668V267.179H57.9141V262.231H59.7734V265.668H68.2734ZM59.6738 253.466C61.9565 253.466 63.7163 255.035 63.7246 257.234C63.7163 259.417 61.9565 260.995 59.6738 261.003C57.3662 260.995 55.6064 259.417 55.6064 257.234C55.6064 255.035 57.3662 253.466 59.6738 253.466ZM59.6738 255.076C58.4038 255.084 57.4409 255.915 57.4326 257.234C57.4409 258.529 58.4038 259.359 59.6738 259.359C60.9355 259.359 61.8901 258.529 61.8984 257.234C61.8901 255.915 60.9355 255.084 59.6738 255.076ZM76.1426 254.18V255.674H72.3076V258.214H75.5283V259.675H72.3076V262.547C74.0342 262.53 75.3125 262.472 76.7734 262.215L76.9395 263.726C75.2212 264.033 73.7437 264.058 71.5273 264.058H70.5312V254.18H76.1426ZM82.9824 252.47V267.461H81.2061V252.47H82.9824ZM79.8447 252.769V266.764H78.1016V259.525H76.2588V258.015H78.1016V252.769H79.8447ZM97.2598 252.47V267.494H95.3838V252.47H97.2598ZM92.6279 253.781V259.426H87.4648V262.414C89.8306 262.397 91.8726 262.298 94.1885 261.916L94.3711 263.41C91.8228 263.858 89.5981 263.95 86.8838 263.958H85.5723V257.932H90.7354V255.292H85.5557V253.781H92.6279ZM103.519 253.549C105.552 253.557 107.063 255.25 107.337 257.981H110.159V252.47H112.019V267.494H110.159V259.492H107.354C107.154 262.373 105.61 264.174 103.519 264.174C101.286 264.174 99.6753 262.107 99.6836 258.861C99.6753 255.624 101.286 253.557 103.519 253.549ZM103.519 255.242C102.29 255.25 101.452 256.57 101.46 258.861C101.452 261.161 102.29 262.489 103.519 262.497C104.772 262.489 105.602 261.161 105.61 258.861C105.602 256.57 104.772 255.25 103.519 255.242ZM126.279 256.687V258.181H115.854V253.018H117.729V256.687H126.279ZM127.823 259.907V261.401H114.11V259.907H127.823ZM126.362 265.618V267.129H115.737V262.696H117.613V265.618H126.362ZM139.942 253.615V254.595C139.934 255.657 139.934 257.068 139.61 258.861L137.884 258.695C138.141 257.209 138.183 256.056 138.199 255.109H133.551V253.615H139.942ZM136.788 257.052V259.974C138.058 259.924 139.345 259.841 140.44 259.708L140.54 261.036C138.116 261.476 135.028 261.551 132.986 261.551L132.787 260.057C133.451 260.057 134.24 260.048 135.078 260.023V257.052H136.788ZM145.936 252.486V263.809H144.159V258.562H142.831V263.427H141.088V252.769H142.831V257.035H144.159V252.486H145.936ZM146.317 265.668V267.179H135.36V262.663H137.253V265.668H146.317ZM159.499 252.486V255.69H161.607V257.218H159.499V260.14H157.64V252.486H159.499ZM150.916 261.435V265.635C151.779 265.593 152.651 265.469 153.506 265.187L153.788 266.664C152.46 267.112 151.173 267.179 149.903 267.179H149.09V261.435H150.916ZM160.827 261.65V263.012H153.257V261.65H156.146V260.488H157.955V261.65H160.827ZM157.042 263.427C158.719 263.427 159.914 264.215 159.914 265.436C159.914 266.672 158.727 267.478 157.042 267.478C155.365 267.478 154.17 266.672 154.17 265.436C154.17 264.215 155.365 263.427 157.042 263.427ZM157.042 264.672C156.361 264.68 155.863 264.954 155.863 265.436C155.863 265.95 156.361 266.224 157.042 266.216C157.714 266.224 158.229 265.95 158.221 265.436C158.229 264.954 157.714 264.68 157.042 264.672ZM153.074 255.392C153.074 256.778 154.344 258.098 156.66 258.579L155.896 260.007C154.145 259.633 152.892 258.77 152.194 257.649C151.53 258.969 150.235 259.982 148.393 260.422L147.579 258.994C149.937 258.438 151.207 256.969 151.215 255.392V255.358H148.094V253.864H151.215V252.42H153.074V253.864H156.195V255.358H153.074V255.392ZM176.35 258.247V259.791H174.125V267.444H172.249V252.47H174.125V258.247H176.35ZM164.729 253.914V262.182C166.762 262.157 168.871 261.991 171.12 261.551L171.319 263.078C168.779 263.609 166.355 263.742 164.131 263.742H162.886V253.914H164.729ZM190.76 264.124V265.668H177.063V264.124H180.201V260.322C179.014 259.642 178.292 258.571 178.292 257.251C178.292 254.844 180.658 253.292 183.887 253.283C187.132 253.292 189.481 254.844 189.481 257.251C189.481 258.571 188.768 259.633 187.589 260.322V264.124H190.76ZM183.887 254.744C181.662 254.752 180.126 255.69 180.118 257.251C180.126 258.803 181.662 259.75 183.887 259.758C186.12 259.75 187.655 258.803 187.655 257.251C187.655 255.69 186.12 254.752 183.887 254.744ZM182.061 264.124H185.729V261.02C185.157 261.144 184.542 261.202 183.887 261.202C183.239 261.202 182.625 261.144 182.061 261.02V264.124ZM194.827 262.032C194.835 258.579 197.633 259.011 197.633 257.168C197.633 256.23 196.911 255.632 195.873 255.624C194.736 255.632 194.047 256.346 194.047 257.517H191.938C191.947 255.226 193.607 253.748 195.956 253.748C198.123 253.748 199.824 254.985 199.824 257.085C199.824 259.816 196.936 259.467 196.936 261.966V262.265H194.827V262.032ZM195.89 266.166C195.101 266.166 194.537 265.618 194.545 264.871C194.537 264.124 195.101 263.576 195.89 263.576C196.662 263.576 197.226 264.124 197.234 264.871C197.226 265.618 196.662 266.166 195.89 266.166Z" fill="#171719"/>
<circle cx="317" cy="260" r="10" stroke="#A6A6A6" stroke-width="4"/>
<path d="M361.569 249.5C362.089 249.5 362.583 249.717 362.943 250.095C363.303 250.472 363.5 250.979 363.5 251.502C363.5 251.96 363.349 252.405 363.07 252.762L362.943 252.909L355.713 260.501L362.94 268.091L363.067 268.238C363.346 268.595 363.498 269.04 363.498 269.498C363.498 270.021 363.3 270.528 362.94 270.905C362.581 271.283 362.087 271.5 361.567 271.5C361.112 271.5 360.678 271.334 360.335 271.039L360.193 270.905L352.999 263.35L345.804 270.902C345.444 271.28 344.951 271.497 344.431 271.497C343.911 271.497 343.417 271.28 343.057 270.902C342.698 270.525 342.5 270.018 342.5 269.495C342.5 268.972 342.698 268.466 343.057 268.089L350.286 260.5L343.06 252.91C342.7 252.533 342.502 252.026 342.502 251.503C342.502 250.98 342.701 250.474 343.06 250.097L343.2 249.962C343.543 249.667 343.978 249.501 344.433 249.501C344.953 249.501 345.447 249.719 345.807 250.097L352.999 257.65L360.196 250.095L360.337 249.961C360.68 249.666 361.114 249.5 361.569 249.5Z" fill="#FC7254" stroke="#FC7254" stroke-linejoin="round"/>
<path d="M49.4307 324.47V339.461H47.6543V324.47H49.4307ZM46.3428 324.735V338.764H44.5996V331.625H43.1387C42.981 334.563 41.7441 336.332 39.8848 336.323C37.9092 336.332 36.6309 334.298 36.6309 330.961C36.6309 327.649 37.9092 325.59 39.8848 325.599C41.6943 325.59 42.9229 327.292 43.1221 330.098H44.5996V324.735H46.3428ZM39.8848 327.358C38.9219 327.358 38.3408 328.62 38.3408 330.961C38.3408 333.302 38.9219 334.572 39.8848 334.58C40.8643 334.572 41.4536 333.302 41.4453 330.961C41.4536 328.62 40.8643 327.358 39.8848 327.358ZM55.2744 325.549C57.3081 325.557 58.8188 327.25 59.0928 329.981H61.915V324.47H63.7744V339.494H61.915V331.492H59.1094C58.9102 334.373 57.3662 336.174 55.2744 336.174C53.0415 336.174 51.4312 334.107 51.4395 330.861C51.4312 327.624 53.0415 325.557 55.2744 325.549ZM55.2744 327.242C54.0459 327.25 53.2075 328.57 53.2158 330.861C53.2075 333.161 54.0459 334.489 55.2744 334.497C56.5278 334.489 57.3579 333.161 57.3662 330.861C57.3579 328.57 56.5278 327.25 55.2744 327.242ZM73.7354 325.632C73.7354 329.741 71.8843 332.588 66.8955 334.215L66.165 332.737C68.4478 332.023 69.9004 331.069 70.7637 329.898L66.4307 330.23L66.1484 328.753L71.4775 328.537C71.6353 328.097 71.7266 327.632 71.7764 327.143H66.9121V325.632H73.7354ZM78.4502 324.486V335.56H76.5742V330.612H73.6689V329.085H76.5742V324.486H78.4502ZM78.8652 337.668V339.179H68.7051V334.48H70.5811V337.668H78.8652ZM85.4395 325.499C87.8135 325.507 89.5649 327.01 89.5732 329.135C89.5649 331.268 87.8135 332.779 85.4395 332.771C83.082 332.779 81.314 331.268 81.3223 329.135C81.314 327.01 83.082 325.507 85.4395 325.499ZM85.4395 327.109C84.1196 327.118 83.1401 327.881 83.1318 329.135C83.1401 330.388 84.1196 331.177 85.4395 331.177C86.7593 331.177 87.7388 330.388 87.7305 329.135C87.7388 327.881 86.7593 327.118 85.4395 327.109ZM93.0596 324.47V339.494H91.2002V324.47H93.0596ZM80.6416 334.829C83.2979 334.837 87.083 334.812 90.3203 334.331L90.4531 335.692C87.1328 336.332 83.5054 336.365 80.874 336.373L80.6416 334.829ZM104.764 326.844C104.764 328.728 105.959 330.513 108.267 331.243L107.287 332.704C105.668 332.148 104.506 331.052 103.851 329.666C103.203 331.251 101.983 332.505 100.231 333.136L99.252 331.658C101.684 330.82 102.879 328.803 102.888 326.694V325.267H104.764V326.844ZM111.255 324.486V328.089H113.363V329.633H111.255V333.418H109.396V324.486H111.255ZM106.374 333.783C109.487 333.783 111.429 334.837 111.421 336.622C111.429 338.407 109.495 339.461 106.374 339.461C103.245 339.461 101.302 338.407 101.311 336.622C101.302 334.837 103.253 333.783 106.374 333.783ZM106.374 335.244C104.324 335.244 103.153 335.709 103.153 336.622C103.153 337.527 104.315 338 106.374 338C108.433 338 109.586 337.527 109.595 336.622C109.586 335.709 108.416 335.244 106.374 335.244ZM120.701 326.097V327.591H116.435V330.031H120.436V331.476H116.435V334.381C118.244 334.381 119.581 334.323 121.066 334.065L121.249 335.593C119.498 335.908 117.987 335.941 115.688 335.941H114.658V326.097H120.701ZM127.06 324.47V339.461H125.283V331.874H123.756V338.764H121.996V324.735H123.756V330.363H125.283V324.47H127.06ZM140.972 328.687V330.181H130.546V325.018H132.422V328.687H140.972ZM142.516 331.907V333.401H128.803V331.907H142.516ZM141.055 337.618V339.129H130.43V334.696H132.306V337.618H141.055ZM154.635 325.615V326.595C154.626 327.657 154.626 329.068 154.303 330.861L152.576 330.695C152.833 329.209 152.875 328.056 152.892 327.109H148.243V325.615H154.635ZM151.48 329.052V331.974C152.75 331.924 154.037 331.841 155.133 331.708L155.232 333.036C152.809 333.476 149.721 333.551 147.679 333.551L147.479 332.057C148.144 332.057 148.932 332.048 149.771 332.023V329.052H151.48ZM160.628 324.486V335.809H158.852V330.562H157.523V335.427H155.78V324.769H157.523V329.035H158.852V324.486H160.628ZM161.01 337.668V339.179H150.053V334.663H151.945V337.668H161.01ZM174.191 324.486V327.69H176.3V329.218H174.191V332.14H172.332V324.486H174.191ZM165.608 333.435V337.635C166.472 337.593 167.343 337.469 168.198 337.187L168.48 338.664C167.152 339.112 165.866 339.179 164.596 339.179H163.782V333.435H165.608ZM175.52 333.65V335.012H167.949V333.65H170.838V332.488H172.647V333.65H175.52ZM171.734 335.427C173.411 335.427 174.606 336.215 174.606 337.436C174.606 338.672 173.419 339.478 171.734 339.478C170.058 339.478 168.862 338.672 168.862 337.436C168.862 336.215 170.058 335.427 171.734 335.427ZM171.734 336.672C171.054 336.68 170.556 336.954 170.556 337.436C170.556 337.95 171.054 338.224 171.734 338.216C172.407 338.224 172.921 337.95 172.913 337.436C172.921 336.954 172.407 336.68 171.734 336.672ZM167.767 327.392C167.767 328.778 169.037 330.098 171.353 330.579L170.589 332.007C168.837 331.633 167.584 330.77 166.887 329.649C166.223 330.969 164.928 331.982 163.085 332.422L162.271 330.994C164.629 330.438 165.899 328.969 165.907 327.392V327.358H162.786V325.864H165.907V324.42H167.767V325.864H170.888V327.358H167.767V327.392ZM190.727 332.206V333.7H177.047V332.206H190.727ZM189.199 337.668V339.179H178.74V334.812H180.616V337.668H189.199ZM183.887 324.935C187.149 324.943 189.307 326.105 189.299 327.989C189.307 329.898 187.149 331.052 183.887 331.044C180.625 331.052 178.466 329.898 178.475 327.989C178.466 326.105 180.625 324.943 183.887 324.935ZM183.887 326.429C181.729 326.437 180.4 326.985 180.4 327.989C180.4 329.01 181.729 329.558 183.887 329.566C186.053 329.558 187.373 329.01 187.373 327.989C187.373 326.985 186.053 326.437 183.887 326.429ZM203.51 324.47V330.33H205.734V331.874H203.51V339.444H201.634V324.47H203.51ZM199.525 326.03C199.534 330.446 197.716 334.298 192.735 336.771L191.689 335.36C195.275 333.542 197.268 331.019 197.633 327.558H192.47V326.03H199.525ZM220.145 336.124V337.668H206.448V336.124H209.586V332.322C208.399 331.642 207.677 330.571 207.677 329.251C207.677 326.844 210.042 325.292 213.271 325.283C216.517 325.292 218.866 326.844 218.866 329.251C218.866 330.571 218.152 331.633 216.974 332.322V336.124H220.145ZM213.271 326.744C211.047 326.752 209.511 327.69 209.503 329.251C209.511 330.803 211.047 331.75 213.271 331.758C215.504 331.75 217.04 330.803 217.04 329.251C217.04 327.69 215.504 326.752 213.271 326.744ZM211.445 336.124H215.114V333.02C214.542 333.144 213.927 333.202 213.271 333.202C212.624 333.202 212.01 333.144 211.445 333.02V336.124ZM224.212 334.032C224.22 330.579 227.018 331.011 227.018 329.168C227.018 328.23 226.295 327.632 225.258 327.624C224.121 327.632 223.432 328.346 223.432 329.517H221.323C221.332 327.226 222.992 325.748 225.341 325.748C227.507 325.748 229.209 326.985 229.209 329.085C229.209 331.816 226.32 331.467 226.32 333.966V334.265H224.212V334.032ZM225.274 338.166C224.486 338.166 223.921 337.618 223.93 336.871C223.921 336.124 224.486 335.576 225.274 335.576C226.046 335.576 226.611 336.124 226.619 336.871C226.611 337.618 226.046 338.166 225.274 338.166Z" fill="#171719"/>
<circle cx="317" cy="332" r="10" stroke="#00C96B" stroke-width="4"/>
<path d="M361.569 321.6C362.088 321.6 362.581 321.814 362.941 322.189C363.301 322.563 363.5 323.066 363.5 323.587C363.5 324.043 363.348 324.486 363.068 324.84L362.941 324.986L355.717 332.5L362.939 340.014L363.066 340.16C363.346 340.514 363.498 340.957 363.498 341.412L363.488 341.607C363.445 342.057 363.254 342.484 362.939 342.811C362.624 343.139 362.207 343.344 361.76 343.39L361.567 343.4C361.114 343.4 360.679 343.236 360.336 342.944L360.195 342.811L353 335.326L345.803 342.808C345.488 343.136 345.07 343.341 344.624 343.387L344.431 343.398C343.912 343.398 343.419 343.183 343.059 342.808C342.699 342.434 342.5 341.93 342.5 341.41C342.5 340.889 342.699 340.385 343.059 340.011L350.282 332.499L343.061 324.988C342.701 324.614 342.502 324.11 342.502 323.589L342.512 323.395C342.555 322.944 342.746 322.518 343.061 322.191C343.421 321.816 343.914 321.601 344.433 321.601L344.626 321.611C345.073 321.657 345.489 321.863 345.805 322.191L353 329.675L360.197 322.189L360.339 322.056C360.682 321.764 361.116 321.6 361.569 321.6Z" fill="#A6A6A6" stroke="#A6A6A6" stroke-linejoin="round"/>
</g>
<rect width="49" height="53" rx="18" transform="matrix(-0.766044 -0.642788 -0.642788 0.766044 493.238 63.4973)" fill="#FF6C6C"/>
<rect width="49" height="15" transform="matrix(-0.766044 -0.642788 -0.642788 0.766044 479.738 79.5844)" fill="#E5E5E5"/>
<rect width="49" height="99" transform="matrix(-0.766044 -0.642788 -0.642788 0.766044 470.098 91.075)" fill="#F8AF59"/>
<path d="M367.316 182.281L406.461 166.913L368.925 135.417L360.588 176.636C359.803 180.518 363.629 183.729 367.316 182.281Z" fill="#FFE9C7"/>
<path d="M360.59 176.636C359.805 180.518 363.631 183.729 367.318 182.281L377.848 178.148L362.832 165.548L360.59 176.636Z" fill="#171719"/>
<path d="M408.087 99.7345C413.785 100.533 417.461 107.911 416.298 116.215C415.135 124.52 409.573 130.604 403.875 129.806C398.177 129.008 394.5 121.629 395.664 113.325C396.827 105.021 402.389 98.9365 408.087 99.7345Z" fill="white"/>
<path d="M408.087 99.7345C413.785 100.533 417.461 107.911 416.298 116.215C415.135 124.52 409.573 130.604 403.875 129.806C398.177 129.008 394.5 121.629 395.664 113.325C396.827 105.021 402.389 98.9365 408.087 99.7345Z" stroke="#171719"/>
<mask id="mask0_3442_18862" style="mask-type:alpha" maskUnits="userSpaceOnUse" x="395" y="99" width="22" height="31">
<path d="M408.087 99.7345C413.785 100.533 417.461 107.911 416.298 116.215C415.135 124.52 409.573 130.604 403.875 129.806C398.177 129.008 394.5 121.629 395.664 113.325C396.827 105.021 402.389 98.9365 408.087 99.7345Z" fill="white"/>
<path d="M408.087 99.7345C413.785 100.533 417.461 107.911 416.298 116.215C415.135 124.52 409.573 130.604 403.875 129.806C398.177 129.008 394.5 121.629 395.664 113.325C396.827 105.021 402.389 98.9365 408.087 99.7345Z" stroke="black"/>
</mask>
<g mask="url(#mask0_3442_18862)">
<ellipse cx="402.775" cy="120.002" rx="9.22041" ry="11.2422" fill="#171719"/>
<ellipse cx="402.205" cy="123.429" rx="1.97067" ry="2.91495" fill="white"/>
</g>
<path d="M427.919 101.431C433.617 102.229 437.293 109.608 436.13 117.912C434.967 126.216 429.405 132.301 423.707 131.503C418.009 130.705 414.332 123.326 415.496 115.022C416.659 106.718 422.221 100.633 427.919 101.431Z" fill="white"/>
<path d="M427.919 101.431C433.617 102.229 437.293 109.608 436.13 117.912C434.967 126.216 429.405 132.301 423.707 131.503C418.009 130.705 414.332 123.326 415.496 115.022C416.659 106.718 422.221 100.633 427.919 101.431Z" stroke="#171719"/>
<mask id="mask1_3442_18862" style="mask-type:alpha" maskUnits="userSpaceOnUse" x="415" y="101" width="22" height="31">
<path d="M427.919 101.431C433.617 102.229 437.293 109.608 436.13 117.912C434.967 126.216 429.405 132.301 423.707 131.503C418.009 130.704 414.332 123.326 415.496 115.022C416.659 106.718 422.221 100.633 427.919 101.431Z" fill="white"/>
<path d="M427.919 101.431C433.617 102.229 437.293 109.608 436.13 117.912C434.967 126.216 429.405 132.301 423.707 131.503C418.009 130.704 414.332 123.326 415.496 115.022C416.659 106.718 422.221 100.633 427.919 101.431Z" stroke="black"/>
</mask>
<g mask="url(#mask1_3442_18862)">
<ellipse cx="422.607" cy="121.698" rx="9.22041" ry="11.2422" fill="#171719"/>
</g>
<ellipse cx="421.01" cy="123.429" rx="1.97067" ry="2.91495" fill="white"/>
<path d="M410.726 132.957C413.407 132.957 415.581 135.8 415.581 139.306C415.581 142.812 413.407 145.655 410.726 145.655C408.044 145.654 405.871 142.812 405.871 139.306C405.871 135.8 408.044 132.958 410.726 132.957Z" fill="#FF4343"/>
<path d="M410.726 132.957C413.407 132.957 415.581 135.8 415.581 139.306C415.581 142.812 413.407 145.655 410.726 145.655C408.044 145.654 405.871 142.812 405.871 139.306C405.871 135.8 408.044 132.958 410.726 132.957Z" stroke="black"/>
<defs>
<filter id="filter0_ddd_3442_18862" x="0" y="0" width="401" height="404" filterUnits="userSpaceOnUse" color-interpolation-filters="sRGB">
<feFlood flood-opacity="0" result="BackgroundImageFix"/>
<feColorMatrix in="SourceAlpha" type="matrix" values="0 0 0 0 0 0 0 0 0 0 0 0 0 0 0 0 0 0 127 0" result="hardAlpha"/>
<feOffset/>
<feGaussianBlur stdDeviation="4"/>
<feComposite in2="hardAlpha" operator="out"/>
<feColorMatrix type="matrix" values="0 0 0 0 0 0 0 0 0 0 0 0 0 0 0 0 0 0 0.04 0"/>
<feBlend mode="normal" in2="BackgroundImageFix" result="effect1_dropShadow_3442_18862"/>
<feColorMatrix in="SourceAlpha" type="matrix" values="0 0 0 0 0 0 0 0 0 0 0 0 0 0 0 0 0 0 127 0" result="hardAlpha"/>
<feOffset dy="8"/>
<feGaussianBlur stdDeviation="8"/>
<feComposite in2="hardAlpha" operator="out"/>
<feColorMatrix type="matrix" values="0 0 0 0 0 0 0 0 0 0 0 0 0 0 0 0 0 0 0.04 0"/>
<feBlend mode="normal" in2="effect1_dropShadow_3442_18862" result="effect2_dropShadow_3442_18862"/>
<feColorMatrix in="SourceAlpha" type="matrix" values="0 0 0 0 0 0 0 0 0 0 0 0 0 0 0 0 0 0 127 0" result="hardAlpha"/>
<feOffset dy="16"/>
<feGaussianBlur stdDeviation="10"/>
<feComposite in2="hardAlpha" operator="out"/>
<feColorMatrix type="matrix" values="0 0 0 0 0 0 0 0 0 0 0 0 0 0 0 0 0 0 0.06 0"/>
<feBlend mode="normal" in2="effect2_dropShadow_3442_18862" result="effect3_dropShadow_3442_18862"/>
<feBlend mode="normal" in="SourceGraphic" in2="effect3_dropShadow_3442_18862" result="shape"/>
</filter>
</defs>
</svg>
