<svg width="30" height="30" viewBox="0 0 30 30" fill="none" xmlns="http://www.w3.org/2000/svg">
<path d="M4.80001 15.0002C4.80001 20.6402 9.36001 25.2002 15 25.2002C20.64 25.2002 25.2 20.6402 25.2 15.0002C25.2 9.3602 20.64 4.8002 15 4.8002C9.36001 4.8002 4.80001 9.3602 4.80001 15.0002ZM24 15.0002C24 19.9802 19.98 24.0002 15 24.0002C10.02 24.0002 6.00001 19.9802 6.00001 15.0002C6.00001 10.0202 10.02 6.0002 15 6.0002C19.98 6.0002 24 10.0202 24 15.0002Z" fill="#545454"/>
<path d="M13.98 10.0198L18.96 14.9998L13.98 19.9798L14.82 20.8198L20.64 14.9998L14.82 9.17982L13.98 10.0198Z" fill="#545454"/>
<path d="M19.8 15.6001V14.4001H9.59999V15.6001H19.8Z" fill="#545454"/>
</svg>
