<svg width="31" height="31" viewBox="0 0 31 31" fill="none" xmlns="http://www.w3.org/2000/svg">
<path fill-rule="evenodd" clip-rule="evenodd" d="M10.7183 16.676C10.3671 16.3245 10.1699 15.8479 10.1699 15.351C10.1699 14.8542 10.3671 14.3776 10.7183 14.026L17.7883 6.95354C17.9624 6.77946 18.1692 6.64138 18.3967 6.5472C18.6242 6.45302 18.8681 6.40457 19.1143 6.40463C19.3606 6.40469 19.6044 6.45325 19.8319 6.54754C20.0594 6.64183 20.2661 6.78 20.4401 6.95417C20.6142 7.12833 20.7523 7.33508 20.8465 7.56261C20.9407 7.79013 20.9891 8.03398 20.9891 8.28023C20.989 8.52648 20.9404 8.77031 20.8461 8.99779C20.7519 9.22527 20.6137 9.43196 20.4395 9.60604L14.6958 15.351L20.4408 21.096C20.6199 21.2689 20.7629 21.4757 20.8612 21.7045C20.9596 21.9332 21.0115 22.1792 21.0137 22.4281C21.016 22.6771 20.9687 22.924 20.8745 23.1545C20.7804 23.385 20.6412 23.5944 20.4653 23.7705C20.2893 23.9466 20.08 24.086 19.8496 24.1804C19.6192 24.2747 19.3724 24.3223 19.1234 24.3202C18.8745 24.3182 18.6284 24.2666 18.3996 24.1684C18.1708 24.0703 17.9638 23.9275 17.7908 23.7485L10.7183 16.676Z" fill="#444444"/>
</svg>
