<svg width="24" height="24" viewBox="0 0 24 24" fill="none" xmlns="http://www.w3.org/2000/svg">
<path d="M5.00002 2.99996L5.00002 21C5.00059 21.1822 5.05085 21.3608 5.14539 21.5166C5.23994 21.6724 5.37518 21.7995 5.53657 21.8842C5.69796 21.9688 5.87938 22.0078 6.0613 21.9971C6.24322 21.9863 6.41876 21.9261 6.56902 21.823L19.569 12.823C20.108 12.45 20.108 11.552 19.569 11.178L6.56902 2.17796C6.41907 2.07379 6.24345 2.0127 6.06122 2.00133C5.879 1.98996 5.69714 2.02875 5.53541 2.11348C5.37368 2.19821 5.23826 2.32564 5.14387 2.48193C5.04948 2.63822 4.99973 2.81738 5.00002 2.99996Z" fill="#FFC107"/>
</svg>
