<svg width="30" height="30" viewBox="0 0 30 30" fill="none" xmlns="http://www.w3.org/2000/svg">
<path d="M29.3791 14.7542L15.7485 0.328544C15.6504 0.224397 15.5338 0.14177 15.4055 0.0853942C15.2771 0.0290184 15.1396 0 15.0006 0C14.8617 0 14.7241 0.0290184 14.5958 0.0853942C14.4675 0.14177 14.3509 0.224397 14.2527 0.328544L0.62213 14.7542C0.225026 15.1748 0 15.7461 0 16.3419C0 17.5791 0.949741 18.5849 2.11789 18.5849H3.55409V28.8785C3.55409 29.4988 4.0273 30 4.61303 30H12.8827V22.1493H16.589V30H25.3882C25.9739 30 26.4472 29.4988 26.4472 28.8785V18.5849H27.8834C28.4459 18.5849 28.9853 18.3501 29.3824 17.926C30.2064 17.0498 30.2064 15.6304 29.3791 14.7542Z" fill="#E2E2E2"/>
</svg>
