<svg width="25" height="30" viewBox="0 0 25 30" fill="none" xmlns="http://www.w3.org/2000/svg">
<path d="M12.5 0C10.8424 0 9.25268 0.632141 8.08058 1.75736C6.90848 2.88258 6.25 4.4087 6.25 6C6.25 7.5913 6.90848 9.11742 8.08058 10.2426C9.25268 11.3679 10.8424 12 12.5 12C14.1576 12 15.7473 11.3679 16.9194 10.2426C18.0915 9.11742 18.75 7.5913 18.75 6C18.75 4.4087 18.0915 2.88258 16.9194 1.75736C15.7473 0.632141 14.1576 0 12.5 0ZM20.3125 15H4.6875C3.4443 15 2.25201 15.4741 1.37294 16.318C0.49386 17.1619 0 18.3065 0 19.5C0 22.848 1.43437 25.53 3.7875 27.345C6.10312 29.13 9.20938 30 12.5 30C15.7906 30 18.8969 29.13 21.2125 27.345C23.5625 25.53 25 22.848 25 19.5C25 18.3065 24.5061 17.1619 23.6271 16.318C22.748 15.4741 21.5557 15 20.3125 15Z" fill="#E2E2E2"/>
</svg>
