<svg width="41" height="34" viewBox="0 0 41 34" fill="none" xmlns="http://www.w3.org/2000/svg">
<path d="M1.94818 0.821914C1.16444 1.25966 0.286116 2.34649 0.164502 3.01066C-0.0111638 3.94654 -0.0652147 14.1053 0.096938 14.2865C0.164502 14.362 0.232065 14.694 0.232065 15.011C0.232065 15.8412 1.0158 16.8375 2.11033 17.396C2.69138 17.6979 2.97515 17.6979 20.0823 17.6828C36.0949 17.6828 37.5002 17.6677 38.0272 17.4262C39.0136 16.9734 39.9595 15.8111 39.9595 15.0412C39.9595 14.4072 40.0811 14.0752 40.3108 14.0752C40.473 14.0752 40.5 13.2147 40.5 8.85235C40.5 7.05884 40.4835 5.6664 40.4573 4.78968C40.4362 4.08067 39.9595 3.56904 39.9595 2.85971C39.9595 2.39177 38.9866 1.24457 38.2299 0.80682C37.6758 0.489829 37.6353 0.489829 20.0688 0.504923C2.93461 0.520018 2.44815 0.535113 1.94818 0.821914ZM37.8785 2.16535C38.1218 2.33139 38.5001 2.72386 38.7298 3.02576C38.9851 3.38953 39.124 3.82214 39.1284 4.2665L39.1622 7.70515C39.2028 10.3769 39.1758 11.8109 39.0812 11.8109C39.0136 11.8109 36.1489 11.8109 32.7167 11.8109L26.9365 11.7969C26.6702 11.7962 26.4272 11.9485 26.3116 12.1883C26.1495 12.5204 26.163 12.5959 26.3927 12.8827C26.6359 13.1846 26.717 13.1846 32.9329 13.1544L38.8668 13.1259C39.0658 13.1249 39.2337 13.2737 39.2568 13.4714C39.2839 13.6525 39.2568 13.8638 39.1893 13.9393C39.1082 14.0299 34.2166 14.0752 27.19 14.0752C18.5148 14.0752 15.2852 14.1204 15.1501 14.2412C14.9069 14.4676 14.9069 14.7997 15.1636 15.0714C15.3393 15.2676 16.8797 15.2978 26.9332 15.2827C37.7299 15.2827 38.4866 15.2978 38.4461 15.5243C38.419 15.6752 38.2299 15.9016 38.0001 16.0526C37.6218 16.2941 36.5408 16.3243 20.0958 16.3243C3.65079 16.3243 2.56977 16.2941 2.19141 16.0526C1.97521 15.9016 1.77252 15.6752 1.74549 15.5243C1.70495 15.2827 2.09682 15.2676 7.52894 15.2827C13.7853 15.3129 13.7988 15.3129 13.7178 14.5431C13.6947 14.3198 13.5071 14.1498 13.2827 14.1487L7.46138 14.1204C4.04265 14.0902 1.16444 14.0752 1.06985 14.0752C0.94824 14.0752 0.907702 13.9091 0.934727 13.6072C0.957645 13.3427 1.17942 13.1398 1.44496 13.1405L12.8935 13.1695L24.4479 13.1841C24.6692 13.1844 24.87 13.0545 24.9604 12.8525C25.055 12.6864 25.082 12.3694 25.0414 12.1732C24.994 11.9615 24.8061 11.8109 24.5891 11.8109H13.0962C6.58305 11.8109 1.19147 11.8109 1.11039 11.8109C1.02932 11.8109 0.988778 10.392 1.0158 7.78062C1.06985 3.22199 1.08337 3.16161 2.16439 2.28611C2.51408 2.0029 2.95043 1.84836 3.40043 1.84836H20.0688C37.3515 1.84836 37.4326 1.84836 37.8785 2.16535Z" fill="#EFBA1A"/>
<path d="M17.8929 4.38402C17.5821 4.76139 17.6091 5.27462 17.9199 5.47085C18.2037 5.63689 21.7035 5.68218 22.2305 5.53123C22.4602 5.45575 22.5277 5.3199 22.5277 4.95763C22.5277 4.1576 22.3926 4.11232 20.163 4.11232C18.3523 4.11232 18.0821 4.14251 17.8929 4.38402Z" fill="#EFBA1A"/>
<path d="M33.6083 8.88204C33.5002 9.0028 33.4326 9.3047 33.4326 9.54622C33.4326 10.1802 33.6894 10.4519 34.2974 10.4519C34.6758 10.4519 34.8515 10.3764 34.9596 10.1651C35.1622 9.71226 35.1217 9.16885 34.8515 8.89714C34.5407 8.58015 33.838 8.56505 33.6083 8.88204Z" fill="#EFBA1A"/>
<path d="M36.7969 8.97261C36.3375 9.69716 36.6213 10.4519 37.3375 10.4519C37.8374 10.4519 38.3239 9.99906 38.3239 9.54622C38.3239 8.74619 37.2023 8.32354 36.7969 8.97261Z" fill="#EFBA1A"/>
<path d="M11.3937 19.8713C11.2045 20.2034 11.2045 20.3846 11.3532 21.3657C11.4478 21.9846 11.5018 22.5582 11.4748 22.6639C11.3937 22.9507 10.9748 22.845 10.5559 22.4374C10.0154 21.894 9.19115 21.3204 8.97494 21.3204C8.73171 21.3204 8.33984 21.8035 8.33984 22.1054C8.33984 22.3771 8.96143 22.9205 9.75868 23.3582C10.4478 23.7205 10.7721 24.0224 10.7721 24.2941C10.7721 24.3998 10.6775 24.4903 10.5559 24.4903C10.3262 24.4903 8.9344 25.3055 8.58307 25.6677C8.44795 25.7885 8.33984 26.0149 8.33984 26.1508C8.33984 26.4527 8.75874 26.9055 9.02899 26.9055C9.25871 26.9055 10.6775 25.7734 10.7451 25.547C10.7721 25.4564 10.9748 25.396 11.2045 25.396C11.5829 25.396 11.6099 25.4262 11.5153 25.8036C11.0559 27.8263 11.3262 28.9886 12.1775 28.6263C12.5558 28.4603 12.6504 27.9169 12.5153 26.7546C12.4342 26.1508 12.4072 25.5772 12.4477 25.4715C12.5423 25.1696 12.9477 25.3507 13.6098 26.03C14.5557 26.981 15.1097 27.1017 15.4746 26.4527C15.7313 25.9696 15.38 25.547 14.2179 24.9432C12.8936 24.2488 12.9071 24.0375 14.3125 23.2375C15.5286 22.528 15.8124 22.1205 15.38 21.6374C15.2178 21.4563 15.0016 21.3204 14.8935 21.3204C14.7719 21.3204 14.2719 21.6525 13.7855 22.0752C12.8531 22.8601 12.3937 23.0261 12.3937 22.5582C12.3937 22.4224 12.4612 21.8337 12.5288 21.2751C12.6369 20.4147 12.6234 20.1883 12.4477 19.8864C12.1639 19.4034 11.6775 19.4034 11.3937 19.8713Z" fill="#EFBA1A"/>
<path d="M24.5553 19.9316C23.4607 20.5052 23.0148 21.894 23.6229 22.86C23.9472 23.3733 24.839 24.0374 25.2039 24.0374C25.5822 24.0374 26.4335 23.494 26.7443 23.0563C27.0551 22.6034 27.1227 21.26 26.8524 20.777C26.447 20.0524 25.1768 19.5845 24.5553 19.9316ZM25.6092 21.26C25.9606 21.5317 25.9876 22.0147 25.6768 22.4072C25.4066 22.7393 25.1228 22.7544 24.7985 22.4223C24.4607 22.0902 24.4877 21.5317 24.8525 21.26C25.0147 21.1241 25.1904 21.0185 25.2309 21.0185C25.2714 21.0185 25.4471 21.1241 25.6092 21.26Z" fill="#EFBA1A"/>
<path d="M33.7302 21.9393C33.6221 22.1809 33.6221 22.5884 33.7437 23.5394C33.7469 23.563 33.75 23.5865 33.7531 23.6099C33.8659 24.4732 33.1578 25.0067 32.7572 24.2338C32.7032 24.1281 32.5681 24.0375 32.4735 24.0375C32.3654 24.0375 32.2032 23.9319 32.1086 23.796C31.7978 23.3734 31.3114 23.2526 30.96 23.5092C30.406 23.9168 30.6087 24.5206 31.4465 24.9432C31.6357 25.0338 31.9059 25.1847 32.0546 25.2904C32.2032 25.3961 32.541 25.6074 32.7978 25.7583L32.8131 25.7679C33.0348 25.9063 33.061 26.219 32.8653 26.3923C32.6356 26.5885 32.3654 26.7546 32.2438 26.7546C32.1221 26.7546 31.9465 26.8603 31.8519 26.981C31.7573 27.1018 31.6222 27.2074 31.5546 27.2074C31.2708 27.2074 30.6357 27.8867 30.6357 28.1886C30.6357 28.5811 31.1763 28.9433 31.5681 28.7924C31.7168 28.7471 32.1357 28.4452 32.5005 28.1433C33.2978 27.464 33.7437 27.1621 33.8383 27.2678C33.8788 27.3131 33.8383 27.9169 33.7437 28.6414C33.595 29.7735 33.6085 29.9698 33.7977 30.3019C34.068 30.7547 34.4328 30.7849 34.7571 30.3773C34.9868 30.0905 35.0004 29.9698 34.8382 28.7018C34.7436 27.9471 34.6896 27.3131 34.7301 27.2678C34.8112 27.1772 35.3652 27.5244 35.9733 28.0527C36.2706 28.3094 36.703 28.6263 36.9327 28.7622C37.3381 28.9886 37.3651 28.9886 37.6488 28.6565C37.7975 28.4754 37.9326 28.2188 37.9326 28.098C37.9326 27.8565 37.5272 27.4188 37.0813 27.1923C36.3787 26.8452 35.4328 26.2112 35.4328 26.1055C35.4328 26.03 35.8922 25.6829 36.4597 25.3508C37.0273 25.0036 37.5948 24.6262 37.7164 24.5055C38.0272 24.2187 37.9867 23.7809 37.6083 23.5092C37.257 23.2526 36.7705 23.3734 36.4597 23.796C36.3651 23.9319 36.1895 24.0375 36.0949 24.0375C35.9868 24.0375 35.9057 24.0979 35.9057 24.1734C35.9057 24.3998 34.9328 24.9734 34.7977 24.8225C34.7301 24.747 34.7436 24.1583 34.8382 23.3884C34.9868 22.3318 34.9733 22.0601 34.8382 21.8639C34.5679 21.5167 33.9193 21.562 33.7302 21.9393Z" fill="#EFBA1A"/>
<path d="M3.02961 22.996C2.46208 23.3281 1.854 24.2942 1.854 24.8527C1.854 25.3659 2.24587 26.1961 2.66477 26.5433C2.908 26.7546 3.21879 26.8301 3.84038 26.8301C4.6106 26.8301 4.7187 26.7848 5.12408 26.332C5.54298 25.8791 5.57001 25.7735 5.55649 24.8678C5.54298 23.781 5.38083 23.4942 4.43494 22.9507C3.84038 22.6187 3.66471 22.6187 3.02961 22.996ZM4.17819 24.2942C4.31332 24.43 4.42142 24.7319 4.42142 24.9734C4.42142 25.5621 3.88091 25.8037 3.40797 25.4565C2.98907 25.1546 2.97556 24.7017 3.38094 24.3244C3.74579 23.9772 3.8674 23.9772 4.17819 24.2942Z" fill="#EFBA1A"/>
<path d="M19.9068 28.2791C19.7852 28.4754 19.7446 28.7773 19.7852 29.0942C19.8797 29.7584 19.6635 29.849 19.1636 29.381C18.8663 29.0942 18.6501 29.0188 18.4204 29.0792C17.7447 29.2603 17.8258 30.2264 18.542 30.5132C18.7852 30.6037 19.0555 30.7849 19.1501 30.9056C19.2852 31.0868 19.2041 31.1773 18.6906 31.4339C17.8393 31.8868 17.7042 32.551 18.3933 32.9132C18.6636 33.0491 18.7717 33.0038 19.123 32.6113C19.6365 32.0679 19.8797 32.1736 19.7852 32.9132C19.6635 33.668 19.8662 34.0001 20.4338 34.0001C20.695 34.0001 20.9067 33.7883 20.9067 33.5271V33.0944C20.9067 32.5962 20.9608 32.1887 21.0283 32.1887C21.1094 32.1887 21.3256 32.3547 21.5283 32.5661C21.9607 33.0189 22.4066 33.0491 22.7309 32.6415C22.9471 32.3698 22.9471 32.3245 22.758 31.9774C22.6363 31.7811 22.3256 31.5245 22.0553 31.4188C21.4472 31.1622 21.4607 30.9056 22.0958 30.5433C22.8796 30.0905 23.0012 29.8641 22.7039 29.4112C22.3931 28.9282 22.0012 28.9282 21.5959 29.3961C21.0824 29.9999 20.9067 29.8943 20.9067 28.9584C20.9067 28.3546 20.8527 28.1282 20.6905 28.0527C20.3257 27.8867 20.123 27.947 19.9068 28.2791Z" fill="#EFBA1A"/>
</svg>
