<svg width="30" height="27" viewBox="0 0 30 27" fill="none" xmlns="http://www.w3.org/2000/svg">
<path d="M15.0096 0.0757498C19.036 0.0757498 23.0611 0.0733063 27.0875 0.0769677C28.4972 0.0781882 29.5969 0.92887 29.9166 2.25188C29.9764 2.49964 29.9984 2.75228 29.9984 3.00736C29.9984 6.38324 30.0033 9.75789 29.996 13.1338C29.9899 15.4686 28.4325 17.3493 26.1453 17.8034C25.8463 17.8632 25.5424 17.8863 25.2361 17.8863C18.4147 17.8863 11.5922 17.8888 4.7709 17.8839C2.42023 17.8827 0.534578 16.3253 0.0805565 14.0223C0.019532 13.7135 0 13.3986 0 13.0825C0.00122049 9.73714 1.19191e-06 6.393 0.00122168 3.04764C0.00122168 1.28037 1.20096 0.0781882 2.96335 0.0769677C6.97876 0.0745267 10.9954 0.0769677 15.0108 0.0769677L15.0096 0.0757498Z" fill="#FFBC0A"/>
<path d="M10.3081 21.7844C10.3386 22.6217 10.3325 23.4553 9.92239 24.2218C9.21695 25.5399 8.12095 26.2478 6.62097 26.31C6.29632 26.3234 5.97045 26.3186 5.64458 26.3125C5.11245 26.3015 4.70481 25.9097 4.68894 25.4044C4.67308 24.9016 5.06363 24.4744 5.5921 24.4415C5.896 24.4219 6.20234 24.4402 6.50625 24.4353C7.6413 24.417 8.41021 23.6567 8.4334 22.5167C8.44561 21.9065 8.42364 21.2962 8.44195 20.6872C8.45903 20.1331 8.88254 19.7413 9.40491 19.7596C9.91995 19.778 10.2946 20.1746 10.3044 20.7177C10.3081 20.9313 10.3044 21.1449 10.3044 21.3585C10.3044 21.5013 10.3044 21.6429 10.3044 21.7857L10.3081 21.7844Z" fill="#FFBC0A"/>
<path d="M19.6886 21.7785C19.6886 21.4221 19.6837 21.067 19.6886 20.7106C19.6972 20.1711 20.0804 19.772 20.5942 19.7586C21.1093 19.7439 21.5291 20.1211 21.5487 20.6605C21.5718 21.2793 21.5487 21.9005 21.5596 22.5206C21.5779 23.4811 22.1784 24.2378 23.0669 24.4013C23.488 24.4794 23.9188 24.4196 24.346 24.4367C25.0368 24.4624 25.4798 25.0897 25.2419 25.7048C25.1149 26.0319 24.8696 26.2736 24.5254 26.2931C23.5918 26.3468 22.6495 26.3895 21.7842 25.9282C20.4661 25.2264 19.7497 24.1353 19.6898 22.6328C19.6789 22.3485 19.6886 22.0641 19.6874 21.7785H19.6886Z" fill="#FFBC0A"/>
<path d="M12.1893 22.0774C12.1893 21.621 12.1845 21.1645 12.1906 20.7081C12.1979 20.1845 12.5665 19.7915 13.0681 19.761C13.5807 19.7292 14.0359 20.0929 14.0518 20.6263C14.0799 21.6088 14.0811 22.5937 14.0506 23.5762C14.0335 24.1083 13.5819 24.4574 13.0596 24.4293C12.564 24.4025 12.1979 24.0058 12.1918 23.4761C12.1857 23.0099 12.1918 22.5425 12.1918 22.0762L12.1893 22.0774Z" fill="#FFBC0A"/>
<path d="M17.807 22.1092C17.807 22.5657 17.8119 23.0221 17.807 23.4786C17.7997 24.0205 17.4202 24.4184 16.9075 24.433C16.3888 24.4477 15.9556 24.0827 15.9421 23.5469C15.9177 22.584 15.9177 21.6198 15.9421 20.6568C15.9543 20.1235 16.3937 19.7439 16.9027 19.7598C17.4177 19.7756 17.8009 20.1735 17.8083 20.7105C17.8144 21.1767 17.8095 21.643 17.8095 22.1104L17.807 22.1092Z" fill="#FFBC0A"/>
<path d="M14.9873 8.50435C10.7388 8.50435 6.48903 8.49947 2.2405 8.51289C1.91829 8.51289 1.87069 8.41891 1.87313 8.12966C1.88656 6.43196 1.87924 4.73425 1.88046 3.03655C1.88046 2.31036 2.23562 1.95276 2.96425 1.95276C10.9841 1.95276 19.0051 1.95276 27.025 1.95276C27.7695 1.95276 28.1173 2.3067 28.1173 3.05852C28.1173 4.77697 28.1124 6.4942 28.1234 8.21265C28.1246 8.45186 28.0636 8.50923 27.8268 8.50923C23.5478 8.5019 19.2675 8.50313 14.9885 8.50313L14.9873 8.50435Z" fill="white"/>
<path d="M15.0218 10.3864C19.2813 10.3864 23.5396 10.39 27.7991 10.379C28.0725 10.379 28.1311 10.4474 28.125 10.7098C28.1067 11.5129 28.1213 12.3159 28.1177 13.119C28.1091 14.7874 26.8972 15.9969 25.23 16.003C24.9566 16.003 24.5941 16.097 24.4354 15.9591C24.2524 15.8004 24.3891 15.427 24.3769 15.1475C24.3585 14.7313 24.4025 14.3139 24.3488 13.8989C24.2304 12.9726 23.4896 12.2891 22.5534 12.2696C21.7613 12.2537 20.968 12.2647 20.1747 12.2647C16.0177 12.2647 11.8595 12.2854 7.70253 12.2513C6.5272 12.2415 5.56179 13.0653 5.61915 14.3395C5.64112 14.8265 5.62403 15.3147 5.62037 15.8029C5.62037 15.881 5.66919 16.0006 5.51419 16.0018C4.78311 16.0091 4.04472 16.058 3.37467 15.6772C2.44832 15.1499 1.92473 14.3554 1.8869 13.285C1.85638 12.4014 1.88934 11.5165 1.87225 10.6329C1.86737 10.3961 1.96134 10.3827 2.15174 10.3827C6.44176 10.3876 10.7306 10.3864 15.0206 10.3864H15.0218Z" fill="white"/>
<path d="M15.0291 14.1248C17.3969 14.1248 19.7658 14.1321 22.1336 14.115C22.4582 14.1126 22.5205 14.2102 22.5046 14.5031C22.4802 14.9389 22.4924 15.377 22.501 15.814C22.5034 15.9568 22.4668 16.0239 22.3154 16.0031C22.2654 15.9958 22.2141 16.0031 22.1629 16.0031C17.3859 16.0031 12.6077 16.0007 7.83067 16.0105C7.54508 16.0105 7.47551 15.9323 7.49137 15.6614C7.51456 15.266 7.51334 14.8681 7.49137 14.4726C7.47673 14.2066 7.53898 14.115 7.83067 14.1175C10.2289 14.1309 12.6284 14.1248 15.0267 14.1248H15.0291Z" fill="white"/>
<path d="M24.3821 5.69367C24.0574 5.69367 23.7316 5.70222 23.4069 5.69123C22.9187 5.67537 22.5343 5.30311 22.5013 4.83323C22.4684 4.33893 22.7918 3.89101 23.2934 3.84707C24.0111 3.7836 24.736 3.78116 25.4525 3.84829C25.9565 3.89589 26.2678 4.33282 26.2336 4.83933C26.2031 5.31044 25.8186 5.67659 25.3255 5.69123C25.0106 5.701 24.6958 5.69245 24.3809 5.69245L24.3821 5.69367Z" fill="#FFBC0A"/>
</svg>
