<svg width="42" height="38" viewBox="0 0 42 38" fill="none" xmlns="http://www.w3.org/2000/svg">
<path d="M2.69818 1.1256C1.91444 1.60189 1.03612 2.78442 0.914502 3.50707C0.738836 4.52535 0.684785 15.5786 0.846938 15.7757C0.914502 15.8578 0.982065 16.2192 0.982065 16.5641C0.982065 17.4674 1.7658 18.5514 2.86033 19.1591C3.44138 19.4875 3.72515 19.4875 20.8323 19.4711C36.8448 19.4711 38.2502 19.4547 38.7772 19.1919C39.7636 18.6992 40.7095 17.4345 40.7095 16.5969C40.7095 15.9071 40.8311 15.5458 41.0608 15.5458C41.223 15.5458 41.25 14.6096 41.25 9.86312C41.25 7.89818 41.2333 6.37569 41.2068 5.423C41.1857 4.66581 40.7095 4.10031 40.7095 3.34283C40.7095 2.83369 39.7366 1.58547 38.9799 1.10918C38.4258 0.764275 38.3853 0.764275 20.8188 0.780699C3.68461 0.797123 3.19815 0.813547 2.69818 1.1256ZM38.6285 2.58733C38.8718 2.76799 39.2501 3.19501 39.4798 3.52349C39.7358 3.92046 39.874 4.3819 39.8782 4.85423L39.9122 8.6149C39.9528 11.5219 39.9258 13.0822 39.8312 13.0822C39.7636 13.0822 36.8989 13.0822 33.4667 13.0822L27.7179 13.067C27.434 13.0663 27.1766 13.2333 27.0616 13.4928C26.8995 13.8541 26.913 13.9363 27.1427 14.2483C27.3859 14.5768 27.467 14.5768 33.6829 14.5439L39.5864 14.5131C39.8022 14.5119 39.9838 14.6743 40.0068 14.8888C40.0339 15.0859 40.0068 15.3159 39.9393 15.398C39.8582 15.4965 34.9666 15.5458 27.94 15.5458C19.2648 15.5458 16.0352 15.5951 15.9001 15.7265C15.6569 15.9728 15.6569 16.3341 15.9136 16.6298C16.0893 16.8433 17.6297 16.8761 27.6832 16.8597C38.4799 16.8597 39.2366 16.8761 39.1961 17.1225C39.169 17.2867 38.9799 17.5331 38.7501 17.6973C38.3718 17.9601 37.2908 17.993 20.8458 17.993C4.40079 17.993 3.31977 17.9601 2.94141 17.6973C2.72521 17.5331 2.52252 17.2867 2.49549 17.1225C2.45495 16.8597 2.84682 16.8433 8.27894 16.8597C14.5353 16.8926 14.5488 16.8926 14.4678 16.0549C14.4448 15.8125 14.2418 15.6269 13.9983 15.6256L8.21138 15.5951C4.79265 15.5622 1.91444 15.5458 1.81985 15.5458C1.69824 15.5458 1.6577 15.3651 1.68473 15.0367C1.7076 14.7494 1.94782 14.5281 2.23602 14.5289L13.6435 14.5604L25.171 14.5762C25.4074 14.5766 25.6204 14.434 25.7104 14.2155C25.8049 14.0348 25.832 13.6899 25.7914 13.4764C25.7442 13.2469 25.5422 13.0822 25.3079 13.0822H13.8462C7.33305 13.0822 1.94147 13.0822 1.86039 13.0822C1.77932 13.0822 1.73878 11.5384 1.7658 8.69702C1.81985 3.737 1.83337 3.67131 2.91439 2.71872C3.26271 2.41178 3.71104 2.24243 4.17532 2.24243H20.8188C38.1015 2.24243 38.1826 2.24243 38.6285 2.58733Z" fill="#A6A6A6"/>
<path d="M18.6429 5.00136C18.3321 5.41195 18.3591 5.97037 18.6699 6.18388C18.9537 6.36454 22.4535 6.41381 22.9805 6.24957C23.2102 6.16745 23.2777 6.01964 23.2777 5.62546C23.2777 4.755 23.1426 4.70573 20.913 4.70573C19.1023 4.70573 18.8321 4.73857 18.6429 5.00136Z" fill="#A6A6A6"/>
<path d="M34.3583 9.89543C34.2502 10.0268 34.1826 10.3553 34.1826 10.6181C34.1826 11.3079 34.4394 11.6035 35.0474 11.6035C35.4258 11.6035 35.6015 11.5214 35.7096 11.2915C35.9122 10.7987 35.8717 10.2075 35.6015 9.91185C35.2907 9.56695 34.588 9.55053 34.3583 9.89543Z" fill="#A6A6A6"/>
<path d="M37.5469 9.99397C37.0875 10.7823 37.3713 11.6035 38.0875 11.6035C38.5874 11.6035 39.0739 11.1108 39.0739 10.6181C39.0739 9.74761 37.9523 9.28774 37.5469 9.99397Z" fill="#A6A6A6"/>
<path d="M12.1437 21.8523C11.9545 22.2137 11.9545 22.4107 12.1032 23.4783C12.1978 24.1517 12.2518 24.7758 12.2248 24.8908C12.1437 25.2028 11.7248 25.0878 11.3059 24.6444C10.7654 24.0531 9.94115 23.429 9.72494 23.429C9.48171 23.429 9.08984 23.9546 9.08984 24.2831C9.08984 24.5787 9.71143 25.17 10.5087 25.6463C11.1978 26.0404 11.5221 26.3689 11.5221 26.6645C11.5221 26.7795 11.4275 26.878 11.3059 26.878C11.0762 26.878 9.6844 27.7649 9.33307 28.1591C9.19795 28.2905 9.08984 28.5369 9.08984 28.6847C9.08984 29.0132 9.50874 29.5059 9.77899 29.5059C10.0087 29.5059 11.4275 28.2741 11.4951 28.0277C11.5221 27.9292 11.7248 27.8635 11.9545 27.8635C12.3329 27.8635 12.3599 27.8963 12.2653 28.3069C11.8059 30.5077 12.0762 31.7724 12.9275 31.3782C13.3058 31.1975 13.4004 30.6063 13.2653 29.3416C13.1842 28.6847 13.1572 28.0606 13.1977 27.9456C13.2923 27.6171 13.6977 27.8142 14.3598 28.5533C15.3057 29.588 15.8597 29.7194 16.2246 29.0132C16.4813 28.4876 16.13 28.0277 14.9679 27.3708C13.6436 26.6153 13.6571 26.3853 15.0625 25.5149C16.2786 24.7429 16.5624 24.2995 16.13 23.7739C15.9678 23.5768 15.7516 23.429 15.6435 23.429C15.5219 23.429 15.0219 23.7904 14.5355 24.2502C13.6031 25.1043 13.1437 25.2849 13.1437 24.7758C13.1437 24.628 13.2112 23.9874 13.2788 23.3798C13.3869 22.4436 13.3734 22.1972 13.1977 21.8688C12.9139 21.3432 12.4275 21.3432 12.1437 21.8523Z" fill="#A6A6A6"/>
<path d="M25.3053 21.918C24.2107 22.5421 23.7648 24.0531 24.3729 25.1042C24.6972 25.6626 25.589 26.3853 25.9539 26.3853C26.3322 26.3853 27.1835 25.794 27.4943 25.3177C27.8051 24.825 27.8727 23.3633 27.6024 22.8377C27.197 22.0493 25.9268 21.5402 25.3053 21.918ZM26.3592 23.3633C26.7106 23.6589 26.7376 24.1845 26.4268 24.6115C26.1566 24.9728 25.8728 24.9892 25.5485 24.6279C25.2107 24.2666 25.2377 23.6589 25.6025 23.3633C25.7647 23.2154 25.9403 23.1005 25.9809 23.1005C26.0214 23.1005 26.1971 23.2154 26.3592 23.3633Z" fill="#A6A6A6"/>
<path d="M34.4802 24.1024C34.3721 24.3652 34.3721 24.8087 34.4937 25.8434C34.5001 25.8946 34.5062 25.9454 34.512 25.9957C34.6145 26.8859 33.8926 27.4078 33.5072 26.5989C33.4532 26.4839 33.3181 26.3854 33.2235 26.3854C33.1154 26.3854 32.9532 26.2704 32.8586 26.1226C32.5478 25.6627 32.0614 25.5313 31.71 25.8105C31.156 26.254 31.3587 26.9109 32.1965 27.3708C32.3857 27.4693 32.6559 27.6336 32.8046 27.7485C32.9532 27.8635 33.291 28.0934 33.5478 28.2577L33.557 28.2639C33.789 28.4216 33.8173 28.7528 33.6153 28.9475C33.3856 29.161 33.1154 29.3417 32.9938 29.3417C32.8721 29.3417 32.6965 29.4566 32.6019 29.588C32.5073 29.7194 32.3722 29.8344 32.3046 29.8344C32.0208 29.8344 31.3857 30.5735 31.3857 30.9019C31.3857 31.329 31.9263 31.7231 32.3181 31.5589C32.4668 31.5096 32.8857 31.1811 33.2505 30.8527C34.0477 30.1136 34.4937 29.7851 34.5883 29.9001C34.6288 29.9493 34.5883 30.6063 34.4937 31.3947C34.345 32.6264 34.3585 32.84 34.5477 33.2013C34.818 33.694 35.1828 33.7268 35.5071 33.2834C35.7368 32.9713 35.7504 32.84 35.5882 31.4603C35.4936 30.6392 35.4396 29.9493 35.4801 29.9001C35.5612 29.8015 36.1152 30.1793 36.7233 30.7541C37.0206 31.0333 37.453 31.3782 37.6827 31.526C38.0881 31.7724 38.1151 31.7724 38.3988 31.4111C38.5475 31.214 38.6826 30.9348 38.6826 30.8034C38.6826 30.5406 38.2772 30.0643 37.8313 29.818C37.1287 29.4402 36.1828 28.7504 36.1828 28.6354C36.1828 28.5533 36.6422 28.1756 37.2097 27.8142C37.7773 27.4365 38.3448 27.0259 38.4664 26.8945C38.7772 26.5824 38.7367 26.1062 38.3583 25.8105C38.007 25.5313 37.5205 25.6627 37.2097 26.1226C37.1151 26.2704 36.9395 26.3854 36.8449 26.3854C36.7368 26.3854 36.6557 26.4511 36.6557 26.5332C36.6557 26.7795 35.6828 27.4036 35.5477 27.2394C35.4801 27.1573 35.4936 26.5168 35.5882 25.6791C35.7368 24.5295 35.7233 24.2338 35.5882 24.0203C35.3179 23.6426 34.6693 23.6918 34.4802 24.1024Z" fill="#A6A6A6"/>
<path d="M3.77961 25.2522C3.21208 25.6135 2.604 26.6646 2.604 27.2723C2.604 27.8307 2.99587 28.734 3.41477 29.1118C3.658 29.3417 3.96879 29.4238 4.59038 29.4238C5.3606 29.4238 5.4687 29.3746 5.87408 28.8818C6.29298 28.3891 6.32 28.2742 6.30649 27.2887C6.29298 26.1062 6.13083 25.7941 5.18494 25.2029C4.59038 24.8416 4.41471 24.8416 3.77961 25.2522ZM4.92819 26.6646C5.06332 26.8124 5.17142 27.1409 5.17142 27.4037C5.17142 28.0442 4.63091 28.307 4.15797 27.9293C3.73907 27.6008 3.72556 27.1081 4.13094 26.6975C4.49579 26.3197 4.6174 26.3197 4.92819 26.6646Z" fill="#A6A6A6"/>
<path d="M20.6569 31.0004C20.5353 31.2139 20.4948 31.5424 20.5353 31.8873C20.6299 32.61 20.4137 32.7085 19.9137 32.1994C19.6164 31.8873 19.4002 31.8052 19.1705 31.8709C18.4949 32.068 18.576 33.1191 19.2921 33.4312C19.5354 33.5297 19.8056 33.7268 19.9002 33.8582C20.0353 34.0553 19.9543 34.1538 19.4408 34.433C18.5895 34.9258 18.4543 35.6484 19.1435 36.0426C19.4138 36.1904 19.5219 36.1411 19.8732 35.7141C20.3867 35.1228 20.6299 35.2378 20.5353 36.0426C20.4137 36.8638 20.6164 37.2251 21.1839 37.2251C21.4451 37.2251 21.6569 37.0134 21.6569 36.7522V36.2397C21.6569 35.6977 21.7109 35.2542 21.7785 35.2542C21.8596 35.2542 22.0758 35.4349 22.2784 35.6648C22.7109 36.1575 23.1568 36.1904 23.4811 35.7469C23.6973 35.4513 23.6973 35.402 23.5081 35.0243C23.3865 34.8108 23.0757 34.5316 22.8054 34.4166C22.1974 34.1374 22.2109 33.8582 22.846 33.464C23.6297 32.9713 23.7513 32.7249 23.4541 32.2322C23.1433 31.7067 22.7514 31.7067 22.346 32.2158C21.8325 32.8728 21.6569 32.7578 21.6569 31.7395C21.6569 31.0826 21.6028 30.8362 21.4407 30.7541C21.0758 30.5734 20.8731 30.6391 20.6569 31.0004Z" fill="#A6A6A6"/>
</svg>
