<svg width="30" height="25" viewBox="0 0 30 25" fill="none" xmlns="http://www.w3.org/2000/svg">
<path d="M0.00201766 19.7069C0.00201766 18.518 0.00201766 17.328 0.00201766 16.1392C0.00201766 15.4874 0.189984 15.2152 0.812469 15.0285C0.956495 14.9858 0.947951 14.9125 0.947951 14.8112C0.947951 14.3035 0.956495 13.7945 0.94551 13.2867C0.930863 12.5861 1.1762 12.0137 1.76084 11.6146C1.90487 11.5157 1.88046 11.3961 1.88046 11.2691C1.88046 9.15514 1.88046 7.03991 1.88046 4.9259C1.88046 3.58451 2.63476 2.8302 3.97372 2.82898C4.69507 2.82898 5.41764 2.82898 6.13899 2.82898C6.24884 2.82898 6.35503 2.83874 6.44413 2.73988C7.35344 1.73536 8.52884 1.16414 9.79334 0.786984C13.4074 -0.288329 17.0215 -0.272456 20.6075 0.922472C21.7145 1.29108 22.7337 1.83666 23.5344 2.71669C23.632 2.8241 23.737 2.82898 23.8603 2.82898C24.6024 2.82898 25.3445 2.82654 26.0866 2.82898C27.3438 2.83265 28.1164 3.60892 28.1176 4.8661C28.1176 6.99109 28.12 9.11486 28.1152 11.2399C28.1152 11.4229 28.1493 11.5474 28.3141 11.6683C28.7694 12.0051 29.0281 12.4702 29.0428 13.0451C29.0562 13.6236 29.0562 14.2034 29.0489 14.7831C29.0464 14.943 29.0904 15.0004 29.2503 15.0419C29.7434 15.1688 29.996 15.5057 29.9973 16.0183C30.0009 18.468 30.0009 20.9189 29.9973 23.3685C29.9973 23.991 29.6091 24.3828 28.9915 24.3877C28.0968 24.395 27.2022 24.395 26.3075 24.3877C25.6899 24.3828 25.3152 23.9886 25.3091 23.3661C25.3066 23.0927 25.4043 22.7278 25.2664 22.5715C25.1065 22.3897 24.733 22.5154 24.4535 22.5142C17.9772 22.5105 11.5009 22.5142 5.02584 22.5044C4.74633 22.5044 4.65357 22.574 4.68652 22.8498C4.70971 23.0402 4.69385 23.2355 4.69018 23.4284C4.67798 23.963 4.31669 24.3706 3.78087 24.3816C2.82517 24.4024 1.86947 24.4036 0.913775 24.3816C0.359641 24.3694 0.00323822 23.9495 0.00201766 23.3661C-0.00164402 22.1468 0.0007971 20.9262 0.0007971 19.7069H0.00201766Z" fill="#A6A6A6"/>
<path d="M3.76082 7.98683C3.76082 6.98109 3.76692 5.97413 3.75594 4.96839C3.7535 4.75601 3.80842 4.69742 4.02324 4.69986C4.94842 4.71207 5.87361 4.70231 6.79879 4.70597C7.11369 4.70597 7.39808 4.6132 7.56896 4.35078C8.09746 3.53911 8.89937 3.11803 9.75864 2.78481C11.7445 2.01464 13.817 1.82423 15.9249 1.92188C17.3823 1.98901 18.8103 2.22701 20.1786 2.75186C20.7681 2.97766 21.3308 3.25472 21.8239 3.65751C22.0216 3.81984 22.1986 4.00049 22.3341 4.21775C22.5464 4.55706 22.8491 4.71085 23.2531 4.70597C24.1673 4.69743 25.0828 4.70963 25.9982 4.69865C26.2032 4.69621 26.2484 4.75723 26.2484 4.95374C26.2411 6.97621 26.2411 8.9999 26.2484 11.0224C26.2484 11.2225 26.1971 11.2848 25.9945 11.2775C25.538 11.2628 25.0791 11.2604 24.6226 11.2775C24.4066 11.286 24.3699 11.2018 24.3748 11.0138C24.3858 10.5878 24.4029 10.1582 24.3089 9.73833C24.0367 8.5312 23.1128 7.65606 21.8495 7.54621C20.7278 7.44856 19.589 7.44124 18.4685 7.54621C16.9685 7.68657 15.9713 8.85343 15.9359 10.3706C15.931 10.6037 15.9261 10.8381 15.9383 11.0724C15.9469 11.236 15.8834 11.2799 15.7272 11.2762C15.2597 11.2677 14.7922 11.264 14.3248 11.2762C14.1282 11.2811 14.0587 11.2323 14.066 11.0236C14.0819 10.5878 14.0965 10.1484 13.9964 9.71881C13.7145 8.5129 12.7832 7.64263 11.5224 7.54133C10.4092 7.45223 9.28263 7.44246 8.1707 7.54255C6.67185 7.67803 5.67343 8.83512 5.62949 10.3584C5.62339 10.5817 5.61851 10.8063 5.63193 11.0285C5.64292 11.2079 5.59654 11.2811 5.39881 11.275C4.93133 11.2604 4.46386 11.2604 3.99639 11.275C3.80354 11.2811 3.75838 11.2164 3.7596 11.0333C3.76814 10.0166 3.76326 8.9999 3.76326 7.98439L3.76082 7.98683Z" fill="white"/>
<path d="M15.0195 16.8934C19.278 16.8934 23.5366 16.8959 27.7963 16.8873C28.0551 16.8873 28.132 16.9361 28.1295 17.2108C28.1137 18.8781 28.1186 20.5441 28.1259 22.2114C28.1259 22.4311 28.0966 22.5263 27.839 22.519C27.1909 22.4995 27.1909 22.5141 27.1909 21.844C27.1909 21.1349 26.9444 20.7577 26.4024 20.6528C26.3036 20.6332 26.2011 20.6344 26.0997 20.6344C18.7007 20.6344 11.3005 20.6344 3.90144 20.6344C3.1862 20.6344 2.81881 21.0067 2.81515 21.7281C2.81515 21.7683 2.81515 21.8098 2.81515 21.8501C2.81515 22.5165 2.81515 22.5056 2.16215 22.519C1.93634 22.5239 1.87654 22.4689 1.87898 22.2383C1.88996 20.5514 1.89118 18.8634 1.87898 17.1766C1.87654 16.9215 1.96442 16.8898 2.18534 16.8898C6.46462 16.8959 10.7439 16.8947 15.0232 16.8947L15.0195 16.8934Z" fill="white"/>
<path d="M15.0144 13.1342C18.9593 13.1342 22.9041 13.1378 26.8489 13.1281C27.1297 13.1281 27.2139 13.1988 27.198 13.4784C27.1736 13.9141 27.1846 14.3523 27.1956 14.7892C27.1992 14.9552 27.1614 15.0419 26.9795 15.0138C26.9393 15.0077 26.8978 15.0138 26.8575 15.0138C18.958 15.0138 11.0574 15.0126 3.1579 15.0199C2.88572 15.0199 2.79051 14.9626 2.80882 14.6757C2.83568 14.2607 2.83323 13.8421 2.80882 13.4259C2.79418 13.1696 2.8906 13.1293 3.11885 13.1305C4.65431 13.139 6.18977 13.1354 7.72523 13.1354H15.0156L15.0144 13.1342Z" fill="white"/>
<path d="M9.84748 11.2739C9.15665 11.2739 8.46581 11.2666 7.77498 11.2788C7.57236 11.2825 7.47716 11.2446 7.49791 11.0176C7.51866 10.7857 7.49425 10.5502 7.50523 10.317C7.52842 9.79096 7.92144 9.40283 8.4475 9.39795C9.38245 9.39063 10.3174 9.39063 11.2511 9.39795C11.765 9.40161 12.1678 9.77998 12.1861 10.289C12.1971 10.6087 12.324 11.0164 12.1275 11.2239C11.9859 11.374 11.5721 11.2715 11.2792 11.2739C10.802 11.2776 10.3247 11.2739 9.84626 11.2739H9.84748Z" fill="white"/>
<path d="M20.1621 11.2741C19.4615 11.2741 18.7597 11.2667 18.0591 11.279C17.8565 11.2826 17.793 11.2228 17.8077 11.0239C17.8248 10.792 17.8052 10.5564 17.8138 10.3233C17.8333 9.79841 18.2263 9.40295 18.7499 9.39929C19.6849 9.39197 20.6186 9.39197 21.5536 9.39929C22.0809 9.40295 22.4751 9.78865 22.4995 10.3147C22.5105 10.5576 22.4885 10.8029 22.5068 11.0458C22.5215 11.2423 22.4446 11.2826 22.2639 11.2802C21.5633 11.2704 20.8615 11.2765 20.1609 11.2765L20.1621 11.2741Z" fill="white"/>
</svg>
