<svg width="38" height="34" viewBox="0 0 38 34" fill="none" xmlns="http://www.w3.org/2000/svg">
<path d="M2.05917 0.87941C1.85375 1.0439 1.84167 1.60592 1.84167 9.03552C1.84167 15.766 1.8175 17.0546 1.6725 17.315C1.56375 17.4932 1.455 18.1512 1.41875 18.9188C1.35833 19.8646 1.27375 20.317 1.10458 20.5911C0.887083 20.9338 0.875 21.2491 0.875 24.6898C0.875 28.0482 0.899167 28.432 1.08042 28.5828C1.2375 28.7198 1.35833 28.7198 1.57583 28.6102L1.86583 28.4594L1.82958 25.0187L1.79333 21.5918H3.11042H4.43958L4.47583 26.5266C4.48792 29.2407 4.47583 31.5985 4.43958 31.7492C4.39125 32.0234 4.30667 32.0508 3.11042 32.0508C1.72083 32.0371 1.79333 32.1057 1.84167 31.1187C1.86583 30.5018 1.46708 30.0221 1.14083 30.2414C0.971667 30.3648 0.923333 30.6526 0.899167 31.667C0.875 32.7499 0.899167 32.9555 1.08042 33.12C1.2375 33.2571 1.78125 33.2982 3.17083 33.3119C5.7325 33.3119 5.62375 33.4079 5.57542 31.105L5.52708 29.3367H18.8187C26.1292 29.3367 32.1588 29.3367 32.2071 29.3367C32.2675 29.3367 32.2675 30.1317 32.2192 31.105C32.1104 33.3942 32.0258 33.3119 34.5392 33.3119C36.0737 33.3119 36.4483 33.2708 36.7504 33.0652L37.125 32.8322V26.8282C37.125 21.9071 37.1008 20.8379 36.9679 20.8379C36.8713 20.8379 36.7021 20.7145 36.5812 20.5637C36.4 20.3307 36.3517 20.0291 36.3275 19.001C36.3154 18.1512 36.2429 17.5892 36.11 17.3013C35.9408 16.9312 35.9167 15.9579 35.9167 8.93957V1.00278L35.6146 0.851994C35.4212 0.756042 34.66 0.6875 33.6933 0.6875C32.2433 0.6875 32.0621 0.71492 31.8687 0.961658C31.7117 1.16727 31.6754 1.35918 31.7358 1.77041C31.8325 2.48322 31.6271 2.68883 31.0713 2.41468C30.5517 2.16794 29.6213 1.94861 28.3283 1.78412C27.7725 1.71558 27.2288 1.59221 27.0958 1.50997C26.975 1.44143 26.5521 1.37289 26.1654 1.37289C25.7788 1.37289 24.8967 1.27694 24.1958 1.16727C22.7458 0.947948 15.2179 0.89312 13.9854 1.11244C13.5867 1.18098 12.6925 1.27694 11.9917 1.31806C10.6262 1.42772 10.1912 1.61963 10.1792 2.14052C10.1792 2.71625 10.4087 2.78479 12.04 2.62029C12.8617 2.52434 13.8525 2.40097 14.2513 2.33243C14.6379 2.25019 16.6679 2.19535 18.7583 2.19535C22.4317 2.19535 23.7246 2.2776 26.7333 2.75737C27.2288 2.83962 27.99 2.94928 28.425 3.01782C28.86 3.08636 29.3675 3.19602 29.5487 3.27827C29.7421 3.36051 30.1167 3.42905 30.3946 3.42905C30.6725 3.42905 31.0833 3.53871 31.3008 3.67579L31.6996 3.90882L31.7117 8.36384V12.8189L31.325 12.86C31.1075 12.8874 30.7933 12.8737 30.6362 12.8189L30.3462 12.7366L30.3704 9.69349C30.3946 6.47217 30.3704 6.28026 29.8146 5.73195C29.5971 5.51263 29.1862 5.49892 24.945 5.48521C20.9092 5.48521 20.2687 5.51263 19.9788 5.70454C19.3988 6.08835 19.3504 6.44476 19.3746 9.63866C19.3867 11.2562 19.3625 12.6407 19.3142 12.7366C19.2054 12.9285 18.5529 12.9285 18.4442 12.7366C18.3958 12.6407 18.3717 11.2836 18.3838 9.72091C18.4079 6.56813 18.3354 6.07465 17.7796 5.70454C17.4896 5.51263 16.8733 5.48521 12.8133 5.48521H8.18542L7.85917 5.82791C7.67792 6.01982 7.48458 6.33509 7.44833 6.527C7.4 6.71891 7.36375 8.21305 7.35167 9.84428L7.33958 12.8189H6.69917H6.04667L6.05875 8.36384C6.05875 3.19602 5.95 3.59354 7.46042 3.42905C8.80167 3.27827 9.33333 2.74366 8.72917 2.12681C8.51167 1.90749 8.415 1.89378 7.78667 2.04457C7.41208 2.14052 6.91667 2.30502 6.68708 2.41468C6.13125 2.68883 5.92583 2.48322 6.0225 1.77041C6.08292 1.35918 6.04667 1.16727 5.88958 0.961658C5.69625 0.71492 5.515 0.6875 3.96833 0.6875C2.74792 0.70121 2.20417 0.742332 2.05917 0.87941ZM4.935 2.07199C4.98333 2.15423 5.0075 4.70387 5.0075 7.71958L4.99542 13.2027L4.355 13.6687C4.00458 13.9292 3.56958 14.3267 3.38833 14.5734C3.21917 14.8202 3.03792 14.971 2.98958 14.9298C2.905 14.8202 2.905 2.20906 3.00167 2.04457C3.09833 1.86637 4.83833 1.89378 4.935 2.07199ZM34.8292 8.19935C34.8654 11.6126 34.8533 14.546 34.7929 14.6968C34.7083 14.9573 34.66 14.9436 34.1525 14.3404C33.8504 13.9977 33.5362 13.7099 33.4637 13.7099C33.3792 13.7099 33.1979 13.6002 33.0408 13.4631L32.7629 13.2164L32.7508 7.71958C32.7508 4.70387 32.7871 2.15423 32.8233 2.07199C32.8838 1.96232 33.2342 1.9212 33.8383 1.94861L34.7687 1.98974L34.8292 8.19935ZM17.3204 6.81487C17.3204 6.8834 17.3446 8.24047 17.3567 9.83057C17.3687 11.7497 17.3325 12.7503 17.2479 12.7777C17.1875 12.8051 15.1696 12.7914 12.7771 12.7503L8.42708 12.6818L8.39083 9.87169C8.37875 8.33643 8.39083 6.99307 8.415 6.89711C8.46333 6.76003 9.43 6.71891 12.8979 6.71891C15.3267 6.71891 17.3083 6.76003 17.3204 6.81487ZM29.3675 9.74832C29.3917 12.0512 29.3675 12.7366 29.2467 12.764C29.1621 12.7914 27.1321 12.7914 24.7396 12.7503L20.3896 12.6818V9.76203C20.3896 8.14452 20.4137 6.80116 20.4379 6.77374C20.4742 6.74633 22.48 6.73262 24.9087 6.74633L29.3312 6.78745L29.3675 9.74832ZM32.5938 14.5186C34.1042 15.4782 35.0346 16.9449 35.3125 18.8503C35.53 20.2759 35.5058 20.3581 34.7083 20.3581H34.0437L33.9592 19.5357C33.8625 18.4253 33.7054 17.9318 33.2583 17.2327C32.5937 16.1773 31.3854 15.4919 30.165 15.4919C29.3917 15.4919 29.0292 15.8346 29.2467 16.3829C29.3675 16.6707 29.4642 16.7256 29.9475 16.7256C31.615 16.7256 32.6904 17.7536 32.9442 19.5631C33.0167 20.0977 32.9925 20.1662 32.6904 20.3855C32.2192 20.7282 32.1708 20.8379 32.2554 21.4136C32.2917 21.6878 32.2917 22.0579 32.2554 22.2361L32.1829 22.5514H18.8792C6.19167 22.5514 5.57542 22.5376 5.515 22.3046C5.47875 22.1675 5.45458 21.8248 5.47875 21.5507C5.515 20.7419 5.49083 20.646 5.10417 20.3992C4.75375 20.1799 4.74167 20.1251 4.81417 19.5768C5.0075 18.2608 5.72042 17.2053 6.63875 16.8901C7.02542 16.753 9.51458 16.7256 17.2962 16.7256C24.3529 16.7393 27.5308 16.6981 27.7 16.5885C27.99 16.4103 28.0142 16.0813 27.7362 15.7386C27.555 15.5056 27.0717 15.4919 17.3204 15.4919C10.6504 15.4919 6.92875 15.5467 6.61458 15.6289C5.18875 16.0539 4.17375 17.219 3.92 18.7132C3.83542 19.1655 3.76292 19.7139 3.75083 19.9469C3.71458 20.3444 3.7025 20.3581 3.05 20.3581H2.38542L2.34917 19.8783C2.30083 19.2889 2.5425 17.8633 2.76 17.4521C2.85667 17.2876 2.92917 17.0545 2.92917 16.9586C2.92917 16.8489 3.24333 16.3692 3.64208 15.8894C4.37917 14.9847 5.53917 14.1759 6.25208 14.0663C6.4575 14.0388 12.2937 14.0251 19.2417 14.0388L31.8687 14.0526L32.5938 14.5186ZM35.9287 26.7322C35.9287 29.556 35.9167 31.9137 35.9167 31.9549C35.9167 32.1194 33.4396 32.0371 33.355 31.8863C33.2342 31.6944 33.2342 21.7426 33.3429 21.6055C33.3912 21.5644 33.9954 21.537 34.6842 21.5507L35.9408 21.5918L35.9287 26.7322ZM32.1588 23.7851C32.2192 23.8125 32.2554 24.7857 32.2433 25.9372L32.2312 28.0345L18.8671 28.0756L5.49083 28.103V25.9509C5.49083 24.7583 5.515 23.7576 5.52708 23.7165C5.57542 23.6206 32.0379 23.6891 32.1588 23.7851Z" fill="#EFBA1A"/>
</svg>
