<svg width="24" height="33" viewBox="0 0 24 33" fill="none" xmlns="http://www.w3.org/2000/svg">
<path d="M24 15.2215C24 19.4874 24 23.7533 24 28.0192C24 29.257 23.3941 29.9828 22.1745 30.1912C22.0234 30.2173 22.0065 30.2759 22.0078 30.3984C22.013 30.659 22.0182 30.9196 22.0078 31.1802C21.9817 31.777 21.5556 32.2095 21.0045 32.2082C20.4416 32.2082 20.0181 31.7548 20.0077 31.1463C20.0025 30.844 20.1093 30.4388 19.9569 30.2681C19.7784 30.0688 19.3653 30.2082 19.0552 30.2069C14.1483 30.203 9.2426 30.2069 4.33562 30.1965C4.04115 30.1965 3.95906 30.2733 3.98903 30.5535C4.01379 30.7789 3.99946 31.0095 3.99164 31.2362C3.97209 31.76 3.55514 32.1809 3.03787 32.2082C2.54795 32.2343 2.08019 31.8564 2.01765 31.3483C1.97986 31.0382 1.99158 30.7203 1.99549 30.4062C1.9981 30.2577 1.9564 30.2147 1.80135 30.1912C0.666467 30.0219 0.00195445 29.2479 0.00195445 28.0935C-0.000651484 19.4965 -0.000651484 10.8995 0.00195445 2.30254C0.00195445 1.02433 0.847582 0.19043 2.1297 0.19043C8.70708 0.19043 15.2858 0.19043 21.8631 0.19043C23.1622 0.19043 23.9974 1.02433 23.9987 2.3273C24.0013 6.62579 23.9987 10.9243 23.9987 15.2228L24 15.2215Z" fill="#A6A6A6"/>
<path d="M11.9837 28.1991C8.77057 28.1991 5.55875 28.1952 2.34563 28.2056C2.0681 28.2056 1.98211 28.1535 1.98341 27.8551C1.99775 25.4133 1.99644 22.9716 1.98341 20.5298C1.98211 20.251 2.0668 20.1949 2.33 20.1949C8.77708 20.2028 15.2229 20.2028 21.6699 20.1949C21.9357 20.1949 22.0152 20.2562 22.0139 20.5324C22.0022 22.9846 22.0022 25.4381 22.0139 27.8903C22.0139 28.16 21.9279 28.2056 21.6843 28.2043C18.4503 28.1965 15.2163 28.1991 11.9811 28.1991H11.9837Z" fill="white"/>
<path d="M12.9968 10.1854C12.9968 7.62503 13.0007 5.06339 12.9903 2.50306C12.9903 2.23856 13.0671 2.18774 13.3147 2.18774C16.1148 2.19686 18.9135 2.19686 21.7136 2.18774C21.9612 2.18774 22.0159 2.25289 22.0159 2.49264C22.0081 7.62503 22.0081 12.7574 22.0159 17.8898C22.0159 18.1491 21.9456 18.2116 21.6915 18.2116C18.9031 18.2025 16.1135 18.2012 13.3251 18.2116C13.0463 18.2116 12.989 18.1309 12.9903 17.8677C13.0007 15.3073 12.9968 12.7457 12.9968 10.1854Z" fill="white"/>
<path d="M11.0055 10.205C11.0055 12.7653 11.0016 15.3269 11.0107 17.8873C11.0107 18.1413 10.9482 18.2117 10.6889 18.2117C7.8888 18.2013 5.09002 18.2026 2.28994 18.2117C2.04108 18.2117 1.98505 18.1426 1.98635 17.9029C1.99286 12.7601 1.99286 7.61597 1.98635 2.47316C1.98635 2.24253 2.0502 2.18781 2.27561 2.18911C5.08611 2.19693 7.89661 2.19693 10.7071 2.18911C10.9508 2.18911 11.012 2.24644 11.012 2.4914C11.0029 5.06346 11.0055 7.63421 11.0055 10.2063V10.205Z" fill="white"/>
<path d="M12.0001 25.1943C11.6535 25.1943 11.3056 25.2047 10.959 25.1917C10.4222 25.1709 9.99609 24.7252 9.99609 24.2014C9.99609 23.6868 10.3987 23.2333 10.9277 23.2151C11.643 23.1903 12.3597 23.1903 13.0737 23.2151C13.6053 23.2333 14.0053 23.6868 14.004 24.2014C14.004 24.7278 13.5793 25.1709 13.0398 25.1904C12.6932 25.2034 12.3453 25.193 11.9988 25.193L12.0001 25.1943Z" fill="#A6A6A6"/>
<path d="M15.0002 10.1841C15.0002 9.85836 14.9937 9.53261 15.0015 9.20817C15.0158 8.64529 15.4432 8.2075 15.9813 8.19316C16.5155 8.18013 16.9846 8.6049 17.0016 9.16518C17.0224 9.84793 17.0211 10.532 17.0016 11.2147C16.9859 11.7802 16.5325 12.2024 15.9904 12.1959C15.4471 12.1894 15.0171 11.7594 15.0015 11.1939C14.9924 10.8577 15.0002 10.5216 15.0002 10.1854V10.1841Z" fill="#A6A6A6"/>
<path d="M9.00169 10.231C9.00169 10.5451 9.0082 10.8604 9.00039 11.1744C8.98605 11.7607 8.55347 12.1972 7.9971 12.1959C7.45507 12.1959 7.01206 11.7698 6.99903 11.2018C6.9834 10.5294 6.9834 9.85578 6.99903 9.18345C7.01336 8.62187 7.4668 8.19059 8.00232 8.1919C8.55217 8.1932 8.98866 8.63881 9.00169 9.22124C9.00951 9.55741 9.00299 9.89357 9.00169 10.2297V10.231Z" fill="#A6A6A6"/>
</svg>
