<svg width="32" height="36" viewBox="0 0 32 36" fill="none" xmlns="http://www.w3.org/2000/svg">
<path d="M0.337677 0.320541C0.337677 0.451834 0.290464 0.59506 0.219645 0.630869C0.0544014 0.726355 0.0662046 4.689 0.219645 4.99933C0.384889 5.29773 0.98685 5.30966 1.10488 5.01127C1.14029 4.90385 1.1639 4.04448 1.15209 3.11349C1.12849 2.18251 1.15209 1.38282 1.1875 1.34701C1.22291 1.29927 27.2725 1.25152 30.6482 1.28733C30.7544 1.28733 30.7898 2.61219 30.7898 7.48196C30.7898 10.8956 30.7426 13.7124 30.6954 13.7482C30.6364 13.784 30.3885 13.605 30.1406 13.3424L29.6921 12.8769L29.7157 7.8639C29.7393 4.39061 29.7039 2.77929 29.6095 2.61219C29.4914 2.37348 29.3734 2.36155 28.0279 2.36155C26.6469 2.36155 26.5643 2.37348 26.5052 2.61219C26.4698 2.75542 26.4934 2.99413 26.5525 3.16124C26.6587 3.45963 26.6941 3.45963 27.6384 3.42382L28.6062 3.37608V6.12129V8.8665H26.8948H25.1833L25.1243 8.26971C25.0889 7.93551 25.0181 7.60131 24.959 7.51776C24.9118 7.42228 24.9472 7.18356 25.0653 6.93291C25.3485 6.32419 25.2423 5.64386 24.782 5.17837L24.4161 4.80836H20.8397C17.464 4.80836 17.2634 4.8203 16.9565 5.04708C16.3191 5.53644 16.0359 6.55097 16.449 6.89711C16.6732 7.08808 16.6732 7.66099 16.449 7.85196C16.3309 7.94745 16.2719 8.16229 16.2955 8.43681L16.3309 8.8665H14.7375H13.1441L13.1087 6.14516C13.0851 4.0206 13.1087 3.43575 13.2267 3.42382C13.3093 3.42382 16.0123 3.42382 19.2345 3.43576L25.0771 3.44769L25.2423 3.13736C25.3603 2.91059 25.3721 2.76736 25.2777 2.62413C25.1715 2.43316 24.6167 2.42122 18.7978 2.38542C12.8844 2.36155 12.4241 2.37348 12.2825 2.56445C12.1644 2.71961 12.1408 3.87738 12.1408 7.61325C12.1408 10.2749 12.1408 12.5427 12.1408 12.6501C12.1408 12.865 11.1966 13.8556 11.1021 13.7601C11.0667 13.7243 11.0549 11.2417 11.0667 8.24584C11.0785 5.23804 11.0549 2.68381 11.0195 2.56445C10.9369 2.37348 10.63 2.36155 6.69957 2.36155C2.63929 2.36155 2.46224 2.37348 2.34421 2.58832C2.17897 2.91059 2.17897 25.4452 2.34421 25.7674C2.46224 25.9823 2.63929 25.9942 6.71138 25.9942H10.9605L11.0313 25.7078C11.0667 25.5407 11.0785 23.4519 11.0549 21.0528C11.0313 18.1883 11.0549 16.6844 11.1376 16.6844C11.3028 16.6963 11.5743 16.9231 11.8812 17.3289C12.1408 17.6631 12.1408 17.7228 12.1408 21.6019C12.1408 24.0845 12.188 25.6123 12.2589 25.7674C12.3769 25.9942 12.6011 25.9942 20.9342 25.9942C29.3852 25.9942 29.4796 25.9942 29.6095 25.7555C29.6921 25.5884 29.7275 24.18 29.7157 21.5303L29.7039 17.5437L30.0934 17.1141C30.837 16.2786 30.8016 15.9324 30.778 24.2397C30.7662 28.4052 30.7898 31.8666 30.837 31.9382C30.9786 32.1769 31.5924 32.1053 31.734 31.8546C31.8167 31.6995 31.8521 26.591 31.8521 16.1711C31.8521 2.57639 31.8285 0.702482 31.675 0.57119C31.5806 0.487638 31.498 0.344414 31.498 0.260862C31.498 0.117634 29.0783 0.0937634 15.9178 0.0937634C0.57374 0.0937634 0.337677 0.0937634 0.337677 0.320541ZM10.0163 3.43576C10.0517 3.43576 10.0635 8.25778 10.0517 14.1421L10.0163 24.8603L6.62875 24.8961L3.22945 24.92V14.2137C3.22945 8.31746 3.26486 3.47156 3.31207 3.43576C3.35928 3.38801 9.57954 3.38801 10.0163 3.43576ZM23.9558 5.82289C24.2036 5.96612 24.2745 6.58678 24.0502 6.73001C23.8731 6.83743 17.6293 6.82549 17.464 6.71807C17.228 6.57484 17.3106 5.98999 17.6057 5.84677C17.948 5.67966 23.6371 5.65579 23.9558 5.82289ZM24.0148 7.97132C24.121 8.0668 24.18 8.26971 24.1564 8.49649L24.121 8.8665L20.9932 8.9023C19.2699 8.91424 17.7473 8.9023 17.6057 8.8665C17.2634 8.78295 17.228 8.17422 17.5585 7.94745C17.8653 7.72067 23.7433 7.75648 24.0148 7.97132ZM17.7473 10.1078C17.7827 10.2391 17.7827 10.4778 17.7355 10.6568L17.6647 10.9672L16.2247 10.9552C15.4457 10.9433 14.6549 10.9433 14.4778 10.9433C14.2772 10.9552 14.0175 11.1104 13.746 11.3849C13.5218 11.6236 13.2739 11.7788 13.2149 11.7311C13.0733 11.6475 13.0379 10.0959 13.1677 9.96458C13.2031 9.91684 14.2418 9.88103 15.4575 9.88103C17.5349 9.88103 17.6765 9.89297 17.7473 10.1078ZM20.5565 10.1078C20.5801 10.2272 20.5801 10.4778 20.5565 10.6449C20.4974 10.9433 20.462 10.9552 19.6358 10.9552C18.727 10.9552 18.6326 10.8956 18.6326 10.3107C18.6326 9.91684 18.7034 9.88103 19.6476 9.88103C20.3794 9.88103 20.4974 9.91684 20.5565 10.1078ZM23.2712 10.1317C23.3302 10.2391 23.3538 10.4659 23.3066 10.633C23.2358 10.9433 23.2004 10.9552 22.4214 10.9552C21.5597 10.9552 21.4653 10.8956 21.4653 10.3107C21.4653 9.9049 21.5597 9.86909 22.3978 9.9049C22.9289 9.92877 23.1886 10.0004 23.2712 10.1317ZM28.6888 10.6807C28.7478 11.7788 28.6298 11.922 28.0869 11.3849L27.662 10.9672L25.8915 10.9314L24.121 10.8956L24.0856 10.5614C24.003 9.86909 23.9794 9.88103 26.4108 9.88103H28.6416L28.6888 10.6807ZM24.6167 11.8982C24.6994 11.9459 25.3603 12.5427 26.0803 13.223C26.8121 13.9153 27.5203 14.5837 27.6738 14.715C27.8272 14.8463 27.957 15.0253 27.957 15.1208C27.957 15.3476 26.6469 16.8037 26.4344 16.8037C26.2338 16.8037 25.7144 16.3502 25.7144 16.1592C25.7144 16.0995 25.8325 15.9205 25.9741 15.7653C26.3754 15.3237 26.3164 14.7627 25.8207 14.3211C25.5964 14.1301 25.1479 13.7005 24.8174 13.3782C24.4869 13.0679 24.0148 12.6382 23.7669 12.4353C23.4364 12.1846 23.3302 12.0175 23.3892 11.8743C23.4482 11.7072 23.5545 11.6833 23.9676 11.743C24.2508 11.7907 24.5459 11.8624 24.6167 11.8982ZM27.3079 11.9698C27.4377 12.0533 27.9924 12.5666 28.5472 13.1037C29.1019 13.6408 29.7747 14.2614 30.058 14.5001C30.3295 14.7269 30.5537 15.0134 30.5537 15.1208C30.5419 15.2282 30.2232 15.646 29.8337 16.0637C29.0547 16.8873 28.7006 16.9947 28.5 16.4337C28.4174 16.1831 28.4528 16.0757 28.7715 15.7653C29.338 15.1805 29.2672 14.9776 28.1105 13.8317C27.5321 13.2588 26.9302 12.6979 26.7649 12.5666C26.4226 12.292 26.1512 11.8624 26.2692 11.7549C26.3636 11.6475 27.0364 11.7907 27.3079 11.9698ZM19.7538 12.0175C19.8483 12.2443 19.2817 12.7098 18.7742 12.8172C18.0542 12.9604 17.228 12.8053 16.8975 12.4711C16.3663 11.934 16.5552 11.8385 18.1958 11.8385C19.4234 11.8385 19.6948 11.8624 19.7538 12.0175ZM21.666 11.922C21.843 11.9817 22.3623 12.4114 22.8227 12.853C24.1682 14.1779 24.9354 14.894 25.0417 14.894C25.0889 14.894 25.1243 14.9895 25.1243 15.0969C25.1243 15.3237 23.7905 16.8037 23.5781 16.8037C23.5191 16.8037 23.2476 16.577 22.9997 16.3144C22.5748 15.8608 22.4922 15.825 22.1027 15.8847C21.8666 15.9205 21.6424 15.9921 21.5951 16.0279C21.5597 16.0757 21.5125 17.3528 21.5007 18.8686C21.4889 21.4348 21.4771 21.6258 21.2647 21.6854C21.1466 21.7332 19.6594 21.7451 17.948 21.7212L14.8437 21.6854L14.8673 18.9283C14.9028 16.3263 14.891 16.1711 14.6667 16.004C14.3008 15.7295 13.6988 15.8966 13.2975 16.386C12.8844 16.8873 12.7428 16.8992 12.3887 16.4695C12.2352 16.2905 11.893 15.9205 11.6215 15.634L11.1376 15.1208L11.7867 14.5479C12.1408 14.2256 12.9198 13.4975 13.4982 12.9366C14.4778 11.9936 14.5959 11.9101 15.0326 11.922C15.4811 11.922 15.5165 11.9459 15.7998 12.5427C16.0005 12.9604 16.2601 13.2827 16.6024 13.5214C17.0863 13.8556 17.1926 13.8795 18.2194 13.8795C19.0929 13.8795 19.3643 13.8437 19.5414 13.6646C19.6712 13.5572 19.8247 13.4617 19.8955 13.4617C20.0371 13.4617 20.7571 12.4233 20.7571 12.2085C20.7571 12.0295 21.005 11.7907 21.182 11.7907C21.2647 11.7907 21.4771 11.8504 21.666 11.922ZM25.9033 17.6273C26.222 17.8779 26.4462 17.9615 26.6351 17.9138L26.9066 17.8541L26.8711 19.7996L26.8357 21.757L26.163 21.7809C25.7853 21.7928 25.4548 21.757 25.4076 21.6854C25.3721 21.6138 25.3249 20.7425 25.3013 19.7518C25.2895 18.7492 25.2423 17.7944 25.1833 17.6034C25.0653 17.1737 25.3013 17.1737 25.9033 17.6273ZM28.441 17.5437C28.6416 17.7944 28.6534 18.0689 28.6652 21.3632C28.6652 23.619 28.618 24.92 28.5472 24.9439C28.4882 24.9677 24.9826 24.9677 20.7571 24.9439L13.0851 24.92V21.399C13.0851 18.0331 13.0969 17.866 13.3211 17.6392C13.451 17.5079 13.6516 17.4005 13.7697 17.4005C13.9585 17.4005 13.9703 17.5796 13.9231 19.7757C13.8877 21.8645 13.9113 22.1867 14.0883 22.4612L14.289 22.7716H20.9224H27.5557L27.7682 22.3896C27.9688 22.0435 27.9806 21.8287 27.9098 19.728C27.8626 18.4747 27.8626 17.4125 27.9098 17.3647C28.0515 17.2215 28.2049 17.2692 28.441 17.5437ZM23.1059 17.6989C23.3892 18.0092 23.7551 18.0928 23.885 17.8779C23.9204 17.8063 24.0502 17.7586 24.1682 17.7586C24.3571 17.7586 24.3689 17.9257 24.3689 19.728C24.3571 22.0196 24.5105 21.8406 22.6338 21.7093C22.4686 21.6974 22.445 21.4706 22.4568 19.9906C22.4686 19.0596 22.4214 18.0928 22.3741 17.8421C22.2915 17.4363 22.3033 17.4005 22.5512 17.4005C22.7046 17.4005 22.9525 17.5437 23.1059 17.6989Z" fill="#EFBA1A"/>
<path d="M0.242839 6.539C0.0303819 6.88513 0.0303819 35.3159 0.242839 35.6621C0.396279 35.9008 0.58513 35.9008 15.9292 35.9008C33.8346 35.9008 31.8517 36.0679 31.8517 34.5521C31.8517 33.8598 31.8044 33.5733 31.651 33.3943C31.1671 32.8333 30.7304 33.2391 30.7304 34.2537V34.9459H15.9882C7.87947 34.9459 1.2225 34.934 1.19889 34.9101C1.17529 34.8743 1.16348 28.5365 1.16348 20.8141C1.16348 11.2178 1.12807 6.69416 1.04545 6.539C0.880208 6.22867 0.431689 6.22867 0.242839 6.539Z" fill="#EFBA1A"/>
<path d="M2.36771 27.9278C2.26148 28.0352 2.22607 28.823 2.22607 30.7088C2.22607 33.1198 2.24968 33.3705 2.43853 33.5495C2.63918 33.7286 3.25295 33.7524 8.85944 33.7524C14.7138 33.7524 15.0679 33.7405 15.2449 33.5376C15.422 33.3466 15.4456 32.9766 15.4456 30.7805C15.4456 29.2646 15.3984 28.1546 15.3276 28.0114C15.2095 27.7965 15.0089 27.7846 8.85944 27.7846C4.07917 27.7846 2.47394 27.8204 2.36771 27.9278ZM14.4541 30.7327L14.4423 32.6186L8.87125 32.6544C5.80243 32.6663 3.27655 32.6424 3.27655 32.5947C3.26475 32.535 3.24114 31.6756 3.22934 30.673L3.20574 28.8588H8.83584H14.4659L14.4541 30.7327Z" fill="#EFBA1A"/>
<path d="M8.03271 30.3627C7.71403 30.5895 7.70222 30.8163 8.00911 31.1266C8.32779 31.4489 9.18942 31.4608 9.46089 31.1505C9.69695 30.8879 9.72056 30.5179 9.51991 30.315C9.31925 30.1121 8.33959 30.136 8.03271 30.3627Z" fill="#EFBA1A"/>
<path d="M16.5665 28.0352C16.5193 28.1665 16.4839 29.4437 16.4839 30.864C16.4957 33.1915 16.5075 33.454 16.6963 33.5973C16.8616 33.7166 18.2189 33.7524 23.0582 33.7524C28.4287 33.7524 29.2313 33.7286 29.4673 33.5615C29.727 33.3824 29.727 33.3347 29.727 30.8163C29.727 29.2766 29.6798 28.1546 29.609 28.0114C29.491 27.7965 29.2903 27.7846 23.0582 27.7846C16.6609 27.7846 16.6373 27.7846 16.5665 28.0352ZM28.6411 30.7805L28.6057 32.6902H23.1291C20.1193 32.6902 17.6288 32.6544 17.5934 32.6186C17.5462 32.5827 17.5226 31.7234 17.5108 30.7088L17.499 28.8588H23.0818H28.6647L28.6411 30.7805Z" fill="#EFBA1A"/>
<path d="M22.3857 30.3034C22.1143 30.4586 22.1143 30.9121 22.3857 31.1628C22.7044 31.4492 23.5306 31.4253 23.8257 31.127C24.1208 30.8286 24.1208 30.6257 23.8493 30.375C23.6015 30.1482 22.7162 30.1005 22.3857 30.3034Z" fill="#EFBA1A"/>
</svg>
