<svg width="24" height="33" viewBox="0 0 24 33" fill="none" xmlns="http://www.w3.org/2000/svg">
<path d="M24 15.3216C24 19.5875 24 23.8534 24 28.1193C24 29.3571 23.3941 30.0829 22.1745 30.2913C22.0234 30.3174 22.0065 30.376 22.0078 30.4985C22.013 30.7591 22.0182 31.0197 22.0078 31.2803C21.9817 31.8771 21.5556 32.3096 21.0045 32.3083C20.4416 32.3083 20.0181 31.8549 20.0077 31.2464C20.0025 30.9441 20.1093 30.5389 19.9569 30.3682C19.7784 30.1689 19.3653 30.3083 19.0552 30.307C14.1483 30.3031 9.2426 30.307 4.33562 30.2966C4.04115 30.2966 3.95906 30.3734 3.98903 30.6536C4.01379 30.879 3.99946 31.1096 3.99164 31.3363C3.97209 31.8601 3.55514 32.281 3.03787 32.3083C2.54795 32.3344 2.08019 31.9565 2.01765 31.4484C1.97986 31.1383 1.99158 30.8203 1.99549 30.5063C1.9981 30.3578 1.9564 30.3148 1.80135 30.2913C0.666467 30.122 0.00195445 29.348 0.00195445 28.1936C-0.000651484 19.5966 -0.000651484 10.9996 0.00195445 2.40264C0.00195445 1.12443 0.847582 0.290527 2.1297 0.290527C8.70708 0.290527 15.2858 0.290527 21.8631 0.290527C23.1622 0.290527 23.9974 1.12443 23.9987 2.42739C24.0013 6.72588 23.9987 11.0244 23.9987 15.3229L24 15.3216Z" fill="#FFBC0A"/>
<path d="M11.9837 28.2992C8.77057 28.2992 5.55875 28.2953 2.34563 28.3057C2.0681 28.3057 1.98211 28.2536 1.98341 27.9552C1.99775 25.5134 1.99644 23.0717 1.98341 20.6299C1.98211 20.3511 2.0668 20.295 2.33 20.295C8.77708 20.3029 15.2229 20.3029 21.6699 20.295C21.9357 20.295 22.0152 20.3563 22.0139 20.6325C22.0022 23.0847 22.0022 25.5382 22.0139 27.9904C22.0139 28.2601 21.9279 28.3057 21.6843 28.3044C18.4503 28.2966 15.2163 28.2992 11.9811 28.2992H11.9837Z" fill="white"/>
<path d="M12.9968 10.2855C12.9968 7.72512 13.0007 5.16349 12.9903 2.60316C12.9903 2.33866 13.0671 2.28784 13.3147 2.28784C16.1148 2.29696 18.9135 2.29696 21.7136 2.28784C21.9612 2.28784 22.0159 2.35299 22.0159 2.59274C22.0081 7.72512 22.0081 12.8575 22.0159 17.9899C22.0159 18.2492 21.9456 18.3117 21.6915 18.3117C18.9031 18.3026 16.1135 18.3013 13.3251 18.3117C13.0463 18.3117 12.989 18.231 12.9903 17.9678C13.0007 15.4074 12.9968 12.8458 12.9968 10.2855Z" fill="white"/>
<path d="M11.0055 10.3051C11.0055 12.8654 11.0016 15.427 11.0107 17.9874C11.0107 18.2414 10.9482 18.3118 10.6889 18.3118C7.8888 18.3014 5.09002 18.3027 2.28994 18.3118C2.04108 18.3118 1.98505 18.2427 1.98635 18.003C1.99286 12.8602 1.99286 7.71607 1.98635 2.57325C1.98635 2.34263 2.0502 2.2879 2.27561 2.28921C5.08611 2.29702 7.89661 2.29702 10.7071 2.28921C10.9508 2.28921 11.012 2.34654 11.012 2.5915C11.0029 5.16355 11.0055 7.73431 11.0055 10.3064V10.3051Z" fill="white"/>
<path d="M12.0001 25.2944C11.6535 25.2944 11.3056 25.3048 10.959 25.2918C10.4222 25.271 9.99609 24.8253 9.99609 24.3015C9.99609 23.7869 10.3987 23.3334 10.9277 23.3152C11.643 23.2904 12.3597 23.2904 13.0737 23.3152C13.6053 23.3334 14.0053 23.7869 14.004 24.3015C14.004 24.8279 13.5793 25.271 13.0398 25.2905C12.6932 25.3035 12.3453 25.2931 11.9988 25.2931L12.0001 25.2944Z" fill="#FFBC0A"/>
<path d="M15.0002 10.2842C15.0002 9.95845 14.9937 9.63271 15.0015 9.30827C15.0158 8.74539 15.4432 8.30759 15.9813 8.29326C16.5155 8.28023 16.9846 8.705 17.0016 9.26527C17.0224 9.94803 17.0211 10.6321 17.0016 11.3148C16.9859 11.8803 16.5325 12.3025 15.9904 12.296C15.4471 12.2895 15.0171 11.8595 15.0015 11.294C14.9924 10.9578 15.0002 10.6217 15.0002 10.2855V10.2842Z" fill="#FFBC0A"/>
<path d="M9.00169 10.3311C9.00169 10.6452 9.0082 10.9605 9.00039 11.2745C8.98605 11.8608 8.55347 12.2973 7.9971 12.296C7.45507 12.296 7.01206 11.8699 6.99903 11.3019C6.9834 10.6295 6.9834 9.95588 6.99903 9.28355C7.01336 8.72197 7.4668 8.29069 8.00232 8.292C8.55217 8.2933 8.98866 8.73891 9.00169 9.32134C9.00951 9.6575 9.00299 9.99367 9.00169 10.3298V10.3311Z" fill="#FFBC0A"/>
</svg>
