<svg width="31" height="29" viewBox="0 0 31 29" fill="none" xmlns="http://www.w3.org/2000/svg">
<path d="M15.493 0.150446C17.3133 0.150446 19.1323 0.149223 20.9526 0.150446C22.2325 0.151668 23.0003 0.919382 23.0003 2.19687C23.0003 4.27018 23.0003 6.34472 23.0003 8.41804C23.0003 9.6723 22.2215 10.4498 20.9661 10.4522C20.1629 10.4547 19.3597 10.4596 18.5566 10.4473C18.3536 10.4449 18.2998 10.5024 18.306 10.7016C18.3206 11.149 18.3243 11.5965 18.3047 12.0427C18.295 12.2725 18.3585 12.3263 18.5871 12.3251C22.1347 12.3165 25.6836 12.319 29.2312 12.319C30.1957 12.319 30.4977 12.6246 30.4989 13.6001C30.4989 14.3825 30.5014 15.1661 30.4989 15.9485C30.4965 16.6294 30.1199 17.0023 29.4439 17.0071C29.1811 17.0084 28.8302 16.9167 28.6786 17.0487C28.5026 17.2027 28.6224 17.5634 28.6224 17.8335C28.6187 20.9337 28.62 24.0352 28.62 27.1353C28.62 27.9018 28.274 28.249 27.5051 28.249C24.4953 28.249 21.4868 28.249 18.4771 28.249C17.7277 28.249 17.383 27.9006 17.383 27.1488C17.383 23.875 17.3781 20.6024 17.3903 17.3287C17.3903 17.0536 17.317 16.9998 17.0554 17.001C13.8329 17.0108 10.6105 17.0108 7.38803 17.001C7.14109 17.001 7.07019 17.0499 7.07019 17.3103C7.07997 20.5731 7.07752 23.8371 7.0763 27.0999C7.0763 27.9055 6.73401 28.2478 5.9284 28.249C5.10445 28.249 4.28172 28.2515 3.45778 28.249C2.74874 28.2466 2.38811 27.8859 2.38689 27.183C2.38689 23.8995 2.38322 20.6159 2.393 17.3323C2.393 17.0707 2.34166 16.9656 2.0666 17.0035C1.87712 17.0292 1.68152 17.0108 1.48837 17.0084C0.937034 17.001 0.523838 16.6331 0.512836 16.0903C0.495721 15.1453 0.495721 14.1991 0.512836 13.2541C0.522616 12.7101 0.924809 12.3385 1.48226 12.3238C1.89912 12.3128 2.31599 12.3214 2.73285 12.3214C5.94551 12.3214 9.15818 12.3177 12.3696 12.3275C12.6324 12.3275 12.718 12.2737 12.7009 11.9999C12.674 11.5745 12.6826 11.1454 12.6985 10.72C12.7058 10.5109 12.6532 10.4449 12.4344 10.4486C11.6422 10.462 10.8489 10.4547 10.0555 10.4535C8.77676 10.451 8.00416 9.68086 8.00416 8.40582C8.00416 6.3325 8.00416 4.25796 8.00416 2.18464C8.00416 0.924272 8.7731 0.154113 10.0347 0.151668C11.855 0.149223 13.674 0.151668 15.4943 0.151668L15.493 0.150446Z" fill="#A6A6A6"/>
<path d="M15.5165 2.01602C17.2842 2.01602 19.0531 2.02091 20.8208 2.01113C21.0543 2.00991 21.1264 2.06125 21.1252 2.30697C21.1142 4.30938 21.1142 6.31057 21.1252 8.31299C21.1264 8.55137 21.0531 8.58927 20.8355 8.58927C17.2793 8.58193 13.7219 8.58193 10.1657 8.58927C9.94812 8.58927 9.87477 8.55137 9.87599 8.31299C9.88699 6.30079 9.88577 4.2886 9.87599 2.27641C9.87599 2.05759 9.93956 2.00991 10.1486 2.01113C11.9371 2.01969 13.7256 2.01602 15.514 2.01602H15.5165Z" fill="white"/>
<path d="M22.9836 26.3847C21.8344 26.3847 20.6865 26.3799 19.5374 26.3896C19.321 26.3921 19.2367 26.3542 19.2403 26.1109C19.2538 25.0339 19.2513 23.9557 19.2428 22.8787C19.2416 22.6794 19.2966 22.6232 19.4995 22.6244C21.8271 22.6317 24.1547 22.6305 26.4835 22.6244C26.6705 22.6244 26.7488 22.6562 26.7463 22.8701C26.7353 23.9581 26.7366 25.0449 26.7463 26.1329C26.7476 26.3334 26.695 26.3909 26.4921 26.3884C25.3234 26.3786 24.1547 26.3835 22.9848 26.3835L22.9836 26.3847Z" fill="white"/>
<path d="M23.0039 17.0083C24.1616 17.0083 25.3192 17.0144 26.4769 17.0034C26.6872 17.001 26.7483 17.0511 26.7459 17.2675C26.7336 18.3432 26.7349 19.4202 26.7459 20.496C26.7483 20.7087 26.6884 20.7662 26.4757 20.7662C24.1603 20.7588 21.8462 20.7576 19.5308 20.7662C19.3034 20.7662 19.2399 20.7099 19.2423 20.4789C19.2545 19.4129 19.2558 18.3469 19.2423 17.2809C19.2386 17.0425 19.3132 16.9997 19.5333 17.0022C20.6909 17.0132 21.8486 17.0071 23.0063 17.0071L23.0039 17.0083Z" fill="white"/>
<path d="M15.4862 15.1309C11.2271 15.1309 6.96674 15.1284 2.70764 15.1382C2.43992 15.1382 2.36901 15.0783 2.37879 14.8094C2.4008 14.2018 2.38491 14.2018 2.99859 14.2018C11.4263 14.2018 19.8541 14.203 28.2806 14.1957C28.5544 14.1957 28.6363 14.258 28.6253 14.538C28.6021 15.1321 28.618 15.1321 28.0202 15.1321H15.4862V15.1309Z" fill="white"/>
<path d="M5.19423 21.6881C5.19423 23.1624 5.18812 24.6367 5.20034 26.1098C5.20279 26.3458 5.1331 26.3947 4.91184 26.3898C4.26393 26.3775 4.26393 26.3873 4.26393 25.7394C4.26393 22.9436 4.26759 20.1478 4.25781 17.3532C4.25781 17.0904 4.30182 16.9877 4.59522 17.0012C5.19301 17.0281 5.19423 17.0085 5.19423 17.6026V21.6893V21.6881Z" fill="white"/>
<path d="M14.5689 11.3641C14.5689 11.1306 14.5762 10.8972 14.5664 10.6637C14.5603 10.5133 14.5933 10.4461 14.7644 10.4497C15.2522 10.4607 15.74 10.4583 16.2265 10.4497C16.3806 10.4473 16.4405 10.4852 16.4368 10.6514C16.427 11.1392 16.4282 11.627 16.4368 12.1135C16.4392 12.2651 16.4075 12.3274 16.2387 12.3238C15.751 12.3128 15.2632 12.3116 14.7767 12.3238C14.5896 12.3287 14.5591 12.2541 14.5664 12.094C14.5774 11.8507 14.5689 11.6062 14.5689 11.3629V11.3641Z" fill="white"/>
<path d="M23.9265 24.5179C23.9216 25.035 23.5133 25.4372 22.9938 25.4372C22.4803 25.4372 22.0659 25.0252 22.0635 24.5118C22.061 23.9873 22.4889 23.5668 23.0146 23.5766C23.5305 23.5864 23.9302 23.9983 23.9253 24.5179H23.9265Z" fill="#A6A6A6"/>
<path d="M23.9285 18.8715C23.9334 19.391 23.5336 19.8079 23.0202 19.8177C22.4909 19.8275 22.0654 19.4118 22.0654 18.8861C22.0654 18.3764 22.4835 17.9534 22.9921 17.9497C23.5018 17.9461 23.9236 18.3617 23.9285 18.8727V18.8715Z" fill="#A6A6A6"/>
</svg>
