<svg width="31" height="29" viewBox="0 0 31 29" fill="none" xmlns="http://www.w3.org/2000/svg">
<path d="M15.493 0.250421C17.3133 0.250421 19.1323 0.249199 20.9526 0.250421C22.2325 0.251644 23.0003 1.01936 23.0003 2.29684C23.0003 4.37016 23.0003 6.4447 23.0003 8.51802C23.0003 9.77227 22.2215 10.5498 20.9661 10.5522C20.1629 10.5547 19.3597 10.5595 18.5566 10.5473C18.3536 10.5449 18.2998 10.6023 18.306 10.8016C18.3206 11.249 18.3243 11.6964 18.3047 12.1427C18.295 12.3725 18.3585 12.4263 18.5871 12.425C22.1347 12.4165 25.6836 12.4189 29.2312 12.4189C30.1957 12.4189 30.4977 12.7246 30.4989 13.7001C30.4989 14.4825 30.5014 15.2661 30.4989 16.0485C30.4965 16.7294 30.1199 17.1022 29.4439 17.1071C29.1811 17.1083 28.8302 17.0167 28.6786 17.1487C28.5026 17.3027 28.6224 17.6633 28.6224 17.9335C28.6187 21.0337 28.62 24.1351 28.62 27.2353C28.62 28.0018 28.274 28.349 27.5051 28.349C24.4953 28.349 21.4868 28.349 18.4771 28.349C17.7277 28.349 17.383 28.0006 17.383 27.2488C17.383 23.975 17.3781 20.7024 17.3903 17.4286C17.3903 17.1536 17.317 17.0998 17.0554 17.101C13.8329 17.1108 10.6105 17.1108 7.38803 17.101C7.14109 17.101 7.07019 17.1499 7.07019 17.4103C7.07997 20.6731 7.07752 23.9371 7.0763 27.1999C7.0763 28.0055 6.73401 28.3478 5.9284 28.349C5.10445 28.349 4.28172 28.3514 3.45778 28.349C2.74874 28.3465 2.38811 27.9859 2.38689 27.283C2.38689 23.9994 2.38322 20.7159 2.393 17.4323C2.393 17.1707 2.34166 17.0656 2.0666 17.1035C1.87712 17.1291 1.68152 17.1108 1.48837 17.1083C0.937034 17.101 0.523838 16.733 0.512836 16.1903C0.495721 15.2453 0.495721 14.2991 0.512836 13.3541C0.522616 12.8101 0.924809 12.4385 1.48226 12.4238C1.89912 12.4128 2.31599 12.4214 2.73285 12.4214C5.94551 12.4214 9.15818 12.4177 12.3696 12.4275C12.6324 12.4275 12.718 12.3737 12.7009 12.0999C12.674 11.6744 12.6826 11.2454 12.6985 10.8199C12.7058 10.6109 12.6532 10.5449 12.4344 10.5485C11.6422 10.562 10.8489 10.5547 10.0555 10.5534C8.77676 10.551 8.00416 9.78083 8.00416 8.50579C8.00416 6.43247 8.00416 4.35794 8.00416 2.28462C8.00416 1.02425 8.7731 0.254089 10.0347 0.251644C11.855 0.249199 13.674 0.251644 15.4943 0.251644L15.493 0.250421Z" fill="#FFBC0A"/>
<path d="M15.5165 2.116C17.2842 2.116 19.0531 2.12089 20.8208 2.11111C21.0543 2.10988 21.1264 2.16123 21.1252 2.40695C21.1142 4.40936 21.1142 6.41055 21.1252 8.41296C21.1264 8.65134 21.0531 8.68924 20.8355 8.68924C17.2793 8.68191 13.7219 8.68191 10.1657 8.68924C9.94812 8.68924 9.87477 8.65134 9.87599 8.41296C9.88699 6.40077 9.88577 4.38858 9.87599 2.37638C9.87599 2.15756 9.93956 2.10988 10.1486 2.11111C11.9371 2.11966 13.7256 2.116 15.514 2.116H15.5165Z" fill="white"/>
<path d="M22.9836 26.4847C21.8344 26.4847 20.6865 26.4798 19.5374 26.4896C19.321 26.4921 19.2367 26.4542 19.2403 26.2109C19.2538 25.1339 19.2513 24.0557 19.2428 22.9787C19.2416 22.7794 19.2966 22.7232 19.4995 22.7244C21.8271 22.7317 24.1547 22.7305 26.4835 22.7244C26.6705 22.7244 26.7488 22.7562 26.7463 22.9701C26.7353 24.0581 26.7366 25.1449 26.7463 26.2329C26.7476 26.4334 26.695 26.4908 26.4921 26.4884C25.3234 26.4786 24.1547 26.4835 22.9848 26.4835L22.9836 26.4847Z" fill="white"/>
<path d="M23.0039 17.1083C24.1616 17.1083 25.3192 17.1144 26.4769 17.1034C26.6872 17.1009 26.7483 17.151 26.7459 17.3674C26.7336 18.4432 26.7349 19.5202 26.7459 20.596C26.7483 20.8087 26.6884 20.8661 26.4757 20.8661C24.1603 20.8588 21.8462 20.8576 19.5308 20.8661C19.3034 20.8661 19.2399 20.8099 19.2423 20.5789C19.2545 19.5129 19.2558 18.4469 19.2423 17.3809C19.2386 17.1425 19.3132 17.0997 19.5333 17.1021C20.6909 17.1131 21.8486 17.107 23.0063 17.107L23.0039 17.1083Z" fill="white"/>
<path d="M15.4862 15.2308C11.2271 15.2308 6.96674 15.2284 2.70764 15.2382C2.43992 15.2382 2.36901 15.1783 2.37879 14.9093C2.4008 14.3018 2.38491 14.3018 2.99859 14.3018C11.4263 14.3018 19.8541 14.303 28.2806 14.2957C28.5544 14.2957 28.6363 14.358 28.6253 14.6379C28.6021 15.2321 28.618 15.2321 28.0202 15.2321H15.4862V15.2308Z" fill="white"/>
<path d="M5.19423 21.7881C5.19423 23.2624 5.18812 24.7367 5.20034 26.2098C5.20279 26.4457 5.1331 26.4946 4.91184 26.4897C4.26393 26.4775 4.26393 26.4873 4.26393 25.8394C4.26393 23.0436 4.26759 20.2478 4.25781 17.4532C4.25781 17.1904 4.30182 17.0877 4.59522 17.1011C5.19301 17.128 5.19423 17.1085 5.19423 17.7026V21.7893V21.7881Z" fill="white"/>
<path d="M14.5689 11.4641C14.5689 11.2306 14.5762 10.9971 14.5664 10.7636C14.5603 10.6133 14.5933 10.546 14.7644 10.5497C15.2522 10.5607 15.74 10.5583 16.2265 10.5497C16.3806 10.5473 16.4405 10.5852 16.4368 10.7514C16.427 11.2392 16.4282 11.7269 16.4368 12.2135C16.4392 12.3651 16.4075 12.4274 16.2387 12.4238C15.751 12.4128 15.2632 12.4115 14.7767 12.4238C14.5896 12.4286 14.5591 12.3541 14.5664 12.1939C14.5774 11.9507 14.5689 11.7062 14.5689 11.4629V11.4641Z" fill="white"/>
<path d="M23.9265 24.6179C23.9216 25.135 23.5133 25.5372 22.9938 25.5372C22.4803 25.5372 22.0659 25.1252 22.0635 24.6118C22.061 24.0873 22.4889 23.6668 23.0146 23.6766C23.5305 23.6863 23.9302 24.0983 23.9253 24.6179H23.9265Z" fill="#FFBC0A"/>
<path d="M23.9285 18.9715C23.9334 19.491 23.5336 19.9079 23.0202 19.9176C22.4909 19.9274 22.0654 19.5118 22.0654 18.9861C22.0654 18.4764 22.4835 18.0534 22.9921 18.0497C23.5018 18.046 23.9236 18.4617 23.9285 18.9727V18.9715Z" fill="#FFBC0A"/>
</svg>
