<svg width="40" height="28" viewBox="0 0 40 28" fill="none" xmlns="http://www.w3.org/2000/svg">
<path d="M16.3333 0.0827141L0.466667 0.129166L0.24 0.485283C0.0533333 0.763985 0 1.16656 0 2.68393C0 4.82065 0.133333 5.19225 0.933333 5.26966L1.4 5.31612L1.34667 9.58954C1.29333 14.1881 1.33333 14.5288 1.93333 14.5288C2.50667 14.5288 2.56 14.1572 2.58667 9.58954L2.6 5.31612L3.24 5.26966L3.86667 5.22322L3.84 15.9532L3.8 26.6833L3.33333 26.6987C2.74667 26.7142 2.36 26.4975 2.45333 26.2033C2.49333 26.0949 2.53333 23.8962 2.53333 21.326C2.56 17.099 2.53333 16.65 2.32 16.3713C2.08 16.0616 1.62667 16.0926 1.44 16.4487C1.28 16.7119 1.30667 27.1478 1.46667 27.5968C1.58667 27.9994 1.6 27.9994 3.10667 27.9994C4.42667 27.9994 4.65333 27.9529 4.85333 27.7052C5.05333 27.4419 5.08 26.9155 5.06667 22.4563C5.05333 19.7157 5.08 17.4242 5.10667 17.3622C5.14667 17.3003 9.42667 17.2693 14.6133 17.3158L24.0533 17.3932L24.0133 19.5144C23.9867 21.295 24.0133 21.6821 24.2 22.0227L24.4267 22.4253H29.5467H34.6667V24.9491C34.6667 28.1232 34.5867 27.9994 36.5733 27.9994C37.9333 27.9994 38 27.9839 38.2 27.6277C38.4 27.2871 38.4133 26.0794 38.3867 16.2784L38.36 5.31612L38.8533 5.26966C39.16 5.2387 39.3867 5.11483 39.4667 4.91355C39.5467 4.75871 39.6933 4.61936 39.8 4.61936C39.96 4.61936 40 4.27872 40 2.68393C40 1.13559 39.96 0.748503 39.8133 0.748503C39.72 0.748503 39.5467 0.609152 39.4533 0.454317C39.28 0.175615 39.08 0.144648 37.1333 0.129166C35.96 0.113682 34.9333 0.0981979 34.84 0.113682C34.5333 0.144648 34.3867 0.702051 34.56 1.13559L34.72 1.53816L36.6133 1.50719C37.64 1.49171 38.56 1.52267 38.6267 1.56912C38.7333 1.64654 38.7733 3.42714 38.68 3.84519C38.68 3.89164 30.1867 3.92261 19.84 3.90712L1 3.89164L0.986667 2.77683C0.973333 2.17298 1.01333 1.64654 1.06667 1.60009C1.13333 1.55364 8.25333 1.52267 16.88 1.52267C31.3467 1.52267 32.6 1.50719 32.8267 1.27494C32.96 1.1201 33.0667 0.887854 33.0667 0.733019C33.0667 0.438833 32.5733 -0.0566368 32.3333 0.00529671C32.2667 0.0362644 25.0667 0.0672302 16.3333 0.0827141ZM24.0267 10.5805V15.8449L14.5867 15.8913C9.4 15.9068 5.12 15.8758 5.08 15.8139C5.04 15.7365 5.01333 13.3365 5.04 10.4566L5.08 5.2387L14.5467 5.26966L24.0133 5.31612L24.0267 10.5805ZM34.64 7.49928L34.6 9.75986L29.9333 9.74438C27.3733 9.7289 25.2533 9.69793 25.24 9.66696C25.2 9.62051 25.16 6.10577 25.1867 5.4245C25.2 5.28515 26.24 5.2387 29.9333 5.2387H34.68L34.64 7.49928ZM37.2 5.39353C37.2 5.47095 37.2 10.2708 37.2 16.0307C37.2 24.4382 37.1733 26.5284 37.0267 26.6213C36.9333 26.6833 36.6533 26.7297 36.4 26.7142L35.9333 26.6833L35.8933 15.9532L35.8667 5.2387H36.5333C36.8933 5.2387 37.2 5.30063 37.2 5.39353ZM34.6933 13.1353C34.72 14.281 34.6933 15.272 34.6533 15.3494C34.6133 15.4113 32.4667 15.4423 29.8667 15.4268L25.16 15.3804L25.1733 13.3365C25.1733 12.2062 25.2133 11.2308 25.24 11.1689C25.28 11.0914 27.4133 11.045 29.9867 11.045H34.6533L34.6933 13.1353ZM34.6 16.8668C34.6667 16.9906 34.72 20.0563 34.68 21.0008C34.6667 21.1557 25.3867 21.1557 25.2667 21.0008C25.2267 20.9544 25.1733 19.9944 25.16 18.8796L25.1333 16.8513L29.7333 16.8048C32.2667 16.7893 34.3733 16.7584 34.4267 16.7274C34.48 16.7119 34.56 16.7739 34.6 16.8668Z" fill="#A6A6A6"/>
</svg>
