<svg width="39" height="39" viewBox="0 0 39 39" fill="none" xmlns="http://www.w3.org/2000/svg">
<ellipse cx="20" cy="31.5" rx="5" ry="2.5" fill="#A6A6A6"/>
<g clip-path="url(#clip0_1593_4494)">
<path d="M15.3417 5.4375V1.8125C15.3417 1.63224 15.4144 1.45935 15.5437 1.33189C15.673 1.20442 15.8483 1.13281 16.0312 1.13281C16.214 1.13281 16.3894 1.20442 16.5187 1.33189C16.648 1.45935 16.7206 1.63224 16.7206 1.8125V5.4375C16.7206 5.61776 16.648 5.79065 16.5187 5.91811C16.3894 6.04558 16.214 6.11719 16.0312 6.11719C15.8483 6.11719 15.673 6.04558 15.5437 5.91811C15.4144 5.79065 15.3417 5.61776 15.3417 5.4375ZM19.7082 6.11719C19.891 6.11719 20.0664 6.04558 20.1957 5.91811C20.325 5.79065 20.3976 5.61776 20.3976 5.4375V1.8125C20.3976 1.63224 20.325 1.45935 20.1957 1.33189C20.0664 1.20442 19.891 1.13281 19.7082 1.13281C19.5253 1.13281 19.35 1.20442 19.2207 1.33189C19.0914 1.45935 19.0187 1.63224 19.0187 1.8125V5.4375C19.0187 5.61776 19.0914 5.79065 19.2207 5.91811C19.35 6.04558 19.5253 6.11719 19.7082 6.11719ZM23.3852 6.11719C23.568 6.11719 23.7434 6.04558 23.8727 5.91811C24.002 5.79065 24.0746 5.61776 24.0746 5.4375V1.8125C24.0746 1.63224 24.002 1.45935 23.8727 1.33189C23.7434 1.20442 23.568 1.13281 23.3852 1.13281C23.2023 1.13281 23.0269 1.20442 22.8977 1.33189C22.7684 1.45935 22.6957 1.63224 22.6957 1.8125V5.4375C22.6957 5.61776 22.7684 5.79065 22.8977 5.91811C23.0269 6.04558 23.2023 6.11719 23.3852 6.11719ZM33.9106 11.4188L30.5093 13.9336V20.8438C30.5093 21.7451 30.1462 22.6095 29.4997 23.2468C28.8532 23.8841 27.9764 24.2422 27.0622 24.2422H12.3542C11.4399 24.2422 10.5631 23.8841 9.91664 23.2468C9.27017 22.6095 8.90698 21.7451 8.90698 20.8438V13.9336L5.50576 11.4188C5.35948 11.3106 5.26277 11.1496 5.23691 10.9711C5.21105 10.7927 5.25816 10.6114 5.36787 10.4672C5.47758 10.323 5.64091 10.2276 5.82192 10.2021C6.00293 10.1767 6.1868 10.2231 6.33308 10.3313L8.90698 12.2344V9.0625C8.90698 8.88224 8.97962 8.70936 9.10891 8.58189C9.23821 8.45442 9.41357 8.38281 9.59642 8.38281H29.8199C30.0028 8.38281 30.1781 8.45442 30.3074 8.58189C30.4367 8.70936 30.5093 8.88224 30.5093 9.0625V12.2344L33.0832 10.3313C33.2295 10.2231 33.4134 10.1767 33.5944 10.2021C33.7754 10.2276 33.9387 10.323 34.0485 10.4672C34.1582 10.6114 34.2053 10.7927 34.1794 10.9711C34.1536 11.1496 34.0568 11.3106 33.9106 11.4188ZM29.1305 9.74219H10.2859V20.8438C10.2859 21.3845 10.5038 21.9032 10.8916 22.2856C11.2795 22.668 11.8056 22.8828 12.3542 22.8828H27.0622C27.6107 22.8828 28.1368 22.668 28.5247 22.2856C28.9126 21.9032 29.1305 21.3845 29.1305 20.8438V9.74219Z" fill="#A6A6A6"/>
</g>
<path d="M33.7867 27.2354C33.6225 27.1741 33.4664 27.1111 33.2974 27.0504C33.1294 26.9909 32.956 26.9322 32.7771 26.8743C29.1784 25.6654 24.4292 24.995 19.4995 25C16.9365 24.9977 14.3976 25.1776 12.0296 25.5295C9.66152 25.8813 7.51133 26.3981 5.70325 27.0499C-1.73625 29.7192 -1.89557 34.0242 5.2139 36.7647C5.37322 36.8277 5.5358 36.8899 5.70163 36.9513C5.87071 37.0114 6.04304 37.068 6.217 37.1263C9.81897 38.3344 14.5689 39.0044 19.4995 39C24.7117 39 29.6118 38.2726 33.2974 36.9513C40.7369 34.282 40.8946 29.977 33.7867 27.2354ZM6.7096 27.4109C8.38562 26.8065 10.3789 26.3274 12.5742 26.001C14.7695 25.6747 17.1233 25.5078 19.4995 25.5099C24.0923 25.5099 28.425 26.1212 31.774 27.2354L30.1466 27.8199C27.2429 26.8632 23.4417 26.3338 19.4995 26.337C17.4258 26.3349 15.3715 26.4804 13.4557 26.7652C11.5398 27.0499 9.80055 27.4683 8.33862 27.996C6.86835 28.5205 5.70277 29.1445 4.90937 29.8318C4.11598 30.5191 3.71055 31.2561 3.71657 32C3.71657 33.428 5.17976 34.7726 7.84926 35.8202L6.21862 36.4042C-0.336464 33.8614 -0.173888 29.8808 6.7096 27.4109ZM29.1419 28.1798V28.1809L27.4918 28.7724C25.2958 28.0659 22.4491 27.6757 19.4995 27.6769C17.9169 27.6754 16.3492 27.7866 14.8872 28.004C13.4252 28.2214 12.0979 28.5406 10.9821 28.9433C9.85928 29.3437 8.96901 29.82 8.36287 30.3447C7.75674 30.8694 7.44678 31.432 7.45095 32C7.4466 33.0578 8.53363 34.0786 10.5025 34.8659L8.85399 35.4586C6.45434 34.5129 5.12898 33.2789 5.13911 32C5.13387 31.3231 5.50306 30.6526 6.2253 30.0272C6.94754 29.4019 8.00846 28.8342 9.34659 28.3571C10.6764 27.877 12.2586 27.4963 14.0014 27.2372C15.7442 26.978 17.613 26.8456 19.4995 26.8474C23.0973 26.8474 26.4919 27.3194 29.1419 28.1798ZM30.1271 32C30.1271 33.0179 29.02 33.9757 27.0122 34.6962C25.0043 35.4166 22.3381 35.8138 19.4995 35.8138C16.9283 35.814 14.4452 35.4778 12.5152 34.8682L12.5136 34.8659C12.3348 34.8111 12.1559 34.7562 11.9868 34.6962C11.8217 34.6349 11.6628 34.5714 11.5105 34.506C9.80828 33.8143 8.87132 32.9228 8.87675 32C8.87675 30.9815 9.98064 30.0243 11.9885 29.3044C12.973 28.9496 14.1436 28.6683 15.4328 28.4766C16.7219 28.285 18.1041 28.1869 19.4995 28.1879C22.0991 28.1879 24.5475 28.5239 26.4822 29.1329C26.6626 29.1889 26.8463 29.2438 27.0122 29.305C27.1791 29.3661 27.3389 29.4291 27.4918 29.494C29.1933 30.1859 30.1306 31.0773 30.1271 32ZM11.5072 35.2282C13.7025 35.9348 16.5502 36.3252 19.4995 36.3242C21.0826 36.3258 22.6507 36.2145 24.1129 35.9968C25.575 35.7791 26.9021 35.4594 28.0169 35.0561C29.1405 34.656 30.0315 34.1799 30.6379 33.6552C31.2444 33.1306 31.5543 32.568 31.5497 32C31.5526 30.9419 30.4665 29.9207 28.4997 29.1323L30.1466 28.542C32.5445 29.4879 33.8697 30.7214 33.8615 32C33.8668 32.677 33.4974 33.3477 32.7749 33.9731C32.0524 34.5986 30.991 35.1663 29.6524 35.6435C28.3231 36.1239 26.7411 36.5047 24.9982 36.7639C23.2552 37.023 21.3862 37.1554 19.4995 37.1532C15.9348 37.1564 12.4957 36.6809 9.85871 35.8202L11.5072 35.2282ZM32.2894 36.5891C30.6138 37.1936 28.6205 37.6729 26.4251 37.9991C24.2297 38.3253 21.8757 38.492 19.4995 38.4896C14.9458 38.4942 10.5574 37.8776 7.22334 36.7647L8.85561 36.1807C11.7585 37.1379 15.5602 37.6674 19.5028 37.6636C21.5767 37.6656 23.6311 37.5199 25.547 37.2349C27.4628 36.9499 29.202 36.5313 30.6636 36.0034C32.1337 35.479 33.2992 34.8551 34.0926 34.1679C34.886 33.4807 35.2915 32.7438 35.2857 32C35.2955 30.5855 33.8193 29.2217 31.1514 28.1804L32.7787 27.5959C39.3322 30.1386 39.1761 34.1187 32.2894 36.5891Z" fill="#A6A6A6"/>
<defs>
<clipPath id="clip0_1593_4494">
<rect x="5" width="29.416" height="29" rx="14.5" fill="white"/>
</clipPath>
</defs>
</svg>
