<svg width="46" height="46" viewBox="0 0 46 46" fill="none" xmlns="http://www.w3.org/2000/svg">
<ellipse cx="22.5" cy="37" rx="5.5" ry="2" fill="#A6A6A6"/>
<g clip-path="url(#clip0_0_1)">
<path d="M18.0951 6.41326V2.13762C18.0951 1.925 18.1808 1.72109 18.3333 1.57074C18.4858 1.4204 18.6926 1.33594 18.9083 1.33594C19.124 1.33594 19.3308 1.4204 19.4833 1.57074C19.6358 1.72109 19.7215 1.925 19.7215 2.13762V6.41326C19.7215 6.62588 19.6358 6.82979 19.4833 6.98014C19.3308 7.13048 19.124 7.21494 18.9083 7.21494C18.6926 7.21494 18.4858 7.13048 18.3333 6.98014C18.1808 6.82979 18.0951 6.62588 18.0951 6.41326ZM23.2453 7.21494C23.461 7.21494 23.6678 7.13048 23.8203 6.98014C23.9728 6.82979 24.0585 6.62588 24.0585 6.41326V2.13762C24.0585 1.925 23.9728 1.72109 23.8203 1.57074C23.6678 1.4204 23.461 1.33594 23.2453 1.33594C23.0296 1.33594 22.8228 1.4204 22.6703 1.57074C22.5178 1.72109 22.4321 1.925 22.4321 2.13762V6.41326C22.4321 6.62588 22.5178 6.82979 22.6703 6.98014C22.8228 7.13048 23.0296 7.21494 23.2453 7.21494ZM27.5823 7.21494C27.7979 7.21494 28.0048 7.13048 28.1573 6.98014C28.3098 6.82979 28.3954 6.62588 28.3954 6.41326V2.13762C28.3954 1.925 28.3098 1.72109 28.1573 1.57074C28.0048 1.4204 27.7979 1.33594 27.5823 1.33594C27.3666 1.33594 27.1598 1.4204 27.0072 1.57074C26.8547 1.72109 26.7691 1.925 26.7691 2.13762V6.41326C26.7691 6.62588 26.8547 6.82979 27.0072 6.98014C27.1598 7.13048 27.3666 7.21494 27.5823 7.21494ZM39.9968 13.4681L35.9851 16.4343V24.5847C35.9851 25.6478 35.5568 26.6674 34.7943 27.4191C34.0318 28.1708 32.9976 28.5932 31.9192 28.5932H14.5713C13.493 28.5932 12.4588 28.1708 11.6963 27.4191C10.9338 26.6674 10.5054 25.6478 10.5054 24.5847V16.4343L6.49373 13.4681C6.3212 13.3405 6.20713 13.1506 6.17663 12.9401C6.14613 12.7296 6.2017 12.5158 6.3311 12.3457C6.4605 12.1756 6.65314 12.0632 6.86664 12.0331C7.08014 12.003 7.29702 12.0578 7.46955 12.1854L10.5054 14.4301V10.6889C10.5054 10.4763 10.5911 10.2724 10.7436 10.122C10.8961 9.97168 11.1029 9.88722 11.3186 9.88722H35.172C35.3876 9.88722 35.5945 9.97168 35.747 10.122C35.8995 10.2724 35.9851 10.4763 35.9851 10.6889V14.4301L39.021 12.1854C39.1936 12.0578 39.4104 12.003 39.6239 12.0331C39.8374 12.0632 40.0301 12.1756 40.1595 12.3457C40.2889 12.5158 40.3444 12.7296 40.3139 12.9401C40.2834 13.1506 40.1694 13.3405 39.9968 13.4681ZM34.3588 11.4906H12.1318V24.5847C12.1318 25.2226 12.3888 25.8343 12.8463 26.2854C13.3038 26.7364 13.9243 26.9898 14.5713 26.9898H31.9192C32.5662 26.9898 33.1867 26.7364 33.6442 26.2854C34.1018 25.8343 34.3588 25.2226 34.3588 24.5847V11.4906Z" fill="#A6A6A6"/>
</g>
<path d="M39.851 32.1239C39.6573 32.0516 39.4732 31.9773 39.2738 31.9058C39.0757 31.8356 38.8711 31.7663 38.6602 31.698C34.4156 30.2721 28.814 29.4814 22.9994 29.4873C19.9764 29.4846 16.9818 29.6968 14.1887 30.1118C11.3956 30.5268 8.85952 31.1363 6.72692 31.9051C-2.04788 35.0535 -2.2358 40.1312 6.14973 43.3636C6.33765 43.4379 6.52941 43.5113 6.725 43.5837C6.92442 43.6546 7.12769 43.7213 7.33287 43.7901C11.5813 45.2151 17.1838 46.0054 22.9994 46.0001C29.1471 46.0001 34.9267 45.1421 39.2738 43.5837C48.0486 40.4353 48.2346 35.3576 39.851 32.1239ZM7.91389 32.331C9.89074 31.6181 12.2418 31.0529 14.8311 30.668C17.4204 30.2831 20.1967 30.0862 22.9994 30.0887C28.4165 30.0887 33.5269 30.8097 37.4771 32.1239L35.5576 32.8133C32.1326 31.6849 27.6492 31.0605 22.9994 31.0643C20.5535 31.0618 18.1305 31.2334 15.8708 31.5693C13.6111 31.9052 11.5596 32.3986 9.8353 33.0211C8.10114 33.6397 6.72634 34.3757 5.79054 35.1864C4.85474 35.997 4.37654 36.8663 4.38365 37.7437C4.38365 39.428 6.10946 41.0139 9.25811 42.2496L7.33478 42.9384C-0.396855 39.9392 -0.205098 35.2441 7.91389 32.331ZM34.3725 33.2378V33.2392L32.4262 33.9368C29.8361 33.1034 26.4784 32.6432 22.9994 32.6447C21.1328 32.6429 19.2837 32.7741 17.5593 33.0305C15.8348 33.2869 14.2693 33.6635 12.9533 34.1384C11.6289 34.6107 10.5788 35.1725 9.8639 35.7913C9.14897 36.4102 8.78338 37.0738 8.7883 37.7437C8.78317 38.9913 10.0653 40.1955 12.3876 41.124L10.4432 41.8231C7.61281 40.7076 6.04957 39.2522 6.06152 37.7437C6.05533 36.9453 6.49079 36.1544 7.34267 35.4169C8.19454 34.6793 9.44588 34.0097 11.0242 33.447C12.5927 32.8807 14.4588 32.4317 16.5144 32.126C18.57 31.8204 20.7743 31.6641 22.9994 31.6663C27.243 31.6663 31.2469 32.223 34.3725 33.2378ZM35.5346 37.7437C35.5346 38.9443 34.2287 40.0741 31.8605 40.9238C29.4923 41.7735 26.3475 42.2421 22.9994 42.2421C19.9667 42.2423 17.0379 41.8457 14.7615 41.1268L14.7596 41.124C14.5487 41.0593 14.3377 40.9947 14.1383 40.9238C13.9435 40.8515 13.7561 40.7767 13.5765 40.6995C11.5687 39.8836 10.4636 38.8321 10.47 37.7437C10.47 36.5424 11.772 35.4134 14.1402 34.5643C15.3015 34.1458 16.6822 33.814 18.2027 33.588C19.7233 33.3619 21.3535 33.2462 22.9994 33.2474C26.0656 33.2474 28.9535 33.6437 31.2354 34.362C31.4482 34.4281 31.6649 34.4928 31.8605 34.565C32.0574 34.637 32.2459 34.7113 32.4262 34.7879C34.4331 35.604 35.5387 36.6554 35.5346 37.7437ZM13.5726 41.5513C16.162 42.3848 19.5208 42.8452 22.9994 42.8441C24.8666 42.846 26.7162 42.7147 28.4408 42.4579C30.1654 42.2012 31.7306 41.824 33.0456 41.3483C34.3709 40.8765 35.4217 40.3148 36.1371 39.696C36.8524 39.0772 37.2179 38.4136 37.2124 37.7437C37.2159 36.4957 35.9348 35.2912 33.6151 34.3614L35.5576 33.6651C38.3859 34.7807 39.9488 36.2356 39.9392 37.7437C39.9454 38.5423 39.5098 39.3333 38.6576 40.071C37.8053 40.8087 36.5535 41.4784 34.9746 42.0412C33.4068 42.6078 31.5408 43.057 29.485 43.3626C27.4292 43.6683 25.2247 43.8244 22.9994 43.8218C18.7949 43.8256 14.7385 43.2648 11.6282 42.2496L13.5726 41.5513ZM38.0849 43.1565C36.1086 43.8695 33.7576 44.4348 31.1681 44.8196C28.5786 45.2044 25.8021 45.401 22.9994 45.3981C17.6283 45.4035 12.4523 44.6762 8.51984 43.3636L10.4451 42.6748C13.869 43.8038 18.3531 44.4283 23.0032 44.4238C25.4494 44.4262 27.8726 44.2543 30.1323 43.9182C32.392 43.5821 34.4434 43.0884 36.1674 42.4657C37.9013 41.8471 39.2759 41.1112 40.2117 40.3007C41.1475 39.4901 41.6259 38.621 41.619 37.7437C41.6306 36.0754 39.8894 34.4667 36.7426 33.2385L38.6621 32.5491C46.3918 35.5482 46.2078 40.2426 38.0849 43.1565Z" fill="#A6A6A6"/>
<defs>
<clipPath id="clip0_0_1">
<rect x="5.89746" width="34.6958" height="34.2051" rx="17.1026" fill="white"/>
</clipPath>
</defs>
</svg>
