<svg width="32" height="33" viewBox="0 0 32 33" fill="none" xmlns="http://www.w3.org/2000/svg">
<path d="M0.25 16.5V32.25H16H31.75V16.5V0.749998H16H0.25V16.5ZM30.5687 1.76294C30.5687 1.88647 30.5687 31.3606 30.5687 31.4718C30.5687 31.5335 29.3219 31.5706 27.8125 31.5706H25.0562V19.3906C25.0562 9.00176 25.03 7.18588 24.8725 7.13647C24.4919 7.00059 3.8725 7.06235 3.68875 7.19823C3.5575 7.30941 3.53125 9.61941 3.53125 19.4524L3.54437 31.5706L2.49437 31.6076C1.825 31.6324 1.43125 31.5953 1.43125 31.5088C1.43125 31.3482 1.43125 1.88647 1.43125 1.76294C1.43125 1.65176 30.5687 1.65176 30.5687 1.76294ZM13.5719 8.14941C13.6112 8.22353 13.6506 13.5106 13.6506 19.8971V31.5335L9.18812 31.5582C6.27437 31.5582 4.7125 31.5212 4.7125 31.4471C4.7125 31.3606 4.7125 9.82941 4.7125 8.26059C4.7125 8.21118 6.61562 8.14941 8.95187 8.1247C11.275 8.11235 13.2437 8.08765 13.3356 8.06294C13.4144 8.05059 13.5194 8.08765 13.5719 8.14941ZM23.8487 19.86L23.875 31.5706H19.3469H14.8187V19.8847C14.8187 13.4612 14.845 8.17412 14.8712 8.14941C14.8975 8.1247 16.9319 8.11235 19.3731 8.1247L23.8094 8.14941L23.8487 19.86Z" fill="#EFBA1A"/>
<path d="M14.0314 2.84955C11.8396 2.88661 10.7239 2.96073 10.5402 3.05955C10.1596 3.2572 9.7002 4.02308 9.7002 4.41837C9.7002 4.86308 10.1596 5.50543 10.6846 5.81425C11.1046 6.06131 11.2752 6.07367 14.4121 6.03661L17.6802 5.99955L18.1921 5.61661C18.6646 5.24602 18.6908 5.19661 18.7302 4.44308C18.7564 3.73896 18.7302 3.61543 18.4677 3.38072C17.8508 2.82484 17.4571 2.78778 14.0314 2.84955ZM17.6014 4.15896C17.7196 4.38131 17.7196 4.52955 17.6146 4.67778C17.4964 4.86308 17.1158 4.88778 14.3596 4.92484C11.0783 4.9619 10.8814 4.92484 10.8814 4.40602C10.8814 3.86249 11.0258 3.83778 14.3202 3.83778H17.4439L17.6014 4.15896Z" fill="#EFBA1A"/>
<path d="M26.8545 17.2909C26.067 18.0691 25.9751 18.2791 26.3164 18.5879C26.6314 18.8968 26.9464 18.8226 27.3795 18.3532C27.6026 18.1185 27.852 17.9209 27.9307 17.9209C27.9964 17.9209 28.167 18.0938 28.2982 18.2915C28.7051 18.9585 29.5189 18.8968 29.5189 18.205C29.5189 17.8468 28.1932 16.5621 27.8257 16.5621C27.6945 16.5621 27.2614 16.8956 26.8545 17.2909Z" fill="#EFBA1A"/>
<path d="M26.1852 21.1571C26.1458 21.3177 26.1064 21.4783 26.1064 21.5401C26.1064 21.713 27.6421 23.1089 27.8258 23.1089C28.1146 23.1089 29.5189 21.7624 29.5189 21.503C29.5189 20.7865 28.8364 20.6383 28.3639 21.2559C28.1933 21.4536 27.9833 21.6265 27.8783 21.6265C27.7733 21.6265 27.5633 21.4536 27.3927 21.2559C27.0252 20.7742 26.3164 20.7248 26.1852 21.1571Z" fill="#EFBA1A"/>
</svg>
