<svg width="30" height="25" viewBox="0 0 30 25" fill="none" xmlns="http://www.w3.org/2000/svg">
<path d="M15.0225 0.315674C19.0277 0.315674 23.0329 0.314453 27.0382 0.315674C28.4794 0.315674 29.5778 1.14552 29.9121 2.47572C29.9793 2.74298 30 3.01634 30 3.29092C30 8.81064 30 14.3303 29.9988 19.8501C29.9988 21.6086 28.7882 22.8046 27.0235 22.8107C26.7721 22.8107 26.4463 22.7008 26.2901 22.8558C26.1327 23.0108 26.2462 23.3379 26.2437 23.5893C26.234 24.352 25.7312 24.8145 25.0783 24.6485C24.6902 24.5497 24.4095 24.2263 24.3851 23.8211C24.368 23.5478 24.3717 23.272 24.379 22.9986C24.3839 22.8534 24.3387 22.7899 24.1898 22.8082C24.13 22.8155 24.0678 22.8082 24.0068 22.8082C17.9989 22.8082 11.9911 22.8107 5.98445 22.8009C5.694 22.8009 5.5866 22.8619 5.62199 23.1621C5.64883 23.3818 5.6342 23.61 5.61712 23.8321C5.5805 24.3081 5.17656 24.679 4.70306 24.6851C4.22468 24.6912 3.79877 24.3056 3.76948 23.8199C3.75362 23.5563 3.75361 23.2915 3.76582 23.0279C3.77314 22.857 3.72188 22.8021 3.54614 22.8033C3.07996 22.807 2.61135 22.8424 2.15128 22.724C0.89552 22.4018 0.0436964 21.3352 0.0070854 20.0197C-0.00633862 19.5425 0.00343562 19.0641 0.00343562 18.587C0.00343562 13.4846 0.00343562 8.38107 0.00343562 3.27872C0.00343562 1.82771 0.847918 0.717174 2.1891 0.393777C2.46734 0.326657 2.75169 0.314453 3.03604 0.314453C7.03152 0.314453 11.0258 0.314453 15.0212 0.314453L15.0225 0.315674Z" fill="#FFBC0A"/>
<path d="M20.6191 11.587C20.6191 14.5964 20.6142 17.6046 20.6264 20.614C20.6264 20.8935 20.5459 20.9362 20.2908 20.9362C14.5478 20.9289 8.80349 20.9301 3.06045 20.9301C2.20742 20.9301 1.88281 20.6055 1.88281 19.7561C1.88281 14.2877 1.88281 8.81799 1.88281 3.34953C1.88281 2.52578 2.21841 2.19385 3.04947 2.19385C8.79251 2.19385 14.5368 2.19629 20.2798 2.18774C20.5544 2.18774 20.6264 2.25242 20.6252 2.53067C20.6142 5.54985 20.6178 8.56903 20.6178 11.5882L20.6191 11.587Z" fill="white"/>
<path d="M28.1186 11.5905C28.1186 14.3351 28.1186 17.0785 28.1186 19.8231C28.1186 20.5748 27.7708 20.9288 27.0276 20.93C25.6046 20.9324 24.1817 20.9251 22.7587 20.9361C22.5391 20.9373 22.4963 20.8751 22.4963 20.6664C22.5024 14.5987 22.5024 8.53106 22.4951 2.46341C22.4951 2.22422 22.5671 2.18639 22.7831 2.18883C24.2158 2.19859 25.6498 2.19249 27.0825 2.19371C27.739 2.19371 28.1173 2.57446 28.1186 3.2359C28.1198 6.02077 28.1186 8.80565 28.1186 11.5905Z" fill="white"/>
<path d="M11.2783 4.0708C13.0783 4.0708 14.8784 4.10375 16.676 4.05982C17.85 4.03053 18.7689 4.87746 18.7567 6.15274C18.7237 9.76136 18.7457 13.3712 18.7445 16.9798C18.7445 18.3064 17.9928 19.0618 16.6687 19.0618C13.0491 19.063 9.43067 19.063 5.81107 19.0618C4.76644 19.0618 4.04276 18.5358 3.80845 17.6242C3.75963 17.4338 3.76085 17.241 3.76085 17.0494C3.76085 13.3895 3.75841 9.72963 3.76085 6.06976C3.76085 4.84085 4.52725 4.07446 5.75616 4.07202C7.59647 4.06714 9.43678 4.07202 11.2771 4.07202L11.2783 4.0708Z" fill="#FFBC0A"/>
<path d="M26.2408 6.43465C26.2408 6.88253 26.2456 7.32918 26.2395 7.77705C26.231 8.3372 25.8454 8.74358 25.323 8.75213C24.7934 8.76189 24.3834 8.34818 24.3785 7.77339C24.3699 6.85812 24.3699 5.94285 24.3785 5.02879C24.3846 4.4662 24.78 4.07447 25.3108 4.07569C25.8417 4.07569 26.2237 4.47109 26.2408 5.03245C26.2408 5.0532 26.2408 5.07273 26.2408 5.09347C26.2408 5.54135 26.2408 5.988 26.2408 6.43587V6.43465Z" fill="#FFBC0A"/>
<path d="M26.239 11.5515C26.2439 12.0677 25.8411 12.49 25.3298 12.501C24.8063 12.512 24.3767 12.0885 24.3779 11.5625C24.3779 11.0512 24.7977 10.6277 25.3042 10.624C25.8094 10.6204 26.2341 11.0426 26.2402 11.5515H26.239Z" fill="#FFBC0A"/>
<path d="M26.2392 14.384C26.2355 14.9002 25.8243 15.3091 25.3081 15.3091C24.7833 15.3091 24.3672 14.8807 24.3781 14.3511C24.3891 13.8422 24.8224 13.4236 25.3251 13.4358C25.8353 13.448 26.2416 13.8715 26.238 14.384H26.2392Z" fill="#FFBC0A"/>
<path d="M26.239 17.1738C26.2439 17.6925 25.8424 18.1098 25.3286 18.1184C24.7977 18.1269 24.3767 17.712 24.3779 17.1848C24.3779 16.6723 24.7953 16.2525 25.3042 16.25C25.8131 16.2476 26.2341 16.6637 26.239 17.175V17.1738Z" fill="#FFBC0A"/>
<path d="M16.8814 11.5871C16.8814 13.3566 16.8765 15.1249 16.8863 16.8944C16.8875 17.1312 16.8314 17.1983 16.5873 17.1983C13.0287 17.1898 9.47014 17.1898 5.91278 17.1983C5.69189 17.1983 5.61989 17.1544 5.62111 16.9176C5.62965 13.3493 5.62965 9.78092 5.62111 6.21257C5.62111 5.96484 5.71143 5.93799 5.92133 5.93799C9.47991 5.94409 13.0385 5.94409 16.5959 5.93799C16.8192 5.93799 16.8875 5.98802 16.8863 6.22233C16.8753 8.01139 16.8802 9.80044 16.8802 11.5907H16.8814V11.5871Z" fill="white"/>
</svg>
