<svg width="40" height="33" viewBox="0 0 40 33" fill="none" xmlns="http://www.w3.org/2000/svg">
<path d="M2.0275 0.719816C1.4745 0.788843 0.513333 1.6448 0.513333 2.05897C0.513333 2.23845 0.460667 2.43173 0.381667 2.47315C0.2895 2.52837 0.25 6.9186 0.25 15.2159C0.25 25.2941 0.2895 27.9862 0.421167 28.4004C0.750333 29.3668 1.50083 29.9052 2.55417 29.9328C2.778 29.9466 2.83067 30.0709 2.88333 30.6369C2.96233 31.41 3.2915 32.0313 3.71283 32.1693C4.1605 32.3212 6.0565 32.3488 6.58317 32.2107C7.18883 32.0589 7.53117 31.5343 7.62333 30.6645L7.68917 30.0018H19.8683H32.0475L32.087 30.6645C32.1133 31.1477 32.2318 31.4514 32.4952 31.7966C32.8638 32.266 32.8638 32.266 34.1015 32.2936C36.2082 32.3488 36.7217 32.0451 36.8533 30.6369C36.906 30.0709 36.9587 29.9466 37.1825 29.9328C38.1963 29.9052 39.0917 29.2839 39.276 28.4694C39.3155 28.2485 39.4472 28.0828 39.5525 28.0828C39.7237 28.0828 39.75 26.509 39.75 15.3815C39.75 4.36454 39.7237 2.68023 39.5525 2.68023C39.4472 2.68023 39.3287 2.48695 39.276 2.19703C39.2233 1.85189 39.0258 1.56197 38.6308 1.21682L38.0647 0.733622L20.2502 0.706009C10.441 0.692204 2.25133 0.706009 2.0275 0.719816ZM30.1647 2.05897C30.191 2.128 30.1778 8.17493 30.1383 15.492L30.0725 28.7869L16.208 28.7731C2.0275 28.7731 2.1065 28.7731 1.54033 28.2485C1.3165 28.0552 1.30333 27.2683 1.30333 15.4229C1.30333 2.8459 1.30333 2.79068 1.57983 2.43173C1.73783 2.21084 2.0275 2.03136 2.2645 1.98994C3.10717 1.85189 30.1383 1.92092 30.1647 2.05897ZM38.1305 2.37651L38.4202 2.74926V15.3125C38.4202 27.1026 38.407 27.8895 38.1963 28.1657C37.7618 28.7041 37.5117 28.7455 34.4175 28.7869L31.3892 28.8145L31.3497 15.5058C31.3365 8.18873 31.3497 2.128 31.376 2.05897C31.4023 1.96233 32.5478 1.93472 34.6282 1.96233L37.8408 2.00375L38.1305 2.37651ZM6.43833 30.2365C6.5305 30.4712 6.5305 30.6783 6.42517 30.8578C6.30667 31.1063 6.175 31.1201 5.21383 31.0925C4.13417 31.0511 4.13417 31.0511 4.09467 30.6645C4.01567 29.9328 4.10783 29.8776 5.25333 29.8776C6.26717 29.8776 6.31983 29.8914 6.43833 30.2365ZM35.6025 30.4988V31.0511H34.4965C33.509 31.0511 33.3773 31.0235 33.2983 30.775C33.2457 30.6231 33.2457 30.3608 33.3115 30.1813C33.4168 29.8776 33.4827 29.8638 34.5097 29.9052L35.6025 29.9466V30.4988Z" fill="#EFBA1A"/>
<path d="M3.75249 3.90883C3.00199 4.43345 3.01516 4.15734 3.01516 15.3676C3.01516 26.2466 3.00199 26.1223 3.62083 26.6055C3.89733 26.8126 4.84533 26.8402 15.8 26.8402L27.6763 26.854L28.124 26.3984L28.5585 25.9566V15.3262C28.5453 3.5775 28.6112 4.47487 27.7422 3.88122C27.413 3.66033 26.6098 3.64652 15.7605 3.64652C4.52933 3.64652 4.12116 3.66033 3.75249 3.90883ZM27.3077 13.6971V22.4362L24.7007 22.4638C22.1332 22.4914 22.1068 22.4914 22.1068 22.2015C22.1068 22.0358 22.199 21.8149 22.3175 21.7183C22.436 21.6216 22.5808 21.4145 22.6467 21.2489C22.7915 20.9451 22.9232 20.6966 23.463 19.8407C23.9502 19.0399 23.9238 18.4877 23.3708 17.7974L22.9232 17.2452H15.8395C8.95333 17.2452 8.72949 17.259 8.38716 17.5213C8.18966 17.687 7.96583 18.0459 7.87366 18.3773C7.68933 19.0676 7.83416 19.5508 8.43983 20.3653C8.63733 20.6414 8.80849 20.9175 8.80849 20.9728C8.80849 21.028 8.99283 21.3041 9.20349 21.594C9.42733 21.8839 9.59849 22.2153 9.59849 22.3533C9.59849 22.5466 9.50633 22.5742 8.88749 22.4914C7.99216 22.3671 7.62349 22.5604 7.62349 23.1126C7.62349 23.4164 7.68933 23.5406 7.92633 23.5958C8.08433 23.6373 12.5347 23.6511 17.8013 23.6373L27.3867 23.5958L27.3472 24.6037L27.3077 25.6115H15.8132C9.49316 25.6115 4.26599 25.5701 4.21333 25.5425C4.02899 25.4182 4.13433 23.7891 4.33183 23.6649C4.43716 23.5958 4.79266 23.582 5.14816 23.6235C6.05666 23.7339 6.45166 23.2921 6.00399 22.6294C5.85916 22.4224 5.66166 22.3809 5.01649 22.4085C4.42399 22.4224 4.20016 22.3809 4.20016 22.2567C4.16066 19.8821 4.22649 5.09613 4.27916 5.01329C4.31866 4.94427 9.37466 4.90285 15.8263 4.91665L27.3077 4.95807V13.6971ZM22.4097 18.4739C22.6598 18.5429 22.7125 19.0399 22.4887 19.178C22.4228 19.2332 22.2912 19.4127 22.2253 19.5646C22.1595 19.7302 21.9883 20.0478 21.8435 20.2825C21.6987 20.5034 21.5275 20.8209 21.4485 20.9728C21.1588 21.5526 20.7638 22.2153 20.619 22.3533C20.5137 22.4362 18.7757 22.4638 15.6683 22.4224L10.8757 22.3533L10.507 21.663C10.2963 21.2765 10.0725 20.8485 9.99349 20.6966C9.91449 20.5448 9.74333 20.2272 9.59849 20.0063C8.95333 18.9709 8.90066 18.8191 9.12449 18.5844C9.29566 18.3773 9.90133 18.3497 15.7473 18.3773C19.276 18.3911 22.278 18.4325 22.4097 18.4739Z" fill="#EFBA1A"/>
<path d="M13.1659 9.9973C12.4154 10.7566 12.4154 12.0267 13.1659 12.8275C13.3766 13.0622 13.5477 13.3383 13.5477 13.4349C13.5477 13.5178 13.3634 13.8491 13.1264 14.1528C12.7314 14.6774 12.7182 14.6913 12.9552 14.9674C13.4161 15.5058 13.9822 15.2711 14.5089 14.3185C14.8512 13.6696 14.7986 13.0484 14.3377 12.4547C13.7979 11.7644 13.7057 11.2122 14.0612 10.8394C14.4036 10.4805 14.4167 9.91446 14.0876 9.72118C13.7057 9.5141 13.6004 9.54171 13.1659 9.9973Z" fill="#EFBA1A"/>
<path d="M16.906 9.70755C16.6295 9.8318 15.9185 11.0467 15.9185 11.4057C15.9185 11.6818 16.353 12.5239 16.6821 12.8967C17.064 13.3247 17.0508 13.6008 16.6426 14.0011C16.274 14.3601 16.2345 14.6362 16.4978 14.9952C16.9191 15.5888 17.6696 15.1332 18.0646 14.0426C18.2753 13.4903 18.2753 13.4213 18.0646 12.9381C17.933 12.6482 17.6696 12.2064 17.4721 11.9579C17.0771 11.4609 17.1035 11.2676 17.617 10.7706C17.9593 10.4531 17.9725 10.1079 17.6565 9.81799C17.3931 9.55568 17.301 9.54188 16.906 9.70755Z" fill="#EFBA1A"/>
<path d="M32.9696 4.12948L32.5088 4.62649V5.97945C32.5088 7.15294 32.5483 7.36003 32.7721 7.58092C32.9828 7.78801 33.0881 7.80181 33.3646 7.67756C33.6675 7.5257 33.6806 7.45667 33.7201 6.24176L33.7596 4.95783L34.9183 4.91641L36.0638 4.87499L36.0901 8.40927C36.0901 10.3421 36.1033 12.0126 36.1165 12.0954C36.1296 12.2197 35.7873 12.2887 34.9183 12.3163L33.6938 12.3577V10.9081C33.6938 9.56895 33.6675 9.4447 33.4173 9.29284C33.2066 9.18239 33.0618 9.18239 32.8248 9.32045C32.522 9.48612 32.5088 9.54134 32.5088 11.129C32.5088 12.7719 32.5088 12.7857 32.8906 13.1861C33.2725 13.5864 33.2856 13.5864 34.9051 13.5864C36.5246 13.5864 36.551 13.5864 36.8933 13.1999L37.2488 12.8133V8.65777V4.50224L36.788 4.07426C36.3271 3.64628 36.3008 3.64628 34.8788 3.64628H33.4436L32.9696 4.12948Z" fill="#EFBA1A"/>
<path d="M32.7458 15.257C32.6141 15.326 32.5088 15.5193 32.5088 15.685C32.5088 16.2372 32.8511 16.3339 34.8525 16.3477C35.9058 16.3477 36.8538 16.2786 36.9986 16.2096C37.3146 16.0301 37.341 15.3122 37.0381 15.188C36.6958 15.0499 32.9828 15.1051 32.7458 15.257Z" fill="#EFBA1A"/>
<path d="M32.7456 17.3285C32.4296 17.5218 32.4428 18.1016 32.7719 18.2811C33.1538 18.502 36.8009 18.502 37.0511 18.2811C37.3144 18.0464 37.3013 17.3699 37.0379 17.2595C36.6956 17.1214 32.9826 17.1766 32.7456 17.3285Z" fill="#EFBA1A"/>
<path d="M34.0228 22.105C33.5225 22.3811 32.9037 22.9748 32.9037 23.1957C32.9037 23.2785 32.8115 23.4304 32.7062 23.527C32.4165 23.7755 32.456 24.8109 32.772 25.4322C33.088 26.0534 33.3645 26.4262 33.4962 26.4262C33.562 26.4262 33.7068 26.5228 33.8385 26.6471C34.1808 26.9784 35.4975 26.9646 35.9978 26.6195C36.485 26.2881 36.722 26.0396 37.0248 25.5702C37.3145 25.087 37.3408 23.6374 37.0512 23.3889C36.9458 23.2923 36.8537 23.1404 36.8537 23.0576C36.8537 22.8505 36.3797 22.4225 35.8003 22.1188C35.2473 21.8151 34.5495 21.8151 34.0228 22.105ZM35.6555 23.4718C36.1953 23.9412 36.2348 24.8247 35.7477 25.3217C34.984 26.0673 33.7068 25.5288 33.6937 24.4796C33.6937 24.0654 33.7858 23.8859 34.1545 23.5408C34.7207 23.0162 35.1288 23.0024 35.6555 23.4718Z" fill="#EFBA1A"/>
</svg>
