<svg width="22" height="35" viewBox="0 0 22 35" fill="none" xmlns="http://www.w3.org/2000/svg">
<path d="M0.5 16.2363C0.5 11.7497 0.5 7.26437 0.5 2.77771C0.501367 1.69637 1.04545 0.903476 1.97915 0.606826C2.23069 0.527537 2.48906 0.50293 2.7529 0.50293C8.25119 0.50293 13.7508 0.50293 19.2491 0.504297C20.6052 0.504297 21.4938 1.38468 21.4966 2.74763C21.5034 5.25207 21.4979 7.75788 21.4979 10.2623C21.4979 16.7408 21.4979 23.2192 21.4979 29.6991C21.4979 30.7845 20.988 31.561 20.0762 31.8754C20.001 31.9014 19.9231 31.9397 19.8479 31.9356C19.4077 31.9178 19.3544 32.1762 19.3954 32.5289C19.4159 32.708 19.4063 32.8939 19.3954 33.0743C19.3626 33.6444 18.9101 34.0887 18.3578 34.0969C17.7987 34.1065 17.323 33.6485 17.2956 33.0648C17.2833 32.8037 17.2737 32.5398 17.2983 32.2801C17.3216 32.0272 17.2218 31.9821 16.9935 31.9889C16.4822 32.0067 15.9696 31.9944 15.4569 31.9944C11.9846 31.9944 8.5123 31.9971 5.03998 31.9889C4.78161 31.9889 4.67225 32.0395 4.70369 32.317C4.72966 32.5535 4.71599 32.7955 4.70779 33.0333C4.68592 33.6417 4.21428 34.1078 3.64012 34.0969C3.07416 34.0859 2.62303 33.628 2.60526 33.0374C2.59569 32.7531 2.59569 32.4674 2.60526 32.183C2.61073 32.0395 2.56698 32.0026 2.42071 31.9807C1.1972 31.803 0.502734 30.9841 0.501367 29.7292C0.498633 25.2315 0.501367 20.7339 0.501367 16.2363H0.5Z" fill="#FFBC0A"/>
<path d="M11.0062 14.1556C13.6938 14.1556 16.3801 14.1597 19.0677 14.1502C19.3261 14.1502 19.4068 14.2021 19.4054 14.4783C19.3958 19.5117 19.3958 24.5452 19.4054 29.5787C19.4054 29.8316 19.348 29.8986 19.0896 29.8973C13.7034 29.889 8.31859 29.889 2.93241 29.8973C2.6713 29.8973 2.59338 29.8412 2.59474 29.5664C2.60431 24.5329 2.60295 19.4994 2.59474 14.466C2.59474 14.2103 2.65489 14.1488 2.91053 14.1502C5.6091 14.1597 8.30766 14.157 11.0062 14.157V14.1556Z" fill="white"/>
<path d="M10.9652 12.0476C8.28987 12.0476 5.61455 12.0421 2.94059 12.0558C2.64667 12.0571 2.59473 11.9724 2.59473 11.6976C2.60566 8.78303 2.60566 5.86848 2.59473 2.95392C2.59473 2.67504 2.65351 2.59985 2.94333 2.59985C8.31584 2.60942 13.6884 2.60942 19.0622 2.59985C19.3548 2.59985 19.4081 2.68188 19.4081 2.95665C19.3972 5.87121 19.3972 8.78577 19.4081 11.7003C19.4081 11.9792 19.3493 12.0571 19.0595 12.0558C16.3623 12.0435 13.6638 12.0489 10.9666 12.0489L10.9652 12.0476Z" fill="white"/>
<path d="M5.7453 18.369C5.7453 18.7217 5.7535 19.0744 5.74393 19.4271C5.72753 19.9876 5.29691 20.4237 4.75282 20.4455C4.18823 20.4688 3.69472 20.0669 3.67011 19.4927C3.63731 18.7326 3.63731 17.9684 3.67011 17.2084C3.69472 16.6315 4.18413 16.2377 4.75555 16.261C5.30511 16.2842 5.7289 16.7135 5.74393 17.2781C5.7535 17.6417 5.7453 18.0067 5.7453 18.3703V18.369Z" fill="#FFBC0A"/>
<path d="M5.74556 7.86174C5.74556 8.21444 5.75376 8.56714 5.74419 8.91984C5.72915 9.49811 5.29443 9.9342 4.72984 9.94923C4.18028 9.9629 3.69498 9.56646 3.67174 9.00597C3.63893 8.23358 3.63893 7.45846 3.67447 6.68608C3.70044 6.13105 4.20215 5.73188 4.74487 5.75511C5.29033 5.77835 5.72642 6.21445 5.74419 6.7681C5.75512 7.13174 5.74692 7.49674 5.74692 7.86038L5.74556 7.86174Z" fill="#FFBC0A"/>
</svg>
