<svg width="29" height="36" viewBox="0 0 29 36" fill="none" xmlns="http://www.w3.org/2000/svg">
<path d="M5.26055 15.6449L5.26056 15.6449L5.25507 15.6477C5.04641 15.7547 4.92115 15.8385 4.83539 15.922C4.75785 15.9974 4.69792 16.0868 4.64915 16.2296C4.55532 16.5045 4.51413 16.9295 4.50315 17.7009C4.51137 17.3964 4.52379 17.1437 4.54179 16.9368C4.55638 16.7691 4.57547 16.6212 4.60182 16.4949C4.62695 16.3745 4.66482 16.2421 4.73253 16.125C4.86699 15.8924 5.08627 15.6816 5.38942 15.6249C5.55007 15.5949 5.70233 15.6141 5.83885 15.6674C5.83815 15.667 5.83744 15.6667 5.83674 15.6663L5.83529 15.6655C5.6913 15.586 5.61137 15.5419 5.55043 15.5142C5.54422 15.5114 5.53876 15.5091 5.53402 15.5071C5.53215 15.5078 5.53017 15.5086 5.52807 15.5095C5.47277 15.5329 5.3996 15.5714 5.26055 15.6449ZM4.83187 20.6405C4.78004 20.5756 4.72677 20.502 4.67941 20.4122C4.74737 20.5822 4.84295 20.6962 4.99234 20.8308L5.40773 21.205L5.50962 21.2967L5.65495 21.1611L5.92772 20.9064C5.87622 20.9382 5.81391 20.9732 5.74728 20.9995C5.64418 21.0402 5.49845 21.0731 5.3316 21.03C5.17823 20.9903 5.07146 20.9021 5.00765 20.8408C4.94377 20.7795 4.88364 20.7058 4.83187 20.6405ZM5.59011 22.5034L5.54219 22.0177L5.50268 22.5586C5.47235 23.031 5.46834 23.2087 5.48425 23.3055C5.48696 23.322 5.48937 23.329 5.48982 23.3302C5.48985 23.3303 5.48987 23.3304 5.48989 23.3304C5.49008 23.331 5.49019 23.3313 5.4912 23.333C5.49623 23.3412 5.51109 23.3623 5.57059 23.4237L5.57778 23.4311L5.58466 23.4388C5.59134 23.4463 5.5977 23.453 5.60369 23.4588C5.60395 23.4556 5.60422 23.4522 5.60449 23.4487C5.60927 23.3854 5.61231 23.3003 5.61299 23.1977C5.61433 22.9956 5.60636 22.7461 5.59011 22.5034ZM6.28103 20.5702C6.28072 20.5707 6.28041 20.5712 6.2801 20.5717L6.5 20.3561V18.3834C6.5 17.7647 6.4963 17.3005 6.4781 16.9403C6.45972 16.5766 6.42762 16.3505 6.38292 16.197C6.34267 16.0588 6.29483 15.9882 6.23548 15.9298C6.19824 15.8931 6.15118 15.856 6.086 15.813C6.12302 15.8432 6.15781 15.8761 6.19011 15.911C6.27422 16.0019 6.31231 16.1038 6.32928 16.1541C6.35013 16.2159 6.3647 16.2808 6.3757 16.3418C6.39784 16.4644 6.41377 16.6182 6.4258 16.7969C6.45003 17.1571 6.46154 17.6695 6.46154 18.346C6.46154 19.2571 6.45965 19.7836 6.42187 20.0961C6.40245 20.2567 6.36794 20.4218 6.28103 20.5702Z" fill="#A6A6A6" stroke="#EFBA1A"/>
<mask id="path-2-inside-1_0_1" fill="white">
<path d="M1.39175 0.18C1.39175 0.276001 1.2368 0.383999 1.05369 0.431999C0.870574 0.467999 0.560686 0.636002 0.377571 0.804001L0.0535973 1.104L0.0113399 17.796C-0.0168317 26.988 0.0113399 34.716 0.0535973 34.98C0.18037 35.712 0.786059 36 2.20872 36C3.99762 36 4.11031 35.916 5.12449 33.828C5.43437 33.18 5.47663 32.976 5.34986 32.772C5.19491 32.544 5.05406 32.52 3.2229 32.496L1.2368 32.46V23.352C1.2368 18.348 1.26498 14.22 1.30723 14.196C1.34949 14.16 13.4633 14.124 14.1112 14.16C14.1817 14.16 14.1112 14.316 13.9845 14.508C13.6746 14.964 13.8013 15.24 14.3366 15.24C14.6606 15.24 14.9282 15.096 15.4353 14.652L16.1255 14.064L17.2805 14.052C17.9144 14.052 18.5905 14.016 18.7877 13.968C19.0413 13.92 19.168 13.944 19.2244 14.088C19.2948 14.232 19.1399 14.424 18.7173 14.736C18.3792 14.976 17.9003 15.348 17.6608 15.564C17.2242 15.948 17.1678 15.96 16.0692 15.96C15.055 15.96 14.9282 15.984 14.8437 16.2C14.7028 16.596 14.8859 16.896 15.3085 16.944C15.8297 16.992 15.8438 17.304 15.3367 17.544C14.8437 17.784 14.7592 18.276 15.1817 18.48C15.5902 18.66 15.7029 18.636 16.1818 18.24C16.703 17.808 16.8861 17.784 16.8861 18.156C16.8861 18.312 16.9706 18.54 17.0833 18.66C17.2664 18.876 17.2805 18.876 17.6608 18.672C18.0412 18.468 18.0412 18.42 17.9848 17.64L17.9144 16.812L18.5623 16.224C18.9145 15.9 19.3934 15.456 19.6047 15.252C20.3231 14.592 20.4076 14.712 20.3231 16.224L20.2386 17.58L19.4638 18.216C18.6609 18.888 18.5483 19.224 19.0413 19.488C19.2244 19.584 19.3793 19.572 19.7174 19.404C19.9568 19.296 20.1963 19.2 20.2386 19.2C20.2949 19.2 20.3231 22.128 20.2949 25.704C20.2808 29.292 20.2667 32.292 20.2667 32.364C20.2667 32.484 18.8722 32.52 13.8013 32.52C7.54724 32.52 7.32187 32.532 7.23736 32.748C7.1951 32.88 7.1951 33.12 7.25144 33.288L7.33596 33.6L11.7871 33.624L16.2382 33.66L16.4072 33.96C16.5058 34.128 16.703 34.524 16.858 34.86C17.2664 35.748 17.7735 36 19.1399 36C20.4358 36 21.0555 35.784 21.3232 35.232C21.5626 34.74 21.633 21.348 21.3936 20.112C21.3091 19.656 21.2809 19.26 21.3232 19.224C21.3513 19.188 21.619 19.26 21.8866 19.392C22.4641 19.656 22.8444 19.536 22.9149 19.092C22.9571 18.888 22.7599 18.66 22.1965 18.204L21.4218 17.58L21.3372 16.224C21.2386 14.472 21.2246 14.472 22.9289 16.056L23.7037 16.776V17.64C23.7177 18.336 23.7741 18.54 23.9713 18.648C24.3093 18.828 24.6897 18.612 24.746 18.192C24.8024 17.76 24.9714 17.796 25.6052 18.372C26.0278 18.768 26.1968 18.852 26.4363 18.792C26.7603 18.696 26.9716 18.24 26.8307 17.94C26.7884 17.832 26.5631 17.664 26.3236 17.544C25.8447 17.316 25.8165 17.004 26.2814 16.944C26.718 16.896 26.9293 16.62 26.8307 16.26C26.7462 15.972 26.7039 15.96 25.6052 15.96C24.4925 15.96 24.4784 15.96 23.9572 15.504C23.6755 15.264 23.1966 14.88 22.9149 14.664C22.2387 14.172 22.1965 13.86 22.8163 13.968C23.0557 14.004 23.6896 14.04 24.2248 14.04H25.1827L25.887 14.652C26.4926 15.168 26.6476 15.252 27.0561 15.216C27.4082 15.192 27.535 15.12 27.5632 14.928C27.5913 14.796 27.5068 14.604 27.3801 14.52C26.9293 14.196 27.1265 14.04 27.9717 14.064C28.7323 14.1 28.7886 14.088 28.9154 13.764C29.1549 13.2 28.9013 13.008 27.9576 13.056C27.3378 13.092 27.1688 13.068 27.1688 12.924C27.1688 12.828 27.2674 12.72 27.3801 12.672C27.8308 12.528 27.4646 11.772 26.9434 11.76C26.8448 11.76 26.4363 12.048 26.0137 12.408L25.2531 13.056L23.9854 13.08C23.2952 13.092 22.6472 13.104 22.5627 13.092C22.3655 13.08 22.3092 12.72 22.4923 12.72C22.5486 12.72 23.0416 12.36 23.5769 11.928L24.5629 11.136L25.4362 11.208C26.5067 11.28 26.9856 11.052 26.8307 10.524C26.7603 10.26 26.6617 10.2 26.3236 10.2C25.7602 10.2 25.7884 9.96 26.394 9.552C26.9716 9.156 27.0702 8.616 26.6194 8.4C26.225 8.232 26.225 8.232 25.6052 8.76C24.9855 9.288 24.7742 9.36 24.7742 9.012C24.7742 8.58 24.6051 8.4 24.2107 8.4C23.7177 8.4 23.6473 8.556 23.6473 9.6C23.6473 10.404 23.6332 10.428 23.0135 10.992C21.1823 12.66 21.1682 12.672 21.3091 11.628C21.3513 11.22 21.3936 10.644 21.3936 10.356C21.3936 9.864 21.4499 9.78 22.1683 9.204C22.9994 8.544 23.1261 8.196 22.6472 7.944C22.4078 7.812 22.281 7.824 21.8866 8.028C21.3091 8.316 21.1823 8.208 21.4077 7.584C21.619 6.96 21.4077 6.6 20.8161 6.6C20.2808 6.6 20.0554 7.008 20.2949 7.56C20.5062 8.088 20.2667 8.268 19.7596 7.98C19.4497 7.812 19.3371 7.8 19.0553 7.932C18.5342 8.16 18.6469 8.496 19.492 9.192C20.1681 9.756 20.2667 9.888 20.2667 10.296C20.2667 10.56 20.309 11.1 20.3512 11.508C20.4639 12.36 20.2667 12.48 19.6469 11.904C17.7594 10.164 17.8721 10.32 17.9707 9.636C18.0834 8.712 17.9566 8.4 17.4496 8.4C17.0833 8.4 17.0129 8.46 16.9425 8.76C16.8298 9.216 16.5622 9.216 16.0269 8.76C15.6184 8.424 15.5902 8.412 15.2522 8.592C14.8014 8.856 14.8296 9.252 15.3367 9.6C15.872 9.984 15.872 10.2 15.3367 10.2C14.9986 10.2 14.9 10.26 14.8296 10.512C14.6747 11.028 15.0268 11.208 16.1537 11.184L17.1256 11.148L17.8158 11.724C18.1961 12.036 18.6891 12.42 18.9145 12.564C19.6047 13.032 19.3511 13.14 17.6468 13.104L16.1114 13.068L15.3789 12.408C14.9705 12.06 14.5197 11.76 14.3789 11.76C13.8436 11.76 13.5901 12.312 13.9985 12.6C14.1112 12.684 14.2098 12.828 14.2098 12.912C14.2098 13.056 13.1816 13.08 7.71627 13.056L1.22272 13.02L1.25089 7.332C1.25089 3.84 1.32132 1.56 1.40583 1.428C1.53261 1.212 1.94109 1.2 10.7447 1.2H19.9568L20.1259 1.548C20.2386 1.8 20.2667 2.292 20.1963 3.24C20.0695 4.752 20.2104 5.16 20.802 5.16C21.4218 5.16 21.5204 4.872 21.5344 3.228C21.5344 1.272 21.3513 0.804001 20.4498 0.48C20.2667 0.419998 20.1259 0.287998 20.1259 0.18C20.1259 0.0239983 19.0553 0 10.7588 0C2.57496 0 1.39175 0.0239983 1.39175 0.18ZM3.92719 33.768C3.92719 33.852 3.82859 33.996 3.71591 34.08C3.60322 34.164 3.50462 34.32 3.50462 34.428C3.50462 34.848 2.96936 35.16 2.26507 35.16C1.40583 35.16 1.25089 35.052 1.15229 34.464C1.02552 33.636 1.06778 33.6 2.58904 33.6C3.63139 33.6 3.92719 33.636 3.92719 33.768ZM20.2949 34.26C20.2386 34.992 20.0132 35.16 19.1258 35.16C18.7736 35.16 18.4074 35.088 18.3229 35.004C18.0412 34.704 17.4777 33.732 17.5622 33.66C17.6045 33.624 18.2525 33.612 18.999 33.624L20.3372 33.66L20.2949 34.26Z"/>
</mask>
<path d="M1.39175 0.18C1.39175 0.276001 1.2368 0.383999 1.05369 0.431999C0.870574 0.467999 0.560686 0.636002 0.377571 0.804001L0.0535973 1.104L0.0113399 17.796C-0.0168317 26.988 0.0113399 34.716 0.0535973 34.98C0.18037 35.712 0.786059 36 2.20872 36C3.99762 36 4.11031 35.916 5.12449 33.828C5.43437 33.18 5.47663 32.976 5.34986 32.772C5.19491 32.544 5.05406 32.52 3.2229 32.496L1.2368 32.46V23.352C1.2368 18.348 1.26498 14.22 1.30723 14.196C1.34949 14.16 13.4633 14.124 14.1112 14.16C14.1817 14.16 14.1112 14.316 13.9845 14.508C13.6746 14.964 13.8013 15.24 14.3366 15.24C14.6606 15.24 14.9282 15.096 15.4353 14.652L16.1255 14.064L17.2805 14.052C17.9144 14.052 18.5905 14.016 18.7877 13.968C19.0413 13.92 19.168 13.944 19.2244 14.088C19.2948 14.232 19.1399 14.424 18.7173 14.736C18.3792 14.976 17.9003 15.348 17.6608 15.564C17.2242 15.948 17.1678 15.96 16.0692 15.96C15.055 15.96 14.9282 15.984 14.8437 16.2C14.7028 16.596 14.8859 16.896 15.3085 16.944C15.8297 16.992 15.8438 17.304 15.3367 17.544C14.8437 17.784 14.7592 18.276 15.1817 18.48C15.5902 18.66 15.7029 18.636 16.1818 18.24C16.703 17.808 16.8861 17.784 16.8861 18.156C16.8861 18.312 16.9706 18.54 17.0833 18.66C17.2664 18.876 17.2805 18.876 17.6608 18.672C18.0412 18.468 18.0412 18.42 17.9848 17.64L17.9144 16.812L18.5623 16.224C18.9145 15.9 19.3934 15.456 19.6047 15.252C20.3231 14.592 20.4076 14.712 20.3231 16.224L20.2386 17.58L19.4638 18.216C18.6609 18.888 18.5483 19.224 19.0413 19.488C19.2244 19.584 19.3793 19.572 19.7174 19.404C19.9568 19.296 20.1963 19.2 20.2386 19.2C20.2949 19.2 20.3231 22.128 20.2949 25.704C20.2808 29.292 20.2667 32.292 20.2667 32.364C20.2667 32.484 18.8722 32.52 13.8013 32.52C7.54724 32.52 7.32187 32.532 7.23736 32.748C7.1951 32.88 7.1951 33.12 7.25144 33.288L7.33596 33.6L11.7871 33.624L16.2382 33.66L16.4072 33.96C16.5058 34.128 16.703 34.524 16.858 34.86C17.2664 35.748 17.7735 36 19.1399 36C20.4358 36 21.0555 35.784 21.3232 35.232C21.5626 34.74 21.633 21.348 21.3936 20.112C21.3091 19.656 21.2809 19.26 21.3232 19.224C21.3513 19.188 21.619 19.26 21.8866 19.392C22.4641 19.656 22.8444 19.536 22.9149 19.092C22.9571 18.888 22.7599 18.66 22.1965 18.204L21.4218 17.58L21.3372 16.224C21.2386 14.472 21.2246 14.472 22.9289 16.056L23.7037 16.776V17.64C23.7177 18.336 23.7741 18.54 23.9713 18.648C24.3093 18.828 24.6897 18.612 24.746 18.192C24.8024 17.76 24.9714 17.796 25.6052 18.372C26.0278 18.768 26.1968 18.852 26.4363 18.792C26.7603 18.696 26.9716 18.24 26.8307 17.94C26.7884 17.832 26.5631 17.664 26.3236 17.544C25.8447 17.316 25.8165 17.004 26.2814 16.944C26.718 16.896 26.9293 16.62 26.8307 16.26C26.7462 15.972 26.7039 15.96 25.6052 15.96C24.4925 15.96 24.4784 15.96 23.9572 15.504C23.6755 15.264 23.1966 14.88 22.9149 14.664C22.2387 14.172 22.1965 13.86 22.8163 13.968C23.0557 14.004 23.6896 14.04 24.2248 14.04H25.1827L25.887 14.652C26.4926 15.168 26.6476 15.252 27.0561 15.216C27.4082 15.192 27.535 15.12 27.5632 14.928C27.5913 14.796 27.5068 14.604 27.3801 14.52C26.9293 14.196 27.1265 14.04 27.9717 14.064C28.7323 14.1 28.7886 14.088 28.9154 13.764C29.1549 13.2 28.9013 13.008 27.9576 13.056C27.3378 13.092 27.1688 13.068 27.1688 12.924C27.1688 12.828 27.2674 12.72 27.3801 12.672C27.8308 12.528 27.4646 11.772 26.9434 11.76C26.8448 11.76 26.4363 12.048 26.0137 12.408L25.2531 13.056L23.9854 13.08C23.2952 13.092 22.6472 13.104 22.5627 13.092C22.3655 13.08 22.3092 12.72 22.4923 12.72C22.5486 12.72 23.0416 12.36 23.5769 11.928L24.5629 11.136L25.4362 11.208C26.5067 11.28 26.9856 11.052 26.8307 10.524C26.7603 10.26 26.6617 10.2 26.3236 10.2C25.7602 10.2 25.7884 9.96 26.394 9.552C26.9716 9.156 27.0702 8.616 26.6194 8.4C26.225 8.232 26.225 8.232 25.6052 8.76C24.9855 9.288 24.7742 9.36 24.7742 9.012C24.7742 8.58 24.6051 8.4 24.2107 8.4C23.7177 8.4 23.6473 8.556 23.6473 9.6C23.6473 10.404 23.6332 10.428 23.0135 10.992C21.1823 12.66 21.1682 12.672 21.3091 11.628C21.3513 11.22 21.3936 10.644 21.3936 10.356C21.3936 9.864 21.4499 9.78 22.1683 9.204C22.9994 8.544 23.1261 8.196 22.6472 7.944C22.4078 7.812 22.281 7.824 21.8866 8.028C21.3091 8.316 21.1823 8.208 21.4077 7.584C21.619 6.96 21.4077 6.6 20.8161 6.6C20.2808 6.6 20.0554 7.008 20.2949 7.56C20.5062 8.088 20.2667 8.268 19.7596 7.98C19.4497 7.812 19.3371 7.8 19.0553 7.932C18.5342 8.16 18.6469 8.496 19.492 9.192C20.1681 9.756 20.2667 9.888 20.2667 10.296C20.2667 10.56 20.309 11.1 20.3512 11.508C20.4639 12.36 20.2667 12.48 19.6469 11.904C17.7594 10.164 17.8721 10.32 17.9707 9.636C18.0834 8.712 17.9566 8.4 17.4496 8.4C17.0833 8.4 17.0129 8.46 16.9425 8.76C16.8298 9.216 16.5622 9.216 16.0269 8.76C15.6184 8.424 15.5902 8.412 15.2522 8.592C14.8014 8.856 14.8296 9.252 15.3367 9.6C15.872 9.984 15.872 10.2 15.3367 10.2C14.9986 10.2 14.9 10.26 14.8296 10.512C14.6747 11.028 15.0268 11.208 16.1537 11.184L17.1256 11.148L17.8158 11.724C18.1961 12.036 18.6891 12.42 18.9145 12.564C19.6047 13.032 19.3511 13.14 17.6468 13.104L16.1114 13.068L15.3789 12.408C14.9705 12.06 14.5197 11.76 14.3789 11.76C13.8436 11.76 13.5901 12.312 13.9985 12.6C14.1112 12.684 14.2098 12.828 14.2098 12.912C14.2098 13.056 13.1816 13.08 7.71627 13.056L1.22272 13.02L1.25089 7.332C1.25089 3.84 1.32132 1.56 1.40583 1.428C1.53261 1.212 1.94109 1.2 10.7447 1.2H19.9568L20.1259 1.548C20.2386 1.8 20.2667 2.292 20.1963 3.24C20.0695 4.752 20.2104 5.16 20.802 5.16C21.4218 5.16 21.5204 4.872 21.5344 3.228C21.5344 1.272 21.3513 0.804001 20.4498 0.48C20.2667 0.419998 20.1259 0.287998 20.1259 0.18C20.1259 0.0239983 19.0553 0 10.7588 0C2.57496 0 1.39175 0.0239983 1.39175 0.18ZM3.92719 33.768C3.92719 33.852 3.82859 33.996 3.71591 34.08C3.60322 34.164 3.50462 34.32 3.50462 34.428C3.50462 34.848 2.96936 35.16 2.26507 35.16C1.40583 35.16 1.25089 35.052 1.15229 34.464C1.02552 33.636 1.06778 33.6 2.58904 33.6C3.63139 33.6 3.92719 33.636 3.92719 33.768ZM20.2949 34.26C20.2386 34.992 20.0132 35.16 19.1258 35.16C18.7736 35.16 18.4074 35.088 18.3229 35.004C18.0412 34.704 17.4777 33.732 17.5622 33.66C17.6045 33.624 18.2525 33.612 18.999 33.624L20.3372 33.66L20.2949 34.26Z" fill="#A6A6A6" stroke="#EFBA1A" stroke-width="2" mask="url(#path-2-inside-1_0_1)"/>
<path d="M4.74319 5.99977C4.77898 5.94283 4.82029 5.8871 4.86713 5.83492C4.8293 5.86831 4.79865 5.90026 4.77277 5.93215C4.71597 6.00212 4.66653 6.09097 4.62543 6.23099C4.59515 6.33417 4.57108 6.45781 4.55247 6.61124C4.58304 6.38429 4.63537 6.16841 4.74319 5.99977ZM5.20321 10.4356C5.03697 10.3732 4.89537 10.2684 4.7762 10.1458C4.92141 10.3379 5.1179 10.4487 5.32028 10.4857C5.4151 10.5031 5.51567 10.505 5.61773 10.4889C5.4797 10.5044 5.33906 10.4866 5.20321 10.4356ZM6.30477 10.0498L6.5 9.81538V7.97766C6.49414 7.00538 6.4878 6.53262 6.45705 6.26208C6.44259 6.13489 6.4259 6.08786 6.41808 6.06986C6.41211 6.05612 6.40364 6.03948 6.3547 5.98093C6.07678 5.66343 5.85763 5.54273 5.69045 5.51034C5.60314 5.49342 5.50238 5.49529 5.38091 5.53309C5.38218 5.53284 5.38346 5.5326 5.38474 5.53236C5.69537 5.47409 5.9763 5.59823 6.17671 5.79874C6.26429 5.88636 6.30562 5.98588 6.32454 6.0371C6.34713 6.09823 6.36263 6.16156 6.37411 6.21948C6.39719 6.3359 6.41343 6.47956 6.42556 6.64343C6.45003 6.97397 6.46154 7.44188 6.46154 8.05696C6.46154 8.86925 6.45976 9.35288 6.42289 9.64128C6.40628 9.77115 6.37723 9.91606 6.30477 10.0498Z" fill="#A6A6A6" stroke="#EFBA1A"/>
</svg>
