<svg width="22" height="34" viewBox="0 0 22 34" fill="none" xmlns="http://www.w3.org/2000/svg">
<path d="M0.5 16.1362C0.5 11.6496 0.5 7.16428 0.5 2.67761C0.501367 1.59627 1.04545 0.803379 1.97915 0.506728C2.23069 0.427439 2.48906 0.402832 2.7529 0.402832C8.25119 0.402832 13.7508 0.402832 19.2491 0.404199C20.6052 0.404199 21.4938 1.28458 21.4966 2.64753C21.5034 5.15197 21.4979 7.65778 21.4979 10.1622C21.4979 16.6407 21.4979 23.1191 21.4979 29.599C21.4979 30.6844 20.988 31.4609 20.0762 31.7753C20.001 31.8013 19.9231 31.8396 19.8479 31.8355C19.4077 31.8177 19.3544 32.0761 19.3954 32.4288C19.4159 32.6079 19.4063 32.7938 19.3954 32.9742C19.3626 33.5443 18.9101 33.9886 18.3578 33.9968C17.7987 34.0064 17.323 33.5484 17.2956 32.9647C17.2833 32.7036 17.2737 32.4397 17.2983 32.18C17.3216 31.9271 17.2218 31.882 16.9935 31.8888C16.4822 31.9066 15.9696 31.8943 15.4569 31.8943C11.9846 31.8943 8.5123 31.897 5.03998 31.8888C4.78161 31.8888 4.67225 31.9394 4.70369 32.2169C4.72966 32.4534 4.71599 32.6954 4.70779 32.9332C4.68592 33.5416 4.21428 34.0077 3.64012 33.9968C3.07416 33.9859 2.62303 33.5279 2.60526 32.9373C2.59569 32.653 2.59569 32.3673 2.60526 32.0829C2.61073 31.9394 2.56698 31.9025 2.42071 31.8806C1.1972 31.7029 0.502734 30.884 0.501367 29.6291C0.498633 25.1314 0.501367 20.6338 0.501367 16.1362H0.5Z" fill="#A6A6A6"/>
<path d="M11.0062 14.0555C13.6938 14.0555 16.3801 14.0596 19.0677 14.0501C19.3261 14.0501 19.4068 14.102 19.4054 14.3782C19.3958 19.4117 19.3958 24.4451 19.4054 29.4786C19.4054 29.7315 19.348 29.7985 19.0896 29.7972C13.7034 29.7889 8.31859 29.7889 2.93241 29.7972C2.6713 29.7972 2.59338 29.7411 2.59474 29.4663C2.60431 24.4328 2.60295 19.3993 2.59474 14.3659C2.59474 14.1102 2.65489 14.0487 2.91053 14.0501C5.6091 14.0596 8.30766 14.0569 11.0062 14.0569V14.0555Z" fill="white"/>
<path d="M10.9652 11.9475C8.28987 11.9475 5.61455 11.942 2.94059 11.9557C2.64667 11.957 2.59473 11.8723 2.59473 11.5975C2.60566 8.68294 2.60566 5.76838 2.59473 2.85382C2.59473 2.57494 2.65351 2.49976 2.94333 2.49976C8.31584 2.50933 13.6884 2.50933 19.0622 2.49976C19.3548 2.49976 19.4081 2.58178 19.4081 2.85656C19.3972 5.77111 19.3972 8.68567 19.4081 11.6002C19.4081 11.8791 19.3493 11.957 19.0595 11.9557C16.3623 11.9434 13.6638 11.9488 10.9666 11.9488L10.9652 11.9475Z" fill="white"/>
<path d="M5.7453 18.2689C5.7453 18.6216 5.7535 18.9743 5.74393 19.327C5.72753 19.8875 5.29691 20.3236 4.75282 20.3454C4.18823 20.3687 3.69472 19.9668 3.67011 19.3926C3.63731 18.6325 3.63731 17.8683 3.67011 17.1083C3.69472 16.5314 4.18413 16.1376 4.75555 16.1609C5.30511 16.1841 5.7289 16.6134 5.74393 17.178C5.7535 17.5416 5.7453 17.9066 5.7453 18.2703V18.2689Z" fill="#A6A6A6"/>
<path d="M5.74556 7.76165C5.74556 8.11435 5.75376 8.46704 5.74419 8.81974C5.72915 9.39801 5.29443 9.8341 4.72984 9.84913C4.18028 9.86281 3.69498 9.46636 3.67174 8.90587C3.63893 8.13348 3.63893 7.35837 3.67447 6.58598C3.70044 6.03096 4.20215 5.63178 4.74487 5.65502C5.29033 5.67826 5.72642 6.11435 5.74419 6.668C5.75512 7.03164 5.74692 7.39664 5.74692 7.76028L5.74556 7.76165Z" fill="#A6A6A6"/>
</svg>
