<svg width="65" height="66" viewBox="0 0 65 66" fill="none" xmlns="http://www.w3.org/2000/svg">
<path d="M23.209 30.4313L23.209 30.4313L23.2034 30.4345C22.8459 30.632 22.6025 30.8018 22.423 30.9898C22.2506 31.1706 22.1197 31.3868 22.0199 31.7018C21.8074 32.3726 21.75 33.426 21.75 35.3729C21.75 37.2297 21.795 38.3042 21.9418 39.022C22.0787 39.6912 22.299 40.0288 22.6944 40.4126L23.3867 41.0846L23.553 41.246L23.5373 41.4772L23.4221 43.1776C23.3727 44.0058 23.36 44.3844 23.3957 44.6189C23.4107 44.717 23.4324 44.772 23.4587 44.8186C23.4901 44.8743 23.5394 44.9386 23.641 45.0515L23.6478 45.0591L23.6544 45.067C23.8427 45.2945 23.9811 45.2999 24.018 45.2945C24.0466 45.2902 24.1524 45.2587 24.2348 45.0326C24.2373 45.0201 24.2476 44.9625 24.2563 44.8385C24.2652 44.7114 24.2705 44.5478 24.2716 44.358C24.274 43.981 24.2601 43.5194 24.2322 43.0723L24.079 41.3994L24.0577 41.1669L24.2223 41.0013L25.0642 40.1544L25.75 39.4299V35.7089C25.75 33.4598 25.7217 32.3377 25.539 31.6617C25.455 31.3511 25.3438 31.1617 25.1966 31.0055C25.037 30.8363 24.8143 30.6829 24.4574 30.4722L24.4559 30.4714L24.4436 30.464C24.2161 30.3287 24.0726 30.2433 23.9588 30.1877C23.8484 30.1337 23.8141 30.1328 23.8092 30.1326H23.8092L23.809 30.1326C23.806 30.1325 23.7773 30.1312 23.6798 30.1755C23.5725 30.2243 23.4367 30.3016 23.2134 30.4288L23.209 30.4313ZM24.3886 39.8329L24.3886 39.833L24.3826 39.8372C24.2862 39.9046 24.1715 39.9813 24.0519 40.0321C23.9195 40.0884 23.7426 40.1296 23.5437 40.0742C23.3623 40.0237 23.233 39.911 23.1471 39.8221C23.0595 39.7315 22.9725 39.6175 22.8863 39.5004C22.7797 39.3567 22.6808 39.2023 22.6041 39.0006C22.529 38.803 22.4839 38.5831 22.4548 38.3134C22.3981 37.7883 22.3943 36.9823 22.4039 35.6158L22.4039 35.6148C22.4135 34.5376 22.4376 33.7331 22.4848 33.1486C22.5084 32.8563 22.5385 32.6094 22.5779 32.4057C22.6162 32.2081 22.6687 32.0208 22.7517 31.8661C22.9371 31.5206 23.2277 31.2265 23.6201 31.1475C24.0358 31.0638 24.4091 31.2514 24.6678 31.5528C24.7549 31.6541 24.7973 31.7714 24.8197 31.8429C24.846 31.9268 24.8661 32.0211 24.8826 32.1193C24.9156 32.3164 24.9409 32.5742 24.9606 32.8889C25 33.5208 25.0192 34.4294 25.0192 35.6417C25.0192 37.2938 25.0153 38.2045 24.956 38.7327C24.926 39 24.8769 39.228 24.7719 39.4211C24.6582 39.6303 24.5058 39.7484 24.3886 39.8329Z" fill="#A6A6A6" stroke="#A6A6A6"/>
<mask id="path-2-inside-1_1594_4504" fill="white">
<path d="M17.0996 4.33021C17.0996 4.48466 16.8659 4.65842 16.5896 4.73564C16.3134 4.79356 15.8459 5.06384 15.5696 5.33413L15.0809 5.81678L15.0171 32.6716C14.9746 47.4601 15.0171 59.8932 15.0809 60.318C15.2721 61.4956 16.1859 61.959 18.3321 61.959C21.0309 61.959 21.2009 61.8238 22.7309 58.4646C23.1984 57.422 23.2622 57.0938 23.0709 56.7656C22.8372 56.3988 22.6247 56.3602 19.8621 56.3216L16.8659 56.2637V41.6103C16.8659 33.5597 16.9084 26.9184 16.9721 26.8798C17.0359 26.8218 35.311 26.7639 36.2885 26.8218C36.3947 26.8218 36.2885 27.0728 36.0972 27.3817C35.6297 28.1154 35.821 28.5594 36.6285 28.5594C37.1172 28.5594 37.521 28.3277 38.286 27.6134L39.3273 26.6674L41.0698 26.6481C42.026 26.6481 43.046 26.5902 43.3435 26.5129C43.726 26.4357 43.9173 26.4743 44.0023 26.706C44.1085 26.9377 43.8748 27.2466 43.2373 27.7485C42.7273 28.1347 42.0048 28.7331 41.6435 29.0807C40.9848 29.6985 40.8998 29.7178 39.2423 29.7178C37.7122 29.7178 37.521 29.7564 37.3935 30.1039C37.181 30.741 37.4572 31.2236 38.0947 31.3009C38.881 31.3781 38.9023 31.88 38.1372 32.2662C37.3935 32.6523 37.266 33.4438 37.9035 33.772C38.5197 34.0616 38.6898 34.023 39.4123 33.3859C40.1985 32.6909 40.4748 32.6523 40.4748 33.2508C40.4748 33.5018 40.6023 33.8686 40.7723 34.0616C41.0485 34.4091 41.0698 34.4091 41.6435 34.0809C42.2173 33.7527 42.2173 33.6755 42.1323 32.4206L42.026 31.0885L43.0035 30.1425C43.5348 29.6212 44.2573 28.9069 44.576 28.5787C45.6598 27.5169 45.7873 27.7099 45.6598 30.1425L45.5323 32.3241L44.3635 33.3473C43.1523 34.4285 42.9823 34.969 43.726 35.3938C44.0023 35.5482 44.236 35.5289 44.746 35.2586C45.1073 35.0849 45.4685 34.9304 45.5323 34.9304C45.6173 34.9304 45.6598 39.6411 45.6173 45.3943C45.596 51.1669 45.5748 55.9934 45.5748 56.1092C45.5748 56.3023 43.471 56.3602 35.821 56.3602C26.3859 56.3602 26.0459 56.3795 25.9184 56.727C25.8547 56.9394 25.8547 57.3255 25.9397 57.5958L26.0672 58.0978L32.7822 58.1364L39.4973 58.1943L39.7523 58.6769C39.901 58.9472 40.1985 59.5843 40.4323 60.1249C41.0485 61.5536 41.8135 61.959 43.8748 61.959C45.8298 61.959 46.7648 61.6115 47.1686 60.7234C47.5298 59.9318 47.6361 38.3862 47.2748 36.3977C47.1473 35.664 47.1048 35.0269 47.1686 34.969C47.2111 34.9111 47.6148 35.0269 48.0186 35.2393C48.8898 35.664 49.4636 35.471 49.5698 34.7567C49.6336 34.4285 49.3361 34.0616 48.4861 33.328L47.3173 32.3241L47.1898 30.1425C47.0411 27.3238 47.0198 27.3238 49.5911 29.8722L50.7598 31.0306V32.4206C50.7811 33.5404 50.8661 33.8686 51.1636 34.0423C51.6736 34.3319 52.2473 33.9844 52.3323 33.3087C52.4173 32.6137 52.6723 32.6716 53.6286 33.5983C54.2661 34.2354 54.5211 34.3705 54.8823 34.274C55.3711 34.1196 55.6899 33.3859 55.4774 32.9033C55.4136 32.7295 55.0736 32.4592 54.7123 32.2662C53.9898 31.8994 53.9473 31.3974 54.6486 31.3009C55.3074 31.2236 55.6261 30.7796 55.4774 30.2004C55.3499 29.7371 55.2861 29.7178 53.6286 29.7178C51.9498 29.7178 51.9286 29.7178 51.1423 28.9841C50.7173 28.598 49.9948 27.9802 49.5698 27.6327C48.5498 26.8411 48.4861 26.3392 49.4211 26.5129C49.7823 26.5709 50.7386 26.6288 51.5461 26.6288H52.9911L54.0536 27.6134C54.9673 28.4436 55.2011 28.5787 55.8174 28.5208C56.3486 28.4822 56.5399 28.3663 56.5824 28.0574C56.6249 27.8451 56.4974 27.5362 56.3061 27.401C55.6261 26.8798 55.9236 26.6288 57.1986 26.6674C58.3461 26.7253 58.4311 26.706 58.6224 26.1847C58.9836 25.2774 58.6011 24.9685 57.1774 25.0457C56.2424 25.1036 55.9874 25.065 55.9874 24.8333C55.9874 24.6789 56.1361 24.5051 56.3061 24.4279C56.9861 24.1962 56.4336 22.9799 55.6474 22.9606C55.4986 22.9606 54.8823 23.424 54.2448 24.0031L53.0973 25.0457L51.1848 25.0843C50.1436 25.1036 49.1661 25.1229 49.0386 25.1036C48.7411 25.0843 48.6561 24.5051 48.9323 24.5051C49.0173 24.5051 49.7611 23.9259 50.5686 23.2309L52.0561 21.9567L53.3736 22.0725C54.9886 22.1884 55.7111 21.8216 55.4774 20.9721C55.3711 20.5474 55.2224 20.4508 54.7123 20.4508C53.8623 20.4508 53.9048 20.0647 54.8186 19.4083C55.6899 18.7712 55.8386 17.9024 55.1586 17.5549C54.5636 17.2846 54.5636 17.2846 53.6286 18.1341C52.6936 18.9836 52.3748 19.0994 52.3748 18.5395C52.3748 17.8445 52.1198 17.5549 51.5248 17.5549C50.7811 17.5549 50.6748 17.8059 50.6748 19.4855C50.6748 20.779 50.6536 20.8176 49.7186 21.725C46.9561 24.4086 46.9348 24.4279 47.1473 22.7483C47.2111 22.0918 47.2748 21.1651 47.2748 20.7018C47.2748 19.9103 47.3598 19.7751 48.4436 18.8484C49.6973 17.7866 49.8886 17.2267 49.1661 16.8213C48.8048 16.6089 48.6136 16.6282 48.0186 16.9564C47.1473 17.4198 46.9561 17.246 47.2961 16.2421C47.6148 15.2382 47.2961 14.659 46.4035 14.659C45.596 14.659 45.256 15.3154 45.6173 16.2035C45.936 17.0529 45.5748 17.3425 44.8098 16.8792C44.3423 16.6089 44.1723 16.5896 43.7473 16.802C42.961 17.1688 43.131 17.7094 44.406 18.8291C45.426 19.7365 45.5748 19.9489 45.5748 20.6053C45.5748 21.03 45.6385 21.8988 45.7023 22.5552C45.8723 23.9259 45.5748 24.119 44.6398 23.1923C41.7923 20.3929 41.9623 20.6439 42.111 19.5434C42.281 18.0569 42.0898 17.5549 41.3248 17.5549C40.7723 17.5549 40.666 17.6514 40.5598 18.1341C40.3898 18.8677 39.986 18.8677 39.1785 18.1341C38.5623 17.5935 38.5197 17.5742 38.0097 17.8638C37.3297 18.2885 37.3722 18.9256 38.1372 19.4855C38.9448 20.1033 38.9448 20.4508 38.1372 20.4508C37.6272 20.4508 37.4785 20.5474 37.3722 20.9528C37.1385 21.7829 37.6697 22.0725 39.3698 22.0339L40.836 21.976L41.8773 22.9027C42.451 23.4047 43.1948 24.0225 43.5348 24.2541C44.576 25.0071 44.1935 25.1808 41.6223 25.1229L39.306 25.065L38.201 24.0031C37.5847 23.4433 36.9047 22.9606 36.6922 22.9606C35.8847 22.9606 35.5022 23.8487 36.1185 24.312C36.2885 24.4472 36.4372 24.6789 36.4372 24.814C36.4372 25.0457 34.886 25.0843 26.6409 25.0457L16.8446 24.9878L16.8871 15.8367C16.8871 10.2186 16.9934 6.55042 17.1209 6.33805C17.3121 5.99054 17.9284 5.97123 31.2097 5.97123H45.1073L45.3623 6.53111C45.5323 6.93654 45.5748 7.72809 45.4685 9.25327C45.2773 11.6858 45.4898 12.3423 46.3823 12.3423C47.3173 12.3423 47.4661 11.8789 47.4873 9.23397C47.4873 6.08707 47.2111 5.33413 45.851 4.81287C45.5748 4.71633 45.3623 4.50397 45.3623 4.33021C45.3623 4.07923 43.7473 4.04062 31.231 4.04062C18.8846 4.04062 17.0996 4.07923 17.0996 4.33021ZM20.9246 58.368C20.9246 58.5032 20.7759 58.7349 20.6059 58.87C20.4359 59.0051 20.2871 59.2561 20.2871 59.4299C20.2871 60.1056 19.4796 60.6076 18.4171 60.6076C17.1209 60.6076 16.8871 60.4338 16.7384 59.4878C16.5471 58.1557 16.6109 58.0978 18.9059 58.0978C20.4784 58.0978 20.9246 58.1557 20.9246 58.368ZM45.6173 59.1596C45.5323 60.3373 45.1923 60.6076 43.8535 60.6076C43.3223 60.6076 42.7698 60.4917 42.6423 60.3566C42.2173 59.8739 41.3673 58.3101 41.4948 58.1943C41.5585 58.1364 42.536 58.1171 43.6623 58.1364L45.681 58.1943L45.6173 59.1596Z"/>
</mask>
<path d="M17.0996 4.33021C17.0996 4.48466 16.8659 4.65842 16.5896 4.73564C16.3134 4.79356 15.8459 5.06384 15.5696 5.33413L15.0809 5.81678L15.0171 32.6716C14.9746 47.4601 15.0171 59.8932 15.0809 60.318C15.2721 61.4956 16.1859 61.959 18.3321 61.959C21.0309 61.959 21.2009 61.8238 22.7309 58.4646C23.1984 57.422 23.2622 57.0938 23.0709 56.7656C22.8372 56.3988 22.6247 56.3602 19.8621 56.3216L16.8659 56.2637V41.6103C16.8659 33.5597 16.9084 26.9184 16.9721 26.8798C17.0359 26.8218 35.311 26.7639 36.2885 26.8218C36.3947 26.8218 36.2885 27.0728 36.0972 27.3817C35.6297 28.1154 35.821 28.5594 36.6285 28.5594C37.1172 28.5594 37.521 28.3277 38.286 27.6134L39.3273 26.6674L41.0698 26.6481C42.026 26.6481 43.046 26.5902 43.3435 26.5129C43.726 26.4357 43.9173 26.4743 44.0023 26.706C44.1085 26.9377 43.8748 27.2466 43.2373 27.7485C42.7273 28.1347 42.0048 28.7331 41.6435 29.0807C40.9848 29.6985 40.8998 29.7178 39.2423 29.7178C37.7122 29.7178 37.521 29.7564 37.3935 30.1039C37.181 30.741 37.4572 31.2236 38.0947 31.3009C38.881 31.3781 38.9023 31.88 38.1372 32.2662C37.3935 32.6523 37.266 33.4438 37.9035 33.772C38.5197 34.0616 38.6898 34.023 39.4123 33.3859C40.1985 32.6909 40.4748 32.6523 40.4748 33.2508C40.4748 33.5018 40.6023 33.8686 40.7723 34.0616C41.0485 34.4091 41.0698 34.4091 41.6435 34.0809C42.2173 33.7527 42.2173 33.6755 42.1323 32.4206L42.026 31.0885L43.0035 30.1425C43.5348 29.6212 44.2573 28.9069 44.576 28.5787C45.6598 27.5169 45.7873 27.7099 45.6598 30.1425L45.5323 32.3241L44.3635 33.3473C43.1523 34.4285 42.9823 34.969 43.726 35.3938C44.0023 35.5482 44.236 35.5289 44.746 35.2586C45.1073 35.0849 45.4685 34.9304 45.5323 34.9304C45.6173 34.9304 45.6598 39.6411 45.6173 45.3943C45.596 51.1669 45.5748 55.9934 45.5748 56.1092C45.5748 56.3023 43.471 56.3602 35.821 56.3602C26.3859 56.3602 26.0459 56.3795 25.9184 56.727C25.8547 56.9394 25.8547 57.3255 25.9397 57.5958L26.0672 58.0978L32.7822 58.1364L39.4973 58.1943L39.7523 58.6769C39.901 58.9472 40.1985 59.5843 40.4323 60.1249C41.0485 61.5536 41.8135 61.959 43.8748 61.959C45.8298 61.959 46.7648 61.6115 47.1686 60.7234C47.5298 59.9318 47.6361 38.3862 47.2748 36.3977C47.1473 35.664 47.1048 35.0269 47.1686 34.969C47.2111 34.9111 47.6148 35.0269 48.0186 35.2393C48.8898 35.664 49.4636 35.471 49.5698 34.7567C49.6336 34.4285 49.3361 34.0616 48.4861 33.328L47.3173 32.3241L47.1898 30.1425C47.0411 27.3238 47.0198 27.3238 49.5911 29.8722L50.7598 31.0306V32.4206C50.7811 33.5404 50.8661 33.8686 51.1636 34.0423C51.6736 34.3319 52.2473 33.9844 52.3323 33.3087C52.4173 32.6137 52.6723 32.6716 53.6286 33.5983C54.2661 34.2354 54.5211 34.3705 54.8823 34.274C55.3711 34.1196 55.6899 33.3859 55.4774 32.9033C55.4136 32.7295 55.0736 32.4592 54.7123 32.2662C53.9898 31.8994 53.9473 31.3974 54.6486 31.3009C55.3074 31.2236 55.6261 30.7796 55.4774 30.2004C55.3499 29.7371 55.2861 29.7178 53.6286 29.7178C51.9498 29.7178 51.9286 29.7178 51.1423 28.9841C50.7173 28.598 49.9948 27.9802 49.5698 27.6327C48.5498 26.8411 48.4861 26.3392 49.4211 26.5129C49.7823 26.5709 50.7386 26.6288 51.5461 26.6288H52.9911L54.0536 27.6134C54.9673 28.4436 55.2011 28.5787 55.8174 28.5208C56.3486 28.4822 56.5399 28.3663 56.5824 28.0574C56.6249 27.8451 56.4974 27.5362 56.3061 27.401C55.6261 26.8798 55.9236 26.6288 57.1986 26.6674C58.3461 26.7253 58.4311 26.706 58.6224 26.1847C58.9836 25.2774 58.6011 24.9685 57.1774 25.0457C56.2424 25.1036 55.9874 25.065 55.9874 24.8333C55.9874 24.6789 56.1361 24.5051 56.3061 24.4279C56.9861 24.1962 56.4336 22.9799 55.6474 22.9606C55.4986 22.9606 54.8823 23.424 54.2448 24.0031L53.0973 25.0457L51.1848 25.0843C50.1436 25.1036 49.1661 25.1229 49.0386 25.1036C48.7411 25.0843 48.6561 24.5051 48.9323 24.5051C49.0173 24.5051 49.7611 23.9259 50.5686 23.2309L52.0561 21.9567L53.3736 22.0725C54.9886 22.1884 55.7111 21.8216 55.4774 20.9721C55.3711 20.5474 55.2224 20.4508 54.7123 20.4508C53.8623 20.4508 53.9048 20.0647 54.8186 19.4083C55.6899 18.7712 55.8386 17.9024 55.1586 17.5549C54.5636 17.2846 54.5636 17.2846 53.6286 18.1341C52.6936 18.9836 52.3748 19.0994 52.3748 18.5395C52.3748 17.8445 52.1198 17.5549 51.5248 17.5549C50.7811 17.5549 50.6748 17.8059 50.6748 19.4855C50.6748 20.779 50.6536 20.8176 49.7186 21.725C46.9561 24.4086 46.9348 24.4279 47.1473 22.7483C47.2111 22.0918 47.2748 21.1651 47.2748 20.7018C47.2748 19.9103 47.3598 19.7751 48.4436 18.8484C49.6973 17.7866 49.8886 17.2267 49.1661 16.8213C48.8048 16.6089 48.6136 16.6282 48.0186 16.9564C47.1473 17.4198 46.9561 17.246 47.2961 16.2421C47.6148 15.2382 47.2961 14.659 46.4035 14.659C45.596 14.659 45.256 15.3154 45.6173 16.2035C45.936 17.0529 45.5748 17.3425 44.8098 16.8792C44.3423 16.6089 44.1723 16.5896 43.7473 16.802C42.961 17.1688 43.131 17.7094 44.406 18.8291C45.426 19.7365 45.5748 19.9489 45.5748 20.6053C45.5748 21.03 45.6385 21.8988 45.7023 22.5552C45.8723 23.9259 45.5748 24.119 44.6398 23.1923C41.7923 20.3929 41.9623 20.6439 42.111 19.5434C42.281 18.0569 42.0898 17.5549 41.3248 17.5549C40.7723 17.5549 40.666 17.6514 40.5598 18.1341C40.3898 18.8677 39.986 18.8677 39.1785 18.1341C38.5623 17.5935 38.5197 17.5742 38.0097 17.8638C37.3297 18.2885 37.3722 18.9256 38.1372 19.4855C38.9448 20.1033 38.9448 20.4508 38.1372 20.4508C37.6272 20.4508 37.4785 20.5474 37.3722 20.9528C37.1385 21.7829 37.6697 22.0725 39.3698 22.0339L40.836 21.976L41.8773 22.9027C42.451 23.4047 43.1948 24.0225 43.5348 24.2541C44.576 25.0071 44.1935 25.1808 41.6223 25.1229L39.306 25.065L38.201 24.0031C37.5847 23.4433 36.9047 22.9606 36.6922 22.9606C35.8847 22.9606 35.5022 23.8487 36.1185 24.312C36.2885 24.4472 36.4372 24.6789 36.4372 24.814C36.4372 25.0457 34.886 25.0843 26.6409 25.0457L16.8446 24.9878L16.8871 15.8367C16.8871 10.2186 16.9934 6.55042 17.1209 6.33805C17.3121 5.99054 17.9284 5.97123 31.2097 5.97123H45.1073L45.3623 6.53111C45.5323 6.93654 45.5748 7.72809 45.4685 9.25327C45.2773 11.6858 45.4898 12.3423 46.3823 12.3423C47.3173 12.3423 47.4661 11.8789 47.4873 9.23397C47.4873 6.08707 47.2111 5.33413 45.851 4.81287C45.5748 4.71633 45.3623 4.50397 45.3623 4.33021C45.3623 4.07923 43.7473 4.04062 31.231 4.04062C18.8846 4.04062 17.0996 4.07923 17.0996 4.33021ZM20.9246 58.368C20.9246 58.5032 20.7759 58.7349 20.6059 58.87C20.4359 59.0051 20.2871 59.2561 20.2871 59.4299C20.2871 60.1056 19.4796 60.6076 18.4171 60.6076C17.1209 60.6076 16.8871 60.4338 16.7384 59.4878C16.5471 58.1557 16.6109 58.0978 18.9059 58.0978C20.4784 58.0978 20.9246 58.1557 20.9246 58.368ZM45.6173 59.1596C45.5323 60.3373 45.1923 60.6076 43.8535 60.6076C43.3223 60.6076 42.7698 60.4917 42.6423 60.3566C42.2173 59.8739 41.3673 58.3101 41.4948 58.1943C41.5585 58.1364 42.536 58.1171 43.6623 58.1364L45.681 58.1943L45.6173 59.1596Z" fill="#A6A6A6" stroke="#A6A6A6" stroke-width="2" mask="url(#path-2-inside-1_1594_4504)"/>
<path d="M22.8463 13.0244L22.8444 13.0258C22.5957 13.1998 22.4219 13.3568 22.2903 13.5314C22.1606 13.7036 22.0564 13.9137 21.9752 14.2117C21.8057 14.834 21.75 15.778 21.75 17.4259C21.75 18.1836 21.7738 18.9615 21.8116 19.6017C21.8504 20.2582 21.9016 20.7167 21.9438 20.8805C22.1967 21.7629 22.7866 22.2467 23.3972 22.3671C24.0074 22.4874 24.7255 22.2623 25.275 21.5393L25.275 21.5393L25.2775 21.536L25.75 20.9247V17.4687C25.7403 15.7348 25.7302 14.8553 25.6758 14.3401C25.6494 14.0896 25.6153 13.9588 25.5807 13.873C25.5485 13.793 25.5062 13.7271 25.4162 13.6113C24.9222 13.0022 24.4955 12.7245 24.1238 12.6468C23.7691 12.5728 23.3613 12.6603 22.8463 13.0244ZM24.655 13.8517C24.7459 13.9497 24.7914 14.0637 24.8155 14.134C24.8433 14.2152 24.8643 14.305 24.8812 14.3967C24.915 14.5807 24.9406 14.8186 24.9604 15.1059C25 15.6832 25.0192 16.5107 25.0192 17.6125C25.0192 19.0876 25.0154 19.9197 24.9581 20.4028C24.9293 20.6455 24.881 20.8673 24.7697 21.0531C24.6493 21.2541 24.4889 21.3574 24.3657 21.4248C24.0518 21.615 23.6972 21.6432 23.3607 21.5072C23.0476 21.3806 22.7884 21.1287 22.5772 20.8309C22.5389 20.779 22.5196 20.7327 22.5122 20.7144C22.4991 20.6822 22.4909 20.6535 22.486 20.6346C22.4762 20.5963 22.4698 20.5584 22.4654 20.5284C22.4563 20.4662 22.4491 20.3903 22.4431 20.3084C22.4308 20.1421 22.4209 19.9163 22.4136 19.6501C22.399 19.1168 22.3942 18.4011 22.4038 17.6301C22.4039 16.6341 22.423 15.8962 22.4707 15.3578C22.5161 14.845 22.5921 14.4297 22.7615 14.1452C22.9477 13.8253 23.2318 13.5479 23.6125 13.471C24.0177 13.3891 24.3864 13.5621 24.655 13.8517Z" fill="#A6A6A6" stroke="#A6A6A6"/>
</svg>
