<svg width="36" height="36" viewBox="0 0 36 36" fill="none" xmlns="http://www.w3.org/2000/svg">
<path d="M2.84155 0.663334C2.84155 0.838333 2.58275 0.966667 2.21303 0.966667C1.86796 0.966667 1.19014 1.48 0.84507 1.99333L0.56162 2.425L0.524648 18.6767L0.5 34.9283L0.820423 35.2083C1.12852 35.4767 1.25176 35.5 2.32394 35.5C3.39613 35.5 3.53169 35.4767 3.91373 35.1967L4.33275 34.8933L4.32042 32.6067C4.3081 31.335 4.3081 30.2383 4.3081 30.1567C4.32042 30.0517 7.14261 30.0167 17.9877 30.0167C30.9155 30.0167 31.6673 30.0283 31.7166 30.215C31.7412 30.3317 31.7658 30.7167 31.7535 31.0667L31.7412 31.7083L18.9243 31.7317C11.875 31.7433 6.0088 31.7783 5.89789 31.8133C5.63908 31.8717 5.60211 32.3267 5.83627 32.6183C5.97183 32.805 6.80986 32.8167 18.838 32.7933C27.3292 32.77 31.6796 32.7933 31.6919 32.875C31.7042 32.9333 31.6919 33.4233 31.6796 33.9367L31.6549 34.8933L32.0863 35.1967C32.4683 35.4767 32.6039 35.5 33.6761 35.5C34.7482 35.5 34.8715 35.4767 35.1796 35.2083L35.5 34.9283L35.4754 18.6767C35.4384 2.64667 35.4384 2.425 35.1919 2.075C34.8345 1.57333 34.1197 0.966667 33.8732 0.966667C33.5405 0.966667 33.2817 0.838333 33.2817 0.663334C33.2817 0.546665 33.1092 0.5 32.6655 0.5C32.2218 0.5 32.0493 0.546665 32.0493 0.663334C32.0493 0.744999 31.963 0.884998 31.8521 0.978333C31.6919 1.095 31.6673 1.36333 31.6919 2.39C31.7042 3.07833 31.6919 3.685 31.6426 3.73167C31.5933 3.76667 30.5335 3.79 29.2887 3.77833C27.0704 3.755 27.0088 3.755 26.8732 4C26.713 4.29167 26.8116 4.81667 27.0335 4.82833C27.1074 4.84 28.1919 4.85167 29.4366 4.86333L31.6919 4.875V7.96667V11.0583H18H4.3081V7.96667V4.875L8.65845 4.84L13.0088 4.81667L13.2306 5.07333C13.3415 5.225 13.588 5.63333 13.7729 5.97167C14.2042 6.835 15.0669 7.61667 15.5722 7.62833C15.794 7.62833 16.8415 7.64 17.9014 7.64H19.8486L20.3415 7.26667C20.8345 6.905 20.9085 6.78833 21.5123 5.68C21.9806 4.78167 21.993 4.78167 23.5951 4.84C24.3592 4.875 25.0863 4.85167 25.1972 4.79333C25.4437 4.665 25.456 4.08167 25.2218 3.895C25.0986 3.80167 22.3134 3.76667 14.7342 3.76667C9.05282 3.77833 4.38204 3.74333 4.34507 3.70833C4.29577 3.67333 4.28345 3.03167 4.3081 2.29667C4.33275 1.165 4.3081 0.954998 4.14789 0.896667C4.03697 0.861668 3.9507 0.756668 3.9507 0.663334C3.9507 0.546665 3.79049 0.5 3.39613 0.5C3.00176 0.5 2.84155 0.546665 2.84155 0.663334ZM3.18662 18.1867L3.14965 34.625L2.60739 34.66C2.2993 34.6833 1.9419 34.6717 1.80634 34.6367L1.54754 34.5783L1.57218 18.91C1.59683 10.2883 1.6338 3.07833 1.67077 2.88C1.76937 2.30833 2.84155 1.41 3.125 1.655C3.1743 1.70167 3.19894 9.13333 3.18662 18.1867ZM33.8239 2.09833C34.132 2.39 34.2799 2.64667 34.3292 2.99667C34.3662 3.25333 34.4155 10.475 34.4278 19.0267L34.4525 34.5783L34.1937 34.6367C34.0581 34.6717 33.7007 34.6833 33.3926 34.66L32.8504 34.625L32.8134 18.2333C32.8011 9.215 32.8134 1.78333 32.838 1.70167C32.9243 1.48 33.3556 1.655 33.8239 2.09833ZM20.7113 4.98C20.7113 5.06167 20.6004 5.27167 20.4648 5.435C20.3292 5.59833 20.2183 5.77333 20.2183 5.82C20.2183 5.86667 20.0704 6.065 19.8856 6.24L19.5528 6.56667H17.5563H15.5475L15.1408 6.065C14.6972 5.55167 14.3028 4.98 14.3028 4.875C14.3028 4.84 15.7447 4.81667 17.507 4.81667C20.132 4.81667 20.7113 4.84 20.7113 4.98ZM31.6919 15.6667C31.6919 17.5567 31.6796 19.1317 31.6796 19.1667C31.6796 19.2017 29.4366 19.225 26.6884 19.225H21.6972V16.7167C21.6849 14.2317 21.6849 14.2083 21.3891 13.8583C21.118 13.5433 21.007 13.5083 20.4155 13.5083C19.7746 13.5083 19.7007 13.5317 19.1461 14.0567C18.8134 14.3717 18.4806 14.6167 18.4067 14.6167C18.3327 14.6167 18.2095 14.6983 18.1232 14.7917C18.0123 14.92 17.7289 14.9667 17.1496 14.9667C16.3363 14.9667 16.3239 14.955 15.794 14.4417C15.4982 14.15 15.1285 13.8817 14.9683 13.8467C14.6109 13.765 13.8099 13.8933 13.5757 14.0683C12.9595 14.5467 11.3204 15.235 10.544 15.3167C9.34859 15.4567 8.33803 15.8533 7.58627 16.4717C6.78521 17.125 6.16901 18.1633 6.16901 18.84V19.2833H5.24472C4.71479 19.2833 4.32042 19.2367 4.32042 19.1667C4.32042 19.0967 4.3081 17.5217 4.3081 15.6667C4.3081 13.8 4.32042 12.26 4.32042 12.225C4.32042 12.19 10.4824 12.1783 18.0123 12.19L31.6919 12.225V15.6667ZM20.6004 14.64C20.6373 15.1417 20.5757 19.0967 20.5387 19.1317C20.4525 19.2133 7.42606 19.2017 7.29049 19.1083C6.90845 18.8983 7.84507 17.4867 8.70775 16.985C9.15141 16.7167 10.0141 16.3667 10.1004 16.425C10.1496 16.4483 10.2975 16.7633 10.4208 17.1133C10.6673 17.8017 10.8891 17.9533 11.419 17.8367C11.6408 17.7783 11.7148 17.685 11.7148 17.4283C11.7148 17.2417 11.6285 17.0317 11.5176 16.95C11.4067 16.8567 11.3451 16.6583 11.3697 16.4367C11.4067 16.1217 11.456 16.075 11.7764 16.075C12.0599 16.075 12.1708 16.1567 12.3187 16.425C12.75 17.2767 12.8239 17.3583 13.1197 17.3933C13.6743 17.4633 13.8592 16.5183 13.3662 16.1217C13.1197 15.9233 13.132 15.3167 13.4032 15.3167C13.5141 15.3167 13.6989 15.2467 13.7975 15.1533C14.2782 14.745 14.5863 14.8033 15.2764 15.4217L15.9296 16.0167H17.0018C17.7412 16.005 18.1356 15.9583 18.2958 15.8417C18.4313 15.7483 18.6285 15.6667 18.7394 15.6667C18.8504 15.6667 19.2077 15.3983 19.5405 15.0833C20.1197 14.5233 20.5757 14.3367 20.6004 14.64ZM31.7535 20.9167C31.7658 21.2667 31.7535 21.6517 31.7166 21.7683C31.6673 21.955 30.9401 21.9667 17.963 21.9433L4.2588 21.9083L4.24648 21.2667C4.23415 20.9167 4.24648 20.5317 4.28345 20.415C4.33275 20.2283 5.05986 20.2167 18.037 20.24L31.7412 20.275L31.7535 20.9167ZM19.9349 23.0633C20.0704 23.18 19.5775 24.195 19.257 24.4867C19.0229 24.685 18.7887 24.7667 18.4313 24.7667C18.1602 24.7667 17.7165 24.825 17.4454 24.895C17.1743 24.9533 16.5088 25.0583 15.9665 25.105C14.0194 25.2917 12.6884 25.98 11.8011 27.2517C11.4806 27.7067 11.3451 28.0217 11.3204 28.4533L11.2835 29.025H7.8081C5.88556 29.0367 4.32042 28.99 4.32042 28.9433C4.3081 28.8267 4.3081 23.1567 4.32042 23.04C4.32042 22.9467 19.8239 22.9583 19.9349 23.0633ZM25.7394 24.545L25.7764 26.1317L25.2342 26.33C24.9507 26.435 24.6673 26.5167 24.6056 26.5167C24.4701 26.5167 23.5458 27.205 23.213 27.5667C23.0528 27.73 22.868 28.0683 22.794 28.325C22.7201 28.5817 22.5968 28.8617 22.5352 28.9317C22.3627 29.13 12.5158 29.1533 12.3926 28.955C12.0229 28.395 13.4771 26.715 14.5739 26.4233C15.2641 26.225 15.412 26.295 15.412 26.7967C15.412 27.2867 15.8433 27.8233 16.1884 27.7767C16.632 27.7183 16.7306 27.3917 16.4965 26.785C16.2623 26.1667 16.3609 25.9333 16.8415 25.9333C17.0511 25.9333 17.1989 26.05 17.3838 26.4C17.5194 26.645 17.6303 26.9367 17.6303 27.0183C17.6303 27.1117 17.7535 27.2633 17.9137 27.3683C18.1602 27.52 18.2218 27.52 18.4683 27.3567C18.7764 27.17 18.8257 26.7967 18.5669 26.5283C18.2588 26.2017 18.2835 25.8983 18.6162 25.735C19.0229 25.5483 19.3803 25.7583 19.4912 26.2717C19.6021 26.7967 19.8239 26.995 20.2676 26.96C20.625 26.925 20.6496 26.9017 20.6373 26.435C20.6373 26.1433 20.5387 25.84 20.4278 25.7233C20.1813 25.4667 20.1567 25.0233 20.3785 24.7783C20.6127 24.5217 20.9577 23.6467 20.9577 23.32C20.9577 23.1567 21.0194 23.0167 21.081 22.9933C21.1549 22.97 22.2148 22.9583 23.4595 22.9583H25.7025L25.7394 24.545ZM31.6796 23.04C31.6796 23.0983 31.6919 24.4167 31.6919 25.9917C31.6919 27.5667 31.6796 28.8967 31.6796 28.955C31.6796 29.025 30.669 29.06 29.2518 29.0483L26.8239 29.025L26.8486 26.05C26.8609 24.4167 26.8732 23.0517 26.8732 23.0167C26.8732 22.9233 31.6796 22.9467 31.6796 23.04ZM25.7641 28.08C25.7641 29.0717 25.7887 29.0483 24.5933 29.1067C23.706 29.1417 23.4842 29.0483 23.6813 28.7217C23.8908 28.3367 24.6673 27.5667 24.8398 27.5667C24.9261 27.5667 25.0616 27.485 25.1479 27.3917C25.2342 27.2983 25.4067 27.2167 25.5299 27.2167C25.7394 27.2167 25.7641 27.31 25.7641 28.08Z" fill="#EFBA1A"/>
</svg>
