<svg width="34" height="25" viewBox="0 0 34 25" fill="none" xmlns="http://www.w3.org/2000/svg">
<g clip-path="url(#clip0_2630_9606)">
<path d="M4.83841 7.63619C4.39783 6.82688 4.53495 5.97916 4.53241 5.15064C4.52987 4.28372 5.09235 3.61911 5.92527 3.43471C6.2592 3.36044 6.59313 3.28617 6.92834 3.21702C7.26861 3.14659 7.57461 3.00829 7.86029 2.80468C8.6729 2.22716 9.49186 1.65731 10.3134 1.09131C11.1247 0.532995 11.9665 0.694344 12.5302 1.50621C12.8172 1.91983 13.2349 2.03123 13.833 1.82891C14.1415 1.72518 14.4488 1.63426 14.7725 1.70469C15.3058 1.82122 15.6893 2.12984 15.895 2.6459C16.3432 3.76509 16.5907 6.43887 16.3508 7.6157H17.8579C17.4237 6.81023 17.5722 5.93946 17.5773 5.09046C17.5824 4.24786 18.136 3.61783 18.9511 3.43471C19.1885 3.38093 19.4247 3.32587 19.6647 3.28489C20.2081 3.19141 20.6881 2.97116 21.135 2.63821C21.8371 2.11703 22.5672 1.6317 23.2859 1.13101C24.1531 0.526593 24.9593 0.666172 25.5764 1.52798C25.8557 1.91855 26.2785 2.02483 26.8601 1.82891C27.1902 1.7175 27.5178 1.62658 27.8644 1.71622C28.4777 1.87501 28.8433 2.28222 29.0135 2.8892C29.4477 4.43994 29.5645 6.01501 29.4096 7.6157C29.4172 7.61826 29.4287 7.62594 29.4388 7.62594C29.8134 7.62082 30.2908 7.754 30.532 7.5696C30.7657 7.3916 30.5981 6.88194 30.6006 6.51827C30.6095 4.9893 30.5993 3.46032 30.607 1.93135C30.6108 1.02473 31.2558 0.290972 32.0976 0.210298C33.0143 0.12322 33.7825 0.687941 33.9653 1.59201C33.9958 1.74311 33.9983 1.9019 33.9983 2.05813C33.9996 8.99869 33.9996 15.9392 33.9983 22.8811C33.9983 23.7583 33.5666 24.1898 32.6931 24.1911C32.3617 24.1911 32.029 24.1975 31.6976 24.1885C31.1707 24.1732 30.72 23.8248 30.6362 23.3049C30.5943 23.0501 30.4851 23.0476 30.2921 23.0476C27.9457 23.0527 25.6005 23.0501 23.2541 23.0501C16.7698 23.0501 10.2842 23.0501 3.7998 23.0463C3.55221 23.0463 3.39476 23.0386 3.33509 23.3728C3.24748 23.8697 2.80308 24.1757 2.29393 24.1885C1.89525 24.1975 1.49656 24.1988 1.09915 24.1885C0.484613 24.1719 0.0249817 23.6994 -0.000412252 23.077C-0.00168195 23.0322 -0.000412252 22.9874 -0.000412252 22.9426C-0.000412252 15.961 -0.000412252 8.97564 -0.000412252 1.99026C-0.000412252 1.18223 0.447791 0.531715 1.15374 0.292253C2.24188 -0.0765447 3.37826 0.712272 3.38841 1.87629C3.40492 3.68442 3.39984 5.49127 3.38841 7.2994C3.38588 7.58112 3.4646 7.6618 3.73758 7.64259C4.08802 7.61826 4.43972 7.63619 4.83968 7.63619H4.83841Z" fill="#A6A6A6"/>
<path d="M4.85172 19.6323C4.40478 19.6323 4.00991 19.6208 3.6163 19.6375C3.40426 19.6464 3.39156 19.5465 3.39283 19.3788C3.39918 18.4414 3.39537 17.5041 3.39537 16.5667C3.39537 14.8367 3.40172 13.108 3.38775 11.3779C3.38521 11.1065 3.46647 11.0552 3.71787 11.0552C12.5689 11.0616 21.4213 11.0616 30.2724 11.054C30.553 11.054 30.6126 11.1282 30.6114 11.4023C30.5999 14.0351 30.6012 16.6692 30.6101 19.302C30.6101 19.5478 30.5733 19.6656 30.2939 19.6387C29.9981 19.6106 29.6985 19.6323 29.4102 19.6323C29.5689 17.992 29.4534 16.3926 28.9938 14.8264C28.7221 13.9006 27.8917 13.4832 26.9889 13.7956C26.2449 14.053 25.9313 13.9595 25.45 13.3359C24.9739 12.7187 24.108 12.5829 23.4249 13.0401C22.7989 13.4588 22.1628 13.8686 21.5762 14.3386C20.836 14.9315 20.0056 15.2541 19.0863 15.4206C18.068 15.6037 17.5754 16.2427 17.5703 17.2928C17.5703 17.4157 17.5703 17.5386 17.5703 17.6616C17.5741 17.9958 17.5754 18.3313 17.583 18.6655C17.5906 19.0036 17.7328 19.3084 17.8547 19.6272H16.3768C16.5152 18.0483 16.4326 16.495 16.0035 14.9699C15.7 13.8916 14.923 13.4703 13.8742 13.8225C13.2063 14.0466 12.8483 13.9352 12.4445 13.3769C11.9696 12.7199 11.0847 12.5752 10.3774 13.0529C9.74387 13.4806 9.09759 13.8942 8.50083 14.3706C7.77583 14.9481 6.96449 15.2567 6.06682 15.4193C5.03455 15.605 4.53048 16.253 4.52921 17.3133C4.52921 17.481 4.53175 17.6475 4.52921 17.8152C4.52032 18.4286 4.50382 19.0433 4.85299 19.6349L4.85172 19.6323Z" fill="#C7C7C7"/>
<path d="M17.0375 8.7785C21.4396 8.7785 25.8429 8.78106 30.245 8.77209C30.523 8.77209 30.6221 8.81819 30.6119 9.12809C30.5865 9.91946 30.6043 9.91946 29.8183 9.91946C21.1349 9.91946 12.4514 9.91818 3.76792 9.92587C3.47589 9.92587 3.37432 9.86952 3.38447 9.55195C3.40987 8.77978 3.39209 8.7785 4.16026 8.7785H17.0363H17.0375Z" fill="white"/>
<path d="M16.9656 21.9143C12.5737 21.9143 8.18056 21.9104 3.78867 21.9207C3.48649 21.9207 3.37094 21.8759 3.38491 21.534C3.41538 20.7733 3.3938 20.772 4.13911 20.772C12.8239 20.772 21.5086 20.7733 30.1933 20.7656C30.5044 20.7656 30.6314 20.8053 30.6149 21.1677C30.5793 21.9117 30.6047 21.913 29.8772 21.913C25.5729 21.913 21.2699 21.913 16.9656 21.913V21.9143Z" fill="white"/>
<path d="M2.26175 12.4036C2.26175 15.8381 2.25667 19.2738 2.27064 22.7082C2.27064 23.0155 2.1843 23.0693 1.90623 23.0616C1.13045 23.0424 1.13045 23.0552 1.13045 22.2613C1.13045 15.6037 1.13045 8.94488 1.13045 2.28732C1.13045 2.19768 1.12918 2.10932 1.13045 2.01968C1.13807 1.59967 1.35518 1.3474 1.70435 1.35124C2.05733 1.35508 2.26048 1.59839 2.26048 2.03249C2.26175 5.48997 2.26048 8.94744 2.26048 12.4036H2.26175Z" fill="white"/>
<path d="M31.7365 12.3652C31.7365 8.97436 31.7365 5.58475 31.7365 2.19386C31.7365 2.09398 31.7327 1.99282 31.739 1.89294C31.7619 1.58176 31.9726 1.36791 32.2647 1.35127C32.5669 1.33462 32.8195 1.54463 32.8614 1.85708C32.8741 1.95568 32.8678 2.05685 32.8678 2.15801C32.8678 9.00509 32.8665 15.8535 32.8754 22.7005C32.8754 22.9925 32.8119 23.0706 32.5186 23.0629C31.7378 23.0399 31.7365 23.0552 31.7365 22.2677V12.364V12.3652Z" fill="white"/>
<path d="M10.4674 5.34914C8.96276 5.34914 7.45817 5.34145 5.95358 5.35554C5.65266 5.3581 5.62092 5.23645 5.6844 4.99571C5.74027 4.78314 5.86851 4.63971 6.07293 4.57697C6.22021 4.53087 6.37258 4.49757 6.52494 4.4758C7.48991 4.33879 8.32792 3.92901 9.09862 3.33356C9.67634 2.88665 10.2921 2.48968 10.8927 2.07222C11.2558 1.81995 11.379 1.84172 11.6253 2.19259C12.1865 2.99293 13.1363 3.26697 14.1723 2.92634C14.6853 2.75859 14.7843 2.81109 14.9227 3.32843C15.0789 3.9098 15.1716 4.5027 15.2579 5.09815C15.2909 5.32737 15.2071 5.35298 15.0129 5.3517C13.4969 5.3453 11.9821 5.34786 10.4661 5.34786L10.4674 5.34914Z" fill="white"/>
<path d="M23.4894 5.3492C22.0089 5.3492 20.5272 5.3492 19.0467 5.3492C18.6963 5.3492 18.6061 5.20834 18.7534 4.88436C18.827 4.72429 18.9502 4.61545 19.1203 4.57063C19.2587 4.53477 19.3997 4.5002 19.5406 4.47971C20.5145 4.33757 21.3639 3.93292 22.141 3.32466C22.7326 2.8611 23.3713 2.45901 23.9871 2.02746C24.2245 1.86099 24.4417 1.84563 24.608 2.11582C25.1781 3.03909 26.2027 3.23246 27.2096 2.92128C27.72 2.76378 27.814 2.81244 27.9549 3.33362C28.106 3.89322 28.1987 4.46306 28.2825 5.03547C28.3193 5.28389 28.2571 5.35688 27.9968 5.35432C26.4935 5.34152 24.9914 5.34792 23.4881 5.34792L23.4894 5.3492Z" fill="white"/>
<path d="M10.4851 17.349C8.99324 17.349 7.50134 17.349 6.00945 17.349C5.64504 17.349 5.56886 17.2325 5.71615 16.8945C5.79233 16.7203 5.92819 16.6102 6.10848 16.5628C6.26847 16.5205 6.43099 16.4834 6.59351 16.4603C7.50007 16.3285 8.2911 15.9507 9.01736 15.3898C9.61285 14.9301 10.2464 14.5216 10.8635 14.0901C11.2482 13.8211 11.379 13.8442 11.6444 14.2194C12.1853 14.9877 13.1477 15.2579 14.1711 14.9301C14.6993 14.7611 14.7881 14.8097 14.9304 15.3527C15.0776 15.9123 15.1691 16.4834 15.2529 17.0558C15.2884 17.2953 15.2351 17.3555 14.9938 17.3542C13.4905 17.3439 11.9872 17.349 10.4851 17.349Z" fill="white"/>
<path d="M23.4995 17.3491C22.0178 17.3491 20.536 17.3491 19.0543 17.3491C18.6899 17.3491 18.601 17.2006 18.7635 16.8651C18.8423 16.7037 18.973 16.6064 19.1394 16.5628C19.2879 16.5231 19.4403 16.4911 19.5927 16.4681C20.5195 16.3272 21.3347 15.9495 22.0775 15.3694C22.6615 14.9135 23.2888 14.514 23.8969 14.0901C24.2829 13.8212 24.4124 13.843 24.6791 14.2194C25.225 14.9916 26.1811 15.2592 27.2058 14.9289C27.7378 14.7573 27.8089 14.8021 27.96 15.3579C28.1073 15.8957 28.186 16.4463 28.2799 16.9944C28.332 17.3017 28.233 17.3593 27.9422 17.3555C26.4605 17.3401 24.9787 17.3478 23.497 17.3478L23.4995 17.3491Z" fill="white"/>
<path d="M23.5358 18.4914C25.0404 18.4914 26.545 18.4966 28.0496 18.4863C28.2781 18.485 28.348 18.5414 28.3442 18.7796C28.3327 19.4634 28.1791 19.6337 27.5036 19.6337C24.9807 19.6337 22.4591 19.6337 19.9362 19.6337C19.3369 19.6337 18.8874 19.3199 18.744 18.8141C18.683 18.5977 18.6919 18.4825 18.989 18.485C20.505 18.503 22.0198 18.4927 23.5358 18.4927V18.4914Z" fill="white"/>
<path d="M23.5069 6.49391C25.0103 6.49391 26.5149 6.50032 28.0182 6.48751C28.2823 6.48495 28.3521 6.55922 28.3445 6.82045C28.3267 7.4556 28.1617 7.63616 27.5306 7.63616C25.0103 7.63616 22.4886 7.63616 19.9683 7.63616C19.3538 7.63616 18.9221 7.34676 18.7557 6.84222C18.6795 6.61172 18.6795 6.48367 18.997 6.48751C20.5003 6.50288 22.0049 6.49391 23.5082 6.49391H23.5069Z" fill="white"/>
<path d="M10.4931 18.4914C11.9977 18.4914 13.5035 18.4965 15.0081 18.4862C15.2367 18.485 15.3052 18.5375 15.3014 18.7756C15.29 19.4799 15.149 19.6323 14.4393 19.6323C11.9266 19.6323 9.41509 19.6323 6.90235 19.6323C6.29925 19.6323 5.85866 19.3199 5.71138 18.8115C5.64662 18.59 5.64662 18.4811 5.945 18.485C7.46102 18.5016 8.97704 18.4926 10.4931 18.4926V18.4914Z" fill="white"/>
<path d="M10.4734 6.49393C11.9666 6.49393 13.4597 6.50033 14.9529 6.48753C15.217 6.48496 15.3148 6.53106 15.3033 6.82431C15.278 7.46458 15.1269 7.63618 14.492 7.63618C11.9704 7.63618 9.44876 7.63618 6.92714 7.63618C6.31641 7.63618 5.87456 7.33653 5.71839 6.83583C5.64728 6.6079 5.64601 6.48368 5.96217 6.48624C7.46549 6.50289 8.97009 6.49393 10.4747 6.49393H10.4734Z" fill="white"/>
</g>
<defs>
<clipPath id="clip0_2630_9606">
<rect width="34" height="24" fill="white" transform="translate(0 0.200073)"/>
</clipPath>
</defs>
</svg>
