<svg width="31" height="29" viewBox="0 0 31 29" fill="none" xmlns="http://www.w3.org/2000/svg">
<path d="M15.5032 28.2021C10.9137 28.2021 6.32285 28.2021 1.73335 28.2021C0.851405 28.2021 0.500977 27.8478 0.500977 26.958C0.500977 23.1163 0.500977 19.2759 0.500977 15.4341C0.500977 14.5496 0.854012 14.2004 1.74377 14.2004C10.9241 14.2004 20.1031 14.2004 29.2834 14.2004C30.1432 14.2004 30.4989 14.56 30.4989 15.4289C30.4989 19.2811 30.4989 23.1332 30.4989 26.9854C30.4989 27.8465 30.138 28.2034 29.273 28.2034C24.6835 28.2034 20.0927 28.2034 15.5032 28.2034V28.2021Z" fill="#A6A6A6"/>
<path d="M15.4991 0.196289C20.0886 0.196289 24.6794 0.196289 29.2689 0.196289C30.1392 0.196289 30.4987 0.550632 30.5 1.41043C30.5 3.93902 30.5 6.46631 30.5 8.9949C30.5 9.83516 30.1339 10.1986 29.2898 10.1986C27.423 10.1986 25.5575 10.1986 23.6907 10.1986C22.8791 10.1986 22.5052 9.82082 22.5039 9.00011C22.5039 6.84019 22.5 4.68157 22.5091 2.52165C22.5091 2.27674 22.4609 2.19206 22.1925 2.19336C20.4026 2.20639 18.6113 2.20379 16.8214 2.19597C16.5843 2.19597 16.5178 2.24287 16.4814 2.50472C16.355 3.41402 16.6716 4.06799 17.3633 4.67115C18.2922 5.48275 19.1168 6.4155 20.0052 7.2753C20.3687 7.62573 20.5537 8.01395 20.5094 8.5168C20.4925 8.71091 20.5094 8.90762 20.5068 9.10303C20.4977 9.78435 20.0951 10.1895 19.4086 10.1973C18.8341 10.2038 18.2583 10.1973 17.6838 10.1973C15.6867 10.1973 13.6909 10.1973 11.6938 10.1973C10.8783 10.1973 10.5461 9.81301 10.481 9.00792C10.412 8.14422 10.6855 7.50979 11.3317 6.92356C12.3674 5.9843 13.3223 4.95514 14.3149 3.97028C14.4465 3.84001 14.5169 3.71104 14.509 3.51824C14.4934 3.16129 14.4973 2.80173 14.509 2.44479C14.5142 2.27153 14.4791 2.19597 14.2811 2.19597C12.426 2.20248 10.5696 2.20379 8.71451 2.19597C8.467 2.19597 8.49827 2.33406 8.49827 2.48648C8.49827 4.65682 8.49826 6.82716 8.49956 8.99751C8.49956 9.27238 8.48654 9.54204 8.31458 9.77262C8.09832 10.0631 7.80521 10.1986 7.44436 10.1986C5.47985 10.1986 3.51664 10.2038 1.55213 10.196C0.900767 10.1934 0.50474 9.78566 0.503437 9.12778C0.498226 6.51321 0.499529 3.89733 0.503437 1.28276C0.503437 0.580589 0.908581 0.197585 1.63159 0.197585C6.25367 0.197585 10.877 0.197585 15.4991 0.197585V0.196289Z" fill="#A6A6A6"/>
<path d="M8.46658 26.1975C6.58935 26.1975 4.71213 26.1896 2.8336 26.2053C2.53397 26.2079 2.48186 26.1193 2.48447 25.8431C2.49619 23.7275 2.49359 21.6106 2.48577 19.4949C2.48577 19.2774 2.52616 19.1992 2.76455 19.1992C6.58415 19.207 10.405 19.207 14.2246 19.1992C14.4578 19.1992 14.5086 19.2683 14.5086 19.491C14.5008 21.6288 14.4982 23.7666 14.5099 25.9043C14.5112 26.1623 14.4266 26.2027 14.196 26.2014C12.2862 26.1923 10.3764 26.1962 8.46529 26.1962L8.46658 26.1975Z" fill="white"/>
<path d="M22.53 19.2058C24.419 19.2058 26.3066 19.211 28.1956 19.1992C28.4535 19.1979 28.516 19.2683 28.5147 19.521C28.5043 21.6366 28.503 23.7536 28.5147 25.8692C28.516 26.1467 28.4327 26.2027 28.1708 26.2027C24.3838 26.1936 20.5955 26.1936 16.8084 26.2027C16.5479 26.2027 16.488 26.1297 16.4893 25.8783C16.4997 23.7627 16.501 21.6458 16.4893 19.5301C16.488 19.25 16.5727 19.1979 16.8332 19.1992C18.7326 19.211 20.6319 19.2058 22.5313 19.2058H22.53Z" fill="white"/>
<path d="M15.5027 17.1967C11.2819 17.1967 7.05977 17.1941 2.83893 17.2032C2.55494 17.2032 2.47286 17.142 2.48328 16.8515C2.50804 16.2066 2.4898 16.2053 3.12683 16.2053C11.4604 16.2053 19.7952 16.2079 28.1288 16.1975C28.4427 16.1975 28.5313 16.2705 28.517 16.5857C28.4896 17.1941 28.5091 17.1954 27.906 17.1954C23.7711 17.1954 19.6376 17.1954 15.5027 17.1954V17.1967Z" fill="white"/>
<path d="M6.50396 5.21557C6.50396 6.12617 6.49874 7.03808 6.50786 7.94869C6.51047 8.14149 6.46878 8.21054 6.25904 8.20794C5.08789 8.19751 3.91544 8.19882 2.74428 8.20794C2.54888 8.20924 2.48504 8.16234 2.48635 7.95651C2.49416 6.12357 2.49416 4.29063 2.48635 2.4564C2.48635 2.26229 2.52934 2.19455 2.73647 2.19585C3.90762 2.20497 5.08008 2.20758 6.25123 2.19585C6.48832 2.19325 6.50786 2.29225 6.50656 2.48245C6.49874 3.39306 6.50396 4.30496 6.50396 5.21557Z" fill="white"/>
<path d="M28.5088 5.22219C28.5088 6.12238 28.501 7.02257 28.5141 7.92275C28.518 8.15464 28.4476 8.21065 28.2235 8.20805C27.0732 8.19632 25.9242 8.19632 24.7739 8.20805C24.5381 8.21065 24.4899 8.13769 24.4912 7.91623C24.5004 6.10414 24.5004 4.29335 24.4912 2.48126C24.4912 2.25198 24.5538 2.19206 24.7791 2.19466C25.9294 2.20639 27.0785 2.20639 28.2288 2.19466C28.4619 2.19206 28.5154 2.26501 28.5128 2.48777C28.501 3.39838 28.5075 4.31029 28.5075 5.2209L28.5088 5.22219Z" fill="white"/>
<path d="M12.9355 8.18598C13.7784 7.34051 14.5887 6.53022 15.3951 5.71732C15.4759 5.63655 15.5306 5.64046 15.6087 5.71732C16.4177 6.52762 17.228 7.33531 18.0787 8.18469H12.9355V8.18598Z" fill="white"/>
<path d="M12.5018 22.7059C12.5018 22.8792 12.5083 23.0525 12.5005 23.2257C12.4732 23.7703 12.0498 24.1884 11.5196 24.2028C11.0011 24.2158 10.5373 23.8028 10.5034 23.2622C10.48 22.8844 10.4787 22.504 10.5034 22.1262C10.5412 21.5817 10.9998 21.187 11.53 21.2039C12.0654 21.2208 12.4771 21.6351 12.5005 22.1849C12.5083 22.3581 12.5005 22.5314 12.5005 22.7046L12.5018 22.7059Z" fill="#A6A6A6"/>
<path d="M18.4994 22.6824C18.4994 22.5196 18.4942 22.3581 18.4994 22.1952C18.5202 21.6442 18.928 21.226 19.4621 21.2051C19.9949 21.1843 20.4535 21.5712 20.4952 22.1171C20.5251 22.504 20.5251 22.8974 20.4952 23.2843C20.4535 23.8262 19.9767 24.2288 19.4595 24.2001C18.9267 24.1702 18.5202 23.7494 18.5007 23.2009C18.4942 23.0277 18.5007 22.8544 18.5007 22.6811L18.4994 22.6824Z" fill="#A6A6A6"/>
</svg>
