<svg width="44" height="40" viewBox="0 0 44 40" fill="none" xmlns="http://www.w3.org/2000/svg">
<path d="M12.506 0.744404C11.694 1.22189 11.419 1.44736 11.0131 2.03095C10.319 3.01244 10.175 3.74193 10.2274 6.00996L10.2798 7.99947H9.8869C9.50714 7.99947 9.49405 7.97295 9.42857 7.26999C9.38929 6.87209 9.31071 6.46092 9.25833 6.36808C8.91786 5.83754 8.05357 6.62008 8.19762 7.34957C8.26309 7.68115 8.21071 7.82705 8.00119 8.01274C7.84405 8.14537 7.72619 8.35758 7.72619 8.49022C7.72619 8.87486 8.17143 9.00749 9.12738 8.91465C9.93929 8.83507 10.044 8.86159 10.2798 9.12686C10.5286 9.40539 10.5286 9.41865 10.2929 9.60434C10.0833 9.75024 9.625 9.7635 7.90952 9.69719C5.25119 9.59108 5.30357 9.56455 5.40833 11.0103C5.46071 11.7132 5.44762 12.0581 5.34286 12.1244C5.26429 12.1774 4.15119 12.204 2.86786 12.1907C1.13929 12.1642 0.484524 12.204 0.275 12.3366C0.0130952 12.4958 0 12.6151 0 14.6975C0 16.236 0.052381 16.9523 0.157143 17.0584C0.261905 17.1645 0.785714 17.2175 1.6631 17.2175H3.0119V28.0537C3.0119 34.0222 3.0119 39.0358 3.0119 39.1949V39.5H21.7905C33.8643 39.5 40.6083 39.4602 40.6607 39.3674C40.7 39.301 40.7393 34.2875 40.7262 28.2261V17.2175H42.1012C43.2143 17.2175 43.5024 17.1777 43.5548 17.0186C43.6071 16.9125 43.7119 16.8196 43.8167 16.8196C43.9607 16.8196 44 16.4085 44 14.6312C44 12.5488 43.9869 12.4427 43.7512 12.4427C43.6071 12.4427 43.45 12.3764 43.4107 12.3101C43.3583 12.2172 39.2464 12.1774 31.1536 12.1774C24.4488 12.1774 18.9095 12.1509 18.844 12.0979C18.7524 12.0448 18.7393 11.7265 18.7917 11.2357C18.844 10.8113 18.844 10.2808 18.7917 10.042L18.7 9.61761L15.0071 9.67066L11.3274 9.72371V9.32581V8.92791H12.4274C13.3964 8.92791 13.5405 8.90138 13.7107 8.63611C13.881 8.38411 13.8679 8.31779 13.6321 8.07905C13.4357 7.8801 13.3571 7.6281 13.3571 7.21693C13.3571 5.79775 12.244 5.91712 12.1524 7.3363C12.1131 7.94642 12.0869 7.99947 11.7464 8.03926C11.5238 8.06579 11.3667 8.01274 11.3143 7.8801C11.2357 7.66789 11.4583 4.13983 11.5893 3.47666C11.681 3.07876 12.4405 2.09727 12.6762 2.09727C12.7417 2.09727 12.8726 2.00443 12.9643 1.89832C13.069 1.76568 13.3702 1.69937 13.881 1.69937C14.5488 1.69937 14.719 1.75242 15.2167 2.13706C15.8845 2.65433 16.356 3.54298 16.356 4.29899C16.369 5.08153 16.9583 5.55901 17.3905 5.12132C17.4821 5.02848 17.5476 4.63057 17.5476 4.20615C17.5476 3.63582 17.456 3.27771 17.1417 2.68085C16.7619 1.93811 15.806 0.903564 15.5048 0.903564C15.4262 0.903564 15.2821 0.810719 15.1905 0.704613C14.9548 0.412819 13.0298 0.439346 12.506 0.744404ZM17.6786 11.3684C17.6786 12.3101 18.0976 12.2438 12.0738 12.2172L6.6131 12.1907L6.57381 11.5275L6.53452 10.8511H12.1H17.6786V11.3684ZM42.6643 14.6975L42.7036 16.0238L21.8429 15.9973L0.995238 15.9575L1.03452 14.6975C1.04762 14.0078 1.0869 13.4109 1.1131 13.3711C1.13929 13.3314 10.4893 13.3181 21.8952 13.3314L42.625 13.3711L42.6643 14.6975ZM15.1643 25.852L15.125 34.4864L9.65119 34.513C6.65238 34.513 4.19048 34.4864 4.19048 34.4201C4.19048 34.3008 4.19048 17.3767 4.19048 17.2838C4.19048 17.244 6.66548 17.2175 9.69048 17.2175H15.1905L15.1643 25.852ZM27.369 17.3767C27.369 17.443 27.369 21.3159 27.369 25.9979V34.5262H21.869H16.369L16.3429 25.9316C16.3167 21.1965 16.3298 17.2971 16.356 17.2706C16.4607 17.1645 27.369 17.2838 27.369 17.3767ZM39.6 17.443C39.5869 17.5358 39.5738 21.422 39.5738 26.0642L39.5476 34.5262H34.0476H28.5476V25.8652V17.2175L34.0869 17.244C38.4083 17.2706 39.6131 17.3236 39.6 17.443ZM39.5607 35.8791C39.5607 35.9719 39.5738 36.5423 39.5738 37.1391L39.5869 38.24H21.869H4.15119L4.125 37.1126C4.125 36.4892 4.125 35.9189 4.15119 35.8526C4.21667 35.6404 39.5476 35.6669 39.5607 35.8791Z" fill="#EFBA1A"/>
<path d="M24.6071 25.4521C24.3999 25.5598 24.3999 25.5733 24.3999 28.5215C24.3999 31.4429 24.3999 31.4698 24.6071 31.6717C24.7962 31.8467 24.8322 31.8467 25.0124 31.6448C25.2105 31.4294 25.2105 31.3756 25.1925 28.4811C25.1655 25.681 25.1565 25.5329 24.9854 25.4386C24.8863 25.3848 24.7151 25.3848 24.6071 25.4521Z" fill="#EFBA1A"/>
<path d="M31.7957 25.4596C31.6001 25.5671 31.6001 25.6209 31.6001 28.5246C31.6001 31.4284 31.6001 31.4687 31.8045 31.6704C31.9823 31.8451 32.0268 31.8451 32.2045 31.6569C32.4001 31.4687 32.4001 31.4149 32.4001 28.4709V25.6844C32.4001 25.5598 32.3161 25.4509 32.1957 25.4192C32.0801 25.3789 31.8934 25.4058 31.7957 25.4596Z" fill="#EFBA1A"/>
<path d="M13.0645 25.5357C13.0212 25.6442 12.978 30.6064 13.0126 31.4469C13.0212 31.5283 13.1078 31.6503 13.2202 31.7317C13.376 31.8401 13.4539 31.8266 13.6096 31.6368C13.7913 31.3927 13.8 31.3114 13.8 28.6133C13.8 27.0813 13.774 25.7391 13.7481 25.617C13.6875 25.373 13.151 25.3188 13.0645 25.5357Z" fill="#EFBA1A"/>
</svg>
