<svg width="25" height="32" viewBox="0 0 25 32" fill="none" xmlns="http://www.w3.org/2000/svg">
<path d="M0 16.2919C0 11.8917 0 7.49162 0 3.09149C0 1.69696 0.774875 0.918335 2.16063 0.918335C9.05313 0.918335 15.9456 0.918335 22.8381 0.918335C24.2264 0.918335 25 1.69446 25 3.09149C25 11.9018 25 20.7133 25 29.5236C25 30.8943 24.2164 31.6817 22.8544 31.6817C15.9519 31.6817 9.04937 31.6817 2.14561 31.6817C0.782386 31.6817 0 30.8955 0 29.5236C0 25.1134 0 20.702 0 16.2919Z" fill="#FFBC0A"/>
<path d="M12.499 10.5384C15.9202 10.5384 19.3402 10.5421 22.7614 10.5321C23.0243 10.5321 23.0806 10.5972 23.0806 10.8551C23.0731 17.0491 23.0731 23.2443 23.0806 29.4383C23.0806 29.6924 23.0293 29.7625 22.7639 29.7625C15.9227 29.7537 9.0803 29.7537 2.23913 29.7625C1.9775 29.7625 1.91992 29.6986 1.91992 29.4408C1.92743 23.2468 1.92743 17.0516 1.91992 10.8576C1.91992 10.6035 1.96999 10.5321 2.23663 10.5334C5.65784 10.5434 9.07779 10.5396 12.499 10.5396V10.5384Z" fill="white"/>
<path d="M12.5007 2.84478C15.9219 2.84478 19.3419 2.84853 22.7631 2.83852C23.0272 2.83852 23.0836 2.90486 23.0823 3.16149C23.0698 4.88148 23.071 6.60273 23.0823 8.32397C23.0836 8.55305 23.0347 8.61564 22.7956 8.61564C15.9332 8.60813 9.07074 8.60813 2.20954 8.61564C1.9717 8.61564 1.92162 8.5543 1.92287 8.32397C1.93289 6.60398 1.93414 4.88273 1.92287 3.16149C1.92162 2.90486 1.97796 2.83727 2.24084 2.83852C5.66205 2.84853 9.08201 2.84478 12.5032 2.84478H12.5007Z" fill="white"/>
<path d="M12.4863 12.46C16.7224 12.445 20.1875 15.8962 20.1925 20.1374C20.1975 24.3748 16.7425 27.8285 12.4988 27.8273C8.26768 27.8273 4.82143 24.3936 4.80766 20.1662C4.79389 15.9288 8.23512 12.4738 12.485 12.46H12.4863Z" fill="#FFBC0A"/>
<path d="M6.74285 4.77146C7.3575 4.77146 7.97214 4.76645 8.58678 4.77146C9.18891 4.77647 9.60952 5.16453 9.61953 5.71157C9.62954 6.26738 9.20142 6.67922 8.58678 6.68173C7.34749 6.68799 6.10693 6.68799 4.86764 6.68173C4.26802 6.67797 3.85742 6.27864 3.85742 5.72659C3.85742 5.17204 4.26802 4.77772 4.86764 4.77146C5.49229 4.7652 6.1182 4.77021 6.74285 4.77021V4.77146Z" fill="#FFBC0A"/>
<path d="M14.4126 6.68285C13.8918 6.67784 13.4575 6.23971 13.46 5.72271C13.4625 5.20446 13.8981 4.77383 14.4214 4.77258C14.9647 4.77258 15.3915 5.20446 15.3828 5.74649C15.374 6.27101 14.9421 6.68786 14.4139 6.68285H14.4126Z" fill="#FFBC0A"/>
<path d="M18.2632 5.7152C18.2682 6.24722 17.8564 6.67159 17.3281 6.6816C16.7898 6.69162 16.3442 6.25599 16.3467 5.72396C16.3492 5.20196 16.7798 4.77384 17.3043 4.77259C17.8363 4.77133 18.2595 5.18694 18.2645 5.7152H18.2632Z" fill="#FFBC0A"/>
<path d="M21.1447 5.73026C21.1447 6.26103 20.7266 6.67913 20.1971 6.68164C19.6689 6.68414 19.242 6.26603 19.2345 5.74027C19.227 5.20199 19.6601 4.76761 20.2021 4.77387C20.7329 4.77888 21.146 5.19824 21.146 5.73026H21.1447Z" fill="#FFBC0A"/>
<path d="M12.4668 14.3715C14.9366 14.3802 17.1448 15.9525 17.9422 18.2296C18.006 18.4098 18.006 18.5137 17.8107 18.6214C17.3175 18.893 16.9821 19.3449 16.6053 19.7468C16.4338 19.9295 16.2572 20.0998 15.9844 20.1323C15.6389 20.1736 15.3797 20.0334 15.1557 19.7906C14.894 19.5077 14.6424 19.2122 14.3582 18.9531C13.2704 17.9617 11.6956 17.9692 10.6178 18.9681C10.3587 19.2085 10.1271 19.4789 9.8855 19.738C9.37351 20.2888 8.90534 20.295 8.39585 19.7493C7.99151 19.3161 7.62347 18.8417 7.08519 18.5563C6.94124 18.4799 7.01134 18.386 7.04514 18.2921C7.80999 16.2392 9.25835 14.9648 11.3977 14.4879C11.6506 14.4315 11.9134 14.4153 12.1713 14.3865C12.2852 14.374 12.4004 14.3752 12.4655 14.3715H12.4668Z" fill="white"/>
<path d="M18.1793 20.926C18.0353 22.9777 16.0825 25.8569 12.5711 25.9057C9.21 25.9533 7.0356 23.2781 6.81152 20.9022C7.00555 21.0837 7.1758 21.259 7.36107 21.4154C8.40759 22.2992 9.90226 22.2867 10.9388 21.3892C11.2392 21.1288 11.4908 20.8221 11.76 20.5317C12.2469 20.0047 12.7401 20.0059 13.2296 20.5304C13.4361 20.7507 13.6314 20.9823 13.8467 21.1951C15.041 22.3718 16.6909 22.3681 17.8876 21.1914C17.9827 21.0987 18.0841 21.0124 18.1793 20.926Z" fill="white"/>
</svg>
