<svg width="32" height="35" viewBox="0 0 32 35" fill="none" xmlns="http://www.w3.org/2000/svg">
<path d="M1.7992 0.238056C1.7992 0.416595 1.70924 0.476109 1.43936 0.476109C0.976707 0.476109 0.462651 0.964123 0.205622 1.66639C0.0257028 2.14249 0 3.98742 0 17.6994C0 27.9 0.0385542 33.2205 0.128514 33.2682C0.205622 33.3039 0.257028 33.4943 0.257028 33.6847C0.257028 34.0656 1.00241 34.756 1.41365 34.756C1.54217 34.756 1.69639 34.8036 1.73494 34.875C1.8506 35.0417 29.8924 35.0417 30.008 34.875C30.0466 34.8036 30.2137 34.756 30.3807 34.756C30.7663 34.756 31.3317 34.1847 31.4988 33.649C31.5759 33.3991 31.7044 33.2086 31.8072 33.2086C31.9743 33.2086 32 31.1733 32 17.628C32 2.1544 32 2.04727 31.743 1.98776C31.5631 1.94015 31.4859 1.82112 31.4859 1.57116C31.4859 1.15457 30.7534 0.476109 30.3165 0.476109C30.1623 0.476109 30.0209 0.38089 29.9823 0.238056C29.9181 0 29.8024 0 15.8586 0C1.88916 0 1.7992 0 1.7992 0.238056ZM29.9566 1.92825C30.2137 2.20201 30.2137 2.42816 30.2137 17.6637C30.2137 31.5423 30.188 33.1491 30.008 33.3158C29.8281 33.4824 28.3245 33.5062 15.9229 33.5419L2.4103 33.5651C2.17564 33.5655 1.95072 33.4713 1.78635 33.3039C1.52932 33.0301 1.52932 32.8397 1.52932 17.5803C1.52932 10.2811 1.55776 4.07936 1.59835 2.43668C1.60542 2.15065 1.71218 1.88842 1.97912 1.78541C2.12048 1.7259 8.43052 1.67829 15.9743 1.67829L29.3544 1.66669C29.5828 1.6665 29.8009 1.76124 29.9566 1.92825Z" fill="#EFBA1A"/>
<path d="M20.0733 4.32077C19.572 4.63024 19.1479 5.24918 19.1479 5.66578C19.1479 5.98715 19.405 6.42755 19.9062 6.92747C20.1761 7.21313 20.3303 7.26074 20.8957 7.26074C21.3327 7.26074 21.6154 7.20123 21.7182 7.0822C21.8082 6.98698 21.9367 6.90366 22.001 6.90366C22.3351 6.90366 22.605 6.35613 22.6178 5.68958C22.6178 5.03493 22.605 5.01112 22.0267 4.53501C21.3198 3.96368 20.7544 3.90417 20.0733 4.32077Z" fill="#EFBA1A"/>
<path d="M25.086 4.32077C24.5206 4.67785 24.1607 5.36821 24.2892 5.86812C24.4563 6.48706 24.5463 6.6418 24.9961 6.95127C25.3302 7.18933 25.5744 7.26074 26.0499 7.26074C26.6924 7.24884 27.0009 7.0941 27.4121 6.54658C27.7334 6.10618 27.6949 5.14206 27.335 4.74926C26.641 4.01129 25.8314 3.85656 25.086 4.32077Z" fill="#EFBA1A"/>
<path d="M14.6502 9.76015C14.1233 9.79586 13.5578 9.89108 13.4036 9.9744C13.2494 10.0458 12.9924 10.1172 12.8253 10.1172C12.6582 10.1172 12.4012 10.2006 12.2599 10.2958C12.1313 10.391 11.9257 10.4743 11.8101 10.4743C11.6944 10.4743 11.5273 10.5576 11.4374 10.6529C11.3474 10.7481 11.1932 10.8314 11.0904 10.8314C10.8719 10.8314 9.56106 11.736 8.76427 12.4264C8.18596 12.9263 7.11929 14.307 6.87512 14.8783C6.82371 14.9735 6.73375 15.1402 6.66949 15.2354C6.60524 15.3306 6.52813 15.4616 6.50242 15.533C6.48957 15.5925 6.38676 15.8424 6.2968 16.0686C6.20684 16.2948 6.09118 16.7233 6.03977 17.0208C5.98837 17.3184 5.87271 17.8778 5.7956 18.2706C5.51287 19.6751 6.06548 22.258 6.95222 23.6864C7.01648 23.7816 7.10644 23.9482 7.15785 24.0434C7.29921 24.341 8.37873 25.6265 8.85423 26.0669C9.4968 26.6501 10.5892 27.4 11.0518 27.5666C11.1546 27.6024 11.3346 27.6738 11.4374 27.7333C12.6582 28.3998 13.5707 28.6022 15.6141 28.6498C17.0277 28.6974 17.5803 28.6617 18.1844 28.507C19.0582 28.2808 19.8936 27.9951 20.1763 27.8404C20.2791 27.7809 20.5233 27.6738 20.7289 27.6024C20.9217 27.5309 21.0759 27.4238 21.0759 27.3643C21.0759 27.3048 21.1402 27.2572 21.2173 27.2572C21.6028 27.2572 23.5048 25.5908 24.1346 24.6981C24.6229 24.0077 24.7771 23.7697 24.8671 23.5673C24.9185 23.4721 25.0342 23.246 25.137 23.0674C25.2398 22.9008 25.3169 22.6508 25.3169 22.5318C25.3169 22.4128 25.3683 22.258 25.4454 22.1866C25.651 21.9962 26.0109 19.9965 25.998 19.1038C25.9723 17.7112 25.4583 15.8544 24.7771 14.7593C24.7257 14.6641 24.6358 14.4974 24.5844 14.4022C24.5458 14.307 24.2374 13.9023 23.9161 13.5095C23.145 12.5454 22.3225 11.8431 21.2173 11.1647C20.9089 10.9623 20.8189 10.9266 20.4076 10.7719C20.3177 10.7362 20.1506 10.6648 20.0478 10.6171C19.4181 10.2839 18.9683 10.1172 18.737 10.1172C18.5956 10.1172 18.3 10.0458 18.0815 9.95059C17.6189 9.74825 16.0896 9.67683 14.6502 9.76015ZM17.6831 11.4265C18.2358 11.5575 18.7498 11.7241 18.8141 11.7836C18.8912 11.855 19.0711 11.9026 19.2253 11.9026C19.3795 11.9026 19.5723 11.986 19.6623 12.0812C19.7522 12.1764 19.8807 12.2597 19.945 12.2597C20.2406 12.2597 21.5771 13.2715 22.2454 14.0213C22.9522 14.795 22.9137 14.7593 23.235 15.3544C23.402 15.652 23.5819 15.9734 23.6334 16.0686C23.6976 16.1638 23.8518 16.5685 23.9803 16.9613C24.3273 17.9968 24.3016 20.6035 23.9418 21.5796C23.8004 21.9605 23.6205 22.3294 23.5305 22.4128C23.4534 22.4842 23.3892 22.627 23.3892 22.7341C23.3892 22.8532 23.2221 23.1626 23.0036 23.4245C22.7852 23.6983 22.6181 23.9601 22.6181 24.0196C22.6181 24.1506 21.2558 25.3527 20.6261 25.7812C19.6237 26.4478 18.647 26.8168 17.0534 27.0905C15.9482 27.281 15.7169 27.281 14.9972 27.15C14.5603 27.0548 13.9691 26.9477 13.6864 26.9001C13.4036 26.8644 13.0309 26.7573 12.851 26.662C12.6711 26.5787 12.4398 26.4597 12.337 26.4121C12.2342 26.3526 11.8872 26.1859 11.5787 26.0431C11.0261 25.7812 9.80524 24.7576 9.12411 23.9839C8.71287 23.5197 8.1474 22.508 7.80042 21.6034C7.56909 20.9963 7.53054 20.6273 7.53054 19.1633C7.54339 17.7945 7.58194 17.3541 7.74901 17.0565C7.87752 16.8423 7.96748 16.5685 7.96748 16.4495C7.96748 16.3305 8.10885 15.9853 8.28877 15.6996C8.45584 15.4139 8.66146 15.0688 8.72572 14.9378C9.05985 14.2713 11.3731 12.2597 11.7972 12.2597C11.8615 12.2597 11.99 12.1764 12.0799 12.0812C12.1699 11.986 12.3627 11.9026 12.5169 11.9026C12.6711 11.9026 12.8639 11.8431 12.941 11.7717C13.1595 11.5694 14.9201 11.2123 15.8197 11.2004C16.2952 11.1885 17.1048 11.2956 17.6831 11.4265Z" fill="#EFBA1A"/>
<path d="M17.6 20.4751C17.6 20.8928 17.4314 21.2934 17.1314 21.5888C16.8313 21.8842 16.4243 22.0501 16 22.0501" stroke="#EFBA1A" stroke-linecap="round" stroke-linejoin="round"/>
<path d="M19.2003 20.7429C19.2003 22.6188 17.9641 23.7997 16.0003 23.7997C14.0365 23.7997 12.8003 22.6188 12.8003 20.7429C12.8003 18.7299 15.0943 16.0123 15.7978 15.2263C15.8229 15.1983 15.8539 15.1759 15.8889 15.1605C15.9239 15.1452 15.9619 15.1372 16.0004 15.1372C16.0389 15.1372 16.0769 15.1452 16.1119 15.1605C16.1469 15.1759 16.1779 15.1983 16.203 15.2263C16.9063 16.0123 19.2003 18.7299 19.2003 20.7429Z" stroke="#EFBA1A" stroke-width="1.5" stroke-miterlimit="10"/>
</svg>
