<svg width="25" height="32" viewBox="0 0 25 32" fill="none" xmlns="http://www.w3.org/2000/svg">
<path d="M0 16.1919C0 11.7918 0 7.39164 0 2.99151C0 1.59699 0.774875 0.818359 2.16063 0.818359C9.05313 0.818359 15.9456 0.818359 22.8381 0.818359C24.2264 0.818359 25 1.59449 25 2.99151C25 11.8018 25 20.6133 25 29.4236C25 30.7943 24.2164 31.5817 22.8544 31.5817C15.9519 31.5817 9.04937 31.5817 2.14561 31.5817C0.782386 31.5817 0 30.7956 0 29.4236C0 25.0134 0 20.602 0 16.1919Z" fill="#A6A6A6"/>
<path d="M12.499 10.4384C15.9202 10.4384 19.3402 10.4421 22.7614 10.4321C23.0243 10.4321 23.0806 10.4972 23.0806 10.7551C23.0731 16.9491 23.0731 23.1443 23.0806 29.3383C23.0806 29.5924 23.0293 29.6625 22.7639 29.6625C15.9227 29.6537 9.0803 29.6537 2.23913 29.6625C1.9775 29.6625 1.91992 29.5987 1.91992 29.3408C1.92743 23.1468 1.92743 16.9516 1.91992 10.7576C1.91992 10.5035 1.96999 10.4321 2.23663 10.4334C5.65784 10.4434 9.07779 10.4396 12.499 10.4396V10.4384Z" fill="white"/>
<path d="M12.5007 2.7448C15.9219 2.7448 19.3419 2.74856 22.7631 2.73854C23.0272 2.73854 23.0836 2.80489 23.0823 3.06151C23.0698 4.7815 23.071 6.50275 23.0823 8.224C23.0836 8.45308 23.0347 8.51567 22.7956 8.51567C15.9332 8.50816 9.07074 8.50816 2.20954 8.51567C1.9717 8.51567 1.92162 8.45433 1.92287 8.224C1.93289 6.504 1.93414 4.78276 1.92287 3.06151C1.92162 2.80489 1.97796 2.73729 2.24084 2.73854C5.66205 2.74856 9.08201 2.7448 12.5032 2.7448H12.5007Z" fill="white"/>
<path d="M12.4863 12.36C16.7224 12.345 20.1875 15.7963 20.1925 20.0374C20.1975 24.2748 16.7425 27.7286 12.4988 27.7273C8.26768 27.7273 4.82143 24.2936 4.80766 20.0662C4.79389 15.8288 8.23512 12.3738 12.485 12.36H12.4863Z" fill="#A6A6A6"/>
<path d="M6.74285 4.67148C7.3575 4.67148 7.97214 4.66648 8.58678 4.67148C9.18891 4.67649 9.60952 5.06455 9.61953 5.6116C9.62954 6.1674 9.20142 6.57925 8.58678 6.58175C7.34749 6.58801 6.10693 6.58801 4.86764 6.58175C4.26802 6.578 3.85742 6.17867 3.85742 5.62662C3.85742 5.07206 4.26802 4.67774 4.86764 4.67148C5.49229 4.66522 6.1182 4.67023 6.74285 4.67023V4.67148Z" fill="#A6A6A6"/>
<path d="M14.4126 6.58288C13.8918 6.57787 13.4575 6.13973 13.46 5.62273C13.4625 5.10448 13.8981 4.67386 14.4214 4.67261C14.9647 4.67261 15.3915 5.10448 15.3828 5.64652C15.374 6.17103 14.9421 6.58788 14.4139 6.58288H14.4126Z" fill="#A6A6A6"/>
<path d="M18.2632 5.61523C18.2682 6.14725 17.8564 6.57161 17.3281 6.58163C16.7898 6.59164 16.3442 6.15601 16.3467 5.62399C16.3492 5.10198 16.7798 4.67386 17.3043 4.67261C17.8363 4.67136 18.2595 5.08696 18.2645 5.61523H18.2632Z" fill="#A6A6A6"/>
<path d="M21.1447 5.63028C21.1447 6.16105 20.7266 6.57916 20.1971 6.58166C19.6689 6.58417 19.242 6.16606 19.2345 5.6403C19.227 5.10202 19.6601 4.66764 20.2021 4.67389C20.7329 4.6789 21.146 5.09826 21.146 5.63028H21.1447Z" fill="#A6A6A6"/>
<path d="M12.4668 14.2715C14.9366 14.2802 17.1448 15.8525 17.9422 18.1296C18.006 18.3098 18.006 18.4137 17.8107 18.5214C17.3175 18.793 16.9821 19.2449 16.6053 19.6468C16.4338 19.8295 16.2572 19.9998 15.9844 20.0323C15.6389 20.0736 15.3797 19.9334 15.1557 19.6906C14.894 19.4077 14.6424 19.1123 14.3582 18.8531C13.2704 17.8617 11.6956 17.8692 10.6178 18.8681C10.3587 19.1085 10.1271 19.3789 9.8855 19.638C9.37351 20.1888 8.90534 20.1951 8.39585 19.6493C7.99151 19.2162 7.62347 18.7417 7.08519 18.4563C6.94124 18.3799 7.01134 18.2861 7.04514 18.1922C7.80999 16.1392 9.25835 14.8648 11.3977 14.3879C11.6506 14.3316 11.9134 14.3153 12.1713 14.2865C12.2852 14.274 12.4004 14.2752 12.4655 14.2715H12.4668Z" fill="white"/>
<path d="M18.1793 20.826C18.0353 22.8777 16.0825 25.7569 12.5711 25.8057C9.21 25.8533 7.0356 23.1782 6.81152 20.8022C7.00555 20.9837 7.1758 21.159 7.36107 21.3155C8.40759 22.1993 9.90226 22.1867 10.9388 21.2892C11.2392 21.0288 11.4908 20.7221 11.76 20.4317C12.2469 19.9047 12.7401 19.9059 13.2296 20.4304C13.4361 20.6508 13.6314 20.8823 13.8467 21.0952C15.041 22.2719 16.6909 22.2681 17.8876 21.0914C17.9827 20.9988 18.0841 20.9124 18.1793 20.826Z" fill="white"/>
</svg>
