<svg width="186" height="74" viewBox="0 0 186 74" fill="none" xmlns="http://www.w3.org/2000/svg">
<path d="M31.656 56.544H1.896L0.936 44.064L28.2 0.959999L40.296 8.352L17.736 44.064H31.656V28.704H46.056V44.064H52.968V56.544H46.056V72.672H31.656V56.544ZM93.0983 60.576C96.6823 60.576 99.7863 59.648 102.41 57.792C105.098 55.872 107.146 53.152 108.554 49.632C110.026 46.112 110.762 41.984 110.762 37.248C110.762 32.512 110.026 28.384 108.554 24.864C107.146 21.344 105.098 18.656 102.41 16.8C99.7863 14.88 96.6823 13.92 93.0983 13.92C89.4503 13.92 86.2823 14.88 83.5943 16.8C80.9703 18.656 78.9223 21.344 77.4503 24.864C76.0423 28.384 75.3383 32.512 75.3383 37.248C75.3383 41.984 76.0423 46.112 77.4503 49.632C78.9223 53.152 80.9703 55.872 83.5943 57.792C86.2823 59.648 89.4503 60.576 93.0983 60.576ZM93.0983 73.248C86.5063 73.248 80.7783 71.808 75.9143 68.928C71.0503 65.984 67.3063 61.792 64.6823 56.352C62.0583 50.912 60.7463 44.544 60.7463 37.248C60.7463 29.952 62.0583 23.584 64.6823 18.144C67.3063 12.704 71.0503 8.544 75.9143 5.664C80.7783 2.72 86.5063 1.248 93.0983 1.248C99.6263 1.248 105.322 2.72 110.186 5.664C115.05 8.608 118.794 12.8 121.418 18.24C124.042 23.616 125.354 29.952 125.354 37.248C125.354 44.544 124.042 50.912 121.418 56.352C118.794 61.728 115.05 65.888 110.186 68.832C105.322 71.776 99.6263 73.248 93.0983 73.248ZM163.844 56.544H134.084L133.124 44.064L160.388 0.959999L172.484 8.352L149.924 44.064H163.844V28.704H178.244V44.064H185.156V56.544H178.244V72.672H163.844V56.544Z" fill="#FFDB5D"/>
</svg>
