<svg width="198" height="73" viewBox="0 0 198 73" fill="none" xmlns="http://www.w3.org/2000/svg">
<path d="M6.888 32.408C9.192 29.976 12.168 27.992 15.816 26.456C19.528 24.856 23.08 24.056 26.472 24.056C31.592 24.056 36.136 25.08 40.104 27.128C44.072 29.176 47.176 32.056 49.416 35.768C51.656 39.416 52.776 43.608 52.776 48.344C52.776 53.016 51.656 57.208 49.416 60.92C47.176 64.568 44.072 67.416 40.104 69.464C36.136 71.512 31.592 72.536 26.472 72.536C22.44 72.536 18.632 71.704 15.048 70.04C11.528 68.376 8.52 66.072 6.024 63.128C3.528 60.184 1.832 56.824 0.936 53.048L15.144 49.592C15.784 52.344 17.16 54.584 19.272 56.312C21.384 58.04 23.784 58.904 26.472 58.904C28.776 58.904 30.792 58.456 32.52 57.56C34.312 56.664 35.688 55.416 36.648 53.816C37.672 52.216 38.184 50.392 38.184 48.344C38.184 46.296 37.672 44.472 36.648 42.872C35.688 41.208 34.312 39.928 32.52 39.032C30.792 38.136 28.776 37.688 26.472 37.688C25.192 37.688 23.688 38.136 21.96 39.032C20.296 39.864 18.792 40.984 17.448 42.392L6.888 32.408ZM2.952 40.856L5.544 1.112H46.632V13.784H19.56L17.448 42.392L2.952 40.856ZM92.9108 59.576C96.4948 59.576 99.5988 58.648 102.223 56.792C104.911 54.872 106.959 52.152 108.367 48.632C109.839 45.112 110.575 40.984 110.575 36.248C110.575 31.512 109.839 27.384 108.367 23.864C106.959 20.344 104.911 17.656 102.223 15.8C99.5988 13.88 96.4948 12.92 92.9108 12.92C89.2628 12.92 86.0948 13.88 83.4068 15.8C80.7828 17.656 78.7348 20.344 77.2628 23.864C75.8548 27.384 75.1508 31.512 75.1508 36.248C75.1508 40.984 75.8548 45.112 77.2628 48.632C78.7348 52.152 80.7828 54.872 83.4068 56.792C86.0948 58.648 89.2628 59.576 92.9108 59.576ZM92.9108 72.248C86.3188 72.248 80.5908 70.808 75.7268 67.928C70.8628 64.984 67.1188 60.792 64.4948 55.352C61.8708 49.912 60.5588 43.544 60.5588 36.248C60.5588 28.952 61.8708 22.584 64.4948 17.144C67.1188 11.704 70.8628 7.544 75.7268 4.664C80.5908 1.72 86.3188 0.247995 92.9108 0.247995C99.4388 0.247995 105.135 1.72 109.999 4.664C114.863 7.608 118.607 11.8 121.231 17.24C123.855 22.616 125.167 28.952 125.167 36.248C125.167 43.544 123.855 49.912 121.231 55.352C118.607 60.728 114.863 64.888 109.999 67.832C105.135 70.776 99.4388 72.248 92.9108 72.248ZM165.192 59.576C168.776 59.576 171.88 58.648 174.504 56.792C177.192 54.872 179.24 52.152 180.648 48.632C182.12 45.112 182.856 40.984 182.856 36.248C182.856 31.512 182.12 27.384 180.648 23.864C179.24 20.344 177.192 17.656 174.504 15.8C171.88 13.88 168.776 12.92 165.192 12.92C161.544 12.92 158.376 13.88 155.688 15.8C153.064 17.656 151.016 20.344 149.544 23.864C148.136 27.384 147.432 31.512 147.432 36.248C147.432 40.984 148.136 45.112 149.544 48.632C151.016 52.152 153.064 54.872 155.688 56.792C158.376 58.648 161.544 59.576 165.192 59.576ZM165.192 72.248C158.6 72.248 152.872 70.808 148.008 67.928C143.144 64.984 139.4 60.792 136.776 55.352C134.152 49.912 132.84 43.544 132.84 36.248C132.84 28.952 134.152 22.584 136.776 17.144C139.4 11.704 143.144 7.544 148.008 4.664C152.872 1.72 158.6 0.247995 165.192 0.247995C171.72 0.247995 177.416 1.72 182.28 4.664C187.144 7.608 190.888 11.8 193.512 17.24C196.136 22.616 197.448 28.952 197.448 36.248C197.448 43.544 196.136 49.912 193.512 55.352C190.888 60.728 187.144 64.888 182.28 67.832C177.416 70.776 171.72 72.248 165.192 72.248Z" fill="#FFDB5D"/>
</svg>
