<svg width="35" height="35" viewBox="0 0 35 35" fill="none" xmlns="http://www.w3.org/2000/svg">
<path opacity="0.12" d="M17.5003 32.0833C25.5545 32.0833 32.0837 25.5541 32.0837 17.5C32.0837 9.44581 25.5545 2.91663 17.5003 2.91663C9.44617 2.91663 2.91699 9.44581 2.91699 17.5C2.91699 25.5541 9.44617 32.0833 17.5003 32.0833Z" fill="#A6A6A6"/>
<path d="M11.667 20.4166C11.667 20.4166 13.8545 23.3333 17.5003 23.3333C21.1462 23.3333 23.3337 20.4166 23.3337 20.4166M21.8753 13.125H21.8899M13.1253 13.125H13.1399M32.0837 17.5C32.0837 25.5541 25.5545 32.0833 17.5003 32.0833C9.44617 32.0833 2.91699 25.5541 2.91699 17.5C2.91699 9.44581 9.44617 2.91663 17.5003 2.91663C25.5545 2.91663 32.0837 9.44581 32.0837 17.5ZM22.6045 13.125C22.6045 13.5277 22.278 13.8541 21.8753 13.8541C21.4726 13.8541 21.1462 13.5277 21.1462 13.125C21.1462 12.7223 21.4726 12.3958 21.8753 12.3958C22.278 12.3958 22.6045 12.7223 22.6045 13.125ZM13.8545 13.125C13.8545 13.5277 13.528 13.8541 13.1253 13.8541C12.7226 13.8541 12.3962 13.5277 12.3962 13.125C12.3962 12.7223 12.7226 12.3958 13.1253 12.3958C13.528 12.3958 13.8545 12.7223 13.8545 13.125Z" stroke="#A6A6A6" stroke-width="2.5" stroke-linecap="round" stroke-linejoin="round"/>
</svg>
