<svg width="30" height="31" viewBox="0 0 30 31" fill="none" xmlns="http://www.w3.org/2000/svg">
<rect y="0.5" width="30" height="30" rx="15" fill="#FFDB5D"/>
<path fill-rule="evenodd" clip-rule="evenodd" d="M15 7.5C15.5304 7.5 16.0391 7.71071 16.4142 8.08579C16.7893 8.46086 17 8.96957 17 9.5V16.5C17 17.0304 16.7893 17.5391 16.4142 17.9142C16.0391 18.2893 15.5304 18.5 15 18.5C14.4696 18.5 13.9609 18.2893 13.5858 17.9142C13.2107 17.5391 13 17.0304 13 16.5V9.5C13 8.96957 13.2107 8.46086 13.5858 8.08579C13.9609 7.71071 14.4696 7.5 15 7.5Z" fill="white"/>
<path d="M17 21.5C17 22.0304 16.7893 22.5391 16.4142 22.9142C16.0391 23.2893 15.5304 23.5 15 23.5C14.4696 23.5 13.9609 23.2893 13.5858 22.9142C13.2107 22.5391 13 22.0304 13 21.5C13 20.9696 13.2107 20.4609 13.5858 20.0858C13.9609 19.7107 14.4696 19.5 15 19.5C15.5304 19.5 16.0391 19.7107 16.4142 20.0858C16.7893 20.4609 17 20.9696 17 21.5Z" fill="white"/>
</svg>
