<svg width="53" height="51" viewBox="0 0 53 51" fill="none" xmlns="http://www.w3.org/2000/svg">
<path d="M8.35769 30.3137L6.63621 42.1681C6.03365 46.3174 9.18913 50.062 13.3805 50.1717L36.917 50.7872C41.1977 50.8992 44.5747 47.1757 44.0465 42.9263L42.1962 28.0383L48.1567 30.3579C49.311 30.8071 50.6232 30.4329 51.3669 29.4423C52.2728 28.2357 52.0427 26.5254 50.85 25.6011L30.7878 10.0542C28.2638 8.0983 24.7362 8.0983 22.2122 10.0542L2.3716 25.4294C1.05314 26.4511 0.791892 28.3387 1.78328 29.6801C2.46389 30.601 3.60053 31.0665 4.73158 30.8875L8.35769 30.3137Z" fill="#FFDB5D"/>
<path d="M18.9502 39.286C19.1462 42.673 31.4268 40.3789 32.4199 37.1274" stroke="black" stroke-linecap="round"/>
<ellipse cx="3.85793" cy="5.62559" rx="3.85793" ry="5.62559" transform="matrix(-0.984809 -0.164121 -0.153227 0.989849 32.4067 25.99)" fill="white"/>
<mask id="mask0_1261_4304" style="mask-type:alpha" maskUnits="userSpaceOnUse" x="23" y="25" width="9" height="12">
<ellipse cx="3.86198" cy="5.62168" rx="3.86198" ry="5.62168" transform="matrix(-0.98453 -0.16454 -0.152817 0.990132 32.4067 25.9944)" fill="white"/>
</mask>
<g mask="url(#mask0_1261_4304)">
<ellipse cx="3.4112" cy="4.16352" rx="3.4112" ry="4.16352" transform="matrix(-0.953705 -0.300839 -0.28739 0.957843 33.1099 29.0078)" fill="black"/>
</g>
<ellipse cx="0.724761" cy="1.10119" rx="0.724761" ry="1.10119" transform="matrix(-0.997671 -0.00348346 0.00334564 1.00231 27.9453 30.3188)" fill="white"/>
<ellipse cx="3.85781" cy="5.62583" rx="3.85781" ry="5.62583" transform="matrix(-0.985492 -0.160045 -0.149192 0.990453 26.2534 26.3735)" fill="white"/>
<mask id="mask1_1261_4304" style="mask-type:alpha" maskUnits="userSpaceOnUse" x="17" y="25" width="9" height="12">
<ellipse cx="3.86195" cy="5.62183" rx="3.86195" ry="5.62183" transform="matrix(-0.985208 -0.16048 -0.148767 0.99074 26.2539 26.3784)" fill="white"/>
</mask>
<g mask="url(#mask1_1261_4304)">
<ellipse cx="3.41112" cy="4.16364" rx="3.41112" ry="4.16364" transform="matrix(-0.954938 -0.296904 -0.283472 0.95901 26.9692 29.3887)" fill="black"/>
</g>
<path d="M20.68 31.4261C20.682 32.0357 21.0074 32.531 21.4067 32.5324C21.8061 32.5337 22.1282 32.0407 22.1262 31.4311C22.1242 30.8215 21.7988 30.3262 21.3994 30.3248C21.0001 30.3235 20.678 30.8165 20.68 31.4261Z" fill="white"/>
<path d="M25.8248 6.7818C25.3585 5.36216 24.7056 4.03717 23.6797 3.28003C22.6539 2.52289 20.6021 2.04968 17.9907 2.52289C18.6436 4.69967 19.6694 5.93002 20.7886 6.49787C22.001 7.16037 23.9595 7.16037 25.8248 6.7818Z" fill="#49CE7F"/>
<path d="M26.6021 6.67855C26.5593 5.34044 26.9169 4.02057 27.628 2.89285C28.4673 1.94642 29.6798 1.09464 32.1979 1C32.1046 3.17678 31.545 4.40713 30.6124 5.35355C29.6798 6.11069 28.3741 6.58391 26.6021 6.67855Z" fill="#49CE7F"/>
<path d="M25.8248 6.7818C25.3585 5.36216 24.7056 4.03717 23.6797 3.28003C22.6539 2.52289 20.6021 2.04968 17.9907 2.52289C18.6436 4.69967 19.6694 5.93002 20.7886 6.49787C22.001 7.16037 23.9595 7.16037 25.8248 6.7818Z" stroke="#49CE7F" stroke-linecap="round" stroke-linejoin="round"/>
<path d="M26.6021 6.67855C26.5593 5.34044 26.9169 4.02057 27.628 2.89285C28.4673 1.94642 29.6798 1.09464 32.1979 1C32.1046 3.17678 31.545 4.40713 30.6124 5.35355C29.6798 6.11069 28.3741 6.58391 26.6021 6.67855Z" stroke="#49CE7F" stroke-linecap="round" stroke-linejoin="round"/>
</svg>
