<svg width="50" height="48" viewBox="0 0 50 48" fill="none" xmlns="http://www.w3.org/2000/svg">
<path d="M7.88462 28.2513L6.34395 38.7058C5.73165 42.8607 8.8904 46.6158 13.0888 46.724L34.3551 47.2721C38.6399 47.3826 42.0168 43.651 41.4805 39.3985L39.8077 26.1359L45.472 28.3081C46.5393 28.7174 47.7487 28.3739 48.4415 27.4646C49.3025 26.3346 49.0853 24.7206 47.9562 23.8584L29.2484 9.57245C26.74 7.65694 23.26 7.65694 20.7516 9.57244L2.24942 23.7014C1.00396 24.6525 0.757923 26.4297 1.69817 27.6833C2.33149 28.5278 3.37904 28.9539 4.42197 28.7912L7.88462 28.2513Z" fill="#FFDB5D"/>
<path d="M17.877 36.5924C18.0619 39.7411 29.6474 37.6084 30.5843 34.5857" stroke="black" stroke-linecap="round"/>
<ellipse cx="3.6089" cy="5.25945" rx="3.6089" ry="5.25945" transform="matrix(-0.98734 -0.15862 -0.15862 0.98734 30.5723 24.1995)" fill="white"/>
<mask id="mask0_847_4443" style="mask-type:alpha" maskUnits="userSpaceOnUse" x="22" y="23" width="8" height="12">
<ellipse cx="3.6089" cy="5.25945" rx="3.6089" ry="5.25945" transform="matrix(-0.98734 -0.15862 -0.15862 0.98734 30.5723 24.1994)" fill="white"/>
</mask>
<g mask="url(#mask0_847_4443)">
<ellipse cx="3.19403" cy="3.8944" rx="3.19403" ry="3.8944" transform="matrix(-0.955792 -0.294044 -0.294044 0.955792 31.2354 27.0077)" fill="black"/>
</g>
<ellipse cx="0.68562" cy="1.02843" rx="0.68562" ry="1.02843" transform="matrix(-1 0 0 1 26.3701 28.2516)" fill="white"/>
<ellipse cx="3.6089" cy="5.25945" rx="3.6089" ry="5.25945" transform="matrix(-0.987983 -0.154564 -0.154564 0.987983 24.7676 24.5559)" fill="white"/>
<mask id="mask1_847_4443" style="mask-type:alpha" maskUnits="userSpaceOnUse" x="16" y="23" width="9" height="12">
<ellipse cx="3.6089" cy="5.25945" rx="3.6089" ry="5.25945" transform="matrix(-0.987983 -0.154564 -0.154564 0.987983 24.7676 24.556)" fill="white"/>
</mask>
<g mask="url(#mask1_847_4443)">
<ellipse cx="3.19403" cy="3.8944" rx="3.19403" ry="3.8944" transform="matrix(-0.956991 -0.290116 -0.290116 0.956991 25.4424 27.3613)" fill="black"/>
</g>
<path d="M19.5057 29.2877C19.5057 29.8556 19.8126 30.3161 20.1913 30.3161C20.57 30.3161 20.8769 29.8556 20.8769 29.2877C20.8769 28.7197 20.57 28.2592 20.1913 28.2592C19.8126 28.2592 19.5057 28.7197 19.5057 29.2877Z" fill="white"/>
<path d="M24.3633 6.375C23.9234 5.05525 23.3075 3.82348 22.3397 3.11961C21.3718 2.41574 19.4362 1.97582 16.9727 2.41574C17.5885 4.43936 18.5564 5.58315 19.6122 6.11105C20.7559 6.72693 22.6036 6.72693 24.3633 6.375Z" fill="#49CE7F"/>
<path d="M25.0966 6.27901C25.0562 5.03506 25.3936 3.80805 26.0644 2.75967C26.8563 1.87983 28.0001 1.08798 30.3756 1C30.2876 3.02362 29.7597 4.16741 28.8799 5.04725C28.0001 5.75111 26.7683 6.19103 25.0966 6.27901Z" fill="#49CE7F"/>
<path d="M24.3633 6.375C23.9234 5.05525 23.3075 3.82348 22.3397 3.11961C21.3718 2.41574 19.4362 1.97582 16.9727 2.41574C17.5885 4.43936 18.5564 5.58315 19.6122 6.11105C20.7559 6.72693 22.6036 6.72693 24.3633 6.375Z" stroke="#49CE7F" stroke-width="2" stroke-linecap="round" stroke-linejoin="round"/>
<path d="M25.0966 6.27901C25.0562 5.03506 25.3936 3.80805 26.0644 2.75967C26.8563 1.87983 28.0001 1.08798 30.3756 1C30.2876 3.02362 29.7597 4.16741 28.8799 5.04725C28.0001 5.75111 26.7683 6.19103 25.0966 6.27901Z" stroke="#49CE7F" stroke-width="2" stroke-linecap="round" stroke-linejoin="round"/>
</svg>
