<svg width="15" height="15" viewBox="0 0 20 20" fill="none" xmlns="http://www.w3.org/2000/svg">
<path d="M0.486413 0.52966C0.798266 0.21885 1.221 0.0442704 1.66175 0.0442704C2.1025 0.0442704 2.52524 0.21885 2.83709 0.52966L9.97782 7.65538L17.1186 0.52966C17.3218 0.311187 17.5804 0.151475 17.8671 0.0673512C18.1537 -0.0167725 18.4577 -0.0221929 18.7472 0.0516606C19.0366 0.125514 19.3008 0.275907 19.5117 0.486995C19.7227 0.698083 19.8728 0.962049 19.946 1.25108C20.0199 1.53961 20.0146 1.84266 19.9307 2.12845C19.8468 2.41423 19.6874 2.67223 19.4692 2.8754L12.3285 10.0011L19.4692 17.1268C19.6882 17.3297 19.8482 17.5877 19.9325 17.8738C20.0168 18.1598 20.0222 18.4632 19.9482 18.752C19.8742 19.0409 19.7235 19.3045 19.512 19.515C19.3004 19.7255 19.0359 19.8753 18.7463 19.9484C18.4571 20.0221 18.1535 20.0168 17.8671 19.9331C17.5807 19.8494 17.3221 19.6903 17.1186 19.4726L9.97782 12.3469L2.83709 19.4726C2.52186 19.7661 2.10473 19.926 1.67364 19.9186C1.24256 19.9111 0.831207 19.737 0.52633 19.4327C0.221467 19.1285 0.04691 18.718 0.0394632 18.2878C0.0320164 17.8577 0.192262 17.4414 0.486413 17.1268L7.62714 10.0011L0.486413 2.8754C0.174947 2.5642 0 2.14235 0 1.70253C0 1.2627 0.174947 0.840858 0.486413 0.52966Z" fill="#444444"/>
</svg>
