<svg width="102" height="121" viewBox="0 0 102 121" fill="none" xmlns="http://www.w3.org/2000/svg">
<path d="M81.7905 20.9747C82.0541 21.1608 82.3558 21.286 82.6738 21.3412C82.9917 21.3963 83.3179 21.3801 83.6288 21.2936C83.9397 21.2071 84.2274 21.0525 84.4712 20.8411C84.715 20.6297 84.9087 20.3667 85.0383 20.0712L86.0674 16.9438C86.3177 16.1913 86.7398 15.5075 87.3003 14.9466C87.8608 14.3856 88.5442 13.963 89.2964 13.7121L92.2876 12.7404C92.7127 12.5925 93.0803 12.3142 93.3381 11.9452C93.5371 11.6654 93.6667 11.3423 93.7163 11.0025C93.7658 10.6628 93.7338 10.3161 93.623 9.99117C93.5121 9.66621 93.3256 9.37227 93.0788 9.13361C92.8319 8.89495 92.5319 8.71842 92.2034 8.61857L89.243 7.65628C88.4903 7.40661 87.8062 6.98506 87.2448 6.42504C86.6834 5.86503 86.2601 5.18194 86.0086 4.42992L85.037 1.44012C84.8876 1.01652 84.6101 0.64986 84.2431 0.390953C83.8738 0.136345 83.4359 0 82.9874 0C82.5389 0 82.101 0.136345 81.7317 0.390953C81.359 0.654534 81.0785 1.02855 80.9298 1.46017L79.9461 4.48739C79.6952 5.21988 79.281 5.8857 78.7347 6.43448C78.1885 6.98325 77.5246 7.4006 76.7933 7.65494L73.7995 8.62525C73.3735 8.77584 73.005 9.05547 72.7453 9.42523C72.4857 9.795 72.3477 10.2365 72.3506 10.6883C72.3536 11.1402 72.4973 11.5798 72.7617 11.9462C73.0262 12.3125 73.3983 12.5873 73.8262 12.7324L76.7879 13.6947C77.7482 14.0169 78.5923 14.6147 79.2151 15.4134C79.5706 15.8719 79.8446 16.3864 80.025 16.9371L80.998 19.9229C81.1477 20.3479 81.4257 20.7154 81.7932 20.9747M94.8163 29.1007C95.0883 29.293 95.4134 29.3957 95.7465 29.3948C96.0773 29.3958 96.4004 29.2945 96.6714 29.1048C96.9504 28.9077 97.1592 28.6268 97.2674 28.3028L97.7646 26.7752C97.8698 26.458 98.0474 26.1697 98.2833 25.9331C98.5192 25.6965 98.807 25.518 99.1239 25.4119L100.682 24.9067C100.997 24.7951 101.269 24.589 101.461 24.3168C101.654 24.0445 101.758 23.7193 101.758 23.3858C101.758 23.0435 101.649 22.7103 101.446 22.4347C101.243 22.1591 100.957 21.9557 100.63 21.8541L99.1012 21.3596C98.7838 21.2543 98.4954 21.0765 98.2588 20.8404C98.0222 20.6042 97.8438 20.3161 97.7379 19.999L97.23 18.4447C97.1205 18.1274 96.9142 17.8525 96.6402 17.6587C96.3662 17.4649 96.0383 17.3619 95.7027 17.3643C95.3671 17.3666 95.0407 17.4742 94.7695 17.6719C94.4982 17.8695 94.2958 18.1473 94.1908 18.4661L93.6909 19.9977C93.5885 20.3107 93.4156 20.5961 93.1855 20.8317C92.9554 21.0674 92.6742 21.2471 92.3638 21.3569L90.8054 21.8622C90.4904 21.9734 90.2176 22.1795 90.0244 22.4521C89.8313 22.7247 89.7273 23.0504 89.7268 23.3844C89.7271 23.7214 89.8336 24.0496 90.031 24.3226C90.2285 24.5957 90.5069 24.7996 90.8268 24.9054L92.3557 25.4026C92.6743 25.5076 92.9636 25.6861 93.2005 25.9236C93.4373 26.1611 93.6149 26.451 93.719 26.7699L94.2255 28.3242C94.3361 28.6383 94.5416 28.9101 94.8136 29.1021" fill="#FFDB5D"/>
<rect x="41.165" y="58.0044" width="11.2268" height="47.4019" fill="#D9D9D9"/>
<ellipse cx="46.7783" cy="57.6925" rx="17.4639" ry="17.152" fill="#FFDB5D"/>
<path d="M3.00022 64.2414C1.34337 64.2414 -0.00980248 62.8969 0.0963833 61.2435C0.425029 56.126 1.5934 51.0904 3.561 46.3402C5.91182 40.6648 9.35748 35.508 13.7012 31.1643C18.045 26.8205 23.2018 23.3748 28.8772 21.024C34.5526 18.6732 40.6354 17.4632 46.7784 17.4632C52.9214 17.4632 59.0043 18.6732 64.6797 21.024C70.3551 23.3749 75.5119 26.8205 79.8556 31.1643C84.1994 35.508 87.645 40.6648 89.9959 46.3402C91.9635 51.0904 93.1318 56.126 93.4605 61.2435C93.5667 62.8969 92.2135 64.2415 90.5566 64.2415L46.7784 64.2414L3.00022 64.2414Z" fill="#5F79FF"/>
<path d="M22.9586 110.084C21.3018 110.084 19.9571 108.655 20.8657 107.269C21.1692 106.807 21.5478 106.352 22.0002 105.907C23.348 104.583 25.3235 103.38 27.8139 102.366C30.3043 101.353 33.2609 100.549 36.5148 100C39.7687 99.4515 43.2562 99.1692 46.7782 99.1692C50.3001 99.1692 53.7876 99.4515 57.0415 100C60.2954 100.549 63.252 101.353 65.7424 102.366C68.2328 103.38 70.2083 104.583 71.5561 105.907C72.0085 106.352 72.3871 106.807 72.6906 107.269C73.5992 108.655 72.2545 110.084 70.5977 110.084L46.7782 110.084L22.9586 110.084Z" fill="#D9D9D9"/>
<ellipse cx="35.8628" cy="23.653" rx="8.69978" ry="12.6787" transform="rotate(7.97338 35.8628 23.653)" fill="white"/>
<mask id="mask0_859_4480" style="mask-type:alpha" maskUnits="userSpaceOnUse" x="27" y="11" width="18" height="26">
<ellipse cx="35.8628" cy="23.6533" rx="8.69978" ry="12.6787" transform="rotate(7.97338 35.8628 23.6533)" fill="white"/>
</mask>
<g mask="url(#mask0_859_4480)">
<ellipse cx="33.187" cy="28.0216" rx="7.69968" ry="9.38802" fill="black"/>
</g>
<ellipse cx="53.4107" cy="23.7422" rx="8.69978" ry="12.6787" transform="rotate(7.97338 53.4107 23.7422)" fill="white"/>
<mask id="mask1_859_4480" style="mask-type:alpha" maskUnits="userSpaceOnUse" x="44" y="11" width="19" height="26">
<ellipse cx="53.4107" cy="23.7425" rx="8.69978" ry="12.6787" transform="rotate(7.97338 53.4107 23.7425)" fill="white"/>
</mask>
<g mask="url(#mask1_859_4480)">
<ellipse cx="50.7348" cy="28.1108" rx="7.69968" ry="9.38802" fill="black"/>
</g>
<path d="M35.0272 42.5503C34.9782 48.2077 40.7347 50.1217 44.4771 46.1073" stroke="black" stroke-width="2" stroke-linecap="round"/>
<path d="M61.2574 10.8631C58.0771 7.31801 53.9287 7.18095 50.3631 10.4378" stroke="black" stroke-width="2" stroke-linecap="round"/>
<path d="M42.7438 10.8631C39.5634 7.31801 35.415 7.18095 31.8494 10.4378" stroke="black" stroke-width="2" stroke-linecap="round"/>
<ellipse cx="50.6037" cy="29.4654" rx="1.64565" ry="2.43419" fill="white"/>
<ellipse cx="32.09" cy="29.4654" rx="1.64565" ry="2.43419" fill="white"/>
</svg>
