<svg width="22" height="20" viewBox="0 0 22 20" fill="none" xmlns="http://www.w3.org/2000/svg">
<path opacity="0.12" d="M11.0269 14.1667C12.3017 11.6667 16.126 10.0531 16.126 6.66667C16.126 3.90524 13.8431 1.66667 11.0269 1.66667C8.2107 1.66667 5.92773 3.90524 5.92773 6.66667C5.92773 10.0531 9.7521 11.6667 11.0269 14.1667Z" fill="#7C7C7C"/>
<path d="M11.0269 14.1667C12.3017 11.6667 16.126 10.0531 16.126 6.66667C16.126 3.90524 13.8431 1.66667 11.0269 1.66667C8.2107 1.66667 5.92773 3.90524 5.92773 6.66667C5.92773 10.0531 9.7521 11.6667 11.0269 14.1667Z" stroke="#7C7C7C" stroke-width="1.5" stroke-linecap="round" stroke-linejoin="round"/>
<path d="M11.0269 7.5C11.4962 7.5 11.8767 7.12691 11.8767 6.66667C11.8767 6.20643 11.4962 5.83333 11.0269 5.83333C10.5575 5.83333 10.177 6.20643 10.177 6.66667C10.177 7.12691 10.5575 7.5 11.0269 7.5Z" stroke="#7C7C7C" stroke-width="1.5" stroke-linecap="round" stroke-linejoin="round"/>
</svg>
