<svg width="23" height="23" viewBox="0 0 23 23" fill="none" xmlns="http://www.w3.org/2000/svg">
<path d="M23 6.08844C23 7.70319 22.3586 9.25181 21.2168 10.3936C20.075 11.5354 18.5265 12.1769 16.9118 12.1769C15.2971 12.1769 13.7485 11.5354 12.6067 10.3936C11.465 9.25181 10.8235 7.70319 10.8235 6.08844C10.8235 4.47368 11.465 2.92507 12.6067 1.78326C13.7485 0.641458 15.2971 0 16.9118 0C18.5265 0 20.075 0.641458 21.2168 1.78326C22.3586 2.92507 23 4.47368 23 6.08844ZM17.5882 3.38247C17.5882 3.20305 17.517 3.03098 17.3901 2.90411C17.2632 2.77725 17.0912 2.70597 16.9118 2.70597C16.7324 2.70597 16.5603 2.77725 16.4334 2.90411C16.3066 3.03098 16.2353 3.20305 16.2353 3.38247V5.41195H14.2059C14.0265 5.41195 13.8544 5.48322 13.7275 5.61009C13.6007 5.73695 13.5294 5.90902 13.5294 6.08844C13.5294 6.26786 13.6007 6.43992 13.7275 6.56679C13.8544 6.69366 14.0265 6.76493 14.2059 6.76493H16.2353V8.79441C16.2353 8.97383 16.3066 9.1459 16.4334 9.27276C16.5603 9.39963 16.7324 9.4709 16.9118 9.4709C17.0912 9.4709 17.2632 9.39963 17.3901 9.27276C17.517 9.1459 17.5882 8.97383 17.5882 8.79441V6.76493H19.6176C19.7971 6.76493 19.9691 6.69366 20.096 6.56679C20.2228 6.43992 20.2941 6.26786 20.2941 6.08844C20.2941 5.90902 20.2228 5.73695 20.096 5.61009C19.9691 5.48322 19.7971 5.41195 19.6176 5.41195H17.5882V3.38247ZM20.2941 15.2563V12.7181C20.7761 12.4719 21.2297 12.1738 21.6471 11.8292V15.2563C21.6471 17.1748 20.0722 18.728 18.1294 18.728H11.9194L6.49276 22.7342C6.20463 22.9462 5.84487 23.0367 5.49073 22.9864C5.13659 22.9361 4.8163 22.7489 4.59865 22.465C4.42451 22.2352 4.32999 21.955 4.32941 21.6667V18.728H3.51765C1.57482 18.728 0 17.1735 0 15.2563V6.17774C0 4.26055 1.57482 2.70597 3.51765 2.70597H10.2824C10.0614 3.13853 9.8833 3.59169 9.75065 4.05896H3.51765C2.30541 4.05896 1.35294 5.02364 1.35294 6.17774V15.2563C1.35294 16.4104 2.30541 17.3751 3.51765 17.3751H5.68235V21.6478H5.68641L5.68912 21.6464L11.4743 17.3751H18.1294C19.3416 17.3751 20.2941 16.4104 20.2941 15.2563Z" fill="#7C7C7C"/>
</svg>
