<svg width="23" height="23" viewBox="0 0 23 23" fill="none" xmlns="http://www.w3.org/2000/svg">
<path d="M12.8529 0C12.3147 0 11.7985 0.21382 11.4179 0.594421C11.0373 0.975022 10.8235 1.49123 10.8235 2.02948V8.79441C10.8235 9.33266 11.0373 9.84887 11.4179 10.2295C11.7985 10.6101 12.3147 10.8239 12.8529 10.8239H20.9706C21.5088 10.8239 22.025 10.6101 22.4056 10.2295C22.7862 9.84887 23 9.33266 23 8.79441V2.02948C23 1.49123 22.7862 0.975022 22.4056 0.594421C22.025 0.21382 21.5088 0 20.9706 0H12.8529ZM14.2059 6.76493H19.6176C19.7971 6.76493 19.9691 6.8362 20.096 6.96307C20.2228 7.08994 20.2941 7.26201 20.2941 7.44142C20.2941 7.62084 20.2228 7.79291 20.096 7.91978C19.9691 8.04664 19.7971 8.11792 19.6176 8.11792H14.2059C14.0265 8.11792 13.8544 8.04664 13.7275 7.91978C13.6007 7.79291 13.5294 7.62084 13.5294 7.44142C13.5294 7.26201 13.6007 7.08994 13.7275 6.96307C13.8544 6.8362 14.0265 6.76493 14.2059 6.76493ZM13.5294 3.38247C13.5294 3.20305 13.6007 3.03098 13.7275 2.90411C13.8544 2.77725 14.0265 2.70597 14.2059 2.70597H19.6176C19.7971 2.70597 19.9691 2.77725 20.096 2.90411C20.2228 3.03098 20.2941 3.20305 20.2941 3.38247C20.2941 3.56188 20.2228 3.73395 20.096 3.86082C19.9691 3.98769 19.7971 4.05896 19.6176 4.05896H14.2059C14.0265 4.05896 13.8544 3.98769 13.7275 3.86082C13.6007 3.73395 13.5294 3.56188 13.5294 3.38247ZM3.51765 2.70597H9.47059V4.05896H3.51765C2.30541 4.05896 1.35294 5.02364 1.35294 6.17774V15.2563C1.35294 16.4104 2.30541 17.375 3.51765 17.375H5.68235V21.6478H5.68641L5.68912 21.6464L11.4743 17.375H18.1294C19.3416 17.375 20.2941 16.4104 20.2941 15.2563V12.1769H20.9706C21.2024 12.1769 21.4279 12.1543 21.6471 12.1092V15.2563C21.6471 17.1748 20.0722 18.728 18.1294 18.728H11.9194L6.49276 22.7342C6.20463 22.9462 5.84487 23.0367 5.49073 22.9864C5.13659 22.9361 4.8163 22.7489 4.59865 22.465C4.42451 22.2352 4.32999 21.955 4.32941 21.6667V18.728H3.51765C1.57482 18.728 0 17.1735 0 15.2563V6.17774C0 4.26055 1.57482 2.70597 3.51765 2.70597Z" fill="#7C7C7C"/>
</svg>
