<svg width="22" height="20" viewBox="0 0 22 20" fill="none" xmlns="http://www.w3.org/2000/svg">
<path d="M7.88336 12.4583C7.88336 12.4583 9.25055 14.0208 11.5292 14.0208C13.8078 14.0208 15.175 12.4583 15.175 12.4583M14.3938 7.25H14.4042M8.66461 7.25H8.67502M11.5292 18.7083C16.4192 18.7083 20.3834 14.7442 20.3834 9.85417C20.3834 4.96415 16.4192 1 11.5292 1C6.63917 1 2.67502 4.96415 2.67502 9.85417C2.67502 10.8437 2.83737 11.7954 3.13687 12.684C3.24958 13.0184 3.30593 13.1855 3.31609 13.314C3.32613 13.4408 3.31855 13.5298 3.28716 13.6531C3.25539 13.7779 3.18523 13.9078 3.04491 14.1675L1.3411 17.3212C1.09807 17.771 0.976555 17.996 1.00375 18.1696C1.02744 18.3208 1.11643 18.4539 1.24708 18.5336C1.39708 18.6251 1.65138 18.5988 2.15996 18.5462L7.49436 17.9948C7.6559 17.9781 7.73667 17.9698 7.8103 17.9726C7.88271 17.9753 7.93382 17.9821 8.00443 17.9984C8.07623 18.015 8.1665 18.0497 8.34706 18.1193C9.33462 18.4998 10.4075 18.7083 11.5292 18.7083ZM14.9146 7.25C14.9146 7.53765 14.6814 7.77083 14.3938 7.77083C14.1061 7.77083 13.8729 7.53765 13.8729 7.25C13.8729 6.96235 14.1061 6.72917 14.3938 6.72917C14.6814 6.72917 14.9146 6.96235 14.9146 7.25ZM9.18544 7.25C9.18544 7.53765 8.95226 7.77083 8.66461 7.77083C8.37696 7.77083 8.14377 7.53765 8.14377 7.25C8.14377 6.96235 8.37696 6.72917 8.66461 6.72917C8.95226 6.72917 9.18544 6.96235 9.18544 7.25Z" stroke="#A6A6A6" stroke-width="2" stroke-linecap="round" stroke-linejoin="round"/>
</svg>
