<svg width="25" height="25" viewBox="0 0 25 25" fill="none" xmlns="http://www.w3.org/2000/svg">
<path opacity="0.12" d="M21.8751 11.9792C21.8751 16.8692 17.911 20.8333 13.021 20.8333C11.8993 20.8333 10.8264 20.6248 9.83882 20.2443C9.65826 20.1747 9.56799 20.14 9.49619 20.1234C9.42558 20.1071 9.37447 20.1003 9.30206 20.0976C9.22844 20.0948 9.14766 20.1031 8.98612 20.1198L3.65172 20.6712C3.14314 20.7238 2.88884 20.7501 2.73884 20.6586C2.60819 20.5789 2.5192 20.4458 2.49551 20.2946C2.46832 20.121 2.58983 19.896 2.83286 19.4462L4.53667 16.2925C4.67699 16.0328 4.74715 15.9029 4.77892 15.7781C4.81031 15.6548 4.81789 15.5658 4.80786 15.439C4.79769 15.3105 4.74134 15.1434 4.62863 14.809C4.32913 13.9204 4.16678 12.9687 4.16678 11.9792C4.16678 7.08915 8.13093 3.125 13.021 3.125C17.911 3.125 21.8751 7.08915 21.8751 11.9792Z" fill="#49CE7F"/>
<path d="M9.37512 14.5833C9.37512 14.5833 10.7423 16.1458 13.021 16.1458C15.2996 16.1458 16.6668 14.5833 16.6668 14.5833M15.8855 9.375H15.896M10.1564 9.375H10.1668M13.021 20.8333C17.911 20.8333 21.8751 16.8692 21.8751 11.9792C21.8751 7.08915 17.911 3.125 13.021 3.125C8.13093 3.125 4.16678 7.08915 4.16678 11.9792C4.16678 12.9687 4.32913 13.9204 4.62863 14.809C4.74134 15.1434 4.79769 15.3105 4.80786 15.439C4.81789 15.5658 4.81031 15.6548 4.77892 15.7781C4.74715 15.9029 4.67699 16.0328 4.53667 16.2925L2.83286 19.4462C2.58983 19.896 2.46832 20.121 2.49551 20.2946C2.5192 20.4458 2.60819 20.5789 2.73884 20.6586C2.88884 20.7501 3.14314 20.7238 3.65172 20.6712L8.98612 20.1198C9.14766 20.1031 9.22844 20.0948 9.30206 20.0976C9.37447 20.1003 9.42558 20.1071 9.49619 20.1234C9.56799 20.14 9.65826 20.1747 9.83882 20.2443C10.8264 20.6248 11.8993 20.8333 13.021 20.8333ZM16.4064 9.375C16.4064 9.66265 16.1732 9.89583 15.8855 9.89583C15.5979 9.89583 15.3647 9.66265 15.3647 9.375C15.3647 9.08735 15.5979 8.85417 15.8855 8.85417C16.1732 8.85417 16.4064 9.08735 16.4064 9.375ZM10.6772 9.375C10.6772 9.66265 10.444 9.89583 10.1564 9.89583C9.86872 9.89583 9.63553 9.66265 9.63553 9.375C9.63553 9.08735 9.86872 8.85417 10.1564 8.85417C10.444 8.85417 10.6772 9.08735 10.6772 9.375Z" stroke="#49CE7F" stroke-width="2" stroke-linecap="round" stroke-linejoin="round"/>
</svg>
