<svg width="40" height="40" viewBox="0 0 43 43" fill="none" xmlns="http://www.w3.org/2000/svg">
<path d="M21.7444 41.4888C32.649 41.4888 41.4888 32.649 41.4888 21.7444C41.4888 10.8399 32.649 2 21.7444 2C10.8399 2 2 10.8399 2 21.7444C2 32.649 10.8399 41.4888 21.7444 41.4888Z" fill="#FEBDAF" stroke="#FC7254" stroke-width="2.1"/>
<path d="M18.0001 30C18.9922 28.7394 20.1988 28 21.5001 28C22.8014 28 24.0079 28.7394 25.0001 30" stroke="#FC7254" stroke-width="2.1" stroke-linecap="round"/>
<path d="M27 24C28.1046 24 29 22.433 29 20.5C29 18.567 28.1046 17 27 17C25.8954 17 25 18.567 25 20.5C25 22.433 25.8954 24 27 24Z" fill="#FC7254"/>
<path d="M16 24C17.1046 24 18 22.433 18 20.5C18 18.567 17.1046 17 16 17C14.8954 17 14 18.567 14 20.5C14 22.433 14.8954 24 16 24Z" fill="#FC7254"/>
</svg>
