<svg width="40" height="40" viewBox="0 0 43 43" fill="none" xmlns="http://www.w3.org/2000/svg">
<path d="M21.7444 41.4888C32.649 41.4888 41.4888 32.649 41.4888 21.7444C41.4888 10.8399 32.649 2 21.7444 2C10.8399 2 2 10.8399 2 21.7444C2 32.649 10.8399 41.4888 21.7444 41.4888Z" fill="#EFEFEF" stroke="#C7C7C7" stroke-width="2.1"/>
<path d="M18 29L20.64 29.069C21.7554 29.0742 23.9999 29.0275 23.9999 29.0275" stroke="#C7C7C7" stroke-width="2.1" stroke-linecap="round"/>
<path d="M26.4131 24C27.5177 24 28.4131 22.433 28.4131 20.5C28.4131 18.567 27.5177 17 26.4131 17C25.3085 17 24.4131 18.567 24.4131 20.5C24.4131 22.433 25.3085 24 26.4131 24Z" fill="#C7C7C7"/>
<path d="M15.4131 24C16.5177 24 17.4131 22.433 17.4131 20.5C17.4131 18.567 16.5177 17 15.4131 17C14.3085 17 13.4131 18.567 13.4131 20.5C13.4131 22.433 14.3085 24 15.4131 24Z" fill="#C7C7C7"/>
</svg>