<svg width="43" height="43" viewBox="0 0 43 43" fill="none" xmlns="http://www.w3.org/2000/svg">
<path d="M21.7444 41.4888C32.649 41.4888 41.4888 32.649 41.4888 21.7444C41.4888 10.8399 32.649 2 21.7444 2C10.8399 2 2 10.8399 2 21.7444C2 32.649 10.8399 41.4888 21.7444 41.4888Z" fill="#FFF4CC" stroke="#FFBC0A" stroke-width="2.1"/>
<path d="M25.4175 28.5555C24.175 29.254 22.6692 29.6546 21.0505 29.6357C19.4318 29.6168 17.9357 29.1812 16.7099 28.4539" stroke="#FFBC0A" stroke-width="2.1" stroke-linecap="round"/>
<path d="M26.4141 24C27.5186 24 28.4141 22.433 28.4141 20.5C28.4141 18.567 27.5186 17 26.4141 17C25.3095 17 24.4141 18.567 24.4141 20.5C24.4141 22.433 25.3095 24 26.4141 24Z" fill="#FFBC0A"/>
<path d="M15.4141 24C16.5186 24 17.4141 22.433 17.4141 20.5C17.4141 18.567 16.5186 17 15.4141 17C14.3095 17 13.4141 18.567 13.4141 20.5C13.4141 22.433 14.3095 24 15.4141 24Z" fill="#FFBC0A"/>
</svg>
