<svg width="43" height="43" viewBox="0 0 43 43" fill="none" xmlns="http://www.w3.org/2000/svg">
<path d="M21.7444 41.4888C32.649 41.4888 41.4888 32.649 41.4888 21.7444C41.4888 10.8399 32.649 2 21.7444 2C10.8399 2 2 10.8399 2 21.7444C2 32.649 10.8399 41.4888 21.7444 41.4888Z" fill="#B9F8D4" stroke="#00C96B" stroke-width="2.1"/>
<mask id="mask0_2413_7376" style="mask-type:alpha" maskUnits="userSpaceOnUse" x="11" y="25" width="19" height="10">
<rect x="12.7303" y="26.4282" width="15.7411" height="7.55635" rx="3.77818" transform="rotate(-1.43546 12.7303 26.4282)" fill="#309A47" stroke="#49CE7F" stroke-width="2.1"/>
</mask>
<g mask="url(#mask0_2413_7376)">
<mask id="path-3-inside-1_2413_7376" fill="white">
<path d="M25.7595 25.6338C27.123 25.5996 28.2997 26.7235 27.7666 27.979V27.979C27.4413 28.7452 26.9543 29.4437 26.3343 30.0332C25.7142 30.6226 24.9738 31.0911 24.1567 31.411C23.3396 31.7309 22.4624 31.8957 21.5769 31.8956C20.6914 31.8956 19.8156 31.7307 19.0011 31.4107C18.1866 31.0907 17.45 30.622 16.8347 30.0325C16.2195 29.4429 15.7381 28.7444 15.419 27.9781V27.9781C14.8942 26.7178 16.0775 25.5987 17.4423 25.6331L21.6019 25.7379L25.7595 25.6338Z"/>
</mask>
<path d="M25.7595 25.6338C27.123 25.5996 28.2997 26.7235 27.7666 27.979V27.979C27.4413 28.7452 26.9543 29.4437 26.3343 30.0332C25.7142 30.6226 24.9738 31.0911 24.1567 31.411C23.3396 31.7309 22.4624 31.8957 21.5769 31.8956C20.6914 31.8956 19.8156 31.7307 19.0011 31.4107C18.1866 31.0907 17.45 30.622 16.8347 30.0325C16.2195 29.4429 15.7381 28.7444 15.419 27.9781V27.9781C14.8942 26.7178 16.0775 25.5987 17.4423 25.6331L21.6019 25.7379L25.7595 25.6338Z" fill="#00C96B" stroke="#00C96B" stroke-width="4.2" mask="url(#path-3-inside-1_2413_7376)"/>
</g>
<path d="M25.9567 20.5022C26.8057 19.4255 27.859 18.7781 29.0159 18.745C30.1728 18.7119 31.2649 19.2979 32.1799 20.3242" fill="#B9F8D4"/>
<path d="M25.9567 20.5022C26.8057 19.4255 27.859 18.7781 29.0159 18.745C30.1728 18.7119 31.2649 19.2979 32.1799 20.3242" stroke="#00C96B" stroke-width="2.1" stroke-linecap="round"/>
<path d="M10.9157 20.5022C11.7647 19.4255 12.818 18.7781 13.9749 18.745C15.1318 18.7119 16.2238 19.2979 17.1389 20.3242" fill="#B9F8D4"/>
<path d="M10.9157 20.5022C11.7647 19.4255 12.818 18.7781 13.9749 18.745C15.1318 18.7119 16.2238 19.2979 17.1389 20.3242" stroke="#00C96B" stroke-width="2.1" stroke-linecap="round"/>
</svg>
