<svg width="38" height="38" viewBox="0 0 43 43" fill="none" xmlns="http://www.w3.org/2000/svg">
<path d="M21.7444 41.4888C32.649 41.4888 41.4888 32.649 41.4888 21.7444C41.4888 10.8399 32.649 2 21.7444 2C10.8399 2 2 10.8399 2 21.7444C2 32.649 10.8399 41.4888 21.7444 41.4888Z" fill="#FFD5D5" stroke="#F37373" stroke-width="2.1"/>
<path d="M18.0001 29.5184C18.9922 28.2578 20.1988 27.5184 21.5001 27.5184C22.8014 27.5184 24.0079 28.2578 25.0001 29.5184" stroke="#F37373" stroke-width="2.1" stroke-linecap="round"/>
<path d="M27 23.5184C28.1046 23.5184 29 21.9514 29 20.0184C29 18.0854 28.1046 16.5184 27 16.5184C25.8954 16.5184 25 18.0854 25 20.0184C25 21.9514 25.8954 23.5184 27 23.5184Z" fill="#F37373"/>
<path d="M16 23.5184C17.1046 23.5184 18 21.9514 18 20.0184C18 18.0854 17.1046 16.5184 16 16.5184C14.8954 16.5184 14 18.0854 14 20.0184C14 21.9514 14.8954 23.5184 16 23.5184Z" fill="#F37373"/>
<path d="M18.0001 29.5184C18.9922 28.2578 20.1988 27.5184 21.5001 27.5184C22.8014 27.5184 24.0079 28.2578 25.0001 29.5184" stroke="#F37373" stroke-width="2.1" stroke-linecap="round"/>
<path d="M27 23.5184C28.1046 23.5184 29 21.9514 29 20.0184C29 18.0854 28.1046 16.5184 27 16.5184C25.8954 16.5184 25 18.0854 25 20.0184C25 21.9514 25.8954 23.5184 27 23.5184Z" fill="#F37373"/>
<path d="M16 23.5184C17.1046 23.5184 18 21.9514 18 20.0184C18 18.0854 17.1046 16.5184 16 16.5184C14.8954 16.5184 14 18.0854 14 20.0184C14 21.9514 14.8954 23.5184 16 23.5184Z" fill="#F37373"/>
</svg>