<svg width="20" height="20" viewBox="0 0 20 20" fill="none" xmlns="http://www.w3.org/2000/svg">
<g clip-path="url(#clip0_503_3987)">
<path fill-rule="evenodd" clip-rule="evenodd" d="M9.11669 6.61667C9.35106 6.38258 9.66877 6.2511 10 6.2511C10.3313 6.2511 10.649 6.38258 10.8834 6.61667L15.5984 11.33C15.7144 11.4461 15.8065 11.5839 15.8692 11.7356C15.932 11.8873 15.9643 12.0499 15.9643 12.214C15.9643 12.3782 15.9319 12.5408 15.869 12.6924C15.8062 12.8441 15.714 12.9819 15.5979 13.0979C15.4818 13.214 15.344 13.306 15.1923 13.3688C15.0406 13.4316 14.8781 13.4639 14.7139 13.4639C14.5497 13.4638 14.3872 13.4314 14.2355 13.3686C14.0839 13.3057 13.9461 13.2136 13.83 13.0975L10 9.26833L6.17002 13.0983C6.05477 13.2178 5.91688 13.3131 5.76441 13.3786C5.61194 13.4442 5.44793 13.4788 5.28196 13.4803C5.11598 13.4818 4.95137 13.4503 4.79772 13.3875C4.64407 13.3247 4.50446 13.232 4.38704 13.1147C4.26962 12.9974 4.17674 12.8578 4.11382 12.7042C4.05089 12.5507 4.01919 12.3861 4.02055 12.2201C4.02191 12.0541 4.05632 11.8901 4.12176 11.7375C4.1872 11.585 4.28236 11.447 4.40169 11.3317L9.11669 6.61667Z" fill="#444444"/>
</g>
<defs>
<clipPath id="clip0_503_3987">
<rect width="20" height="20" fill="white"/>
</clipPath>
</defs>
</svg>
