<svg width="20" height="20" viewBox="0 0 20 20" fill="none" xmlns="http://www.w3.org/2000/svg">
<path fill-rule="evenodd" clip-rule="evenodd" d="M10.8833 13.3833C10.6489 13.6174 10.3312 13.7489 9.99998 13.7489C9.66873 13.7489 9.35102 13.6174 9.11664 13.3833L4.40164 8.67C4.28559 8.55389 4.19354 8.41606 4.13075 8.26437C4.06796 8.11269 4.03567 7.95012 4.0357 7.78596C4.03574 7.62179 4.06812 7.45924 4.13098 7.30758C4.19384 7.15593 4.28595 7.01814 4.40206 6.90209C4.51817 6.78603 4.656 6.69398 4.80769 6.63119C4.95937 6.5684 5.12194 6.53611 5.28611 6.53615C5.45027 6.53618 5.61282 6.56856 5.76448 6.63142C5.91613 6.69428 6.05392 6.78639 6.16998 6.9025L9.99998 10.7317L13.83 6.90167C13.9452 6.78223 14.0831 6.68693 14.2356 6.62135C14.3881 6.55577 14.5521 6.52121 14.718 6.51969C14.884 6.51817 15.0486 6.54972 15.2023 6.6125C15.3559 6.67528 15.4955 6.76803 15.613 6.88534C15.7304 7.00265 15.8233 7.14217 15.8862 7.29576C15.9491 7.44935 15.9808 7.61393 15.9794 7.77991C15.9781 7.94588 15.9437 8.10992 15.8782 8.26246C15.8128 8.41499 15.7176 8.55297 15.5983 8.66833L10.8833 13.3833Z" fill="#444444"/>
</svg>
