<svg width="82" height="77" viewBox="0 0 82 77" fill="none" xmlns="http://www.w3.org/2000/svg">
<path d="M12.8114 45.2802L9.58844 67.1506C8.97614 71.3055 12.1349 75.0606 16.3333 75.1688L60.9119 76.3177C65.1967 76.4282 68.5736 72.6966 68.0372 68.4441L64.6821 41.843L73.8859 45.3726C75.6201 46.0377 77.5853 45.4795 78.7109 44.002C80.1099 42.1658 79.757 39.5434 77.9224 38.1424L44.87 12.9024C42.3616 10.9869 38.8816 10.9869 36.3732 12.9024L3.655 37.8873C1.63129 39.4326 1.23152 42.3204 2.75929 44.3574C3.78835 45.7295 5.49049 46.4218 7.1851 46.1576L12.8114 45.2802Z" fill="#FFDB5D"/>
<path d="M29.0497 58.8335C29.3501 63.9498 48.1749 60.4844 49.6973 55.5729" stroke="black" stroke-width="2" stroke-linecap="round"/>
<path d="M36.7437 45.2761C35.995 49.9362 37.9803 54.1303 41.1779 54.644C44.3754 55.1577 47.5745 51.7965 48.3232 47.1364C49.0718 42.4764 47.0866 38.2823 43.889 37.7686C40.6914 37.2549 37.4923 40.6161 36.7437 45.2761Z" fill="white"/>
<path d="M36.7437 45.2761C35.995 49.9362 37.9803 54.1303 41.1779 54.644C44.3754 55.1577 47.5745 51.7965 48.3232 47.1364C49.0718 42.4764 47.0866 38.2823 43.889 37.7686C40.6914 37.2549 37.4923 40.6161 36.7437 45.2761Z" stroke="black"/>
<mask id="mask0_500_4337" style="mask-type:alpha" maskUnits="userSpaceOnUse" x="36" y="37" width="13" height="18">
<path d="M36.7437 45.2761C35.995 49.9362 37.9803 54.1303 41.1779 54.644C44.3754 55.1577 47.5745 51.7965 48.3232 47.1364C49.0718 42.4764 47.0866 38.2823 43.889 37.7686C40.6914 37.2549 37.4923 40.6161 36.7437 45.2761Z" fill="white"/>
<path d="M36.7437 45.2761C35.995 49.9362 37.9803 54.1303 41.1779 54.644C44.3754 55.1577 47.5745 51.7965 48.3232 47.1364C49.0718 42.4764 47.0866 38.2823 43.889 37.7686C40.6914 37.2549 37.4923 40.6161 36.7437 45.2761Z" stroke="black"/>
</mask>
<g mask="url(#mask0_500_4337)">
<ellipse cx="5.18988" cy="6.32788" rx="5.18988" ry="6.32788" transform="matrix(-0.955792 -0.294044 -0.294044 0.955792 50.7559 43.2606)" fill="black"/>
</g>
<ellipse cx="1.11404" cy="1.67106" rx="1.11404" ry="1.67106" transform="matrix(-1 0 0 1 42.8496 45.2825)" fill="white"/>
<path d="M27.3362 45.9072C26.6067 50.5703 28.6092 54.7562 31.8088 55.2568C35.0085 55.7573 38.1937 52.383 38.9232 47.7199C39.6528 43.0569 37.6503 38.8709 34.4506 38.3704C31.251 37.8698 28.0657 41.2442 27.3362 45.9072Z" fill="white"/>
<path d="M27.3362 45.9072C26.6067 50.5703 28.6092 54.7562 31.8088 55.2568C35.0085 55.7573 38.1937 52.383 38.9232 47.7199C39.6528 43.0569 37.6503 38.8709 34.4506 38.3704C31.251 37.8698 28.0657 41.2442 27.3362 45.9072Z" stroke="black"/>
<mask id="mask1_500_4337" style="mask-type:alpha" maskUnits="userSpaceOnUse" x="27" y="38" width="13" height="18">
<path d="M27.3372 45.9057C26.6077 50.5688 28.6102 54.7547 31.8098 55.2553C35.0095 55.7559 38.1947 52.3815 38.9242 47.7185C39.6537 43.0554 37.6513 38.8695 34.4516 38.3689C31.2519 37.8683 28.0667 41.2427 27.3372 45.9057Z" fill="white"/>
<path d="M27.3372 45.9057C26.6077 50.5688 28.6102 54.7547 31.8098 55.2553C35.0095 55.7559 38.1947 52.3815 38.9242 47.7185C39.6537 43.0554 37.6513 38.8695 34.4516 38.3689C31.2519 37.8683 28.0667 41.2427 27.3372 45.9057Z" stroke="black"/>
</mask>
<g mask="url(#mask1_500_4337)">
<ellipse cx="5.18988" cy="6.32788" rx="5.18988" ry="6.32788" transform="matrix(-0.956991 -0.290116 -0.290116 0.956991 41.3408 43.8345)" fill="black"/>
</g>
<path d="M31.6947 46.9648C31.6947 47.8877 32.1935 48.6359 32.8087 48.6359C33.424 48.6359 33.9228 47.8877 33.9228 46.9648C33.9228 46.0419 33.424 45.2938 32.8087 45.2938C32.1935 45.2938 31.6947 46.0419 31.6947 46.9648Z" fill="white"/>
<path d="M33.9556 9.97148C36.923 10.4605 39.025 6.89802 36.8098 4.86394C36.6461 4.71371 36.4756 4.57341 36.2978 4.44408C35.5709 3.9154 34.5079 3.47837 33.1795 3.23182C30.2336 2.68508 28.1394 6.08239 30.2881 8.17055C30.7904 8.65878 31.321 9.03227 31.866 9.30477C32.4598 9.62449 33.1703 9.84207 33.9556 9.97148Z" fill="#49CE7F"/>
<path d="M45.6956 8.37653C43.2161 9.67908 40.604 7.14315 41.8907 4.65543C41.9686 4.50478 42.0505 4.35591 42.1362 4.20898C42.2737 3.97333 42.4395 3.75532 42.6303 3.56029C43.0604 3.12056 43.5565 2.70173 44.1624 2.33452C46.6594 0.821024 49.5538 3.70573 48.0248 6.19331C47.709 6.70714 47.3411 7.15987 46.9248 7.57623C46.5543 7.87263 46.1454 8.14023 45.6956 8.37653Z" fill="#49CE7F"/>
<path d="M33.9556 9.97148C36.923 10.4605 39.025 6.89802 36.8098 4.86394C36.6461 4.71371 36.4756 4.57341 36.2978 4.44408C35.5709 3.9154 34.5079 3.47837 33.1795 3.23182C30.2336 2.68508 28.1394 6.08239 30.2881 8.17055C30.7904 8.65878 31.321 9.03227 31.866 9.30477C32.4598 9.62449 33.1703 9.84207 33.9556 9.97148Z" stroke="#49CE7F" stroke-width="3" stroke-linecap="round" stroke-linejoin="round"/>
<path d="M45.6956 8.37653C43.2161 9.67908 40.604 7.14315 41.8907 4.65543C41.9686 4.50478 42.0505 4.35591 42.1362 4.20898C42.2737 3.97333 42.4395 3.75532 42.6303 3.56029C43.0604 3.12056 43.5565 2.70173 44.1624 2.33452C46.6594 0.821024 49.5538 3.70573 48.0248 6.19331C47.709 6.70714 47.3411 7.15987 46.9248 7.57623C46.5543 7.87263 46.1454 8.14023 45.6956 8.37653Z" stroke="#49CE7F" stroke-width="3" stroke-linecap="round" stroke-linejoin="round"/>
</svg>
