<svg width="49" height="25" viewBox="0 0 49 25" fill="none" xmlns="http://www.w3.org/2000/svg">
<path d="M26.1676 9.975C26.0676 10.0583 26.0176 10.225 26.0176 10.475V13.4C26.0176 13.65 26.0676 13.8167 26.1676 13.9C26.2676 13.9833 26.4342 14.025 26.6676 14.025H47.7676C48.0009 14.025 48.1676 13.9833 48.2676 13.9C48.3676 13.8167 48.4176 13.65 48.4176 13.4V10.475C48.4176 10.225 48.3676 10.0583 48.2676 9.975C48.1676 9.89167 48.0009 9.85 47.7676 9.85H26.6676C26.4342 9.85 26.2676 9.89167 26.1676 9.975Z" fill="black"/>
<path d="M41.6676 7.275C41.6342 7.54167 41.6092 7.73333 41.5926 7.85C41.5426 8.13333 41.6926 8.45 41.6926 8.45C41.6926 8.45 41.9842 8.64167 42.2176 8.675L45.4676 9.025C45.7509 9.05833 45.9426 9.03333 46.0426 8.95C46.1426 8.85 46.2092 8.675 46.2426 8.425C46.3759 7.625 46.5009 6.75 46.6176 5.8C46.7509 4.85 46.8176 3.90833 46.8176 2.975C46.8176 1.925 46.5926 1.16667 46.1426 0.7C45.6926 0.233333 45.0176 0 44.1176 0H38.3676C38.1342 0 37.9676 0.0416666 37.8676 0.125C37.7676 0.208333 37.7176 0.375 37.7176 0.624999V3.3C37.7176 3.55 37.7676 3.71667 37.8676 3.8C37.9676 3.88333 38.1342 3.925 38.3676 3.925H41.1176C41.4176 3.925 41.6509 4 41.8176 4.15C42.0009 4.3 42.0759 4.575 42.0426 4.975C42.0259 5.09167 41.9926 5.28333 41.9426 5.55C41.9092 5.81667 41.8676 6.10833 41.8176 6.425C41.7676 6.725 41.7176 7.00833 41.6676 7.275Z" fill="black"/>
<path d="M31.5426 7.275C31.5092 7.54167 31.4842 7.73333 31.4676 7.85C31.4176 8.13333 31.4509 8.33333 31.5676 8.45C31.6842 8.56667 31.8592 8.64167 32.0926 8.675L35.3426 9.025C35.6259 9.05833 35.8176 9.03333 35.9176 8.95C36.0176 8.85 36.0842 8.675 36.1176 8.425C36.2509 7.625 36.3759 6.75 36.4926 5.8C36.6259 4.85 36.6926 3.90833 36.6926 2.975C36.6926 1.925 36.4676 1.16667 36.0176 0.7C35.5676 0.233333 34.8926 0 33.9926 0H28.2426C28.0092 0 27.8426 0.0416666 27.7426 0.125C27.6426 0.208333 27.5926 0.375 27.5926 0.624999V3.3C27.5926 3.55 27.6426 3.71667 27.7426 3.8C27.8426 3.88333 28.0092 3.925 28.2426 3.925H30.9926C31.2926 3.925 31.5259 4 31.6926 4.15C31.8759 4.3 31.9509 4.575 31.9176 4.975C31.9009 5.09167 31.8676 5.28333 31.8176 5.55C31.7842 5.81667 31.7426 6.10833 31.6926 6.425C31.6426 6.725 31.5926 7.00833 31.5426 7.275Z" fill="black"/>
<path d="M40.0926 15.0754C40.0259 14.9587 39.8676 14.9004 39.6176 14.9004H36.1926C35.9426 14.9004 35.7759 14.9587 35.6926 15.0754C35.6259 15.1921 35.5926 15.3421 35.5926 15.5254C35.5759 16.7587 34.9592 17.7421 33.7426 18.4754C32.5426 19.1921 30.8342 19.6337 28.6176 19.8004C28.5676 19.8004 28.5009 19.8087 28.4176 19.8254C28.3342 19.8421 28.2509 19.8754 28.1676 19.9254C28.1009 19.9754 28.0426 20.0504 27.9926 20.1504C27.9426 20.2504 27.9176 20.3921 27.9176 20.5754V23.1504C27.9176 23.3337 27.9426 23.4754 27.9926 23.5754C28.0592 23.6754 28.1342 23.7421 28.2176 23.7754C28.3176 23.8254 28.4092 23.8504 28.4926 23.8504C28.5926 23.8671 28.6759 23.8754 28.7426 23.8754C29.8926 23.8421 30.9509 23.7254 31.9176 23.5254C32.9009 23.3254 33.7759 23.0754 34.5426 22.7754C35.3259 22.4754 35.9926 22.1337 36.5426 21.7504C37.1092 21.3671 37.5592 20.9754 37.8926 20.5754C38.2259 20.9754 38.6759 21.3671 39.2426 21.7504C39.8092 22.1337 40.4759 22.4754 41.2426 22.7754C42.0259 23.0754 42.9009 23.3254 43.8676 23.5254C44.8509 23.7254 45.9176 23.8421 47.0676 23.8754C47.1342 23.8754 47.2092 23.8671 47.2926 23.8504C47.3926 23.8504 47.4842 23.8254 47.5676 23.7754C47.6676 23.7421 47.7426 23.6754 47.7926 23.5754C47.8592 23.4754 47.8926 23.3337 47.8926 23.1504V20.5754C47.8926 20.3921 47.8676 20.2504 47.8176 20.1504C47.7676 20.0504 47.7009 19.9754 47.6176 19.9254C47.5509 19.8754 47.4759 19.8421 47.3926 19.8254C47.3092 19.8087 47.2426 19.8004 47.1926 19.8004C44.9759 19.6337 43.2592 19.1921 42.0426 18.4754C40.8426 17.7421 40.2342 16.7587 40.2176 15.5254C40.2176 15.3421 40.1759 15.1921 40.0926 15.0754Z" fill="black"/>
<path d="M4.575 2.725H8.975V0.749999C8.975 0.5 9.025 0.333333 9.125 0.25C9.225 0.166667 9.39167 0.125 9.625 0.125H12.9C13.1333 0.125 13.3 0.166667 13.4 0.25C13.5 0.333333 13.55 0.5 13.55 0.749999V9.525C13.55 10.575 13.325 11.3333 12.875 11.8C12.425 12.2667 11.75 12.5 10.85 12.5H2.7C1.8 12.5 1.125 12.2667 0.675 11.8C0.225 11.3333 0 10.575 0 9.525V0.749999C0 0.5 0.0500001 0.333333 0.15 0.25C0.25 0.166667 0.416667 0.125 0.65 0.125H3.925C4.15833 0.125 4.325 0.166667 4.425 0.25C4.525 0.333333 4.575 0.5 4.575 0.749999V2.725ZM12.325 24.675C10.875 24.675 9.63333 24.5333 8.6 24.25C7.58333 23.9667 6.75 23.575 6.1 23.075C5.46667 22.575 5 21.9917 4.7 21.325C4.41667 20.675 4.275 19.975 4.275 19.225C4.275 18.475 4.425 17.775 4.725 17.125C5.025 16.4583 5.5 15.8833 6.15 15.4C6.8 14.9 7.63333 14.5083 8.65 14.225C9.66667 13.9417 10.8917 13.8 12.325 13.8C13.7583 13.8 14.9833 13.9417 16 14.225C17.0167 14.5083 17.85 14.9 18.5 15.4C19.15 15.8833 19.625 16.4583 19.925 17.125C20.225 17.775 20.375 18.475 20.375 19.225C20.375 19.975 20.225 20.675 19.925 21.325C19.6417 21.9917 19.175 22.575 18.525 23.075C17.8917 23.575 17.0583 23.9667 16.025 24.25C15.0083 24.5333 13.775 24.675 12.325 24.675ZM23.825 7.55C23.825 7.8 23.775 7.96667 23.675 8.05C23.575 8.13333 23.4083 8.175 23.175 8.175H20.875V12.6C20.875 12.85 20.825 13.0167 20.725 13.1C20.625 13.1833 20.4583 13.225 20.225 13.225H16.725C16.4917 13.225 16.325 13.1833 16.225 13.1C16.125 13.0167 16.075 12.85 16.075 12.6V0.749999C16.075 0.5 16.125 0.333333 16.225 0.25C16.325 0.166667 16.4917 0.125 16.725 0.125H20.225C20.4583 0.125 20.625 0.166667 20.725 0.25C20.825 0.333333 20.875 0.5 20.875 0.749999V4.025H23.175C23.4083 4.025 23.575 4.06667 23.675 4.15C23.775 4.23333 23.825 4.4 23.825 4.65V7.55ZM12.325 20.75C12.7583 20.75 13.175 20.725 13.575 20.675C13.975 20.625 14.325 20.5417 14.625 20.425C14.9417 20.3083 15.1917 20.15 15.375 19.95C15.5583 19.75 15.65 19.5 15.65 19.2C15.65 18.9 15.5583 18.6583 15.375 18.475C15.1917 18.275 14.9417 18.1167 14.625 18C14.325 17.8667 13.975 17.775 13.575 17.725C13.175 17.675 12.7583 17.65 12.325 17.65C11.8917 17.65 11.475 17.675 11.075 17.725C10.675 17.775 10.3167 17.8667 10 18C9.7 18.1167 9.45833 18.275 9.275 18.475C9.09167 18.6583 9 18.9 9 19.2C9 19.5 9.09167 19.75 9.275 19.95C9.45833 20.15 9.7 20.3083 10 20.425C10.3167 20.5417 10.675 20.625 11.075 20.675C11.475 20.725 11.8917 20.75 12.325 20.75ZM8.975 6.525H4.575V7.775C4.575 8.09167 4.625 8.30833 4.725 8.425C4.825 8.525 5.01667 8.575 5.3 8.575H8.25C8.53333 8.575 8.725 8.525 8.825 8.425C8.925 8.30833 8.975 8.09167 8.975 7.775V6.525Z" fill="black"/>
</svg>
