<svg width="53" height="51" viewBox="0 0 53 51" fill="none" xmlns="http://www.w3.org/2000/svg">
<path d="M8.35769 30.3138L6.63621 42.1681C6.03365 46.3174 9.18913 50.0621 13.3805 50.1717L36.917 50.7873C41.1977 50.8993 44.5747 47.1758 44.0465 42.9263L42.1962 28.0383L48.1567 30.358C49.311 30.8072 50.6232 30.4329 51.3669 29.4424C52.2728 28.2358 52.0427 26.5254 50.85 25.6012L30.7878 10.0543C28.2638 8.09836 24.7362 8.09836 22.2122 10.0543L2.3716 25.4294C1.05314 26.4512 0.791892 28.3388 1.78328 29.6802C2.46389 30.6011 3.60053 31.0666 4.73158 30.8876L8.35769 30.3138Z" fill="#C7C7C7"/>
<ellipse cx="3.85793" cy="5.62559" rx="3.85793" ry="5.62559" transform="matrix(-0.984809 -0.164121 -0.153227 0.989849 32.4062 25.9901)" fill="white"/>
<mask id="mask0_3468_18893" style="mask-type:alpha" maskUnits="userSpaceOnUse" x="23" y="25" width="9" height="12">
<ellipse cx="3.86198" cy="5.62168" rx="3.86198" ry="5.62168" transform="matrix(-0.98453 -0.16454 -0.152817 0.990132 32.4062 25.9946)" fill="white"/>
</mask>
<g mask="url(#mask0_3468_18893)">
<ellipse cx="3.4112" cy="4.16352" rx="3.4112" ry="4.16352" transform="matrix(-0.953705 -0.300839 -0.28739 0.957843 33.1094 29.0079)" fill="black"/>
</g>
<ellipse cx="0.724761" cy="1.10119" rx="0.724761" ry="1.10119" transform="matrix(-0.997671 -0.00348346 0.00334564 1.00231 27.9453 30.3192)" fill="white"/>
<ellipse cx="3.85781" cy="5.62583" rx="3.85781" ry="5.62583" transform="matrix(-0.985492 -0.160045 -0.149192 0.990453 26.2529 26.3735)" fill="white"/>
<mask id="mask1_3468_18893" style="mask-type:alpha" maskUnits="userSpaceOnUse" x="17" y="25" width="9" height="12">
<ellipse cx="3.86195" cy="5.62183" rx="3.86195" ry="5.62183" transform="matrix(-0.985208 -0.16048 -0.148767 0.99074 26.2539 26.3782)" fill="white"/>
</mask>
<g mask="url(#mask1_3468_18893)">
<ellipse cx="3.41112" cy="4.16364" rx="3.41112" ry="4.16364" transform="matrix(-0.954938 -0.296904 -0.283472 0.95901 26.9688 29.3884)" fill="black"/>
</g>
<path d="M20.6795 31.4261C20.6815 32.0357 21.0069 32.531 21.4063 32.5324C21.8056 32.5337 22.1277 32.0407 22.1257 31.4311C22.1237 30.8215 21.7983 30.3262 21.3989 30.3248C20.9996 30.3235 20.6775 30.8165 20.6795 31.4261Z" fill="white"/>
<path d="M25.8243 6.7818C25.358 5.36216 24.7051 4.03717 23.6793 3.28003C22.6534 2.52289 20.6016 2.04968 17.9902 2.52289C18.6431 4.69967 19.669 5.93002 20.7881 6.49787C22.0005 7.16037 23.959 7.16037 25.8243 6.7818Z" fill="#7C7C7C"/>
<path d="M26.6016 6.67855C26.5588 5.34044 26.9165 4.02057 27.6275 2.89285C28.4669 1.94642 29.6793 1.09464 32.1974 1C32.1041 3.17678 31.5445 4.40713 30.6119 5.35355C29.6793 6.11069 28.3736 6.58391 26.6016 6.67855Z" fill="#7C7C7C"/>
<path d="M25.8243 6.7818C25.358 5.36216 24.7051 4.03717 23.6793 3.28003C22.6534 2.52289 20.6016 2.04968 17.9902 2.52289C18.6431 4.69967 19.669 5.93002 20.7881 6.49787C22.0005 7.16037 23.959 7.16037 25.8243 6.7818Z" stroke="#7C7C7C" stroke-linecap="round" stroke-linejoin="round"/>
<path d="M26.6016 6.67855C26.5588 5.34044 26.9165 4.02057 27.6275 2.89285C28.4669 1.94642 29.6793 1.09464 32.1974 1C32.1041 3.17678 31.5445 4.40713 30.6119 5.35355C29.6793 6.11069 28.3736 6.58391 26.6016 6.67855Z" stroke="#7C7C7C" stroke-linecap="round" stroke-linejoin="round"/>
<path d="M21.5258 42.1031L22.009 41.7714C25.0109 39.7112 28.6257 38.7364 32.2565 39.0081L33.5258 39.1031" stroke="black"/>
<path d="M18.6084 35.0429C18.5764 35.0149 18.5386 35 18.5 35C18.4614 35 18.4236 35.0149 18.3916 35.0429C18.3335 35.0929 17 36.2928 17 38.0626C17 38.5765 17.158 39.0692 17.4393 39.4326C17.7206 39.7959 18.1022 40 18.5 40C18.8978 40 19.2794 39.7959 19.5607 39.4326C19.842 39.0692 20 38.5765 20 38.0626C20 36.2628 18.6645 35.0904 18.6084 35.0429ZM18.5 39.5C18.205 39.4994 19.044 39.702 18.8354 39.4326C18.6268 39.1631 19.7005 38.8185 19.7 38.4375C19.1 36.5625 18.5019 38.4325 18.8 38.125C19.1 38.4275 16.4 36.5625 17.6 37.5C17.5995 37.881 18.7086 38.4806 18.5 38.75C17.4136 38.4217 18.795 39.4994 18.5 39.5Z" fill="#B4D6FD"/>
</svg>
