<svg width="56" height="68" viewBox="0 0 56 68" fill="none" xmlns="http://www.w3.org/2000/svg">
<rect width="36.7291" height="18.4034" rx="3" transform="matrix(-0.637423 -0.770514 -0.770514 0.637423 45.6953 38.4501)" fill="#F8AF59"/>
<rect width="17.8635" height="14.1787" rx="7.08936" transform="matrix(-0.773562 0.63372 0.63372 0.773562 13.8184 0.390869)" fill="#FF6C6C"/>
<path d="M40.9994 45.3428L29.4875 40.7107L38.9488 33.1045L40.9994 45.3428Z" fill="black"/>
<rect width="17.8635" height="14.1787" rx="7.08936" transform="matrix(-0.773562 0.63372 0.63372 0.773562 13.8188 0.390869)" fill="#FF6C6C"/>
<rect width="36.7291" height="18.4034" rx="3" transform="matrix(-0.637423 -0.770514 -0.770514 0.637423 45.6953 38.4501)" fill="#F8AF59"/>
<ellipse cx="3.88938" cy="5.6682" rx="3.88938" ry="5.6682" transform="matrix(-0.990333 0.138713 0.138713 0.990333 34.7515 25.2072)" fill="white"/>
<mask id="mask0_1300_4302" style="mask-type:alpha" maskUnits="userSpaceOnUse" x="27" y="25" width="9" height="12">
<ellipse cx="3.88938" cy="5.6682" rx="3.88938" ry="5.6682" transform="matrix(-0.990333 0.138713 0.138713 0.990333 34.7515 25.2073)" fill="white"/>
</mask>
<g mask="url(#mask0_1300_4302)">
<ellipse cx="3.44227" cy="4.19707" rx="3.44227" ry="4.19707" transform="matrix(-1 0 0 1 36.3242 29.1156)" fill="black"/>
</g>
<ellipse cx="3.88938" cy="5.6682" rx="3.88938" ry="5.6682" transform="matrix(-0.990333 0.138713 0.138713 0.990333 27.3472 25.8402)" fill="white"/>
<mask id="mask1_1300_4302" style="mask-type:alpha" maskUnits="userSpaceOnUse" x="20" y="26" width="9" height="12">
<ellipse cx="3.88938" cy="5.6682" rx="3.88938" ry="5.6682" transform="matrix(-0.990333 0.138713 0.138713 0.990333 27.3472 25.8402)" fill="white"/>
</mask>
<g mask="url(#mask1_1300_4302)">
<ellipse cx="3.44227" cy="4.19707" rx="3.44227" ry="4.19707" transform="matrix(-1 0 0 1 28.9204 29.749)" fill="black"/>
</g>
<ellipse cx="0.735713" cy="1.08824" rx="0.735713" ry="1.08824" transform="matrix(-1 0 0 1 26.811 33.504)" fill="white"/>
<ellipse cx="0.735713" cy="1.08824" rx="0.735713" ry="1.08824" transform="matrix(-1 0 0 1 35.0879 33.504)" fill="white"/>
<ellipse cx="1.81246" cy="2.37013" rx="1.81246" ry="2.37013" transform="matrix(-1 0 0 1 31.7275 38.1495)" fill="#FF4343"/>
<path d="M43.7637 54.8355C45.9661 55.7422 48.2961 53.8442 47.8535 51.5039L45.3015 38.0109L31.0654 49.6079L43.7637 54.8355Z" fill="#FFE9C7"/>
<path d="M48.1697 55.9424L42.1606 53.5245L47.0992 49.5542L48.1697 55.9424Z" fill="black"/>
<path d="M18.9019 6.80115L5.08329 18.1216L8.61741 22.4356L22.436 11.1151L18.9019 6.80115Z" fill="#D9D9D9"/>
<path d="M40.9994 45.3428L29.4875 40.7107L38.9488 33.1045L40.9994 45.3428Z" fill="black"/>
<rect width="17.8635" height="14.1787" rx="7.08936" transform="matrix(-0.773562 0.63372 0.63372 0.773562 13.8188 0.390869)" fill="#FF6C6C"/>
<rect width="36.7291" height="18.4034" rx="3" transform="matrix(-0.637423 -0.770514 -0.770514 0.637423 45.6953 38.4501)" fill="#F8AF59"/>
<ellipse cx="3.88938" cy="5.6682" rx="3.88938" ry="5.6682" transform="matrix(-0.990333 0.138713 0.138713 0.990333 34.7515 25.2072)" fill="white"/>
<mask id="mask2_1300_4302" style="mask-type:alpha" maskUnits="userSpaceOnUse" x="27" y="25" width="9" height="12">
<ellipse cx="3.88938" cy="5.6682" rx="3.88938" ry="5.6682" transform="matrix(-0.990333 0.138713 0.138713 0.990333 34.7515 25.2073)" fill="white"/>
</mask>
<g mask="url(#mask2_1300_4302)">
<ellipse cx="3.44227" cy="4.19707" rx="3.44227" ry="4.19707" transform="matrix(-1 0 0 1 36.3242 29.1156)" fill="black"/>
</g>
<ellipse cx="3.88938" cy="5.6682" rx="3.88938" ry="5.6682" transform="matrix(-0.990333 0.138713 0.138713 0.990333 27.3472 25.8402)" fill="white"/>
<mask id="mask3_1300_4302" style="mask-type:alpha" maskUnits="userSpaceOnUse" x="20" y="26" width="9" height="12">
<ellipse cx="3.88938" cy="5.6682" rx="3.88938" ry="5.6682" transform="matrix(-0.990333 0.138713 0.138713 0.990333 27.3472 25.8402)" fill="white"/>
</mask>
<g mask="url(#mask3_1300_4302)">
<ellipse cx="3.44227" cy="4.19707" rx="3.44227" ry="4.19707" transform="matrix(-1 0 0 1 28.9204 29.749)" fill="black"/>
</g>
<ellipse cx="0.735713" cy="1.08824" rx="0.735713" ry="1.08824" transform="matrix(-1 0 0 1 26.811 33.504)" fill="white"/>
<ellipse cx="0.735713" cy="1.08824" rx="0.735713" ry="1.08824" transform="matrix(-1 0 0 1 35.0879 33.504)" fill="white"/>
<ellipse cx="1.81246" cy="2.37013" rx="1.81246" ry="2.37013" transform="matrix(-1 0 0 1 31.7275 38.1495)" fill="#FF4343"/>
<path d="M43.7637 54.8355C45.9661 55.7422 48.2961 53.8442 47.8535 51.5039L45.3015 38.0109L31.0654 49.6079L43.7637 54.8355Z" fill="#FFE9C7"/>
<path d="M48.1697 55.9424L42.1606 53.5245L47.0992 49.5542L48.1697 55.9424Z" fill="black"/>
<path d="M18.9019 6.80115L5.08329 18.1216L8.61741 22.4356L22.436 11.1151L18.9019 6.80115Z" fill="#D9D9D9"/>
<ellipse cx="3.88938" cy="5.6682" rx="3.88938" ry="5.6682" transform="matrix(-0.990333 0.138713 0.138713 0.990333 34.7515 25.2072)" fill="white"/>
<mask id="mask4_1300_4302" style="mask-type:alpha" maskUnits="userSpaceOnUse" x="27" y="25" width="9" height="12">
<ellipse cx="3.88938" cy="5.6682" rx="3.88938" ry="5.6682" transform="matrix(-0.990333 0.138713 0.138713 0.990333 34.7515 25.2073)" fill="white"/>
</mask>
<g mask="url(#mask4_1300_4302)">
<ellipse cx="3.44227" cy="4.19707" rx="3.44227" ry="4.19707" transform="matrix(-1 0 0 1 36.3242 29.1156)" fill="black"/>
</g>
<ellipse cx="3.88938" cy="5.6682" rx="3.88938" ry="5.6682" transform="matrix(-0.990333 0.138713 0.138713 0.990333 27.3472 25.8402)" fill="white"/>
<mask id="mask5_1300_4302" style="mask-type:alpha" maskUnits="userSpaceOnUse" x="20" y="26" width="9" height="12">
<ellipse cx="3.88938" cy="5.6682" rx="3.88938" ry="5.6682" transform="matrix(-0.990333 0.138713 0.138713 0.990333 27.3472 25.8402)" fill="white"/>
</mask>
<g mask="url(#mask5_1300_4302)">
<ellipse cx="3.44227" cy="4.19707" rx="3.44227" ry="4.19707" transform="matrix(-1 0 0 1 28.9204 29.749)" fill="black"/>
</g>
<ellipse cx="0.735713" cy="1.08824" rx="0.735713" ry="1.08824" transform="matrix(-1 0 0 1 26.811 33.504)" fill="white"/>
<ellipse cx="0.735713" cy="1.08824" rx="0.735713" ry="1.08824" transform="matrix(-1 0 0 1 35.0879 33.504)" fill="white"/>
<ellipse cx="1.81246" cy="2.37013" rx="1.81246" ry="2.37013" transform="matrix(-1 0 0 1 31.7275 38.1495)" fill="#FF4343"/>
<path d="M43.7632 54.8355C45.9657 55.7422 48.2956 53.8442 47.853 51.5039L45.301 38.0109L31.065 49.6079L43.7632 54.8355Z" fill="#FFE9C7"/>
<path d="M48.1697 55.9424L42.1606 53.5245L47.0992 49.5542L48.1697 55.9424Z" fill="black"/>
</svg>
