<svg width="30" height="30" viewBox="0 0 30 30" fill="none" xmlns="http://www.w3.org/2000/svg">
<path d="M24.4995 6C25.9583 6 27.3574 6.57952 28.3889 7.61106C29.4205 8.6426 30 10.0417 30 11.5005V24.4995C30 25.9583 29.4205 27.3574 28.3889 28.3889C27.3574 29.4205 25.9583 30 24.4995 30H11.5005C10.0417 30 8.6426 29.4205 7.61106 28.3889C6.57952 27.3574 6 25.9583 6 24.4995V11.5005C6 10.0417 6.57952 8.6426 7.61106 7.61106C8.6426 6.57952 10.0417 6 11.5005 6H24.4995ZM19.5 0C21.141 0 22.242 0.7995 23.061 2.271C23.1567 2.44316 23.2176 2.6325 23.2402 2.82819C23.2627 3.02388 23.2465 3.2221 23.1925 3.41154C23.1385 3.60097 23.0476 3.7779 22.9252 3.93223C22.8028 4.08656 22.6512 4.21527 22.479 4.311C22.3068 4.40673 22.1175 4.46762 21.9218 4.49018C21.7261 4.51274 21.5279 4.49654 21.3385 4.4425C21.149 4.38845 20.9721 4.29763 20.8178 4.17521C20.6634 4.05278 20.5347 3.90116 20.439 3.729C20.1075 3.132 19.926 3 19.5 3H4.5C3.678 3 3 3.678 3 4.5V19.497C3 19.977 3.231 20.424 3.6105 20.7045L3.7605 20.802C3.93168 20.8995 4.08197 21.0298 4.20281 21.1854C4.32364 21.341 4.41265 21.5188 4.46474 21.7088C4.51683 21.8988 4.531 22.0972 4.50642 22.2927C4.48184 22.4881 4.41901 22.6768 4.3215 22.848C4.22399 23.0192 4.09373 23.1695 3.93813 23.2903C3.78254 23.4111 3.60468 23.5001 3.41469 23.5522C3.2247 23.6043 3.02631 23.6185 2.83085 23.5939C2.63539 23.5693 2.44668 23.5065 2.2755 23.409C1.58492 23.0163 1.01061 22.4477 0.610939 21.7612C0.211268 21.0746 0.000481322 20.2944 0 19.5V4.5C0 2.022 2.022 0 4.5 0H19.5ZM21.4395 13.9395L16.5 18.8775L14.5605 16.9395C14.2776 16.6663 13.8987 16.5151 13.5054 16.5185C13.1121 16.5219 12.7359 16.6797 12.4578 16.9578C12.1797 17.2359 12.0219 17.6121 12.0185 18.0054C12.0151 18.3987 12.1663 18.7776 12.4395 19.0605L15.4395 22.0605C15.7208 22.3417 16.1023 22.4997 16.5 22.4997C16.8977 22.4997 17.2792 22.3417 17.5605 22.0605L23.5605 16.0605C23.8337 15.7776 23.9849 15.3987 23.9815 15.0054C23.9781 14.6121 23.8203 14.2359 23.5422 13.9578C23.2641 13.6797 22.8879 13.5219 22.4946 13.5185C22.1013 13.5151 21.7224 13.6663 21.4395 13.9395Z" fill="#535353"/>
</svg>
