<svg width="80" height="80" viewBox="0 0 80 80" fill="none" xmlns="http://www.w3.org/2000/svg">
<rect x="0.5" y="0.5" width="79" height="79" rx="39.5" fill="white"/>
<rect x="0.5" y="0.5" width="79" height="79" rx="39.5" stroke="#A6A6A6"/>
<path d="M23.0592 13.8794C22.8537 14.0439 22.8417 14.6059 22.8417 22.0355C22.8417 28.766 22.8175 30.0545 22.6725 30.315C22.5637 30.4932 22.455 31.1512 22.4188 31.9188C22.3583 32.8646 22.2737 33.317 22.1046 33.5911C21.8871 33.9338 21.875 34.2491 21.875 37.6898C21.875 41.0482 21.8992 41.432 22.0804 41.5828C22.2375 41.7198 22.3583 41.7198 22.5758 41.6102L22.8658 41.4594L22.8296 38.0187L22.7933 34.5918H24.1104H25.4396L25.4758 39.5266C25.4879 42.2407 25.4758 44.5985 25.4396 44.7492C25.3912 45.0234 25.3067 45.0508 24.1104 45.0508C22.7208 45.0371 22.7933 45.1057 22.8417 44.1187C22.8658 43.5018 22.4671 43.0221 22.1408 43.2414C21.9717 43.3648 21.9233 43.6526 21.8992 44.667C21.875 45.7499 21.8992 45.9555 22.0804 46.12C22.2375 46.2571 22.7812 46.2982 24.1708 46.3119C26.7325 46.3119 26.6238 46.4079 26.5754 44.105L26.5271 42.3367H39.8187C47.1292 42.3367 53.1588 42.3367 53.2071 42.3367C53.2675 42.3367 53.2675 43.1317 53.2192 44.105C53.1104 46.3942 53.0258 46.3119 55.5392 46.3119C57.0737 46.3119 57.4483 46.2708 57.7504 46.0652L58.125 45.8322V39.8282C58.125 34.9071 58.1008 33.8379 57.9679 33.8379C57.8713 33.8379 57.7021 33.7145 57.5812 33.5637C57.4 33.3307 57.3517 33.0291 57.3275 32.001C57.3154 31.1512 57.2429 30.5892 57.11 30.3013C56.9408 29.9312 56.9167 28.9579 56.9167 21.9396V14.0028L56.6146 13.852C56.4212 13.756 55.66 13.6875 54.6933 13.6875C53.2433 13.6875 53.0621 13.7149 52.8687 13.9617C52.7117 14.1673 52.6754 14.3592 52.7358 14.7704C52.8325 15.4832 52.6271 15.6888 52.0713 15.4147C51.5517 15.1679 50.6212 14.9486 49.3283 14.7841C48.7725 14.7156 48.2288 14.5922 48.0958 14.51C47.975 14.4414 47.5521 14.3729 47.1654 14.3729C46.7788 14.3729 45.8967 14.2769 45.1958 14.1673C43.7458 13.9479 36.2179 13.8931 34.9854 14.1124C34.5867 14.181 33.6925 14.2769 32.9917 14.3181C31.6262 14.4277 31.1912 14.6196 31.1792 15.1405C31.1792 15.7162 31.4088 15.7848 33.04 15.6203C33.8617 15.5243 34.8525 15.401 35.2513 15.3324C35.6379 15.2502 37.6679 15.1954 39.7583 15.1954C43.4317 15.1954 44.7246 15.2776 47.7333 15.7574C48.2287 15.8396 48.99 15.9493 49.425 16.0178C49.86 16.0864 50.3675 16.196 50.5487 16.2783C50.7421 16.3605 51.1167 16.4291 51.3946 16.4291C51.6725 16.4291 52.0833 16.5387 52.3008 16.6758L52.6996 16.9088L52.7117 21.3638V25.8189L52.325 25.86C52.1075 25.8874 51.7933 25.8737 51.6362 25.8189L51.3462 25.7366L51.3704 22.6935C51.3946 19.4722 51.3704 19.2803 50.8146 18.732C50.5971 18.5126 50.1862 18.4989 45.945 18.4852C41.9092 18.4852 41.2687 18.5126 40.9787 18.7045C40.3987 19.0884 40.3504 19.4448 40.3746 22.6387C40.3867 24.2562 40.3625 25.6407 40.3142 25.7366C40.2054 25.9285 39.5529 25.9285 39.4442 25.7366C39.3958 25.6407 39.3717 24.2836 39.3838 22.7209C39.4079 19.5681 39.3354 19.0746 38.7796 18.7045C38.4896 18.5126 37.8733 18.4852 33.8133 18.4852H29.1854L28.8592 18.8279C28.6779 19.0198 28.4846 19.3351 28.4483 19.527C28.4 19.7189 28.3637 21.2131 28.3517 22.8443L28.3396 25.8189H27.6992H27.0467L27.0588 21.3638C27.0588 16.196 26.95 16.5935 28.4604 16.4291C29.8017 16.2783 30.3333 15.7437 29.7292 15.1268C29.5117 14.9075 29.415 14.8938 28.7867 15.0446C28.4121 15.1405 27.9167 15.305 27.6871 15.4147C27.1312 15.6888 26.9258 15.4832 27.0225 14.7704C27.0829 14.3592 27.0467 14.1673 26.8896 13.9617C26.6962 13.7149 26.515 13.6875 24.9683 13.6875C23.7479 13.7012 23.2042 13.7423 23.0592 13.8794ZM25.935 15.072C25.9833 15.1542 26.0075 17.7039 26.0075 20.7196L25.9954 26.2027L25.355 26.6687C25.0046 26.9292 24.5696 27.3267 24.3883 27.5734C24.2192 27.8202 24.0379 27.971 23.9896 27.9298C23.905 27.8202 23.905 15.2091 24.0017 15.0446C24.0983 14.8664 25.8383 14.8938 25.935 15.072ZM55.8292 21.1993C55.8654 24.6126 55.8533 27.546 55.7929 27.6968C55.7083 27.9573 55.66 27.9436 55.1525 27.3404C54.8504 26.9977 54.5362 26.7099 54.4637 26.7099C54.3792 26.7099 54.1979 26.6002 54.0408 26.4631L53.7629 26.2164L53.7508 20.7196C53.7508 17.7039 53.7871 15.1542 53.8233 15.072C53.8837 14.9623 54.2342 14.9212 54.8383 14.9486L55.7687 14.9897L55.8292 21.1993ZM38.3204 19.8149C38.3204 19.8834 38.3446 21.2405 38.3567 22.8306C38.3687 24.7497 38.3325 25.7503 38.2479 25.7777C38.1875 25.8051 36.1696 25.7914 33.7771 25.7503L29.4271 25.6818L29.3908 22.8717C29.3788 21.3364 29.3908 19.9931 29.415 19.8971C29.4633 19.76 30.43 19.7189 33.8979 19.7189C36.3267 19.7189 38.3083 19.76 38.3204 19.8149ZM50.3675 22.7483C50.3917 25.0512 50.3675 25.7366 50.2467 25.764C50.1621 25.7914 48.1321 25.7914 45.7396 25.7503L41.3896 25.6818V22.762C41.3896 21.1445 41.4137 19.8012 41.4379 19.7737C41.4742 19.7463 43.48 19.7326 45.9087 19.7463L50.3312 19.7874L50.3675 22.7483ZM53.5937 27.5186C55.1042 28.4782 56.0346 29.9449 56.3125 31.8503C56.53 33.2759 56.5058 33.3581 55.7083 33.3581H55.0437L54.9592 32.5357C54.8625 31.4253 54.7054 30.9318 54.2583 30.2327C53.5937 29.1773 52.3854 28.4919 51.165 28.4919C50.3917 28.4919 50.0292 28.8346 50.2467 29.3829C50.3675 29.6707 50.4642 29.7256 50.9475 29.7256C52.615 29.7256 53.6904 30.7536 53.9442 32.5631C54.0167 33.0977 53.9925 33.1662 53.6904 33.3855C53.2192 33.7282 53.1708 33.8379 53.2554 34.4136C53.2917 34.6878 53.2917 35.0579 53.2554 35.2361L53.1829 35.5514H39.8792C27.1917 35.5514 26.5754 35.5376 26.515 35.3046C26.4787 35.1675 26.4546 34.8248 26.4787 34.5507C26.515 33.7419 26.4908 33.646 26.1042 33.3992C25.7537 33.1799 25.7417 33.1251 25.8142 32.5768C26.0075 31.2608 26.7204 30.2053 27.6387 29.8901C28.0254 29.753 30.5146 29.7256 38.2963 29.7256C45.3529 29.7393 48.5308 29.6981 48.7 29.5885C48.99 29.4103 49.0142 29.0813 48.7362 28.7386C48.555 28.5056 48.0717 28.4919 38.3204 28.4919C31.6504 28.4919 27.9288 28.5467 27.6146 28.6289C26.1888 29.0539 25.1737 30.219 24.92 31.7132C24.8354 32.1655 24.7629 32.7139 24.7508 32.9469C24.7146 33.3444 24.7025 33.3581 24.05 33.3581H23.3854L23.3492 32.8783C23.3008 32.2889 23.5425 30.8633 23.76 30.4521C23.8567 30.2876 23.9292 30.0545 23.9292 29.9586C23.9292 29.8489 24.2433 29.3692 24.6421 28.8894C25.3792 27.9847 26.5392 27.1759 27.2521 27.0663C27.4575 27.0388 33.2937 27.0251 40.2417 27.0388L52.8687 27.0526L53.5937 27.5186ZM56.9287 39.7322C56.9287 42.556 56.9167 44.9137 56.9167 44.9549C56.9167 45.1194 54.4396 45.0371 54.355 44.8863C54.2342 44.6944 54.2342 34.7426 54.3429 34.6055C54.3912 34.5644 54.9954 34.537 55.6842 34.5507L56.9408 34.5918L56.9287 39.7322ZM53.1587 36.7851C53.2192 36.8125 53.2554 37.7857 53.2433 38.9372L53.2312 41.0345L39.8671 41.0756L26.4908 41.103V38.9509C26.4908 37.7583 26.515 36.7576 26.5271 36.7165C26.5754 36.6206 53.0379 36.6891 53.1587 36.7851Z" fill="#A6A6A6"/>
<path d="M32.1529 57.0805H33.4609V57.4885C33.4609 59.4325 32.4289 61.1605 30.2809 61.7605L29.5369 60.5245C31.3609 60.0085 32.1529 58.7365 32.1529 57.4885V57.0805ZM32.4529 57.0805H33.7489V57.4885C33.7489 58.6525 34.5649 59.8525 36.3769 60.3205L35.6569 61.5685C33.4969 61.0045 32.4529 59.3485 32.4529 57.4885V57.0805ZM29.9089 56.3725H35.9809V57.6205H29.9089V56.3725ZM32.1529 55.2325H33.7489V56.9245H32.1529V55.2325ZM37.0729 55.2805H38.6809V61.7845H37.0729V55.2805ZM31.2889 62.2645H38.6809V66.2605H31.2889V62.2645ZM37.1089 63.5125H32.8489V65.0005H37.1089V63.5125ZM48.508 55.2685H50.02V66.3805H48.508V55.2685ZM47.02 59.5405H48.868V60.8245H47.02V59.5405ZM46.024 55.4605H47.5V65.8525H46.024V55.4605ZM40.792 62.5645H41.572C42.94 62.5645 44.08 62.5165 45.4 62.2765L45.52 63.5725C44.176 63.8365 43 63.8725 41.572 63.8725H40.792V62.5645ZM40.792 56.5525H44.896V57.8365H42.376V63.1885H40.792V56.5525Z" fill="#7C7C7C"/>
</svg>
