<svg width="80" height="80" viewBox="0 0 80 80" fill="none" xmlns="http://www.w3.org/2000/svg">
<rect x="0.5" y="0.5" width="79" height="79" rx="39.5" fill="#FFFFFF"/>
<rect x="0.5" y="0.5" width="79" height="79" rx="39.5" stroke="#A6A6A6"/>
<path d="M24.3377 12.3205C24.3377 12.4518 24.2905 12.5951 24.2196 12.6309C24.0544 12.7264 24.0662 16.689 24.2196 16.9993C24.3849 17.2977 24.9868 17.3097 25.1049 17.0113C25.1403 16.9038 25.1639 16.0445 25.1521 15.1135C25.1285 14.1825 25.1521 13.3828 25.1875 13.347C25.2229 13.2993 51.2725 13.2515 54.6482 13.2873C54.7544 13.2873 54.7898 14.6122 54.7898 19.482C54.7898 22.8956 54.7426 25.7124 54.6954 25.7482C54.6364 25.784 54.3885 25.605 54.1406 25.3424L53.6921 24.8769L53.7157 19.8639C53.7393 16.3906 53.7039 14.7793 53.6095 14.6122C53.4914 14.3735 53.3734 14.3615 52.0279 14.3615C50.6469 14.3615 50.5643 14.3735 50.5052 14.6122C50.4698 14.7554 50.4934 14.9941 50.5525 15.1612C50.6587 15.4596 50.6941 15.4596 51.6384 15.4238L52.6062 15.3761V18.1213V20.8665H50.8948H49.1833L49.1243 20.2697C49.0889 19.9355 49.0181 19.6013 48.959 19.5178C48.9118 19.4223 48.9472 19.1836 49.0653 18.9329C49.3485 18.3242 49.2423 17.6439 48.782 17.1784L48.4161 16.8084H44.8397C41.464 16.8084 41.2634 16.8203 40.9565 17.0471C40.3191 17.5364 40.0359 18.551 40.449 18.8971C40.6732 19.0881 40.6732 19.661 40.449 19.852C40.3309 19.9474 40.2719 20.1623 40.2955 20.4368L40.3309 20.8665H38.7375H37.1441L37.1087 18.1452C37.0851 16.0206 37.1087 15.4358 37.2267 15.4238C37.3093 15.4238 40.0123 15.4238 43.2345 15.4358L49.0771 15.4477L49.2423 15.1374C49.3603 14.9106 49.3721 14.7674 49.2777 14.6241C49.1715 14.4332 48.6167 14.4212 42.7978 14.3854C36.8844 14.3615 36.4241 14.3735 36.2825 14.5645C36.1644 14.7196 36.1408 15.8774 36.1408 19.6132C36.1408 22.2749 36.1408 24.5427 36.1408 24.6501C36.1408 24.865 35.1966 25.8556 35.1021 25.7601C35.0667 25.7243 35.0549 23.2417 35.0667 20.2458C35.0785 17.238 35.0549 14.6838 35.0195 14.5645C34.9369 14.3735 34.63 14.3615 30.6996 14.3615C26.6393 14.3615 26.4622 14.3735 26.3442 14.5883C26.179 14.9106 26.179 37.4452 26.3442 37.7674C26.4622 37.9823 26.6393 37.9942 30.7114 37.9942H34.9605L35.0313 37.7078C35.0667 37.5407 35.0785 35.4519 35.0549 33.0528C35.0313 30.1883 35.0549 28.6844 35.1376 28.6844C35.3028 28.6963 35.5743 28.9231 35.8812 29.3289C36.1408 29.6631 36.1408 29.7228 36.1408 33.6019C36.1408 36.0845 36.188 37.6123 36.2589 37.7674C36.3769 37.9942 36.6011 37.9942 44.9342 37.9942C53.3852 37.9942 53.4796 37.9942 53.6095 37.7555C53.6921 37.5884 53.7275 36.18 53.7157 33.5303L53.7039 29.5437L54.0934 29.1141C54.837 28.2786 54.8016 27.9324 54.778 36.2397C54.7662 40.4052 54.7898 43.8666 54.837 43.9382C54.9786 44.1769 55.5924 44.1053 55.734 43.8546C55.8167 43.6995 55.8521 38.591 55.8521 28.1711C55.8521 14.5764 55.8285 12.7025 55.675 12.5712C55.5806 12.4876 55.498 12.3444 55.498 12.2609C55.498 12.1176 53.0783 12.0938 39.9178 12.0938C24.5737 12.0938 24.3377 12.0938 24.3377 12.3205ZM34.0163 15.4358C34.0517 15.4358 34.0635 20.2578 34.0517 26.1421L34.0163 36.8603L30.6288 36.8961L27.2294 36.92V26.2137C27.2294 20.3175 27.2649 15.4716 27.3121 15.4358C27.3593 15.388 33.5795 15.388 34.0163 15.4358ZM47.9558 17.8229C48.2036 17.9661 48.2745 18.5868 48.0502 18.73C47.8731 18.8374 41.6293 18.8255 41.464 18.7181C41.228 18.5748 41.3106 17.99 41.6057 17.8468C41.948 17.6797 47.6371 17.6558 47.9558 17.8229ZM48.0148 19.9713C48.121 20.0668 48.18 20.2697 48.1564 20.4965L48.121 20.8665L44.9932 20.9023C43.2699 20.9142 41.7473 20.9023 41.6057 20.8665C41.2634 20.7829 41.228 20.1742 41.5585 19.9474C41.8653 19.7207 47.7433 19.7565 48.0148 19.9713ZM41.7473 22.1078C41.7827 22.2391 41.7827 22.4778 41.7355 22.6568L41.6647 22.9672L40.2247 22.9552C39.4457 22.9433 38.6549 22.9433 38.4778 22.9433C38.2772 22.9552 38.0175 23.1104 37.746 23.3849C37.5218 23.6236 37.2739 23.7788 37.2149 23.7311C37.0733 23.6475 37.0379 22.0959 37.1677 21.9646C37.2031 21.9168 38.2418 21.881 39.4575 21.881C41.5349 21.881 41.6765 21.893 41.7473 22.1078ZM44.5565 22.1078C44.5801 22.2272 44.5801 22.4778 44.5565 22.6449C44.4974 22.9433 44.462 22.9552 43.6358 22.9552C42.727 22.9552 42.6326 22.8956 42.6326 22.3107C42.6326 21.9168 42.7034 21.881 43.6476 21.881C44.3794 21.881 44.4974 21.9168 44.5565 22.1078ZM47.2712 22.1317C47.3302 22.2391 47.3538 22.4659 47.3066 22.633C47.2358 22.9433 47.2004 22.9552 46.4214 22.9552C45.5597 22.9552 45.4653 22.8956 45.4653 22.3107C45.4653 21.9049 45.5597 21.8691 46.3978 21.9049C46.9289 21.9288 47.1886 22.0004 47.2712 22.1317ZM52.6888 22.6807C52.7478 23.7788 52.6298 23.922 52.0869 23.3849L51.662 22.9672L49.8915 22.9314L48.121 22.8956L48.0856 22.5614C48.003 21.8691 47.9794 21.881 50.4108 21.881H52.6416L52.6888 22.6807ZM48.6167 23.8982C48.6994 23.9459 49.3603 24.5427 50.0803 25.223C50.8121 25.9153 51.5203 26.5837 51.6738 26.715C51.8272 26.8463 51.957 27.0253 51.957 27.1208C51.957 27.3476 50.6469 28.8037 50.4344 28.8037C50.2338 28.8037 49.7144 28.3502 49.7144 28.1592C49.7144 28.0995 49.8325 27.9205 49.9741 27.7653C50.3754 27.3237 50.3164 26.7627 49.8207 26.3211C49.5964 26.1301 49.1479 25.7005 48.8174 25.3782C48.4869 25.0679 48.0148 24.6382 47.7669 24.4353C47.4364 24.1846 47.3302 24.0175 47.3892 23.8743C47.4482 23.7072 47.5545 23.6833 47.9676 23.743C48.2508 23.7907 48.5459 23.8624 48.6167 23.8982ZM51.3079 23.9698C51.4377 24.0533 51.9924 24.5666 52.5472 25.1037C53.1019 25.6408 53.7747 26.2614 54.058 26.5001C54.3295 26.7269 54.5537 27.0134 54.5537 27.1208C54.5419 27.2282 54.2232 27.646 53.8337 28.0637C53.0547 28.8873 52.7006 28.9947 52.5 28.4337C52.4174 28.1831 52.4528 28.0757 52.7715 27.7653C53.338 27.1805 53.2672 26.9776 52.1105 25.8317C51.5321 25.2588 50.9302 24.6979 50.7649 24.5666C50.4226 24.292 50.1512 23.8624 50.2692 23.7549C50.3636 23.6475 51.0364 23.7907 51.3079 23.9698ZM43.7538 24.0175C43.8483 24.2443 43.2817 24.7098 42.7742 24.8172C42.0542 24.9604 41.228 24.8053 40.8975 24.4711C40.3663 23.934 40.5552 23.8385 42.1958 23.8385C43.4234 23.8385 43.6948 23.8624 43.7538 24.0175ZM45.666 23.922C45.843 23.9817 46.3623 24.4114 46.8227 24.853C48.1682 26.1779 48.9354 26.894 49.0417 26.894C49.0889 26.894 49.1243 26.9895 49.1243 27.0969C49.1243 27.3237 47.7905 28.8037 47.5781 28.8037C47.5191 28.8037 47.2476 28.577 46.9997 28.3144C46.5748 27.8608 46.4922 27.825 46.1027 27.8847C45.8666 27.9205 45.6424 27.9921 45.5951 28.0279C45.5597 28.0757 45.5125 29.3528 45.5007 30.8686C45.4889 33.4348 45.4771 33.6258 45.2647 33.6854C45.1466 33.7332 43.6594 33.7451 41.948 33.7212L38.8437 33.6854L38.8673 30.9283C38.9028 28.3263 38.891 28.1711 38.6667 28.004C38.3008 27.7295 37.6988 27.8966 37.2975 28.386C36.8844 28.8873 36.7428 28.8992 36.3887 28.4695C36.2352 28.2905 35.893 27.9205 35.6215 27.634L35.1376 27.1208L35.7867 26.5479C36.1408 26.2256 36.9198 25.4975 37.4982 24.9366C38.4778 23.9936 38.5959 23.9101 39.0326 23.922C39.4811 23.922 39.5165 23.9459 39.7998 24.5427C40.0005 24.9604 40.2601 25.2827 40.6024 25.5214C41.0863 25.8556 41.1926 25.8795 42.2194 25.8795C43.0929 25.8795 43.3643 25.8437 43.5414 25.6646C43.6712 25.5572 43.8247 25.4617 43.8955 25.4617C44.0371 25.4617 44.7571 24.4233 44.7571 24.2085C44.7571 24.0295 45.005 23.7907 45.182 23.7907C45.2647 23.7907 45.4771 23.8504 45.666 23.922ZM49.9033 29.6273C50.222 29.8779 50.4462 29.9615 50.6351 29.9138L50.9066 29.8541L50.8711 31.7996L50.8357 33.757L50.163 33.7809C49.7853 33.7928 49.4548 33.757 49.4076 33.6854C49.3721 33.6138 49.3249 32.7425 49.3013 31.7518C49.2895 30.7492 49.2423 29.7944 49.1833 29.6034C49.0653 29.1737 49.3013 29.1737 49.9033 29.6273ZM52.441 29.5437C52.6416 29.7944 52.6534 30.0689 52.6652 33.3632C52.6652 35.619 52.618 36.92 52.5472 36.9439C52.4882 36.9677 48.9826 36.9677 44.7571 36.9439L37.0851 36.92V33.399C37.0851 30.0331 37.0969 29.866 37.3211 29.6392C37.451 29.5079 37.6516 29.4005 37.7697 29.4005C37.9585 29.4005 37.9703 29.5796 37.9231 31.7757C37.8877 33.8645 37.9113 34.1867 38.0883 34.4612L38.289 34.7716H44.9224H51.5557L51.7682 34.3896C51.9688 34.0435 51.9806 33.8287 51.9098 31.728C51.8626 30.4747 51.8626 29.4125 51.9098 29.3647C52.0515 29.2215 52.2049 29.2692 52.441 29.5437ZM47.1059 29.6989C47.3892 30.0092 47.7551 30.0928 47.885 29.8779C47.9204 29.8063 48.0502 29.7586 48.1682 29.7586C48.3571 29.7586 48.3689 29.9257 48.3689 31.728C48.3571 34.0196 48.5105 33.8406 46.6338 33.7093C46.4686 33.6974 46.445 33.4706 46.4568 31.9906C46.4686 31.0596 46.4214 30.0928 46.3741 29.8421C46.2915 29.4363 46.3033 29.4005 46.5512 29.4005C46.7046 29.4005 46.9525 29.5437 47.1059 29.6989Z" fill="#A6A6A6"/>
<path d="M24.2428 18.539C24.0304 18.8851 24.0304 47.3159 24.2428 47.6621C24.3963 47.9008 24.5851 47.9008 39.9292 47.9008C57.8346 47.9008 55.8517 48.0679 55.8517 46.5521C55.8517 45.8598 55.8044 45.5733 55.651 45.3943C55.1671 44.8333 54.7304 45.2391 54.7304 46.2537V46.9459H39.9882C31.8795 46.9459 25.2225 46.934 25.1989 46.9101C25.1753 46.8743 25.1635 40.5365 25.1635 32.8141C25.1635 23.2178 25.1281 18.6942 25.0455 18.539C24.8802 18.2287 24.4317 18.2287 24.2428 18.539Z" fill="#A6A6A6"/>
<path d="M26.3677 39.9278C26.2615 40.0352 26.2261 40.823 26.2261 42.7088C26.2261 45.1198 26.2497 45.3705 26.4385 45.5495C26.6392 45.7286 27.2529 45.7524 32.8594 45.7524C38.7138 45.7524 39.0679 45.7405 39.2449 45.5376C39.422 45.3466 39.4456 44.9766 39.4456 42.7805C39.4456 41.2646 39.3984 40.1546 39.3276 40.0114C39.2095 39.7965 39.0089 39.7846 32.8594 39.7846C28.0792 39.7846 26.4739 39.8204 26.3677 39.9278ZM38.4541 42.7327L38.4423 44.6186L32.8712 44.6544C29.8024 44.6663 27.2766 44.6424 27.2766 44.5947C27.2648 44.535 27.2411 43.6756 27.2293 42.673L27.2057 40.8588H32.8358H38.4659L38.4541 42.7327Z" fill="#A6A6A6"/>
<path d="M32.0327 42.3627C31.714 42.5895 31.7022 42.8163 32.0091 43.1266C32.3278 43.4489 33.1894 43.4608 33.4609 43.1505C33.697 42.8879 33.7206 42.5179 33.5199 42.315C33.3193 42.1121 32.3396 42.136 32.0327 42.3627Z" fill="#A6A6A6"/>
<path d="M40.5665 40.0352C40.5193 40.1665 40.4839 41.4437 40.4839 42.864C40.4957 45.1915 40.5075 45.454 40.6963 45.5973C40.8616 45.7166 42.2189 45.7524 47.0582 45.7524C52.4287 45.7524 53.2313 45.7286 53.4673 45.5615C53.727 45.3824 53.727 45.3347 53.727 42.8163C53.727 41.2766 53.6798 40.1546 53.609 40.0114C53.491 39.7965 53.2903 39.7846 47.0582 39.7846C40.6609 39.7846 40.6373 39.7846 40.5665 40.0352ZM52.6411 42.7805L52.6057 44.6902H47.1291C44.1193 44.6902 41.6288 44.6544 41.5934 44.6186C41.5462 44.5827 41.5226 43.7234 41.5108 42.7088L41.499 40.8588H47.0818H52.6647L52.6411 42.7805Z" fill="#A6A6A6"/>
<path d="M46.3857 42.3034C46.1143 42.4586 46.1143 42.9121 46.3857 43.1628C46.7044 43.4492 47.5306 43.4253 47.8257 43.127C48.1208 42.8286 48.1208 42.6257 47.8493 42.375C47.6015 42.1482 46.7162 42.1005 46.3857 42.3034Z" fill="#A6A6A6"/>
<path d="M29.4409 62.1422H39.4849V63.3902H29.4409V62.1422ZM33.6529 63.9302H35.0209V64.1342C35.0209 66.0782 33.4849 67.5543 30.7009 67.9383L30.1009 66.7142C32.5609 66.4142 33.6529 65.2862 33.6529 64.1342V63.9302ZM33.9049 63.9302H35.2729V64.1342C35.2729 65.2862 36.3529 66.4142 38.8129 66.7142L38.2129 67.9383C35.4289 67.5543 33.9049 66.0782 33.9049 64.1342V63.9302ZM33.6529 60.9422H35.2369V62.5742H33.6529V60.9422ZM34.4689 57.0422C36.9169 57.0422 38.4889 57.8582 38.4889 59.2022C38.4889 60.5462 36.9169 61.3742 34.4689 61.3742C32.0209 61.3742 30.4489 60.5462 30.4489 59.2022C30.4489 57.8582 32.0209 57.0422 34.4689 57.0422ZM34.4689 58.2662C32.9449 58.2662 32.0929 58.5782 32.0929 59.2022C32.0929 59.8382 32.9449 60.1382 34.4689 60.1382C35.9809 60.1382 36.8449 59.8382 36.8449 59.2022C36.8449 58.5782 35.9809 58.2662 34.4689 58.2662ZM42.952 58.0982H44.26V58.7942C44.26 60.9182 43.264 62.8262 41.116 63.5342L40.324 62.2742C42.172 61.6622 42.952 60.2102 42.952 58.7942V58.0982ZM43.276 58.0982H44.572V58.7942C44.572 60.0902 45.316 61.3622 47.104 61.9022L46.348 63.1502C44.236 62.5142 43.276 60.7742 43.276 58.7942V58.0982ZM40.744 57.6062H46.744V58.8782H40.744V57.6062ZM47.632 56.8622H49.228V63.4502H47.632V56.8622ZM48.784 59.4182H50.704V60.7262H48.784V59.4182ZM45.604 63.6542C47.908 63.6542 49.36 64.4582 49.36 65.8142C49.36 67.1703 47.908 67.9743 45.604 67.9743C43.288 67.9743 41.836 67.1703 41.836 65.8142C41.836 64.4582 43.288 63.6542 45.604 63.6542ZM45.604 64.9022C44.188 64.9022 43.42 65.1902 43.42 65.8142C43.42 66.4382 44.188 66.7502 45.604 66.7502C47.02 66.7502 47.776 66.4382 47.776 65.8142C47.776 65.1902 47.02 64.9022 45.604 64.9022Z" fill="#7C7C7C"/>
</svg>
