<svg width="80" height="80" viewBox="0 0 80 80" fill="none" xmlns="http://www.w3.org/2000/svg">
<rect x="0.5" y="0.5" width="79" height="79" rx="39.5" fill="#F1F1F1"/>
<rect x="0.5" y="0.5" width="79" height="79" rx="39.5" stroke="#EFBA1A"/>
<rect x="0.5" y="0.5" width="79" height="79" rx="39.5" fill="#FEF7D4"/>
<rect x="0.5" y="0.5" width="79" height="79" rx="39.5" stroke="#EFBA1A"/>
<path d="M40.9969 15.1665C36.2343 15.1665 33.1468 18.3633 29.4956 19.5286C28.0104 20.0036 27.2679 20.2395 26.967 20.5736C26.6662 20.9061 26.5791 21.3953 26.4034 22.3707C24.5192 32.8143 28.6359 42.4695 38.4525 46.2283C39.5054 46.6321 40.0327 46.8332 41.0017 46.8332C41.9707 46.8332 42.4995 46.6305 43.554 46.2268C53.3691 42.4695 57.481 32.8143 55.5969 22.3707C55.4211 21.3953 55.3325 20.9061 55.0316 20.572C54.7308 20.2379 53.9898 20.002 52.5046 19.5286C48.8519 18.3633 45.7596 15.1665 40.9969 15.1665Z" stroke="#EFBA1A" stroke-width="1.5" stroke-linecap="round" stroke-linejoin="round"/>
<path d="M38.2291 27.7682C38.2291 27.6732 38.2417 27.1254 38.2449 26.4383C38.2449 25.8081 38.1911 25.2032 38.4919 24.6491C39.6161 22.4102 42.8461 22.6383 43.6441 24.9183C43.7818 25.2935 43.7913 25.8873 43.7866 26.4383C43.7818 27.1397 43.7961 27.7682 43.7961 27.7682M38.3668 28.4348C36.6568 28.4348 35.8018 29.6698 35.6118 30.4298C35.4218 31.1898 35.4218 33.9448 35.5358 35.0848C35.9158 36.5098 36.8658 37.0988 37.7968 37.2888C38.6518 37.3648 42.2618 37.3363 43.3068 37.3363C44.8268 37.3648 45.9668 36.7948 46.4418 35.0848C46.5368 34.5148 46.6318 31.3798 46.3943 30.4298C45.8908 28.9098 44.6368 28.4348 43.6868 28.4348H38.3668Z" stroke="#EFBA1A" stroke-width="1.5" stroke-linecap="round" stroke-linejoin="round"/>
<path d="M26.3393 57.336H33.5003V58.502H26.3393V57.336ZM25.2723 60.636H34.4903V61.835H25.2723V60.636ZM29.1333 57.864H30.5963V61.021H29.1333V57.864ZM26.3393 53.486H33.4233V54.663H27.8023V57.842H26.3393V53.486ZM38.1744 53.497C39.6924 53.497 40.8034 54.905 40.8034 57.127C40.8034 59.371 39.6924 60.779 38.1744 60.779C36.6454 60.779 35.5454 59.371 35.5454 57.127C35.5454 54.905 36.6454 53.497 38.1744 53.497ZM38.1744 54.828C37.4374 54.828 36.9424 55.631 36.9424 57.127C36.9424 58.645 37.4374 59.459 38.1744 59.459C38.9224 59.459 39.4064 58.645 39.4064 57.127C39.4064 55.631 38.9224 54.828 38.1744 54.828ZM42.4754 52.782H43.9274V63.001H42.4754V52.782ZM40.3744 56.456H43.0914V57.633H40.3744V56.456ZM45.8626 57.446H46.7206C48.7226 57.446 49.9546 57.402 51.3626 57.138L51.4946 58.304C50.0646 58.579 48.7776 58.634 46.7206 58.634H45.8626V57.446ZM45.8516 53.354H50.5046V56.489H47.3146V58.007H45.8626V55.4H49.0636V54.52H45.8516V53.354ZM52.0556 52.804H53.5186V58.986H52.0556V52.804ZM53.1006 55.224H54.8716V56.423H53.1006V55.224ZM46.7206 59.448H53.5186V62.979H52.0556V60.614H46.7206V59.448Z" fill="#D09808"/>
</svg>
