<svg width="80" height="80" viewBox="0 0 80 80" fill="none" xmlns="http://www.w3.org/2000/svg">
<rect x="0.5" y="0.5" width="79" height="79" rx="39.5" fill="#ffffff"/>
<rect x="0.5" y="0.5" width="79" height="79" rx="39.5" stroke="#A6A6A6"/>
<path d="M31.6254 56.956H33.2214V65.08H31.6254V56.956ZM29.7054 60.184H31.8534V61.48H29.7054V60.184ZM28.1214 57.784H29.8014C29.8014 60.784 27.9414 62.98 24.7134 64L24.0534 62.728C26.6094 61.924 28.1214 60.388 28.1214 58.504V57.784ZM24.6294 57.784H29.1414V59.068H24.6294V57.784ZM25.9374 66.604H33.4974V67.876H25.9374V66.604ZM25.9374 64.276H27.5454V67.336H25.9374V64.276ZM34.9725 65.488H45.0285V66.784H34.9725V65.488ZM39.1965 63.028H40.7925V65.848H39.1965V63.028ZM39.1485 58.408H40.4925V58.804C40.4925 61.144 38.8125 63.004 35.9805 63.52L35.3565 62.26C37.8285 61.876 39.1485 60.34 39.1485 58.804V58.408ZM39.4725 58.408H40.8165V58.804C40.8165 60.34 42.1365 61.828 44.6685 62.2L44.0565 63.46C41.1765 62.956 39.4725 61.144 39.4725 58.804V58.408ZM35.8005 57.796H44.1645V59.068H35.8005V57.796ZM53.6555 56.956H55.2635V68.068H53.6555V56.956ZM50.3795 58.108H51.9635C51.9635 61.504 50.8115 64.288 46.8635 66.196L46.0355 64.924C49.2275 63.388 50.3795 61.372 50.3795 58.396V58.108ZM46.6235 58.108H51.1355V59.368H46.6235V58.108Z" fill="#7C7C7C"/>
<path d="M25.7992 13.2381C25.7992 13.4166 25.7092 13.4761 25.4394 13.4761C24.9767 13.4761 24.4627 13.9641 24.2056 14.6664C24.0257 15.1425 24 16.9874 24 30.6994C24 40.9 24.0386 46.2205 24.1285 46.2682C24.2056 46.3039 24.257 46.4943 24.257 46.6847C24.257 47.0656 25.0024 47.756 25.4137 47.756C25.5422 47.756 25.6964 47.8036 25.7349 47.875C25.8506 48.0417 53.8924 48.0417 54.008 47.875C54.0466 47.8036 54.2137 47.756 54.3807 47.756C54.7663 47.756 55.3317 47.1847 55.4988 46.649C55.5759 46.3991 55.7044 46.2086 55.8072 46.2086C55.9743 46.2086 56 44.1733 56 30.628C56 15.1544 56 15.0473 55.743 14.9878C55.5631 14.9401 55.4859 14.8211 55.4859 14.5712C55.4859 14.1546 54.7534 13.4761 54.3165 13.4761C54.1622 13.4761 54.0209 13.3809 53.9823 13.2381C53.9181 13 53.8024 13 39.8586 13C25.8892 13 25.7992 13 25.7992 13.2381ZM53.9566 14.9282C54.2137 15.202 54.2137 15.4282 54.2137 30.6637C54.2137 44.5423 54.188 46.1491 54.008 46.3158C53.8281 46.4824 52.3245 46.5062 39.9229 46.5419L26.4103 46.5651C26.1756 46.5655 25.9507 46.4713 25.7863 46.3039V46.3039C25.5293 46.0301 25.5293 45.8397 25.5293 30.5803C25.5293 23.2811 25.5578 17.0794 25.5984 15.4367C25.6054 15.1507 25.7122 14.8884 25.9791 14.7854V14.7854C26.1205 14.7259 32.4305 14.6783 39.9743 14.6783L53.3544 14.6667C53.5828 14.6665 53.8009 14.7612 53.9566 14.9282V14.9282Z" fill="#A6A6A6"/>
<path d="M28.023 17.3759C27.4576 17.733 27.0977 18.4234 27.2262 18.9233C27.3933 19.5422 27.4833 19.697 27.9331 20.0064C28.2672 20.2445 28.5114 20.3159 28.9869 20.3159C29.6295 20.304 29.9379 20.1493 30.3491 19.6018C30.6704 19.1614 30.6319 18.1972 30.272 17.8044C29.5781 17.0665 28.7684 16.9117 28.023 17.3759Z" fill="#A6A6A6"/>
<path d="M38.6502 22.7601C38.1233 22.7959 37.5578 22.8911 37.4036 22.9744C37.2494 23.0458 36.9924 23.1172 36.8253 23.1172C36.6582 23.1172 36.4012 23.2005 36.2599 23.2958C36.1313 23.391 35.9257 23.4743 35.8101 23.4743C35.6944 23.4743 35.5273 23.5576 35.4374 23.6529C35.3474 23.7481 35.1932 23.8314 35.0904 23.8314C34.8719 23.8314 33.5611 24.736 32.7643 25.4264C32.186 25.9263 31.1193 27.307 30.8751 27.8783C30.8237 27.9735 30.7337 28.1402 30.6695 28.2354C30.6052 28.3306 30.5281 28.4616 30.5024 28.533C30.4896 28.5925 30.3868 28.8424 30.2968 29.0686C30.2068 29.2948 30.0912 29.7232 30.0398 30.0208C29.9884 30.3184 29.8727 30.8778 29.7956 31.2706C29.5129 32.6751 30.0655 35.258 30.9522 36.6864C31.0165 36.7816 31.1064 36.9482 31.1578 37.0434C31.2992 37.341 32.3787 38.6265 32.8542 39.0669C33.4968 39.6501 34.5892 40.4 35.0518 40.5666C35.1546 40.6024 35.3346 40.6738 35.4374 40.7333C36.6582 41.3998 37.5707 41.6022 39.6141 41.6498C41.0277 41.6974 41.5803 41.6617 42.1844 41.507C43.0582 41.2808 43.8936 40.9951 44.1763 40.8404C44.2791 40.7809 44.5233 40.6738 44.7289 40.6024C44.9217 40.5309 45.0759 40.4238 45.0759 40.3643C45.0759 40.3048 45.1402 40.2572 45.2173 40.2572C45.6028 40.2572 47.5048 38.5908 48.1346 37.6981C48.6229 37.0077 48.7771 36.7697 48.8671 36.5673C48.9185 36.4721 49.0342 36.246 49.137 36.0674C49.2398 35.9008 49.3169 35.6508 49.3169 35.5318C49.3169 35.4128 49.3683 35.258 49.4454 35.1866C49.651 34.9962 50.0109 32.9965 49.998 32.1038C49.9723 30.7112 49.4583 28.8543 48.7771 27.7593C48.7257 27.6641 48.6358 27.4974 48.5844 27.4022C48.5458 27.307 48.2374 26.9023 47.9161 26.5095C47.145 25.5454 46.3225 24.8431 45.2173 24.1647C44.9089 23.9623 44.8189 23.9266 44.4076 23.7719C44.3177 23.7362 44.1506 23.6648 44.0478 23.6171C43.4181 23.2839 42.9683 23.1172 42.737 23.1172C42.5956 23.1172 42.3 23.0458 42.0815 22.9506C41.6189 22.7482 40.0896 22.6768 38.6502 22.7601ZM41.6831 24.4265C42.2358 24.5575 42.7498 24.7241 42.8141 24.7836C42.8912 24.855 43.0711 24.9026 43.2253 24.9026C43.3795 24.9026 43.5723 24.986 43.6623 25.0812C43.7522 25.1764 43.8807 25.2597 43.945 25.2597C44.2406 25.2597 45.5771 26.2715 46.2454 27.0213C46.9522 27.795 46.9137 27.7593 47.235 28.3544C47.402 28.652 47.5819 28.9734 47.6334 29.0686C47.6976 29.1638 47.8518 29.5685 47.9803 29.9613C48.3273 30.9968 48.3016 33.6035 47.9418 34.5796C47.8004 34.9605 47.6205 35.3294 47.5305 35.4128C47.4534 35.4842 47.3892 35.627 47.3892 35.7341C47.3892 35.8532 47.2221 36.1626 47.0036 36.4245C46.7852 36.6983 46.6181 36.9601 46.6181 37.0196C46.6181 37.1506 45.2558 38.3527 44.6261 38.7812C43.6237 39.4478 42.647 39.8168 41.0534 40.0905C39.9482 40.281 39.7169 40.281 38.9972 40.15C38.5603 40.0548 37.9691 39.9477 37.6864 39.9001C37.4036 39.8644 37.0309 39.7573 36.851 39.662C36.6711 39.5787 36.4398 39.4597 36.337 39.4121C36.2342 39.3526 35.8872 39.1859 35.5787 39.0431C35.0261 38.7812 33.8052 37.7576 33.1241 36.9839C32.7129 36.5197 32.1474 35.508 31.8004 34.6034C31.5691 33.9963 31.5305 33.6273 31.5305 32.1633C31.5434 30.7945 31.5819 30.3541 31.749 30.0565C31.8775 29.8423 31.9675 29.5685 31.9675 29.4495C31.9675 29.3305 32.1089 28.9853 32.2888 28.6996C32.4558 28.4139 32.6615 28.0688 32.7257 27.9378C33.0599 27.2713 35.3731 25.2597 35.7972 25.2597C35.8615 25.2597 35.99 25.1764 36.0799 25.0812C36.1699 24.986 36.3627 24.9026 36.5169 24.9026C36.6711 24.9026 36.8639 24.8431 36.941 24.7717C37.1595 24.5694 38.9201 24.2123 39.8197 24.2004C40.2952 24.1885 41.1048 24.2956 41.6831 24.4265Z" fill="#A6A6A6"/>
<path d="M36.5716 28.2737C36.1876 28.4294 35.2002 29.9511 35.2002 30.4007C35.2002 30.7465 35.8036 31.8014 36.2608 32.2683C36.7911 32.8043 36.7728 33.1502 36.2059 33.6517C35.6939 34.1013 35.6391 34.4471 36.0048 34.8967C36.5899 35.6403 37.6322 35.0696 38.1808 33.7035C38.4733 33.0118 38.4733 32.9254 38.1808 32.3201C37.9979 31.957 37.6322 31.4036 37.3579 31.0924C36.8093 30.4699 36.8459 30.2278 37.5591 29.6052C38.0345 29.2075 38.0528 28.7752 37.6139 28.4121C37.2482 28.0835 37.1202 28.0662 36.5716 28.2737Z" fill="#A6A6A6"/>
<path d="M39.7713 28.2737C39.3873 28.4294 38.3999 29.9511 38.3999 30.4007C38.3999 30.7465 39.0033 31.8014 39.4605 32.2683C39.9908 32.8043 39.9725 33.1502 39.4056 33.6517C38.8936 34.1013 38.8388 34.4471 39.2045 34.8967C39.7896 35.6403 40.8319 35.0696 41.3805 33.7035C41.673 33.0118 41.673 32.9254 41.3805 32.3201C41.1976 31.957 40.8319 31.4036 40.5576 31.0924C40.009 30.4699 40.0456 30.2278 40.7588 29.6052C41.2342 29.2075 41.2525 28.7752 40.8136 28.4121C40.4479 28.0835 40.3199 28.0662 39.7713 28.2737Z" fill="#A6A6A6"/>
<path d="M42.9715 28.2737C42.5875 28.4294 41.6001 29.9511 41.6001 30.4007C41.6001 30.7465 42.2035 31.8014 42.6607 32.2683C43.191 32.8043 43.1727 33.1502 42.6058 33.6517C42.0938 34.1013 42.039 34.4471 42.4047 34.8967C42.9898 35.6403 44.0321 35.0696 44.5807 33.7035C44.8732 33.0118 44.8732 32.9254 44.5807 32.3201C44.3978 31.957 44.0321 31.4036 43.7578 31.0924C43.2092 30.4699 43.2458 30.2278 43.959 29.6052C44.4344 29.2075 44.4527 28.7752 44.0138 28.4121C43.6481 28.0835 43.5201 28.0662 42.9715 28.2737Z" fill="#A6A6A6"/>
</svg>
