<svg width="80" height="80" viewBox="0 0 80 80" fill="none" xmlns="http://www.w3.org/2000/svg">
<rect x="0.5" y="0.5" width="79" height="79" rx="39.5" fill="#FEF7D4"/>
<rect x="0.5" y="0.5" width="79" height="79" rx="39.5" stroke="#EFBA1A"/>
<path d="M31.1647 54.6916H32.7727V62.6716H31.1647V54.6916ZM25.3687 64.3276H33.0487V65.5996H25.3687V64.3276ZM25.3687 61.8676H26.9647V64.8436H25.3687V61.8676ZM26.7247 55.3876C28.4287 55.3876 29.7367 56.5636 29.7367 58.2076C29.7367 59.8396 28.4287 61.0276 26.7247 61.0276C25.0207 61.0276 23.7007 59.8396 23.7007 58.2076C23.7007 56.5636 25.0207 55.3876 26.7247 55.3876ZM26.7247 56.7676C25.8967 56.7676 25.2607 57.2956 25.2607 58.2076C25.2607 59.1076 25.8967 59.6356 26.7247 59.6356C27.5407 59.6356 28.1767 59.1076 28.1767 58.2076C28.1767 57.2956 27.5407 56.7676 26.7247 56.7676ZM35.1718 59.7676H36.0358C38.2678 59.7676 39.3838 59.7196 40.6318 59.4556L40.7878 60.7156C39.5038 61.0036 38.3278 61.0516 36.0358 61.0516H35.1718V59.7676ZM35.1718 55.4236H40.1638V56.6956H36.7438V60.1156H35.1718V55.4236ZM36.2998 61.8676H43.8718V65.7916H42.2758V63.1396H36.2998V61.8676ZM42.2758 54.6796H43.8718V61.3876H42.2758V54.6796ZM39.6478 57.4516H42.6838V58.7236H39.6478V57.4516ZM51.4789 56.1196H53.6869V57.4036H51.4789V56.1196ZM51.4789 58.2676H53.6869V59.5396H51.4789V58.2676ZM48.1549 55.3156H49.4389V56.5876C49.4389 58.8916 48.5029 60.8836 46.4029 61.6636L45.5509 60.4156C47.3869 59.7676 48.1549 58.2076 48.1549 56.5876V55.3156ZM48.4909 55.3156H49.7749V56.5876C49.7749 58.1116 50.4949 59.6356 52.2469 60.2956L51.3709 61.5316C49.4029 60.7516 48.4909 58.7956 48.4909 56.5876V55.3156ZM53.3149 54.6916H54.9109V62.9116H53.3149V54.6916ZM47.5549 64.3276H55.1509V65.5996H47.5549V64.3276ZM47.5549 62.1556H49.1629V65.1316H47.5549V62.1556Z" fill="#D09808"/>
<g clip-path="url(#clip0_1589_4332)">
<path d="M35.3417 16.4375V12.8125C35.3417 12.6322 35.4144 12.4594 35.5437 12.3319C35.673 12.2044 35.8483 12.1328 36.0312 12.1328C36.214 12.1328 36.3894 12.2044 36.5187 12.3319C36.648 12.4594 36.7206 12.6322 36.7206 12.8125V16.4375C36.7206 16.6178 36.648 16.7906 36.5187 16.9181C36.3894 17.0456 36.214 17.1172 36.0312 17.1172C35.8483 17.1172 35.673 17.0456 35.5437 16.9181C35.4144 16.7906 35.3417 16.6178 35.3417 16.4375ZM39.7082 17.1172C39.891 17.1172 40.0664 17.0456 40.1957 16.9181C40.325 16.7906 40.3976 16.6178 40.3976 16.4375V12.8125C40.3976 12.6322 40.325 12.4594 40.1957 12.3319C40.0664 12.2044 39.891 12.1328 39.7082 12.1328C39.5253 12.1328 39.35 12.2044 39.2207 12.3319C39.0914 12.4594 39.0187 12.6322 39.0187 12.8125V16.4375C39.0187 16.6178 39.0914 16.7906 39.2207 16.9181C39.35 17.0456 39.5253 17.1172 39.7082 17.1172ZM43.3852 17.1172C43.568 17.1172 43.7434 17.0456 43.8727 16.9181C44.002 16.7906 44.0746 16.6178 44.0746 16.4375V12.8125C44.0746 12.6322 44.002 12.4594 43.8727 12.3319C43.7434 12.2044 43.568 12.1328 43.3852 12.1328C43.2023 12.1328 43.0269 12.2044 42.8977 12.3319C42.7684 12.4594 42.6957 12.6322 42.6957 12.8125V16.4375C42.6957 16.6178 42.7684 16.7906 42.8977 16.9181C43.0269 17.0456 43.2023 17.1172 43.3852 17.1172ZM53.9106 22.4188L50.5093 24.9336V31.8438C50.5093 32.7451 50.1462 33.6095 49.4997 34.2468C48.8532 34.8841 47.9764 35.2422 47.0622 35.2422H32.3542C31.4399 35.2422 30.5631 34.8841 29.9166 34.2468C29.2702 33.6095 28.907 32.7451 28.907 31.8438V24.9336L25.5058 22.4188C25.3595 22.3106 25.2628 22.1496 25.2369 21.9711C25.2111 21.7927 25.2582 21.6114 25.3679 21.4672C25.4776 21.323 25.6409 21.2276 25.8219 21.2021C26.0029 21.1767 26.1868 21.2231 26.3331 21.3313L28.907 23.2344V20.0625C28.907 19.8822 28.9796 19.7094 29.1089 19.5819C29.2382 19.4544 29.4136 19.3828 29.5964 19.3828H49.8199C50.0028 19.3828 50.1781 19.4544 50.3074 19.5819C50.4367 19.7094 50.5093 19.8822 50.5093 20.0625V23.2344L53.0832 21.3313C53.2295 21.2231 53.4134 21.1767 53.5944 21.2021C53.7754 21.2276 53.9387 21.323 54.0485 21.4672C54.1582 21.6114 54.2053 21.7927 54.1794 21.9711C54.1536 22.1496 54.0568 22.3106 53.9106 22.4188ZM49.1305 20.7422H30.2859V31.8438C30.2859 32.3845 30.5038 32.9032 30.8916 33.2856C31.2795 33.668 31.8056 33.8828 32.3542 33.8828H47.0622C47.6107 33.8828 48.1368 33.668 48.5247 33.2856C48.9126 32.9032 49.1305 32.3845 49.1305 31.8438V20.7422Z" fill="#EFBA1A"/>
</g>
<ellipse cx="40" cy="42.5" rx="5" ry="2.5" fill="#EFBA1A"/>
<path d="M53.7867 38.2354C53.6225 38.1741 53.4664 38.1111 53.2974 38.0504C53.1294 37.9909 52.956 37.9322 52.7771 37.8743C49.1784 36.6654 44.4292 35.995 39.4995 36C36.9365 35.9977 34.3976 36.1776 32.0296 36.5295C29.6615 36.8813 27.5113 37.3981 25.7033 38.0499C18.2638 40.7192 18.1044 45.0242 25.2139 47.7647C25.3732 47.8277 25.5358 47.8899 25.7016 47.9513C25.8707 48.0114 26.043 48.068 26.217 48.1263C29.819 49.3344 34.5689 50.0044 39.4995 50C44.7117 50 49.6118 49.2726 53.2974 47.9513C60.7369 45.282 60.8946 40.977 53.7867 38.2354ZM26.7096 38.4109C28.3856 37.8065 30.3789 37.3274 32.5742 37.001C34.7695 36.6747 37.1233 36.5078 39.4995 36.5099C44.0923 36.5099 48.425 37.1212 51.774 38.2354L50.1466 38.8199C47.2429 37.8632 43.4417 37.3338 39.4995 37.337C37.4258 37.3349 35.3715 37.4804 33.4557 37.7652C31.5398 38.0499 29.8005 38.4683 28.3386 38.996C26.8684 39.5205 25.7028 40.1445 24.9094 40.8318C24.116 41.5191 23.7105 42.2561 23.7166 43C23.7166 44.428 25.1798 45.7726 27.8493 46.8202L26.2186 47.4042C19.6635 44.8614 19.8261 40.8808 26.7096 38.4109ZM49.1419 39.1798V39.1809L47.4918 39.7724C45.2958 39.0659 42.4491 38.6757 39.4995 38.6769C37.9169 38.6754 36.3492 38.7866 34.8872 39.004C33.4252 39.2214 32.0979 39.5406 30.9821 39.9433C29.8593 40.3437 28.969 40.82 28.3629 41.3447C27.7567 41.8694 27.4468 42.432 27.451 43C27.4466 44.0578 28.5336 45.0786 30.5025 45.8659L28.854 46.4586C26.4543 45.5129 25.129 44.2789 25.1391 43C25.1339 42.3231 25.5031 41.6526 26.2253 41.0272C26.9475 40.4019 28.0085 39.8342 29.3466 39.3571C30.6764 38.877 32.2586 38.4963 34.0014 38.2372C35.7442 37.978 37.613 37.8456 39.4995 37.8474C43.0973 37.8474 46.4919 38.3194 49.1419 39.1798ZM50.1271 43C50.1271 44.0179 49.02 44.9757 47.0122 45.6962C45.0043 46.4166 42.3381 46.8138 39.4995 46.8138C36.9283 46.814 34.4452 46.4778 32.5152 45.8682L32.5136 45.8659C32.3348 45.8111 32.1559 45.7562 31.9868 45.6962C31.8217 45.6349 31.6628 45.5714 31.5105 45.506C29.8083 44.8143 28.8713 43.9228 28.8767 43C28.8767 41.9815 29.9806 41.0243 31.9885 40.3044C32.973 39.9496 34.1436 39.6683 35.4328 39.4766C36.7219 39.285 38.1041 39.1869 39.4995 39.1879C42.0991 39.1879 44.5475 39.5239 46.4822 40.1329C46.6626 40.1889 46.8463 40.2438 47.0122 40.305C47.1791 40.3661 47.3389 40.4291 47.4918 40.494C49.1933 41.1859 50.1306 42.0773 50.1271 43ZM31.5072 46.2282C33.7025 46.9348 36.5502 47.3252 39.4995 47.3242C41.0826 47.3258 42.6507 47.2145 44.1129 46.9968C45.575 46.7791 46.9021 46.4594 48.0169 46.0561C49.1405 45.656 50.0315 45.1799 50.6379 44.6552C51.2444 44.1306 51.5543 43.568 51.5497 43C51.5526 41.9419 50.4665 40.9207 48.4997 40.1323L50.1466 39.542C52.5445 40.4879 53.8697 41.7214 53.8615 43C53.8668 43.677 53.4974 44.3477 52.7749 44.9731C52.0524 45.5986 50.991 46.1663 49.6524 46.6435C48.3231 47.1239 46.7411 47.5047 44.9982 47.7639C43.2552 48.023 41.3862 48.1554 39.4995 48.1532C35.9348 48.1564 32.4957 47.6809 29.8587 46.8202L31.5072 46.2282ZM52.2894 47.5891C50.6138 48.1936 48.6205 48.6729 46.4251 48.9991C44.2297 49.3253 41.8757 49.492 39.4995 49.4896C34.9458 49.4942 30.5574 48.8776 27.2233 47.7647L28.8556 47.1807C31.7585 48.1379 35.5602 48.6674 39.5028 48.6636C41.5767 48.6656 43.6311 48.5199 45.547 48.2349C47.4628 47.9499 49.202 47.5313 50.6636 47.0034C52.1337 46.479 53.2992 45.8551 54.0926 45.1679C54.886 44.4807 55.2915 43.7438 55.2857 43C55.2955 41.5855 53.8193 40.2217 51.1514 39.1804L52.7787 38.5959C59.3322 41.1386 59.1761 45.1187 52.2894 47.5891Z" fill="#EFBA1A"/>
<defs>
<clipPath id="clip0_1589_4332">
<rect x="25" y="11" width="29.416" height="29" rx="14.5" fill="white"/>
</clipPath>
</defs>
</svg>
