<svg width="80" height="80" viewBox="0 0 80 80" fill="none" xmlns="http://www.w3.org/2000/svg">
<rect x="0.5" y="0.5" width="79" height="79" rx="39.5" fill="#ffffff"/>
<rect x="0.5" y="0.5" width="79" height="79" rx="39.5" stroke="#A6A6A6"/>
<path d="M20.9863 54.6556H22.5943V65.7676H20.9863V54.6556ZM22.1863 58.9156H24.1423V60.2236H22.1863V58.9156ZM18.0703 55.8076H19.6423C19.6423 56.9196 19.4823 57.9716 19.1623 58.9636C18.8503 59.9556 18.3303 60.8676 17.6023 61.6996C16.8823 62.5236 15.9063 63.2436 14.6743 63.8596L13.7743 62.6476C14.7503 62.1436 15.5543 61.5756 16.1863 60.9436C16.8263 60.3116 17.2983 59.5956 17.6023 58.7956C17.9143 57.9876 18.0703 57.0876 18.0703 56.0956V55.8076ZM14.3863 55.8076H18.8983V57.0916H14.3863V55.8076ZM29.0614 55.3156H30.4414V56.1196C30.4414 56.5996 30.3734 57.0676 30.2374 57.5236C30.1094 57.9716 29.9174 58.3956 29.6614 58.7956C29.4054 59.1956 29.0894 59.5596 28.7134 59.8876C28.3454 60.2076 27.9214 60.4836 27.4414 60.7156C26.9614 60.9476 26.4334 61.1196 25.8574 61.2316L25.1734 59.8996C25.6694 59.8116 26.1214 59.6796 26.5294 59.5036C26.9454 59.3196 27.3094 59.0996 27.6214 58.8436C27.9334 58.5876 28.1974 58.3116 28.4134 58.0156C28.6294 57.7116 28.7894 57.3996 28.8934 57.0796C29.0054 56.7516 29.0614 56.4316 29.0614 56.1196V55.3156ZM29.3734 55.3156H30.7654V56.1196C30.7654 56.4396 30.8174 56.7636 30.9214 57.0916C31.0334 57.4196 31.1934 57.7356 31.4014 58.0396C31.6174 58.3356 31.8814 58.6076 32.1934 58.8556C32.5054 59.1036 32.8654 59.3196 33.2734 59.5036C33.6814 59.6796 34.1414 59.8116 34.6534 59.8996L33.9694 61.2316C33.3934 61.1196 32.8654 60.9476 32.3854 60.7156C31.9054 60.4836 31.4774 60.2076 31.1014 59.8876C30.7334 59.5676 30.4174 59.2076 30.1534 58.8076C29.8974 58.4076 29.7014 57.9796 29.5654 57.5236C29.4374 57.0676 29.3734 56.5996 29.3734 56.1196V55.3156ZM24.9334 63.1276H35.0014V64.4356H24.9334V63.1276ZM36.2725 61.8916H37.0645C37.7365 61.8916 38.3805 61.8756 38.9965 61.8436C39.6205 61.8036 40.2765 61.7276 40.9645 61.6156L41.0965 62.8996C40.3925 63.0276 39.7165 63.1076 39.0685 63.1396C38.4285 63.1716 37.7605 63.1876 37.0645 63.1876H36.2725V61.8916ZM36.2485 55.7716H40.1845V60.0196H37.8205V62.3836H36.2725V58.7596H38.6485V57.0316H36.2485V55.7716ZM43.9885 54.6676H45.5125V65.7796H43.9885V54.6676ZM40.6405 58.4476H42.3565V59.7556H40.6405V58.4476ZM41.7325 54.8716H43.2085V65.2516H41.7325V54.8716ZM54.6435 54.6796H56.2395V62.6596H54.6435V54.6796ZM48.8355 64.3156H56.5275V65.5996H48.8355V64.3156ZM48.8355 61.8676H50.4315V64.8436H48.8355V61.8676ZM50.1915 55.3876C50.7595 55.3876 51.2715 55.5076 51.7275 55.7476C52.1835 55.9876 52.5435 56.3196 52.8075 56.7436C53.0795 57.1676 53.2155 57.6556 53.2155 58.2076C53.2155 58.7436 53.0795 59.2276 52.8075 59.6596C52.5435 60.0836 52.1835 60.4196 51.7275 60.6676C51.2715 60.9076 50.7595 61.0276 50.1915 61.0276C49.6235 61.0276 49.1115 60.9076 48.6555 60.6676C48.1995 60.4196 47.8355 60.0836 47.5635 59.6596C47.2995 59.2276 47.1675 58.7436 47.1675 58.2076C47.1675 57.6556 47.2995 57.1676 47.5635 56.7436C47.8355 56.3196 48.1995 55.9876 48.6555 55.7476C49.1115 55.5076 49.6235 55.3876 50.1915 55.3876ZM50.1915 56.7556C49.9195 56.7556 49.6715 56.8156 49.4475 56.9356C49.2235 57.0476 49.0475 57.2116 48.9195 57.4276C48.7915 57.6356 48.7275 57.8956 48.7275 58.2076C48.7275 58.5036 48.7915 58.7596 48.9195 58.9756C49.0475 59.1836 49.2235 59.3476 49.4475 59.4676C49.6715 59.5796 49.9195 59.6356 50.1915 59.6356C50.4635 59.6356 50.7115 59.5796 50.9355 59.4676C51.1595 59.3476 51.3355 59.1836 51.4635 58.9756C51.5915 58.7596 51.6555 58.5036 51.6555 58.2076C51.6555 57.8956 51.5915 57.6356 51.4635 57.4276C51.3355 57.2116 51.1595 57.0476 50.9355 56.9356C50.7115 56.8156 50.4635 56.7556 50.1915 56.7556ZM60.7266 56.4316H61.9986V57.6796C61.9986 58.3196 61.9306 58.9476 61.7946 59.5636C61.6666 60.1796 61.4706 60.7596 61.2066 61.3036C60.9506 61.8396 60.6266 62.3156 60.2346 62.7316C59.8426 63.1396 59.3866 63.4636 58.8666 63.7036L57.9546 62.4436C58.4186 62.2276 58.8226 61.9476 59.1666 61.6036C59.5186 61.2596 59.8066 60.8756 60.0306 60.4516C60.2626 60.0196 60.4346 59.5676 60.5466 59.0956C60.6666 58.6156 60.7266 58.1436 60.7266 57.6796V56.4316ZM61.0746 56.4316H62.3346V57.6796C62.3346 58.1196 62.3906 58.5676 62.5026 59.0236C62.6226 59.4716 62.7946 59.8996 63.0186 60.3076C63.2426 60.7076 63.5266 61.0676 63.8706 61.3876C64.2146 61.7076 64.6226 61.9636 65.0946 62.1556L64.2186 63.4276C63.6906 63.1956 63.2306 62.8836 62.8386 62.4916C62.4466 62.0996 62.1186 61.6476 61.8546 61.1356C61.5906 60.6236 61.3946 60.0756 61.2666 59.4916C61.1386 58.8996 61.0746 58.2956 61.0746 57.6796V56.4316ZM58.3986 55.7356H64.6386V57.0556H58.3986V55.7356ZM65.6706 54.6796H67.2666V65.7916H65.6706V54.6796Z" fill="#7C7C7C"/>
<g clip-path="url(#clip0_849_4973)">
<path d="M35.4258 15.0075V11.0024C35.4258 10.8032 35.506 10.6122 35.6489 10.4714C35.7917 10.3306 35.9855 10.2515 36.1875 10.2515C36.3895 10.2515 36.5833 10.3306 36.7261 10.4714C36.869 10.6122 36.9492 10.8032 36.9492 11.0024V15.0075C36.9492 15.2066 36.869 15.3976 36.7261 15.5385C36.5833 15.6793 36.3895 15.7584 36.1875 15.7584C35.9855 15.7584 35.7917 15.6793 35.6489 15.5385C35.506 15.3976 35.4258 15.2066 35.4258 15.0075ZM40.25 15.7584C40.452 15.7584 40.6458 15.6793 40.7886 15.5385C40.9315 15.3976 41.0117 15.2066 41.0117 15.0075V11.0024C41.0117 10.8032 40.9315 10.6122 40.7886 10.4714C40.6458 10.3306 40.452 10.2515 40.25 10.2515C40.048 10.2515 39.8542 10.3306 39.7114 10.4714C39.5685 10.6122 39.4883 10.8032 39.4883 11.0024V15.0075C39.4883 15.2066 39.5685 15.3976 39.7114 15.5385C39.8542 15.6793 40.048 15.7584 40.25 15.7584ZM44.3125 15.7584C44.5145 15.7584 44.7083 15.6793 44.8511 15.5385C44.994 15.3976 45.0742 15.2066 45.0742 15.0075V11.0024C45.0742 10.8032 44.994 10.6122 44.8511 10.4714C44.7083 10.3306 44.5145 10.2515 44.3125 10.2515C44.1105 10.2515 43.9167 10.3306 43.7739 10.4714C43.631 10.6122 43.5508 10.8032 43.5508 11.0024V15.0075C43.5508 15.2066 43.631 15.3976 43.7739 15.5385C43.9167 15.6793 44.1105 15.7584 44.3125 15.7584ZM55.9414 21.6158L52.1836 24.3943V32.0289C52.1836 33.0248 51.7823 33.9798 51.0681 34.6839C50.3538 35.3881 49.3851 35.7837 48.375 35.7837H32.125C31.1149 35.7837 30.1462 35.3881 29.4319 34.6839C28.7177 33.9798 28.3164 33.0248 28.3164 32.0289V24.3943L24.5586 21.6158C24.397 21.4963 24.2901 21.3184 24.2616 21.1212C24.233 20.9241 24.285 20.7238 24.4063 20.5645C24.5275 20.4051 24.7079 20.2998 24.9079 20.2716C25.1079 20.2435 25.311 20.2948 25.4727 20.4143L28.3164 22.5169V19.0125C28.3164 18.8134 28.3967 18.6223 28.5395 18.4815C28.6824 18.3407 28.8761 18.2616 29.0781 18.2616H51.4219C51.6239 18.2616 51.8176 18.3407 51.9605 18.4815C52.1033 18.6223 52.1836 18.8134 52.1836 19.0125V22.5169L55.0274 20.4143C55.189 20.2948 55.3921 20.2435 55.5921 20.2716C55.7921 20.2998 55.9725 20.4051 56.0938 20.5645C56.215 20.7238 56.267 20.9241 56.2384 21.1212C56.2099 21.3184 56.103 21.4963 55.9414 21.6158ZM50.6602 19.7635H29.8398V32.0289C29.8398 32.6264 30.0806 33.1994 30.5092 33.6219C30.9377 34.0444 31.5189 34.2818 32.125 34.2818H48.375C48.9811 34.2818 49.5623 34.0444 49.9909 33.6219C50.4194 33.1994 50.6602 32.6264 50.6602 32.0289V19.7635Z" fill="#A6A6A6"/>
</g>
<path d="M33.2141 41.947C33.2162 41.9487 33.2156 41.952 33.2131 41.9529V41.9529C33.2107 41.9538 33.2101 41.9571 33.212 41.9588C33.3387 42.0703 33.4488 42.202 33.5316 42.3378L33.5819 42.4168C33.9785 43.1201 33.6992 43.9315 32.9675 44.4391C32.3027 44.8927 31.3755 45.0134 30.5152 44.9301C29.6997 44.8552 28.9512 44.4724 28.5211 43.944C28.4923 43.9077 28.4644 43.8703 28.4378 43.8322C28.2575 43.5735 28.1474 43.267 28.1133 42.9536V42.9536C28.1026 42.8119 28.1104 42.6683 28.1357 42.526C28.2118 42.0998 29.0028 42.4323 29.3143 42.7331V42.7331V42.7331C29.3552 42.7691 29.3977 42.8052 29.4493 42.8226C29.5099 42.843 29.5754 42.8451 29.6382 42.8246C29.6846 42.8108 29.7258 42.7856 29.7534 42.7531C29.7959 42.703 29.7758 42.6312 29.75 42.5708V42.5708C29.2584 41.6054 29.6718 40.4778 30.7163 39.8411V39.8411C31.0603 39.6301 31.4411 40.0914 31.5561 40.4783C31.6355 40.7454 31.8085 40.9954 32.0737 41.1893C32.3307 41.3849 32.6379 41.5139 32.906 41.697L33.2141 41.947ZM31.9423 43.8834C31.9437 43.8825 31.9438 43.8805 31.9424 43.8795V43.8795C31.9411 43.8785 31.9412 43.8764 31.9426 43.8755C32.1921 43.7129 32.3306 43.4353 32.3195 43.1866L32.3027 43.0535C32.191 42.6374 31.705 42.5001 31.3922 42.1963V42.1963C31.2647 42.0733 31.0429 42.0793 31.0403 42.2565C31.0391 42.335 31.0493 42.4155 31.0682 42.5001C31.1241 42.7372 31.2526 42.9411 31.1855 43.1866V43.1866C31.0529 43.5881 30.9612 44.1533 31.3791 44.0891C31.4187 44.083 31.4586 44.0749 31.4984 44.0646C31.6424 44.0357 31.8249 43.9577 31.9423 43.8834ZM29.9315 45.7832C30.1614 45.7832 30.3477 45.9695 30.3477 46.1993V46.1993C30.3477 46.4281 30.599 46.6154 30.9062 46.6154C31.2135 46.6154 31.4648 46.4281 31.4648 46.1993V46.1993C31.4648 45.9695 31.6511 45.7832 31.881 45.7832H32.1659C32.3957 45.7832 32.582 45.9695 32.582 46.1993V46.1993C32.582 46.4281 32.8334 46.6154 33.1406 46.6154C33.4479 46.6154 33.6992 46.4281 33.6992 46.1993V46.1993C33.6992 45.9695 33.8866 45.7834 34.1124 45.8259C34.7 45.9366 35.375 46.2494 35.375 46.6154V46.6154C35.375 47.075 35.0024 47.4476 34.5428 47.4476H27.2697C26.8101 47.4476 26.4375 47.075 26.4375 46.6154V46.6154C26.4375 46.2498 27.1145 45.9373 27.7001 45.8263C27.9259 45.7835 28.1133 45.9695 28.1133 46.1993V46.1993C28.1133 46.4281 28.3646 46.6154 28.6719 46.6154C28.9791 46.6154 29.2305 46.4281 29.2305 46.1993V46.1993C29.2305 45.9695 29.4168 45.7832 29.6466 45.7832H29.9315Z" fill="#A6A6A6"/>
<path d="M42.1516 41.947C42.1537 41.9487 42.1531 41.952 42.1506 41.9529V41.9529C42.1482 41.9538 42.1476 41.9571 42.1495 41.9588C42.2762 42.0703 42.3863 42.202 42.4691 42.3378L42.5194 42.4168C42.916 43.1201 42.6367 43.9315 41.905 44.4391C41.2402 44.8927 40.313 45.0134 39.4527 44.9301C38.6372 44.8552 37.8887 44.4724 37.4586 43.944C37.4298 43.9077 37.4019 43.8703 37.3753 43.8322C37.195 43.5735 37.0849 43.267 37.0508 42.9536V42.9536C37.0401 42.8119 37.0479 42.6683 37.0732 42.526C37.1493 42.0998 37.9403 42.4323 38.2518 42.7331V42.7331V42.7331C38.2927 42.7691 38.3352 42.8052 38.3868 42.8226C38.4474 42.843 38.5129 42.8451 38.5757 42.8246C38.6221 42.8108 38.6633 42.7856 38.6909 42.7531C38.7334 42.703 38.7133 42.6312 38.6875 42.5708V42.5708C38.1959 41.6054 38.6093 40.4778 39.6538 39.8411V39.8411C39.9978 39.6301 40.3786 40.0914 40.4936 40.4783C40.573 40.7454 40.746 40.9954 41.0112 41.1893C41.2682 41.3849 41.5754 41.5139 41.8435 41.697L42.1516 41.947ZM40.8798 43.8834C40.8812 43.8825 40.8813 43.8805 40.8799 43.8795V43.8795C40.8786 43.8785 40.8787 43.8764 40.8801 43.8755C41.1296 43.7129 41.2681 43.4353 41.257 43.1866L41.2402 43.0535C41.1285 42.6374 40.6425 42.5001 40.3297 42.1963V42.1963C40.2022 42.0733 39.9804 42.0793 39.9778 42.2565C39.9766 42.335 39.9868 42.4155 40.0057 42.5001C40.0616 42.7372 40.1901 42.9411 40.123 43.1866V43.1866C39.9904 43.5881 39.8987 44.1533 40.3166 44.0891C40.3562 44.083 40.3961 44.0749 40.4359 44.0646C40.5799 44.0357 40.7624 43.9577 40.8798 43.8834ZM38.869 45.7832C39.0989 45.7832 39.2852 45.9695 39.2852 46.1993V46.1993C39.2852 46.4281 39.5365 46.6154 39.8438 46.6154C40.151 46.6154 40.4023 46.4281 40.4023 46.1993V46.1993C40.4023 45.9695 40.5886 45.7832 40.8185 45.7832H41.1034C41.3332 45.7832 41.5195 45.9695 41.5195 46.1993V46.1993C41.5195 46.4281 41.7709 46.6154 42.0781 46.6154C42.3854 46.6154 42.6367 46.4281 42.6367 46.1993V46.1993C42.6367 45.9695 42.8241 45.7834 43.0499 45.8259C43.6375 45.9366 44.3125 46.2494 44.3125 46.6154V46.6154C44.3125 47.075 43.9399 47.4476 43.4803 47.4476H36.2072C35.7476 47.4476 35.375 47.075 35.375 46.6154V46.6154C35.375 46.2498 36.052 45.9373 36.6376 45.8263C36.8634 45.7835 37.0508 45.9695 37.0508 46.1993V46.1993C37.0508 46.4281 37.3021 46.6154 37.6094 46.6154C37.9166 46.6154 38.168 46.4281 38.168 46.1993V46.1993C38.168 45.9695 38.3543 45.7832 38.5841 45.7832H38.869Z" fill="#A6A6A6"/>
<path d="M51.0891 41.947C51.0912 41.9487 51.0906 41.952 51.0881 41.9529V41.9529C51.0857 41.9538 51.0851 41.9571 51.087 41.9588C51.2137 42.0703 51.3238 42.202 51.4066 42.3378L51.4569 42.4168C51.8535 43.1201 51.5742 43.9315 50.8425 44.4391C50.1777 44.8927 49.2505 45.0134 48.3902 44.9301C47.5747 44.8552 46.8262 44.4724 46.3961 43.944C46.3673 43.9077 46.3394 43.8703 46.3128 43.8322C46.1325 43.5735 46.0224 43.267 45.9883 42.9536V42.9536C45.9776 42.8119 45.9854 42.6683 46.0107 42.526C46.0868 42.0998 46.8778 42.4323 47.1893 42.7331V42.7331V42.7331C47.2302 42.7691 47.2727 42.8052 47.3243 42.8226C47.3849 42.843 47.4504 42.8451 47.5132 42.8246C47.5596 42.8108 47.6008 42.7856 47.6284 42.7531C47.6709 42.703 47.6508 42.6312 47.625 42.5708V42.5708C47.1334 41.6054 47.5468 40.4778 48.5913 39.8411V39.8411C48.9353 39.6301 49.3161 40.0914 49.4311 40.4783C49.5105 40.7454 49.6835 40.9954 49.9487 41.1893C50.2057 41.3849 50.5129 41.5139 50.781 41.697L51.0891 41.947ZM49.8173 43.8834C49.8187 43.8825 49.8188 43.8805 49.8174 43.8795V43.8795C49.8161 43.8785 49.8162 43.8764 49.8176 43.8755C50.0671 43.7129 50.2056 43.4353 50.1945 43.1866L50.1777 43.0535C50.066 42.6374 49.58 42.5001 49.2672 42.1963V42.1963C49.1397 42.0733 48.9179 42.0793 48.9153 42.2565C48.9141 42.335 48.9243 42.4155 48.9432 42.5001C48.9991 42.7372 49.1276 42.9411 49.0605 43.1866V43.1866C48.9279 43.5881 48.8362 44.1533 49.2541 44.0891C49.2937 44.083 49.3336 44.0749 49.3734 44.0646C49.5174 44.0357 49.6999 43.9577 49.8173 43.8834ZM47.8065 45.7832C48.0364 45.7832 48.2227 45.9695 48.2227 46.1993V46.1993C48.2227 46.4281 48.474 46.6154 48.7812 46.6154C49.0885 46.6154 49.3398 46.4281 49.3398 46.1993V46.1993C49.3398 45.9695 49.5261 45.7832 49.756 45.7832H50.0409C50.2707 45.7832 50.457 45.9695 50.457 46.1993V46.1993C50.457 46.4281 50.7084 46.6154 51.0156 46.6154C51.3229 46.6154 51.5742 46.4281 51.5742 46.1993V46.1993C51.5742 45.9695 51.7616 45.7834 51.9874 45.8259C52.575 45.9366 53.25 46.2494 53.25 46.6154V46.6154C53.25 47.075 52.8774 47.4476 52.4178 47.4476H45.1447C44.6851 47.4476 44.3125 47.075 44.3125 46.6154V46.6154C44.3125 46.2498 44.9895 45.9373 45.5751 45.8263C45.8009 45.7835 45.9883 45.9695 45.9883 46.1993V46.1993C45.9883 46.4281 46.2396 46.6154 46.5469 46.6154C46.8541 46.6154 47.1055 46.4281 47.1055 46.1993V46.1993C47.1055 45.9695 47.2918 45.7832 47.5216 45.7832H47.8065Z" fill="#A6A6A6"/>
<defs>
<clipPath id="clip0_849_4973">
<rect x="24" y="9" width="32.5" height="32.0404" rx="16.0202" fill="white"/>
</clipPath>
</defs>
</svg>
