<svg width="80" height="80" viewBox="0 0 80 80" fill="none" xmlns="http://www.w3.org/2000/svg">
<rect x="0.5" y="0.5" width="79" height="79" rx="39.5" fill="#FEF7D4"/>
<rect x="0.5" y="0.5" width="79" height="79" rx="39.5" stroke="#EFBA1A"/>
<path d="M40 79.5C18.1848 79.5 0.5 61.8152 0.5 40C0.5 18.1848 18.1848 0.5 40 0.5C61.8152 0.5 79.5 18.1848 79.5 40C79.5 61.8152 61.8152 79.5 40 79.5Z" fill="#FEF7D4" stroke="#EFBA1A"/>
<path d="M22.0275 13.7198C21.4745 13.7888 20.5133 14.6448 20.5133 15.059C20.5133 15.2384 20.4607 15.4317 20.3817 15.4731C20.2895 15.5284 20.25 19.9186 20.25 28.2159C20.25 38.2941 20.2895 40.9862 20.4212 41.4004C20.7503 42.3668 21.5008 42.9052 22.5542 42.9328C22.778 42.9466 22.8307 43.0709 22.8833 43.6369C22.9623 44.41 23.2915 45.0313 23.7128 45.1693C24.1605 45.3212 26.0565 45.3488 26.5832 45.2107C27.1888 45.0589 27.5312 44.5343 27.6233 43.6645L27.6892 43.0018H39.8683H52.0475L52.087 43.6645C52.1133 44.1477 52.2318 44.4514 52.4952 44.7966C52.8638 45.266 52.8638 45.266 54.1015 45.2936C56.2082 45.3488 56.7217 45.0451 56.8533 43.6369C56.906 43.0709 56.9587 42.9466 57.1825 42.9328C58.1963 42.9052 59.0917 42.2839 59.276 41.4694C59.3155 41.2485 59.4472 41.0828 59.5525 41.0828C59.7237 41.0828 59.75 39.509 59.75 28.3815C59.75 17.3645 59.7237 15.6802 59.5525 15.6802C59.4472 15.6802 59.3287 15.487 59.276 15.197C59.2233 14.8519 59.0258 14.562 58.6308 14.2168L58.0647 13.7336L40.2502 13.706C30.441 13.6922 22.2513 13.706 22.0275 13.7198ZM50.1647 15.059C50.191 15.128 50.1778 21.1749 50.1383 28.492L50.0725 41.7869L36.208 41.7731C22.0275 41.7731 22.1065 41.7731 21.5403 41.2485C21.3165 41.0552 21.3033 40.2683 21.3033 28.4229C21.3033 15.8459 21.3033 15.7907 21.5798 15.4317C21.7378 15.2108 22.0275 15.0314 22.2645 14.9899C23.1072 14.8519 50.1383 14.9209 50.1647 15.059ZM58.1305 15.3765L58.4202 15.7493V28.3125C58.4202 40.1026 58.407 40.8895 58.1963 41.1657C57.7618 41.7041 57.5117 41.7455 54.4175 41.7869L51.3892 41.8145L51.3497 28.5058C51.3365 21.1887 51.3497 15.128 51.376 15.059C51.4023 14.9623 52.5478 14.9347 54.6282 14.9623L57.8408 15.0038L58.1305 15.3765ZM26.4383 43.2365C26.5305 43.4712 26.5305 43.6783 26.4252 43.8578C26.3067 44.1063 26.175 44.1201 25.2138 44.0925C24.1342 44.0511 24.1342 44.0511 24.0947 43.6645C24.0157 42.9328 24.1078 42.8776 25.2533 42.8776C26.2672 42.8776 26.3198 42.8914 26.4383 43.2365ZM55.6025 43.4988V44.0511H54.4965C53.509 44.0511 53.3773 44.0235 53.2983 43.775C53.2457 43.6231 53.2457 43.3608 53.3115 43.1813C53.4168 42.8776 53.4827 42.8638 54.5097 42.9052L55.6025 42.9466V43.4988Z" fill="#EFBA1A"/>
<path d="M23.7525 16.9088C23.002 17.4335 23.0152 17.1573 23.0152 28.3676C23.0152 39.2466 23.002 39.1223 23.6208 39.6055C23.8973 39.8126 24.8453 39.8402 35.8 39.8402L47.6763 39.854L48.124 39.3984L48.5585 38.9566V28.3262C48.5453 16.5775 48.6112 17.4749 47.7422 16.8812C47.413 16.6603 46.6098 16.6465 35.7605 16.6465C24.5293 16.6465 24.1212 16.6603 23.7525 16.9088ZM47.3077 26.6971V35.4362L44.7007 35.4638C42.1332 35.4914 42.1068 35.4914 42.1068 35.2015C42.1068 35.0358 42.199 34.8149 42.3175 34.7183C42.436 34.6216 42.5808 34.4145 42.6467 34.2489C42.7915 33.9451 42.9232 33.6966 43.463 32.8407C43.9502 32.0399 43.9238 31.4877 43.3708 30.7974L42.9232 30.2452H35.8395C28.9533 30.2452 28.7295 30.259 28.3872 30.5213C28.1897 30.687 27.9658 31.0459 27.8737 31.3773C27.6893 32.0676 27.8342 32.5508 28.4398 33.3653C28.6373 33.6414 28.8085 33.9175 28.8085 33.9728C28.8085 34.028 28.9928 34.3041 29.2035 34.594C29.4273 34.8839 29.5985 35.2153 29.5985 35.3533C29.5985 35.5466 29.5063 35.5742 28.8875 35.4914C27.9922 35.3671 27.6235 35.5604 27.6235 36.1126C27.6235 36.4164 27.6893 36.5406 27.9263 36.5958C28.0843 36.6373 32.5347 36.6511 37.8013 36.6373L47.3867 36.5958L47.3472 37.6037L47.3077 38.6115H35.8132C29.4932 38.6115 24.266 38.5701 24.2133 38.5425C24.029 38.4182 24.1343 36.7891 24.3318 36.6649C24.4372 36.5958 24.7927 36.582 25.1482 36.6235C26.0567 36.7339 26.4517 36.2921 26.004 35.6294C25.8592 35.4224 25.6617 35.3809 25.0165 35.4085C24.424 35.4224 24.2002 35.3809 24.2002 35.2567C24.1607 32.8821 24.2265 18.0961 24.2792 18.0133C24.3187 17.9443 29.3747 17.9028 35.8263 17.9167L47.3077 17.9581V26.6971ZM42.4097 31.4739C42.6598 31.5429 42.7125 32.0399 42.4887 32.178C42.4228 32.2332 42.2912 32.4127 42.2253 32.5646C42.1595 32.7302 41.9883 33.0478 41.8435 33.2825C41.6987 33.5034 41.5275 33.8209 41.4485 33.9728C41.1588 34.5526 40.7638 35.2153 40.619 35.3533C40.5137 35.4362 38.7757 35.4638 35.6683 35.4224L30.8757 35.3533L30.507 34.663C30.2963 34.2765 30.0725 33.8485 29.9935 33.6966C29.9145 33.5448 29.7433 33.2272 29.5985 33.0063C28.9533 31.9709 28.9007 31.8191 29.1245 31.5844C29.2957 31.3773 29.9013 31.3497 35.7473 31.3773C39.276 31.3911 42.278 31.4325 42.4097 31.4739Z" fill="#EFBA1A"/>
<path d="M33.1659 22.9973C32.4154 23.7566 32.4154 25.0267 33.1659 25.8275C33.3766 26.0622 33.5477 26.3383 33.5477 26.4349C33.5477 26.5178 33.3634 26.8491 33.1264 27.1528C32.7314 27.6774 32.7182 27.6913 32.9552 27.9674C33.4161 28.5058 33.9822 28.2711 34.5089 27.3185C34.8512 26.6696 34.7986 26.0484 34.3377 25.4547C33.7979 24.7644 33.7057 24.2122 34.0612 23.8394C34.4036 23.4805 34.4167 22.9145 34.0876 22.7212C33.7057 22.5141 33.6004 22.5417 33.1659 22.9973Z" fill="#EFBA1A"/>
<path d="M36.906 22.7075C36.6295 22.8318 35.9185 24.0467 35.9185 24.4057C35.9185 24.6818 36.353 25.5239 36.6821 25.8967C37.064 26.3247 37.0508 26.6008 36.6426 27.0011C36.274 27.3601 36.2345 27.6362 36.4978 27.9952C36.9191 28.5888 37.6696 28.1332 38.0646 27.0426C38.2753 26.4903 38.2753 26.4213 38.0646 25.9381C37.933 25.6482 37.6696 25.2064 37.4721 24.9579C37.0771 24.4609 37.1035 24.2676 37.617 23.7706C37.9593 23.4531 37.9725 23.1079 37.6565 22.818C37.3931 22.5557 37.301 22.5419 36.906 22.7075Z" fill="#EFBA1A"/>
<path d="M52.9696 17.1295L52.5088 17.6265V18.9795C52.5088 20.1529 52.5483 20.36 52.7721 20.5809C52.9828 20.788 53.0881 20.8018 53.3646 20.6776C53.6675 20.5257 53.6806 20.4567 53.7201 19.2418L53.7596 17.9578L54.9183 17.9164L56.0638 17.875L56.0901 21.4093C56.0901 23.3421 56.1033 25.0126 56.1165 25.0954C56.1296 25.2197 55.7873 25.2887 54.9183 25.3163L53.6938 25.3577V23.9081C53.6938 22.569 53.6675 22.4447 53.4173 22.2928C53.2066 22.1824 53.0618 22.1824 52.8248 22.3204C52.522 22.4861 52.5088 22.5413 52.5088 24.129C52.5088 25.7719 52.5088 25.7857 52.8906 26.1861C53.2725 26.5864 53.2856 26.5864 54.9051 26.5864C56.5246 26.5864 56.551 26.5864 56.8933 26.1999L57.2488 25.8133V21.6578V17.5022L56.788 17.0743C56.3271 16.6463 56.3008 16.6463 54.8788 16.6463H53.4436L52.9696 17.1295Z" fill="#EFBA1A"/>
<path d="M52.7458 28.257C52.6141 28.326 52.5088 28.5193 52.5088 28.685C52.5088 29.2372 52.8511 29.3339 54.8525 29.3477C55.9058 29.3477 56.8538 29.2786 56.9986 29.2096C57.3146 29.0301 57.341 28.3122 57.0381 28.188C56.6958 28.0499 52.9828 28.1051 52.7458 28.257Z" fill="#EFBA1A"/>
<path d="M52.7456 30.3285C52.4296 30.5218 52.4428 31.1016 52.7719 31.2811C53.1538 31.502 56.8009 31.502 57.0511 31.2811C57.3144 31.0464 57.3013 30.3699 57.0379 30.2595C56.6956 30.1214 52.9826 30.1766 52.7456 30.3285Z" fill="#EFBA1A"/>
<path d="M54.0228 35.105C53.5225 35.3811 52.9037 35.9748 52.9037 36.1957C52.9037 36.2785 52.8115 36.4304 52.7062 36.527C52.4165 36.7755 52.456 37.8109 52.772 38.4322C53.088 39.0534 53.3645 39.4262 53.4962 39.4262C53.562 39.4262 53.7068 39.5228 53.8385 39.6471C54.1808 39.9784 55.4975 39.9646 55.9978 39.6195C56.485 39.2881 56.722 39.0396 57.0248 38.5702C57.3145 38.087 57.3408 36.6374 57.0512 36.3889C56.9458 36.2923 56.8537 36.1404 56.8537 36.0576C56.8537 35.8505 56.3797 35.4225 55.8003 35.1188C55.2473 34.8151 54.5495 34.8151 54.0228 35.105ZM55.6555 36.4718C56.1953 36.9412 56.2348 37.8247 55.7477 38.3217C54.984 39.0673 53.7068 38.5288 53.6937 37.4796C53.6937 37.0654 53.7858 36.8859 54.1545 36.5408C54.7207 36.0162 55.1288 36.0024 55.6555 36.4718Z" fill="#EFBA1A"/>
<path d="M18.432 58.1243H21.024V59.4083H18.432V58.1243ZM20.184 55.2683H21.78V63.3683H20.184V55.2683ZM14.448 64.9043H22.032V66.1763H14.448V64.9043ZM14.448 62.6843H16.044V65.6603H14.448V62.6843ZM15.048 56.7203H16.344V57.4163C16.344 59.5043 15.36 61.4363 13.224 62.1443L12.42 60.8723C14.256 60.2723 15.048 58.8203 15.048 57.4163V56.7203ZM15.384 56.7203H16.668V57.4163C16.668 58.7123 17.424 60.0923 19.176 60.6803L18.396 61.9283C16.332 61.2443 15.384 59.3963 15.384 57.4163V56.7203ZM12.852 56.0123H18.828V57.2723H12.852V56.0123ZM26.0151 57.0083H27.2751V58.2563C27.2751 60.7643 26.2191 63.3203 24.1791 64.2803L23.2791 63.0203C25.1151 62.1563 26.0151 60.0803 26.0151 58.2563V57.0083ZM26.3511 57.0083H27.6111V58.2563C27.6111 59.9363 28.4751 61.9043 30.2991 62.7443L29.4231 64.0043C27.3831 63.0563 26.3511 60.6203 26.3511 58.2563V57.0083ZM23.7111 56.3243H29.8071V57.6323H23.7111V56.3243ZM30.6231 55.2563H32.2311V66.3683H30.6231V55.2563ZM31.8711 59.4923H33.8391V60.8123H31.8711V59.4923ZM34.8581 62.4683H35.6501C36.9941 62.4683 38.1821 62.4323 39.5621 62.1923L39.6941 63.4763C38.2661 63.7403 37.0421 63.7763 35.6501 63.7763H34.8581V62.4683ZM34.8461 56.3483H38.7701V60.5963H36.4061V62.9723H34.8581V59.3483H37.2341V57.6083H34.8461V56.3483ZM42.5861 55.2563H44.0981V66.3683H42.5861V55.2563ZM39.2261 59.0363H40.9541V60.3443H39.2261V59.0363ZM40.3301 55.4603H41.8061V65.8403H40.3301V55.4603ZM53.2292 55.2683H54.8372V63.2483H53.2292V55.2683ZM47.4332 64.9043H55.1132V66.1763H47.4332V64.9043ZM47.4332 62.4443H49.0292V65.4203H47.4332V62.4443ZM48.7892 55.9643C50.4932 55.9643 51.8012 57.1403 51.8012 58.7843C51.8012 60.4163 50.4932 61.6043 48.7892 61.6043C47.0852 61.6043 45.7652 60.4163 45.7652 58.7843C45.7652 57.1403 47.0852 55.9643 48.7892 55.9643ZM48.7892 57.3443C47.9612 57.3443 47.3252 57.8723 47.3252 58.7843C47.3252 59.6843 47.9612 60.2123 48.7892 60.2123C49.6052 60.2123 50.2412 59.6843 50.2412 58.7843C50.2412 57.8723 49.6052 57.3443 48.7892 57.3443ZM59.3123 57.0083H60.5843V58.2563C60.5843 60.8243 59.5403 63.3323 57.4523 64.2803L56.5522 63.0203C58.4123 62.1923 59.3123 60.1403 59.3123 58.2563V57.0083ZM59.6723 57.0083H60.9323V58.2563C60.9323 60.0563 61.8203 61.9763 63.6803 62.7443L62.8163 64.0043C60.7043 63.0923 59.6723 60.7283 59.6723 58.2563V57.0083ZM56.9963 56.3243H63.2243V57.6323H56.9963V56.3243ZM64.2563 55.2563H65.8643V66.3683H64.2563V55.2563Z" fill="#D09808"/>
</svg>
