<svg width="80" height="80" viewBox="0 0 80 80" fill="none" xmlns="http://www.w3.org/2000/svg">
<rect x="0.5" y="0.5" width="79" height="79" rx="39.5" fill="#FEF7D4"/>
<rect x="0.5" y="0.5" width="79" height="79" rx="39.5" stroke="#EFBA1A"/>
<path d="M33.0269 27.2028C32.1269 27.6643 32 28.0509 32 30.1963C32 32.2543 32.1038 32.7033 32.6577 33.2023L33.0731 33.5764L33.0038 34.5244C32.9462 35.4224 32.9577 35.5098 33.2115 35.7717C33.5231 36.1209 33.9269 36.0586 34.0769 35.6594C34.1231 35.5222 34.1231 34.9734 34.0885 34.462L33.9962 33.5266L34.5038 33.0526L35 32.5661V30.3834C35 27.9137 34.9423 27.7017 34.0769 27.2277C33.5346 26.9284 33.5462 26.9284 33.0269 27.2028ZM33.8231 28.2505C33.9154 28.3503 33.9615 28.9989 33.9615 30.346C33.9615 32.2044 33.95 32.2917 33.7077 32.4539C33.4769 32.6036 33.4308 32.5911 33.2231 32.3292C33.0038 32.0548 32.9808 31.8677 32.9923 30.3335C33.0038 29.1361 33.05 28.5748 33.1654 28.3752C33.3385 28.0759 33.6154 28.026 33.8231 28.2505Z" fill="#EFBA1A"/>
<path d="M29.3917 12.18C29.3917 12.276 29.2368 12.384 29.0537 12.432C28.8706 12.468 28.5607 12.636 28.3776 12.804L28.0536 13.104L28.0113 29.796C27.9832 38.988 28.0113 46.716 28.0536 46.98C28.1804 47.712 28.7861 48 30.2087 48C31.9976 48 32.1103 47.916 33.1245 45.828C33.4344 45.18 33.4766 44.976 33.3499 44.772C33.1949 44.544 33.0541 44.52 31.2229 44.496L29.2368 44.46V35.352C29.2368 30.348 29.265 26.22 29.3072 26.196C29.3495 26.16 41.4633 26.124 42.1112 26.16C42.1817 26.16 42.1112 26.316 41.9845 26.508C41.6746 26.964 41.8013 27.24 42.3366 27.24C42.6606 27.24 42.9282 27.096 43.4353 26.652L44.1255 26.064L45.2805 26.052C45.9144 26.052 46.5905 26.016 46.7877 25.968C47.0413 25.92 47.168 25.944 47.2244 26.088C47.2948 26.232 47.1399 26.424 46.7173 26.736C46.3792 26.976 45.9003 27.348 45.6608 27.564C45.2242 27.948 45.1678 27.96 44.0692 27.96C43.055 27.96 42.9282 27.984 42.8437 28.2C42.7028 28.596 42.8859 28.896 43.3085 28.944C43.8297 28.992 43.8438 29.304 43.3367 29.544C42.8437 29.784 42.7592 30.276 43.1817 30.48C43.5902 30.66 43.7029 30.636 44.1818 30.24C44.703 29.808 44.8861 29.784 44.8861 30.156C44.8861 30.312 44.9706 30.54 45.0833 30.66C45.2664 30.876 45.2805 30.876 45.6608 30.672C46.0412 30.468 46.0412 30.42 45.9848 29.64L45.9144 28.812L46.5623 28.224C46.9145 27.9 47.3934 27.456 47.6047 27.252C48.3231 26.592 48.4076 26.712 48.3231 28.224L48.2386 29.58L47.4638 30.216C46.6609 30.888 46.5483 31.224 47.0413 31.488C47.2244 31.584 47.3793 31.572 47.7174 31.404C47.9568 31.296 48.1963 31.2 48.2386 31.2C48.2949 31.2 48.3231 34.128 48.2949 37.704C48.2808 41.292 48.2667 44.292 48.2667 44.364C48.2667 44.484 46.8722 44.52 41.8013 44.52C35.5472 44.52 35.3219 44.532 35.2374 44.748C35.1951 44.88 35.1951 45.12 35.2514 45.288L35.336 45.6L39.7871 45.624L44.2382 45.66L44.4072 45.96C44.5058 46.128 44.703 46.524 44.858 46.86C45.2664 47.748 45.7735 48 47.1399 48C48.4358 48 49.0555 47.784 49.3232 47.232C49.5626 46.74 49.633 33.348 49.3936 32.112C49.3091 31.656 49.2809 31.26 49.3232 31.224C49.3513 31.188 49.619 31.26 49.8866 31.392C50.4641 31.656 50.8444 31.536 50.9149 31.092C50.9571 30.888 50.7599 30.66 50.1965 30.204L49.4218 29.58L49.3372 28.224C49.2386 26.472 49.2246 26.472 50.9289 28.056L51.7037 28.776V29.64C51.7177 30.336 51.7741 30.54 51.9713 30.648C52.3093 30.828 52.6897 30.612 52.746 30.192C52.8024 29.76 52.9714 29.796 53.6052 30.372C54.0278 30.768 54.1968 30.852 54.4363 30.792C54.7603 30.696 54.9716 30.24 54.8307 29.94C54.7884 29.832 54.5631 29.664 54.3236 29.544C53.8447 29.316 53.8165 29.004 54.2814 28.944C54.718 28.896 54.9293 28.62 54.8307 28.26C54.7462 27.972 54.7039 27.96 53.6052 27.96C52.4925 27.96 52.4784 27.96 51.9572 27.504C51.6755 27.264 51.1966 26.88 50.9149 26.664C50.2387 26.172 50.1965 25.86 50.8163 25.968C51.0557 26.004 51.6896 26.04 52.2248 26.04H53.1827L53.887 26.652C54.4926 27.168 54.6476 27.252 55.0561 27.216C55.4082 27.192 55.535 27.12 55.5632 26.928C55.5913 26.796 55.5068 26.604 55.3801 26.52C54.9293 26.196 55.1265 26.04 55.9717 26.064C56.7323 26.1 56.7886 26.088 56.9154 25.764C57.1549 25.2 56.9013 25.008 55.9576 25.056C55.3378 25.092 55.1688 25.068 55.1688 24.924C55.1688 24.828 55.2674 24.72 55.3801 24.672C55.8308 24.528 55.4646 23.772 54.9434 23.76C54.8448 23.76 54.4363 24.048 54.0137 24.408L53.2531 25.056L51.9854 25.08C51.2952 25.092 50.6472 25.104 50.5627 25.092C50.3655 25.08 50.3092 24.72 50.4923 24.72C50.5486 24.72 51.0416 24.36 51.5769 23.928L52.5629 23.136L53.4362 23.208C54.5067 23.28 54.9856 23.052 54.8307 22.524C54.7603 22.26 54.6617 22.2 54.3236 22.2C53.7602 22.2 53.7884 21.96 54.394 21.552C54.9716 21.156 55.0702 20.616 54.6194 20.4C54.225 20.232 54.225 20.232 53.6052 20.76C52.9855 21.288 52.7742 21.36 52.7742 21.012C52.7742 20.58 52.6051 20.4 52.2107 20.4C51.7177 20.4 51.6473 20.556 51.6473 21.6C51.6473 22.404 51.6332 22.428 51.0135 22.992C49.1823 24.66 49.1682 24.672 49.3091 23.628C49.3513 23.22 49.3936 22.644 49.3936 22.356C49.3936 21.864 49.4499 21.78 50.1683 21.204C50.9994 20.544 51.1261 20.196 50.6472 19.944C50.4078 19.812 50.281 19.824 49.8866 20.028C49.3091 20.316 49.1823 20.208 49.4077 19.584C49.619 18.96 49.4077 18.6 48.8161 18.6C48.2808 18.6 48.0554 19.008 48.2949 19.56C48.5062 20.088 48.2667 20.268 47.7596 19.98C47.4497 19.812 47.3371 19.8 47.0553 19.932C46.5342 20.16 46.6469 20.496 47.492 21.192C48.1681 21.756 48.2667 21.888 48.2667 22.296C48.2667 22.56 48.309 23.1 48.3512 23.508C48.4639 24.36 48.2667 24.48 47.6469 23.904C45.7594 22.164 45.8721 22.32 45.9707 21.636C46.0834 20.712 45.9566 20.4 45.4496 20.4C45.0833 20.4 45.0129 20.46 44.9425 20.76C44.8298 21.216 44.5622 21.216 44.0269 20.76C43.6184 20.424 43.5902 20.412 43.2522 20.592C42.8014 20.856 42.8296 21.252 43.3367 21.6C43.872 21.984 43.872 22.2 43.3367 22.2C42.9986 22.2 42.9 22.26 42.8296 22.512C42.6747 23.028 43.0268 23.208 44.1537 23.184L45.1256 23.148L45.8158 23.724C46.1961 24.036 46.6891 24.42 46.9145 24.564C47.6047 25.032 47.3511 25.14 45.6468 25.104L44.1114 25.068L43.3789 24.408C42.9705 24.06 42.5197 23.76 42.3789 23.76C41.8436 23.76 41.5901 24.312 41.9985 24.6C42.1112 24.684 42.2098 24.828 42.2098 24.912C42.2098 25.056 41.1816 25.08 35.7163 25.056L29.2227 25.02L29.2509 19.332C29.2509 15.84 29.3213 13.56 29.4058 13.428C29.5326 13.212 29.9411 13.2 38.7447 13.2H47.9568L48.1259 13.548C48.2386 13.8 48.2667 14.292 48.1963 15.24C48.0695 16.752 48.2104 17.16 48.802 17.16C49.4218 17.16 49.5204 16.872 49.5344 15.228C49.5344 13.272 49.3513 12.804 48.4498 12.48C48.2667 12.42 48.1259 12.288 48.1259 12.18C48.1259 12.024 47.0553 12 38.7588 12C30.575 12 29.3917 12.024 29.3917 12.18ZM31.9272 45.768C31.9272 45.852 31.8286 45.996 31.7159 46.08C31.6032 46.164 31.5046 46.32 31.5046 46.428C31.5046 46.848 30.9694 47.16 30.2651 47.16C29.4058 47.16 29.2509 47.052 29.1523 46.464C29.0255 45.636 29.0678 45.6 30.589 45.6C31.6314 45.6 31.9272 45.636 31.9272 45.768ZM48.2949 46.26C48.2386 46.992 48.0132 47.16 47.1258 47.16C46.7736 47.16 46.4074 47.088 46.3229 47.004C46.0412 46.704 45.4777 45.732 45.5622 45.66C45.6045 45.624 46.2525 45.612 46.999 45.624L48.3372 45.66L48.2949 46.26Z" fill="#EFBA1A"/>
<path d="M32.7846 17.2749C32.1269 17.702 32 18.1291 32 19.9531C32 20.8073 32.0577 21.7077 32.1269 21.9502C32.4846 23.1161 33.8692 23.3701 34.6538 22.4119L35 21.9963V19.9762C34.9885 18.0599 34.9769 17.9444 34.7346 17.6558C34.1 16.9286 33.4885 16.8131 32.7846 17.2749ZM33.8231 18.1522C33.9154 18.2446 33.9615 18.8333 33.9615 20.057C33.9615 21.7193 33.95 21.8232 33.7192 21.9386C33.5 22.0656 33.2577 21.9732 33.0385 21.6846C33.0038 21.65 32.9808 20.9228 32.9923 20.0685C32.9923 18.9603 33.0385 18.4639 33.1654 18.2677C33.3385 17.9906 33.6038 17.9329 33.8231 18.1522Z" fill="#EFBA1A"/>
<path d="M31.8774 57.3559H33.3894V63.9919H31.8774V57.3559ZM30.5214 60.0319H32.2854V61.3279H30.5214V60.0319ZM29.4294 57.5599H30.9174V63.6199H29.4294V57.5599ZM29.6214 64.0879C31.9374 64.0879 33.4494 64.9279 33.4494 66.2839C33.4494 67.6399 31.9374 68.4679 29.6214 68.4679C27.3054 68.4679 25.8054 67.6399 25.8054 66.2839C25.8054 64.9279 27.3054 64.0879 29.6214 64.0879ZM29.6214 65.3359C28.2054 65.3359 27.3894 65.6479 27.3894 66.2839C27.3894 66.9079 28.2054 67.2319 29.6214 67.2319C31.0374 67.2319 31.8414 66.9079 31.8414 66.2839C31.8414 65.6479 31.0374 65.3359 29.6214 65.3359ZM24.3534 58.2199H25.9494V62.4199H24.3534V58.2199ZM24.3534 61.9759H25.1214C26.4414 61.9759 27.5574 61.9159 28.8294 61.6519L28.9854 62.9479C27.6654 63.2239 26.5014 63.2839 25.1214 63.2839H24.3534V61.9759ZM37.4325 58.5919H38.7405V59.2879C38.7405 61.4119 37.7445 63.3199 35.5965 64.0279L34.8045 62.7679C36.6525 62.1559 37.4325 60.7039 37.4325 59.2879V58.5919ZM37.7565 58.5919H39.0525V59.2879C39.0525 60.5839 39.7965 61.8559 41.5845 62.3959L40.8285 63.6439C38.7165 63.0079 37.7565 61.2679 37.7565 59.2879V58.5919ZM35.2245 58.0999H41.2245V59.3719H35.2245V58.0999ZM42.1125 57.3559H43.7085V63.9439H42.1125V57.3559ZM43.2645 59.9119H45.1845V61.2199H43.2645V59.9119ZM40.0845 64.1479C42.3885 64.1479 43.8405 64.9519 43.8405 66.3079C43.8405 67.6639 42.3885 68.4679 40.0845 68.4679C37.7685 68.4679 36.3165 67.6639 36.3165 66.3079C36.3165 64.9519 37.7685 64.1479 40.0845 64.1479ZM40.0845 65.3959C38.6685 65.3959 37.9005 65.6839 37.9005 66.3079C37.9005 66.9319 38.6685 67.2439 40.0845 67.2439C41.5005 67.2439 42.2565 66.9319 42.2565 66.3079C42.2565 65.6839 41.5005 65.3959 40.0845 65.3959ZM47.0315 58.2919H54.0755V59.5759H47.0315V58.2919ZM46.0115 65.8399H56.0555V67.1359H46.0115V65.8399ZM49.5635 62.0239H51.1595V66.4759H49.5635V62.0239ZM53.4995 58.2919H55.0955V59.3599C55.0955 60.7519 55.0955 62.3119 54.6515 64.6879L53.0555 64.5079C53.4995 62.2999 53.4995 60.6919 53.4995 59.3599V58.2919Z" fill="#D09808"/>
</svg>
