<svg width="26" height="26" viewBox="0 0 40 40" fill="none" xmlns="http://www.w3.org/2000/svg">
<path opacity="0.12" d="M20 21.6667C22.7614 21.6667 25 19.4281 25 16.6667C25 13.9053 22.7614 11.6667 20 11.6667C17.2386 11.6667 15 13.9053 15 16.6667C15 19.4281 17.2386 21.6667 20 21.6667Z" fill="black"/>
<path d="M20.0001 21.6666C22.7615 21.6666 25.0001 19.4281 25.0001 16.6666C25.0001 13.9052 22.7615 11.6666 20.0001 11.6666C17.2387 11.6666 15.0001 13.9052 15.0001 16.6666C15.0001 19.4281 17.2387 21.6666 20.0001 21.6666Z" stroke="#363636" stroke-width="3.33333" stroke-linecap="round" stroke-linejoin="round"/>
<path d="M20.0001 36.6666C26.6667 30 33.3334 24.0304 33.3334 16.6666C33.3334 9.30285 27.3639 3.33331 20.0001 3.33331C12.6363 3.33331 6.66675 9.30285 6.66675 16.6666C6.66675 24.0304 13.3334 30 20.0001 36.6666Z" stroke="#363636" stroke-width="3.33333" stroke-linecap="round" stroke-linejoin="round"/>
</svg>
