<svg width="100" height="100" viewBox="0 0 100 100" fill="none" xmlns="http://www.w3.org/2000/svg">
<rect x="1" y="1" width="98" height="98" rx="49" fill="white"/>
<rect x="1" y="1" width="98" height="98" rx="49" stroke="#A6A6A6" stroke-width="2"/>
<path d="M29.6646 21.1393C28.7938 21.6686 27.8179 22.9825 27.6828 23.7854C27.4876 24.9168 27.4275 37.1983 27.6077 37.4173C27.6828 37.5085 27.7579 37.91 27.7579 38.2932C27.7579 39.2969 28.6287 40.5013 29.8448 41.1765C30.4904 41.5415 30.8057 41.5415 49.8136 41.5232C67.6054 41.5232 69.1669 41.505 69.7524 41.213C70.8484 40.6655 71.8994 39.2604 71.8994 38.3297C71.8994 37.5632 72.0346 37.1618 72.2898 37.1618C72.47 37.1618 72.5 36.1216 72.5 30.8477C72.5 28.6644 72.4814 26.9728 72.452 25.9142C72.4286 25.0729 71.8994 24.4446 71.8994 23.6029C71.8994 23.0372 70.8184 21.6503 69.9776 21.1211C69.362 20.7379 69.317 20.7379 49.7986 20.7561C30.7607 20.7744 30.2202 20.7926 29.6646 21.1393ZM69.5873 22.7635C69.8575 22.9642 70.2779 23.4387 70.5331 23.8037C70.8176 24.2447 70.9711 24.7574 70.9758 25.2823L71.0136 29.4608C71.0586 32.6908 71.0286 34.4245 70.9235 34.4245C70.8484 34.4245 67.6654 34.4245 63.8519 34.4245L57.4643 34.4076C57.1489 34.4067 56.8629 34.5923 56.7351 34.8807C56.555 35.2822 56.57 35.3734 56.8252 35.7201C57.0955 36.0851 57.1856 36.0851 64.0921 36.0486L70.6515 36.0143C70.8913 36.0131 71.0931 36.1934 71.1187 36.4318C71.1487 36.6508 71.1187 36.9063 71.0436 36.9975C70.9535 37.107 65.5184 37.1618 57.7111 37.1618C48.072 37.1618 44.4836 37.2165 44.3335 37.3625C44.0632 37.6362 44.0632 38.0377 44.3485 38.3662C44.5437 38.6034 46.2553 38.6399 57.4258 38.6217C69.4221 38.6217 70.2629 38.6399 70.2178 38.9137C70.1878 39.0961 69.9776 39.3699 69.7224 39.5524C69.302 39.8443 68.1009 39.8808 49.8286 39.8808C31.5564 39.8808 30.3553 39.8443 29.9349 39.5524C29.6947 39.3699 29.4695 39.0961 29.4394 38.9137C29.3944 38.6217 29.8298 38.6034 35.8655 38.6217C42.817 38.6582 42.8321 38.6582 42.742 37.7275C42.7164 37.4581 42.4909 37.2519 42.2203 37.2505L35.7904 37.2165C31.9918 37.18 28.7938 37.1618 28.6887 37.1618C28.5536 37.1618 28.5086 36.961 28.5386 36.5961C28.564 36.2769 28.8309 36.031 29.1511 36.0319L41.8261 36.0668L54.6345 36.0845C54.8971 36.0849 55.1338 35.9265 55.2337 35.6836C55.3388 35.4829 55.3689 35.0997 55.3238 34.8624C55.2714 34.6074 55.0469 34.4245 54.7866 34.4245H42.0513C34.8145 34.4245 28.8239 34.4245 28.7338 34.4245C28.6437 34.4245 28.5986 32.7091 28.6287 29.552C28.6887 24.0409 28.7037 23.9679 29.9049 22.9095C30.2919 22.5684 30.79 22.3803 31.3059 22.3803H49.7986C69.0017 22.3803 69.0918 22.3803 69.5873 22.7635Z" fill="#A6A6A6"/>
<path d="M47.3812 25.4458C47.0359 25.902 47.0659 26.5225 47.4112 26.7597C47.7265 26.9604 51.6152 27.0152 52.2007 26.8327C52.456 26.7415 52.531 26.5772 52.531 26.1392C52.531 25.1721 52.3809 25.1173 49.9036 25.1173C47.8917 25.1173 47.5914 25.1538 47.3812 25.4458Z" fill="#A6A6A6"/>
<path d="M64.8426 30.8839C64.7225 31.0299 64.6475 31.3948 64.6475 31.6868C64.6475 32.4533 64.9327 32.7817 65.6084 32.7817C66.0288 32.7817 66.2239 32.6905 66.3441 32.435C66.5693 31.8875 66.5242 31.2306 66.2239 30.9021C65.8786 30.5189 65.0979 30.5006 64.8426 30.8839Z" fill="#A6A6A6"/>
<path d="M68.3857 30.9934C67.8752 31.8693 68.1905 32.7817 68.9863 32.7817C69.5418 32.7817 70.0823 32.2343 70.0823 31.6868C70.0823 30.7196 68.8361 30.2087 68.3857 30.9934Z" fill="#A6A6A6"/>
<path d="M40.1598 44.1693C39.9496 44.5707 39.9496 44.7897 40.1148 45.9759C40.2199 46.7241 40.2799 47.4175 40.2499 47.5453C40.1598 47.892 39.6944 47.7643 39.2289 47.2716C38.6284 46.6146 37.7125 45.9211 37.4723 45.9211C37.202 45.9211 36.7666 46.5051 36.7666 46.8701C36.7666 47.1986 37.4573 47.8555 38.3431 48.3847C39.1088 48.8227 39.4691 49.1877 39.4691 49.5162C39.4691 49.6439 39.364 49.7534 39.2289 49.7534C38.9737 49.7534 37.4272 50.7388 37.0369 51.1768C36.8867 51.3228 36.7666 51.5965 36.7666 51.7608C36.7666 52.1257 37.232 52.6732 37.5323 52.6732C37.7876 52.6732 39.364 51.3045 39.4391 51.0308C39.4691 50.9213 39.6944 50.8483 39.9496 50.8483C40.37 50.8483 40.4 50.8848 40.2949 51.341C39.7844 53.7864 40.0847 55.1915 41.0306 54.7536C41.451 54.5528 41.5561 53.8959 41.406 52.4907C41.3159 51.7608 41.2859 51.0673 41.3309 50.9396C41.436 50.5746 41.8864 50.7936 42.6221 51.6148C43.6731 52.7644 44.2887 52.9104 44.6941 52.1257C44.9793 51.5418 44.589 51.0308 43.2978 50.3008C41.8264 49.4614 41.8414 49.2059 43.4029 48.2387C44.7541 47.381 45.0694 46.8883 44.589 46.3044C44.4088 46.0854 44.1686 45.9211 44.0485 45.9211C43.9133 45.9211 43.3578 46.3226 42.8173 46.8336C41.7813 47.7825 41.2708 47.9833 41.2708 47.4175C41.2708 47.2533 41.3459 46.5416 41.421 45.8664C41.5411 44.8262 41.5261 44.5525 41.3309 44.1875C41.0156 43.6035 40.4751 43.6035 40.1598 44.1693Z" fill="#A6A6A6"/>
<path d="M54.7835 44.2419C53.5674 44.9354 53.0719 46.6142 53.7475 47.7822C54.1079 48.4026 55.0988 49.2056 55.5042 49.2056C55.9246 49.2056 56.8705 48.5486 57.2158 48.0194C57.5611 47.4719 57.6362 45.8478 57.3359 45.2638C56.8855 44.3879 55.4742 43.8222 54.7835 44.2419ZM55.9546 45.8478C56.345 46.1763 56.375 46.7602 56.0297 47.2347C55.7294 47.6362 55.4141 47.6544 55.0538 47.2529C54.6784 46.8515 54.7084 46.1763 55.1138 45.8478C55.294 45.6836 55.4892 45.5558 55.5342 45.5558C55.5793 45.5558 55.7744 45.6836 55.9546 45.8478Z" fill="#A6A6A6"/>
<path d="M64.9778 46.6693C64.8577 46.9613 64.8577 47.454 64.9928 48.6037C64.9999 48.6606 65.0067 48.7171 65.0131 48.773C65.127 49.7621 64.3249 50.342 63.8968 49.4431C63.8367 49.3154 63.6866 49.2059 63.5815 49.2059C63.4614 49.2059 63.2812 49.0782 63.1761 48.9139C62.8308 48.403 62.2903 48.257 61.8999 48.5672C61.2843 49.0599 61.5095 49.7899 62.4404 50.3008C62.6506 50.4103 62.9509 50.5928 63.116 50.7206C63.2812 50.8483 63.6565 51.1038 63.9418 51.2863L63.952 51.2932C64.2099 51.4683 64.2413 51.8364 64.0169 52.0527C63.7616 52.2899 63.4614 52.4907 63.3262 52.4907C63.1911 52.4907 62.9959 52.6184 62.8908 52.7644C62.7857 52.9104 62.6356 53.0381 62.5605 53.0381C62.2452 53.0381 61.5396 53.8593 61.5396 54.2243C61.5396 54.6988 62.1401 55.1368 62.5755 54.9543C62.7407 54.8995 63.2061 54.5345 63.6115 54.1696C64.4973 53.3484 64.9928 52.9834 65.0979 53.1111C65.1429 53.1659 65.0979 53.8958 64.9928 54.7718C64.8276 56.1404 64.8427 56.3777 65.0529 56.7791C65.3531 57.3266 65.7585 57.3631 66.1189 56.8704C66.3741 56.5237 66.3891 56.3777 66.2089 54.8448C66.1039 53.9323 66.0438 53.1659 66.0888 53.1111C66.1789 53.0017 66.7945 53.4214 67.4701 54.0601C67.8004 54.3703 68.2809 54.7535 68.5361 54.9178C68.9866 55.1915 69.0166 55.1915 69.3319 54.79C69.497 54.571 69.6472 54.2608 69.6472 54.1148C69.6472 53.8228 69.1968 53.2936 68.7013 53.0199C67.9206 52.6002 66.8696 51.8337 66.8696 51.706C66.8696 51.6147 67.3801 51.195 68.0106 50.7935C68.6412 50.3738 69.2718 49.9176 69.407 49.7716C69.7523 49.4249 69.7072 48.8957 69.2868 48.5672C68.8965 48.257 68.356 48.403 68.0106 48.9139C67.9055 49.0782 67.7104 49.2059 67.6053 49.2059C67.4852 49.2059 67.3951 49.2789 67.3951 49.3701C67.3951 49.6439 66.314 50.3373 66.1639 50.1548C66.0888 50.0636 66.1039 49.3519 66.2089 48.4212C66.3741 47.1438 66.3591 46.8153 66.2089 46.5781C65.9087 46.1584 65.188 46.2131 64.9778 46.6693Z" fill="#A6A6A6"/>
<path d="M30.8663 47.9468C30.2357 48.3483 29.5601 49.5162 29.5601 50.1914C29.5601 50.8119 29.9955 51.8156 30.4609 52.2353C30.7312 52.4908 31.0765 52.582 31.7671 52.582C32.6229 52.582 32.7431 52.5273 33.1935 51.9798C33.6589 51.4324 33.6889 51.3046 33.6739 50.2097C33.6589 48.8958 33.4788 48.5491 32.4278 47.8921C31.7671 47.4906 31.572 47.4906 30.8663 47.9468ZM32.1425 49.5162C32.2926 49.6805 32.4127 50.0455 32.4127 50.3374C32.4127 51.0491 31.8122 51.3411 31.2867 50.9214C30.8212 50.5564 30.8062 50.009 31.2567 49.5527C31.662 49.133 31.7972 49.133 32.1425 49.5162Z" fill="#A6A6A6"/>
<path d="M49.6186 54.3337C49.4835 54.5709 49.4385 54.9359 49.4835 55.3191C49.5886 56.1221 49.3484 56.2316 48.7929 55.6659C48.4626 55.3191 48.2223 55.2279 47.9671 55.3009C47.2164 55.5199 47.3065 56.6878 48.1022 57.0345C48.3725 57.144 48.6727 57.363 48.7778 57.509C48.928 57.728 48.8379 57.8375 48.2674 58.1477C47.3215 58.6952 47.1713 59.4981 47.9371 59.9361C48.2373 60.1003 48.3575 60.0456 48.7478 59.5711C49.3184 58.9142 49.5886 59.0419 49.4835 59.9361C49.3484 60.8485 49.5736 61.25 50.2042 61.25C50.4944 61.25 50.7297 61.0147 50.7297 60.7245V60.1551C50.7297 59.5529 50.7897 59.0601 50.8648 59.0601C50.9549 59.0601 51.1951 59.2609 51.4203 59.5164C51.9008 60.0638 52.3963 60.1003 52.7566 59.6076C52.9968 59.2791 52.9968 59.2244 52.7866 58.8047C52.6515 58.5674 52.3062 58.2572 52.0059 58.1295C51.3303 57.8192 51.3453 57.509 52.0509 57.071C52.9218 56.5236 53.0569 56.2498 52.7266 55.7024C52.3812 55.1184 51.9458 55.1184 51.4954 55.6841C50.9249 56.4141 50.7297 56.2863 50.7297 55.1549C50.7297 54.425 50.6696 54.1512 50.4895 54.06C50.0841 53.8592 49.8589 53.9322 49.6186 54.3337Z" fill="#A6A6A6"/>
<path d="M37.432 72.286H39.256V73.57H37.432V72.286ZM41.008 68.194H42.532V79.306H41.008V68.194ZM38.752 68.374H40.24V78.814H38.752V68.374ZM35.488 68.974C35.976 68.974 36.4 69.138 36.76 69.466C37.128 69.786 37.408 70.25 37.6 70.858C37.8 71.458 37.9 72.178 37.9 73.018C37.9 73.85 37.8 74.57 37.6 75.178C37.408 75.786 37.128 76.254 36.76 76.582C36.4 76.902 35.972 77.062 35.476 77.062C34.996 77.062 34.572 76.902 34.204 76.582C33.844 76.254 33.564 75.786 33.364 75.178C33.172 74.57 33.076 73.85 33.076 73.018C33.076 72.178 33.172 71.458 33.364 70.858C33.564 70.25 33.844 69.786 34.204 69.466C34.572 69.138 35 68.974 35.488 68.974ZM35.488 70.486C35.288 70.486 35.116 70.578 34.972 70.762C34.828 70.946 34.716 71.226 34.636 71.602C34.564 71.97 34.528 72.442 34.528 73.018C34.528 73.578 34.564 74.046 34.636 74.422C34.716 74.798 34.828 75.082 34.972 75.274C35.116 75.458 35.288 75.55 35.488 75.55C35.688 75.55 35.86 75.458 36.004 75.274C36.156 75.082 36.268 74.798 36.34 74.422C36.412 74.046 36.448 73.578 36.448 73.018C36.448 72.442 36.412 71.97 36.34 71.602C36.268 71.226 36.156 70.946 36.004 70.762C35.86 70.578 35.688 70.486 35.488 70.486ZM47.0671 68.962C47.6191 68.962 48.1111 69.126 48.5431 69.454C48.9831 69.774 49.3231 70.234 49.5631 70.834C49.8111 71.426 49.9351 72.126 49.9351 72.934C49.9351 73.75 49.8111 74.458 49.5631 75.058C49.3231 75.65 48.9831 76.11 48.5431 76.438C48.1111 76.758 47.6191 76.918 47.0671 76.918C46.5151 76.918 46.0231 76.758 45.5911 76.438C45.1591 76.11 44.8191 75.65 44.5711 75.058C44.3231 74.458 44.1991 73.75 44.1991 72.934C44.1991 72.126 44.3231 71.426 44.5711 70.834C44.8191 70.234 45.1591 69.774 45.5911 69.454C46.0231 69.126 46.5151 68.962 47.0671 68.962ZM47.0671 70.414C46.8031 70.414 46.5671 70.51 46.3591 70.702C46.1591 70.894 46.0031 71.178 45.8911 71.554C45.7791 71.922 45.7231 72.382 45.7231 72.934C45.7231 73.478 45.7791 73.942 45.8911 74.326C46.0031 74.702 46.1591 74.986 46.3591 75.178C46.5671 75.37 46.8031 75.466 47.0671 75.466C47.3471 75.466 47.5871 75.37 47.7871 75.178C47.9871 74.986 48.1431 74.702 48.2551 74.326C48.3671 73.942 48.4231 73.478 48.4231 72.934C48.4231 72.382 48.3671 71.922 48.2551 71.554C48.1431 71.178 47.9871 70.894 47.7871 70.702C47.5871 70.51 47.3471 70.414 47.0671 70.414ZM51.7591 68.182H53.3551V79.33H51.7591V68.182ZM49.4671 72.202H52.4311V73.474H49.4671V72.202ZM60.8181 71.566H62.9541V72.85H60.8181V71.566ZM59.2461 69.034H60.8901C60.8901 70.082 60.7301 71.014 60.4101 71.83C60.0901 72.646 59.5621 73.358 58.8261 73.966C58.0901 74.566 57.0981 75.066 55.8501 75.466L55.2261 74.23C56.0101 73.982 56.6621 73.702 57.1821 73.39C57.7021 73.078 58.1101 72.734 58.4061 72.358C58.7101 71.974 58.9261 71.562 59.0541 71.122C59.1821 70.674 59.2461 70.194 59.2461 69.682V69.034ZM55.8141 69.034H60.2781V70.318H55.8141V69.034ZM59.4261 71.206V72.298L55.4661 72.586L55.2501 71.35L59.4261 71.206ZM62.7621 68.194H64.3701V76.402H62.7621V68.194ZM57.0981 77.842H64.6581V79.126H57.0981V77.842ZM57.0981 75.61H58.7061V78.682H57.0981V75.61Z" fill="#A6A6A6"/>
</svg>
