<svg width="80" height="80" viewBox="0 0 80 80" fill="none" xmlns="http://www.w3.org/2000/svg">
<rect x="0.5" y="0.5" width="79" height="79" rx="39.5" fill="#FEF7D4"/>
<rect x="0.5" y="0.5" width="79" height="79" rx="39.5" stroke="#EFBA1A"/>
<path d="M21.6982 13.1256C20.9144 13.6019 20.0361 14.7844 19.9145 15.5071C19.7388 16.5254 19.6848 27.5786 19.8469 27.7757C19.9145 27.8578 19.9821 28.2192 19.9821 28.5641C19.9821 29.4674 20.7658 30.5514 21.8603 31.1591C22.4414 31.4875 22.7251 31.4875 39.8323 31.4711C55.8448 31.4711 57.2502 31.4547 57.7772 31.1919C58.7636 30.6992 59.7095 29.4345 59.7095 28.5969C59.7095 27.9071 59.8311 27.5458 60.0608 27.5458C60.223 27.5458 60.25 26.6096 60.25 21.8631C60.25 19.8982 60.2333 18.3757 60.2068 17.423C60.1857 16.6658 59.7095 16.1003 59.7095 15.3428V15.3428C59.7095 14.8337 58.7366 13.5855 57.9799 13.1092C57.4258 12.7643 57.3853 12.7643 39.8188 12.7807C22.6846 12.7971 22.1982 12.8135 21.6982 13.1256ZM57.6285 14.5873C57.8718 14.768 58.2501 15.195 58.4798 15.5235V15.5235C58.7358 15.9205 58.874 16.3819 58.8782 16.8542L58.9122 20.6149C58.9528 23.5219 58.9258 25.0822 58.8312 25.0822C58.7636 25.0822 55.8989 25.0822 52.4667 25.0822L46.7179 25.067C46.434 25.0663 46.1766 25.2333 46.0616 25.4928V25.4928C45.8995 25.8541 45.913 25.9363 46.1427 26.2483C46.3859 26.5768 46.467 26.5768 52.6829 26.5439L58.5864 26.5131C58.8022 26.5119 58.9838 26.6743 59.0068 26.8888V26.8888C59.0339 27.0859 59.0068 27.3159 58.9393 27.398C58.8582 27.4965 53.9666 27.5458 46.94 27.5458C38.2648 27.5458 35.0352 27.5951 34.9001 27.7265C34.6569 27.9728 34.6569 28.3341 34.9136 28.6298C35.0893 28.8433 36.6297 28.8761 46.6832 28.8597C57.4799 28.8597 58.2366 28.8761 58.1961 29.1225C58.169 29.2867 57.9799 29.5331 57.7501 29.6973C57.3718 29.9601 56.2908 29.993 39.8458 29.993C23.4008 29.993 22.3198 29.9601 21.9414 29.6973C21.7252 29.5331 21.5225 29.2867 21.4955 29.1225C21.455 28.8597 21.8468 28.8433 27.2789 28.8597C33.5353 28.8926 33.5488 28.8926 33.4678 28.0549V28.0549C33.4448 27.8125 33.2418 27.6269 32.9983 27.6256L27.2114 27.5951C23.7927 27.5622 20.9144 27.5458 20.8199 27.5458C20.6982 27.5458 20.6577 27.3651 20.6847 27.0367V27.0367C20.7076 26.7494 20.9478 26.5281 21.236 26.5289L32.6435 26.5604L44.171 26.5762C44.4074 26.5766 44.6204 26.434 44.7104 26.2155V26.2155C44.8049 26.0348 44.832 25.6899 44.7914 25.4764V25.4764C44.7442 25.2469 44.5422 25.0822 44.3079 25.0822H32.8462C26.333 25.0822 20.9415 25.0822 20.8604 25.0822C20.7793 25.0822 20.7388 23.5384 20.7658 20.697C20.8199 15.737 20.8334 15.6713 21.9144 14.7187V14.7187C22.2627 14.4118 22.711 14.2424 23.1753 14.2424H39.8188C57.1015 14.2424 57.1826 14.2424 57.6285 14.5873Z" fill="#EFBA1A"/>
<path d="M37.6429 17.0014C37.3321 17.412 37.3591 17.9704 37.6699 18.1839C37.9537 18.3645 41.4535 18.4138 41.9805 18.2496C42.2102 18.1675 42.2777 18.0196 42.2777 17.6255C42.2777 16.755 42.1426 16.7057 39.913 16.7057C38.1023 16.7057 37.8321 16.7386 37.6429 17.0014Z" fill="#EFBA1A"/>
<path d="M53.3583 21.8954C53.2502 22.0268 53.1826 22.3553 53.1826 22.6181C53.1826 23.3079 53.4394 23.6035 54.0474 23.6035C54.4258 23.6035 54.6015 23.5214 54.7096 23.2915C54.9122 22.7987 54.8717 22.2075 54.6015 21.9119C54.2907 21.567 53.588 21.5505 53.3583 21.8954Z" fill="#EFBA1A"/>
<path d="M56.5469 21.994C56.0875 22.7823 56.3713 23.6035 57.0875 23.6035C57.5874 23.6035 58.0739 23.1108 58.0739 22.6181C58.0739 21.7476 56.9523 21.2877 56.5469 21.994Z" fill="#EFBA1A"/>
<path d="M31.1437 33.8523C30.9545 34.2137 30.9545 34.4107 31.1032 35.4783C31.1978 36.1517 31.2518 36.7758 31.2248 36.8908C31.1437 37.2028 30.7248 37.0878 30.3059 36.6444C29.7654 36.0531 28.9411 35.429 28.7249 35.429C28.4817 35.429 28.0898 35.9546 28.0898 36.2831C28.0898 36.5787 28.7114 37.17 29.5087 37.6463C30.1978 38.0404 30.5221 38.3689 30.5221 38.6645C30.5221 38.7795 30.4275 38.878 30.3059 38.878C30.0762 38.878 28.6844 39.7649 28.3331 40.1591C28.1979 40.2905 28.0898 40.5369 28.0898 40.6847C28.0898 41.0132 28.5087 41.5059 28.779 41.5059C29.0087 41.5059 30.4275 40.2741 30.4951 40.0277C30.5221 39.9292 30.7248 39.8635 30.9545 39.8635C31.3329 39.8635 31.3599 39.8963 31.2653 40.3069C30.8059 42.5077 31.0762 43.7724 31.9275 43.3782C32.3058 43.1975 32.4004 42.6063 32.2653 41.3416C32.1842 40.6847 32.1572 40.0606 32.1977 39.9456C32.2923 39.6171 32.6977 39.8142 33.3598 40.5533C34.3057 41.588 34.8597 41.7194 35.2246 41.0132C35.4813 40.4876 35.13 40.0277 33.9679 39.3708C32.6436 38.6153 32.6571 38.3853 34.0625 37.5149C35.2786 36.7429 35.5624 36.2995 35.13 35.7739C34.9678 35.5768 34.7516 35.429 34.6435 35.429C34.5219 35.429 34.0219 35.7904 33.5355 36.2502C32.6031 37.1043 32.1437 37.2849 32.1437 36.7758C32.1437 36.628 32.2112 35.9874 32.2788 35.3798C32.3869 34.4436 32.3734 34.1972 32.1977 33.8688C31.9139 33.3432 31.4275 33.3432 31.1437 33.8523Z" fill="#EFBA1A"/>
<path d="M44.3053 33.918C43.2107 34.5421 42.7648 36.0531 43.3729 37.1042C43.6972 37.6626 44.589 38.3853 44.9539 38.3853C45.3322 38.3853 46.1835 37.794 46.4943 37.3177C46.8051 36.825 46.8727 35.3633 46.6024 34.8377C46.197 34.0493 44.9268 33.5402 44.3053 33.918ZM45.3592 35.3633C45.7106 35.6589 45.7376 36.1845 45.4268 36.6115C45.1566 36.9728 44.8728 36.9892 44.5485 36.6279C44.2107 36.2666 44.2377 35.6589 44.6025 35.3633C44.7647 35.2154 44.9403 35.1005 44.9809 35.1005C45.0214 35.1005 45.1971 35.2154 45.3592 35.3633Z" fill="#EFBA1A"/>
<path d="M53.4802 36.1024C53.3721 36.3652 53.3721 36.8087 53.4937 37.8434C53.5001 37.8946 53.5062 37.9454 53.512 37.9957C53.6145 38.8859 52.8926 39.4078 52.5072 38.5989V38.5989C52.4532 38.4839 52.3181 38.3854 52.2235 38.3854C52.1154 38.3854 51.9532 38.2704 51.8586 38.1226C51.5478 37.6627 51.0614 37.5313 50.71 37.8105C50.156 38.254 50.3587 38.9109 51.1965 39.3708C51.3857 39.4693 51.6559 39.6336 51.8046 39.7485C51.9532 39.8635 52.291 40.0934 52.5478 40.2577L52.557 40.2639C52.789 40.4216 52.8173 40.7528 52.6153 40.9475V40.9475C52.3856 41.161 52.1154 41.3417 51.9938 41.3417C51.8721 41.3417 51.6965 41.4566 51.6019 41.588C51.5073 41.7194 51.3722 41.8344 51.3046 41.8344C51.0208 41.8344 50.3857 42.5735 50.3857 42.9019C50.3857 43.329 50.9263 43.7231 51.3181 43.5589C51.4668 43.5096 51.8857 43.1811 52.2505 42.8527C53.0477 42.1136 53.4937 41.7851 53.5883 41.9001C53.6288 41.9493 53.5883 42.6063 53.4937 43.3947C53.345 44.6264 53.3585 44.84 53.5477 45.2013C53.818 45.694 54.1828 45.7268 54.5071 45.2834C54.7368 44.9713 54.7504 44.84 54.5882 43.4603C54.4936 42.6392 54.4396 41.9493 54.4801 41.9001C54.5612 41.8015 55.1152 42.1793 55.7233 42.7541C56.0206 43.0333 56.453 43.3782 56.6827 43.526C57.0881 43.7724 57.1151 43.7724 57.3988 43.4111C57.5475 43.214 57.6826 42.9348 57.6826 42.8034C57.6826 42.5406 57.2772 42.0643 56.8313 41.818C56.1287 41.4402 55.1828 40.7504 55.1828 40.6354C55.1828 40.5533 55.6422 40.1756 56.2097 39.8142C56.7773 39.4365 57.3448 39.0259 57.4664 38.8945C57.7772 38.5824 57.7367 38.1062 57.3583 37.8105C57.007 37.5313 56.5205 37.6627 56.2097 38.1226C56.1151 38.2704 55.9395 38.3854 55.8449 38.3854C55.7368 38.3854 55.6557 38.4511 55.6557 38.5332C55.6557 38.7795 54.6828 39.4036 54.5477 39.2394C54.4801 39.1573 54.4936 38.5168 54.5882 37.6791C54.7368 36.5295 54.7233 36.2338 54.5882 36.0203C54.3179 35.6426 53.6693 35.6918 53.4802 36.1024Z" fill="#EFBA1A"/>
<path d="M22.7796 37.2522C22.2121 37.6135 21.604 38.6646 21.604 39.2723C21.604 39.8307 21.9959 40.734 22.4148 41.1118C22.658 41.3417 22.9688 41.4238 23.5904 41.4238C24.3606 41.4238 24.4687 41.3746 24.8741 40.8818C25.293 40.3891 25.32 40.2742 25.3065 39.2887C25.293 38.1062 25.1308 37.7941 24.1849 37.2029C23.5904 36.8416 23.4147 36.8416 22.7796 37.2522ZM23.9282 38.6646C24.0633 38.8124 24.1714 39.1409 24.1714 39.4037C24.1714 40.0442 23.6309 40.307 23.158 39.9293C22.7391 39.6008 22.7256 39.1081 23.1309 38.6975C23.4958 38.3197 23.6174 38.3197 23.9282 38.6646Z" fill="#EFBA1A"/>
<path d="M39.6569 43.0004C39.5353 43.2139 39.4948 43.5424 39.5353 43.8873C39.6299 44.61 39.4137 44.7085 38.9137 44.1994C38.6164 43.8873 38.4002 43.8052 38.1705 43.8709C37.4949 44.068 37.576 45.1191 38.2921 45.4312C38.5354 45.5297 38.8056 45.7268 38.9002 45.8582C39.0353 46.0553 38.9543 46.1538 38.4408 46.433C37.5895 46.9258 37.4543 47.6484 38.1435 48.0426C38.4138 48.1904 38.5219 48.1411 38.8732 47.7141C39.3867 47.1228 39.6299 47.2378 39.5353 48.0426C39.4137 48.8638 39.6164 49.2251 40.1839 49.2251V49.2251C40.4451 49.2251 40.6569 49.0134 40.6569 48.7522V48.2397C40.6569 47.6977 40.7109 47.2542 40.7785 47.2542C40.8596 47.2542 41.0758 47.4349 41.2784 47.6648C41.7109 48.1575 42.1568 48.1904 42.4811 47.7469C42.6973 47.4513 42.6973 47.402 42.5081 47.0243C42.3865 46.8108 42.0757 46.5316 41.8054 46.4166C41.1974 46.1374 41.2109 45.8582 41.846 45.464C42.6297 44.9713 42.7513 44.7249 42.4541 44.2322C42.1433 43.7067 41.7514 43.7067 41.346 44.2158C40.8325 44.8728 40.6569 44.7578 40.6569 43.7395C40.6569 43.0826 40.6028 42.8362 40.4407 42.7541C40.0758 42.5734 39.8731 42.6391 39.6569 43.0004Z" fill="#EFBA1A"/>
<path d="M27.42 60.2731H29.244V61.5571H27.42V60.2731ZM31.008 56.1811H32.532V67.2931H31.008V56.1811ZM28.74 56.3491H30.24V66.7891H28.74V56.3491ZM25.476 56.9611C26.952 56.9611 27.9 58.4851 27.9 60.9931C27.9 63.5131 26.952 65.0371 25.476 65.0371C24.012 65.0371 23.076 63.5131 23.076 60.9931C23.076 58.4851 24.012 56.9611 25.476 56.9611ZM25.476 58.4611C24.876 58.4611 24.528 59.3011 24.528 60.9931C24.528 62.6971 24.876 63.5251 25.476 63.5251C26.1 63.5251 26.448 62.6971 26.448 60.9931C26.448 59.3011 26.1 58.4611 25.476 58.4611ZM37.0671 56.9491C38.7231 56.9491 39.9351 58.4851 39.9351 60.9091C39.9351 63.3571 38.7231 64.8931 37.0671 64.8931C35.3991 64.8931 34.1991 63.3571 34.1991 60.9091C34.1991 58.4851 35.3991 56.9491 37.0671 56.9491ZM37.0671 58.4011C36.2631 58.4011 35.7231 59.2771 35.7231 60.9091C35.7231 62.5651 36.2631 63.4531 37.0671 63.4531C37.8831 63.4531 38.4111 62.5651 38.4111 60.9091C38.4111 59.2771 37.8831 58.4011 37.0671 58.4011ZM41.7591 56.1691H43.3431V67.3171H41.7591V56.1691ZM39.4671 60.1771H42.4311V61.4611H39.4671V60.1771ZM50.8061 59.5411H52.9541V60.8251H50.8061V59.5411ZM49.2341 57.0211H50.8781C50.8781 60.1531 49.5701 62.2411 45.8381 63.4531L45.2141 62.2051C48.3581 61.2211 49.2341 59.7091 49.2341 57.6691V57.0211ZM45.8021 57.0211H50.2661V58.2931H45.8021V57.0211ZM49.4261 59.1811V60.2731L45.4661 60.5731L45.2381 59.3251L49.4261 59.1811ZM52.7621 56.1811H54.3581V64.3891H52.7621V56.1811ZM47.0981 65.8291H54.6581V67.1011H47.0981V65.8291ZM47.0981 63.5971H48.6941V66.6571H47.0981V63.5971Z" fill="#D09808"/>
</svg>
