<svg width="100" height="100" viewBox="0 0 100 100" fill="none" xmlns="http://www.w3.org/2000/svg">
<rect x="1" y="1" width="98" height="98" rx="49" fill="#FEF7D4"/>
<rect x="1" y="1" width="98" height="98" rx="49" stroke="#E7B00B" stroke-width="2"/>
<path d="M28.97 19.9882C28.715 20.1924 28.7 20.8901 28.7 30.1131C28.7 38.4682 28.67 40.0677 28.49 40.391C28.355 40.6122 28.22 41.429 28.175 42.382C28.1 43.5561 27.995 44.1176 27.785 44.458C27.515 44.8834 27.5 45.2748 27.5 49.5459C27.5 53.715 27.53 54.1914 27.755 54.3786C27.95 54.5488 28.1 54.5488 28.37 54.4126L28.73 54.2255L28.685 49.9543L28.64 45.7002H30.275H31.925L31.97 51.8261C31.985 55.1954 31.97 58.1222 31.925 58.3094C31.865 58.6497 31.76 58.6838 30.275 58.6838C28.55 58.6668 28.64 58.7518 28.7 57.5267C28.73 56.7609 28.235 56.1653 27.83 56.4376C27.62 56.5907 27.56 56.9481 27.53 58.2073C27.5 59.5516 27.53 59.8069 27.755 60.0111C27.95 60.1812 28.625 60.2323 30.35 60.2493C33.53 60.2493 33.395 60.3684 33.335 57.5096L33.275 55.3145H49.775C58.85 55.3145 66.335 55.3145 66.395 55.3145C66.47 55.3145 66.47 56.3015 66.41 57.5096C66.275 60.3514 66.17 60.2493 69.29 60.2493C71.195 60.2493 71.66 60.1982 72.035 59.943L72.5 59.6537V52.2005C72.5 46.0916 72.47 44.7643 72.305 44.7643C72.185 44.7643 71.975 44.6111 71.825 44.4239C71.6 44.1347 71.54 43.7603 71.51 42.4841C71.495 41.429 71.405 40.7314 71.24 40.374C71.03 39.9146 71 38.7064 71 29.9939V20.1414L70.625 19.9542C70.385 19.8351 69.44 19.75 68.24 19.75C66.44 19.75 66.215 19.784 65.975 20.0903C65.78 20.3456 65.735 20.5838 65.81 21.0943C65.93 21.9792 65.675 22.2344 64.985 21.8941C64.34 21.5878 63.185 21.3155 61.58 21.1113C60.89 21.0262 60.215 20.8731 60.05 20.771C59.9 20.6859 59.375 20.6008 58.895 20.6008C58.415 20.6008 57.32 20.4817 56.45 20.3456C54.65 20.0733 45.305 20.0053 43.775 20.2775C43.28 20.3626 42.17 20.4817 41.3 20.5328C39.605 20.6689 39.065 20.9071 39.05 21.5538C39.05 22.2684 39.335 22.3535 41.36 22.1493C42.38 22.0302 43.61 21.8771 44.105 21.792C44.585 21.6899 47.105 21.6218 49.7 21.6218C54.26 21.6218 55.865 21.7239 59.6 22.3195C60.215 22.4216 61.16 22.5577 61.7 22.6428C62.24 22.7279 62.87 22.864 63.095 22.9661C63.335 23.0682 63.8 23.1533 64.145 23.1533C64.49 23.1533 65 23.2894 65.27 23.4596L65.765 23.7489L65.78 29.2793V34.8096L65.3 34.8607C65.03 34.8947 64.64 34.8777 64.445 34.8096L64.085 34.7075L64.115 30.9299C64.145 26.931 64.115 26.6927 63.425 26.0121C63.155 25.7398 62.645 25.7228 57.38 25.7058C52.37 25.7058 51.575 25.7398 51.215 25.978C50.495 26.4545 50.435 26.8969 50.465 30.8618C50.48 32.8697 50.45 34.5884 50.39 34.7075C50.255 34.9457 49.445 34.9457 49.31 34.7075C49.25 34.5884 49.22 32.9038 49.235 30.9639C49.265 27.0501 49.175 26.4375 48.485 25.978C48.125 25.7398 47.36 25.7058 42.32 25.7058H36.575L36.17 26.1312C35.945 26.3694 35.705 26.7608 35.66 26.999C35.6 27.2373 35.555 29.0921 35.54 31.117L35.525 34.8096H34.73H33.92L33.935 29.2793C33.935 22.864 33.8 23.3575 35.675 23.1533C37.34 22.9661 38 22.3025 37.25 21.5367C36.98 21.2645 36.86 21.2475 36.08 21.4346C35.615 21.5538 35 21.758 34.715 21.8941C34.025 22.2344 33.77 21.9792 33.89 21.0943C33.965 20.5838 33.92 20.3456 33.725 20.0903C33.485 19.784 33.26 19.75 31.34 19.75C29.825 19.767 29.15 19.8181 28.97 19.9882ZM32.54 21.4687C32.6 21.5708 32.63 24.7358 32.63 28.4795L32.615 35.2861L31.82 35.8646C31.385 36.188 30.845 36.6814 30.62 36.9877C30.41 37.294 30.185 37.4812 30.125 37.4302C30.02 37.294 30.02 21.6388 30.14 21.4346C30.26 21.2134 32.42 21.2475 32.54 21.4687ZM69.65 29.0751C69.695 33.3122 69.68 36.9537 69.605 37.1409C69.5 37.4642 69.44 37.4472 68.81 36.6984C68.435 36.273 68.045 35.9157 67.955 35.9157C67.85 35.9157 67.625 35.7796 67.43 35.6094L67.085 35.3031L67.07 28.4795C67.07 24.7358 67.115 21.5708 67.16 21.4687C67.235 21.3325 67.67 21.2815 68.42 21.3155L69.575 21.3666L69.65 29.0751ZM47.915 27.3564C47.915 27.4415 47.945 29.1261 47.96 31.1C47.975 33.4823 47.93 34.7245 47.825 34.7586C47.75 34.7926 45.245 34.7756 42.275 34.7245L36.875 34.6394L36.83 31.1511C36.815 29.2452 36.83 27.5776 36.86 27.4585C36.92 27.2883 38.12 27.2373 42.425 27.2373C45.44 27.2373 47.9 27.2883 47.915 27.3564ZM62.87 30.9979C62.9 33.8567 62.87 34.7075 62.72 34.7415C62.615 34.7756 60.095 34.7756 57.125 34.7245L51.725 34.6394V31.0149C51.725 29.007 51.755 27.3394 51.785 27.3053C51.83 27.2713 54.32 27.2543 57.335 27.2713L62.825 27.3224L62.87 30.9979ZM66.875 36.9197C68.75 38.1108 69.905 39.9316 70.25 42.2969C70.52 44.0666 70.49 44.1687 69.5 44.1687H68.675L68.57 43.1477C68.45 41.7694 68.255 41.1568 67.7 40.2889C66.875 38.9787 65.375 38.1278 63.86 38.1278C62.9 38.1278 62.45 38.5532 62.72 39.2339C62.87 39.5913 62.99 39.6593 63.59 39.6593C65.66 39.6593 66.995 40.9356 67.31 43.1817C67.4 43.8454 67.37 43.9305 66.995 44.2027C66.41 44.6281 66.35 44.7643 66.455 45.479C66.5 45.8193 66.5 46.2787 66.455 46.5L66.365 46.8913H49.85C34.1 46.8913 33.335 46.8743 33.26 46.585C33.215 46.4149 33.185 45.9895 33.215 45.6491C33.26 44.6452 33.23 44.526 32.75 44.2197C32.315 43.9475 32.3 43.8794 32.39 43.1988C32.63 41.5652 33.515 40.2549 34.655 39.8635C35.135 39.6934 38.225 39.6593 47.885 39.6593C56.645 39.6763 60.59 39.6253 60.8 39.4892C61.16 39.2679 61.19 38.8595 60.845 38.4341C60.62 38.1449 60.02 38.1278 47.915 38.1278C39.635 38.1278 35.015 38.1959 34.625 38.298C32.855 38.8255 31.595 40.2719 31.28 42.1267C31.175 42.6883 31.085 43.3689 31.07 43.6582C31.025 44.1517 31.01 44.1687 30.2 44.1687H29.375L29.33 43.5731C29.27 42.8414 29.57 41.0717 29.84 40.5612C29.96 40.357 30.05 40.0677 30.05 39.9486C30.05 39.8125 30.44 39.2169 30.935 38.6213C31.85 37.4982 33.29 36.4942 34.175 36.3581C34.43 36.3241 41.675 36.3071 50.3 36.3241L65.975 36.3411L66.875 36.9197ZM71.015 52.0814C71.015 55.5868 71 58.5136 71 58.5647C71 58.7689 67.925 58.6668 67.82 58.4796C67.67 58.2413 67.67 45.8874 67.805 45.7172C67.865 45.6661 68.615 45.6321 69.47 45.6491L71.03 45.7002L71.015 52.0814ZM66.335 48.4228C66.41 48.4569 66.455 49.665 66.44 51.0944L66.425 53.6979L49.835 53.749L33.23 53.783V51.1114C33.23 49.631 33.26 48.3888 33.275 48.3377C33.335 48.2186 66.185 48.3037 66.335 48.4228Z" fill="#E7B00B"/>
<path d="M42.1529 71.018H43.4609V71.426C43.4609 73.37 42.4289 75.098 40.2809 75.698L39.5369 74.462C41.3609 73.946 42.1529 72.674 42.1529 71.426V71.018ZM42.4529 71.018H43.7489V71.426C43.7489 72.59 44.5649 73.79 46.3769 74.258L45.6569 75.506C43.4969 74.942 42.4529 73.286 42.4529 71.426V71.018ZM39.9089 70.31H45.9809V71.558H39.9089V70.31ZM42.1529 69.17H43.7489V70.862H42.1529V69.17ZM47.0729 69.218H48.6809V75.722H47.0729V69.218ZM41.2889 76.202H48.6809V80.198H41.2889V76.202ZM47.1089 77.45H42.8489V78.938H47.1089V77.45ZM58.508 69.206H60.02V80.318H58.508V69.206ZM57.02 73.478H58.868V74.762H57.02V73.478ZM56.024 69.398H57.5V79.79H56.024V69.398ZM50.792 76.502H51.572C52.94 76.502 54.08 76.454 55.4 76.214L55.52 77.51C54.176 77.774 53 77.81 51.572 77.81H50.792V76.502ZM50.792 70.49H54.896V71.774H52.376V77.126H50.792V70.49Z" fill="#E7B00B"/>
</svg>
