<svg width="100" height="100" viewBox="0 0 100 100" fill="none" xmlns="http://www.w3.org/2000/svg">
<rect x="1" y="1" width="98" height="98" rx="49" fill="white"/>
<rect x="1" y="1" width="98" height="98" rx="49" stroke="#A6A6A6" stroke-width="2"/>
<path d="M30.319 17.785C30.319 17.95 30.2597 18.1299 30.1707 18.1749C29.9631 18.2949 29.9779 23.2742 30.1707 23.6641C30.3784 24.039 31.1348 24.054 31.2831 23.6791C31.3276 23.5441 31.3572 22.4643 31.3424 21.2945C31.3127 20.1246 31.3424 19.1198 31.3869 19.0748C31.4314 19.0148 64.1638 18.9548 68.4055 18.9998C68.5389 18.9998 68.5834 20.6646 68.5834 26.7836C68.5834 31.073 68.5241 34.6124 68.4648 34.6574C68.3906 34.7024 68.0792 34.4774 67.7677 34.1475L67.2041 33.5626L67.2338 27.2635C67.2635 22.8992 67.219 20.8745 67.1003 20.6646C66.952 20.3646 66.8037 20.3496 65.1129 20.3496C63.3777 20.3496 63.2739 20.3646 63.1997 20.6646C63.1552 20.8445 63.1849 21.1445 63.2591 21.3544C63.3925 21.7294 63.437 21.7294 64.6235 21.6844L65.8397 21.6244V25.0739V28.5234H63.6892H61.5386L61.4645 27.7735C61.42 27.3535 61.331 26.9336 61.2568 26.8286C61.1975 26.7086 61.242 26.4087 61.3903 26.0937C61.7463 25.3288 61.6128 24.474 61.0344 23.8891L60.5746 23.4241H56.0808C51.8391 23.4241 51.5869 23.4391 51.2013 23.7241C50.4004 24.339 50.0445 25.6138 50.5636 26.0487C50.8454 26.2887 50.8454 27.0086 50.5636 27.2485C50.4153 27.3685 50.3411 27.6385 50.3708 27.9834L50.4153 28.5234H48.4131H46.4109L46.3664 25.1039C46.3367 22.4343 46.3664 21.6994 46.5147 21.6844C46.6185 21.6844 50.0148 21.6844 54.0637 21.6994L61.4052 21.7144L61.6128 21.3245C61.7611 21.0395 61.7759 20.8595 61.6573 20.6796C61.5238 20.4396 60.8267 20.4246 53.515 20.3796C46.0846 20.3496 45.5061 20.3646 45.3282 20.6046C45.1799 20.7995 45.1502 22.2543 45.1502 26.9486C45.1502 30.2931 45.1502 33.1427 45.1502 33.2776C45.1502 33.5476 43.9637 34.7924 43.8451 34.6724C43.8006 34.6274 43.7857 31.5079 43.8006 27.7435C43.8154 23.9641 43.7857 20.7545 43.7412 20.6046C43.6374 20.3646 43.2518 20.3496 38.313 20.3496C33.2111 20.3496 32.9886 20.3646 32.8403 20.6346C32.6327 21.0395 32.6327 49.3552 32.8403 49.7601C32.9886 50.0301 33.2111 50.0451 38.3279 50.0451H43.6671L43.7561 49.6851C43.8006 49.4752 43.8154 46.8506 43.7857 43.836C43.7561 40.2366 43.7857 38.3469 43.8896 38.3469C44.0972 38.3619 44.4383 38.6468 44.8239 39.1567C45.1502 39.5767 45.1502 39.6517 45.1502 44.5259C45.1502 47.6454 45.2095 49.5652 45.2985 49.7601C45.4468 50.0451 45.7286 50.0451 56.1994 50.0451C66.8185 50.0451 66.9372 50.0451 67.1003 49.7451C67.2041 49.5352 67.2486 47.7654 67.2338 44.4359L67.219 39.4267L67.7084 38.8868C68.6428 37.8369 68.5983 37.402 68.5686 47.8404C68.5538 53.0746 68.5834 57.424 68.6428 57.5139C68.8207 57.8139 69.592 57.7239 69.7699 57.409C69.8738 57.214 69.9182 50.795 69.9182 37.702C69.9182 20.6196 69.8886 18.2649 69.6958 18.0999C69.5771 17.995 69.4733 17.815 69.4733 17.71C69.4733 17.53 66.4329 17.5 49.8962 17.5C30.6157 17.5 30.319 17.5 30.319 17.785ZM42.4806 21.6994C42.5251 21.6994 42.5399 27.7585 42.5251 35.1523L42.4806 48.6203L38.224 48.6653L33.9527 48.6953V35.2423C33.9527 27.8335 33.9972 21.7444 34.0565 21.6994C34.1158 21.6394 41.9318 21.6394 42.4806 21.6994ZM59.9962 24.6989C60.3077 24.8789 60.3966 25.6588 60.1148 25.8388C59.8924 25.9737 52.0467 25.9587 51.8391 25.8238C51.5424 25.6438 51.6463 24.9089 52.017 24.7289C52.4471 24.519 59.5958 24.489 59.9962 24.6989ZM60.0704 27.3985C60.2038 27.5185 60.278 27.7735 60.2483 28.0584L60.2038 28.5234L56.2736 28.5683C54.1082 28.5833 52.195 28.5683 52.017 28.5234C51.5869 28.4184 51.5424 27.6535 51.9577 27.3685C52.3433 27.0836 59.7292 27.1286 60.0704 27.3985ZM52.195 30.0831C52.2395 30.2481 52.2395 30.548 52.1802 30.773L52.0912 31.163L50.2818 31.148C49.3029 31.133 48.3092 31.133 48.0868 31.133C47.8346 31.148 47.5084 31.3429 47.1672 31.6879C46.8854 31.9878 46.574 32.1828 46.4998 32.1228C46.3219 32.0178 46.2774 30.0681 46.4405 29.9031C46.485 29.8432 47.7901 29.7982 49.3178 29.7982C51.928 29.7982 52.106 29.8132 52.195 30.0831ZM55.7248 30.0831C55.7545 30.2331 55.7545 30.548 55.7248 30.758C55.6507 31.133 55.6062 31.148 54.568 31.148C53.426 31.148 53.3073 31.073 53.3073 30.3381C53.3073 29.8432 53.3963 29.7982 54.5828 29.7982C55.5024 29.7982 55.6507 29.8432 55.7248 30.0831ZM59.136 30.1131C59.2101 30.2481 59.2398 30.533 59.1805 30.743C59.0915 31.133 59.047 31.148 58.0681 31.148C56.9855 31.148 56.8668 31.073 56.8668 30.3381C56.8668 29.8282 56.9855 29.7832 58.0385 29.8282C58.7059 29.8582 59.0322 29.9481 59.136 30.1131ZM65.9435 30.803C66.0177 32.1828 65.8693 32.3628 65.1871 31.6879L64.6532 31.163L62.4285 31.118L60.2038 31.073L60.1593 30.653C60.0555 29.7832 60.0259 29.7982 63.0811 29.7982H65.8842L65.9435 30.803ZM60.8267 32.3328C60.9306 32.3928 61.7611 33.1427 62.6658 33.9975C63.5853 34.8674 64.4752 35.7073 64.668 35.8722C64.8608 36.0372 65.024 36.2622 65.024 36.3822C65.024 36.6671 63.3777 38.4968 63.1107 38.4968C62.8586 38.4968 62.206 37.9269 62.206 37.687C62.206 37.612 62.3544 37.387 62.5323 37.192C63.0366 36.6371 62.9624 35.9322 62.3395 35.3773C62.0577 35.1373 61.4941 34.5974 61.0789 34.1925C60.6636 33.8026 60.0704 33.2626 59.7589 33.0077C59.3436 32.6927 59.2101 32.4828 59.2843 32.3028C59.3585 32.0928 59.4919 32.0628 60.011 32.1378C60.367 32.1978 60.7378 32.2878 60.8267 32.3328ZM64.2082 32.4228C64.3714 32.5277 65.0685 33.1726 65.7655 33.8475C66.4626 34.5224 67.308 35.3023 67.6639 35.6023C68.005 35.8872 68.2868 36.2472 68.2868 36.3822C68.272 36.5171 67.8715 37.0421 67.3821 37.567C66.4033 38.6018 65.9583 38.7368 65.7062 38.0319C65.6024 37.717 65.6469 37.582 66.0473 37.192C66.7592 36.4571 66.6702 36.2022 65.2168 34.7624C64.49 34.0425 63.7337 33.3376 63.526 33.1726C63.0959 32.8277 62.7548 32.2878 62.9031 32.1528C63.0218 32.0178 63.8671 32.1978 64.2082 32.4228ZM54.7163 32.4828C54.835 32.7677 54.1231 33.3526 53.4853 33.4876C52.5806 33.6676 51.5424 33.4726 51.1272 33.0527C50.4598 32.3778 50.6971 32.2578 52.7586 32.2578C54.301 32.2578 54.6421 32.2878 54.7163 32.4828ZM57.119 32.3628C57.3414 32.4378 57.994 32.9777 58.5724 33.5326C60.2632 35.1973 61.2272 36.0972 61.3607 36.0972C61.42 36.0972 61.4645 36.2172 61.4645 36.3522C61.4645 36.6371 59.7886 38.4968 59.5216 38.4968C59.4474 38.4968 59.1063 38.2119 58.7949 37.8819C58.261 37.312 58.1571 37.267 57.6677 37.342C57.3711 37.387 57.0893 37.477 57.03 37.522C56.9855 37.582 56.9261 39.1867 56.9113 41.0914C56.8965 44.316 56.8817 44.5559 56.6147 44.6309C56.4664 44.6909 54.5977 44.7059 52.4471 44.6759L48.5465 44.6309L48.5762 41.1664C48.6207 37.8969 48.6059 37.702 48.3241 37.492C47.8643 37.147 47.1079 37.357 46.6037 37.9719C46.0846 38.6018 45.9066 38.6168 45.4617 38.0769C45.2689 37.8519 44.8387 37.387 44.4976 37.0271L43.8896 36.3822L44.7053 35.6623C45.1502 35.2573 46.1291 34.3425 46.8558 33.6376C48.0868 32.4528 48.2351 32.3478 48.7838 32.3628C49.3474 32.3628 49.3919 32.3928 49.7479 33.1427C50 33.6676 50.3263 34.0725 50.7564 34.3725C51.3645 34.7924 51.4979 34.8224 52.7883 34.8224C53.8858 34.8224 54.2269 34.7774 54.4493 34.5524C54.6125 34.4175 54.8053 34.2975 54.8943 34.2975C55.0723 34.2975 55.977 32.9927 55.977 32.7227C55.977 32.4977 56.2884 32.1978 56.5109 32.1978C56.6147 32.1978 56.8817 32.2728 57.119 32.3628ZM62.4433 39.5317C62.8438 39.8466 63.1256 39.9516 63.3629 39.8916L63.704 39.8166L63.6595 42.2613L63.615 44.7209L62.7696 44.7509C62.295 44.7659 61.8798 44.7209 61.8204 44.6309C61.7759 44.5409 61.7166 43.4461 61.687 42.2013C61.6721 40.9415 61.6128 39.7416 61.5386 39.5017C61.3903 38.9618 61.687 38.9618 62.4433 39.5317ZM65.632 39.4267C65.8842 39.7416 65.899 40.0866 65.9138 44.226C65.9138 47.0605 65.8545 48.6953 65.7655 48.7253C65.6914 48.7553 61.2865 48.7553 55.977 48.7253L46.3367 48.6953V44.271C46.3367 40.0416 46.3515 39.8316 46.6333 39.5467C46.7965 39.3817 47.0486 39.2467 47.1969 39.2467C47.4342 39.2467 47.449 39.4717 47.3897 42.2313C47.3452 44.8559 47.3749 45.2608 47.5973 45.6058L47.8495 45.9957H56.1846H64.5197L64.7867 45.5158C65.0388 45.0808 65.0536 44.8109 64.9646 42.1713C64.9053 40.5965 64.9053 39.2617 64.9646 39.2017C65.1426 39.0218 65.3354 39.0817 65.632 39.4267ZM58.9284 39.6217C59.2843 40.0116 59.7441 40.1166 59.9072 39.8466C59.9517 39.7566 60.1148 39.6967 60.2632 39.6967C60.5005 39.6967 60.5153 39.9066 60.5153 42.1713C60.5005 45.0508 60.6933 44.8259 58.3351 44.6609C58.1275 44.6459 58.0978 44.3609 58.1126 42.5012C58.1275 41.3314 58.0681 40.1166 58.0088 39.8016C57.905 39.2917 57.9198 39.2467 58.2313 39.2467C58.4241 39.2467 58.7355 39.4267 58.9284 39.6217Z" fill="#A6A6A6"/>
<path d="M30.2002 25.5988C29.9333 26.0337 29.9333 61.7583 30.2002 62.1932C30.393 62.4931 30.6303 62.4931 49.9108 62.4931C72.4097 62.4931 69.9181 62.7031 69.9181 60.7984C69.9181 59.9285 69.8588 59.5686 69.6659 59.3436C69.0579 58.6387 68.5091 59.1487 68.5091 60.4235V61.2933H49.985C39.796 61.2933 31.4312 61.2783 31.4015 61.2483C31.3719 61.2033 31.3571 53.2396 31.3571 43.536C31.3571 31.4779 31.3126 25.7937 31.2087 25.5988C31.0011 25.2088 30.4375 25.2088 30.2002 25.5988Z" fill="#A6A6A6"/>
<path d="M32.8699 52.4746C32.7364 52.6096 32.6919 53.5994 32.6919 55.969C32.6919 58.9986 32.7216 59.3135 32.9589 59.5385C33.211 59.7635 33.9822 59.7935 41.027 59.7935C48.3833 59.7935 48.8282 59.7785 49.0507 59.5235C49.2731 59.2835 49.3028 58.8186 49.3028 56.059C49.3028 54.1543 49.2435 52.7595 49.1545 52.5796C49.0062 52.3096 48.754 52.2946 41.027 52.2946C35.0204 52.2946 33.0033 52.3396 32.8699 52.4746ZM48.057 55.999L48.0422 58.3687L41.0418 58.4137C37.1857 58.4287 34.0119 58.3987 34.0119 58.3387C33.997 58.2637 33.9674 57.1839 33.9525 55.924L33.9229 53.6444H40.9973H48.0718L48.057 55.999Z" fill="#A6A6A6"/>
<path d="M39.9885 55.5344C39.5881 55.8194 39.5733 56.1044 39.9589 56.4943C40.3593 56.8992 41.442 56.9142 41.7831 56.5243C42.0797 56.1943 42.1094 55.7294 41.8573 55.4745C41.6051 55.2195 40.3742 55.2495 39.9885 55.5344Z" fill="#A6A6A6"/>
<path d="M50.7117 52.6096C50.6524 52.7745 50.6079 54.3793 50.6079 56.164C50.6227 59.0886 50.6376 59.4185 50.8749 59.5985C51.0825 59.7485 52.7881 59.7935 58.8689 59.7935C65.6171 59.7935 66.6256 59.7635 66.9222 59.5535C67.2485 59.3285 67.2485 59.2685 67.2485 56.104C67.2485 54.1693 67.1892 52.7595 67.1002 52.5796C66.9519 52.3096 66.6997 52.2946 58.8689 52.2946C50.8304 52.2946 50.8007 52.2946 50.7117 52.6096ZM65.884 56.059L65.8395 58.4587H58.9579C55.1759 58.4587 52.0465 58.4137 52.002 58.3687C51.9427 58.3237 51.9131 57.2438 51.8982 55.969L51.8834 53.6444H58.8985H65.9137L65.884 56.059Z" fill="#A6A6A6"/>
<path d="M58.0234 55.4593C57.6823 55.6543 57.6823 56.2242 58.0234 56.5392C58.4239 56.8991 59.462 56.8691 59.8328 56.4942C60.2036 56.1192 60.2036 55.8643 59.8625 55.5493C59.551 55.2644 58.4387 55.2044 58.0234 55.4593Z" fill="#A6A6A6"/>
<path d="M39.4409 76.724H49.4969V77.984H39.4409V76.724ZM43.6529 78.512H45.0209V78.716C45.0209 79.204 44.9249 79.66 44.7329 80.084C44.5489 80.5 44.2729 80.876 43.9049 81.212C43.5449 81.54 43.0969 81.816 42.5609 82.04C42.0249 82.272 41.4089 82.436 40.7129 82.532L40.1129 81.308C40.7289 81.236 41.2569 81.116 41.6969 80.948C42.1449 80.772 42.5129 80.568 42.8009 80.336C43.0969 80.096 43.3129 79.84 43.4489 79.568C43.5849 79.288 43.6529 79.004 43.6529 78.716V78.512ZM43.9049 78.512H45.2729V78.716C45.2729 79.004 45.3409 79.288 45.4769 79.568C45.6209 79.84 45.8369 80.096 46.1249 80.336C46.4129 80.568 46.7809 80.772 47.2289 80.948C47.6769 81.116 48.2089 81.236 48.8249 81.308L48.2249 82.532C47.5289 82.436 46.9129 82.272 46.3769 82.04C45.8409 81.816 45.3889 81.54 45.0209 81.212C44.6609 80.876 44.3849 80.5 44.1929 80.084C44.0009 79.66 43.9049 79.204 43.9049 78.716V78.512ZM43.6529 75.536H45.2489V77.156H43.6529V75.536ZM44.4689 71.624C45.2929 71.624 46.0049 71.712 46.6049 71.888C47.2049 72.064 47.6689 72.312 47.9969 72.632C48.3329 72.952 48.5009 73.34 48.5009 73.796C48.5009 74.244 48.3329 74.632 47.9969 74.96C47.6689 75.28 47.2049 75.528 46.6049 75.704C46.0049 75.872 45.2929 75.956 44.4689 75.956C43.6609 75.956 42.9529 75.872 42.3449 75.704C41.7369 75.528 41.2689 75.28 40.9409 74.96C40.6129 74.632 40.4489 74.244 40.4489 73.796C40.4489 73.34 40.6129 72.952 40.9409 72.632C41.2689 72.312 41.7369 72.064 42.3449 71.888C42.9529 71.712 43.6609 71.624 44.4689 71.624ZM44.4689 72.848C43.9729 72.848 43.5449 72.884 43.1849 72.956C42.8249 73.028 42.5529 73.136 42.3689 73.28C42.1929 73.416 42.1049 73.588 42.1049 73.796C42.1049 74.004 42.1929 74.176 42.3689 74.312C42.5529 74.448 42.8249 74.552 43.1849 74.624C43.5449 74.696 43.9729 74.732 44.4689 74.732C44.9809 74.732 45.4129 74.696 45.7649 74.624C46.1169 74.552 46.3849 74.448 46.5689 74.312C46.7529 74.176 46.8449 74.004 46.8449 73.796C46.8449 73.588 46.7529 73.416 46.5689 73.28C46.3849 73.136 46.1169 73.028 45.7649 72.956C45.4129 72.884 44.9809 72.848 44.4689 72.848ZM52.964 72.692H54.272V73.388C54.272 74.092 54.156 74.76 53.924 75.392C53.7 76.024 53.356 76.58 52.892 77.06C52.428 77.532 51.84 77.884 51.128 78.116L50.336 76.856C50.944 76.656 51.44 76.376 51.824 76.016C52.216 75.648 52.504 75.236 52.688 74.78C52.872 74.316 52.964 73.852 52.964 73.388V72.692ZM53.288 72.692H54.572V73.388C54.572 73.82 54.66 74.24 54.836 74.648C55.012 75.048 55.284 75.408 55.652 75.728C56.028 76.048 56.516 76.3 57.116 76.484L56.348 77.732C55.644 77.524 55.064 77.204 54.608 76.772C54.16 76.332 53.828 75.824 53.612 75.248C53.396 74.664 53.288 74.044 53.288 73.388V72.692ZM50.744 72.188H56.756V73.46H50.744V72.188ZM57.632 71.456H59.228V78.044H57.632V71.456ZM58.796 74H60.704V75.308H58.796V74ZM55.604 78.236C56.38 78.236 57.048 78.324 57.608 78.5C58.168 78.668 58.6 78.912 58.904 79.232C59.208 79.552 59.36 79.94 59.36 80.396C59.36 80.852 59.208 81.24 58.904 81.56C58.6 81.888 58.168 82.136 57.608 82.304C57.048 82.48 56.38 82.568 55.604 82.568C54.836 82.568 54.168 82.48 53.6 82.304C53.04 82.136 52.604 81.888 52.292 81.56C51.988 81.24 51.836 80.852 51.836 80.396C51.836 79.94 51.988 79.552 52.292 79.232C52.604 78.912 53.04 78.668 53.6 78.5C54.168 78.324 54.836 78.236 55.604 78.236ZM55.604 79.484C55.132 79.484 54.736 79.516 54.416 79.58C54.096 79.644 53.852 79.744 53.684 79.88C53.516 80.016 53.432 80.188 53.432 80.396C53.432 80.612 53.516 80.788 53.684 80.924C53.852 81.06 54.096 81.164 54.416 81.236C54.736 81.3 55.132 81.332 55.604 81.332C56.076 81.332 56.472 81.3 56.792 81.236C57.12 81.164 57.364 81.06 57.524 80.924C57.692 80.788 57.776 80.612 57.776 80.396C57.776 80.188 57.692 80.016 57.524 79.88C57.364 79.744 57.12 79.644 56.792 79.58C56.472 79.516 56.076 79.484 55.604 79.484Z" fill="#A6A6A6"/>
</svg>
