<svg width="100" height="100" viewBox="0 0 100 100" fill="none" xmlns="http://www.w3.org/2000/svg">
<rect x="1" y="1" width="98" height="98" rx="49" fill="white"/>
<rect x="1" y="1" width="98" height="98" rx="49" stroke="#A6A6A6" stroke-width="2"/>
<path d="M44.4167 20.6034L24.5833 20.6615L24.3 21.1066C24.0667 21.455 24 21.9582 24 23.8549C24 26.5258 24.1667 26.9903 25.1667 27.0871L25.75 27.1451L25.6833 32.4869C25.6167 38.2352 25.6667 38.661 26.4167 38.661C27.1333 38.661 27.2 38.1964 27.2333 32.4869L27.25 27.1451L28.05 27.0871L28.8333 27.029L28.8 40.4415L28.75 53.8541L28.1667 53.8734C27.4333 53.8928 26.95 53.6218 27.0667 53.2541C27.1167 53.1186 27.1667 50.3703 27.1667 47.1575C27.2 41.8738 27.1667 41.3125 26.9 40.9641C26.6 40.577 26.0333 40.6157 25.8 41.0609C25.6 41.3899 25.6333 54.4347 25.8333 54.996C25.9833 55.4992 26 55.4992 27.8833 55.4992C29.5333 55.4992 29.8167 55.4411 30.0667 55.1315C30.3167 54.8024 30.35 54.1444 30.3333 48.5704C30.3167 45.1446 30.35 42.2802 30.3833 42.2028C30.4333 42.1254 35.7833 42.0867 42.2667 42.1447L54.0667 42.2415L54.0167 44.893C53.9833 47.1188 54.0167 47.6026 54.25 48.0284L54.5333 48.5316H60.9333H67.3333V51.6864C67.3333 55.654 67.2333 55.4992 69.7167 55.4992C71.4167 55.4992 71.5 55.4798 71.75 55.0347C72 54.6089 72.0167 53.0993 71.9833 40.848L71.95 27.1451L72.5667 27.0871C72.95 27.0484 73.2333 26.8935 73.3333 26.6419C73.4333 26.4484 73.6167 26.2742 73.75 26.2742C73.95 26.2742 74 25.8484 74 23.8549C74 21.9195 73.95 21.4356 73.7667 21.4356C73.65 21.4356 73.4333 21.2614 73.3167 21.0679C73.1 20.7195 72.85 20.6808 70.4167 20.6615C68.95 20.6421 67.6667 20.6227 67.55 20.6421C67.1667 20.6808 66.9833 21.3776 67.2 21.9195L67.4 22.4227L69.7667 22.384C71.05 22.3646 72.2 22.4033 72.2833 22.4614C72.4167 22.5582 72.4667 24.7839 72.35 25.3065C72.35 25.3645 61.7333 25.4033 48.8 25.3839L25.25 25.3645L25.2333 23.971C25.2167 23.2162 25.2667 22.5582 25.3333 22.5001C25.4167 22.4421 34.3167 22.4033 45.1 22.4033C63.1833 22.4033 64.75 22.384 65.0333 22.0937C65.2 21.9001 65.3333 21.6098 65.3333 21.4163C65.3333 21.0485 64.7167 20.4292 64.4167 20.5066C64.3333 20.5453 55.3333 20.584 44.4167 20.6034ZM54.0333 33.7256V40.3061L42.2333 40.3641C35.75 40.3835 30.4 40.3448 30.35 40.2674C30.3 40.1706 30.2667 37.1707 30.3 33.5708L30.35 27.0484L42.1833 27.0871L54.0167 27.1451L54.0333 33.7256ZM67.3 29.8741L67.25 32.6998L61.4167 32.6805C58.2167 32.6611 55.5667 32.6224 55.55 32.5837C55.5 32.5256 55.45 28.1322 55.4833 27.2806C55.5 27.1064 56.8 27.0484 61.4167 27.0484H67.35L67.3 29.8741ZM70.5 27.2419C70.5 27.3387 70.5 33.3385 70.5 40.5383C70.5 51.0477 70.4667 53.6605 70.2833 53.7767C70.1667 53.8541 69.8167 53.9121 69.5 53.8928L68.9167 53.8541L68.8667 40.4415L68.8333 27.0484H69.6667C70.1167 27.0484 70.5 27.1258 70.5 27.2419ZM67.3667 36.9191C67.4 38.3513 67.3667 39.59 67.3167 39.6867C67.2667 39.7641 64.5833 39.8029 61.3333 39.7835L55.45 39.7254L55.4667 37.1707C55.4667 35.7578 55.5167 34.5385 55.55 34.4611C55.6 34.3643 58.2667 34.3062 61.4833 34.3062H67.3167L67.3667 36.9191ZM67.25 41.5835C67.3333 41.7383 67.4 45.5704 67.35 46.751C67.3333 46.9446 55.7333 46.9446 55.5833 46.751C55.5333 46.693 55.4667 45.493 55.45 44.0995L55.4167 41.5641L61.1667 41.506C64.3333 41.4867 66.9667 41.448 67.0333 41.4093C67.1 41.3899 67.2 41.4673 67.25 41.5835Z" fill="#A6A6A6"/>
<path d="M59.2506 29.3708C59.0006 29.6998 58.984 29.8353 59.134 30.2417C59.3173 30.7256 59.3506 30.7256 61.3173 30.7256C62.4173 30.7256 63.4173 30.6675 63.5673 30.6095C63.9506 30.4353 63.9173 29.4288 63.5173 29.1772C63.334 29.0805 62.3673 28.9837 61.3673 28.9837C59.7673 28.9837 59.5173 29.0224 59.2506 29.3708Z" fill="#A6A6A6"/>
<path d="M59.2329 36.6093C58.9329 37.1319 58.9329 37.3835 59.2996 37.7319C59.6829 38.119 63.1496 38.0996 63.5663 37.7125C63.8829 37.4029 63.9163 36.6093 63.6329 36.3964C63.5163 36.319 62.5329 36.2416 61.4496 36.2222C59.6329 36.2029 59.4663 36.2416 59.2329 36.6093Z" fill="#A6A6A6"/>
<path d="M59.3001 43.9061C58.9168 44.1577 58.9168 44.719 59.3168 45.1255C59.7001 45.5319 62.8668 45.648 63.4668 45.2803C63.9001 44.99 63.9834 44.0029 63.5668 43.8094C63.1334 43.6158 59.6001 43.6932 59.3001 43.9061Z" fill="#A6A6A6"/>
<path d="M40.4329 70.64H41.6209V70.976C41.6209 71.568 41.5369 72.132 41.3689 72.668C41.2009 73.196 40.9369 73.664 40.5769 74.072C40.2169 74.472 39.7449 74.784 39.1609 75.008L38.4409 73.832C38.9049 73.656 39.2809 73.42 39.5689 73.124C39.8649 72.828 40.0809 72.496 40.2169 72.128C40.3609 71.76 40.4329 71.376 40.4329 70.976V70.64ZM40.7689 70.64H41.9449V70.976C41.9449 71.352 42.0129 71.716 42.1489 72.068C42.2929 72.412 42.5129 72.72 42.8089 72.992C43.1049 73.264 43.4809 73.48 43.9369 73.64L43.2409 74.828C42.6569 74.62 42.1809 74.324 41.8129 73.94C41.4529 73.556 41.1889 73.108 41.0209 72.596C40.8529 72.084 40.7689 71.544 40.7689 70.976V70.64ZM38.7409 69.704H43.6129V70.952H38.7409V69.704ZM40.4329 68.552H41.9449V70.268H40.4329V68.552ZM46.3969 68.456H47.9209V75.272H46.3969V68.456ZM45.0769 71.228H46.8409V72.512H45.0769V71.228ZM44.0929 68.636H45.5809V75.212H44.0929V68.636ZM40.2769 75.74H47.9209V79.568H46.3249V77.012H40.2769V75.74ZM51.928 69.044H53.236V70.04C53.236 70.768 53.124 71.46 52.9 72.116C52.684 72.764 52.348 73.332 51.892 73.82C51.436 74.308 50.856 74.672 50.152 74.912L49.312 73.664C49.936 73.448 50.44 73.156 50.824 72.788C51.208 72.412 51.488 71.984 51.664 71.504C51.84 71.024 51.928 70.536 51.928 70.04V69.044ZM52.252 69.044H53.536V70.184C53.536 70.52 53.584 70.848 53.68 71.168C53.784 71.488 53.936 71.788 54.136 72.068C54.336 72.348 54.592 72.6 54.904 72.824C55.216 73.04 55.592 73.216 56.032 73.352L55.204 74.6C54.532 74.376 53.976 74.044 53.536 73.604C53.104 73.164 52.78 72.652 52.564 72.068C52.356 71.484 52.252 70.856 52.252 70.184V69.044ZM56.632 68.456H58.228V75.02H56.632V68.456ZM57.796 71.024H59.704V72.344H57.796V71.024ZM54.604 75.272C55.38 75.272 56.048 75.36 56.608 75.536C57.168 75.704 57.6 75.948 57.904 76.268C58.208 76.58 58.36 76.964 58.36 77.42C58.36 77.868 58.208 78.252 57.904 78.572C57.6 78.892 57.168 79.136 56.608 79.304C56.048 79.48 55.38 79.568 54.604 79.568C53.836 79.568 53.168 79.48 52.6 79.304C52.04 79.136 51.604 78.892 51.292 78.572C50.988 78.252 50.836 77.868 50.836 77.42C50.836 76.964 50.988 76.58 51.292 76.268C51.604 75.948 52.04 75.704 52.6 75.536C53.168 75.36 53.836 75.272 54.604 75.272ZM54.604 76.508C54.132 76.508 53.736 76.544 53.416 76.616C53.096 76.68 52.852 76.78 52.684 76.916C52.516 77.044 52.432 77.212 52.432 77.42C52.432 77.62 52.516 77.788 52.684 77.924C52.852 78.06 53.096 78.164 53.416 78.236C53.736 78.3 54.132 78.332 54.604 78.332C55.076 78.332 55.472 78.3 55.792 78.236C56.12 78.164 56.364 78.06 56.524 77.924C56.692 77.788 56.776 77.62 56.776 77.42C56.776 77.212 56.692 77.044 56.524 76.916C56.364 76.78 56.12 76.68 55.792 76.616C55.472 76.544 55.076 76.508 54.604 76.508Z" fill="#A6A6A6"/>
</svg>
