<svg width="80" height="80" viewBox="0 0 80 80" fill="none" xmlns="http://www.w3.org/2000/svg">
<rect x="0.5" y="0.5" width="79" height="79" rx="39.5" fill="#F1F1F1"/>
<rect x="0.5" y="0.5" width="79" height="79" rx="39.5" stroke="#A6A6A6"/>
<path d="M31.4329 58.64H32.6209V58.976C32.6209 59.568 32.5369 60.132 32.3689 60.668C32.2009 61.196 31.9369 61.664 31.5769 62.072C31.2169 62.472 30.7449 62.784 30.1609 63.008L29.4409 61.832C29.9049 61.656 30.2809 61.42 30.5689 61.124C30.8649 60.828 31.0809 60.496 31.2169 60.128C31.3609 59.76 31.4329 59.376 31.4329 58.976V58.64ZM31.7689 58.64H32.9449V58.976C32.9449 59.352 33.0129 59.716 33.1489 60.068C33.2929 60.412 33.5129 60.72 33.8089 60.992C34.1049 61.264 34.4809 61.48 34.9369 61.64L34.2409 62.828C33.6569 62.62 33.1809 62.324 32.8129 61.94C32.4529 61.556 32.1889 61.108 32.0209 60.596C31.8529 60.084 31.7689 59.544 31.7689 58.976V58.64ZM29.7409 57.704H34.6129V58.952H29.7409V57.704ZM31.4329 56.552H32.9449V58.268H31.4329V56.552ZM37.3969 56.456H38.9209V63.272H37.3969V56.456ZM36.0769 59.228H37.8409V60.512H36.0769V59.228ZM35.0929 56.636H36.5809V63.212H35.0929V56.636ZM31.2769 63.74H38.9209V67.568H37.3249V65.012H31.2769V63.74ZM42.928 57.044H44.236V58.04C44.236 58.768 44.124 59.46 43.9 60.116C43.684 60.764 43.348 61.332 42.892 61.82C42.436 62.308 41.856 62.672 41.152 62.912L40.312 61.664C40.936 61.448 41.44 61.156 41.824 60.788C42.208 60.412 42.488 59.984 42.664 59.504C42.84 59.024 42.928 58.536 42.928 58.04V57.044ZM43.252 57.044H44.536V58.184C44.536 58.52 44.584 58.848 44.68 59.168C44.784 59.488 44.936 59.788 45.136 60.068C45.336 60.348 45.592 60.6 45.904 60.824C46.216 61.04 46.592 61.216 47.032 61.352L46.204 62.6C45.532 62.376 44.976 62.044 44.536 61.604C44.104 61.164 43.78 60.652 43.564 60.068C43.356 59.484 43.252 58.856 43.252 58.184V57.044ZM47.632 56.456H49.228V63.02H47.632V56.456ZM48.796 59.024H50.704V60.344H48.796V59.024ZM45.604 63.272C46.38 63.272 47.048 63.36 47.608 63.536C48.168 63.704 48.6 63.948 48.904 64.268C49.208 64.58 49.36 64.964 49.36 65.42C49.36 65.868 49.208 66.252 48.904 66.572C48.6 66.892 48.168 67.136 47.608 67.304C47.048 67.48 46.38 67.568 45.604 67.568C44.836 67.568 44.168 67.48 43.6 67.304C43.04 67.136 42.604 66.892 42.292 66.572C41.988 66.252 41.836 65.868 41.836 65.42C41.836 64.964 41.988 64.58 42.292 64.268C42.604 63.948 43.04 63.704 43.6 63.536C44.168 63.36 44.836 63.272 45.604 63.272ZM45.604 64.508C45.132 64.508 44.736 64.544 44.416 64.616C44.096 64.68 43.852 64.78 43.684 64.916C43.516 65.044 43.432 65.212 43.432 65.42C43.432 65.62 43.516 65.788 43.684 65.924C43.852 66.06 44.096 66.164 44.416 66.236C44.736 66.3 45.132 66.332 45.604 66.332C46.076 66.332 46.472 66.3 46.792 66.236C47.12 66.164 47.364 66.06 47.524 65.924C47.692 65.788 47.776 65.62 47.776 65.42C47.776 65.212 47.692 65.044 47.524 64.916C47.364 64.78 47.12 64.68 46.792 64.616C46.472 64.544 46.076 64.508 45.604 64.508Z" fill="#7C7C7C"/>
<path d="M36.3333 19.0827L20.4667 19.1292L20.24 19.4853C20.0533 19.764 20 20.1666 20 21.6839C20 23.8206 20.1333 24.1922 20.9333 24.2697L21.4 24.3161L21.3467 28.5895C21.2933 33.1881 21.3333 33.5288 21.9333 33.5288C22.5067 33.5288 22.56 33.1572 22.5867 28.5895L22.6 24.3161L23.24 24.2697L23.8667 24.2232L23.84 34.9532L23.8 45.6833L23.3333 45.6987C22.7467 45.7142 22.36 45.4975 22.4533 45.2033C22.4933 45.0949 22.5333 42.8962 22.5333 40.326C22.56 36.099 22.5333 35.65 22.32 35.3713C22.08 35.0616 21.6267 35.0926 21.44 35.4487C21.28 35.7119 21.3067 46.1478 21.4667 46.5968C21.5867 46.9994 21.6 46.9994 23.1067 46.9994C24.4267 46.9994 24.6533 46.9529 24.8533 46.7052C25.0533 46.4419 25.08 45.9155 25.0667 41.4563C25.0533 38.7157 25.08 36.4242 25.1067 36.3622C25.1467 36.3003 29.4267 36.2693 34.6133 36.3158L44.0533 36.3932L44.0133 38.5144C43.9867 40.295 44.0133 40.6821 44.2 41.0227L44.4267 41.4253H49.5467H54.6667V43.9491C54.6667 47.1232 54.5867 46.9994 56.5733 46.9994C57.9333 46.9994 58 46.9839 58.2 46.6277C58.4 46.2871 58.4133 45.0794 58.3867 35.2784L58.36 24.3161L58.8533 24.2697C59.16 24.2387 59.3867 24.1148 59.4667 23.9135C59.5467 23.7587 59.6933 23.6194 59.8 23.6194C59.96 23.6194 60 23.2787 60 21.6839C60 20.1356 59.96 19.7485 59.8133 19.7485C59.72 19.7485 59.5467 19.6092 59.4533 19.4543C59.28 19.1756 59.08 19.1446 57.1333 19.1292C55.96 19.1137 54.9333 19.0982 54.84 19.1137C54.5333 19.1446 54.3867 19.7021 54.56 20.1356L54.72 20.5382L56.6133 20.5072C57.64 20.4917 58.56 20.5227 58.6267 20.5691C58.7333 20.6465 58.7733 22.4271 58.68 22.8452C58.68 22.8916 50.1867 22.9226 39.84 22.9071L21 22.8916L20.9867 21.7768C20.9733 21.173 21.0133 20.6465 21.0667 20.6001C21.1333 20.5536 28.2533 20.5227 36.88 20.5227C51.3467 20.5227 52.6 20.5072 52.8267 20.2749C52.96 20.1201 53.0667 19.8879 53.0667 19.733C53.0667 19.4388 52.5733 18.9434 52.3333 19.0053C52.2667 19.0363 45.0667 19.0672 36.3333 19.0827ZM44.0267 29.5805V34.8449L34.5867 34.8913C29.4 34.9068 25.12 34.8758 25.08 34.8139C25.04 34.7365 25.0133 32.3365 25.04 29.4566L25.08 24.2387L34.5467 24.2697L44.0133 24.3161L44.0267 29.5805ZM54.64 26.4993L54.6 28.7599L49.9333 28.7444C47.3733 28.7289 45.2533 28.6979 45.24 28.667C45.2 28.6205 45.16 25.1058 45.1867 24.4245C45.2 24.2851 46.24 24.2387 49.9333 24.2387H54.68L54.64 26.4993ZM57.2 24.3935C57.2 24.471 57.2 29.2708 57.2 35.0307C57.2 43.4382 57.1733 45.5284 57.0267 45.6213C56.9333 45.6833 56.6533 45.7297 56.4 45.7142L55.9333 45.6833L55.8933 34.9532L55.8667 24.2387H56.5333C56.8933 24.2387 57.2 24.3006 57.2 24.3935ZM54.6933 32.1353C54.72 33.281 54.6933 34.272 54.6533 34.3494C54.6133 34.4113 52.4667 34.4423 49.8667 34.4268L45.16 34.3804L45.1733 32.3365C45.1733 31.2062 45.2133 30.2308 45.24 30.1689C45.28 30.0914 47.4133 30.045 49.9867 30.045H54.6533L54.6933 32.1353ZM54.6 35.8668C54.6667 35.9906 54.72 39.0563 54.68 40.0008C54.6667 40.1557 45.3867 40.1557 45.2667 40.0008C45.2267 39.9544 45.1733 38.9944 45.16 37.8796L45.1333 35.8513L49.7333 35.8048C52.2667 35.7893 54.3733 35.7584 54.4267 35.7274C54.48 35.7119 54.56 35.7739 54.6 35.8668Z" fill="#A6A6A6"/>
<path d="M48.2003 26.0968C48.0003 26.36 47.987 26.4684 48.107 26.7936C48.2536 27.1807 48.2803 27.1807 49.8536 27.1807C50.7336 27.1807 51.5336 27.1342 51.6536 27.0878C51.9603 26.9484 51.9336 26.1433 51.6136 25.942C51.467 25.8646 50.6936 25.7872 49.8936 25.7872C48.6136 25.7872 48.4136 25.8181 48.2003 26.0968Z" fill="#A6A6A6"/>
<path d="M48.1865 31.8876C47.9465 32.3056 47.9465 32.5069 48.2399 32.7856C48.5465 33.0953 51.3199 33.0798 51.6532 32.7701C51.9065 32.5224 51.9332 31.8876 51.7065 31.7172C51.6132 31.6553 50.8265 31.5934 49.9599 31.5779C48.5065 31.5624 48.3732 31.5934 48.1865 31.8876Z" fill="#A6A6A6"/>
<path d="M48.2401 37.7248C47.9334 37.9261 47.9334 38.3751 48.2534 38.7003C48.5601 39.0254 51.0934 39.1183 51.5734 38.8241C51.9201 38.5919 51.9867 37.8022 51.6534 37.6474C51.3067 37.4926 48.4801 37.5545 48.2401 37.7248Z" fill="#A6A6A6"/>
</svg>
