<svg width="100" height="100" viewBox="0 0 100 100" fill="none" xmlns="http://www.w3.org/2000/svg">
<rect x="1" y="1" width="98" height="98" rx="49" fill="white"/>
<rect x="1" y="1" width="98" height="98" rx="49" stroke="#A6A6A6" stroke-width="2"/>
<path d="M32.249 18.08C32.249 18.3067 32.1365 18.3823 31.7992 18.3823C31.2209 18.3823 30.5783 19.002 30.257 19.8938C30.0321 20.4984 30 22.8411 30 40.2531C30 53.2063 30.0482 59.9625 30.1606 60.023C30.257 60.0683 30.3213 60.3102 30.3213 60.552C30.3213 61.0357 31.253 61.9123 31.7671 61.9123C31.9277 61.9123 32.1205 61.9728 32.1687 62.0635C32.3133 62.2751 67.3655 62.2751 67.51 62.0635C67.5582 61.9728 67.7671 61.9123 67.9759 61.9123C68.4578 61.9123 69.1647 61.1868 69.3735 60.5067C69.4699 60.1893 69.6305 59.9474 69.759 59.9474C69.9679 59.9474 70 57.3628 70 40.1624C70 20.5135 70 20.3774 69.6787 20.3019C69.4538 20.2414 69.3574 20.0903 69.3574 19.7729C69.3574 19.2438 68.4418 18.3823 67.8956 18.3823C67.7028 18.3823 67.5261 18.2614 67.4779 18.08C67.3976 17.7777 67.253 17.7777 49.8233 17.7777C32.3614 17.7777 32.249 17.7777 32.249 18.08ZM67.4458 20.2263C67.7671 20.5739 67.7671 20.8611 67.7671 40.2078C67.7671 57.8314 67.7349 59.8718 67.51 60.0835C67.2851 60.2951 65.4056 60.3253 49.9036 60.3706L33.0166 60.4001C32.7212 60.4006 32.4382 60.2808 32.2329 60.0683C31.9116 59.7207 31.9116 59.4789 31.9116 40.102C31.9116 30.8241 31.9473 22.9427 31.9981 20.8659C32.0069 20.5067 32.1394 20.1761 32.4739 20.0449C32.6506 19.9693 40.5382 19.9089 49.9679 19.9089L66.6892 19.8942C66.9768 19.8939 67.2513 20.0144 67.4458 20.2263Z" fill="#A6A6A6"/>
<path d="M55.0922 23.2643C54.4657 23.6572 53.9355 24.4432 53.9355 24.9722C53.9355 25.3803 54.2568 25.9395 54.8833 26.5744C55.2207 26.9371 55.4135 26.9976 56.1203 26.9976C56.6665 26.9976 57.0199 26.922 57.1484 26.7708C57.2608 26.6499 57.4215 26.5441 57.5018 26.5441C57.9195 26.5441 58.2568 25.8488 58.2729 25.0024C58.2729 24.1711 58.2568 24.1409 57.5339 23.5363C56.6504 22.8108 55.9436 22.7352 55.0922 23.2643Z" fill="#A6A6A6"/>
<path d="M61.3576 23.2643C60.6508 23.7177 60.201 24.5943 60.3617 25.2292C60.5705 26.0151 60.6829 26.2116 61.2452 26.6046C61.6629 26.9069 61.9681 26.9976 62.5625 26.9976C63.3657 26.9824 63.7512 26.786 64.2653 26.0907C64.6669 25.5314 64.6187 24.3072 64.1689 23.8084C63.3014 22.8713 62.2894 22.6748 61.3576 23.2643Z" fill="#A6A6A6"/>
<path d="M48.3131 30.1718C47.6545 30.2171 46.9477 30.3381 46.7549 30.4439C46.5621 30.5346 46.2408 30.6252 46.032 30.6252C45.8232 30.6252 45.5019 30.731 45.3252 30.852C45.1645 30.9729 44.9075 31.0787 44.7629 31.0787C44.6184 31.0787 44.4095 31.1845 44.2971 31.3054C44.1846 31.4263 43.9919 31.5321 43.8633 31.5321C43.5902 31.5321 41.9517 32.6808 40.9557 33.5575C40.2328 34.1923 38.8995 35.9456 38.5943 36.6711C38.53 36.792 38.4176 37.0036 38.3372 37.1245C38.2569 37.2454 38.1605 37.4117 38.1284 37.5024C38.1123 37.578 37.9838 37.8954 37.8714 38.1825C37.7589 38.4697 37.6143 39.0138 37.5501 39.3917C37.4858 39.7696 37.3412 40.48 37.2449 40.9787C36.8914 42.7623 37.5822 46.0421 38.6906 47.8559C38.771 47.9768 38.8834 48.1884 38.9477 48.3093C39.1244 48.6872 40.4738 50.3195 41.0682 50.8788C41.8714 51.6194 43.2368 52.5716 43.8151 52.7832C43.9437 52.8286 44.1686 52.9193 44.2971 52.9948C45.8232 53.8412 46.9637 54.0982 49.518 54.1587C51.285 54.2191 51.9758 54.1738 52.7308 53.9773C53.8232 53.6901 54.8674 53.3274 55.2208 53.1309C55.3493 53.0553 55.6545 52.9193 55.9115 52.8286C56.1525 52.7379 56.3453 52.6019 56.3453 52.5263C56.3453 52.4507 56.4256 52.3902 56.522 52.3902C57.0039 52.3902 59.3814 50.2742 60.1686 49.1406C60.779 48.264 60.9718 47.9617 61.0842 47.7047C61.1485 47.5838 61.2931 47.2966 61.4216 47.0699C61.5501 46.8583 61.6465 46.5409 61.6465 46.3898C61.6465 46.2386 61.7107 46.0421 61.8071 45.9514C62.0641 45.7096 62.5139 43.1703 62.4979 42.0368C62.4657 40.2683 61.8232 37.9105 60.9718 36.5199C60.9075 36.399 60.7951 36.1874 60.7308 36.0665C60.6826 35.9456 60.2971 35.4317 59.8955 34.9329C58.9316 33.7086 57.9035 32.8169 56.522 31.9553C56.1364 31.6984 56.024 31.653 55.5099 31.4565C55.3975 31.4112 55.1886 31.3205 55.0601 31.2601C54.273 30.8368 53.7107 30.6252 53.4216 30.6252C53.2449 30.6252 52.8754 30.5346 52.6023 30.4136C52.024 30.1567 50.1123 30.066 48.3131 30.1718ZM52.1043 32.2878C52.7951 32.4541 53.4376 32.6657 53.518 32.7413C53.6143 32.832 53.8392 32.8924 54.032 32.8924C54.2248 32.8924 54.4657 32.9982 54.5782 33.1191C54.6906 33.2401 54.8513 33.3459 54.9316 33.3459C55.3011 33.3459 56.9718 34.6306 57.8071 35.5828C58.6906 36.5653 58.6425 36.5199 59.0441 37.2757C59.2529 37.6535 59.4778 38.0616 59.5421 38.1825C59.6224 38.3035 59.8151 38.8173 59.9758 39.3161C60.4095 40.6311 60.3774 43.9412 59.9276 45.1806C59.7509 45.6643 59.526 46.1328 59.4135 46.2386C59.3172 46.3293 59.2368 46.5107 59.2368 46.6467C59.2368 46.7978 59.028 47.1908 58.7549 47.5233C58.4818 47.871 58.273 48.2035 58.273 48.2791C58.273 48.4453 56.5702 49.9719 55.783 50.516C54.53 51.3625 53.3091 51.831 51.3172 52.1786C49.9356 52.4205 49.6465 52.4205 48.7469 52.2542C48.2007 52.1333 47.4617 51.9973 47.1083 51.9368C46.7549 51.8915 46.289 51.7554 46.0641 51.6345C45.8392 51.5287 45.5501 51.3776 45.4216 51.3171C45.2931 51.2415 44.8593 51.0299 44.4738 50.8486C43.783 50.516 42.2569 49.2162 41.4055 48.2337C40.8914 47.6443 40.1846 46.3595 39.7509 45.2108C39.4617 44.44 39.4135 43.9714 39.4135 42.1123C39.4296 40.3742 39.4778 39.8149 39.6866 39.437C39.8473 39.165 39.9597 38.8173 39.9597 38.6662C39.9597 38.5151 40.1364 38.0767 40.3613 37.714C40.5702 37.3512 40.8272 36.9129 40.9075 36.7466C41.3252 35.9002 44.2168 33.3459 44.7469 33.3459C44.8272 33.3459 44.9878 33.2401 45.1003 33.1191C45.2127 32.9982 45.4537 32.8924 45.6465 32.8924C45.8392 32.8924 46.0802 32.8169 46.1766 32.7262C46.4497 32.4692 48.6505 32.0158 49.775 32.0007C50.3694 31.9856 51.3814 32.1216 52.1043 32.2878Z" fill="#A6A6A6"/>
<path d="M44.9718 37.306C44.7308 37.5629 44.6184 37.9106 44.5702 38.7116C44.4738 39.9964 44.3132 40.7521 44.0722 41.0393C43.8634 41.2811 43.5421 41.8101 43.3975 42.1124C43.3493 42.2333 43.2047 42.5356 43.0923 42.7926C42.7549 43.5181 42.4818 44.697 42.4015 45.619C42.3533 46.4201 42.3855 46.5259 42.8192 46.9491C43.4136 47.4932 43.6385 47.5083 44.1686 47.0549C44.522 46.7375 44.5702 46.5561 44.6666 45.2109C44.7469 43.8657 44.8112 43.6541 45.2449 43.0646C45.518 42.7019 45.7429 42.3089 45.7429 42.2031C45.7429 42.0973 45.8553 41.9159 45.9839 41.8101C46.1124 41.7043 46.2248 41.4625 46.2248 41.2811C46.2248 41.0997 46.3373 40.6916 46.4658 40.4045C46.6104 40.0719 46.7067 39.3918 46.7067 38.6965C46.7067 37.699 46.6586 37.5176 46.3533 37.2606C45.8553 36.8828 45.3895 36.8979 44.9718 37.306Z" fill="#A6A6A6"/>
<path d="M50.1443 37.2907C49.9355 37.5023 49.8391 37.865 49.823 38.4847C49.7909 39.5276 49.6142 40.6159 49.4375 40.8275C48.5218 41.9913 47.6865 44.3341 47.6704 45.7246C47.6704 46.4199 47.7347 46.6164 48.1041 46.9791C48.6503 47.5232 48.9877 47.5081 49.5017 46.9489C49.8391 46.571 49.9033 46.3292 49.8873 45.6944C49.8551 44.4096 50.1604 43.4876 51.06 42.1878C51.4294 41.6285 51.4294 41.6588 51.7507 40.4194C51.8953 39.8753 52.0078 39.0137 52.0078 38.5301C52.0078 37.7894 51.9435 37.5778 51.6383 37.3058C51.1724 36.8826 50.5459 36.8826 50.1443 37.2907Z" fill="#A6A6A6"/>
<path d="M55.5098 37.2755C55.1404 37.5324 55.0922 37.6987 55.0118 39.0439C54.9155 40.5704 54.8191 40.8576 53.8873 42.2179C53.6464 42.5807 53.4536 42.9888 53.4536 43.155C53.4536 43.3062 53.3412 43.684 53.2126 43.9712C53.0681 44.2886 52.9717 44.9839 52.9717 45.6338C52.9717 46.6918 52.9877 46.7523 53.4536 47.0697C54.048 47.4929 54.2729 47.4929 54.7066 47.0546C54.9476 46.8128 55.044 46.4954 55.0761 45.8908C55.0922 45.135 55.301 43.9259 55.4777 43.548C55.5098 43.4573 55.6865 43.1853 55.8632 42.9434C56.04 42.6865 56.2327 42.3842 56.2809 42.2633C56.3291 42.1424 56.4737 41.825 56.5861 41.5831C56.9235 40.8576 57.1966 39.6787 57.2769 38.7416C57.3412 37.9254 57.293 37.8045 56.8914 37.4115C56.3612 36.8976 56.056 36.8674 55.5098 37.2755Z" fill="#A6A6A6"/>
<path d="M41.6254 71.1662H43.2334V79.2902H41.6254V71.1662ZM39.7174 74.4062H41.8534V75.7022H39.7174V74.4062ZM38.1334 72.0062H39.8014C39.8014 73.0062 39.6014 73.9102 39.2014 74.7182C38.8014 75.5262 38.2214 76.2262 37.4614 76.8182C36.7094 77.4102 35.7934 77.8782 34.7134 78.2222L34.0534 76.9502C34.9094 76.6782 35.6414 76.3342 36.2494 75.9182C36.8574 75.4942 37.3214 75.0142 37.6414 74.4782C37.9694 73.9342 38.1334 73.3502 38.1334 72.7262V72.0062ZM34.6294 72.0062H39.1414V73.2782H34.6294V72.0062ZM35.9494 80.8142H43.5094V82.0982H35.9494V80.8142ZM35.9494 78.4862H37.5454V81.5582H35.9494V78.4862ZM44.9725 79.7102H55.0405V81.0062H44.9725V79.7102ZM49.2085 77.2502H50.7925V80.0702H49.2085V77.2502ZM49.1485 72.6182H50.5045V73.0262C50.5045 73.4902 50.4365 73.9342 50.3005 74.3582C50.1725 74.7822 49.9805 75.1782 49.7245 75.5462C49.4765 75.9142 49.1685 76.2422 48.8005 76.5302C48.4325 76.8182 48.0125 77.0662 47.5405 77.2742C47.0685 77.4822 46.5525 77.6382 45.9925 77.7422L45.3565 76.4702C45.8525 76.3902 46.3005 76.2702 46.7005 76.1102C47.1085 75.9502 47.4645 75.7582 47.7685 75.5342C48.0725 75.3102 48.3245 75.0622 48.5245 74.7902C48.7325 74.5182 48.8885 74.2342 48.9925 73.9382C49.0965 73.6422 49.1485 73.3382 49.1485 73.0262V72.6182ZM49.4845 72.6182H50.8285V73.0262C50.8285 73.3382 50.8805 73.6422 50.9845 73.9382C51.0885 74.2262 51.2445 74.5062 51.4525 74.7782C51.6605 75.0422 51.9165 75.2862 52.2205 75.5102C52.5325 75.7262 52.8925 75.9142 53.3005 76.0742C53.7165 76.2342 54.1765 76.3502 54.6805 76.4222L54.0565 77.6822C53.4805 77.5782 52.9525 77.4262 52.4725 77.2262C52.0005 77.0262 51.5765 76.7822 51.2005 76.4942C50.8325 76.2062 50.5205 75.8862 50.2645 75.5342C50.0085 75.1742 49.8125 74.7822 49.6765 74.3582C49.5485 73.9342 49.4845 73.4902 49.4845 73.0262V72.6182ZM45.8005 72.0182H54.1765V73.2902H45.8005V72.0182ZM63.6675 71.1662H65.2635V82.2782H63.6675V71.1662ZM60.3915 72.3182H61.9635C61.9635 73.1662 61.8795 73.9782 61.7115 74.7542C61.5515 75.5222 61.2795 76.2462 60.8955 76.9262C60.5195 77.6062 59.9995 78.2382 59.3355 78.8222C58.6795 79.3982 57.8595 79.9262 56.8755 80.4062L56.0355 79.1462C57.1075 78.6262 57.9595 78.0542 58.5915 77.4302C59.2315 76.7982 59.6915 76.0862 59.9715 75.2942C60.2515 74.4942 60.3915 73.5982 60.3915 72.6062V72.3182ZM56.6355 72.3182H61.1355V73.5902H56.6355V72.3182Z" fill="#A6A6A6"/>
</svg>
