<svg width="100" height="100" viewBox="0 0 100 100" fill="none" xmlns="http://www.w3.org/2000/svg">
<rect x="1" y="1" width="98" height="98" rx="49" fill="white"/>
<rect x="1" y="1" width="98" height="98" rx="49" stroke="#A6A6A6" stroke-width="2"/>
<path d="M30 39.5V59.5H50H70V39.5V19.5H50H30V39.5ZM68.5 20.7863C68.5 20.9431 68.5 58.3706 68.5 58.5118C68.5 58.5902 66.9167 58.6373 65 58.6373H61.5V43.1706C61.5 29.9784 61.4667 27.6725 61.2667 27.6098C60.7833 27.4373 34.6 27.5157 34.3667 27.6882C34.2 27.8294 34.1667 30.7627 34.1667 43.249L34.1833 58.6373L32.85 58.6843C32 58.7157 31.5 58.6686 31.5 58.5588C31.5 58.3549 31.5 20.9431 31.5 20.7863C31.5 20.6451 68.5 20.6451 68.5 20.7863ZM46.9167 28.8961C46.9667 28.9902 47.0167 35.7039 47.0167 43.8137V58.5902L41.35 58.6216C37.65 58.6216 35.6667 58.5745 35.6667 58.4804C35.6667 58.3706 35.6667 31.0294 35.6667 29.0373C35.6667 28.9745 38.0833 28.8961 41.05 28.8647C44 28.849 46.5 28.8176 46.6167 28.7863C46.7167 28.7706 46.85 28.8176 46.9167 28.8961ZM59.9667 43.7667L60 58.6373H54.25H48.5V43.798C48.5 35.6412 48.5333 28.9274 48.5667 28.8961C48.6 28.8647 51.1833 28.849 54.2833 28.8647L59.9167 28.8961L59.9667 43.7667Z" fill="#A6A6A6"/>
<path d="M47.5 22.1665C44.7167 22.2135 43.3 22.3077 43.0667 22.4331C42.5833 22.6841 42 23.6567 42 24.1586C42 24.7233 42.5833 25.539 43.25 25.9312C43.7833 26.2449 44 26.2606 47.9833 26.2135L52.1333 26.1665L52.7833 25.6802C53.3833 25.2096 53.4167 25.1469 53.4667 24.19C53.5 23.2959 53.4667 23.139 53.1333 22.841C52.35 22.1351 51.85 22.088 47.5 22.1665ZM52.0333 23.8292C52.1833 24.1116 52.1833 24.2998 52.05 24.488C51.9 24.7233 51.4167 24.7547 47.9167 24.8018C43.75 24.8488 43.5 24.8018 43.5 24.143C43.5 23.4528 43.6833 23.4214 47.8667 23.4214H51.8333L52.0333 23.8292Z" fill="#A6A6A6"/>
<path d="M63.7833 40.504C62.7833 41.4922 62.6666 41.7589 63.1 42.151C63.5 42.5432 63.9 42.4491 64.45 41.853C64.7333 41.555 65.05 41.304 65.15 41.304C65.2333 41.304 65.45 41.5236 65.6166 41.7746C66.1333 42.6216 67.1666 42.5432 67.1666 41.6648C67.1666 41.2099 65.4833 39.5785 65.0166 39.5785C64.85 39.5785 64.3 40.002 63.7833 40.504Z" fill="#A6A6A6"/>
<path d="M62.9335 45.4137C62.8835 45.6176 62.8335 45.8215 62.8335 45.8999C62.8335 46.1195 64.7835 47.8921 65.0168 47.8921C65.3835 47.8921 67.1668 46.1823 67.1668 45.8529C67.1668 44.9431 66.3002 44.7548 65.7002 45.5391C65.4835 45.7901 65.2168 46.0097 65.0835 46.0097C64.9502 46.0097 64.6835 45.7901 64.4668 45.5391C64.0002 44.9274 63.1002 44.8646 62.9335 45.4137Z" fill="#A6A6A6"/>
<path d="M25.444 71.76H27.148V73.032H25.444V71.76ZM28.936 69.456H30.46V75.108H28.936V69.456ZM26.74 69.648H28.24V75.06H26.74V69.648ZM22.9 75.528H30.46V78.528H24.52V79.872H22.924V77.364H28.864V76.764H22.9V75.528ZM22.924 79.2H30.82V80.448H22.924V79.2ZM23.56 69.936C24.056 69.936 24.496 70.04 24.88 70.248C25.264 70.456 25.564 70.744 25.78 71.112C25.996 71.48 26.104 71.912 26.104 72.408C26.104 72.896 25.996 73.324 25.78 73.692C25.564 74.06 25.264 74.352 24.88 74.568C24.496 74.776 24.056 74.88 23.56 74.88C23.072 74.88 22.636 74.776 22.252 74.568C21.868 74.352 21.568 74.06 21.352 73.692C21.136 73.324 21.028 72.896 21.028 72.408C21.028 71.912 21.136 71.48 21.352 71.112C21.568 70.744 21.868 70.456 22.252 70.248C22.636 70.04 23.072 69.936 23.56 69.936ZM23.56 71.184C23.344 71.184 23.152 71.232 22.984 71.328C22.816 71.424 22.684 71.564 22.588 71.748C22.5 71.924 22.456 72.144 22.456 72.408C22.456 72.664 22.5 72.884 22.588 73.068C22.684 73.244 22.816 73.384 22.984 73.488C23.152 73.584 23.344 73.632 23.56 73.632C23.784 73.632 23.976 73.584 24.136 73.488C24.304 73.384 24.436 73.244 24.532 73.068C24.628 72.884 24.676 72.664 24.676 72.408C24.676 72.144 24.628 71.924 24.532 71.748C24.436 71.564 24.304 71.424 24.136 71.328C23.976 71.232 23.784 71.184 23.56 71.184ZM32.3311 76.668H33.1231C33.7951 76.668 34.4391 76.652 35.0551 76.62C35.6791 76.58 36.3351 76.504 37.0231 76.392L37.1551 77.676C36.4511 77.804 35.7751 77.884 35.1271 77.916C34.4871 77.948 33.8191 77.964 33.1231 77.964H32.3311V76.668ZM32.3071 70.548H36.2431V74.796H33.8791V77.16H32.3311V73.536H34.7071V71.808H32.3071V70.548ZM40.0471 69.444H41.5711V80.556H40.0471V69.444ZM36.6991 73.224H38.4151V74.532H36.6991V73.224ZM37.7911 69.648H39.2671V80.028H37.7911V69.648ZM43.3821 70.464H44.8821V73.008H46.3221V70.464H47.7861V77.928H43.3821V70.464ZM44.8821 74.256V76.656H46.3221V74.256H44.8821ZM51.0861 69.444H52.6101V80.556H51.0861V69.444ZM47.5341 73.512H49.3701V74.796H47.5341V73.512ZM48.8301 69.636H50.3181V80.076H48.8301V69.636ZM61.7292 69.432H63.3252V80.58H61.7292V69.432ZM57.3372 70.212C57.9052 70.212 58.4092 70.376 58.8492 70.704C59.2892 71.024 59.6332 71.484 59.8812 72.084C60.1372 72.676 60.2652 73.376 60.2652 74.184C60.2652 75 60.1372 75.708 59.8812 76.308C59.6332 76.9 59.2892 77.36 58.8492 77.688C58.4092 78.008 57.9052 78.168 57.3372 78.168C56.7772 78.168 56.2772 78.008 55.8372 77.688C55.3972 77.36 55.0492 76.9 54.7932 76.308C54.5452 75.708 54.4212 75 54.4212 74.184C54.4212 73.376 54.5452 72.676 54.7932 72.084C55.0492 71.484 55.3972 71.024 55.8372 70.704C56.2772 70.376 56.7772 70.212 57.3372 70.212ZM57.3372 71.664C57.0652 71.664 56.8252 71.76 56.6172 71.952C56.4092 72.144 56.2452 72.428 56.1252 72.804C56.0132 73.172 55.9572 73.632 55.9572 74.184C55.9572 74.728 56.0132 75.192 56.1252 75.576C56.2452 75.952 56.4092 76.236 56.6172 76.428C56.8252 76.62 57.0652 76.716 57.3372 76.716C57.6172 76.716 57.8612 76.62 58.0692 76.428C58.2772 76.236 58.4372 75.952 58.5492 75.576C58.6692 75.192 58.7292 74.728 58.7292 74.184C58.7292 73.632 58.6692 73.172 58.5492 72.804C58.4372 72.428 58.2772 72.144 58.0692 71.952C57.8612 71.76 57.6172 71.664 57.3372 71.664ZM72.8763 69.432H74.4723V80.58H72.8763V69.432ZM70.9683 73.356H73.0683V74.652H70.9683V73.356ZM65.6403 76.788H66.5403C67.1563 76.788 67.7243 76.78 68.2443 76.764C68.7723 76.748 69.2843 76.72 69.7803 76.68C70.2763 76.64 70.7843 76.584 71.3043 76.512L71.4603 77.772C70.9243 77.86 70.3963 77.924 69.8763 77.964C69.3643 78.004 68.8363 78.032 68.2923 78.048C67.7483 78.064 67.1643 78.072 66.5403 78.072H65.6403V76.788ZM65.6403 70.368H70.7883V71.664H67.2363V77.184H65.6403V70.368ZM66.8643 73.464H70.4163V74.712H66.8643V73.464Z" fill="#A6A6A6"/>
</svg>
