<svg width="80" height="80" viewBox="0 0 80 80" fill="none" xmlns="http://www.w3.org/2000/svg">
<rect x="0.5" y="0.5" width="79" height="79" rx="39.5" fill="#F1F1F1"/>
<rect x="0.5" y="0.5" width="79" height="79" rx="39.5" stroke="#A6A6A6"/>
<path d="M24.25 29.5V45.25H40H55.75V29.5V13.75H40H24.25V29.5ZM54.5687 14.7629C54.5687 14.8865 54.5687 44.3606 54.5687 44.4718C54.5687 44.5335 53.3219 44.5706 51.8125 44.5706H49.0562V32.3906C49.0562 22.0018 49.03 20.1859 48.8725 20.1365C48.4919 20.0006 27.8725 20.0624 27.6887 20.1982C27.5575 20.3094 27.5312 22.6194 27.5312 32.4524L27.5444 44.5706L26.4944 44.6076C25.825 44.6324 25.4312 44.5953 25.4312 44.5088C25.4312 44.3482 25.4312 14.8865 25.4312 14.7629C25.4312 14.6518 54.5687 14.6518 54.5687 14.7629ZM37.5719 21.1494C37.6112 21.2235 37.6506 26.5106 37.6506 32.8971V44.5335L33.1881 44.5582C30.2744 44.5582 28.7125 44.5212 28.7125 44.4471C28.7125 44.3606 28.7125 22.8294 28.7125 21.2606C28.7125 21.2112 30.6156 21.1494 32.9519 21.1247C35.275 21.1124 37.2437 21.0876 37.3356 21.0629C37.4144 21.0506 37.5194 21.0876 37.5719 21.1494ZM47.8487 32.86L47.875 44.5706H43.3469H38.8187V32.8847C38.8187 26.4612 38.845 21.1741 38.8712 21.1494C38.8975 21.1247 40.9319 21.1124 43.3731 21.1247L47.8094 21.1494L47.8487 32.86Z" fill="#A6A6A6"/>
<path d="M38.0314 15.8495C35.8396 15.8866 34.7239 15.9607 34.5402 16.0595C34.1596 16.2572 33.7002 17.0231 33.7002 17.4184C33.7002 17.8631 34.1596 18.5054 34.6846 18.8143C35.1046 19.0613 35.2752 19.0737 38.4121 19.0366L41.6802 18.9995L42.1921 18.6166C42.6646 18.246 42.6908 18.1966 42.7302 17.4431C42.7564 16.739 42.7302 16.6154 42.4677 16.3807C41.8508 15.8248 41.4571 15.7878 38.0314 15.8495ZM41.6014 17.159C41.7196 17.3813 41.7196 17.5295 41.6146 17.6778C41.4964 17.8631 41.1158 17.8878 38.3596 17.9248C35.0783 17.9619 34.8814 17.9248 34.8814 17.406C34.8814 16.8625 35.0258 16.8378 38.3202 16.8378H41.4439L41.6014 17.159Z" fill="#A6A6A6"/>
<path d="M50.8545 30.2909C50.067 31.0691 49.9751 31.2791 50.3164 31.5879C50.6314 31.8968 50.9464 31.8226 51.3795 31.3532C51.6026 31.1185 51.852 30.9209 51.9307 30.9209C51.9964 30.9209 52.167 31.0938 52.2982 31.2915C52.7051 31.9585 53.5189 31.8968 53.5189 31.205C53.5189 30.8468 52.1932 29.5621 51.8257 29.5621C51.6945 29.5621 51.2614 29.8956 50.8545 30.2909Z" fill="#A6A6A6"/>
<path d="M50.1852 34.1571C50.1458 34.3177 50.1064 34.4783 50.1064 34.5401C50.1064 34.713 51.6421 36.1089 51.8258 36.1089C52.1146 36.1089 53.5189 34.7624 53.5189 34.503C53.5189 33.7865 52.8364 33.6383 52.3639 34.2559C52.1933 34.4536 51.9833 34.6265 51.8783 34.6265C51.7733 34.6265 51.5633 34.4536 51.3927 34.2559C51.0252 33.7742 50.3164 33.7248 50.1852 34.1571Z" fill="#A6A6A6"/>
<path d="M16.944 57.51H18.636V58.782H16.944V57.51ZM20.436 55.218H21.948V60.87H20.436V55.218ZM18.24 55.41H19.728V60.822H18.24V55.41ZM14.4 61.278H21.948V64.29H16.02V65.634H14.412V63.126H20.364V62.526H14.4V61.278ZM14.412 64.95H22.308V66.198H14.412V64.95ZM15.06 55.698C16.536 55.698 17.604 56.694 17.604 58.17C17.604 59.622 16.536 60.63 15.06 60.63C13.572 60.63 12.516 59.622 12.516 58.17C12.516 56.694 13.572 55.698 15.06 55.698ZM15.06 56.934C14.4 56.934 13.944 57.39 13.944 58.17C13.944 58.926 14.4 59.382 15.06 59.382C15.708 59.382 16.176 58.926 16.176 58.17C16.176 57.39 15.708 56.934 15.06 56.934ZM23.8191 62.418H24.6111C25.9551 62.418 27.1431 62.382 28.5231 62.142L28.6551 63.426C27.2271 63.69 26.0031 63.726 24.6111 63.726H23.8191V62.418ZM23.8071 56.298H27.7311V60.546H25.3671V62.922H23.8191V59.298H26.1951V57.558H23.8071V56.298ZM31.5471 55.206H33.0591V66.318H31.5471V55.206ZM28.1871 58.986H29.9151V60.294H28.1871V58.986ZM29.2911 55.41H30.7671V65.79H29.2911V55.41ZM34.8701 56.214H36.3701V58.77H37.8101V56.214H39.2741V63.69H34.8701V56.214ZM36.3701 60.018V62.406H37.8101V60.018H36.3701ZM42.5861 55.206H44.1101V66.318H42.5861V55.206ZM39.0221 59.262H40.8701V60.558H39.0221V59.262ZM40.3181 55.386H41.8181V65.826H40.3181V55.386ZM53.2172 55.194H54.8252V66.342H53.2172V55.194ZM48.8372 55.974C50.5172 55.974 51.7532 57.51 51.7532 59.934C51.7532 62.382 50.5172 63.918 48.8372 63.918C47.1572 63.918 45.9212 62.382 45.9212 59.934C45.9212 57.51 47.1572 55.974 48.8372 55.974ZM48.8372 57.426C48.0092 57.426 47.4452 58.302 47.4452 59.934C47.4452 61.59 48.0092 62.478 48.8372 62.478C49.6652 62.478 50.2172 61.59 50.2172 59.934C50.2172 58.302 49.6652 57.426 48.8372 57.426ZM64.3763 55.194H65.9603V66.342H64.3763V55.194ZM62.4683 59.106H64.5563V60.402H62.4683V59.106ZM57.1403 62.538H58.0283C59.8643 62.538 61.2323 62.514 62.8043 62.262L62.9483 63.534C61.3403 63.786 59.9003 63.834 58.0283 63.834H57.1403V62.538ZM57.1403 56.13H62.2883V57.426H58.7243V62.946H57.1403V56.13ZM58.3643 59.226H61.9043V60.474H58.3643V59.226Z" fill="#7C7C7C"/>
</svg>
