<svg width="100" height="100" viewBox="0 0 100 100" fill="none" xmlns="http://www.w3.org/2000/svg">
<rect x="1" y="1" width="98" height="98" rx="49" fill="#FEF7D4"/>
<rect x="1" y="1" width="98" height="98" rx="49" stroke="#E7B00B" stroke-width="2"/>
<path d="M30 39.5V59.5H50H70V39.5V19.5H50H30V39.5ZM68.5 20.7863C68.5 20.9431 68.5 58.3706 68.5 58.5118C68.5 58.5902 66.9167 58.6373 65 58.6373H61.5V43.1706C61.5 29.9784 61.4667 27.6725 61.2667 27.6098C60.7833 27.4373 34.6 27.5157 34.3667 27.6882C34.2 27.8294 34.1667 30.7627 34.1667 43.249L34.1833 58.6373L32.85 58.6843C32 58.7157 31.5 58.6686 31.5 58.5588C31.5 58.3549 31.5 20.9431 31.5 20.7863C31.5 20.6451 68.5 20.6451 68.5 20.7863ZM46.9167 28.8961C46.9667 28.9902 47.0167 35.7039 47.0167 43.8137V58.5902L41.35 58.6216C37.65 58.6216 35.6667 58.5745 35.6667 58.4804C35.6667 58.3706 35.6667 31.0294 35.6667 29.0373C35.6667 28.9745 38.0833 28.8961 41.05 28.8647C44 28.849 46.5 28.8176 46.6167 28.7863C46.7167 28.7706 46.85 28.8176 46.9167 28.8961ZM59.9667 43.7667L60 58.6373H54.25H48.5V43.798C48.5 35.6412 48.5333 28.9274 48.5667 28.8961C48.6 28.8647 51.1833 28.849 54.2833 28.8647L59.9167 28.8961L59.9667 43.7667Z" fill="#E7B00B"/>
<path d="M47.5 22.1665C44.7167 22.2135 43.3 22.3077 43.0667 22.4331C42.5833 22.6841 42 23.6567 42 24.1586C42 24.7233 42.5833 25.539 43.25 25.9312C43.7833 26.2449 44 26.2606 47.9833 26.2135L52.1333 26.1665L52.7833 25.6802C53.3833 25.2096 53.4167 25.1469 53.4667 24.19C53.5 23.2959 53.4667 23.139 53.1333 22.841C52.35 22.1351 51.85 22.088 47.5 22.1665ZM52.0333 23.8292C52.1833 24.1116 52.1833 24.2998 52.05 24.488C51.9 24.7233 51.4167 24.7547 47.9167 24.8018C43.75 24.8488 43.5 24.8018 43.5 24.143C43.5 23.4528 43.6833 23.4214 47.8667 23.4214H51.8333L52.0333 23.8292Z" fill="#E7B00B"/>
<path d="M63.7833 40.504C62.7833 41.4922 62.6666 41.7589 63.1 42.151C63.5 42.5432 63.9 42.4491 64.45 41.853C64.7333 41.555 65.05 41.304 65.15 41.304C65.2333 41.304 65.45 41.5236 65.6166 41.7746C66.1333 42.6216 67.1666 42.5432 67.1666 41.6648C67.1666 41.2099 65.4833 39.5785 65.0166 39.5785C64.85 39.5785 64.3 40.002 63.7833 40.504Z" fill="#E7B00B"/>
<path d="M62.9335 45.4137C62.8835 45.6176 62.8335 45.8215 62.8335 45.8999C62.8335 46.1195 64.7835 47.8921 65.0168 47.8921C65.3835 47.8921 67.1668 46.1823 67.1668 45.8529C67.1668 44.9431 66.3002 44.7548 65.7002 45.5391C65.4835 45.7901 65.2168 46.0097 65.0835 46.0097C64.9502 46.0097 64.6835 45.7901 64.4668 45.5391C64.0002 44.9274 63.1002 44.8646 62.9335 45.4137Z" fill="#E7B00B"/>
<path d="M25.444 71.76H27.136V73.032H25.444V71.76ZM28.936 69.468H30.448V75.12H28.936V69.468ZM26.74 69.66H28.228V75.072H26.74V69.66ZM22.9 75.528H30.448V78.54H24.52V79.884H22.912V77.376H28.864V76.776H22.9V75.528ZM22.912 79.2H30.808V80.448H22.912V79.2ZM23.56 69.948C25.036 69.948 26.104 70.944 26.104 72.42C26.104 73.872 25.036 74.88 23.56 74.88C22.072 74.88 21.016 73.872 21.016 72.42C21.016 70.944 22.072 69.948 23.56 69.948ZM23.56 71.184C22.9 71.184 22.444 71.64 22.444 72.42C22.444 73.176 22.9 73.632 23.56 73.632C24.208 73.632 24.676 73.176 24.676 72.42C24.676 71.64 24.208 71.184 23.56 71.184ZM32.3191 76.668H33.1111C34.4551 76.668 35.6431 76.632 37.0231 76.392L37.1551 77.676C35.7271 77.94 34.5031 77.976 33.1111 77.976H32.3191V76.668ZM32.3071 70.548H36.2311V74.796H33.8671V77.172H32.3191V73.548H34.6951V71.808H32.3071V70.548ZM40.0471 69.456H41.5591V80.568H40.0471V69.456ZM36.6871 73.236H38.4151V74.544H36.6871V73.236ZM37.7911 69.66H39.2671V80.04H37.7911V69.66ZM43.3701 70.464H44.8701V73.02H46.3101V70.464H47.7741V77.94H43.3701V70.464ZM44.8701 74.268V76.656H46.3101V74.268H44.8701ZM51.0861 69.456H52.6101V80.568H51.0861V69.456ZM47.5221 73.512H49.3701V74.808H47.5221V73.512ZM48.8181 69.636H50.3181V80.076H48.8181V69.636ZM61.7172 69.444H63.3252V80.592H61.7172V69.444ZM57.3372 70.224C59.0172 70.224 60.2532 71.76 60.2532 74.184C60.2532 76.632 59.0172 78.168 57.3372 78.168C55.6572 78.168 54.4212 76.632 54.4212 74.184C54.4212 71.76 55.6572 70.224 57.3372 70.224ZM57.3372 71.676C56.5092 71.676 55.9452 72.552 55.9452 74.184C55.9452 75.84 56.5092 76.728 57.3372 76.728C58.1652 76.728 58.7172 75.84 58.7172 74.184C58.7172 72.552 58.1652 71.676 57.3372 71.676ZM72.8763 69.444H74.4603V80.592H72.8763V69.444ZM70.9683 73.356H73.0563V74.652H70.9683V73.356ZM65.6403 76.788H66.5283C68.3643 76.788 69.7323 76.764 71.3043 76.512L71.4483 77.784C69.8403 78.036 68.4003 78.084 66.5283 78.084H65.6403V76.788ZM65.6403 70.38H70.7883V71.676H67.2243V77.196H65.6403V70.38ZM66.8643 73.476H70.4043V74.724H66.8643V73.476Z" fill="#E7B00B"/>
</svg>
