<svg width="100" height="100" viewBox="0 0 100 100" fill="none" xmlns="http://www.w3.org/2000/svg">
<rect x="1" y="1" width="98" height="98" rx="49" fill="#FFF8DF"/>
<rect x="1" y="1" width="98" height="98" rx="49" stroke="#E7B00B" stroke-width="2"/>
<path d="M44.0625 23.67V18.57C44.0625 18.3164 44.1613 18.0732 44.3371 17.8938C44.5129 17.7145 44.7514 17.6138 45 17.6138C45.2486 17.6138 45.4871 17.7145 45.6629 17.8938C45.8387 18.0732 45.9375 18.3164 45.9375 18.57V23.67C45.9375 23.9236 45.8387 24.1669 45.6629 24.3462C45.4871 24.5255 45.2486 24.6263 45 24.6263C44.7514 24.6263 44.5129 24.5255 44.3371 24.3462C44.1613 24.1669 44.0625 23.9236 44.0625 23.67ZM50 24.6263C50.2486 24.6263 50.4871 24.5255 50.6629 24.3462C50.8387 24.1669 50.9375 23.9236 50.9375 23.67V18.57C50.9375 18.3164 50.8387 18.0732 50.6629 17.8938C50.4871 17.7145 50.2486 17.6138 50 17.6138C49.7514 17.6138 49.5129 17.7145 49.3371 17.8938C49.1613 18.0732 49.0625 18.3164 49.0625 18.57V23.67C49.0625 23.9236 49.1613 24.1669 49.3371 24.3462C49.5129 24.5255 49.7514 24.6263 50 24.6263ZM55 24.6263C55.2486 24.6263 55.4871 24.5255 55.6629 24.3462C55.8387 24.1669 55.9375 23.9236 55.9375 23.67V18.57C55.9375 18.3164 55.8387 18.0732 55.6629 17.8938C55.4871 17.7145 55.2486 17.6138 55 17.6138C54.7514 17.6138 54.5129 17.7145 54.3371 17.8938C54.1613 18.0732 54.0625 18.3164 54.0625 18.57V23.67C54.0625 23.9236 54.1613 24.1669 54.3371 24.3462C54.5129 24.5255 54.7514 24.6263 55 24.6263ZM69.3125 32.085L64.6875 35.6231V45.345C64.6875 46.6131 64.1936 47.8292 63.3146 48.7259C62.4355 49.6225 61.2432 50.1263 60 50.1263H40C38.7568 50.1263 37.5645 49.6225 36.6854 48.7259C35.8064 47.8292 35.3125 46.6131 35.3125 45.345V35.6231L30.6875 32.085C30.4886 31.9329 30.3571 31.7063 30.3219 31.4553C30.2868 31.2042 30.3508 30.9492 30.5 30.7463C30.6492 30.5434 30.8713 30.4092 31.1174 30.3734C31.3636 30.3375 31.6136 30.4029 31.8125 30.555L35.3125 33.2325V28.77C35.3125 28.5164 35.4113 28.2732 35.5871 28.0938C35.7629 27.9145 36.0014 27.8138 36.25 27.8138H63.75C63.9986 27.8138 64.2371 27.9145 64.4129 28.0938C64.5887 28.2732 64.6875 28.5164 64.6875 28.77V33.2325L68.1875 30.555C68.3864 30.4029 68.6364 30.3375 68.8826 30.3734C69.1287 30.4092 69.3508 30.5434 69.5 30.7463C69.6492 30.9492 69.7132 31.2042 69.6781 31.4553C69.6429 31.7063 69.5114 31.9329 69.3125 32.085ZM62.8125 29.7263H37.1875V45.345C37.1875 46.1059 37.4838 46.8355 38.0113 47.3735C38.5387 47.9115 39.2541 48.2138 40 48.2138H60C60.7459 48.2138 61.4613 47.9115 61.9887 47.3735C62.5162 46.8355 62.8125 46.1059 62.8125 45.345V29.7263Z" fill="#E7B00B"/>
<path d="M41.3405 57.9754C41.3431 57.9775 41.3424 57.9817 41.3392 57.9829V57.9829C41.3361 57.9841 41.3354 57.9881 41.3378 57.9903C41.4937 58.1324 41.6293 58.3001 41.7313 58.473L41.7931 58.5737C42.2813 59.4691 41.9375 60.5024 41.0369 61.1488C40.2187 61.7264 39.0775 61.88 38.0188 61.7741C37.015 61.6787 36.0938 61.1912 35.5644 60.5183C35.5296 60.4728 35.4958 60.4261 35.4635 60.3783C35.2393 60.0463 35.1044 59.6556 35.0625 59.2572V59.2572C35.0497 59.0813 35.0584 58.9032 35.0878 58.7266C35.1777 58.1858 36.1528 58.5889 36.5406 58.9764V58.9764V58.9764C36.591 59.0222 36.6433 59.0683 36.7077 59.0906C36.782 59.1163 36.8624 59.1189 36.9394 59.0929C36.9964 59.0753 37.0471 59.0432 37.0811 59.0018C37.1339 58.9374 37.1086 58.8467 37.0769 58.7697V58.7697C36.4719 57.5404 36.9806 56.1045 38.2662 55.2938V55.2938C38.6911 55.0241 39.1621 55.5841 39.2903 56.0707C39.3834 56.4238 39.5995 56.7553 39.9369 57.0105C40.2531 57.2596 40.6312 57.4238 40.9612 57.657L41.3405 57.9754ZM39.7751 60.4412C39.7769 60.44 39.777 60.4374 39.7753 60.4361V60.4361C39.7736 60.4348 39.7737 60.4323 39.7755 60.4311C40.0826 60.2241 40.2531 59.8706 40.2394 59.5539L40.2188 59.3844C40.0812 58.8545 39.4831 58.6796 39.0981 58.2928V58.2928C38.943 58.1381 38.6691 58.146 38.665 58.365C38.6631 58.4665 38.6757 58.5703 38.6994 58.6796C38.7681 58.9817 38.9262 59.2413 38.8438 59.5539V59.5539C38.6804 60.0652 38.565 60.7898 39.0944 60.701C39.1391 60.6935 39.1839 60.6839 39.2288 60.6719C39.406 60.6352 39.6306 60.5358 39.7751 60.4412ZM37.2826 62.8603C37.5753 62.8603 37.8125 63.0975 37.8125 63.3902V63.3902C37.8125 63.6816 38.1219 63.92 38.5 63.92C38.8781 63.92 39.1875 63.6816 39.1875 63.3902V63.3902C39.1875 63.0975 39.4247 62.8603 39.7174 62.8603H40.0326C40.3253 62.8603 40.5625 63.0975 40.5625 63.3902V63.3902C40.5625 63.6816 40.8719 63.92 41.25 63.92C41.6281 63.92 41.9375 63.6816 41.9375 63.3902V63.3902C41.9375 63.0975 42.1763 62.8608 42.4632 62.9182C43.1823 63.062 44 63.4577 44 63.92V63.92C44 64.5053 43.5255 64.9798 42.9403 64.9798H34.0597C33.4745 64.9798 33 64.5053 33 63.92V63.92C33 63.4582 33.8201 63.0629 34.5368 62.9187C34.8237 62.8609 35.0625 63.0975 35.0625 63.3902V63.3902C35.0625 63.6816 35.3719 63.92 35.75 63.92C36.1281 63.92 36.4375 63.6816 36.4375 63.3902V63.3902C36.4375 63.0975 36.6747 62.8603 36.9674 62.8603H37.2826Z" fill="#E7B00B"/>
<path d="M52.3405 57.9754C52.3431 57.9775 52.3424 57.9817 52.3392 57.9829V57.9829C52.3361 57.9841 52.3354 57.9881 52.3378 57.9903C52.4937 58.1324 52.6293 58.3001 52.7313 58.473L52.7931 58.5737C53.2813 59.4691 52.9375 60.5024 52.0369 61.1488C51.2187 61.7264 50.0775 61.88 49.0188 61.7741C48.015 61.6787 47.0938 61.1912 46.5644 60.5183C46.5296 60.4728 46.4958 60.4261 46.4635 60.3783C46.2393 60.0463 46.1044 59.6556 46.0625 59.2572V59.2572C46.0497 59.0813 46.0584 58.9032 46.0878 58.7266C46.1777 58.1858 47.1528 58.5889 47.5406 58.9764V58.9764V58.9764C47.591 59.0222 47.6433 59.0683 47.7077 59.0906C47.782 59.1163 47.8624 59.1189 47.9394 59.0929C47.9964 59.0753 48.0471 59.0432 48.0811 59.0018C48.1339 58.9374 48.1086 58.8467 48.0769 58.7697V58.7697C47.4719 57.5404 47.9806 56.1045 49.2662 55.2938V55.2938C49.6911 55.0241 50.1621 55.5841 50.2903 56.0707C50.3834 56.4238 50.5995 56.7553 50.9369 57.0105C51.2531 57.2596 51.6312 57.4238 51.9612 57.657L52.3405 57.9754ZM50.7751 60.4412C50.7769 60.44 50.777 60.4374 50.7753 60.4361V60.4361C50.7736 60.4348 50.7737 60.4323 50.7755 60.4311C51.0826 60.2241 51.2531 59.8706 51.2394 59.5539L51.2188 59.3844C51.0812 58.8545 50.4831 58.6796 50.0981 58.2928V58.2928C49.943 58.1381 49.6691 58.146 49.665 58.365C49.6631 58.4665 49.6757 58.5703 49.6994 58.6796C49.7681 58.9817 49.9262 59.2413 49.8438 59.5539V59.5539C49.6804 60.0652 49.565 60.7898 50.0944 60.701C50.1391 60.6935 50.1839 60.6839 50.2288 60.6719C50.406 60.6352 50.6306 60.5358 50.7751 60.4412ZM48.2826 62.8603C48.5753 62.8603 48.8125 63.0975 48.8125 63.3902V63.3902C48.8125 63.6816 49.1219 63.92 49.5 63.92C49.8781 63.92 50.1875 63.6816 50.1875 63.3902V63.3902C50.1875 63.0975 50.4247 62.8603 50.7174 62.8603H51.0326C51.3253 62.8603 51.5625 63.0975 51.5625 63.3902V63.3902C51.5625 63.6816 51.8719 63.92 52.25 63.92C52.6281 63.92 52.9375 63.6816 52.9375 63.3902V63.3902C52.9375 63.0975 53.1763 62.8608 53.4632 62.9182C54.1823 63.062 55 63.4577 55 63.92V63.92C55 64.5053 54.5255 64.9798 53.9403 64.9798H45.0597C44.4745 64.9798 44 64.5053 44 63.92V63.92C44 63.4582 44.8201 63.0629 45.5368 62.9187C45.8237 62.8609 46.0625 63.0975 46.0625 63.3902V63.3902C46.0625 63.6816 46.3719 63.92 46.75 63.92C47.1281 63.92 47.4375 63.6816 47.4375 63.3902V63.3902C47.4375 63.0975 47.6747 62.8603 47.9674 62.8603H48.2826Z" fill="#E7B00B"/>
<path d="M63.3405 57.9754C63.3431 57.9775 63.3424 57.9817 63.3392 57.9829V57.9829C63.3361 57.9841 63.3354 57.9881 63.3378 57.9903C63.4937 58.1324 63.6293 58.3001 63.7313 58.473L63.7931 58.5737C64.2813 59.4691 63.9375 60.5024 63.0369 61.1488C62.2187 61.7264 61.0775 61.88 60.0188 61.7741C59.015 61.6787 58.0938 61.1912 57.5644 60.5183C57.5296 60.4728 57.4958 60.4261 57.4635 60.3783C57.2393 60.0463 57.1044 59.6556 57.0625 59.2572V59.2572C57.0497 59.0813 57.0584 58.9032 57.0878 58.7266C57.1777 58.1858 58.1528 58.5889 58.5406 58.9764V58.9764V58.9764C58.591 59.0222 58.6433 59.0683 58.7077 59.0906C58.782 59.1163 58.8624 59.1189 58.9394 59.0929C58.9964 59.0753 59.0471 59.0432 59.0811 59.0018C59.1339 58.9374 59.1086 58.8467 59.0769 58.7697V58.7697C58.4719 57.5404 58.9806 56.1045 60.2662 55.2938V55.2938C60.6911 55.0241 61.1621 55.5841 61.2903 56.0707C61.3834 56.4238 61.5995 56.7553 61.9369 57.0105C62.2531 57.2596 62.6312 57.4238 62.9612 57.657L63.3405 57.9754ZM61.7751 60.4412C61.7769 60.44 61.777 60.4374 61.7753 60.4361V60.4361C61.7736 60.4348 61.7737 60.4323 61.7755 60.4311C62.0826 60.2241 62.2531 59.8706 62.2394 59.5539L62.2188 59.3844C62.0812 58.8545 61.4831 58.6796 61.0981 58.2928V58.2928C60.943 58.1381 60.6691 58.146 60.665 58.365C60.6631 58.4665 60.6757 58.5703 60.6994 58.6796C60.7681 58.9817 60.9262 59.2413 60.8438 59.5539V59.5539C60.6804 60.0652 60.565 60.7898 61.0944 60.701C61.1391 60.6935 61.1839 60.6839 61.2288 60.6719C61.406 60.6352 61.6306 60.5358 61.7751 60.4412ZM59.2826 62.8603C59.5753 62.8603 59.8125 63.0975 59.8125 63.3902V63.3902C59.8125 63.6816 60.1219 63.92 60.5 63.92C60.8781 63.92 61.1875 63.6816 61.1875 63.3902V63.3902C61.1875 63.0975 61.4247 62.8603 61.7174 62.8603H62.0326C62.3253 62.8603 62.5625 63.0975 62.5625 63.3902V63.3902C62.5625 63.6816 62.8719 63.92 63.25 63.92C63.6281 63.92 63.9375 63.6816 63.9375 63.3902V63.3902C63.9375 63.0975 64.1763 62.8608 64.4632 62.9182C65.1823 63.062 66 63.4577 66 63.92V63.92C66 64.5053 65.5255 64.9798 64.9403 64.9798H56.0597C55.4745 64.9798 55 64.5053 55 63.92V63.92C55 63.4582 55.8201 63.0629 56.5368 62.9187C56.8237 62.8609 57.0625 63.0975 57.0625 63.3902V63.3902C57.0625 63.6816 57.3719 63.92 57.75 63.92C58.1281 63.92 58.4375 63.6816 58.4375 63.3902V63.3902C58.4375 63.0975 58.6747 62.8603 58.9674 62.8603H59.2826Z" fill="#E7B00B"/>
<path d="M29.9863 72.924H31.5943V84.036H29.9863V72.924ZM31.1743 77.172H33.1303V78.48H31.1743V77.172ZM27.0703 74.076H28.6303C28.6303 77.412 27.3583 80.268 23.6623 82.128L22.7743 80.916C25.6903 79.404 27.0703 77.364 27.0703 74.352V74.076ZM23.3863 74.076H27.8863V75.36H23.3863V74.076ZM38.0494 73.572H39.4414V74.376C39.4414 76.788 37.7254 78.924 34.8454 79.488L34.1614 78.168C36.6694 77.736 38.0494 75.972 38.0494 74.376V73.572ZM38.3734 73.572H39.7534V74.376C39.7534 76.008 41.1214 77.736 43.6414 78.168L42.9574 79.488C40.0774 78.924 38.3734 76.824 38.3734 74.376V73.572ZM33.9334 81.396H43.9894V82.692H33.9334V81.396ZM45.2605 80.148H46.0525C47.3965 80.148 48.5845 80.112 49.9645 79.872L50.0965 81.156C48.6685 81.42 47.4445 81.456 46.0525 81.456H45.2605V80.148ZM45.2485 74.028H49.1725V78.276H46.8085V80.652H45.2605V77.028H47.6365V75.288H45.2485V74.028ZM52.9885 72.936H54.5005V84.048H52.9885V72.936ZM49.6285 76.716H51.3565V78.024H49.6285V76.716ZM50.7325 73.14H52.2085V83.52H50.7325V73.14ZM63.6315 72.948H65.2395V80.928H63.6315V72.948ZM57.8355 82.584H65.5155V83.856H57.8355V82.584ZM57.8355 80.124H59.4315V83.1H57.8355V80.124ZM59.1915 73.644C60.8955 73.644 62.2035 74.82 62.2035 76.464C62.2035 78.096 60.8955 79.284 59.1915 79.284C57.4875 79.284 56.1675 78.096 56.1675 76.464C56.1675 74.82 57.4875 73.644 59.1915 73.644ZM59.1915 75.024C58.3635 75.024 57.7275 75.552 57.7275 76.464C57.7275 77.364 58.3635 77.892 59.1915 77.892C60.0075 77.892 60.6435 77.364 60.6435 76.464C60.6435 75.552 60.0075 75.024 59.1915 75.024ZM69.7146 74.688H70.9866V75.936C70.9866 78.504 69.9426 81.012 67.8546 81.96L66.9546 80.7C68.8146 79.872 69.7146 77.82 69.7146 75.936V74.688ZM70.0746 74.688H71.3346V75.936C71.3346 77.736 72.2226 79.656 74.0826 80.424L73.2186 81.684C71.1066 80.772 70.0746 78.408 70.0746 75.936V74.688ZM67.3986 74.004H73.6266V75.312H67.3986V74.004ZM74.6586 72.936H76.2666V84.048H74.6586V72.936Z" fill="#E7B00B"/>
</svg>
