<svg width="80" height="80" viewBox="0 0 80 80" fill="none" xmlns="http://www.w3.org/2000/svg">
<rect x="0.5" y="0.5" width="79" height="79" rx="39.5" fill="#FFF8DF"/>
<rect x="0.5" y="0.5" width="79" height="79" rx="39.5" stroke="#EFBA1A"/>
<path d="M20.9863 54.6676H22.5943V65.7796H20.9863V54.6676ZM22.1743 58.9156H24.1303V60.2236H22.1743V58.9156ZM18.0703 55.8196H19.6303C19.6303 59.1556 18.3583 62.0116 14.6623 63.8716L13.7743 62.6596C16.6903 61.1476 18.0703 59.1076 18.0703 56.0956V55.8196ZM14.3863 55.8196H18.8863V57.1036H14.3863V55.8196ZM29.0494 55.3156H30.4414V56.1196C30.4414 58.5316 28.7254 60.6676 25.8454 61.2316L25.1614 59.9116C27.6694 59.4796 29.0494 57.7156 29.0494 56.1196V55.3156ZM29.3734 55.3156H30.7534V56.1196C30.7534 57.7516 32.1214 59.4796 34.6414 59.9116L33.9574 61.2316C31.0774 60.6676 29.3734 58.5676 29.3734 56.1196V55.3156ZM24.9334 63.1396H34.9894V64.4356H24.9334V63.1396ZM36.2605 61.8916H37.0525C38.3965 61.8916 39.5845 61.8556 40.9645 61.6156L41.0965 62.8996C39.6685 63.1636 38.4445 63.1996 37.0525 63.1996H36.2605V61.8916ZM36.2485 55.7716H40.1725V60.0196H37.8085V62.3956H36.2605V58.7716H38.6365V57.0316H36.2485V55.7716ZM43.9885 54.6796H45.5005V65.7916H43.9885V54.6796ZM40.6285 58.4596H42.3565V59.7676H40.6285V58.4596ZM41.7325 54.8836H43.2085V65.2636H41.7325V54.8836ZM54.6315 54.6916H56.2395V62.6716H54.6315V54.6916ZM48.8355 64.3276H56.5155V65.5996H48.8355V64.3276ZM48.8355 61.8676H50.4315V64.8436H48.8355V61.8676ZM50.1915 55.3876C51.8955 55.3876 53.2035 56.5636 53.2035 58.2076C53.2035 59.8396 51.8955 61.0276 50.1915 61.0276C48.4875 61.0276 47.1675 59.8396 47.1675 58.2076C47.1675 56.5636 48.4875 55.3876 50.1915 55.3876ZM50.1915 56.7676C49.3635 56.7676 48.7275 57.2956 48.7275 58.2076C48.7275 59.1076 49.3635 59.6356 50.1915 59.6356C51.0075 59.6356 51.6435 59.1076 51.6435 58.2076C51.6435 57.2956 51.0075 56.7676 50.1915 56.7676ZM60.7146 56.4316H61.9866V57.6796C61.9866 60.2476 60.9426 62.7556 58.8546 63.7036L57.9546 62.4436C59.8146 61.6156 60.7146 59.5636 60.7146 57.6796V56.4316ZM61.0746 56.4316H62.3346V57.6796C62.3346 59.4796 63.2226 61.3996 65.0826 62.1676L64.2186 63.4276C62.1066 62.5156 61.0746 60.1516 61.0746 57.6796V56.4316ZM58.3986 55.7476H64.6266V57.0556H58.3986V55.7476ZM65.6586 54.6796H67.2666V65.7916H65.6586V54.6796Z" fill="#D09808"/>
<g clip-path="url(#clip0_849_4763)">
<path d="M35.4258 15.0075V11.0024C35.4258 10.8032 35.506 10.6122 35.6489 10.4714C35.7917 10.3306 35.9855 10.2515 36.1875 10.2515C36.3895 10.2515 36.5833 10.3306 36.7261 10.4714C36.869 10.6122 36.9492 10.8032 36.9492 11.0024V15.0075C36.9492 15.2066 36.869 15.3976 36.7261 15.5385C36.5833 15.6793 36.3895 15.7584 36.1875 15.7584C35.9855 15.7584 35.7917 15.6793 35.6489 15.5385C35.506 15.3976 35.4258 15.2066 35.4258 15.0075ZM40.25 15.7584C40.452 15.7584 40.6458 15.6793 40.7886 15.5385C40.9315 15.3976 41.0117 15.2066 41.0117 15.0075V11.0024C41.0117 10.8032 40.9315 10.6122 40.7886 10.4714C40.6458 10.3306 40.452 10.2515 40.25 10.2515C40.048 10.2515 39.8542 10.3306 39.7114 10.4714C39.5685 10.6122 39.4883 10.8032 39.4883 11.0024V15.0075C39.4883 15.2066 39.5685 15.3976 39.7114 15.5385C39.8542 15.6793 40.048 15.7584 40.25 15.7584ZM44.3125 15.7584C44.5145 15.7584 44.7083 15.6793 44.8511 15.5385C44.994 15.3976 45.0742 15.2066 45.0742 15.0075V11.0024C45.0742 10.8032 44.994 10.6122 44.8511 10.4714C44.7083 10.3306 44.5145 10.2515 44.3125 10.2515C44.1105 10.2515 43.9167 10.3306 43.7739 10.4714C43.631 10.6122 43.5508 10.8032 43.5508 11.0024V15.0075C43.5508 15.2066 43.631 15.3976 43.7739 15.5385C43.9167 15.6793 44.1105 15.7584 44.3125 15.7584ZM55.9414 21.6158L52.1836 24.3943V32.0289C52.1836 33.0248 51.7823 33.9798 51.0681 34.6839C50.3538 35.3881 49.3851 35.7837 48.375 35.7837H32.125C31.1149 35.7837 30.1462 35.3881 29.4319 34.6839C28.7177 33.9798 28.3164 33.0248 28.3164 32.0289V24.3943L24.5586 21.6158C24.397 21.4963 24.2901 21.3184 24.2616 21.1212C24.233 20.9241 24.285 20.7238 24.4063 20.5645C24.5275 20.4051 24.7079 20.2998 24.9079 20.2716C25.1079 20.2435 25.311 20.2948 25.4727 20.4143L28.3164 22.5169V19.0125C28.3164 18.8134 28.3967 18.6223 28.5395 18.4815C28.6824 18.3407 28.8761 18.2616 29.0781 18.2616H51.4219C51.6239 18.2616 51.8176 18.3407 51.9605 18.4815C52.1033 18.6223 52.1836 18.8134 52.1836 19.0125V22.5169L55.0274 20.4143C55.189 20.2948 55.3921 20.2435 55.5921 20.2716C55.7921 20.2998 55.9725 20.4051 56.0938 20.5645C56.215 20.7238 56.267 20.9241 56.2384 21.1212C56.2099 21.3184 56.103 21.4963 55.9414 21.6158ZM50.6602 19.7635H29.8398V32.0289C29.8398 32.6264 30.0806 33.1994 30.5092 33.6219C30.9377 34.0444 31.5189 34.2818 32.125 34.2818H48.375C48.9811 34.2818 49.5623 34.0444 49.9909 33.6219C50.4194 33.1994 50.6602 32.6264 50.6602 32.0289V19.7635Z" fill="#EFBA1A"/>
</g>
<path d="M33.2141 41.947C33.2162 41.9487 33.2156 41.952 33.2131 41.9529V41.9529C33.2107 41.9538 33.2101 41.9571 33.212 41.9588C33.3387 42.0703 33.4488 42.202 33.5316 42.3378L33.5819 42.4168C33.9785 43.1201 33.6992 43.9315 32.9675 44.4391C32.3027 44.8927 31.3755 45.0134 30.5152 44.9301C29.6997 44.8552 28.9512 44.4724 28.5211 43.944C28.4923 43.9077 28.4644 43.8703 28.4378 43.8322C28.2575 43.5735 28.1474 43.267 28.1133 42.9536V42.9536C28.1026 42.8119 28.1104 42.6683 28.1357 42.526C28.2118 42.0998 29.0028 42.4323 29.3143 42.7331V42.7331V42.7331C29.3552 42.7691 29.3977 42.8052 29.4493 42.8226C29.5099 42.843 29.5754 42.8451 29.6382 42.8246C29.6846 42.8108 29.7258 42.7856 29.7534 42.7531C29.7959 42.703 29.7758 42.6312 29.75 42.5708V42.5708C29.2584 41.6054 29.6718 40.4778 30.7163 39.8411V39.8411C31.0603 39.6301 31.4411 40.0914 31.5561 40.4783C31.6355 40.7454 31.8085 40.9954 32.0737 41.1893C32.3307 41.3849 32.6379 41.5139 32.906 41.697L33.2141 41.947ZM31.9423 43.8834C31.9437 43.8825 31.9438 43.8805 31.9424 43.8795V43.8795C31.9411 43.8785 31.9412 43.8764 31.9426 43.8755C32.1921 43.7129 32.3306 43.4353 32.3195 43.1866L32.3027 43.0535C32.191 42.6374 31.705 42.5001 31.3922 42.1963V42.1963C31.2647 42.0733 31.0429 42.0793 31.0403 42.2565C31.0391 42.335 31.0493 42.4155 31.0682 42.5001C31.1241 42.7372 31.2526 42.9411 31.1855 43.1866V43.1866C31.0529 43.5881 30.9612 44.1533 31.3791 44.0891C31.4187 44.083 31.4586 44.0749 31.4984 44.0646C31.6424 44.0357 31.8249 43.9577 31.9423 43.8834ZM29.9315 45.7832C30.1614 45.7832 30.3477 45.9695 30.3477 46.1993V46.1993C30.3477 46.4281 30.599 46.6154 30.9062 46.6154C31.2135 46.6154 31.4648 46.4281 31.4648 46.1993V46.1993C31.4648 45.9695 31.6511 45.7832 31.881 45.7832H32.1659C32.3957 45.7832 32.582 45.9695 32.582 46.1993V46.1993C32.582 46.4281 32.8334 46.6154 33.1406 46.6154C33.4479 46.6154 33.6992 46.4281 33.6992 46.1993V46.1993C33.6992 45.9695 33.8866 45.7834 34.1124 45.8259C34.7 45.9366 35.375 46.2494 35.375 46.6154V46.6154C35.375 47.075 35.0024 47.4476 34.5428 47.4476H27.2697C26.8101 47.4476 26.4375 47.075 26.4375 46.6154V46.6154C26.4375 46.2498 27.1145 45.9373 27.7001 45.8263C27.9259 45.7835 28.1133 45.9695 28.1133 46.1993V46.1993C28.1133 46.4281 28.3646 46.6154 28.6719 46.6154C28.9791 46.6154 29.2305 46.4281 29.2305 46.1993V46.1993C29.2305 45.9695 29.4168 45.7832 29.6466 45.7832H29.9315Z" fill="#EFBA1A"/>
<path d="M42.1516 41.947C42.1537 41.9487 42.1531 41.952 42.1506 41.9529V41.9529C42.1482 41.9538 42.1476 41.9571 42.1495 41.9588C42.2762 42.0703 42.3863 42.202 42.4691 42.3378L42.5194 42.4168C42.916 43.1201 42.6367 43.9315 41.905 44.4391C41.2402 44.8927 40.313 45.0134 39.4527 44.9301C38.6372 44.8552 37.8887 44.4724 37.4586 43.944C37.4298 43.9077 37.4019 43.8703 37.3753 43.8322C37.195 43.5735 37.0849 43.267 37.0508 42.9536V42.9536C37.0401 42.8119 37.0479 42.6683 37.0732 42.526C37.1493 42.0998 37.9403 42.4323 38.2518 42.7331V42.7331V42.7331C38.2927 42.7691 38.3352 42.8052 38.3868 42.8226C38.4474 42.843 38.5129 42.8451 38.5757 42.8246C38.6221 42.8108 38.6633 42.7856 38.6909 42.7531C38.7334 42.703 38.7133 42.6312 38.6875 42.5708V42.5708C38.1959 41.6054 38.6093 40.4778 39.6538 39.8411V39.8411C39.9978 39.6301 40.3786 40.0914 40.4936 40.4783C40.573 40.7454 40.746 40.9954 41.0112 41.1893C41.2682 41.3849 41.5754 41.5139 41.8435 41.697L42.1516 41.947ZM40.8798 43.8834C40.8812 43.8825 40.8813 43.8805 40.8799 43.8795V43.8795C40.8786 43.8785 40.8787 43.8764 40.8801 43.8755C41.1296 43.7129 41.2681 43.4353 41.257 43.1866L41.2402 43.0535C41.1285 42.6374 40.6425 42.5001 40.3297 42.1963V42.1963C40.2022 42.0733 39.9804 42.0793 39.9778 42.2565C39.9766 42.335 39.9868 42.4155 40.0057 42.5001C40.0616 42.7372 40.1901 42.9411 40.123 43.1866V43.1866C39.9904 43.5881 39.8987 44.1533 40.3166 44.0891C40.3562 44.083 40.3961 44.0749 40.4359 44.0646C40.5799 44.0357 40.7624 43.9577 40.8798 43.8834ZM38.869 45.7832C39.0989 45.7832 39.2852 45.9695 39.2852 46.1993V46.1993C39.2852 46.4281 39.5365 46.6154 39.8438 46.6154C40.151 46.6154 40.4023 46.4281 40.4023 46.1993V46.1993C40.4023 45.9695 40.5886 45.7832 40.8185 45.7832H41.1034C41.3332 45.7832 41.5195 45.9695 41.5195 46.1993V46.1993C41.5195 46.4281 41.7709 46.6154 42.0781 46.6154C42.3854 46.6154 42.6367 46.4281 42.6367 46.1993V46.1993C42.6367 45.9695 42.8241 45.7834 43.0499 45.8259C43.6375 45.9366 44.3125 46.2494 44.3125 46.6154V46.6154C44.3125 47.075 43.9399 47.4476 43.4803 47.4476H36.2072C35.7476 47.4476 35.375 47.075 35.375 46.6154V46.6154C35.375 46.2498 36.052 45.9373 36.6376 45.8263C36.8634 45.7835 37.0508 45.9695 37.0508 46.1993V46.1993C37.0508 46.4281 37.3021 46.6154 37.6094 46.6154C37.9166 46.6154 38.168 46.4281 38.168 46.1993V46.1993C38.168 45.9695 38.3543 45.7832 38.5841 45.7832H38.869Z" fill="#EFBA1A"/>
<path d="M51.0891 41.947C51.0912 41.9487 51.0906 41.952 51.0881 41.9529V41.9529C51.0857 41.9538 51.0851 41.9571 51.087 41.9588C51.2137 42.0703 51.3238 42.202 51.4066 42.3378L51.4569 42.4168C51.8535 43.1201 51.5742 43.9315 50.8425 44.4391C50.1777 44.8927 49.2505 45.0134 48.3902 44.9301C47.5747 44.8552 46.8262 44.4724 46.3961 43.944C46.3673 43.9077 46.3394 43.8703 46.3128 43.8322C46.1325 43.5735 46.0224 43.267 45.9883 42.9536V42.9536C45.9776 42.8119 45.9854 42.6683 46.0107 42.526C46.0868 42.0998 46.8778 42.4323 47.1893 42.7331V42.7331V42.7331C47.2302 42.7691 47.2727 42.8052 47.3243 42.8226C47.3849 42.843 47.4504 42.8451 47.5132 42.8246C47.5596 42.8108 47.6008 42.7856 47.6284 42.7531C47.6709 42.703 47.6508 42.6312 47.625 42.5708V42.5708C47.1334 41.6054 47.5468 40.4778 48.5913 39.8411V39.8411C48.9353 39.6301 49.3161 40.0914 49.4311 40.4783C49.5105 40.7454 49.6835 40.9954 49.9487 41.1893C50.2057 41.3849 50.5129 41.5139 50.781 41.697L51.0891 41.947ZM49.8173 43.8834C49.8187 43.8825 49.8188 43.8805 49.8174 43.8795V43.8795C49.8161 43.8785 49.8162 43.8764 49.8176 43.8755C50.0671 43.7129 50.2056 43.4353 50.1945 43.1866L50.1777 43.0535C50.066 42.6374 49.58 42.5001 49.2672 42.1963V42.1963C49.1397 42.0733 48.9179 42.0793 48.9153 42.2565C48.9141 42.335 48.9243 42.4155 48.9432 42.5001C48.9991 42.7372 49.1276 42.9411 49.0605 43.1866V43.1866C48.9279 43.5881 48.8362 44.1533 49.2541 44.0891C49.2937 44.083 49.3336 44.0749 49.3734 44.0646C49.5174 44.0357 49.6999 43.9577 49.8173 43.8834ZM47.8065 45.7832C48.0364 45.7832 48.2227 45.9695 48.2227 46.1993V46.1993C48.2227 46.4281 48.474 46.6154 48.7812 46.6154C49.0885 46.6154 49.3398 46.4281 49.3398 46.1993V46.1993C49.3398 45.9695 49.5261 45.7832 49.756 45.7832H50.0409C50.2707 45.7832 50.457 45.9695 50.457 46.1993V46.1993C50.457 46.4281 50.7084 46.6154 51.0156 46.6154C51.3229 46.6154 51.5742 46.4281 51.5742 46.1993V46.1993C51.5742 45.9695 51.7616 45.7834 51.9874 45.8259C52.575 45.9366 53.25 46.2494 53.25 46.6154V46.6154C53.25 47.075 52.8774 47.4476 52.4178 47.4476H45.1447C44.6851 47.4476 44.3125 47.075 44.3125 46.6154V46.6154C44.3125 46.2498 44.9895 45.9373 45.5751 45.8263C45.8009 45.7835 45.9883 45.9695 45.9883 46.1993V46.1993C45.9883 46.4281 46.2396 46.6154 46.5469 46.6154C46.8541 46.6154 47.1055 46.4281 47.1055 46.1993V46.1993C47.1055 45.9695 47.2918 45.7832 47.5216 45.7832H47.8065Z" fill="#EFBA1A"/>
<defs>
<clipPath id="clip0_849_4763">
<rect x="24" y="9" width="32.5" height="32.0404" rx="16.0202" fill="white"/>
</clipPath>
</defs>
</svg>
