<svg width="100" height="100" viewBox="0 0 100 100" fill="none" xmlns="http://www.w3.org/2000/svg">
<rect x="1" y="1" width="98" height="98" rx="49" fill="white"/>
<rect x="1" y="1" width="98" height="98" rx="49" stroke="#A6A6A6" stroke-width="2"/>
<path d="M44.0625 23.67V18.57C44.0625 18.3164 44.1613 18.0732 44.3371 17.8938C44.5129 17.7145 44.7514 17.6138 45 17.6138C45.2486 17.6138 45.4871 17.7145 45.6629 17.8938C45.8387 18.0732 45.9375 18.3164 45.9375 18.57V23.67C45.9375 23.9236 45.8387 24.1669 45.6629 24.3462C45.4871 24.5255 45.2486 24.6263 45 24.6263C44.7514 24.6263 44.5129 24.5255 44.3371 24.3462C44.1613 24.1669 44.0625 23.9236 44.0625 23.67ZM50 24.6263C50.2486 24.6263 50.4871 24.5255 50.6629 24.3462C50.8387 24.1669 50.9375 23.9236 50.9375 23.67V18.57C50.9375 18.3164 50.8387 18.0732 50.6629 17.8938C50.4871 17.7145 50.2486 17.6138 50 17.6138C49.7514 17.6138 49.5129 17.7145 49.3371 17.8938C49.1613 18.0732 49.0625 18.3164 49.0625 18.57V23.67C49.0625 23.9236 49.1613 24.1669 49.3371 24.3462C49.5129 24.5255 49.7514 24.6263 50 24.6263ZM55 24.6263C55.2486 24.6263 55.4871 24.5255 55.6629 24.3462C55.8387 24.1669 55.9375 23.9236 55.9375 23.67V18.57C55.9375 18.3164 55.8387 18.0732 55.6629 17.8938C55.4871 17.7145 55.2486 17.6138 55 17.6138C54.7514 17.6138 54.5129 17.7145 54.3371 17.8938C54.1613 18.0732 54.0625 18.3164 54.0625 18.57V23.67C54.0625 23.9236 54.1613 24.1669 54.3371 24.3462C54.5129 24.5255 54.7514 24.6263 55 24.6263ZM69.3125 32.085L64.6875 35.6231V45.345C64.6875 46.6131 64.1936 47.8292 63.3146 48.7259C62.4355 49.6225 61.2432 50.1263 60 50.1263H40C38.7568 50.1263 37.5645 49.6225 36.6854 48.7259C35.8064 47.8292 35.3125 46.6131 35.3125 45.345V35.6231L30.6875 32.085C30.4886 31.9329 30.3571 31.7063 30.3219 31.4553C30.2868 31.2042 30.3508 30.9492 30.5 30.7463C30.6492 30.5434 30.8713 30.4092 31.1174 30.3734C31.3636 30.3375 31.6136 30.4029 31.8125 30.555L35.3125 33.2325V28.77C35.3125 28.5164 35.4113 28.2732 35.5871 28.0938C35.7629 27.9145 36.0014 27.8138 36.25 27.8138H63.75C63.9986 27.8138 64.2371 27.9145 64.4129 28.0938C64.5887 28.2732 64.6875 28.5164 64.6875 28.77V33.2325L68.1875 30.555C68.3864 30.4029 68.6364 30.3375 68.8826 30.3734C69.1287 30.4092 69.3508 30.5434 69.5 30.7463C69.6492 30.9492 69.7132 31.2042 69.6781 31.4553C69.6429 31.7063 69.5114 31.9329 69.3125 32.085ZM62.8125 29.7263H37.1875V45.345C37.1875 46.1059 37.4838 46.8355 38.0113 47.3735C38.5387 47.9115 39.2541 48.2138 40 48.2138H60C60.7459 48.2138 61.4613 47.9115 61.9887 47.3735C62.5162 46.8355 62.8125 46.1059 62.8125 45.345V29.7263Z" fill="#A6A6A6"/>
<path d="M41.3405 57.9754C41.3431 57.9775 41.3424 57.9817 41.3392 57.9829C41.3361 57.9841 41.3354 57.9881 41.3378 57.9903C41.4937 58.1324 41.6293 58.3001 41.7313 58.473L41.7931 58.5737C42.2813 59.4691 41.9375 60.5024 41.0369 61.1488C40.2187 61.7264 39.0775 61.88 38.0188 61.7741C37.015 61.6787 36.0938 61.1912 35.5644 60.5183C35.5296 60.4728 35.4958 60.4261 35.4635 60.3783C35.2393 60.0463 35.1044 59.6556 35.0625 59.2572C35.0497 59.0813 35.0584 58.9032 35.0878 58.7266C35.1777 58.1858 36.1528 58.5889 36.5406 58.9764C36.591 59.0222 36.6433 59.0683 36.7077 59.0906C36.782 59.1163 36.8624 59.1189 36.9394 59.0929C36.9964 59.0753 37.0471 59.0432 37.0811 59.0018C37.1339 58.9374 37.1086 58.8467 37.0769 58.7697C36.4719 57.5404 36.9806 56.1045 38.2662 55.2938C38.6911 55.0241 39.1621 55.5841 39.2903 56.0707C39.3834 56.4238 39.5995 56.7553 39.9369 57.0105C40.2531 57.2596 40.6312 57.4238 40.9612 57.657L41.3405 57.9754ZM39.7751 60.4412C39.7769 60.44 39.777 60.4374 39.7753 60.4361C39.7736 60.4348 39.7737 60.4323 39.7755 60.4311C40.0826 60.2241 40.2531 59.8706 40.2394 59.5539L40.2188 59.3844C40.0813 58.8545 39.4831 58.6796 39.0981 58.2928C38.943 58.1381 38.6691 58.146 38.665 58.365C38.6631 58.4665 38.6757 58.5703 38.6994 58.6796C38.7681 58.9817 38.9262 59.2413 38.8438 59.5539C38.6804 60.0652 38.565 60.7898 39.0944 60.701C39.1391 60.6935 39.1839 60.6839 39.2288 60.6719C39.406 60.6352 39.6306 60.5358 39.7751 60.4412ZM37.2826 62.8603C37.5753 62.8603 37.8125 63.0975 37.8125 63.3902C37.8125 63.6816 38.1219 63.92 38.5 63.92C38.8781 63.92 39.1875 63.6816 39.1875 63.3902C39.1875 63.0975 39.4247 62.8603 39.7174 62.8603H40.0326C40.3253 62.8603 40.5625 63.0975 40.5625 63.3902C40.5625 63.6816 40.8719 63.92 41.25 63.92C41.6281 63.92 41.9375 63.6816 41.9375 63.3902C41.9375 63.0975 42.1763 62.8608 42.4632 62.9181C43.1823 63.062 44 63.4577 44 63.92C44 64.5053 43.5255 64.9798 42.9403 64.9798H34.0597C33.4745 64.9798 33 64.5053 33 63.92C33 63.4582 33.8201 63.0629 34.5368 62.9187C34.8237 62.8609 35.0625 63.0975 35.0625 63.3902C35.0625 63.6816 35.3719 63.92 35.75 63.92C36.1281 63.92 36.4375 63.6816 36.4375 63.3902C36.4375 63.0975 36.6747 62.8603 36.9674 62.8603H37.2826Z" fill="#A6A6A6"/>
<path d="M52.3405 57.9754C52.3431 57.9775 52.3424 57.9817 52.3392 57.9829C52.3361 57.9841 52.3354 57.9881 52.3378 57.9903C52.4937 58.1324 52.6293 58.3001 52.7313 58.473L52.7931 58.5737C53.2813 59.4691 52.9375 60.5024 52.0369 61.1488C51.2187 61.7264 50.0775 61.88 49.0188 61.7741C48.015 61.6787 47.0938 61.1912 46.5644 60.5183C46.5296 60.4728 46.4958 60.4261 46.4635 60.3783C46.2393 60.0463 46.1044 59.6556 46.0625 59.2572C46.0497 59.0813 46.0584 58.9032 46.0878 58.7266C46.1777 58.1858 47.1528 58.5889 47.5406 58.9764C47.591 59.0222 47.6433 59.0683 47.7077 59.0906C47.782 59.1163 47.8624 59.1189 47.9394 59.0929C47.9964 59.0753 48.0471 59.0432 48.0811 59.0018C48.1339 58.9374 48.1086 58.8467 48.0769 58.7697C47.4719 57.5404 47.9806 56.1045 49.2662 55.2938C49.6911 55.0241 50.1621 55.5841 50.2903 56.0707C50.3834 56.4238 50.5995 56.7553 50.9369 57.0105C51.2531 57.2596 51.6312 57.4238 51.9612 57.657L52.3405 57.9754ZM50.7751 60.4412C50.7769 60.44 50.777 60.4374 50.7753 60.4361C50.7736 60.4348 50.7737 60.4323 50.7755 60.4311C51.0826 60.2241 51.2531 59.8706 51.2394 59.5539L51.2188 59.3844C51.0813 58.8545 50.4831 58.6796 50.0981 58.2928C49.943 58.1381 49.6691 58.146 49.665 58.365C49.6631 58.4665 49.6757 58.5703 49.6994 58.6796C49.7681 58.9817 49.9262 59.2413 49.8438 59.5539C49.6804 60.0652 49.565 60.7898 50.0944 60.701C50.1391 60.6935 50.1839 60.6839 50.2288 60.6719C50.406 60.6352 50.6306 60.5358 50.7751 60.4412ZM48.2826 62.8603C48.5753 62.8603 48.8125 63.0975 48.8125 63.3902C48.8125 63.6816 49.1219 63.92 49.5 63.92C49.8781 63.92 50.1875 63.6816 50.1875 63.3902C50.1875 63.0975 50.4247 62.8603 50.7174 62.8603H51.0326C51.3253 62.8603 51.5625 63.0975 51.5625 63.3902C51.5625 63.6816 51.8719 63.92 52.25 63.92C52.6281 63.92 52.9375 63.6816 52.9375 63.3902C52.9375 63.0975 53.1763 62.8608 53.4632 62.9181C54.1823 63.062 55 63.4577 55 63.92C55 64.5053 54.5255 64.9798 53.9403 64.9798H45.0597C44.4745 64.9798 44 64.5053 44 63.92C44 63.4582 44.8201 63.0629 45.5368 62.9187C45.8237 62.8609 46.0625 63.0975 46.0625 63.3902C46.0625 63.6816 46.3719 63.92 46.75 63.92C47.1281 63.92 47.4375 63.6816 47.4375 63.3902C47.4375 63.0975 47.6747 62.8603 47.9674 62.8603H48.2826Z" fill="#A6A6A6"/>
<path d="M63.3405 57.9754C63.3431 57.9775 63.3424 57.9817 63.3392 57.9829C63.3361 57.9841 63.3354 57.9881 63.3378 57.9903C63.4937 58.1324 63.6293 58.3001 63.7313 58.473L63.7931 58.5737C64.2813 59.4691 63.9375 60.5024 63.0369 61.1488C62.2187 61.7264 61.0775 61.88 60.0188 61.7741C59.015 61.6787 58.0938 61.1912 57.5644 60.5183C57.5296 60.4728 57.4958 60.4261 57.4635 60.3783C57.2393 60.0463 57.1044 59.6556 57.0625 59.2572C57.0497 59.0813 57.0584 58.9032 57.0878 58.7266C57.1777 58.1858 58.1528 58.5889 58.5406 58.9764C58.591 59.0222 58.6433 59.0683 58.7077 59.0906C58.782 59.1163 58.8624 59.1189 58.9394 59.0929C58.9964 59.0753 59.0471 59.0432 59.0811 59.0018C59.1339 58.9374 59.1086 58.8467 59.0769 58.7697C58.4719 57.5404 58.9806 56.1045 60.2662 55.2938C60.6911 55.0241 61.1621 55.5841 61.2903 56.0707C61.3834 56.4238 61.5995 56.7553 61.9369 57.0105C62.2531 57.2596 62.6312 57.4238 62.9612 57.657L63.3405 57.9754ZM61.7751 60.4412C61.7769 60.44 61.777 60.4374 61.7753 60.4361C61.7736 60.4348 61.7737 60.4323 61.7755 60.4311C62.0826 60.2241 62.2531 59.8706 62.2394 59.5539L62.2188 59.3844C62.0813 58.8545 61.4831 58.6796 61.0981 58.2928C60.943 58.1381 60.6691 58.146 60.665 58.365C60.6631 58.4665 60.6757 58.5703 60.6994 58.6796C60.7681 58.9817 60.9262 59.2413 60.8438 59.5539C60.6804 60.0652 60.565 60.7898 61.0944 60.701C61.1391 60.6935 61.1839 60.6839 61.2288 60.6719C61.406 60.6352 61.6306 60.5358 61.7751 60.4412ZM59.2826 62.8603C59.5753 62.8603 59.8125 63.0975 59.8125 63.3902C59.8125 63.6816 60.1219 63.92 60.5 63.92C60.8781 63.92 61.1875 63.6816 61.1875 63.3902C61.1875 63.0975 61.4247 62.8603 61.7174 62.8603H62.0326C62.3253 62.8603 62.5625 63.0975 62.5625 63.3902C62.5625 63.6816 62.8719 63.92 63.25 63.92C63.6281 63.92 63.9375 63.6816 63.9375 63.3902C63.9375 63.0975 64.1763 62.8608 64.4632 62.9181C65.1823 63.062 66 63.4577 66 63.92C66 64.5053 65.5255 64.9798 64.9403 64.9798H56.0597C55.4745 64.9798 55 64.5053 55 63.92C55 63.4582 55.8201 63.0629 56.5368 62.9187C56.8237 62.8609 57.0625 63.0975 57.0625 63.3902C57.0625 63.6816 57.3719 63.92 57.75 63.92C58.1281 63.92 58.4375 63.6816 58.4375 63.3902C58.4375 63.0975 58.6747 62.8603 58.9674 62.8603H59.2826Z" fill="#A6A6A6"/>
<path d="M29.9863 72.912H31.5943V84.024H29.9863V72.912ZM31.1863 77.172H33.1423V78.48H31.1863V77.172ZM27.0703 74.064H28.6423C28.6423 75.176 28.4823 76.228 28.1623 77.22C27.8503 78.212 27.3303 79.124 26.6023 79.956C25.8823 80.78 24.9063 81.5 23.6743 82.116L22.7743 80.904C23.7503 80.4 24.5543 79.832 25.1863 79.2C25.8263 78.568 26.2983 77.852 26.6023 77.052C26.9143 76.244 27.0703 75.344 27.0703 74.352V74.064ZM23.3863 74.064H27.8983V75.348H23.3863V74.064ZM38.0614 73.572H39.4414V74.376C39.4414 74.856 39.3734 75.324 39.2374 75.78C39.1094 76.228 38.9174 76.652 38.6614 77.052C38.4054 77.452 38.0894 77.816 37.7134 78.144C37.3454 78.464 36.9214 78.74 36.4414 78.972C35.9614 79.204 35.4334 79.376 34.8574 79.488L34.1734 78.156C34.6694 78.068 35.1214 77.936 35.5294 77.76C35.9454 77.576 36.3094 77.356 36.6214 77.1C36.9334 76.844 37.1974 76.568 37.4134 76.272C37.6294 75.968 37.7894 75.656 37.8934 75.336C38.0054 75.008 38.0614 74.688 38.0614 74.376V73.572ZM38.3734 73.572H39.7654V74.376C39.7654 74.696 39.8174 75.02 39.9214 75.348C40.0334 75.676 40.1934 75.992 40.4014 76.296C40.6174 76.592 40.8814 76.864 41.1934 77.112C41.5054 77.36 41.8654 77.576 42.2734 77.76C42.6814 77.936 43.1414 78.068 43.6534 78.156L42.9694 79.488C42.3934 79.376 41.8654 79.204 41.3854 78.972C40.9054 78.74 40.4774 78.464 40.1014 78.144C39.7334 77.824 39.4174 77.464 39.1534 77.064C38.8974 76.664 38.7014 76.236 38.5654 75.78C38.4374 75.324 38.3734 74.856 38.3734 74.376V73.572ZM33.9334 81.384H44.0014V82.692H33.9334V81.384ZM45.2725 80.148H46.0645C46.7365 80.148 47.3805 80.132 47.9965 80.1C48.6205 80.06 49.2765 79.984 49.9645 79.872L50.0965 81.156C49.3925 81.284 48.7165 81.364 48.0685 81.396C47.4285 81.428 46.7605 81.444 46.0645 81.444H45.2725V80.148ZM45.2485 74.028H49.1845V78.276H46.8205V80.64H45.2725V77.016H47.6485V75.288H45.2485V74.028ZM52.9885 72.924H54.5125V84.036H52.9885V72.924ZM49.6405 76.704H51.3565V78.012H49.6405V76.704ZM50.7325 73.128H52.2085V83.508H50.7325V73.128ZM63.6435 72.936H65.2395V80.916H63.6435V72.936ZM57.8355 82.572H65.5275V83.856H57.8355V82.572ZM57.8355 80.124H59.4315V83.1H57.8355V80.124ZM59.1915 73.644C59.7595 73.644 60.2715 73.764 60.7275 74.004C61.1835 74.244 61.5435 74.576 61.8075 75C62.0795 75.424 62.2155 75.912 62.2155 76.464C62.2155 77 62.0795 77.484 61.8075 77.916C61.5435 78.34 61.1835 78.676 60.7275 78.924C60.2715 79.164 59.7595 79.284 59.1915 79.284C58.6235 79.284 58.1115 79.164 57.6555 78.924C57.1995 78.676 56.8355 78.34 56.5635 77.916C56.2995 77.484 56.1675 77 56.1675 76.464C56.1675 75.912 56.2995 75.424 56.5635 75C56.8355 74.576 57.1995 74.244 57.6555 74.004C58.1115 73.764 58.6235 73.644 59.1915 73.644ZM59.1915 75.012C58.9195 75.012 58.6715 75.072 58.4475 75.192C58.2235 75.304 58.0475 75.468 57.9195 75.684C57.7915 75.892 57.7275 76.152 57.7275 76.464C57.7275 76.76 57.7915 77.016 57.9195 77.232C58.0475 77.44 58.2235 77.604 58.4475 77.724C58.6715 77.836 58.9195 77.892 59.1915 77.892C59.4635 77.892 59.7115 77.836 59.9355 77.724C60.1595 77.604 60.3355 77.44 60.4635 77.232C60.5915 77.016 60.6555 76.76 60.6555 76.464C60.6555 76.152 60.5915 75.892 60.4635 75.684C60.3355 75.468 60.1595 75.304 59.9355 75.192C59.7115 75.072 59.4635 75.012 59.1915 75.012ZM69.7266 74.688H70.9986V75.936C70.9986 76.576 70.9306 77.204 70.7946 77.82C70.6666 78.436 70.4706 79.016 70.2066 79.56C69.9506 80.096 69.6266 80.572 69.2346 80.988C68.8426 81.396 68.3866 81.72 67.8666 81.96L66.9546 80.7C67.4186 80.484 67.8226 80.204 68.1666 79.86C68.5186 79.516 68.8066 79.132 69.0306 78.708C69.2626 78.276 69.4346 77.824 69.5466 77.352C69.6666 76.872 69.7266 76.4 69.7266 75.936V74.688ZM70.0746 74.688H71.3346V75.936C71.3346 76.376 71.3906 76.824 71.5026 77.28C71.6226 77.728 71.7946 78.156 72.0186 78.564C72.2426 78.964 72.5266 79.324 72.8706 79.644C73.2146 79.964 73.6226 80.22 74.0946 80.412L73.2186 81.684C72.6906 81.452 72.2306 81.14 71.8386 80.748C71.4466 80.356 71.1186 79.904 70.8546 79.392C70.5906 78.88 70.3946 78.332 70.2666 77.748C70.1386 77.156 70.0746 76.552 70.0746 75.936V74.688ZM67.3986 73.992H73.6386V75.312H67.3986V73.992ZM74.6706 72.936H76.2666V84.048H74.6706V72.936Z" fill="#A6A6A6"/>
</svg>
