<svg width="80" height="80" viewBox="0 0 80 80" fill="none" xmlns="http://www.w3.org/2000/svg">
<rect x="0.5" y="0.5" width="79" height="79" rx="39.5" fill="#F1F1F1"/>
<rect x="0.5" y="0.5" width="79" height="79" rx="39.5" stroke="#A6A6A6"/>
<path d="M25.4615 26.9183C25.4633 26.9183 25.4649 26.9176 25.4662 26.9164C29.2401 23.0755 34.3589 20.7143 40.0027 20.7143C45.6475 20.7143 50.7671 23.0763 54.5412 26.9183C55.2413 27.6263 56.3462 27.6031 57.0135 26.8661C57.6808 26.129 57.659 24.9509 56.9643 24.2429C52.5667 19.7567 46.5883 17 40.0027 17C33.4172 17 27.4388 19.7567 23.0357 24.2371C22.341 24.9509 22.3192 26.1232 22.9865 26.8661C23.6532 27.6082 24.7621 27.6321 25.4568 26.9203C25.4581 26.919 25.4598 26.9183 25.4615 26.9183V26.9183ZM40.0027 30C43.1095 30 45.9428 31.2246 48.1088 33.25C48.8363 33.929 49.9412 33.8536 50.5812 33.0875C51.2211 32.3214 51.15 31.1433 50.428 30.4643C47.6494 27.8643 43.9956 26.2857 40.0027 26.2857C36.0098 26.2857 32.3561 27.8643 29.5829 30.4643C28.8555 31.1433 28.7898 32.3156 29.4298 33.0875C30.0697 33.8594 31.1746 33.929 31.9021 33.25C34.0626 31.2246 36.8959 30 40.0082 30H40.0027ZM43.5034 39.2857C43.5034 38.3006 43.1345 37.3559 42.478 36.6593C41.8216 35.9628 40.9312 35.5714 40.0027 35.5714C39.0743 35.5714 38.1839 35.9628 37.5274 36.6593C36.8709 37.3559 36.5021 38.3006 36.5021 39.2857C36.5021 40.2708 36.8709 41.2155 37.5274 41.9121C38.1839 42.6087 39.0743 43 40.0027 43C40.9312 43 41.8216 42.6087 42.478 41.9121C43.1345 41.2155 43.5034 40.2708 43.5034 39.2857Z" fill="#A6A6A6"/>
<path d="M30.612 51.968H32.22V59.948H30.612V51.968ZM24.816 61.604H32.496V62.876H24.816V61.604ZM24.816 59.144H26.412V62.12H24.816V59.144ZM26.172 52.664C27.876 52.664 29.184 53.84 29.184 55.484C29.184 57.116 27.876 58.304 26.172 58.304C24.468 58.304 23.148 57.116 23.148 55.484C23.148 53.84 24.468 52.664 26.172 52.664ZM26.172 54.044C25.344 54.044 24.708 54.572 24.708 55.484C24.708 56.384 25.344 56.912 26.172 56.912C26.988 56.912 27.624 56.384 27.624 55.484C27.624 54.572 26.988 54.044 26.172 54.044ZM41.7591 51.944H43.3431V63.092H41.7591V51.944ZM39.8511 55.856H41.9391V57.152H39.8511V55.856ZM34.5231 59.288H35.4111C37.2471 59.288 38.6151 59.264 40.1871 59.012L40.3311 60.284C38.7231 60.536 37.2831 60.584 35.4111 60.584H34.5231V59.288ZM34.5231 52.88H39.6711V54.176H36.1071V59.696H34.5231V52.88ZM35.7471 55.976H39.2871V57.224H35.7471V55.976ZM48.8861 54.308H51.4901V55.568H48.8861V54.308ZM45.5741 52.928H47.1581V57.5H45.5741V52.928ZM45.5741 56.984H46.3301C47.6021 56.984 48.7541 56.912 50.0021 56.624L50.1581 57.896C48.8501 58.208 47.6741 58.28 46.3301 58.28H45.5741V56.984ZM53.0981 51.956H54.6101V59.444H53.0981V51.956ZM50.8301 52.148H52.3181V58.46H50.8301V52.148ZM49.9421 58.904H51.2981V59.204C51.2981 61.112 49.7621 62.648 46.9781 63.032L46.4021 61.796C48.8141 61.508 49.9421 60.32 49.9421 59.204V58.904ZM50.1701 58.904H51.5261V59.204C51.5261 60.32 52.6541 61.508 55.0661 61.796L54.4901 63.032C51.7181 62.648 50.1701 61.112 50.1701 59.204V58.904Z" fill="#7C7C7C"/>
</svg>
