<svg width="100" height="100" viewBox="0 0 100 100" fill="none" xmlns="http://www.w3.org/2000/svg">
<rect x="1" y="1" width="98" height="98" rx="49" fill="white"/>
<rect x="1" y="1" width="98" height="98" rx="49" stroke="#A6A6A6" stroke-width="2"/>
<path d="M33.3846 36.3966C33.3866 36.3966 33.3885 36.3958 33.3899 36.3943C37.7029 31.9035 43.5531 29.1427 50.0031 29.1427C56.4543 29.1427 62.3053 31.9044 66.6185 36.3966C67.4187 37.2244 68.6814 37.1973 69.444 36.3355C70.2067 35.4737 70.1817 34.0962 69.3878 33.2684C64.3619 28.023 57.5294 24.7998 50.0031 24.7998C42.4768 24.7998 35.6444 28.023 30.6122 33.2616C29.8183 34.0962 29.7933 35.4669 30.556 36.3355C31.3179 37.2033 32.5852 37.2312 33.3793 36.3989C33.3807 36.3974 33.3826 36.3966 33.3846 36.3966V36.3966ZM50.0031 39.9998C53.5538 39.9998 56.7918 41.4316 59.2673 43.7998C60.0987 44.5937 61.3614 44.5055 62.0927 43.6098C62.8241 42.7141 62.7429 41.3366 61.9177 40.5427C58.7422 37.5027 54.5664 35.6569 50.0031 35.6569C45.4398 35.6569 41.2641 37.5027 38.0948 40.5427C37.2634 41.3366 37.1884 42.7073 37.9198 43.6098C38.6511 44.5123 39.9139 44.5937 40.7453 43.7998C43.2144 41.4316 46.4525 39.9998 50.0094 39.9998H50.0031ZM54.0038 50.8569C54.0038 49.7051 53.5823 48.6005 52.832 47.7861C52.0818 46.9716 51.0642 46.5141 50.0031 46.5141C48.9421 46.5141 47.9245 46.9716 47.1742 47.7861C46.4239 48.6005 46.0024 49.7051 46.0024 50.8569C46.0024 52.0087 46.4239 53.1134 47.1742 53.9278C47.9245 54.7423 48.9421 55.1998 50.0031 55.1998C51.0642 55.1998 52.0818 54.7423 52.832 53.9278C53.5823 53.1134 54.0038 52.0087 54.0038 50.8569Z" fill="#A6A6A6"/>
<path d="M40.624 64.1562H42.22V72.1362H40.624V64.1562ZM34.816 73.7922H42.508V75.0762H34.816V73.7922ZM34.816 71.3442H36.412V74.3202H34.816V71.3442ZM36.172 64.8642C36.74 64.8642 37.252 64.9842 37.708 65.2242C38.164 65.4642 38.524 65.7962 38.788 66.2202C39.06 66.6442 39.196 67.1322 39.196 67.6842C39.196 68.2202 39.06 68.7042 38.788 69.1362C38.524 69.5602 38.164 69.8962 37.708 70.1442C37.252 70.3842 36.74 70.5042 36.172 70.5042C35.604 70.5042 35.092 70.3842 34.636 70.1442C34.18 69.8962 33.816 69.5602 33.544 69.1362C33.28 68.7042 33.148 68.2202 33.148 67.6842C33.148 67.1322 33.28 66.6442 33.544 66.2202C33.816 65.7962 34.18 65.4642 34.636 65.2242C35.092 64.9842 35.604 64.8642 36.172 64.8642ZM36.172 66.2322C35.9 66.2322 35.652 66.2922 35.428 66.4122C35.204 66.5242 35.028 66.6882 34.9 66.9042C34.772 67.1122 34.708 67.3722 34.708 67.6842C34.708 67.9802 34.772 68.2362 34.9 68.4522C35.028 68.6602 35.204 68.8242 35.428 68.9442C35.652 69.0562 35.9 69.1122 36.172 69.1122C36.444 69.1122 36.692 69.0562 36.916 68.9442C37.14 68.8242 37.316 68.6602 37.444 68.4522C37.572 68.2362 37.636 67.9802 37.636 67.6842C37.636 67.3722 37.572 67.1122 37.444 66.9042C37.316 66.6882 37.14 66.5242 36.916 66.4122C36.692 66.2922 36.444 66.2322 36.172 66.2322ZM51.7591 64.1322H53.3551V75.2802H51.7591V64.1322ZM49.8511 68.0562H51.9511V69.3522H49.8511V68.0562ZM44.5231 71.4882H45.4231C46.0391 71.4882 46.6071 71.4802 47.1271 71.4642C47.6551 71.4482 48.1671 71.4202 48.6631 71.3802C49.1591 71.3402 49.6671 71.2842 50.1871 71.2122L50.3431 72.4722C49.8071 72.5602 49.2791 72.6242 48.7591 72.6642C48.2471 72.7042 47.7191 72.7322 47.1751 72.7482C46.6311 72.7642 46.0471 72.7722 45.4231 72.7722H44.5231V71.4882ZM44.5231 65.0682H49.6711V66.3642H46.1191V71.8842H44.5231V65.0682ZM45.7471 68.1642H49.2991V69.4122H45.7471V68.1642ZM58.8861 66.4962H61.4901V67.7682H58.8861V66.4962ZM55.5861 65.1282H57.1581V69.7002H55.5861V65.1282ZM55.5861 69.1842H56.3421C56.9741 69.1842 57.5861 69.1602 58.1781 69.1122C58.7781 69.0562 59.3861 68.9562 60.0021 68.8122L60.1581 70.0842C59.5101 70.2442 58.8781 70.3482 58.2621 70.3962C57.6461 70.4442 57.0061 70.4682 56.3421 70.4682H55.5861V69.1842ZM63.1101 64.1442H64.6221V71.6442H63.1101V64.1442ZM60.8301 64.3362H62.3181V70.6482H60.8301V64.3362ZM59.9541 71.1042H61.3101V71.3922C61.3101 71.8722 61.2141 72.3242 61.0221 72.7482C60.8381 73.1642 60.5621 73.5442 60.1941 73.8882C59.8261 74.2242 59.3701 74.5082 58.8261 74.7402C58.2901 74.9722 57.6781 75.1362 56.9901 75.2322L56.4021 73.9962C56.8821 73.9322 57.3141 73.8402 57.6981 73.7202C58.0821 73.5922 58.4141 73.4442 58.6941 73.2762C58.9821 73.1082 59.2181 72.9202 59.4021 72.7122C59.5861 72.5042 59.7221 72.2882 59.8101 72.0642C59.9061 71.8402 59.9541 71.6162 59.9541 71.3922V71.1042ZM60.1701 71.1042H61.5381V71.3922C61.5381 71.6162 61.5821 71.8402 61.6701 72.0642C61.7581 72.2882 61.8941 72.5042 62.0781 72.7122C62.2701 72.9202 62.5061 73.1082 62.7861 73.2762C63.0661 73.4442 63.3941 73.5922 63.7701 73.7202C64.1541 73.8402 64.5861 73.9322 65.0661 73.9962L64.5021 75.2322C63.8061 75.1362 63.1861 74.9722 62.6421 74.7402C62.1061 74.5082 61.6541 74.2242 61.2861 73.8882C60.9261 73.5442 60.6501 73.1642 60.4581 72.7482C60.2661 72.3242 60.1701 71.8722 60.1701 71.3922V71.1042Z" fill="#A6A6A6"/>
</svg>
