<svg width="100" height="100" viewBox="0 0 100 100" fill="none" xmlns="http://www.w3.org/2000/svg">
<rect x="1" y="1" width="98" height="98" rx="49" fill="#FEF7D4"/>
<rect x="1" y="1" width="98" height="98" rx="49" stroke="#FFC107" stroke-width="2"/>
<path d="M33.3846 36.3966C33.3866 36.3966 33.3885 36.3958 33.3899 36.3943C37.7029 31.9035 43.5531 29.1427 50.0031 29.1427C56.4543 29.1427 62.3053 31.9044 66.6185 36.3966C67.4187 37.2244 68.6814 37.1973 69.444 36.3355C70.2067 35.4737 70.1817 34.0962 69.3878 33.2684C64.3619 28.023 57.5294 24.7998 50.0031 24.7998C42.4768 24.7998 35.6444 28.023 30.6122 33.2616C29.8183 34.0962 29.7933 35.4669 30.556 36.3355C31.3179 37.2033 32.5852 37.2312 33.3793 36.3989C33.3807 36.3974 33.3826 36.3966 33.3846 36.3966ZM50.0031 39.9998C53.5538 39.9998 56.7918 41.4316 59.2673 43.7998C60.0986 44.5937 61.3614 44.5055 62.0928 43.6098C62.8241 42.7141 62.7429 41.3366 61.9177 40.5427C58.7422 37.5027 54.5664 35.6569 50.0031 35.6569C45.4398 35.6569 41.2641 37.5027 38.0948 40.5427C37.2634 41.3366 37.1884 42.7073 37.9198 43.6098C38.6511 44.5123 39.9139 44.5937 40.7453 43.7998C43.2144 41.4316 46.4525 39.9998 50.0094 39.9998H50.0031ZM54.0038 50.8569C54.0038 49.7051 53.5823 48.6005 52.8321 47.7861C52.0818 46.9716 51.0642 46.5141 50.0031 46.5141C48.9421 46.5141 47.9245 46.9716 47.1742 47.7861C46.4239 48.6005 46.0024 49.7051 46.0024 50.8569C46.0024 52.0087 46.4239 53.1134 47.1742 53.9278C47.9245 54.7423 48.9421 55.1998 50.0031 55.1998C51.0642 55.1998 52.0818 54.7423 52.8321 53.9278C53.5823 53.1134 54.0038 52.0087 54.0038 50.8569Z" fill="#FFC107"/>
<path d="M40.612 64.1682H42.22V72.1482H40.612V64.1682ZM34.816 73.8042H42.496V75.0762H34.816V73.8042ZM34.816 71.3442H36.412V74.3202H34.816V71.3442ZM36.172 64.8642C37.876 64.8642 39.184 66.0402 39.184 67.6842C39.184 69.3162 37.876 70.5042 36.172 70.5042C34.468 70.5042 33.148 69.3162 33.148 67.6842C33.148 66.0402 34.468 64.8642 36.172 64.8642ZM36.172 66.2442C35.344 66.2442 34.708 66.7722 34.708 67.6842C34.708 68.5842 35.344 69.1122 36.172 69.1122C36.988 69.1122 37.624 68.5842 37.624 67.6842C37.624 66.7722 36.988 66.2442 36.172 66.2442ZM51.7591 64.1442H53.3431V75.2922H51.7591V64.1442ZM49.8511 68.0562H51.9391V69.3522H49.8511V68.0562ZM44.5231 71.4882H45.4111C47.2471 71.4882 48.6151 71.4642 50.1871 71.2122L50.3311 72.4842C48.7231 72.7362 47.2831 72.7842 45.4111 72.7842H44.5231V71.4882ZM44.5231 65.0802H49.6711V66.3762H46.1071V71.8962H44.5231V65.0802ZM45.7471 68.1762H49.2871V69.4242H45.7471V68.1762ZM58.8861 66.5082H61.4901V67.7682H58.8861V66.5082ZM55.5741 65.1282H57.1581V69.7002H55.5741V65.1282ZM55.5741 69.1842H56.3301C57.6021 69.1842 58.7541 69.1122 60.0021 68.8242L60.1581 70.0962C58.8501 70.4082 57.6741 70.4802 56.3301 70.4802H55.5741V69.1842ZM63.0981 64.1562H64.6101V71.6442H63.0981V64.1562ZM60.8301 64.3482H62.3181V70.6602H60.8301V64.3482ZM59.9421 71.1042H61.2981V71.4042C61.2981 73.3122 59.7621 74.8482 56.9781 75.2322L56.4021 73.9962C58.8141 73.7082 59.9421 72.5202 59.9421 71.4042V71.1042ZM60.1701 71.1042H61.5261V71.4042C61.5261 72.5202 62.6541 73.7082 65.0661 73.9962L64.4901 75.2322C61.7181 74.8482 60.1701 73.3122 60.1701 71.4042V71.1042Z" fill="#FFC107"/>
</svg>
