<svg width="100" height="100" viewBox="0 0 100 100" fill="none" xmlns="http://www.w3.org/2000/svg">
<rect x="0.5" y="0.5" width="99" height="99" rx="49.5" fill="#FEF7D4"/>
<rect x="0.5" y="0.5" width="99" height="99" rx="49.5" stroke="#E7B00B"/>
<path d="M50 99C22.938 99 1 77.062 1 50C1 22.938 22.938 1 50 1C77.062 1 99 22.938 99 50C99 77.062 77.062 99 50 99Z" fill="#FEF7D4" stroke="#E7B00B" stroke-width="2"/>
<path d="M29.525 21.5222C28.895 21.6009 27.8 22.576 27.8 23.0479C27.8 23.2523 27.74 23.4725 27.65 23.5197C27.545 23.5826 27.5 28.5841 27.5 38.0367C27.5 49.5182 27.545 52.5852 27.695 53.057C28.07 54.158 28.925 54.7714 30.125 54.8029C30.38 54.8186 30.44 54.9601 30.5 55.605C30.59 56.4858 30.965 57.1935 31.445 57.3508C31.955 57.5238 34.115 57.5553 34.715 57.398C35.405 57.225 35.795 56.6273 35.9 55.6364L35.975 54.8815H49.85H63.725L63.77 55.6364C63.8 56.1869 63.935 56.5329 64.235 56.9261C64.655 57.4609 64.655 57.4609 66.065 57.4924C68.465 57.5553 69.05 57.2093 69.2 55.605C69.26 54.9601 69.32 54.8186 69.575 54.8029C70.73 54.7714 71.75 54.0636 71.96 53.1357C72.005 52.884 72.155 52.6953 72.275 52.6953C72.47 52.6953 72.5 50.9023 72.5 38.2255C72.5 25.6745 72.47 23.7556 72.275 23.7556C72.155 23.7556 72.02 23.5354 71.96 23.2051C71.9 22.8119 71.675 22.4817 71.225 22.0884L70.58 21.538L50.285 21.5065C39.11 21.4908 29.78 21.5065 29.525 21.5222ZM61.58 23.0479C61.61 23.1265 61.595 30.0154 61.55 38.3513L61.475 53.4974L45.68 53.4817C29.525 53.4817 29.615 53.4817 28.97 52.884C28.715 52.6638 28.7 51.7673 28.7 38.2726C28.7 23.9444 28.7 23.8815 29.015 23.4725C29.195 23.2209 29.525 23.0164 29.795 22.9692C30.755 22.8119 61.55 22.8906 61.58 23.0479ZM70.655 23.4096L70.985 23.8343V38.1468C70.985 51.5786 70.97 52.4751 70.73 52.7897C70.235 53.4031 69.95 53.4502 66.425 53.4974L62.975 53.5289L62.93 38.367C62.915 30.0311 62.93 23.1265 62.96 23.0479C62.99 22.9378 64.295 22.9063 66.665 22.9378L70.325 22.9849L70.655 23.4096ZM34.55 55.1489C34.655 55.4163 34.655 55.6522 34.535 55.8566C34.4 56.1397 34.25 56.1555 33.155 56.124C31.925 56.0768 31.925 56.0768 31.88 55.6364C31.79 54.8029 31.895 54.7399 33.2 54.7399C34.355 54.7399 34.415 54.7557 34.55 55.1489ZM67.775 55.4477V56.0768H66.515C65.39 56.0768 65.24 56.0454 65.15 55.7623C65.09 55.5893 65.09 55.2904 65.165 55.086C65.285 54.7399 65.36 54.7242 66.53 54.7714L67.775 54.8186V55.4477Z" fill="#E7B00B"/>
<path d="M31.4899 25.1553C30.6349 25.753 30.6499 25.4384 30.6499 38.2096C30.6499 50.6034 30.6349 50.4618 31.3399 51.0123C31.6549 51.2482 32.7349 51.2797 45.2149 51.2797L58.7449 51.2954L59.2549 50.7764L59.7499 50.2731V38.1625C59.7349 24.7779 59.8099 25.8002 58.8199 25.1239C58.4449 24.8722 57.5299 24.8565 45.1699 24.8565C32.3749 24.8565 31.9099 24.8722 31.4899 25.1553ZM58.3249 36.3066V46.2624L55.3549 46.2939C52.4299 46.3253 52.3999 46.3253 52.3999 45.995C52.3999 45.8063 52.5049 45.5547 52.6399 45.4446C52.7749 45.3345 52.9399 45.0985 53.0149 44.9098C53.1799 44.5638 53.3299 44.2807 53.9449 43.3055C54.4999 42.3933 54.4699 41.7642 53.8399 40.9778L53.3299 40.3487H45.2599C37.4149 40.3487 37.1599 40.3644 36.7699 40.6632C36.5449 40.852 36.2899 41.2609 36.1849 41.6384C35.9749 42.4248 36.1399 42.9753 36.8299 43.9032C37.0549 44.2178 37.2499 44.5323 37.2499 44.5952C37.2499 44.6582 37.4599 44.9727 37.6999 45.303C37.9549 45.6333 38.1499 46.0108 38.1499 46.1681C38.1499 46.3882 38.0449 46.4197 37.3399 46.3253C36.3199 46.1838 35.8999 46.404 35.8999 47.0331C35.8999 47.3791 35.9749 47.5207 36.2449 47.5836C36.4249 47.6308 41.4949 47.6465 47.4949 47.6308L58.4149 47.5836L58.3699 48.7317L58.3249 49.8799H45.2299C38.0299 49.8799 32.0749 49.8327 32.0149 49.8012C31.8049 49.6597 31.9249 47.8038 32.1499 47.6622C32.2699 47.5836 32.6749 47.5679 33.0799 47.615C34.1149 47.7409 34.5649 47.2376 34.0549 46.4826C33.8899 46.2467 33.6649 46.1995 32.9299 46.231C32.2549 46.2467 31.9999 46.1995 31.9999 46.058C31.9549 43.3527 32.0299 26.508 32.0899 26.4136C32.1349 26.3349 37.8949 26.2878 45.2449 26.3035L58.3249 26.3507V36.3066ZM52.7449 41.7485C53.0299 41.8271 53.0899 42.3933 52.8349 42.5506C52.7599 42.6135 52.6099 42.818 52.5349 42.991C52.4599 43.1797 52.2649 43.5415 52.0999 43.8088C51.9349 44.0605 51.7399 44.4222 51.6499 44.5952C51.3199 45.2558 50.8699 46.0108 50.7049 46.1681C50.5849 46.2624 48.6049 46.2939 45.0649 46.2467L39.6049 46.1681L39.1849 45.3817C38.9449 44.9413 38.6899 44.4537 38.5999 44.2807C38.5099 44.1077 38.3149 43.7459 38.1499 43.4943C37.4149 42.3147 37.3549 42.1417 37.6099 41.8743C37.8049 41.6384 38.4949 41.6069 45.1549 41.6384C49.1749 41.6541 52.5949 41.7013 52.7449 41.7485Z" fill="#E7B00B"/>
<path d="M42.2145 32.0915C41.3595 32.9565 41.3595 34.4035 42.2145 35.3157C42.4545 35.5831 42.6495 35.8977 42.6495 36.0077C42.6495 36.1021 42.4395 36.4796 42.1695 36.8256C41.7195 37.4233 41.7045 37.439 41.9745 37.7536C42.4995 38.367 43.1445 38.0996 43.7445 37.0143C44.1345 36.2751 44.0745 35.5674 43.5495 34.8911C42.9345 34.1046 42.8295 33.4755 43.2345 33.0509C43.6245 32.6419 43.6395 31.9971 43.2645 31.7769C42.8295 31.541 42.7095 31.5724 42.2145 32.0915Z" fill="#E7B00B"/>
<path d="M46.4751 31.7615C46.1601 31.903 45.3501 33.2871 45.3501 33.696C45.3501 34.0106 45.8451 34.97 46.2201 35.3946C46.6551 35.8822 46.6401 36.1968 46.1751 36.6529C45.7551 37.0618 45.7101 37.3764 46.0101 37.7853C46.4901 38.4616 47.3451 37.9426 47.7951 36.7001C48.0351 36.0709 48.0351 35.9923 47.7951 35.4418C47.6451 35.1115 47.3451 34.6082 47.1201 34.3251C46.6701 33.7589 46.7001 33.5387 47.2851 32.9725C47.6751 32.6108 47.6901 32.2176 47.3301 31.8873C47.0301 31.5884 46.9251 31.5727 46.4751 31.7615Z" fill="#E7B00B"/>
<path d="M64.7755 25.4069L64.2505 25.9731V27.5145C64.2505 28.8514 64.2955 29.0873 64.5505 29.339C64.7905 29.5749 64.9105 29.5906 65.2255 29.449C65.5705 29.276 65.5855 29.1974 65.6305 27.8133L65.6755 26.3506L66.9955 26.3034L68.3005 26.2562L68.3305 30.2826C68.3305 32.4846 68.3455 34.3877 68.3605 34.482C68.3755 34.6236 67.9855 34.7022 66.9955 34.7337L65.6005 34.7809V33.1294C65.6005 31.6038 65.5705 31.4622 65.2855 31.2892C65.0455 31.1634 64.8805 31.1634 64.6105 31.3207C64.2655 31.5094 64.2505 31.5723 64.2505 33.3811C64.2505 35.2527 64.2505 35.2684 64.6855 35.7245C65.1205 36.1807 65.1355 36.1807 66.9805 36.1807C68.8255 36.1807 68.8555 36.1807 69.2455 35.7403L69.6505 35.2999V30.5657V25.8316L69.1255 25.344C68.6005 24.8564 68.5705 24.8564 66.9505 24.8564H65.3155L64.7755 25.4069Z" fill="#E7B00B"/>
<path d="M64.5205 38.0837C64.3705 38.1623 64.2505 38.3825 64.2505 38.5712C64.2505 39.2003 64.6405 39.3104 66.9205 39.3262C68.1205 39.3262 69.2005 39.2475 69.3655 39.1689C69.7255 38.9644 69.7555 38.1466 69.4105 38.005C69.0205 37.8477 64.7905 37.9106 64.5205 38.0837Z" fill="#E7B00B"/>
<path d="M64.5202 40.4433C64.1602 40.6635 64.1752 41.3241 64.5502 41.5285C64.9852 41.7802 69.1402 41.7802 69.4252 41.5285C69.7252 41.2612 69.7102 40.4905 69.4102 40.3647C69.0202 40.2074 64.7902 40.2703 64.5202 40.4433Z" fill="#E7B00B"/>
<path d="M65.9752 45.8849C65.4052 46.1995 64.7002 46.8758 64.7002 47.1274C64.7002 47.2218 64.5952 47.3948 64.4752 47.5049C64.1452 47.788 64.1902 48.9676 64.5502 49.6754C64.9102 50.3832 65.2252 50.8078 65.3752 50.8078C65.4502 50.8078 65.6152 50.9179 65.7652 51.0595C66.1552 51.4369 67.6552 51.4212 68.2252 51.028C68.7802 50.6505 69.0502 50.3674 69.3952 49.8327C69.7252 49.2822 69.7552 47.6307 69.4252 47.3476C69.3052 47.2375 69.2002 47.0645 69.2002 46.9702C69.2002 46.7342 68.6602 46.2467 68.0002 45.9007C67.3702 45.5546 66.5752 45.5546 65.9752 45.8849ZM67.8352 47.442C68.4502 47.9768 68.4952 48.9834 67.9402 49.5496C67.0702 50.3989 65.6152 49.7855 65.6002 48.5902C65.6002 48.1183 65.7052 47.9138 66.1252 47.5206C66.7702 46.923 67.2352 46.9072 67.8352 47.442Z" fill="#E7B00B"/>
<path d="M28.432 70.324H31.024V71.608H28.432V70.324ZM30.184 67.468H31.78V75.568H30.184V67.468ZM24.448 77.104H32.032V78.376H24.448V77.104ZM24.448 74.884H26.044V77.86H24.448V74.884ZM25.048 68.92H26.344V69.616C26.344 71.704 25.36 73.636 23.224 74.344L22.42 73.072C24.256 72.472 25.048 71.02 25.048 69.616V68.92ZM25.384 68.92H26.668V69.616C26.668 70.912 27.424 72.292 29.176 72.88L28.396 74.128C26.332 73.444 25.384 71.596 25.384 69.616V68.92ZM22.852 68.212H28.828V69.472H22.852V68.212ZM36.0151 69.208H37.2751V70.456C37.2751 72.964 36.2191 75.52 34.1791 76.48L33.2791 75.22C35.1151 74.356 36.0151 72.28 36.0151 70.456V69.208ZM36.3511 69.208H37.6111V70.456C37.6111 72.136 38.4751 74.104 40.2991 74.944L39.4231 76.204C37.3831 75.256 36.3511 72.82 36.3511 70.456V69.208ZM33.7111 68.524H39.8071V69.832H33.7111V68.524ZM40.6231 67.456H42.2311V78.568H40.6231V67.456ZM41.8711 71.692H43.8391V73.012H41.8711V71.692ZM44.8581 74.668H45.6501C46.9941 74.668 48.1821 74.632 49.5621 74.392L49.6941 75.676C48.2661 75.94 47.0421 75.976 45.6501 75.976H44.8581V74.668ZM44.8461 68.548H48.7701V72.796H46.4061V75.172H44.8581V71.548H47.2341V69.808H44.8461V68.548ZM52.5861 67.456H54.0981V78.568H52.5861V67.456ZM49.2261 71.236H50.9541V72.544H49.2261V71.236ZM50.3301 67.66H51.8061V78.04H50.3301V67.66ZM63.2292 67.468H64.8372V75.448H63.2292V67.468ZM57.4332 77.104H65.1132V78.376H57.4332V77.104ZM57.4332 74.644H59.0292V77.62H57.4332V74.644ZM58.7892 68.164C60.4932 68.164 61.8012 69.34 61.8012 70.984C61.8012 72.616 60.4932 73.804 58.7892 73.804C57.0852 73.804 55.7652 72.616 55.7652 70.984C55.7652 69.34 57.0852 68.164 58.7892 68.164ZM58.7892 69.544C57.9612 69.544 57.3252 70.072 57.3252 70.984C57.3252 71.884 57.9612 72.412 58.7892 72.412C59.6052 72.412 60.2412 71.884 60.2412 70.984C60.2412 70.072 59.6052 69.544 58.7892 69.544ZM69.3123 69.208H70.5843V70.456C70.5843 73.024 69.5403 75.532 67.4523 76.48L66.5522 75.22C68.4123 74.392 69.3123 72.34 69.3123 70.456V69.208ZM69.6723 69.208H70.9323V70.456C70.9323 72.256 71.8203 74.176 73.6803 74.944L72.8163 76.204C70.7043 75.292 69.6723 72.928 69.6723 70.456V69.208ZM66.9963 68.524H73.2243V69.832H66.9963V68.524ZM74.2563 67.456H75.8643V78.568H74.2563V67.456Z" fill="#E7B00B"/>
</svg>
