<svg width="100" height="100" viewBox="0 0 100 100" fill="none" xmlns="http://www.w3.org/2000/svg">
<rect x="1" y="1" width="98" height="98" rx="49" fill="#FFF8DF"/>
<rect x="1" y="1" width="98" height="98" rx="49" stroke="#E7B00B" stroke-width="2"/>
<path d="M40.6603 38.7635C39.1449 39.3801 38.9312 39.8968 38.9312 42.7635C38.9312 45.5135 39.106 46.1135 40.0386 46.7801L40.738 47.2801L40.6214 48.5468C40.5243 49.7468 40.5437 49.8635 40.9712 50.2135C41.4957 50.6801 42.1757 50.5968 42.4283 50.0635C42.506 49.8801 42.506 49.1468 42.4477 48.4635L42.2923 47.2135L43.1472 46.5801L43.9826 45.9301V43.0135C43.9826 39.7135 43.8855 39.4301 42.4283 38.7968C41.5152 38.3968 41.5346 38.3968 40.6603 38.7635ZM42.0009 40.1635C42.1563 40.2968 42.234 41.1635 42.234 42.9635C42.234 45.4468 42.2146 45.5635 41.8066 45.7801C41.418 45.9801 41.3403 45.9635 40.9906 45.6135C40.6214 45.2468 40.5826 44.9968 40.602 42.9468C40.6214 41.3468 40.6992 40.5968 40.8934 40.3301C41.1849 39.9301 41.6512 39.8635 42.0009 40.1635Z" fill="#E7B00B"/>
<path d="M35.9197 17.25C35.9197 17.3833 35.7059 17.5333 35.4534 17.6C35.2008 17.65 34.7734 17.8833 34.5208 18.1167L34.0739 18.5333L34.0156 41.7167C33.9768 54.4833 34.0156 65.2167 34.0739 65.5833C34.2488 66.6 35.0842 67 37.0465 67C39.514 67 39.6694 66.8833 41.0683 63.9833C41.4957 63.0833 41.554 62.8 41.3791 62.5167C41.1654 62.2 40.9711 62.1667 38.4454 62.1333L35.7059 62.0833V49.4333C35.7059 42.4833 35.7448 36.75 35.8031 36.7167C35.8614 36.6667 52.57 36.6167 53.4638 36.6667C53.5609 36.6667 53.4638 36.8833 53.2889 37.15C52.8615 37.7833 53.0363 38.1667 53.7746 38.1667C54.2215 38.1667 54.5906 37.9667 55.2901 37.35L56.2421 36.5333L57.8352 36.5167C58.7095 36.5167 59.6421 36.4667 59.9141 36.4C60.2638 36.3333 60.4387 36.3667 60.5164 36.5667C60.6135 36.7667 60.3998 37.0333 59.8169 37.4667C59.3507 37.8 58.6901 38.3167 58.3598 38.6167C57.7575 39.15 57.6798 39.1667 56.1643 39.1667C54.7655 39.1667 54.5906 39.2 54.4741 39.5C54.2798 40.05 54.5323 40.4667 55.1152 40.5333C55.8341 40.6 55.8535 41.0333 55.1541 41.3667C54.4741 41.7 54.3575 42.3833 54.9403 42.6667C55.5038 42.9167 55.6592 42.8833 56.3198 42.3333C57.0386 41.7333 57.2912 41.7 57.2912 42.2167C57.2912 42.4333 57.4078 42.75 57.5632 42.9167C57.8158 43.2167 57.8352 43.2167 58.3598 42.9333C58.8844 42.65 58.8844 42.5833 58.8067 41.5L58.7095 40.35L59.6032 39.5333C60.0889 39.0833 60.7495 38.4667 61.041 38.1833C62.0318 37.2667 62.1484 37.4333 62.0318 39.5333L61.9152 41.4167L60.8467 42.3C59.7392 43.2333 59.5838 43.7 60.2638 44.0667C60.5164 44.2 60.7301 44.1833 61.1964 43.95C61.5267 43.8 61.857 43.6667 61.9152 43.6667C61.993 43.6667 62.0318 47.7333 61.993 52.7C61.9735 57.6833 61.9541 61.85 61.9541 61.95C61.9541 62.1167 60.0307 62.1667 53.0363 62.1667C44.41 62.1667 44.0991 62.1833 43.9826 62.4833C43.9243 62.6667 43.9243 63 44.002 63.2333L44.1186 63.6667L50.258 63.7L56.3975 63.75L56.6306 64.1667C56.7666 64.4 57.0386 64.95 57.2524 65.4167C57.8158 66.65 58.5152 67 60.3998 67C62.1872 67 63.0421 66.7 63.4113 65.9333C63.7415 65.25 63.8387 46.65 63.5084 44.9333C63.3918 44.3 63.353 43.75 63.4113 43.7C63.4501 43.65 63.8193 43.75 64.1884 43.9333C64.985 44.3 65.5095 44.1333 65.6067 43.5167C65.665 43.2333 65.393 42.9167 64.6158 42.2833L63.5473 41.4167L63.4307 39.5333C63.2947 37.1 63.2752 37.1 65.6261 39.3L66.6947 40.3V41.5C66.7141 42.4667 66.7918 42.75 67.0638 42.9C67.5301 43.15 68.0547 42.85 68.1324 42.2667C68.2101 41.6667 68.4433 41.7167 69.3176 42.5167C69.9004 43.0667 70.1336 43.1833 70.4639 43.1C70.9107 42.9667 71.2022 42.3333 71.0079 41.9167C70.9496 41.7667 70.6387 41.5333 70.3084 41.3667C69.6479 41.05 69.609 40.6167 70.2501 40.5333C70.8524 40.4667 71.1439 40.0833 71.0079 39.5833C70.8913 39.1833 70.833 39.1667 69.3176 39.1667C67.7827 39.1667 67.7633 39.1667 67.0444 38.5333C66.6558 38.2 65.9953 37.6667 65.6067 37.3667C64.6741 36.6833 64.6158 36.25 65.4707 36.4C65.801 36.45 66.6753 36.5 67.4136 36.5H68.7347L69.7061 37.35C70.5416 38.0667 70.7553 38.1833 71.3187 38.1333C71.8044 38.1 71.9793 38 72.0182 37.7333C72.057 37.55 71.9404 37.2833 71.7656 37.1667C71.1439 36.7167 71.4159 36.5 72.5816 36.5333C73.6307 36.5833 73.7085 36.5667 73.8833 36.1167C74.2136 35.3333 73.8639 35.0667 72.5622 35.1333C71.7073 35.1833 71.4742 35.15 71.4742 34.95C71.4742 34.8167 71.6102 34.6667 71.7656 34.6C72.3873 34.4 71.8822 33.35 71.1633 33.3333C71.0273 33.3333 70.4639 33.7333 69.881 34.2333L68.8319 35.1333L67.0833 35.1667C66.1313 35.1833 65.2375 35.2 65.121 35.1833C64.849 35.1667 64.7713 34.6667 65.0238 34.6667C65.1015 34.6667 65.7816 34.1667 66.5198 33.5667L67.8798 32.4667L69.0844 32.5667C70.561 32.6667 71.2216 32.35 71.0079 31.6167C70.9107 31.25 70.7747 31.1667 70.3084 31.1667C69.5313 31.1667 69.5701 30.8333 70.4056 30.2667C71.2022 29.7167 71.3382 28.9667 70.7164 28.6667C70.1724 28.4333 70.1724 28.4333 69.3176 29.1667C68.4627 29.9 68.1713 30 68.1713 29.5167C68.1713 28.9167 67.9381 28.6667 67.3941 28.6667C66.7141 28.6667 66.617 28.8833 66.617 30.3333C66.617 31.45 66.5976 31.4833 65.7427 32.2667C63.217 34.5833 63.1975 34.6 63.3918 33.15C63.4501 32.5833 63.5084 31.7833 63.5084 31.3833C63.5084 30.7 63.5861 30.5833 64.577 29.7833C65.7233 28.8667 65.8981 28.3833 65.2375 28.0333C64.9073 27.85 64.7324 27.8667 64.1884 28.15C63.3918 28.55 63.217 28.4 63.5278 27.5333C63.8193 26.6667 63.5278 26.1667 62.7118 26.1667C61.9735 26.1667 61.6627 26.7333 61.993 27.5C62.2844 28.2333 61.9541 28.4833 61.2547 28.0833C60.8272 27.85 60.6718 27.8333 60.2832 28.0167C59.5644 28.3333 59.7198 28.8 60.8855 29.7667C61.8181 30.55 61.9541 30.7333 61.9541 31.3C61.9541 31.6667 62.0124 32.4167 62.0707 32.9833C62.2261 34.1667 61.9541 34.3333 61.0992 33.5333C58.4958 31.1167 58.6512 31.3333 58.7872 30.3833C58.9427 29.1 58.7678 28.6667 58.0684 28.6667C57.5632 28.6667 57.4661 28.75 57.3689 29.1667C57.2135 29.8 56.8444 29.8 56.1061 29.1667C55.5426 28.7 55.5038 28.6833 55.0375 28.9333C54.4158 29.3 54.4546 29.85 55.1541 30.3333C55.8923 30.8667 55.8923 31.1667 55.1541 31.1667C54.6878 31.1667 54.5518 31.25 54.4546 31.6C54.2409 32.3167 54.7266 32.5667 56.2809 32.5333L57.6215 32.4833L58.5735 33.2833C59.0981 33.7167 59.7781 34.25 60.0889 34.45C61.041 35.1 60.6912 35.25 58.3404 35.2L56.2226 35.15L55.2123 34.2333C54.6489 33.75 54.0272 33.3333 53.8329 33.3333C53.0946 33.3333 52.7449 34.1 53.3083 34.5C53.4638 34.6167 53.5998 34.8167 53.5998 34.9333C53.5998 35.1333 52.1815 35.1667 44.6431 35.1333L35.6865 35.0833L35.7254 27.1833C35.7254 22.3333 35.8225 19.1667 35.9391 18.9833C36.1139 18.6833 36.6774 18.6667 48.8203 18.6667H61.5267L61.7598 19.15C61.9152 19.5 61.9541 20.1833 61.857 21.5C61.6821 23.6 61.8764 24.1667 62.6924 24.1667C63.5473 24.1667 63.6833 23.7667 63.7027 21.4833C63.7027 18.7667 63.4501 18.1167 62.2067 17.6667C61.9541 17.5833 61.7598 17.4 61.7598 17.25C61.7598 17.0333 60.2832 17 48.8397 17C37.5517 17 35.9197 17.0333 35.9197 17.25ZM39.4168 63.9C39.4168 64.0167 39.2808 64.2167 39.1254 64.3333C38.97 64.45 38.834 64.6667 38.834 64.8167C38.834 65.4 38.0957 65.8333 37.1242 65.8333C35.9391 65.8333 35.7254 65.6833 35.5894 64.8667C35.4145 63.7167 35.4728 63.6667 37.5711 63.6667C39.0088 63.6667 39.4168 63.7167 39.4168 63.9ZM61.993 64.5833C61.9152 65.6 61.6044 65.8333 60.3804 65.8333C59.8947 65.8333 59.3895 65.7333 59.2729 65.6167C58.8844 65.2 58.1072 63.85 58.2238 63.75C58.2821 63.7 59.1758 63.6833 60.2055 63.7L62.0512 63.75L61.993 64.5833Z" fill="#E7B00B"/>
<path d="M40.2523 24.3969C39.1449 25.0135 38.9312 25.6302 38.9312 28.2635C38.9312 29.4969 39.0283 30.7969 39.1449 31.1469C39.7472 32.8302 42.0786 33.1969 43.3998 31.8135L43.9826 31.2135V28.2969C43.9632 25.5302 43.9438 25.3635 43.5358 24.9469C42.4672 23.8969 41.4375 23.7302 40.2523 24.3969ZM42.0009 25.6635C42.1563 25.7969 42.234 26.6469 42.234 28.4135C42.234 30.8135 42.2146 30.9635 41.826 31.1302C41.4569 31.3135 41.0489 31.1802 40.6797 30.7635C40.6214 30.7135 40.5826 29.6635 40.602 28.4302C40.602 26.8302 40.6797 26.1135 40.8934 25.8302C41.1849 25.4302 41.6317 25.3469 42.0009 25.6635Z" fill="#E7B00B"/>
<path d="M39.8774 71.456H41.3894V78.092H39.8774V71.456ZM38.5214 74.132H40.2854V75.428H38.5214V74.132ZM37.4294 71.66H38.9174V77.72H37.4294V71.66ZM37.6214 78.188C39.9374 78.188 41.4494 79.028 41.4494 80.384C41.4494 81.74 39.9374 82.568 37.6214 82.568C35.3054 82.568 33.8054 81.74 33.8054 80.384C33.8054 79.028 35.3054 78.188 37.6214 78.188ZM37.6214 79.436C36.2054 79.436 35.3894 79.748 35.3894 80.384C35.3894 81.008 36.2054 81.332 37.6214 81.332C39.0374 81.332 39.8414 81.008 39.8414 80.384C39.8414 79.748 39.0374 79.436 37.6214 79.436ZM32.3534 72.32H33.9494V76.52H32.3534V72.32ZM32.3534 76.076H33.1214C34.4414 76.076 35.5574 76.016 36.8294 75.752L36.9854 77.048C35.6654 77.324 34.5014 77.384 33.1214 77.384H32.3534V76.076ZM45.4325 72.692H46.7405V73.388C46.7405 75.512 45.7445 77.42 43.5965 78.128L42.8045 76.868C44.6525 76.256 45.4325 74.804 45.4325 73.388V72.692ZM45.7565 72.692H47.0525V73.388C47.0525 74.684 47.7965 75.956 49.5845 76.496L48.8285 77.744C46.7165 77.108 45.7565 75.368 45.7565 73.388V72.692ZM43.2245 72.2H49.2245V73.472H43.2245V72.2ZM50.1125 71.456H51.7085V78.044H50.1125V71.456ZM51.2645 74.012H53.1845V75.32H51.2645V74.012ZM48.0845 78.248C50.3885 78.248 51.8405 79.052 51.8405 80.408C51.8405 81.764 50.3885 82.568 48.0845 82.568C45.7685 82.568 44.3165 81.764 44.3165 80.408C44.3165 79.052 45.7685 78.248 48.0845 78.248ZM48.0845 79.496C46.6685 79.496 45.9005 79.784 45.9005 80.408C45.9005 81.032 46.6685 81.344 48.0845 81.344C49.5005 81.344 50.2565 81.032 50.2565 80.408C50.2565 79.784 49.5005 79.496 48.0845 79.496ZM55.0315 72.392H62.0755V73.676H55.0315V72.392ZM54.0115 79.94H64.0555V81.236H54.0115V79.94ZM57.5635 76.124H59.1595V80.576H57.5635V76.124ZM61.4995 72.392H63.0955V73.46C63.0955 74.852 63.0955 76.412 62.6515 78.788L61.0555 78.608C61.4995 76.4 61.4995 74.792 61.4995 73.46V72.392Z" fill="#E7B00B"/>
</svg>
