<svg width="80" height="80" viewBox="0 0 80 80" fill="none" xmlns="http://www.w3.org/2000/svg">
<rect x="0.5" y="0.5" width="79" height="79" rx="39.5" fill="#ffffff"/>
<rect x="0.5" y="0.5" width="79" height="79" rx="39.5" stroke="#A6A6A6"/>
<rect x="0.5" y="0.5" width="79" height="79" rx="39.5" fill="#ffffff"/>
<rect x="0.5" y="0.5" width="79" height="79" rx="39.5" stroke="#A6A6A6"/>
<path d="M33.2605 28.6449L33.2606 28.6449L33.2551 28.6477C33.0464 28.7547 32.9211 28.8385 32.8354 28.922C32.7578 28.9974 32.6979 29.0868 32.6492 29.2296C32.5553 29.5045 32.5141 29.9295 32.5031 30.7009C32.5114 30.3964 32.5238 30.1437 32.5418 29.9368C32.5564 29.7691 32.5755 29.6212 32.6018 29.4949C32.6269 29.3745 32.6648 29.2421 32.7325 29.125C32.867 28.8924 33.0863 28.6816 33.3894 28.6249C33.5501 28.5949 33.7023 28.6141 33.8388 28.6674C33.8381 28.667 33.8374 28.6667 33.8367 28.6663L33.8353 28.6655C33.6913 28.586 33.6114 28.5419 33.5504 28.5142C33.5442 28.5114 33.5388 28.5091 33.534 28.5071C33.5321 28.5078 33.5302 28.5086 33.5281 28.5095C33.4728 28.5329 33.3996 28.5714 33.2605 28.6449ZM32.8318 33.6405C32.78 33.5756 32.7268 33.502 32.6794 33.4122C32.7474 33.5822 32.843 33.6962 32.9923 33.8308L33.4077 34.205L33.5096 34.2967L33.6549 34.1611L33.9277 33.9064C33.8762 33.9382 33.8139 33.9732 33.7473 33.9995C33.6442 34.0402 33.4984 34.0731 33.3316 34.03C33.1782 33.9903 33.0715 33.9021 33.0076 33.8408C32.9438 33.7795 32.8836 33.7058 32.8318 33.6405ZM33.5901 35.5034L33.5422 35.0177L33.5027 35.5586C33.4724 36.031 33.4683 36.2087 33.4843 36.3055C33.487 36.322 33.4894 36.329 33.4898 36.3302C33.4898 36.3303 33.4899 36.3304 33.4899 36.3304C33.4901 36.331 33.4902 36.3313 33.4912 36.333C33.4962 36.3412 33.5111 36.3623 33.5706 36.4237L33.5778 36.4311L33.5847 36.4388C33.5913 36.4463 33.5977 36.453 33.6037 36.4588C33.604 36.4556 33.6042 36.4522 33.6045 36.4487C33.6093 36.3854 33.6123 36.3003 33.613 36.1977C33.6143 35.9956 33.6064 35.7461 33.5901 35.5034ZM34.281 33.5702C34.2807 33.5707 34.2804 33.5712 34.2801 33.5717L34.5 33.3561V31.3834C34.5 30.7647 34.4963 30.3005 34.4781 29.9403C34.4597 29.5766 34.4276 29.3505 34.3829 29.197C34.3427 29.0588 34.2948 28.9882 34.2355 28.9298C34.1982 28.8931 34.1512 28.856 34.086 28.813C34.123 28.8432 34.1578 28.8761 34.1901 28.911C34.2742 29.0019 34.3123 29.1038 34.3293 29.1541C34.3501 29.2159 34.3647 29.2808 34.3757 29.3418C34.3978 29.4644 34.4138 29.6182 34.4258 29.7969C34.45 30.1571 34.4615 30.6695 34.4615 31.346C34.4615 32.2571 34.4596 32.7836 34.4219 33.0961C34.4025 33.2567 34.3679 33.4218 34.281 33.5702Z" fill="#A6A6A6" stroke="#A6A6A6"/>
<mask id="path-4-inside-1_849_4998" fill="white">
<path d="M29.3917 13.18C29.3917 13.276 29.2368 13.384 29.0537 13.432C28.8706 13.468 28.5607 13.636 28.3776 13.804L28.0536 14.104L28.0113 30.796C27.9832 39.988 28.0113 47.716 28.0536 47.98C28.1804 48.712 28.7861 49 30.2087 49C31.9976 49 32.1103 48.916 33.1245 46.828C33.4344 46.18 33.4766 45.976 33.3499 45.772C33.1949 45.544 33.0541 45.52 31.2229 45.496L29.2368 45.46V36.352C29.2368 31.348 29.265 27.22 29.3072 27.196C29.3495 27.16 41.4633 27.124 42.1112 27.16C42.1817 27.16 42.1112 27.316 41.9845 27.508C41.6746 27.964 41.8013 28.24 42.3366 28.24C42.6606 28.24 42.9282 28.096 43.4353 27.652L44.1255 27.064L45.2805 27.052C45.9144 27.052 46.5905 27.016 46.7877 26.968C47.0413 26.92 47.168 26.944 47.2244 27.088C47.2948 27.232 47.1399 27.424 46.7173 27.736C46.3792 27.976 45.9003 28.348 45.6608 28.564C45.2242 28.948 45.1678 28.96 44.0692 28.96C43.055 28.96 42.9282 28.984 42.8437 29.2C42.7028 29.596 42.8859 29.896 43.3085 29.944C43.8297 29.992 43.8438 30.304 43.3367 30.544C42.8437 30.784 42.7592 31.276 43.1817 31.48C43.5902 31.66 43.7029 31.636 44.1818 31.24C44.703 30.808 44.8861 30.784 44.8861 31.156C44.8861 31.312 44.9706 31.54 45.0833 31.66C45.2664 31.876 45.2805 31.876 45.6608 31.672C46.0412 31.468 46.0412 31.42 45.9848 30.64L45.9144 29.812L46.5623 29.224C46.9145 28.9 47.3934 28.456 47.6047 28.252C48.3231 27.592 48.4076 27.712 48.3231 29.224L48.2386 30.58L47.4638 31.216C46.6609 31.888 46.5483 32.224 47.0413 32.488C47.2244 32.584 47.3793 32.572 47.7174 32.404C47.9568 32.296 48.1963 32.2 48.2386 32.2C48.2949 32.2 48.3231 35.128 48.2949 38.704C48.2808 42.292 48.2667 45.292 48.2667 45.364C48.2667 45.484 46.8722 45.52 41.8013 45.52C35.5472 45.52 35.3219 45.532 35.2374 45.748C35.1951 45.88 35.1951 46.12 35.2514 46.288L35.336 46.6L39.7871 46.624L44.2382 46.66L44.4072 46.96C44.5058 47.128 44.703 47.524 44.858 47.86C45.2664 48.748 45.7735 49 47.1399 49C48.4358 49 49.0555 48.784 49.3232 48.232C49.5626 47.74 49.633 34.348 49.3936 33.112C49.3091 32.656 49.2809 32.26 49.3232 32.224C49.3513 32.188 49.619 32.26 49.8866 32.392C50.4641 32.656 50.8444 32.536 50.9149 32.092C50.9571 31.888 50.7599 31.66 50.1965 31.204L49.4218 30.58L49.3372 29.224C49.2386 27.472 49.2246 27.472 50.9289 29.056L51.7037 29.776V30.64C51.7177 31.336 51.7741 31.54 51.9713 31.648C52.3093 31.828 52.6897 31.612 52.746 31.192C52.8024 30.76 52.9714 30.796 53.6052 31.372C54.0278 31.768 54.1968 31.852 54.4363 31.792C54.7603 31.696 54.9716 31.24 54.8307 30.94C54.7884 30.832 54.5631 30.664 54.3236 30.544C53.8447 30.316 53.8165 30.004 54.2814 29.944C54.718 29.896 54.9293 29.62 54.8307 29.26C54.7462 28.972 54.7039 28.96 53.6052 28.96C52.4925 28.96 52.4784 28.96 51.9572 28.504C51.6755 28.264 51.1966 27.88 50.9149 27.664C50.2387 27.172 50.1965 26.86 50.8163 26.968C51.0557 27.004 51.6896 27.04 52.2248 27.04H53.1827L53.887 27.652C54.4926 28.168 54.6476 28.252 55.0561 28.216C55.4082 28.192 55.535 28.12 55.5632 27.928C55.5913 27.796 55.5068 27.604 55.3801 27.52C54.9293 27.196 55.1265 27.04 55.9717 27.064C56.7323 27.1 56.7886 27.088 56.9154 26.764C57.1549 26.2 56.9013 26.008 55.9576 26.056C55.3378 26.092 55.1688 26.068 55.1688 25.924C55.1688 25.828 55.2674 25.72 55.3801 25.672C55.8308 25.528 55.4646 24.772 54.9434 24.76C54.8448 24.76 54.4363 25.048 54.0137 25.408L53.2531 26.056L51.9854 26.08C51.2952 26.092 50.6472 26.104 50.5627 26.092C50.3655 26.08 50.3092 25.72 50.4923 25.72C50.5486 25.72 51.0416 25.36 51.5769 24.928L52.5629 24.136L53.4362 24.208C54.5067 24.28 54.9856 24.052 54.8307 23.524C54.7603 23.26 54.6617 23.2 54.3236 23.2C53.7602 23.2 53.7884 22.96 54.394 22.552C54.9716 22.156 55.0702 21.616 54.6194 21.4C54.225 21.232 54.225 21.232 53.6052 21.76C52.9855 22.288 52.7742 22.36 52.7742 22.012C52.7742 21.58 52.6051 21.4 52.2107 21.4C51.7177 21.4 51.6473 21.556 51.6473 22.6C51.6473 23.404 51.6332 23.428 51.0135 23.992C49.1823 25.66 49.1682 25.672 49.3091 24.628C49.3513 24.22 49.3936 23.644 49.3936 23.356C49.3936 22.864 49.4499 22.78 50.1683 22.204C50.9994 21.544 51.1261 21.196 50.6472 20.944C50.4078 20.812 50.281 20.824 49.8866 21.028C49.3091 21.316 49.1823 21.208 49.4077 20.584C49.619 19.96 49.4077 19.6 48.8161 19.6C48.2808 19.6 48.0554 20.008 48.2949 20.56C48.5062 21.088 48.2667 21.268 47.7596 20.98C47.4497 20.812 47.3371 20.8 47.0553 20.932C46.5342 21.16 46.6469 21.496 47.492 22.192C48.1681 22.756 48.2667 22.888 48.2667 23.296C48.2667 23.56 48.309 24.1 48.3512 24.508C48.4639 25.36 48.2667 25.48 47.6469 24.904C45.7594 23.164 45.8721 23.32 45.9707 22.636C46.0834 21.712 45.9567 21.4 45.4496 21.4C45.0833 21.4 45.0129 21.46 44.9425 21.76C44.8298 22.216 44.5622 22.216 44.0269 21.76C43.6184 21.424 43.5902 21.412 43.2522 21.592C42.8014 21.856 42.8296 22.252 43.3367 22.6C43.872 22.984 43.872 23.2 43.3367 23.2C42.9986 23.2 42.9 23.26 42.8296 23.512C42.6747 24.028 43.0268 24.208 44.1537 24.184L45.1256 24.148L45.8158 24.724C46.1961 25.036 46.6891 25.42 46.9145 25.564C47.6047 26.032 47.3511 26.14 45.6468 26.104L44.1114 26.068L43.3789 25.408C42.9705 25.06 42.5197 24.76 42.3789 24.76C41.8436 24.76 41.5901 25.312 41.9985 25.6C42.1112 25.684 42.2098 25.828 42.2098 25.912C42.2098 26.056 41.1816 26.08 35.7163 26.056L29.2227 26.02L29.2509 20.332C29.2509 16.84 29.3213 14.56 29.4058 14.428C29.5326 14.212 29.9411 14.2 38.7447 14.2H47.9568L48.1259 14.548C48.2386 14.8 48.2667 15.292 48.1963 16.24C48.0695 17.752 48.2104 18.16 48.802 18.16C49.4218 18.16 49.5204 17.872 49.5344 16.228C49.5344 14.272 49.3513 13.804 48.4498 13.48C48.2667 13.42 48.1259 13.288 48.1259 13.18C48.1259 13.024 47.0553 13 38.7588 13C30.575 13 29.3917 13.024 29.3917 13.18ZM31.9272 46.768C31.9272 46.852 31.8286 46.996 31.7159 47.08C31.6032 47.164 31.5046 47.32 31.5046 47.428C31.5046 47.848 30.9694 48.16 30.2651 48.16C29.4058 48.16 29.2509 48.052 29.1523 47.464C29.0255 46.636 29.0678 46.6 30.589 46.6C31.6314 46.6 31.9272 46.636 31.9272 46.768ZM48.2949 47.26C48.2386 47.992 48.0132 48.16 47.1258 48.16C46.7736 48.16 46.4074 48.088 46.3229 48.004C46.0412 47.704 45.4777 46.732 45.5622 46.66C45.6045 46.624 46.2525 46.612 46.999 46.624L48.3372 46.66L48.2949 47.26Z"/>
</mask>
<path d="M29.3917 13.18C29.3917 13.276 29.2368 13.384 29.0537 13.432C28.8706 13.468 28.5607 13.636 28.3776 13.804L28.0536 14.104L28.0113 30.796C27.9832 39.988 28.0113 47.716 28.0536 47.98C28.1804 48.712 28.7861 49 30.2087 49C31.9976 49 32.1103 48.916 33.1245 46.828C33.4344 46.18 33.4766 45.976 33.3499 45.772C33.1949 45.544 33.0541 45.52 31.2229 45.496L29.2368 45.46V36.352C29.2368 31.348 29.265 27.22 29.3072 27.196C29.3495 27.16 41.4633 27.124 42.1112 27.16C42.1817 27.16 42.1112 27.316 41.9845 27.508C41.6746 27.964 41.8013 28.24 42.3366 28.24C42.6606 28.24 42.9282 28.096 43.4353 27.652L44.1255 27.064L45.2805 27.052C45.9144 27.052 46.5905 27.016 46.7877 26.968C47.0413 26.92 47.168 26.944 47.2244 27.088C47.2948 27.232 47.1399 27.424 46.7173 27.736C46.3792 27.976 45.9003 28.348 45.6608 28.564C45.2242 28.948 45.1678 28.96 44.0692 28.96C43.055 28.96 42.9282 28.984 42.8437 29.2C42.7028 29.596 42.8859 29.896 43.3085 29.944C43.8297 29.992 43.8438 30.304 43.3367 30.544C42.8437 30.784 42.7592 31.276 43.1817 31.48C43.5902 31.66 43.7029 31.636 44.1818 31.24C44.703 30.808 44.8861 30.784 44.8861 31.156C44.8861 31.312 44.9706 31.54 45.0833 31.66C45.2664 31.876 45.2805 31.876 45.6608 31.672C46.0412 31.468 46.0412 31.42 45.9848 30.64L45.9144 29.812L46.5623 29.224C46.9145 28.9 47.3934 28.456 47.6047 28.252C48.3231 27.592 48.4076 27.712 48.3231 29.224L48.2386 30.58L47.4638 31.216C46.6609 31.888 46.5483 32.224 47.0413 32.488C47.2244 32.584 47.3793 32.572 47.7174 32.404C47.9568 32.296 48.1963 32.2 48.2386 32.2C48.2949 32.2 48.3231 35.128 48.2949 38.704C48.2808 42.292 48.2667 45.292 48.2667 45.364C48.2667 45.484 46.8722 45.52 41.8013 45.52C35.5472 45.52 35.3219 45.532 35.2374 45.748C35.1951 45.88 35.1951 46.12 35.2514 46.288L35.336 46.6L39.7871 46.624L44.2382 46.66L44.4072 46.96C44.5058 47.128 44.703 47.524 44.858 47.86C45.2664 48.748 45.7735 49 47.1399 49C48.4358 49 49.0555 48.784 49.3232 48.232C49.5626 47.74 49.633 34.348 49.3936 33.112C49.3091 32.656 49.2809 32.26 49.3232 32.224C49.3513 32.188 49.619 32.26 49.8866 32.392C50.4641 32.656 50.8444 32.536 50.9149 32.092C50.9571 31.888 50.7599 31.66 50.1965 31.204L49.4218 30.58L49.3372 29.224C49.2386 27.472 49.2246 27.472 50.9289 29.056L51.7037 29.776V30.64C51.7177 31.336 51.7741 31.54 51.9713 31.648C52.3093 31.828 52.6897 31.612 52.746 31.192C52.8024 30.76 52.9714 30.796 53.6052 31.372C54.0278 31.768 54.1968 31.852 54.4363 31.792C54.7603 31.696 54.9716 31.24 54.8307 30.94C54.7884 30.832 54.5631 30.664 54.3236 30.544C53.8447 30.316 53.8165 30.004 54.2814 29.944C54.718 29.896 54.9293 29.62 54.8307 29.26C54.7462 28.972 54.7039 28.96 53.6052 28.96C52.4925 28.96 52.4784 28.96 51.9572 28.504C51.6755 28.264 51.1966 27.88 50.9149 27.664C50.2387 27.172 50.1965 26.86 50.8163 26.968C51.0557 27.004 51.6896 27.04 52.2248 27.04H53.1827L53.887 27.652C54.4926 28.168 54.6476 28.252 55.0561 28.216C55.4082 28.192 55.535 28.12 55.5632 27.928C55.5913 27.796 55.5068 27.604 55.3801 27.52C54.9293 27.196 55.1265 27.04 55.9717 27.064C56.7323 27.1 56.7886 27.088 56.9154 26.764C57.1549 26.2 56.9013 26.008 55.9576 26.056C55.3378 26.092 55.1688 26.068 55.1688 25.924C55.1688 25.828 55.2674 25.72 55.3801 25.672C55.8308 25.528 55.4646 24.772 54.9434 24.76C54.8448 24.76 54.4363 25.048 54.0137 25.408L53.2531 26.056L51.9854 26.08C51.2952 26.092 50.6472 26.104 50.5627 26.092C50.3655 26.08 50.3092 25.72 50.4923 25.72C50.5486 25.72 51.0416 25.36 51.5769 24.928L52.5629 24.136L53.4362 24.208C54.5067 24.28 54.9856 24.052 54.8307 23.524C54.7603 23.26 54.6617 23.2 54.3236 23.2C53.7602 23.2 53.7884 22.96 54.394 22.552C54.9716 22.156 55.0702 21.616 54.6194 21.4C54.225 21.232 54.225 21.232 53.6052 21.76C52.9855 22.288 52.7742 22.36 52.7742 22.012C52.7742 21.58 52.6051 21.4 52.2107 21.4C51.7177 21.4 51.6473 21.556 51.6473 22.6C51.6473 23.404 51.6332 23.428 51.0135 23.992C49.1823 25.66 49.1682 25.672 49.3091 24.628C49.3513 24.22 49.3936 23.644 49.3936 23.356C49.3936 22.864 49.4499 22.78 50.1683 22.204C50.9994 21.544 51.1261 21.196 50.6472 20.944C50.4078 20.812 50.281 20.824 49.8866 21.028C49.3091 21.316 49.1823 21.208 49.4077 20.584C49.619 19.96 49.4077 19.6 48.8161 19.6C48.2808 19.6 48.0554 20.008 48.2949 20.56C48.5062 21.088 48.2667 21.268 47.7596 20.98C47.4497 20.812 47.3371 20.8 47.0553 20.932C46.5342 21.16 46.6469 21.496 47.492 22.192C48.1681 22.756 48.2667 22.888 48.2667 23.296C48.2667 23.56 48.309 24.1 48.3512 24.508C48.4639 25.36 48.2667 25.48 47.6469 24.904C45.7594 23.164 45.8721 23.32 45.9707 22.636C46.0834 21.712 45.9567 21.4 45.4496 21.4C45.0833 21.4 45.0129 21.46 44.9425 21.76C44.8298 22.216 44.5622 22.216 44.0269 21.76C43.6184 21.424 43.5902 21.412 43.2522 21.592C42.8014 21.856 42.8296 22.252 43.3367 22.6C43.872 22.984 43.872 23.2 43.3367 23.2C42.9986 23.2 42.9 23.26 42.8296 23.512C42.6747 24.028 43.0268 24.208 44.1537 24.184L45.1256 24.148L45.8158 24.724C46.1961 25.036 46.6891 25.42 46.9145 25.564C47.6047 26.032 47.3511 26.14 45.6468 26.104L44.1114 26.068L43.3789 25.408C42.9705 25.06 42.5197 24.76 42.3789 24.76C41.8436 24.76 41.5901 25.312 41.9985 25.6C42.1112 25.684 42.2098 25.828 42.2098 25.912C42.2098 26.056 41.1816 26.08 35.7163 26.056L29.2227 26.02L29.2509 20.332C29.2509 16.84 29.3213 14.56 29.4058 14.428C29.5326 14.212 29.9411 14.2 38.7447 14.2H47.9568L48.1259 14.548C48.2386 14.8 48.2667 15.292 48.1963 16.24C48.0695 17.752 48.2104 18.16 48.802 18.16C49.4218 18.16 49.5204 17.872 49.5344 16.228C49.5344 14.272 49.3513 13.804 48.4498 13.48C48.2667 13.42 48.1259 13.288 48.1259 13.18C48.1259 13.024 47.0553 13 38.7588 13C30.575 13 29.3917 13.024 29.3917 13.18ZM31.9272 46.768C31.9272 46.852 31.8286 46.996 31.7159 47.08C31.6032 47.164 31.5046 47.32 31.5046 47.428C31.5046 47.848 30.9694 48.16 30.2651 48.16C29.4058 48.16 29.2509 48.052 29.1523 47.464C29.0255 46.636 29.0678 46.6 30.589 46.6C31.6314 46.6 31.9272 46.636 31.9272 46.768ZM48.2949 47.26C48.2386 47.992 48.0132 48.16 47.1258 48.16C46.7736 48.16 46.4074 48.088 46.3229 48.004C46.0412 47.704 45.4777 46.732 45.5622 46.66C45.6045 46.624 46.2525 46.612 46.999 46.624L48.3372 46.66L48.2949 47.26Z" fill="#A6A6A6" stroke="#A6A6A6" stroke-width="2" mask="url(#path-4-inside-1_849_4998)"/>
<path d="M32.7432 18.9998C32.779 18.9428 32.8203 18.8871 32.8671 18.8349C32.8293 18.8683 32.7987 18.9003 32.7728 18.9321C32.716 19.0021 32.6665 19.091 32.6254 19.231C32.5951 19.3342 32.5711 19.4578 32.5525 19.6112C32.583 19.3843 32.6354 19.1684 32.7432 18.9998ZM33.2032 23.4356C33.037 23.3732 32.8954 23.2684 32.7762 23.1458C32.9214 23.3379 33.1179 23.4487 33.3203 23.4857C33.4151 23.5031 33.5157 23.505 33.6177 23.4889C33.4797 23.5044 33.3391 23.4866 33.2032 23.4356ZM34.3048 23.0498L34.5 22.8154V20.9777C34.4941 20.0054 34.4878 19.5326 34.457 19.2621C34.4426 19.1349 34.4259 19.0879 34.4181 19.0699C34.4121 19.0561 34.4036 19.0395 34.3547 18.9809C34.0768 18.6634 33.8576 18.5427 33.6905 18.5103C33.6031 18.4934 33.5024 18.4953 33.3809 18.5331C33.3822 18.5328 33.3835 18.5326 33.3847 18.5324C33.6954 18.4741 33.9763 18.5982 34.1767 18.7987C34.2643 18.8864 34.3056 18.9859 34.3245 19.0371C34.3471 19.0982 34.3626 19.1616 34.3741 19.2195C34.3972 19.3359 34.4134 19.4796 34.4256 19.6434C34.45 19.974 34.4615 20.4419 34.4615 21.057C34.4615 21.8692 34.4598 22.3529 34.4229 22.6413C34.4063 22.7711 34.3772 22.9161 34.3048 23.0498Z" fill="#A6A6A6" stroke="#A6A6A6"/>
<path d="M31.8774 55.944H33.4014V62.58H31.8774V55.944ZM30.5214 58.632H32.2974V59.916H30.5214V58.632ZM29.4294 56.148H30.9174V62.22H29.4294V56.148ZM29.6334 62.676C30.4014 62.676 31.0694 62.768 31.6374 62.952C32.2134 63.128 32.6574 63.38 32.9694 63.708C33.2894 64.036 33.4494 64.428 33.4494 64.884C33.4494 65.332 33.2894 65.72 32.9694 66.048C32.6574 66.376 32.2134 66.628 31.6374 66.804C31.0694 66.98 30.4014 67.068 29.6334 67.068C28.8654 67.068 28.1934 66.98 27.6174 66.804C27.0414 66.628 26.5934 66.376 26.2734 66.048C25.9614 65.72 25.8054 65.332 25.8054 64.884C25.8054 64.428 25.9614 64.036 26.2734 63.708C26.5934 63.38 27.0414 63.128 27.6174 62.952C28.1934 62.768 28.8654 62.676 29.6334 62.676ZM29.6334 63.924C29.1614 63.924 28.7574 63.96 28.4214 64.032C28.0934 64.096 27.8374 64.2 27.6534 64.344C27.4774 64.488 27.3894 64.668 27.3894 64.884C27.3894 65.084 27.4774 65.256 27.6534 65.4C27.8374 65.544 28.0934 65.652 28.4214 65.724C28.7574 65.796 29.1614 65.832 29.6334 65.832C30.0974 65.832 30.4934 65.796 30.8214 65.724C31.1574 65.652 31.4134 65.544 31.5894 65.4C31.7654 65.256 31.8534 65.084 31.8534 64.884C31.8534 64.668 31.7654 64.488 31.5894 64.344C31.4134 64.2 31.1574 64.096 30.8214 64.032C30.4934 63.96 30.0974 63.924 29.6334 63.924ZM24.3654 56.808H25.9614V61.02H24.3654V56.808ZM24.3654 60.576H25.1214C25.7854 60.576 26.4094 60.556 26.9934 60.516C27.5854 60.468 28.1974 60.38 28.8294 60.252L28.9974 61.548C28.3334 61.676 27.6934 61.764 27.0774 61.812C26.4694 61.852 25.8174 61.872 25.1214 61.872H24.3654V60.576ZM37.4445 57.192H38.7525V57.888C38.7525 58.592 38.6365 59.26 38.4045 59.892C38.1805 60.524 37.8365 61.08 37.3725 61.56C36.9085 62.032 36.3205 62.384 35.6085 62.616L34.8165 61.356C35.4245 61.156 35.9205 60.876 36.3045 60.516C36.6965 60.148 36.9845 59.736 37.1685 59.28C37.3525 58.816 37.4445 58.352 37.4445 57.888V57.192ZM37.7685 57.192H39.0525V57.888C39.0525 58.32 39.1405 58.74 39.3165 59.148C39.4925 59.548 39.7645 59.908 40.1325 60.228C40.5085 60.548 40.9965 60.8 41.5965 60.984L40.8285 62.232C40.1245 62.024 39.5445 61.704 39.0885 61.272C38.6405 60.832 38.3085 60.324 38.0925 59.748C37.8765 59.164 37.7685 58.544 37.7685 57.888V57.192ZM35.2245 56.688H41.2365V57.96H35.2245V56.688ZM42.1125 55.956H43.7085V62.544H42.1125V55.956ZM43.2765 58.5H45.1845V59.808H43.2765V58.5ZM40.0845 62.736C40.8605 62.736 41.5285 62.824 42.0885 63C42.6485 63.168 43.0805 63.412 43.3845 63.732C43.6885 64.052 43.8405 64.44 43.8405 64.896C43.8405 65.352 43.6885 65.74 43.3845 66.06C43.0805 66.388 42.6485 66.636 42.0885 66.804C41.5285 66.98 40.8605 67.068 40.0845 67.068C39.3165 67.068 38.6485 66.98 38.0805 66.804C37.5205 66.636 37.0845 66.388 36.7725 66.06C36.4685 65.74 36.3165 65.352 36.3165 64.896C36.3165 64.44 36.4685 64.052 36.7725 63.732C37.0845 63.412 37.5205 63.168 38.0805 63C38.6485 62.824 39.3165 62.736 40.0845 62.736ZM40.0845 63.984C39.6125 63.984 39.2165 64.016 38.8965 64.08C38.5765 64.144 38.3325 64.244 38.1645 64.38C37.9965 64.516 37.9125 64.688 37.9125 64.896C37.9125 65.112 37.9965 65.288 38.1645 65.424C38.3325 65.56 38.5765 65.664 38.8965 65.736C39.2165 65.8 39.6125 65.832 40.0845 65.832C40.5565 65.832 40.9525 65.8 41.2725 65.736C41.6005 65.664 41.8445 65.56 42.0045 65.424C42.1725 65.288 42.2565 65.112 42.2565 64.896C42.2565 64.688 42.1725 64.516 42.0045 64.38C41.8445 64.244 41.6005 64.144 41.2725 64.08C40.9525 64.016 40.5565 63.984 40.0845 63.984ZM47.0435 56.892H54.0755V58.164H47.0435V56.892ZM46.0115 64.428H56.0675V65.724H46.0115V64.428ZM49.5635 60.612H51.1715V65.076H49.5635V60.612ZM53.4995 56.892H55.1075V57.948C55.1075 58.412 55.0995 58.904 55.0835 59.424C55.0755 59.944 55.0395 60.52 54.9755 61.152C54.9195 61.784 54.8155 62.492 54.6635 63.276L53.0675 63.108C53.2915 61.996 53.4195 61.028 53.4515 60.204C53.4835 59.372 53.4995 58.62 53.4995 57.948V56.892Z" fill="#7C7C7C"/>
</svg>
