<svg width="100" height="100" viewBox="0 0 100 100" fill="none" xmlns="http://www.w3.org/2000/svg">
<rect x="1" y="1" width="98" height="98" rx="49" fill="#FEF7D4"/>
<rect x="1" y="1" width="98" height="98" rx="49" stroke="#E7B00B" stroke-width="2"/>
<path d="M32.6761 20.1867C32.6761 20.3867 32.3803 20.5333 31.9577 20.5333C31.5634 20.5333 30.7887 21.12 30.3944 21.7067L30.0704 22.2L30.0282 40.7733L30 59.3467L30.3662 59.6667C30.7183 59.9733 30.8592 60 32.0845 60C33.3099 60 33.4648 59.9733 33.9014 59.6533L34.3803 59.3067L34.3662 56.6933C34.3521 55.24 34.3521 53.9867 34.3521 53.8933C34.3662 53.7733 37.5915 53.7333 49.9859 53.7333C64.7606 53.7333 65.6197 53.7467 65.6761 53.96C65.7042 54.0933 65.7324 54.5333 65.7183 54.9333L65.7042 55.6667L51.0563 55.6933C43 55.7067 36.2958 55.7467 36.169 55.7867C35.8732 55.8533 35.831 56.3733 36.0986 56.7067C36.2535 56.92 37.2113 56.9333 50.9577 56.9067C60.662 56.88 65.6338 56.9067 65.6479 57C65.662 57.0667 65.6479 57.6267 65.6338 58.2133L65.6056 59.3067L66.0986 59.6533C66.5352 59.9733 66.6901 60 67.9155 60C69.1408 60 69.2817 59.9733 69.6338 59.6667L70 59.3467L69.9718 40.7733C69.9296 22.4533 69.9296 22.2 69.6479 21.8C69.2394 21.2267 68.4225 20.5333 68.1408 20.5333C67.7606 20.5333 67.4648 20.3867 67.4648 20.1867C67.4648 20.0533 67.2676 20 66.7606 20C66.2535 20 66.0563 20.0533 66.0563 20.1867C66.0563 20.28 65.9577 20.44 65.831 20.5467C65.6479 20.68 65.6197 20.9867 65.6479 22.16C65.662 22.9467 65.6479 23.64 65.5915 23.6933C65.5352 23.7333 64.3239 23.76 62.9014 23.7467C60.3662 23.72 60.2958 23.72 60.1408 24C59.9577 24.3333 60.0704 24.9333 60.3239 24.9467C60.4085 24.96 61.6479 24.9733 63.0704 24.9867L65.6479 25V28.5333V32.0667H50H34.3521V28.5333V25L39.3239 24.96L44.2958 24.9333L44.5493 25.2267C44.6761 25.4 44.9577 25.8667 45.169 26.2533C45.662 27.24 46.6479 28.1333 47.2254 28.1467C47.4789 28.1467 48.6761 28.16 49.8873 28.16H52.1127L52.6761 27.7333C53.2394 27.32 53.3239 27.1867 54.0141 25.92C54.5493 24.8933 54.5634 24.8933 56.3944 24.96C57.2676 25 58.0986 24.9733 58.2254 24.9067C58.507 24.76 58.5211 24.0933 58.2535 23.88C58.1127 23.7733 54.9296 23.7333 46.2676 23.7333C39.7746 23.7467 34.4366 23.7067 34.3944 23.6667C34.338 23.6267 34.3239 22.8933 34.3521 22.0533C34.3803 20.76 34.3521 20.52 34.169 20.4533C34.0423 20.4133 33.9437 20.2933 33.9437 20.1867C33.9437 20.0533 33.7606 20 33.3099 20C32.8592 20 32.6761 20.0533 32.6761 20.1867ZM33.0704 40.2133L33.0282 59L32.4085 59.04C32.0563 59.0667 31.6479 59.0533 31.493 59.0133L31.1972 58.9467L31.2254 41.04C31.2535 31.1867 31.2958 22.9467 31.338 22.72C31.4507 22.0667 32.6761 21.04 33 21.32C33.0563 21.3733 33.0845 29.8667 33.0704 40.2133ZM68.0845 21.8267C68.4366 22.16 68.6056 22.4533 68.662 22.8533C68.7042 23.1467 68.7606 31.4 68.7746 41.1733L68.8028 58.9467L68.507 59.0133C68.3521 59.0533 67.9437 59.0667 67.5915 59.04L66.9718 59L66.9296 40.2667C66.9155 29.96 66.9296 21.4667 66.9577 21.3733C67.0563 21.12 67.5493 21.32 68.0845 21.8267ZM53.0986 25.12C53.0986 25.2133 52.9718 25.4533 52.8169 25.64C52.662 25.8267 52.5352 26.0267 52.5352 26.08C52.5352 26.1333 52.3662 26.36 52.1549 26.56L51.7746 26.9333H49.493H47.1972L46.7324 26.36C46.2254 25.7733 45.7746 25.12 45.7746 25C45.7746 24.96 47.4225 24.9333 49.4366 24.9333C52.4366 24.9333 53.0986 24.96 53.0986 25.12ZM65.6479 37.3333C65.6479 39.4933 65.6338 41.2933 65.6338 41.3333C65.6338 41.3733 63.0704 41.4 59.9296 41.4H54.2254V38.5333C54.2113 35.6933 54.2113 35.6667 53.8732 35.2667C53.5634 34.9067 53.4366 34.8667 52.7606 34.8667C52.0282 34.8667 51.9437 34.8933 51.3099 35.4933C50.9296 35.8533 50.5493 36.1333 50.4648 36.1333C50.3803 36.1333 50.2394 36.2267 50.1408 36.3333C50.0141 36.48 49.6901 36.5333 49.0282 36.5333C48.0986 36.5333 48.0845 36.52 47.4789 35.9333C47.1408 35.6 46.7183 35.2933 46.5352 35.2533C46.1268 35.16 45.2113 35.3067 44.9437 35.5067C44.2394 36.0533 42.3662 36.84 41.4789 36.9333C40.1127 37.0933 38.9577 37.5467 38.0986 38.2533C37.1831 39 36.4789 40.1867 36.4789 40.96V41.4667H35.4225C34.8169 41.4667 34.3662 41.4133 34.3662 41.3333C34.3662 41.2533 34.3521 39.4533 34.3521 37.3333C34.3521 35.2 34.3662 33.44 34.3662 33.4C34.3662 33.36 41.4085 33.3467 50.0141 33.36L65.6479 33.4V37.3333ZM52.9718 36.16C53.0141 36.7333 52.9437 41.2533 52.9014 41.2933C52.8028 41.3867 37.9155 41.3733 37.7606 41.2667C37.3239 41.0267 38.3944 39.4133 39.3803 38.84C39.8873 38.5333 40.8732 38.1333 40.9718 38.2C41.0282 38.2267 41.1972 38.5867 41.338 38.9867C41.6197 39.7733 41.8732 39.9467 42.4789 39.8133C42.7324 39.7467 42.8169 39.64 42.8169 39.3467C42.8169 39.1333 42.7183 38.8933 42.5915 38.8C42.4648 38.6933 42.3944 38.4667 42.4225 38.2133C42.4648 37.8533 42.5211 37.8 42.8873 37.8C43.2113 37.8 43.338 37.8933 43.507 38.2C44 39.1733 44.0845 39.2667 44.4225 39.3067C45.0563 39.3867 45.2676 38.3067 44.7042 37.8533C44.4225 37.6267 44.4366 36.9333 44.7465 36.9333C44.8732 36.9333 45.0845 36.8533 45.1972 36.7467C45.7465 36.28 46.0986 36.3467 46.8873 37.0533L47.6338 37.7333H48.8592C49.7042 37.72 50.1549 37.6667 50.338 37.5333C50.493 37.4267 50.7183 37.3333 50.8451 37.3333C50.9718 37.3333 51.3803 37.0267 51.7606 36.6667C52.4225 36.0267 52.9437 35.8133 52.9718 36.16ZM65.7183 43.3333C65.7324 43.7333 65.7183 44.1733 65.6761 44.3067C65.6197 44.52 64.7887 44.5333 49.9577 44.5067L34.2958 44.4667L34.2817 43.7333C34.2676 43.3333 34.2817 42.8933 34.3239 42.76C34.3803 42.5467 35.2113 42.5333 50.0423 42.56L65.7042 42.6L65.7183 43.3333ZM52.2113 45.7867C52.3662 45.92 51.8028 47.08 51.4366 47.4133C51.169 47.64 50.9014 47.7333 50.493 47.7333C50.1831 47.7333 49.6761 47.8 49.3662 47.88C49.0563 47.9467 48.2958 48.0667 47.6761 48.12C45.4507 48.3333 43.9296 49.12 42.9155 50.5733C42.5493 51.0933 42.3944 51.4533 42.3662 51.9467L42.3239 52.6H38.3521C36.1549 52.6133 34.3662 52.56 34.3662 52.5067C34.3521 52.3733 34.3521 45.8933 34.3662 45.76C34.3662 45.6533 52.0845 45.6667 52.2113 45.7867ZM58.8451 47.48L58.8873 49.2933L58.2676 49.52C57.9437 49.64 57.6197 49.7333 57.5493 49.7333C57.3944 49.7333 56.338 50.52 55.9577 50.9333C55.7746 51.12 55.5634 51.5067 55.4789 51.8C55.3944 52.0933 55.2535 52.4133 55.1831 52.4933C54.9859 52.72 43.7324 52.7467 43.5915 52.52C43.169 51.88 44.831 49.96 46.0845 49.6267C46.8732 49.4 47.0423 49.48 47.0423 50.0533C47.0423 50.6133 47.5352 51.2267 47.9296 51.1733C48.4366 51.1067 48.5493 50.7333 48.2817 50.04C48.0141 49.3333 48.1268 49.0667 48.6761 49.0667C48.9155 49.0667 49.0845 49.2 49.2958 49.6C49.4507 49.88 49.5775 50.2133 49.5775 50.3067C49.5775 50.4133 49.7183 50.5867 49.9014 50.7067C50.1831 50.88 50.2535 50.88 50.5352 50.6933C50.8873 50.48 50.9437 50.0533 50.6479 49.7467C50.2958 49.3733 50.3239 49.0267 50.7042 48.84C51.169 48.6267 51.5775 48.8667 51.7042 49.4533C51.831 50.0533 52.0845 50.28 52.5915 50.24C53 50.2 53.0282 50.1733 53.0141 49.64C53.0141 49.3067 52.9014 48.96 52.7746 48.8267C52.493 48.5333 52.4648 48.0267 52.7183 47.7467C52.9859 47.4533 53.3803 46.4533 53.3803 46.08C53.3803 45.8933 53.4507 45.7333 53.5211 45.7067C53.6056 45.68 54.8169 45.6667 56.2394 45.6667H58.8028L58.8451 47.48ZM65.6338 45.76C65.6338 45.8267 65.6479 47.3333 65.6479 49.1333C65.6479 50.9333 65.6338 52.4533 65.6338 52.52C65.6338 52.6 64.4789 52.64 62.8592 52.6267L60.0845 52.6L60.1127 49.2C60.1268 47.3333 60.1408 45.7733 60.1408 45.7333C60.1408 45.6267 65.6338 45.6533 65.6338 45.76ZM58.8732 51.52C58.8732 52.6533 58.9014 52.6267 57.5352 52.6933C56.5211 52.7333 56.2676 52.6267 56.493 52.2533C56.7324 51.8133 57.6197 50.9333 57.8169 50.9333C57.9155 50.9333 58.0704 50.84 58.169 50.7333C58.2676 50.6267 58.4648 50.5333 58.6056 50.5333C58.8451 50.5333 58.8732 50.64 58.8732 51.52Z" fill="#E7B00B"/>
<path d="M41.5534 68.968H43.1614V77.068H41.5534V68.968ZM35.7574 78.604H43.4374V79.876H35.7574V78.604ZM35.7574 76.288H37.3534V79.264H35.7574V76.288ZM36.5254 69.568H37.8454V70.648C37.8454 72.82 36.8494 74.824 34.6894 75.58L33.8854 74.308C35.7454 73.672 36.5254 72.124 36.5254 70.648V69.568ZM36.8494 69.568H38.1574V70.648C38.1574 72.1 38.9134 73.528 40.7374 74.116L39.9214 75.388C37.8214 74.68 36.8494 72.796 36.8494 70.648V69.568ZM45.2845 69.448H46.8685V70.756H49.0405V69.448H50.6245V74.308H45.2845V69.448ZM46.8685 71.956V73.06H49.0405V71.956H46.8685ZM52.1125 68.956H53.7085V74.596H52.1125V68.956ZM53.0605 71.092H55.1725V72.388H53.0605V71.092ZM46.3645 75.028H53.7085V78.052H47.9725V79.372H46.3885V76.912H52.1365V76.252H46.3645V75.028ZM46.3885 78.76H54.0325V79.996H46.3885V78.76ZM58.4715 70.192H59.7795V70.888C59.7795 73.012 58.7835 74.92 56.6355 75.628L55.8435 74.368C57.6915 73.756 58.4715 72.304 58.4715 70.888V70.192ZM58.7955 70.192H60.0915V70.888C60.0915 72.184 60.8355 73.456 62.6235 73.996L61.8675 75.244C59.7555 74.608 58.7955 72.868 58.7955 70.888V70.192ZM56.2635 69.7H62.2635V70.972H56.2635V69.7ZM63.1515 68.956H64.7475V75.544H63.1515V68.956ZM64.3035 71.512H66.2235V72.82H64.3035V71.512ZM61.1235 75.748C63.4275 75.748 64.8795 76.552 64.8795 77.908C64.8795 79.264 63.4275 80.068 61.1235 80.068C58.8075 80.068 57.3555 79.264 57.3555 77.908C57.3555 76.552 58.8075 75.748 61.1235 75.748ZM61.1235 76.996C59.7075 76.996 58.9395 77.284 58.9395 77.908C58.9395 78.532 59.7075 78.844 61.1235 78.844C62.5395 78.844 63.2955 78.532 63.2955 77.908C63.2955 77.284 62.5395 76.996 61.1235 76.996Z" fill="#E7B00B"/>
</svg>
