<svg width="80" height="80" viewBox="0 0 80 80" fill="none" xmlns="http://www.w3.org/2000/svg">
<rect x="0.5" y="0.5" width="79" height="79" rx="39.5" fill="#ffffff"/>
<rect x="0.5" y="0.5" width="79" height="79" rx="39.5" stroke="#A6A6A6"/>
<path d="M24.8415 12.6633C24.8415 12.8383 24.5827 12.9667 24.213 12.9667C23.868 12.9667 23.1901 13.48 22.8451 13.9933L22.5616 14.425L22.5246 30.6767L22.5 46.9283L22.8204 47.2083C23.1285 47.4767 23.2518 47.5 24.3239 47.5C25.3961 47.5 25.5317 47.4767 25.9137 47.1967L26.3327 46.8933L26.3204 44.6067C26.3081 43.335 26.3081 42.2383 26.3081 42.1567C26.3204 42.0517 29.1426 42.0167 39.9877 42.0167C52.9155 42.0167 53.6673 42.0283 53.7165 42.215C53.7412 42.3317 53.7658 42.7167 53.7535 43.0667L53.7412 43.7083L40.9243 43.7317C33.875 43.7433 28.0088 43.7783 27.8979 43.8133C27.6391 43.8717 27.6021 44.3267 27.8363 44.6183C27.9718 44.805 28.8099 44.8167 40.838 44.7933C49.3292 44.77 53.6796 44.7933 53.6919 44.875C53.7042 44.9333 53.6919 45.4233 53.6796 45.9367L53.6549 46.8933L54.0863 47.1967C54.4683 47.4767 54.6039 47.5 55.6761 47.5C56.7482 47.5 56.8715 47.4767 57.1796 47.2083L57.5 46.9283L57.4754 30.6767C57.4384 14.6467 57.4384 14.425 57.1919 14.075C56.8345 13.5733 56.1197 12.9667 55.8732 12.9667C55.5405 12.9667 55.2817 12.8383 55.2817 12.6633C55.2817 12.5467 55.1092 12.5 54.6655 12.5C54.2218 12.5 54.0493 12.5467 54.0493 12.6633C54.0493 12.745 53.963 12.885 53.8521 12.9783C53.6919 13.095 53.6673 13.3633 53.6919 14.39C53.7042 15.0783 53.6919 15.685 53.6426 15.7317C53.5933 15.7667 52.5335 15.79 51.2887 15.7783C49.0704 15.755 49.0088 15.755 48.8732 16C48.713 16.2917 48.8116 16.8167 49.0335 16.8283C49.1074 16.84 50.1919 16.8517 51.4366 16.8633L53.6919 16.875V19.9667V23.0583H40H26.3081V19.9667V16.875L30.6585 16.84L35.0088 16.8167L35.2306 17.0733C35.3415 17.225 35.588 17.6333 35.7729 17.9717C36.2042 18.835 37.0669 19.6167 37.5722 19.6283C37.794 19.6283 38.8415 19.64 39.9014 19.64H41.8486L42.3415 19.2667C42.8345 18.905 42.9085 18.7883 43.5123 17.68C43.9806 16.7817 43.993 16.7817 45.5951 16.84C46.3592 16.875 47.0863 16.8517 47.1972 16.7933C47.4437 16.665 47.456 16.0817 47.2218 15.895C47.0986 15.8017 44.3134 15.7667 36.7342 15.7667C31.0528 15.7783 26.382 15.7433 26.3451 15.7083C26.2958 15.6733 26.2835 15.0317 26.3081 14.2967C26.3327 13.165 26.3081 12.955 26.1479 12.8967C26.037 12.8617 25.9507 12.7567 25.9507 12.6633C25.9507 12.5467 25.7905 12.5 25.3961 12.5C25.0018 12.5 24.8415 12.5467 24.8415 12.6633ZM25.1866 30.1867L25.1496 46.625L24.6074 46.66C24.2993 46.6833 23.9419 46.6717 23.8063 46.6367L23.5475 46.5783L23.5722 30.91C23.5968 22.2883 23.6338 15.0783 23.6708 14.88C23.7694 14.3083 24.8415 13.41 25.125 13.655C25.1743 13.7017 25.1989 21.1333 25.1866 30.1867ZM55.8239 14.0983C56.132 14.39 56.2799 14.6467 56.3292 14.9967C56.3662 15.2533 56.4155 22.475 56.4278 31.0267L56.4525 46.5783L56.1937 46.6367C56.0581 46.6717 55.7007 46.6833 55.3926 46.66L54.8504 46.625L54.8134 30.2333C54.8011 21.215 54.8134 13.7833 54.838 13.7017C54.9243 13.48 55.3556 13.655 55.8239 14.0983ZM42.7113 16.98C42.7113 17.0617 42.6004 17.2717 42.4648 17.435C42.3292 17.5983 42.2183 17.7733 42.2183 17.82C42.2183 17.8667 42.0704 18.065 41.8856 18.24L41.5528 18.5667H39.5563H37.5475L37.1408 18.065C36.6972 17.5517 36.3028 16.98 36.3028 16.875C36.3028 16.84 37.7447 16.8167 39.507 16.8167C42.132 16.8167 42.7113 16.84 42.7113 16.98ZM53.6919 27.6667C53.6919 29.5567 53.6796 31.1317 53.6796 31.1667C53.6796 31.2017 51.4366 31.225 48.6884 31.225H43.6972V28.7167C43.6849 26.2317 43.6849 26.2083 43.3891 25.8583C43.118 25.5433 43.007 25.5083 42.4155 25.5083C41.7746 25.5083 41.7007 25.5317 41.1461 26.0567C40.8134 26.3717 40.4806 26.6167 40.4067 26.6167C40.3327 26.6167 40.2095 26.6983 40.1232 26.7917C40.0123 26.92 39.7289 26.9667 39.1496 26.9667C38.3363 26.9667 38.3239 26.955 37.794 26.4417C37.4982 26.15 37.1285 25.8817 36.9683 25.8467C36.6109 25.765 35.8099 25.8933 35.5757 26.0683C34.9595 26.5467 33.3204 27.235 32.544 27.3167C31.3486 27.4567 30.338 27.8533 29.5863 28.4717C28.7852 29.125 28.169 30.1633 28.169 30.84V31.2833H27.2447C26.7148 31.2833 26.3204 31.2367 26.3204 31.1667C26.3204 31.0967 26.3081 29.5217 26.3081 27.6667C26.3081 25.8 26.3204 24.26 26.3204 24.225C26.3204 24.19 32.4824 24.1783 40.0123 24.19L53.6919 24.225V27.6667ZM42.6004 26.64C42.6373 27.1417 42.5757 31.0967 42.5387 31.1317C42.4525 31.2133 29.4261 31.2017 29.2905 31.1083C28.9085 30.8983 29.8451 29.4867 30.7077 28.985C31.1514 28.7167 32.0141 28.3667 32.1004 28.425C32.1496 28.4483 32.2975 28.7633 32.4208 29.1133C32.6673 29.8017 32.8891 29.9533 33.419 29.8367C33.6408 29.7783 33.7148 29.685 33.7148 29.4283C33.7148 29.2417 33.6285 29.0317 33.5176 28.95C33.4067 28.8567 33.3451 28.6583 33.3697 28.4367C33.4067 28.1217 33.456 28.075 33.7764 28.075C34.0599 28.075 34.1708 28.1567 34.3187 28.425C34.75 29.2767 34.8239 29.3583 35.1197 29.3933C35.6743 29.4633 35.8592 28.5183 35.3662 28.1217C35.1197 27.9233 35.132 27.3167 35.4032 27.3167C35.5141 27.3167 35.6989 27.2467 35.7975 27.1533C36.2782 26.745 36.5863 26.8033 37.2764 27.4217L37.9296 28.0167H39.0018C39.7412 28.005 40.1356 27.9583 40.2958 27.8417C40.4313 27.7483 40.6285 27.6667 40.7394 27.6667C40.8504 27.6667 41.2077 27.3983 41.5405 27.0833C42.1197 26.5233 42.5757 26.3367 42.6004 26.64ZM53.7535 32.9167C53.7658 33.2667 53.7535 33.6517 53.7165 33.7683C53.6673 33.955 52.9401 33.9667 39.963 33.9433L26.2588 33.9083L26.2465 33.2667C26.2342 32.9167 26.2465 32.5317 26.2835 32.415C26.3327 32.2283 27.0599 32.2167 40.037 32.24L53.7412 32.275L53.7535 32.9167ZM41.9349 35.0633C42.0704 35.18 41.5775 36.195 41.257 36.4867C41.0229 36.685 40.7887 36.7667 40.4313 36.7667C40.1602 36.7667 39.7165 36.825 39.4454 36.895C39.1743 36.9533 38.5088 37.0583 37.9665 37.105C36.0194 37.2917 34.6884 37.98 33.8011 39.2517C33.4806 39.7067 33.3451 40.0217 33.3204 40.4533L33.2835 41.025H29.8081C27.8856 41.0367 26.3204 40.99 26.3204 40.9433C26.3081 40.8267 26.3081 35.1567 26.3204 35.04C26.3204 34.9467 41.8239 34.9583 41.9349 35.0633ZM47.7394 36.545L47.7764 38.1317L47.2342 38.33C46.9507 38.435 46.6673 38.5167 46.6056 38.5167C46.4701 38.5167 45.5458 39.205 45.213 39.5667C45.0528 39.73 44.868 40.0683 44.794 40.325C44.7201 40.5817 44.5968 40.8617 44.5352 40.9317C44.3627 41.13 34.5158 41.1533 34.3926 40.955C34.0229 40.395 35.4771 38.715 36.5739 38.4233C37.2641 38.225 37.412 38.295 37.412 38.7967C37.412 39.2867 37.8433 39.8233 38.1884 39.7767C38.632 39.7183 38.7306 39.3917 38.4965 38.785C38.2623 38.1667 38.3609 37.9333 38.8415 37.9333C39.0511 37.9333 39.1989 38.05 39.3838 38.4C39.5194 38.645 39.6303 38.9367 39.6303 39.0183C39.6303 39.1117 39.7535 39.2633 39.9137 39.3683C40.1602 39.52 40.2218 39.52 40.4683 39.3567C40.7764 39.17 40.8257 38.7967 40.5669 38.5283C40.2588 38.2017 40.2835 37.8983 40.6162 37.735C41.0229 37.5483 41.3803 37.7583 41.4912 38.2717C41.6021 38.7967 41.8239 38.995 42.2676 38.96C42.625 38.925 42.6496 38.9017 42.6373 38.435C42.6373 38.1433 42.5387 37.84 42.4278 37.7233C42.1813 37.4667 42.1567 37.0233 42.3785 36.7783C42.6127 36.5217 42.9577 35.6467 42.9577 35.32C42.9577 35.1567 43.0194 35.0167 43.081 34.9933C43.1549 34.97 44.2148 34.9583 45.4595 34.9583H47.7025L47.7394 36.545ZM53.6796 35.04C53.6796 35.0983 53.6919 36.4167 53.6919 37.9917C53.6919 39.5667 53.6796 40.8967 53.6796 40.955C53.6796 41.025 52.669 41.06 51.2518 41.0483L48.8239 41.025L48.8486 38.05C48.8609 36.4167 48.8732 35.0517 48.8732 35.0167C48.8732 34.9233 53.6796 34.9467 53.6796 35.04ZM47.7641 40.08C47.7641 41.0717 47.7887 41.0483 46.5933 41.1067C45.706 41.1417 45.4842 41.0483 45.6813 40.7217C45.8908 40.3367 46.6673 39.5667 46.8398 39.5667C46.9261 39.5667 47.0616 39.485 47.1479 39.3917C47.2342 39.2983 47.4067 39.2167 47.5299 39.2167C47.7394 39.2167 47.7641 39.31 47.7641 40.08Z" fill="#A6A6A6"/>
<path d="M31.5534 56.468H33.1614V64.568H31.5534V56.468ZM25.7574 66.104H33.4374V67.376H25.7574V66.104ZM25.7574 63.788H27.3534V66.764H25.7574V63.788ZM26.5254 57.068H27.8454V58.148C27.8454 60.32 26.8494 62.324 24.6894 63.08L23.8854 61.808C25.7454 61.172 26.5254 59.624 26.5254 58.148V57.068ZM26.8494 57.068H28.1574V58.148C28.1574 59.6 28.9134 61.028 30.7374 61.616L29.9214 62.888C27.8214 62.18 26.8494 60.296 26.8494 58.148V57.068ZM35.2845 56.948H36.8685V58.256H39.0405V56.948H40.6245V61.808H35.2845V56.948ZM36.8685 59.456V60.56H39.0405V59.456H36.8685ZM42.1125 56.456H43.7085V62.096H42.1125V56.456ZM43.0605 58.592H45.1725V59.888H43.0605V58.592ZM36.3645 62.528H43.7085V65.552H37.9725V66.872H36.3885V64.412H42.1365V63.752H36.3645V62.528ZM36.3885 66.26H44.0325V67.496H36.3885V66.26ZM48.4715 57.692H49.7795V58.388C49.7795 60.512 48.7835 62.42 46.6355 63.128L45.8435 61.868C47.6915 61.256 48.4715 59.804 48.4715 58.388V57.692ZM48.7955 57.692H50.0915V58.388C50.0915 59.684 50.8355 60.956 52.6235 61.496L51.8675 62.744C49.7555 62.108 48.7955 60.368 48.7955 58.388V57.692ZM46.2635 57.2H52.2635V58.472H46.2635V57.2ZM53.1515 56.456H54.7475V63.044H53.1515V56.456ZM54.3035 59.012H56.2235V60.32H54.3035V59.012ZM51.1235 63.248C53.4275 63.248 54.8795 64.052 54.8795 65.408C54.8795 66.764 53.4275 67.568 51.1235 67.568C48.8075 67.568 47.3555 66.764 47.3555 65.408C47.3555 64.052 48.8075 63.248 51.1235 63.248ZM51.1235 64.496C49.7075 64.496 48.9395 64.784 48.9395 65.408C48.9395 66.032 49.7075 66.344 51.1235 66.344C52.5395 66.344 53.2955 66.032 53.2955 65.408C53.2955 64.784 52.5395 64.496 51.1235 64.496Z" fill="#7C7C7C"/>
</svg>
