<svg width="100" height="100" viewBox="0 0 100 100" fill="none" xmlns="http://www.w3.org/2000/svg">
<rect x="1" y="1" width="98" height="98" rx="49" fill="white"/>
<rect x="1" y="1" width="98" height="98" rx="49" stroke="#A6A6A6" stroke-width="2"/>
<path d="M39.6429 17.8862C38.7571 18.4097 38.4571 18.657 38.0143 19.2969C37.2571 20.3731 37.1 21.173 37.1571 23.6599L37.2143 25.8414H36.7857C36.3714 25.8414 36.3571 25.8123 36.2857 25.0415C36.2429 24.6052 36.1571 24.1544 36.1 24.0526C35.7286 23.4708 34.7857 24.3289 34.9429 25.1288C35.0143 25.4924 34.9571 25.6523 34.7286 25.8559C34.5571 26.0014 34.4286 26.2341 34.4286 26.3795C34.4286 26.8013 34.9143 26.9467 35.9571 26.8449C36.8429 26.7576 36.9571 26.7867 37.2143 27.0776C37.4857 27.383 37.4857 27.3975 37.2286 27.6011C37 27.7611 36.5 27.7757 34.6286 27.7029C31.7286 27.5866 31.7857 27.5575 31.9 29.1427C31.9571 29.9135 31.9429 30.2917 31.8286 30.3644C31.7429 30.4226 30.5286 30.4516 29.1286 30.4371C27.2429 30.408 26.5286 30.4516 26.3 30.5971C26.0143 30.7716 26 30.9025 26 33.1858C26 34.8728 26.0571 35.6582 26.1714 35.7745C26.2857 35.8908 26.8571 35.949 27.8143 35.949H29.2857V47.8309C29.2857 54.3754 29.2857 59.8728 29.2857 60.0473V60.3818H49.7714C62.9429 60.3818 70.3 60.3382 70.3571 60.2364C70.4 60.1637 70.4429 54.6663 70.4286 48.02V35.949H71.9286C73.1429 35.949 73.4571 35.9054 73.5143 35.7309C73.5714 35.6145 73.6857 35.5127 73.8 35.5127C73.9571 35.5127 74 35.0619 74 33.1131C74 30.8298 73.9857 30.7134 73.7286 30.7134C73.5714 30.7134 73.4 30.6407 73.3571 30.568C73.3 30.4662 68.8143 30.4226 59.9857 30.4226C52.6714 30.4226 46.6286 30.3935 46.5571 30.3353C46.4571 30.2771 46.4429 29.9281 46.5 29.39C46.5571 28.9246 46.5571 28.3429 46.5 28.0811L46.4 27.6157L42.3714 27.6739L38.3571 27.732V27.2957V26.8594H39.5571C40.6143 26.8594 40.7714 26.8303 40.9571 26.5395C41.1429 26.2632 41.1286 26.1904 40.8714 25.9287C40.6571 25.7105 40.5714 25.4342 40.5714 24.9833C40.5714 23.4272 39.3571 23.5581 39.2571 25.1142C39.2143 25.7832 39.1857 25.8414 38.8143 25.885C38.5714 25.9141 38.4 25.8559 38.3429 25.7105C38.2571 25.4778 38.5 21.6093 38.6429 20.8821C38.7429 20.4458 39.5714 19.3696 39.8286 19.3696C39.9 19.3696 40.0429 19.2678 40.1429 19.1515C40.2571 19.006 40.5857 18.9333 41.1429 18.9333C41.8714 18.9333 42.0571 18.9915 42.6 19.4132C43.3286 19.9804 43.8429 20.9548 43.8429 21.7838C43.8571 22.6419 44.5 23.1654 44.9714 22.6855C45.0714 22.5837 45.1429 22.1474 45.1429 21.682C45.1429 21.0566 45.0429 20.664 44.7 20.0095C44.2857 19.1951 43.2429 18.0607 42.9143 18.0607C42.8286 18.0607 42.6714 17.9589 42.5714 17.8426C42.3143 17.5226 40.2143 17.5517 39.6429 17.8862ZM45.2857 29.5354C45.2857 30.568 45.7429 30.4953 39.1714 30.4662L33.2143 30.4371L33.1714 29.7099L33.1286 28.9682H39.2H45.2857V29.5354ZM72.5429 33.1858L72.5857 34.6401L49.8286 34.611L27.0857 34.5674L27.1286 33.1858C27.1429 32.4295 27.1857 31.7751 27.2143 31.7315C27.2429 31.6878 37.4429 31.6733 49.8857 31.6878L72.5 31.7315L72.5429 33.1858ZM42.5429 45.4167L42.5 54.8845L36.5286 54.9135C33.2571 54.9135 30.5714 54.8845 30.5714 54.8117C30.5714 54.6808 30.5714 36.1235 30.5714 36.0217C30.5714 35.9781 33.2714 35.949 36.5714 35.949H42.5714L42.5429 45.4167ZM55.8571 36.1235C55.8571 36.1963 55.8571 40.4429 55.8571 45.5767V54.9281H49.8571H43.8571L43.8286 45.504C43.8 40.312 43.8143 36.0363 43.8429 36.0072C43.9571 35.8908 55.8571 36.0217 55.8571 36.1235ZM69.2 36.1963C69.1857 36.2981 69.1714 40.5593 69.1714 45.6494L69.1429 54.9281H63.1429H57.1429V45.4313V35.949L63.1857 35.9781C67.9 36.0072 69.2143 36.0654 69.2 36.1963ZM69.1571 56.4115C69.1571 56.5133 69.1714 57.1387 69.1714 57.7931L69.1857 59.0002H49.8571H30.5286L30.5 57.764C30.5 57.0805 30.5 56.4551 30.5286 56.3824C30.6 56.1497 69.1429 56.1788 69.1571 56.4115Z" fill="#A6A6A6"/>
<path d="M41.5654 71.3378H43.1614V77.9018H41.5654V71.3378ZM39.4294 78.0938C40.2134 78.0938 40.8854 78.1778 41.4454 78.3458C42.0134 78.5138 42.4534 78.7618 42.7654 79.0898C43.0774 79.4098 43.2334 79.7978 43.2334 80.2538C43.2334 80.7098 43.0774 81.0978 42.7654 81.4178C42.4534 81.7458 42.0134 81.9938 41.4454 82.1618C40.8854 82.3378 40.2134 82.4258 39.4294 82.4258C38.6534 82.4258 37.9774 82.3378 37.4014 82.1618C36.8334 81.9938 36.3934 81.7458 36.0814 81.4178C35.7774 81.0978 35.6254 80.7098 35.6254 80.2538C35.6254 79.7978 35.7774 79.4098 36.0814 79.0898C36.3934 78.7618 36.8334 78.5138 37.4014 78.3458C37.9774 78.1778 38.6534 78.0938 39.4294 78.0938ZM39.4294 79.3298C38.9494 79.3298 38.5414 79.3618 38.2054 79.4258C37.8774 79.4898 37.6294 79.5898 37.4614 79.7258C37.2934 79.8618 37.2094 80.0378 37.2094 80.2538C37.2094 80.4538 37.2934 80.6258 37.4614 80.7698C37.6294 80.9058 37.8774 81.0098 38.2054 81.0818C38.5414 81.1458 38.9494 81.1778 39.4294 81.1778C39.9094 81.1778 40.3134 81.1458 40.6414 81.0818C40.9694 81.0098 41.2174 80.9058 41.3854 80.7698C41.5534 80.6258 41.6374 80.4538 41.6374 80.2538C41.6374 80.0378 41.5534 79.8618 41.3854 79.7258C41.2174 79.5898 40.9694 79.4898 40.6414 79.4258C40.3134 79.3618 39.9094 79.3298 39.4294 79.3298ZM36.5374 71.8178H37.8574V72.8738C37.8574 73.5858 37.7414 74.2618 37.5094 74.9018C37.2774 75.5418 36.9254 76.1018 36.4534 76.5818C35.9894 77.0618 35.3974 77.4218 34.6774 77.6618L33.8854 76.3898C34.3494 76.2378 34.7494 76.0378 35.0854 75.7898C35.4214 75.5418 35.6934 75.2618 35.9014 74.9498C36.1174 74.6298 36.2774 74.2938 36.3814 73.9418C36.4854 73.5898 36.5374 73.2338 36.5374 72.8738V71.8178ZM36.8614 71.8178H38.1574V72.8738C38.1574 73.2178 38.2094 73.5538 38.3134 73.8818C38.4174 74.2098 38.5694 74.5218 38.7694 74.8178C38.9774 75.1058 39.2454 75.3618 39.5734 75.5858C39.9014 75.8098 40.2934 75.9898 40.7494 76.1258L39.9694 77.3738C39.4414 77.2058 38.9814 76.9778 38.5894 76.6898C38.1974 76.3938 37.8734 76.0458 37.6174 75.6458C37.3614 75.2458 37.1694 74.8138 37.0414 74.3498C36.9214 73.8858 36.8614 73.3938 36.8614 72.8738V71.8178ZM46.1005 72.2978H53.1085V73.5818H46.1005V72.2978ZM44.9725 79.8338H55.0285V81.1418H44.9725V79.8338ZM52.4365 72.2978H54.0085V73.5938C54.0085 74.1298 54.0005 74.6738 53.9845 75.2258C53.9685 75.7698 53.9245 76.3618 53.8525 77.0018C53.7805 77.6338 53.6605 78.3538 53.4925 79.1618L51.9085 79.0178C52.0845 78.2738 52.2085 77.5898 52.2805 76.9658C52.3525 76.3418 52.3965 75.7538 52.4125 75.2018C52.4285 74.6498 52.4365 74.1138 52.4365 73.5938V72.2978ZM52.7605 75.3458V76.5218L45.9805 76.8578L45.7765 75.5738L52.7605 75.3458ZM64.0275 71.3258H65.5515V82.4378H64.0275V71.3258ZM62.5515 75.6098H64.3995V76.8938H62.5515V75.6098ZM61.5435 71.5178H63.0195V81.9218H61.5435V71.5178ZM56.3235 78.6218H57.0915C57.5555 78.6218 57.9955 78.6178 58.4115 78.6098C58.8275 78.5938 59.2395 78.5658 59.6475 78.5258C60.0635 78.4778 60.4875 78.4178 60.9195 78.3458L61.0515 79.6418C60.6035 79.7218 60.1675 79.7858 59.7435 79.8338C59.3195 79.8818 58.8915 79.9138 58.4595 79.9298C58.0275 79.9378 57.5715 79.9418 57.0915 79.9418H56.3235V78.6218ZM56.3235 72.6218H60.4155V73.9058H57.8955V79.2578H56.3235V72.6218Z" fill="#A6A6A6"/>
<path d="M40.0806 43.1699C40.0265 43.3054 39.9725 49.5082 40.0157 50.5589C40.0265 50.6606 40.1347 50.8131 40.2753 50.9148C40.47 51.0504 40.5674 51.0335 40.762 50.7962C40.9892 50.4911 41 50.3895 41 47.0169C41 45.1019 40.9676 43.4241 40.9351 43.2716C40.8594 42.9665 40.1888 42.8987 40.0806 43.1699Z" fill="#A6A6A6"/>
<path d="M53.259 43.0654C53 43.2 53 43.2168 53 46.9022C53 50.5538 53 50.5875 53.259 50.8399C53.4954 51.0587 53.5404 51.0587 53.7656 50.8063C54.0133 50.537 54.0133 50.4697 53.9908 46.8517C53.957 43.3515 53.9457 43.1664 53.7318 43.0486C53.608 42.9812 53.3941 42.9812 53.259 43.0654Z" fill="#A6A6A6"/>
<path d="M62.2444 43.0747C62 43.2091 62 43.2763 62 46.906C62 50.5357 62 50.5861 62.2556 50.8382C62.4778 51.0567 62.5333 51.0567 62.7556 50.8214C63 50.5861 63 50.5189 63 46.8388V43.3557C63 43.2 62.895 43.0639 62.7444 43.0243C62.6 42.9739 62.3667 43.0075 62.2444 43.0747Z" fill="#A6A6A6"/>
</svg>
