<svg width="100" height="100" viewBox="0 0 100 100" fill="none" xmlns="http://www.w3.org/2000/svg">
<rect x="1" y="1" width="98" height="98" rx="49" fill="#FEF7D4"/>
<rect x="1" y="1" width="98" height="98" rx="49" stroke="#E7B00B" stroke-width="2"/>
<path d="M39.6429 17.8862C38.7571 18.4097 38.4571 18.657 38.0143 19.2969C37.2571 20.3731 37.1 21.173 37.1571 23.6599L37.2143 25.8414H36.7857C36.3714 25.8414 36.3571 25.8123 36.2857 25.0415C36.2429 24.6052 36.1571 24.1544 36.1 24.0526C35.7286 23.4708 34.7857 24.3289 34.9429 25.1288C35.0143 25.4924 34.9571 25.6523 34.7286 25.8559C34.5571 26.0014 34.4286 26.2341 34.4286 26.3795C34.4286 26.8013 34.9143 26.9467 35.9571 26.8449C36.8429 26.7576 36.9571 26.7867 37.2143 27.0776C37.4857 27.383 37.4857 27.3975 37.2286 27.6011C37 27.7611 36.5 27.7757 34.6286 27.7029C31.7286 27.5866 31.7857 27.5575 31.9 29.1427C31.9571 29.9135 31.9429 30.2917 31.8286 30.3644C31.7429 30.4226 30.5286 30.4516 29.1286 30.4371C27.2429 30.408 26.5286 30.4516 26.3 30.5971C26.0143 30.7716 26 30.9025 26 33.1858C26 34.8728 26.0571 35.6582 26.1714 35.7745C26.2857 35.8908 26.8571 35.949 27.8143 35.949H29.2857V47.8309C29.2857 54.3754 29.2857 59.8728 29.2857 60.0473V60.3818H49.7714C62.9429 60.3818 70.3 60.3382 70.3571 60.2364C70.4 60.1637 70.4429 54.6663 70.4286 48.02V35.949H71.9286C73.1429 35.949 73.4571 35.9054 73.5143 35.7309C73.5714 35.6145 73.6857 35.5127 73.8 35.5127C73.9571 35.5127 74 35.0619 74 33.1131C74 30.8298 73.9857 30.7134 73.7286 30.7134C73.5714 30.7134 73.4 30.6407 73.3571 30.568C73.3 30.4662 68.8143 30.4226 59.9857 30.4226C52.6714 30.4226 46.6286 30.3935 46.5571 30.3353C46.4571 30.2771 46.4429 29.9281 46.5 29.39C46.5571 28.9246 46.5571 28.3429 46.5 28.0811L46.4 27.6157L42.3714 27.6739L38.3571 27.732V27.2957V26.8594H39.5571C40.6143 26.8594 40.7714 26.8303 40.9571 26.5395C41.1429 26.2632 41.1286 26.1904 40.8714 25.9287C40.6571 25.7105 40.5714 25.4342 40.5714 24.9833C40.5714 23.4272 39.3571 23.5581 39.2571 25.1142C39.2143 25.7832 39.1857 25.8414 38.8143 25.885C38.5714 25.9141 38.4 25.8559 38.3429 25.7105C38.2571 25.4778 38.5 21.6093 38.6429 20.8821C38.7429 20.4458 39.5714 19.3696 39.8286 19.3696C39.9 19.3696 40.0429 19.2678 40.1429 19.1515C40.2571 19.006 40.5857 18.9333 41.1429 18.9333C41.8714 18.9333 42.0571 18.9915 42.6 19.4132C43.3286 19.9804 43.8429 20.9548 43.8429 21.7838C43.8571 22.6419 44.5 23.1654 44.9714 22.6855C45.0714 22.5837 45.1429 22.1474 45.1429 21.682C45.1429 21.0566 45.0429 20.664 44.7 20.0095C44.2857 19.1951 43.2429 18.0607 42.9143 18.0607C42.8286 18.0607 42.6714 17.9589 42.5714 17.8426C42.3143 17.5226 40.2143 17.5517 39.6429 17.8862ZM45.2857 29.5354C45.2857 30.568 45.7429 30.4953 39.1714 30.4662L33.2143 30.4371L33.1714 29.7099L33.1286 28.9682H39.2H45.2857V29.5354ZM72.5429 33.1858L72.5857 34.6401L49.8286 34.611L27.0857 34.5674L27.1286 33.1858C27.1429 32.4295 27.1857 31.7751 27.2143 31.7315C27.2429 31.6878 37.4429 31.6733 49.8857 31.6878L72.5 31.7315L72.5429 33.1858ZM42.5429 45.4167L42.5 54.8845L36.5286 54.9135C33.2571 54.9135 30.5714 54.8845 30.5714 54.8117C30.5714 54.6808 30.5714 36.1235 30.5714 36.0217C30.5714 35.9781 33.2714 35.949 36.5714 35.949H42.5714L42.5429 45.4167ZM55.8571 36.1235C55.8571 36.1963 55.8571 40.4429 55.8571 45.5767V54.9281H49.8571H43.8571L43.8286 45.504C43.8 40.312 43.8143 36.0363 43.8429 36.0072C43.9571 35.8908 55.8571 36.0217 55.8571 36.1235ZM69.2 36.1963C69.1857 36.2981 69.1714 40.5593 69.1714 45.6494L69.1429 54.9281H63.1429H57.1429V45.4313V35.949L63.1857 35.9781C67.9 36.0072 69.2143 36.0654 69.2 36.1963ZM69.1571 56.4115C69.1571 56.5133 69.1714 57.1387 69.1714 57.7931L69.1857 59.0002H49.8571H30.5286L30.5 57.764C30.5 57.0805 30.5 56.4551 30.5286 56.3824C30.6 56.1497 69.1429 56.1788 69.1571 56.4115Z" fill="#E7B00B"/>
<path d="M41.5534 71.3498H43.1614V77.9018H41.5534V71.3498ZM39.4174 78.0938C41.7574 78.0938 43.2334 78.8978 43.2334 80.2538C43.2334 81.6218 41.7574 82.4258 39.4174 82.4258C37.0774 82.4258 35.6254 81.6218 35.6254 80.2538C35.6254 78.8978 37.0774 78.0938 39.4174 78.0938ZM39.4174 79.3298C37.9774 79.3298 37.2094 79.6298 37.2094 80.2538C37.2094 80.8898 37.9774 81.1778 39.4174 81.1778C40.8694 81.1778 41.6374 80.8898 41.6374 80.2538C41.6374 79.6298 40.8694 79.3298 39.4174 79.3298ZM36.5254 71.8178H37.8454V72.8858C37.8454 75.0098 36.8254 76.9538 34.6654 77.6738L33.8734 76.4018C35.7454 75.7898 36.5254 74.3138 36.5254 72.8858V71.8178ZM36.8494 71.8178H38.1574V72.8858C38.1574 74.2538 38.9374 75.5858 40.7374 76.1258L39.9694 77.3858C37.8334 76.7138 36.8494 74.9378 36.8494 72.8858V71.8178ZM46.1005 72.3098H53.0965V73.5818H46.1005V72.3098ZM44.9725 79.8338H55.0165V81.1418H44.9725V79.8338ZM52.4245 72.3098H53.9965V73.5938C53.9965 75.2138 53.9965 76.7498 53.4805 79.1738L51.9085 79.0298C52.4245 76.7858 52.4245 75.1658 52.4245 73.5938V72.3098ZM52.7605 75.3578V76.5338L45.9685 76.8698L45.7765 75.5858L52.7605 75.3578ZM64.0275 71.3378H65.5395V82.4498H64.0275V71.3378ZM62.5395 75.6098H64.3875V76.8938H62.5395V75.6098ZM61.5435 71.5298H63.0195V81.9218H61.5435V71.5298ZM56.3115 78.6338H57.0915C58.4595 78.6338 59.5995 78.5858 60.9195 78.3458L61.0395 79.6418C59.6955 79.9058 58.5195 79.9418 57.0915 79.9418H56.3115V78.6338ZM56.3115 72.6218H60.4155V73.9058H57.8955V79.2578H56.3115V72.6218Z" fill="#E7B00B"/>
<path d="M40.0806 43.1699C40.0265 43.3054 39.9725 49.5082 40.0157 50.5589C40.0265 50.6606 40.1347 50.8131 40.2753 50.9148C40.47 51.0504 40.5674 51.0335 40.762 50.7962C40.9892 50.4911 41 50.3895 41 47.0169C41 45.1019 40.9676 43.4241 40.9351 43.2716C40.8594 42.9665 40.1888 42.8987 40.0806 43.1699Z" fill="#E7B00B"/>
<path d="M53.259 43.0654C53 43.2 53 43.2168 53 46.9022C53 50.5538 53 50.5875 53.259 50.8399C53.4954 51.0587 53.5404 51.0587 53.7656 50.8063C54.0133 50.537 54.0133 50.4697 53.9908 46.8517C53.957 43.3515 53.9457 43.1664 53.7318 43.0486C53.608 42.9812 53.3941 42.9812 53.259 43.0654Z" fill="#E7B00B"/>
<path d="M62.2444 43.0747C62 43.2091 62 43.2763 62 46.906C62 50.5357 62 50.5861 62.2556 50.8382C62.4778 51.0567 62.5333 51.0567 62.7556 50.8214C63 50.5861 63 50.5189 63 46.8388V43.3557C63 43.2 62.895 43.0639 62.7444 43.0243V43.0243C62.6 42.9739 62.3667 43.0075 62.2444 43.0747Z" fill="#E7B00B"/>
</svg>
