<svg width="80" height="80" viewBox="0 0 80 80" fill="none" xmlns="http://www.w3.org/2000/svg">
<rect x="0.5" y="0.5" width="79" height="79" rx="39.5" fill="#ffffff"/>
<rect x="0.5" y="0.5" width="79" height="79" rx="39.5" stroke="#A6A6A6"/>
<path d="M30.506 9.7444C29.694 10.2219 29.419 10.4474 29.0131 11.031C28.319 12.0124 28.175 12.7419 28.2274 15.01L28.2798 16.9995H27.8869C27.5071 16.9995 27.494 16.9729 27.4286 16.27C27.3893 15.8721 27.3107 15.4609 27.2583 15.3681C26.9179 14.8375 26.0536 15.6201 26.1976 16.3496C26.2631 16.6812 26.2107 16.827 26.0012 17.0127C25.844 17.1454 25.7262 17.3576 25.7262 17.4902C25.7262 17.8749 26.1714 18.0075 27.1274 17.9146C27.9393 17.8351 28.044 17.8616 28.2798 18.1269C28.5286 18.4054 28.5286 18.4187 28.2929 18.6043C28.0833 18.7502 27.625 18.7635 25.9095 18.6972C23.2512 18.5911 23.3036 18.5646 23.4083 20.0103C23.4607 20.7132 23.4476 21.0581 23.3429 21.1244C23.2643 21.1774 22.1512 21.204 20.8679 21.1907C19.1393 21.1642 18.4845 21.204 18.275 21.3366C18.0131 21.4958 18 21.6151 18 23.6975C18 25.236 18.0524 25.9523 18.1571 26.0584C18.2619 26.1645 18.7857 26.2175 19.6631 26.2175H21.0119V37.0537C21.0119 43.0222 21.0119 48.0358 21.0119 48.1949V48.5H39.7905C51.8643 48.5 58.6083 48.4602 58.6607 48.3674C58.7 48.301 58.7393 43.2875 58.7262 37.2261V26.2175H60.1012C61.2143 26.2175 61.5024 26.1777 61.5548 26.0186C61.6071 25.9125 61.7119 25.8196 61.8167 25.8196C61.9607 25.8196 62 25.4085 62 23.6312C62 21.5488 61.9869 21.4427 61.7512 21.4427C61.6071 21.4427 61.45 21.3764 61.4107 21.3101C61.3583 21.2172 57.2464 21.1774 49.1536 21.1774C42.4488 21.1774 36.9095 21.1509 36.844 21.0979C36.7524 21.0448 36.7393 20.7265 36.7917 20.2357C36.844 19.8113 36.844 19.2808 36.7917 19.042L36.7 18.6176L33.0071 18.6707L29.3274 18.7237V18.3258V17.9279H30.4274C31.3964 17.9279 31.5405 17.9014 31.7107 17.6361C31.881 17.3841 31.8679 17.3178 31.6321 17.0791C31.4357 16.8801 31.3571 16.6281 31.3571 16.2169C31.3571 14.7978 30.244 14.9171 30.1524 16.3363C30.1131 16.9464 30.0869 16.9995 29.7464 17.0393C29.5238 17.0658 29.3667 17.0127 29.3143 16.8801C29.2357 16.6679 29.4583 13.1398 29.5893 12.4767C29.681 12.0788 30.4405 11.0973 30.6762 11.0973C30.7417 11.0973 30.8726 11.0044 30.9643 10.8983C31.069 10.7657 31.3702 10.6994 31.881 10.6994C32.5488 10.6994 32.719 10.7524 33.2167 11.1371C33.8845 11.6543 34.356 12.543 34.356 13.299C34.369 14.0815 34.9583 14.559 35.3905 14.1213C35.4821 14.0285 35.5476 13.6306 35.5476 13.2061C35.5476 12.6358 35.456 12.2777 35.1417 11.6809C34.7619 10.9381 33.806 9.90356 33.5048 9.90356C33.4262 9.90356 33.2821 9.81072 33.1905 9.70461C32.9548 9.41282 31.0298 9.43935 30.506 9.7444ZM35.6786 20.3684C35.6786 21.3101 36.0976 21.2438 30.0738 21.2172L24.6131 21.1907L24.5738 20.5275L24.5345 19.8511H30.1H35.6786V20.3684ZM60.6643 23.6975L60.7036 25.0238L39.8429 24.9973L18.9952 24.9575L19.0345 23.6975C19.0476 23.0078 19.0869 22.4109 19.1131 22.3711C19.1393 22.3314 28.4893 22.3181 39.8952 22.3314L60.625 22.3711L60.6643 23.6975ZM33.1643 34.852L33.125 43.4864L27.6512 43.513C24.6524 43.513 22.1905 43.4864 22.1905 43.4201C22.1905 43.3008 22.1905 26.3767 22.1905 26.2838C22.1905 26.244 24.6655 26.2175 27.6905 26.2175H33.1905L33.1643 34.852ZM45.369 26.3767C45.369 26.443 45.369 30.3159 45.369 34.9979V43.5262H39.869H34.369L34.3429 34.9316C34.3167 30.1965 34.3298 26.2971 34.356 26.2706C34.4607 26.1645 45.369 26.2838 45.369 26.3767ZM57.6 26.443C57.5869 26.5358 57.5738 30.422 57.5738 35.0642L57.5476 43.5262H52.0476H46.5476V34.8652V26.2175L52.0869 26.244C56.4083 26.2706 57.6131 26.3236 57.6 26.443ZM57.5607 44.8791C57.5607 44.9719 57.5738 45.5423 57.5738 46.1391L57.5869 47.24H39.869H22.1512L22.125 46.1126C22.125 45.4892 22.125 44.9189 22.1512 44.8526C22.2167 44.6404 57.5476 44.6669 57.5607 44.8791Z" fill="#A6A6A6"/>
<path d="M31.5534 59.468H33.1614V66.02H31.5534V59.468ZM29.4174 66.212C31.7574 66.212 33.2334 67.016 33.2334 68.372C33.2334 69.74 31.7574 70.544 29.4174 70.544C27.0774 70.544 25.6254 69.74 25.6254 68.372C25.6254 67.016 27.0774 66.212 29.4174 66.212ZM29.4174 67.448C27.9774 67.448 27.2094 67.748 27.2094 68.372C27.2094 69.008 27.9774 69.296 29.4174 69.296C30.8694 69.296 31.6374 69.008 31.6374 68.372C31.6374 67.748 30.8694 67.448 29.4174 67.448ZM26.5254 59.936H27.8454V61.004C27.8454 63.128 26.8254 65.072 24.6654 65.792L23.8734 64.52C25.7454 63.908 26.5254 62.432 26.5254 61.004V59.936ZM26.8494 59.936H28.1574V61.004C28.1574 62.372 28.9374 63.704 30.7374 64.244L29.9694 65.504C27.8334 64.832 26.8494 63.056 26.8494 61.004V59.936ZM36.1005 60.428H43.0965V61.7H36.1005V60.428ZM34.9725 67.952H45.0165V69.26H34.9725V67.952ZM42.4245 60.428H43.9965V61.712C43.9965 63.332 43.9965 64.868 43.4805 67.292L41.9085 67.148C42.4245 64.904 42.4245 63.284 42.4245 61.712V60.428ZM42.7605 63.476V64.652L35.9685 64.988L35.7765 63.704L42.7605 63.476ZM54.0275 59.456H55.5395V70.568H54.0275V59.456ZM52.5395 63.728H54.3875V65.012H52.5395V63.728ZM51.5435 59.648H53.0195V70.04H51.5435V59.648ZM46.3115 66.752H47.0915C48.4595 66.752 49.5995 66.704 50.9195 66.464L51.0395 67.76C49.6955 68.024 48.5195 68.06 47.0915 68.06H46.3115V66.752ZM46.3115 60.74H50.4155V62.024H47.8955V67.376H46.3115V60.74Z" fill="#7C7C7C"/>
<path d="M42.6071 34.4521C42.3999 34.5598 42.3999 34.5733 42.3999 37.5215C42.3999 40.4429 42.3999 40.4698 42.6071 40.6717C42.7962 40.8467 42.8322 40.8467 43.0124 40.6448C43.2105 40.4294 43.2105 40.3756 43.1925 37.4811C43.1655 34.681 43.1565 34.5329 42.9854 34.4386C42.8863 34.3848 42.7151 34.3848 42.6071 34.4521Z" fill="#A6A6A6"/>
<path d="M49.7957 34.4596C49.6001 34.5671 49.6001 34.6209 49.6001 37.5246C49.6001 40.4284 49.6001 40.4687 49.8045 40.6704C49.9823 40.8451 50.0268 40.8451 50.2045 40.6569C50.4001 40.4687 50.4001 40.4149 50.4001 37.4709V34.6844C50.4001 34.5598 50.3161 34.4509 50.1957 34.4192V34.4192C50.0801 34.3789 49.8934 34.4058 49.7957 34.4596Z" fill="#A6A6A6"/>
<path d="M31.0645 34.5357C31.0212 34.6442 30.978 39.6064 31.0126 40.4469C31.0212 40.5283 31.1078 40.6503 31.2202 40.7317C31.376 40.8401 31.4539 40.8266 31.6096 40.6368C31.7913 40.3927 31.8 40.3114 31.8 37.6133C31.8 36.0813 31.774 34.7391 31.7481 34.617C31.6875 34.373 31.151 34.3188 31.0645 34.5357Z" fill="#A6A6A6"/>
</svg>
