<svg width="80" height="80" viewBox="0 0 80 80" fill="none" xmlns="http://www.w3.org/2000/svg">
<rect x="0.5" y="0.5" width="79" height="79" rx="39.5" fill="#F1F1F1"/>
<rect x="0.5" y="0.5" width="79" height="79" rx="39.5" stroke="#A6A6A6"/>
<path d="M30.93 58.294V56.7727H38.0977V58.294H35.4258V65.5H33.6019V58.294H30.93ZM40.8548 56.7727L42.9641 63.4034H43.0451L45.1587 56.7727H47.2042L44.1957 65.5H41.8178L38.805 56.7727H40.8548Z" fill="#7C7C7C"/>
<path d="M31.2871 13.1773C31.2871 13.2659 31.1989 13.4178 31.0981 13.5064C30.9972 13.595 30.909 13.7596 30.909 13.8608C30.909 13.9748 31.8165 14.9622 32.9257 16.0508C34.0349 17.1521 34.9424 18.1268 34.9424 18.2281C34.9424 18.3294 34.8542 18.4433 34.7533 18.4939C34.6525 18.5319 34.5643 18.6712 34.5643 18.8104C34.5643 18.9496 34.5139 19.0889 34.4508 19.1395C34.3878 19.1775 34.2996 19.38 34.2492 19.5826L34.1609 19.9623H28.3503L22.5271 19.975L21.7709 20.4054C20.9138 20.8864 20.0567 21.6839 19.7416 22.2789C19.3004 23.1397 19.25 23.8359 19.25 30.4691V36.9883H19.6912H20.1323L20.1953 30.4058C20.2583 23.9498 20.2583 23.8106 20.5356 23.2283C20.8886 22.4561 21.4936 21.8611 22.3255 21.4307L22.9935 21.1016H38.0179C51.0381 21.1016 53.0801 21.1269 53.2943 21.2915C53.4204 21.3928 53.622 21.4814 53.7229 21.4814C53.9624 21.4814 54.8321 22.2536 55.0589 22.646C55.727 23.8486 55.7396 23.9119 55.7396 26.5069C55.7396 29.2158 55.727 29.1779 56.5588 29.026L57 28.9374V26.4816C57 24.4688 56.9622 24.0131 56.8235 24.0131C56.6471 24.0131 56.4958 23.646 56.4958 23.165C56.4958 22.3295 55.2732 20.9371 54.0128 20.3421L53.2061 19.9623L47.635 19.9244L42.0765 19.899L41.8622 19.2028C41.7487 18.8231 41.5975 18.4939 41.5093 18.4686C41.0933 18.3294 41.4967 17.785 43.2613 16.1014C45.2275 14.2153 45.5679 13.7469 45.1519 13.4684C45.0133 13.3925 44.8998 13.2532 44.8998 13.1646C44.8998 13.076 44.8116 13.0001 44.7108 13.0001C44.6099 13.0001 44.5217 13.0507 44.5217 13.1013C44.5217 13.1646 43.6016 14.1267 42.4924 15.2533C40.9169 16.8356 40.4127 17.2787 40.2866 17.1648C39.7321 16.7091 39.127 16.5318 38.1313 16.5192C37.1104 16.5192 36.6818 16.6458 36.0516 17.1648C35.8499 17.3167 35.6356 17.1394 33.8962 15.3546C32.8249 14.2659 31.8922 13.3798 31.8039 13.3798C31.7283 13.3798 31.6653 13.2912 31.6653 13.1899C31.6653 13.0887 31.577 13.0001 31.4762 13.0001C31.3754 13.0001 31.2871 13.076 31.2871 13.1773ZM39.3917 17.899C39.9841 18.2281 40.3497 18.5699 40.7026 19.1142C41.232 19.9623 41.2194 19.9623 38.0935 19.9623C35.4466 19.9623 35.3205 19.9497 35.3205 19.7218C35.3205 19.38 36.0516 18.456 36.644 18.0382C37.0851 17.7344 37.2742 17.6964 38.0683 17.6838C38.7237 17.6838 39.1144 17.7471 39.3917 17.899Z" fill="#A6A6A6"/>
<path d="M32.4862 22.8405C30.1764 22.942 29.3593 23.0182 27.7251 23.2975C27.4737 23.3356 26.9866 23.5006 26.6252 23.6656C26.2638 23.8306 25.8238 24.021 25.651 24.0845C25.4624 24.148 24.8967 24.5669 24.3782 25.0239C22.7754 26.4075 22.3826 27.3723 22.0369 30.7616C21.7384 33.7828 21.7384 34.4936 22.0369 37.4894C22.2726 39.7743 22.6969 41.5007 23.074 41.6911C23.1525 41.7292 23.2154 41.8689 23.2154 42.0085C23.2154 42.2878 25.321 44.0776 25.9024 44.2807C26.1066 44.3442 26.3895 44.4584 26.5152 44.5219C27.1437 44.8139 27.9922 45.0424 28.4636 45.0424C28.7622 45.0424 29.5636 45.1312 30.2392 45.2328C31.9991 45.4994 43.7055 45.512 45.764 45.2328C46.5496 45.1312 47.4138 45.0424 47.6967 45.0424C47.9795 45.0424 48.3252 44.9916 48.4824 44.9154C48.6238 44.852 49.158 44.6489 49.6608 44.4584C50.6036 44.1157 51.5464 43.4556 52.3635 42.567C53.4163 41.4246 53.652 40.7137 53.9663 37.8702C54.2806 34.7602 54.0606 29.1367 53.542 27.6515C52.7721 25.4555 50.7922 23.8433 48.0895 23.2467C46.3139 22.8532 37.3259 22.6247 32.4862 22.8405ZM44.5855 24.0845C47.1624 24.1988 47.6338 24.2749 48.9852 24.77C49.7394 25.0493 51.2479 26.179 51.4993 26.6614C51.5779 26.8264 51.7193 27.0422 51.7979 27.1438C52.1435 27.6388 52.3164 28.3624 52.4892 30.0634C52.9449 34.5825 52.5364 40.4344 51.7036 41.2469C51.5936 41.3484 51.4993 41.5007 51.4993 41.5769C51.4993 41.9069 49.7866 43.189 48.9852 43.4683C48.8595 43.5064 48.5452 43.6206 48.2781 43.7095C47.2567 44.0649 45.0569 44.1919 39.0072 44.2553C31.2763 44.3188 28.5265 44.1157 26.9866 43.3795C26.8609 43.316 26.6095 43.2144 26.4366 43.151C26.0438 43.0113 24.7867 41.9323 24.5039 41.488C23.8596 40.4979 23.6868 39.6855 23.3882 35.8773C23.184 33.5035 23.5925 28.5909 24.0482 27.5881C24.6453 26.306 25.5724 25.4682 27.1437 24.7446C27.9294 24.3892 29.7207 24.0972 31.3077 24.0845C32.172 24.0718 33.5233 24.021 34.2933 23.9703C35.8489 23.856 40.5629 23.9068 44.5855 24.0845Z" fill="#A6A6A6"/>
<path d="M55.8907 30.3677C55.7772 30.4817 55.7394 32.2159 55.7394 37.3806C55.7394 43.9252 55.7268 44.2543 55.4873 44.7986C55.1596 45.5455 54.3655 46.4316 53.7731 46.7228C53.4958 46.862 53.1681 47.0266 53.0295 47.1025C52.853 47.2038 48.5549 47.2544 38.2824 47.2797L23.8 47.3051L22.9177 47.0392C22.1993 46.8114 21.9094 46.6342 21.38 46.1025C20.296 45.0138 20.2708 44.9126 20.1952 41.4314C20.1448 38.7351 20.107 38.3933 19.9179 38.2668C19.754 38.1655 19.628 38.1655 19.4767 38.2668C19.2751 38.3933 19.2499 38.6845 19.2625 41.3681C19.2751 43.0011 19.3255 44.6088 19.4011 44.9632C19.6532 46.3303 20.7876 47.4823 22.59 48.2038C22.8673 48.3051 23.5353 48.381 24.3294 48.381C25.7411 48.3937 25.8671 48.4443 25.8671 49.1153C25.8671 49.9381 26.6486 50.6723 27.5687 50.7229C28.8166 50.7989 29.0812 50.7356 29.5602 50.2672C29.8627 49.9634 30.0518 49.6089 30.1526 49.1912C30.2408 48.8494 30.3543 48.5456 30.4173 48.5076C30.4677 48.4697 33.8835 48.4317 37.9925 48.4317H45.4669L45.6812 48.9127C45.7946 49.1785 45.8954 49.4824 45.8954 49.5963C45.908 49.7102 46.1223 50.0014 46.3744 50.2545C46.7399 50.6343 46.929 50.7229 47.3449 50.7356C48.8196 50.7862 49.3994 50.5837 49.8154 49.8621C49.954 49.6343 50.0675 49.2925 50.0675 49.1026C50.0675 48.4443 50.1935 48.3937 51.6052 48.381C52.8026 48.381 53.3824 48.2671 53.9748 47.9253C54.0756 47.862 54.2773 47.7608 54.416 47.6975C55.2983 47.3051 56.4957 45.7227 56.4957 44.9632C56.4957 44.786 56.6091 44.5328 56.7478 44.3936C56.9999 44.1404 56.9999 43.9758 56.9999 37.33V30.5323L56.6595 30.3677C56.231 30.1779 56.0797 30.1779 55.8907 30.3677ZM29.2325 48.5203C29.2703 48.6342 29.2451 48.8241 29.1569 48.938C29.0812 49.052 28.9804 49.2418 28.9426 49.3558C28.7787 49.8241 27.7578 49.9507 27.2788 49.5456C27.0519 49.3684 26.7368 48.5709 26.8251 48.4317C26.8629 48.3684 27.4049 48.3178 28.0225 48.3178C28.9552 48.3178 29.1695 48.3557 29.2325 48.5203ZM49.1221 48.4443C49.2608 48.6722 48.8322 49.4444 48.4415 49.6343C48.0004 49.8748 47.7861 49.8874 47.3953 49.6976C47.0676 49.5583 46.6643 48.9254 46.6643 48.5583C46.6643 48.3431 46.7651 48.3178 47.8491 48.3178C48.5045 48.3178 49.0717 48.3684 49.1221 48.4443Z" fill="#A6A6A6"/>
</svg>
