<svg width="100" height="100" viewBox="0 0 100 100" fill="none" xmlns="http://www.w3.org/2000/svg">
<rect x="1" y="1" width="98" height="98" rx="49" fill="white"/>
<rect x="1" y="1" width="98" height="98" rx="49" stroke="#A6A6A6" stroke-width="2"/>
<path d="M41.8489 16.2112C41.8489 16.3169 41.7437 16.4979 41.6235 16.6036C41.5033 16.7092 41.3982 16.9054 41.3982 17.0261C41.3982 17.1619 42.48 18.3389 43.8022 19.6366C45.1244 20.9494 46.2062 22.1114 46.2062 22.2321C46.2062 22.3528 46.101 22.4886 45.9808 22.549C45.8606 22.5942 45.7554 22.7602 45.7554 22.9262C45.7554 23.0922 45.6953 23.2582 45.6202 23.3186C45.5451 23.3638 45.4399 23.6053 45.3798 23.8467L45.2746 24.2994H38.3481L31.4065 24.3145L30.505 24.8275C29.4833 25.4009 28.4616 26.3516 28.086 27.0608C27.5601 28.0869 27.5 28.9169 27.5 36.824V44.5952H28.0259H28.5518L28.6269 36.7485C28.702 29.0527 28.702 28.8867 29.0326 28.1926C29.4533 27.2721 30.1745 26.5629 31.1661 26.0498L31.9624 25.6575H49.8723C65.3932 25.6575 67.8272 25.6877 68.0826 25.8838C68.2329 26.0045 68.4733 26.1102 68.5935 26.1102C68.879 26.1102 69.9157 27.0306 70.1861 27.4984C70.9825 28.932 70.9975 29.0074 70.9975 32.1008C70.9975 35.3301 70.9825 35.2848 71.9741 35.1037L72.5 34.9981V32.0707C72.5 29.6714 72.4549 29.1281 72.2896 29.1281C72.0793 29.1281 71.899 28.6905 71.899 28.1171C71.899 27.1212 70.4416 25.4613 68.9391 24.7521L67.9775 24.2994L61.3364 24.2541L54.7104 24.2239L54.4549 23.394C54.3197 22.9413 54.1394 22.549 54.0342 22.5188C53.5384 22.3528 54.0192 21.7039 56.1227 19.697C58.4666 17.4486 58.8723 16.8903 58.3765 16.5583C58.2112 16.4678 58.076 16.3018 58.076 16.1961C58.076 16.0905 57.9708 16 57.8506 16C57.7304 16 57.6252 16.0603 57.6252 16.1207C57.6252 16.1961 56.5284 17.343 55.2062 18.686C53.328 20.5722 52.727 21.1003 52.5768 20.9645C51.9157 20.4213 51.1945 20.21 50.0075 20.195C48.7905 20.195 48.2796 20.3459 47.5284 20.9645C47.288 21.1456 47.0326 20.9344 44.9591 18.8067C43.682 17.509 42.5701 16.4527 42.4649 16.4527C42.3748 16.4527 42.2997 16.347 42.2997 16.2263C42.2997 16.1056 42.1945 16 42.0743 16C41.9541 16 41.8489 16.0905 41.8489 16.2112ZM51.51 21.8397C52.2162 22.2321 52.6519 22.6395 53.0726 23.2884C53.7037 24.2994 53.6886 24.2994 49.9624 24.2994C46.8072 24.2994 46.6569 24.2843 46.6569 24.0127C46.6569 23.6053 47.5284 22.5037 48.2346 22.0057C48.7604 21.6436 48.9858 21.5983 49.9324 21.5832C50.7137 21.5832 51.1795 21.6587 51.51 21.8397Z" fill="#A6A6A6"/>
<path d="M43.2783 27.7307C40.5248 27.8517 39.5508 27.9425 37.6027 28.2754C37.303 28.3208 36.7224 28.5175 36.2916 28.7142C35.8608 28.911 35.3363 29.1379 35.1302 29.2136C34.9055 29.2892 34.2311 29.7886 33.613 30.3334C31.7025 31.9827 31.2342 33.1328 30.8221 37.173C30.4662 40.7744 30.4662 41.6218 30.8221 45.1929C31.1031 47.9167 31.6088 49.9746 32.0583 50.2016C32.152 50.247 32.2269 50.4135 32.2269 50.5799C32.2269 50.9128 34.7369 53.0464 35.4299 53.2885C35.6734 53.3642 36.0106 53.5004 36.1604 53.5761C36.9097 53.9241 37.9212 54.1965 38.4831 54.1965C38.839 54.1965 39.7943 54.3024 40.5997 54.4234C42.6976 54.7412 56.6522 54.7563 59.106 54.4234C60.0426 54.3024 61.0728 54.1965 61.4099 54.1965C61.7471 54.1965 62.1592 54.1359 62.3465 54.0451C62.5151 53.9695 63.1519 53.7274 63.7513 53.5004C64.8752 53.0918 65.999 52.305 66.973 51.2457C68.228 49.8839 68.509 49.0365 68.8836 45.6469C69.2582 41.9396 68.996 35.2361 68.3779 33.4657C67.4601 30.8478 65.0999 28.9261 61.8782 28.2149C59.7616 27.7458 49.0474 27.4734 43.2783 27.7307ZM57.7012 29.2136C60.7731 29.3498 61.335 29.4406 62.9459 30.0307C63.845 30.3636 65.6431 31.7104 65.9428 32.2854C66.0365 32.4821 66.2051 32.7393 66.2987 32.8604C66.7108 33.4505 66.9169 34.3131 67.1229 36.3407C67.6661 41.7277 67.1791 48.7036 66.1863 49.672C66.0552 49.7931 65.9428 49.9746 65.9428 50.0654C65.9428 50.4589 63.9012 51.9872 62.9459 52.3201C62.796 52.3655 62.4214 52.5017 62.103 52.6076C60.8855 53.0313 58.2631 53.1826 51.0516 53.2583C41.836 53.3339 38.558 53.0918 36.7224 52.2142C36.5725 52.1385 36.2728 52.0175 36.0668 51.9418C35.5985 51.7754 34.1 50.4891 33.7629 49.9595C32.9949 48.7792 32.7889 47.8108 32.433 43.2712C32.1895 40.4415 32.6765 34.5854 33.2197 33.39C33.9315 31.8617 35.0366 30.863 36.9097 30.0005C37.8462 29.5768 39.9816 29.2287 41.8734 29.2136C42.9036 29.1985 44.5145 29.1379 45.4323 29.0774C47.2867 28.9412 52.906 29.0017 57.7012 29.2136Z" fill="#A6A6A6"/>
<path d="M71.1777 36.7033C71.0425 36.8391 70.9974 38.9064 70.9974 45.063C70.9974 52.8645 70.9824 53.2568 70.6969 53.9057C70.3062 54.796 69.3597 55.8523 68.6535 56.1993C68.3229 56.3653 67.9323 56.5615 67.767 56.652C67.5567 56.7727 62.4331 56.8331 50.1877 56.8633L32.9239 56.8935L31.8722 56.5766C31.0158 56.3049 30.6702 56.0937 30.0391 55.4599C28.747 54.1622 28.7169 54.0415 28.6268 49.8918C28.5667 46.6776 28.5216 46.2702 28.2962 46.1193C28.1009 45.9986 27.9507 45.9986 27.7704 46.1193C27.53 46.2702 27.4999 46.6173 27.5149 49.8163C27.53 51.7629 27.5901 53.6793 27.6802 54.1018C27.9807 55.7315 29.333 57.1047 31.4815 57.9648C31.8121 58.0855 32.6084 58.1761 33.555 58.1761C35.2378 58.1912 35.3881 58.2515 35.3881 59.0513C35.3881 60.0321 36.3196 60.9073 37.4164 60.9677C38.9039 61.0582 39.2194 60.9828 39.7904 60.4245C40.151 60.0623 40.3764 59.6398 40.4966 59.1418C40.6017 58.7344 40.737 58.3723 40.8121 58.327C40.8722 58.2817 44.944 58.2364 49.8421 58.2364H58.752L59.0074 58.8099C59.1426 59.1267 59.2628 59.4889 59.2628 59.6247C59.2779 59.7605 59.5333 60.1076 59.8338 60.4094C60.2695 60.8621 60.4949 60.9677 60.9907 60.9828C62.7487 61.0432 63.4398 60.8017 63.9356 59.9416C64.1009 59.67 64.2361 59.2626 64.2361 59.0362C64.2361 58.2515 64.3864 58.1912 66.0692 58.1761C67.4966 58.1761 68.1877 58.0403 68.8939 57.6329C69.0141 57.5574 69.2545 57.4367 69.4198 57.3612C70.4715 56.8935 71.8989 55.0072 71.8989 54.1018C71.8989 53.8906 72.0341 53.5888 72.1994 53.4228C72.4999 53.121 72.4999 52.9248 72.4999 45.0027V36.8994L72.0942 36.7033C71.5834 36.4769 71.4031 36.4769 71.1777 36.7033ZM39.3997 58.3421C39.4448 58.4779 39.4148 58.7042 39.3096 58.84C39.2194 58.9758 39.0992 59.2022 39.0542 59.338C38.8588 59.8963 37.6418 60.0472 37.0709 59.5644C36.8004 59.3531 36.4248 58.4024 36.53 58.2364C36.575 58.161 37.2211 58.1006 37.9573 58.1006C39.0692 58.1006 39.3246 58.1459 39.3997 58.3421ZM63.1093 58.2515C63.2745 58.5232 62.7637 59.4436 62.2979 59.67C61.772 59.9567 61.5166 59.9718 61.0508 59.7454C60.6602 59.5794 60.1794 58.8249 60.1794 58.3873C60.1794 58.1308 60.2996 58.1006 61.5917 58.1006C62.373 58.1006 63.0492 58.161 63.1093 58.2515Z" fill="#A6A6A6"/>
<path d="M41.93 75.794V74.2727H49.0977V75.794H46.4258V83H44.6019V75.794H41.93ZM51.8548 74.2727L53.9641 80.9034H54.0451L56.1587 74.2727H58.2042L55.1957 83H52.8178L49.805 74.2727H51.8548Z" fill="#A6A6A6"/>
</svg>
