<svg width="80" height="80" viewBox="0 0 80 80" fill="none" xmlns="http://www.w3.org/2000/svg">
<rect x="0.5" y="0.5" width="79" height="79" rx="39.5" fill="#ffffff"/>
<rect x="0.5" y="0.5" width="79" height="79" rx="39.5" stroke="#A6A6A6"/>
<path d="M29.3014 57.688H31.1374V58.984H29.3014V57.688ZM26.9254 54.916H28.1494V56.788C28.1494 59.308 27.4534 61.768 25.6774 62.86L24.7174 61.66C26.3494 60.652 26.9254 58.672 26.9254 56.788V54.916ZM27.2734 54.916H28.4734V56.716C28.4734 58.528 28.9414 60.376 30.4534 61.36L29.5894 62.608C27.8254 61.516 27.2734 59.116 27.2734 56.716V54.916ZM32.9494 53.956H34.4734V65.068H32.9494V53.956ZM30.6934 54.124H32.1814V64.564H30.6934V54.124ZM36.3685 58.996H37.2925C39.4525 58.996 40.7245 58.948 42.1765 58.696L42.3445 59.944C40.8565 60.208 39.5125 60.256 37.2925 60.256H36.3685V58.996ZM36.3685 54.676H41.5885V55.948H37.9645V59.404H36.3685V54.676ZM37.4725 56.836H41.3485V58.072H37.4725V56.836ZM43.1125 53.956H44.7085V60.664H43.1125V53.956ZM44.2645 56.644H46.1845V57.964H44.2645V56.644ZM37.2925 61.132H44.7085V65.068H43.1125V62.404H37.2925V61.132ZM54.6555 53.956H56.2635V65.068H54.6555V53.956ZM51.3795 55.108H52.9635C52.9635 58.504 51.8115 61.288 47.8635 63.196L47.0355 61.924C50.2275 60.388 51.3795 58.372 51.3795 55.396V55.108ZM47.6235 55.108H52.1355V56.368H47.6235V55.108Z" fill="#7C7C7C"/>
<path d="M25.7992 13.2381C25.7992 13.4166 25.7092 13.4761 25.4394 13.4761C24.9767 13.4761 24.4627 13.9641 24.2056 14.6664C24.0257 15.1425 24 16.9874 24 30.6994C24 40.9 24.0386 46.2205 24.1285 46.2682C24.2056 46.3039 24.257 46.4943 24.257 46.6847C24.257 47.0656 25.0024 47.756 25.4137 47.756C25.5422 47.756 25.6964 47.8036 25.7349 47.875C25.8506 48.0417 53.8924 48.0417 54.008 47.875C54.0466 47.8036 54.2137 47.756 54.3807 47.756C54.7663 47.756 55.3317 47.1847 55.4988 46.649C55.5759 46.3991 55.7044 46.2086 55.8072 46.2086C55.9743 46.2086 56 44.1733 56 30.628C56 15.1544 56 15.0473 55.743 14.9878C55.5631 14.9401 55.4859 14.8211 55.4859 14.5712C55.4859 14.1546 54.7534 13.4761 54.3165 13.4761C54.1623 13.4761 54.0209 13.3809 53.9823 13.2381C53.9181 13 53.8024 13 39.8586 13C25.8892 13 25.7992 13 25.7992 13.2381ZM53.9566 14.9282C54.2137 15.202 54.2137 15.4282 54.2137 30.6637C54.2137 44.5423 54.188 46.1491 54.008 46.3158C53.8281 46.4824 52.3245 46.5062 39.9229 46.5419L26.4103 46.5651C26.1756 46.5655 25.9507 46.4713 25.7863 46.3039C25.5293 46.0301 25.5293 45.8397 25.5293 30.5803C25.5293 23.2811 25.5578 17.0794 25.5984 15.4367C25.6054 15.1507 25.7122 14.8884 25.9791 14.7854C26.1205 14.7259 32.4305 14.6783 39.9743 14.6783L53.3544 14.6667C53.5828 14.6665 53.8009 14.7612 53.9566 14.9282Z" fill="#A6A6A6"/>
<path d="M44.0733 17.3208C43.572 17.6302 43.1479 18.2492 43.1479 18.6658C43.1479 18.9871 43.405 19.4276 43.9062 19.9275C44.1761 20.2131 44.3303 20.2607 44.8957 20.2607C45.3327 20.2607 45.6154 20.2012 45.7182 20.0822C45.8082 19.987 45.9367 19.9037 46.001 19.9037C46.3351 19.9037 46.605 19.3561 46.6178 18.6896C46.6178 18.0349 46.605 18.0111 46.0267 17.535C45.3198 16.9637 44.7544 16.9042 44.0733 17.3208Z" fill="#A6A6A6"/>
<path d="M49.086 17.3208C48.5206 17.6778 48.1607 18.3682 48.2892 18.8681C48.4563 19.4871 48.5463 19.6418 48.9961 19.9513C49.3302 20.1893 49.5744 20.2607 50.0499 20.2607C50.6924 20.2488 51.0009 20.0941 51.4121 19.5466C51.7334 19.1062 51.6949 18.1421 51.335 17.7493C50.641 17.0113 49.8314 16.8566 49.086 17.3208Z" fill="#A6A6A6"/>
<path d="M38.6502 22.7601C38.1233 22.7959 37.5578 22.8911 37.4036 22.9744C37.2494 23.0458 36.9924 23.1172 36.8253 23.1172C36.6582 23.1172 36.4012 23.2006 36.2599 23.2958C36.1313 23.391 35.9257 23.4743 35.8101 23.4743C35.6944 23.4743 35.5273 23.5576 35.4374 23.6529C35.3474 23.7481 35.1932 23.8314 35.0904 23.8314C34.8719 23.8314 33.5611 24.736 32.7643 25.4264C32.186 25.9263 31.1193 27.307 30.8751 27.8783C30.8237 27.9735 30.7337 28.1402 30.6695 28.2354C30.6052 28.3306 30.5281 28.4616 30.5024 28.533C30.4896 28.5925 30.3868 28.8424 30.2968 29.0686C30.2068 29.2948 30.0912 29.7233 30.0398 30.0208C29.9884 30.3184 29.8727 30.8778 29.7956 31.2706C29.5129 32.6751 30.0655 35.258 30.9522 36.6864C31.0165 36.7816 31.1064 36.9482 31.1578 37.0434C31.2992 37.341 32.3787 38.6265 32.8542 39.0669C33.4968 39.6501 34.5892 40.4 35.0518 40.5666C35.1546 40.6024 35.3346 40.6738 35.4374 40.7333C36.6582 41.3998 37.5707 41.6022 39.6141 41.6498C41.0277 41.6974 41.5803 41.6617 42.1844 41.507C43.0582 41.2808 43.8936 40.9951 44.1763 40.8404C44.2791 40.7809 44.5233 40.6738 44.7289 40.6024C44.9217 40.5309 45.0759 40.4238 45.0759 40.3643C45.0759 40.3048 45.1402 40.2572 45.2173 40.2572C45.6028 40.2572 47.5048 38.5908 48.1346 37.6981C48.6229 37.0077 48.7771 36.7697 48.8671 36.5673C48.9185 36.4721 49.0342 36.246 49.137 36.0674C49.2398 35.9008 49.3169 35.6508 49.3169 35.5318C49.3169 35.4128 49.3683 35.258 49.4454 35.1866C49.651 34.9962 50.0109 32.9965 49.998 32.1038C49.9723 30.7112 49.4583 28.8544 48.7771 27.7593C48.7257 27.6641 48.6358 27.4974 48.5844 27.4022C48.5458 27.307 48.2374 26.9023 47.9161 26.5095C47.145 25.5454 46.3225 24.8431 45.2173 24.1647C44.9089 23.9623 44.8189 23.9266 44.4076 23.7719C44.3177 23.7362 44.1506 23.6648 44.0478 23.6171C43.4181 23.2839 42.9683 23.1172 42.737 23.1172C42.5956 23.1172 42.3 23.0458 42.0815 22.9506C41.6189 22.7482 40.0896 22.6768 38.6502 22.7601ZM41.6831 24.4265C42.2358 24.5575 42.7498 24.7241 42.8141 24.7836C42.8912 24.855 43.0711 24.9026 43.2253 24.9026C43.3795 24.9026 43.5723 24.986 43.6623 25.0812C43.7522 25.1764 43.8807 25.2597 43.945 25.2597C44.2406 25.2597 45.5771 26.2715 46.2454 27.0213C46.9522 27.795 46.9137 27.7593 47.235 28.3544C47.402 28.652 47.5819 28.9734 47.6334 29.0686C47.6976 29.1638 47.8518 29.5685 47.9803 29.9613C48.3273 30.9968 48.3016 33.6035 47.9418 34.5796C47.8004 34.9605 47.6205 35.3294 47.5305 35.4128C47.4534 35.4842 47.3892 35.627 47.3892 35.7341C47.3892 35.8532 47.2221 36.1626 47.0036 36.4245C46.7852 36.6983 46.6181 36.9601 46.6181 37.0196C46.6181 37.1506 45.2558 38.3527 44.6261 38.7812C43.6237 39.4478 42.647 39.8168 41.0534 40.0905C39.9482 40.281 39.7169 40.281 38.9972 40.15C38.5603 40.0548 37.9691 39.9477 37.6864 39.9001C37.4036 39.8644 37.0309 39.7573 36.851 39.662C36.6711 39.5787 36.4398 39.4597 36.337 39.4121C36.2342 39.3526 35.8872 39.1859 35.5787 39.0431C35.0261 38.7812 33.8052 37.7576 33.1241 36.9839C32.7129 36.5197 32.1474 35.508 31.8004 34.6034C31.5691 33.9963 31.5305 33.6273 31.5305 32.1633C31.5434 30.7945 31.5819 30.3541 31.749 30.0565C31.8775 29.8423 31.9675 29.5685 31.9675 29.4495C31.9675 29.3305 32.1089 28.9853 32.2888 28.6996C32.4558 28.4139 32.6615 28.0688 32.7257 27.9378C33.0599 27.2713 35.3731 25.2597 35.7972 25.2597C35.8615 25.2597 35.99 25.1764 36.0799 25.0812C36.1699 24.986 36.3627 24.9026 36.5169 24.9026C36.6711 24.9026 36.8639 24.8431 36.941 24.7717C37.1595 24.5694 38.9201 24.2123 39.8197 24.2004C40.2952 24.1885 41.1048 24.2956 41.6831 24.4265Z" fill="#A6A6A6"/>
<path d="M41.6 33.4751C41.6 33.8928 41.4314 34.2934 41.1314 34.5888C40.8313 34.8842 40.4243 35.0501 40 35.0501" stroke="#A6A6A6" stroke-linecap="round" stroke-linejoin="round"/>
<path d="M43.2003 33.7429C43.2003 35.6188 41.9641 36.7997 40.0003 36.7997C38.0365 36.7997 36.8003 35.6188 36.8003 33.7429C36.8003 31.7299 39.0943 29.0123 39.7978 28.2263C39.8229 28.1983 39.8539 28.1759 39.8889 28.1605C39.9239 28.1452 39.9619 28.1372 40.0004 28.1372C40.0389 28.1372 40.0769 28.1452 40.1119 28.1605C40.1469 28.1759 40.1779 28.1983 40.203 28.2263C40.9063 29.0123 43.2003 31.7299 43.2003 33.7429Z" stroke="#A6A6A6" stroke-width="1.5" stroke-miterlimit="10"/>
</svg>
