<svg width="24" height="24" viewBox="0 0 24 24" fill="none" xmlns="http://www.w3.org/2000/svg">
<path d="M8.64918 12.7499C8.64918 10.8997 10.149 9.39988 11.9992 9.39988C13.8493 9.39988 15.3492 10.8997 15.3492 12.7499C15.3492 14.6 13.8493 16.0999 11.9992 16.0999C10.149 16.0999 8.64918 14.6 8.64918 12.7499Z" fill="white"/>
<path fill-rule="evenodd" clip-rule="evenodd" d="M10.6587 2.60003L13.3408 2.60003C13.8032 2.59962 14.1932 2.59928 14.5663 2.69964C14.8942 2.78785 15.2041 2.93297 15.4818 3.12838C15.7977 3.3507 16.0472 3.65052 16.3429 4.00598L17.6715 5.60008L18.3349 5.60008C18.8648 5.60006 19.316 5.60005 19.6864 5.63032C20.0756 5.66211 20.4542 5.73175 20.8161 5.91616C21.3618 6.19419 21.8054 6.63784 22.0835 7.18351C22.2679 7.54544 22.3375 7.92403 22.3693 8.31319C22.3996 8.68362 22.3995 9.13478 22.3995 9.66464V17.3355C22.3995 17.8653 22.3996 18.3165 22.3693 18.687C22.3375 19.0761 22.2679 19.4547 22.0835 19.8167C21.8054 20.3623 21.3618 20.806 20.8161 21.084C20.4542 21.2684 20.0756 21.338 19.6864 21.3698C19.316 21.4001 18.8648 21.4001 18.335 21.4001H5.66419C5.13434 21.4001 4.68314 21.4001 4.31272 21.3698C3.92356 21.338 3.54496 21.2684 3.18303 21.084C2.63737 20.806 2.19372 20.3623 1.91569 19.8167C1.73128 19.4547 1.66164 19.0761 1.62985 18.687C1.59958 18.3165 1.5996 17.8654 1.59961 17.3355V9.66468C1.5996 9.13483 1.59958 8.68361 1.62985 8.31319C1.66164 7.92403 1.73128 7.54544 1.91569 7.18351C2.19372 6.63784 2.63737 6.19419 3.18303 5.91616C3.54496 5.73175 3.92356 5.66211 4.31272 5.63032C4.68315 5.60005 5.13433 5.60006 5.6642 5.60008L6.32849 5.60008L7.65609 4.00656C7.95184 3.65096 8.20129 3.35102 8.51728 3.12861C8.79503 2.93311 9.10496 2.78793 9.43294 2.69968C9.80609 2.59928 10.1962 2.59962 10.6587 2.60003ZM11.9992 7.59988C9.15491 7.59988 6.84919 9.90561 6.84919 12.7499C6.84919 15.5941 9.15491 17.8999 11.9992 17.8999C14.8434 17.8999 17.1491 15.5941 17.1491 12.7499C17.1491 9.90561 14.8434 7.59988 11.9992 7.59988Z" fill="white"/>
</svg>
