<svg width="24" height="24" viewBox="0 0 24 24" fill="none" xmlns="http://www.w3.org/2000/svg">
<path d="M8.66406 4.3125H8.46875C8.57617 4.3125 8.66406 4.22813 8.66406 4.125V4.3125ZM8.66406 4.3125H16.0859V4.125C16.0859 4.22813 16.1738 4.3125 16.2812 4.3125H16.0859V6H17.8438V4.125C17.8438 3.29766 17.1431 2.625 16.2812 2.625H8.46875C7.60693 2.625 6.90625 3.29766 6.90625 4.125V6H8.66406V4.3125ZM20.9688 6H3.78125C3.34912 6 3 6.33516 3 6.75V7.5C3 7.60313 3.08789 7.6875 3.19531 7.6875H4.66992L5.27295 19.9453C5.31201 20.7445 6.00049 21.375 6.83301 21.375H17.917C18.752 21.375 19.438 20.7469 19.4771 19.9453L20.0801 7.6875H21.5547C21.6621 7.6875 21.75 7.60313 21.75 7.5V6.75C21.75 6.33516 21.4009 6 20.9688 6ZM17.729 19.6875H7.021L6.43018 7.6875H18.3198L17.729 19.6875Z" fill="#757575"/>
</svg>
