<svg width="68" height="68" viewBox="0 0 68 68" fill="none" xmlns="http://www.w3.org/2000/svg">
<circle cx="34" cy="34" r="34" fill="#F1F1F1"/>
<path d="M25.7846 36.1395L24.8389 42.5857C24.6546 43.8421 25.6099 44.9771 26.8793 45.01L39.9371 45.348C41.233 45.3816 42.2546 44.2535 42.0931 42.9673L41.1077 35.1196L43.8206 36.1646C44.3361 36.3632 44.9207 36.1969 45.2545 35.7568C45.6669 35.2131 45.5627 34.4385 45.0213 34.0232L35.2889 26.5577C34.5286 25.9746 33.4714 25.9746 32.7111 26.5577L23.078 33.9471C22.4804 34.4055 22.3622 35.2591 22.8128 35.8626C23.1181 36.2714 23.6245 36.4779 24.1286 36.3989L25.7846 36.1395Z" fill="#A6A6A6"/>
<path d="M33.694 25.5916C33.4828 24.9553 33.1872 24.3614 32.7226 24.022C32.2581 23.6826 31.329 23.4705 30.1465 23.6826C30.4421 24.6583 30.9067 25.2098 31.4134 25.4643C31.9625 25.7613 32.8493 25.7613 33.694 25.5916Z" fill="#A6A6A6"/>
<path d="M34.046 25.5453C34.0266 24.9455 34.1885 24.3539 34.5105 23.8484C34.8906 23.4242 35.4396 23.0424 36.5799 23C36.5377 23.9757 36.2843 24.5272 35.862 24.9514C35.4396 25.2908 34.8484 25.5029 34.046 25.5453Z" fill="#A6A6A6"/>
<path d="M33.694 25.5916C33.4828 24.9553 33.1872 24.3614 32.7226 24.022C32.2581 23.6826 31.329 23.4705 30.1465 23.6826C30.4421 24.6583 30.9067 25.2098 31.4134 25.4643C31.9625 25.7613 32.8493 25.7613 33.694 25.5916Z" stroke="#A6A6A6" stroke-width="0.176471" stroke-linecap="round" stroke-linejoin="round"/>
<path d="M34.046 25.5453C34.0266 24.9455 34.1885 24.3539 34.5105 23.8484C34.8906 23.4242 35.4396 23.0424 36.5799 23C36.5377 23.9757 36.2843 24.5272 35.862 24.9514C35.4396 25.2908 34.8484 25.5029 34.046 25.5453Z" stroke="#A6A6A6" stroke-width="0.176471" stroke-linecap="round" stroke-linejoin="round"/>
</svg>
