<svg width="25" height="25" viewBox="0 0 38 38" fill="none" xmlns="http://www.w3.org/2000/svg">
<path d="M29.168 37.6731H2.7916C1.90625 37.6731 1.18848 36.9553 1.18848 36.07V3.25303C1.18848 2.36767 1.90625 1.6499 2.7916 1.6499H29.168C30.0533 1.6499 30.7711 2.36767 30.7711 3.25303V36.07C30.7711 36.9553 30.0533 37.6731 29.168 37.6731Z" fill="#DCE2E2"/>
<path d="M24.7937 11.0159H5.80078C5.24741 11.0159 4.79883 10.5673 4.79883 10.0139C4.79883 9.46054 5.24741 9.01196 5.80078 9.01196H24.7937C25.347 9.01196 25.7956 9.46054 25.7956 10.0139C25.7956 10.5673 25.3471 11.0159 24.7937 11.0159ZM25.7956 14.5613C25.7956 14.0079 25.347 13.5593 24.7937 13.5593H5.80078C5.24741 13.5593 4.79883 14.0079 4.79883 14.5613C4.79883 15.1147 5.24741 15.5633 5.80078 15.5633H24.7937C25.3471 15.5633 25.7956 15.1147 25.7956 14.5613ZM12.9698 19.1088C12.9698 18.5554 12.5212 18.1068 11.9678 18.1068H5.80078C5.24741 18.1068 4.79883 18.5554 4.79883 19.1088C4.79883 19.6621 5.24741 20.1107 5.80078 20.1107H11.9678C12.5212 20.1107 12.9698 19.6621 12.9698 19.1088ZM25.7956 23.6561C25.7956 23.1028 25.347 22.6542 24.7937 22.6542H5.80078C5.24741 22.6542 4.79883 23.1028 4.79883 23.6561C4.79883 24.2095 5.24741 24.6581 5.80078 24.6581H24.7937C25.3471 24.6581 25.7956 24.2095 25.7956 23.6561ZM12.9698 32.4658C12.9698 31.9125 12.5212 31.4639 11.9678 31.4639H5.80078C5.24741 31.4639 4.79883 31.9125 4.79883 32.4658C4.79883 33.0192 5.24741 33.4678 5.80078 33.4678H11.9678C12.5212 33.4678 12.9698 33.0192 12.9698 32.4658Z" fill="#96A9B2"/>
<path d="M34.9901 10.4291C33.5355 8.97444 31.876 8.2756 31.2836 8.86809L27.2773 12.8743L32.5449 18.1419L36.5511 14.1356C37.1436 13.5431 36.4447 11.8837 34.9901 10.4291Z" fill="#FF6E83"/>
<path d="M32.4505 12.9688C30.7909 11.3092 28.8976 10.5119 28.2217 11.1878L24.1191 15.2904L30.129 21.3002L34.2315 17.1977C34.9074 16.5217 34.11 14.6283 32.4505 12.9688Z" fill="#BFBCAF"/>
<path d="M16.6306 31.5141L13.0171 33.0858C12.9546 33.113 12.8873 33.1276 12.8192 33.1288C12.751 33.13 12.6832 33.1178 12.6198 33.0928C12.5563 33.0678 12.4984 33.0306 12.4494 32.9832C12.4003 32.9358 12.3611 32.8793 12.3339 32.8167C12.3056 32.7514 12.291 32.6809 12.291 32.6096C12.291 32.5384 12.3056 32.4679 12.3339 32.4025L13.9055 28.7891C14.3617 27.7403 15.5818 27.2599 16.6306 27.7161C17.6793 28.1722 18.1598 29.3923 17.7036 30.4411C17.4866 30.94 17.0926 31.3121 16.6306 31.5141Z" fill="#2B2622"/>
<path d="M31.8613 19.5554C31.8652 19.5499 31.869 19.5445 31.8726 19.5389C32.3939 18.792 31.5964 16.994 30.0109 15.4086C28.4255 13.8231 26.6275 13.0256 25.8806 13.5468C25.8751 13.5504 25.8695 13.5542 25.8641 13.5581C25.8573 13.5631 25.8504 13.5678 25.8439 13.573C25.8255 13.5872 25.8075 13.6022 25.7906 13.619L16.2565 23.1531C16.2565 23.1531 13.5593 29.8277 14.5756 30.8439C15.5918 31.8601 22.2663 29.163 22.2663 29.163L31.8005 19.6289C31.8173 19.612 31.8324 19.5941 31.8465 19.5756C31.8516 19.5691 31.8564 19.5621 31.8613 19.5554Z" fill="#FFD469"/>
<path d="M16.2558 23.1533L16.044 24.4729C16.0128 24.6669 16.1809 24.8345 16.3749 24.8028L17.3205 24.6484C17.5072 24.6179 17.6722 24.7727 17.6537 24.961L17.5483 26.0284C17.544 26.0721 17.5498 26.1163 17.5652 26.1575C17.5806 26.1987 17.6051 26.2358 17.6371 26.266C17.669 26.2962 17.7074 26.3187 17.7494 26.3318C17.7914 26.3448 17.8358 26.3481 17.8792 26.3414L18.8349 26.1932C19.0303 26.1629 19.1975 26.3339 19.1627 26.5286L18.9992 27.4429C18.9655 27.6312 19.1213 27.7995 19.3117 27.7803L20.3874 27.6718C20.4299 27.6674 20.4729 27.6727 20.5131 27.687C20.5534 27.7014 20.59 27.7245 20.6202 27.7548C20.6504 27.785 20.6735 27.8216 20.6878 27.8619C20.7021 27.9022 20.7072 27.9452 20.7029 27.9877L20.592 29.0729C20.5729 29.2596 20.7346 29.4144 20.9203 29.3872L22.2891 29.1866L14.5749 32.4145C15.1903 31.7991 13.5969 30.2057 12.9814 30.821L16.2558 23.1533Z" fill="#E5AA6E"/>
<path d="M18.2361 23.5018C18.1651 23.5018 18.0956 23.4807 18.0366 23.4412C17.9775 23.4017 17.9315 23.3456 17.9043 23.28C17.8771 23.2144 17.87 23.1421 17.8838 23.0725C17.8977 23.0028 17.9319 22.9388 17.9821 22.8885L25.9372 14.9333C26.0051 14.8683 26.0957 14.8325 26.1896 14.8335C26.2836 14.8345 26.3734 14.8723 26.4398 14.9388C26.5063 15.0052 26.5441 15.095 26.5451 15.189C26.5461 15.2829 26.5103 15.3735 26.4453 15.4414L18.4901 23.3966C18.4568 23.43 18.4172 23.4565 18.3736 23.4746C18.33 23.4926 18.2833 23.5019 18.2361 23.5018ZM20.5224 25.4289L28.4776 17.4736C28.5425 17.4058 28.5784 17.3152 28.5773 17.2212C28.5763 17.1273 28.5385 17.0374 28.4721 16.971C28.4057 16.9046 28.3159 16.8668 28.2219 16.8658C28.128 16.8648 28.0373 16.9006 27.9695 16.9655L20.0143 24.9208C19.9493 24.9886 19.9135 25.0792 19.9145 25.1732C19.9155 25.2671 19.9533 25.3569 20.0197 25.4234C20.0862 25.4898 20.176 25.5276 20.2699 25.5286C20.3639 25.5296 20.4545 25.4938 20.5224 25.4289ZM22.5545 27.461L30.5098 19.5058C30.5747 19.438 30.6105 19.3473 30.6095 19.2534C30.6085 19.1594 30.5707 19.0696 30.5043 19.0032C30.4378 18.9368 30.348 18.899 30.2541 18.898C30.1601 18.8969 30.0695 18.9327 30.0017 18.9977L22.0464 26.9529C21.9815 27.0208 21.9457 27.1114 21.9467 27.2054C21.9477 27.2993 21.9855 27.3891 22.0519 27.4556C22.1183 27.522 22.2082 27.5598 22.3021 27.5608C22.3961 27.5618 22.4867 27.526 22.5545 27.461Z" fill="#FFB636"/>
<path d="M21.6429 4.10564H10.0476C9.45017 4.10564 8.96582 3.62129 8.96582 3.02383V1.35769C8.96582 0.76023 9.45017 0.275879 10.0476 0.275879H21.6429C22.2404 0.275879 22.7247 0.76023 22.7247 1.35769V3.02383C22.7247 3.62129 22.2404 4.10564 21.6429 4.10564Z" fill="#B9C5C6"/>
</svg>
