<svg width="16" height="12" viewBox="0 0 16 12" fill="none" xmlns="http://www.w3.org/2000/svg">
<path d="M16 2.34343C16 2.61279 15.9037 2.84175 15.711 3.0303L8.23742 10.3434L6.83355 11.7172C6.64086 11.9057 6.40688 12 6.13161 12C5.85634 12 5.62237 11.9057 5.42968 11.7172L4.02581 10.3434L0.289032 6.68687C0.0963441 6.49832 0 6.26936 0 6C0 5.73064 0.0963441 5.50168 0.289032 5.31313L1.6929 3.93939C1.88559 3.75084 2.11957 3.65657 2.39484 3.65657C2.67011 3.65657 2.90409 3.75084 3.09677 3.93939L6.13161 6.91919L12.9032 0.282828C13.0959 0.0942761 13.3299 0 13.6052 0C13.8804 0 14.1144 0.0942761 14.3071 0.282828L15.711 1.65657C15.9037 1.84512 16 2.07407 16 2.34343Z" fill="#5FA65A"/>
</svg>
