<svg width="18" height="22" viewBox="0 0 18 22" fill="#171719" xmlns="http://www.w3.org/2000/svg">
<path d="M6.9996 9.59758C7.49665 9.59758 7.89959 10.0005 7.89959 10.4976V15.4976C7.89959 15.9946 7.49665 16.3976 6.9996 16.3976C6.50254 16.3976 6.0996 15.9946 6.0996 15.4976V10.4976C6.0996 10.0005 6.50254 9.59758 6.9996 9.59758Z" />
<path d="M10.9996 9.59758C11.4966 9.59758 11.8996 10.0005 11.8996 10.4976V15.4976C11.8996 15.9946 11.4966 16.3976 10.9996 16.3976C10.5025 16.3976 10.0996 15.9946 10.0996 15.4976V10.4976C10.0996 10.0005 10.5025 9.59758 10.9996 9.59758Z" />
<path clip-rule="evenodd" d="M16.9995 4.84797H13.3994C13.3994 4.34727 13.3982 3.91875 13.3692 3.56419C13.3374 3.17503 13.2678 2.79644 13.0834 2.43451C12.8053 1.88884 12.3617 1.44519 11.816 1.16716C11.4541 0.982745 11.0755 0.913111 10.6863 0.881315C10.3159 0.851052 9.86477 0.851062 9.33495 0.851075H8.66404C8.13422 0.851062 7.68297 0.851052 7.31256 0.881315C6.9234 0.913111 6.54481 0.982745 6.18288 1.16716C5.63721 1.44519 5.19357 1.88884 4.91554 2.43451C4.73112 2.79644 4.66149 3.17503 4.62969 3.56419C4.60073 3.91875 4.5995 4.34727 4.59945 4.84797H0.999607C0.502552 4.84797 0.0996094 5.25091 0.0996094 5.74797C0.0996094 6.24503 0.502552 6.64797 0.999607 6.64797H1.59951L1.5995 17.0843C1.59949 17.6142 1.59948 18.0654 1.62974 18.4358C1.66154 18.825 1.73117 19.2036 1.91559 19.5655C2.19362 20.1112 2.63726 20.5548 3.18293 20.8329C3.54486 21.0173 3.92345 21.0869 4.31261 21.1187C4.68302 21.149 5.13416 21.149 5.66398 21.1489H12.3349C12.8647 21.149 13.316 21.149 13.6864 21.1187C14.0755 21.0869 14.4541 21.0173 14.816 20.8329C15.3617 20.5548 15.8054 20.1112 16.0834 19.5655C16.2678 19.2036 16.3374 18.825 16.3692 18.4358C16.3995 18.0654 16.3995 17.6142 16.3995 17.0843V6.64797H16.9995C17.4966 6.64797 17.8995 6.24503 17.8995 5.74797C17.8995 5.25091 17.4966 4.84797 16.9995 4.84797ZM11.5998 4.84797H6.3998V4.54195C6.3998 3.72739 6.4109 3.53356 6.45364 3.40204C6.56245 3.06715 6.825 2.8046 7.15988 2.69579C7.2914 2.65306 7.48523 2.64196 8.2998 2.64196H9.69979C10.5143 2.64196 10.7082 2.65306 10.8397 2.69579C11.1746 2.8046 11.4371 3.06715 11.5459 3.40204C11.5887 3.53356 11.5998 3.72739 11.5998 4.54196V4.84797ZM3.39983 17.4425V6.64797H14.5998V17.4425C14.5998 18.2571 14.5887 18.4509 14.546 18.5825C14.4372 18.9173 14.1746 19.1799 13.8397 19.2887C13.7082 19.3314 13.5144 19.3425 12.6998 19.3425H5.29982C4.48526 19.3425 4.29143 19.3314 4.15991 19.2887C3.82503 19.1799 3.56248 18.9173 3.45367 18.5825C3.41093 18.4509 3.39983 18.2571 3.39983 17.4425Z" />
</svg>
